<svg width="199" height="36" viewBox="0 0 199 36" fill="none" xmlns="http://www.w3.org/2000/svg">
<rect width="199" height="36" rx="17.6328" fill="#E965FF"/>
<mask id="path-2-outside-1_304_7459" maskUnits="userSpaceOnUse" x="19.9033" y="10.9712" width="158" height="13" fill="black">
<rect fill="white" x="19.9033" y="10.9712" width="158" height="13"/>
<path d="M27.6942 12.5237C26.3157 14.6463 22.2528 20.8687 20.9033 22.846H23.0799L24.4148 20.767H31.5975L32.1924 22.846H34.2239C33.5999 20.8687 31.7571 14.6463 31.1622 12.5237H27.6942ZM26.2432 17.9174C27.0412 16.6671 27.8393 15.3877 28.5068 14.3264H29.8272C30.1174 15.4023 30.4657 16.6962 30.8139 17.961L31.1477 19.1241H25.4596L26.2432 17.9174Z"/>
<path d="M39.7387 23.0204C41.8282 23.0204 43.1052 22.5261 43.9177 21.5666L43.7146 22.846H45.4994C45.6155 22.1336 45.7025 21.6393 45.8912 20.5198L46.9649 14.3846C47.1536 13.3378 47.2842 12.5818 47.4148 11.9712H45.4704C45.3833 12.5818 45.1221 14.1374 44.8609 15.6203C44.3095 14.6899 43.1052 14.2101 41.0157 14.2101C37.1124 14.2101 36.0241 15.1406 35.4582 18.3972L35.3856 18.8333C34.8197 22.0609 35.8935 23.0204 39.7387 23.0204ZM40.3772 21.3049C37.4316 21.3049 36.9527 20.767 37.3155 18.6734L37.33 18.5571C37.7073 16.449 38.3893 15.9257 41.3929 15.9257C44.237 15.9257 44.7303 16.5072 44.3676 18.5571L44.3386 18.6734C43.9758 20.7088 43.2793 21.3049 40.3772 21.3049Z"/>
<path d="M52.4212 23.0204C54.5107 23.0204 55.7876 22.5261 56.6002 21.5666L56.397 22.846H58.1818C58.2979 22.1336 58.385 21.6393 58.5736 20.5198L59.6474 14.3846C59.836 13.3378 59.9666 12.5818 60.0972 11.9712H58.1528C58.0657 12.5818 57.8046 14.1374 57.5434 15.6203C56.992 14.6899 55.7876 14.2101 53.6981 14.2101C49.7948 14.2101 48.7065 15.1406 48.1406 18.3972L48.0681 18.8333C47.5022 22.0609 48.5759 23.0204 52.4212 23.0204ZM53.0597 21.3049C50.114 21.3049 49.6352 20.767 49.998 18.6734L50.0125 18.5571C50.3897 16.449 51.0717 15.9257 54.0754 15.9257C56.9194 15.9257 57.4128 16.5072 57.05 18.5571L57.021 18.6734C56.6582 20.7088 55.9617 21.3049 53.0597 21.3049Z"/>
<path d="M70.2248 23.0204C72.5465 23.0204 73.8379 22.5697 74.5489 21.7992L74.3893 22.846H76.1015C76.2901 21.6974 76.4207 20.956 76.5804 20.0837C76.8125 18.7461 76.9141 18.2518 77.1172 17.1033C77.4655 15.126 76.6674 14.2101 72.2998 14.2101C68.3094 14.2101 67.3808 14.9807 67.076 16.8997L68.8898 16.9433C69.0349 16.042 69.3832 15.7512 72.1692 15.7512C75.0277 15.7512 75.3905 16.1583 75.1583 17.4958L74.9842 18.4844C74.4473 17.9174 73.2865 17.6121 71.1244 17.6121C67.3662 17.6121 66.4521 18.4117 66.1038 20.3453C65.7846 22.2499 66.4376 23.0204 70.2248 23.0204ZM71.1244 21.552C68.3239 21.552 67.8596 21.2322 68.0192 20.3017C68.1788 19.3567 68.5996 18.9642 71.6033 18.9642C74.4909 18.9642 74.8826 19.3422 74.7666 19.9528L74.7085 20.3163C74.5634 21.1595 74.0265 21.552 71.1244 21.552Z"/>
<path d="M88.9919 23.0204C93.2579 23.0204 94.2156 22.0609 94.6799 19.473L92.8226 19.4294C92.5905 20.7815 91.9375 21.334 89.0789 21.334C86.1623 21.334 85.727 20.7815 86.0898 18.6734L86.1043 18.5571C86.4816 16.4345 87.12 15.8966 90.0366 15.8966C92.8952 15.8966 93.316 16.4636 93.0838 17.8011V17.7866L94.9556 17.743C95.4345 15.0824 94.4042 14.2101 90.1382 14.2101C85.9302 14.2101 84.7984 15.1697 84.2324 18.3972L84.1599 18.8333C83.594 22.0609 84.7984 23.0204 88.9919 23.0204Z"/>
<path d="M100.981 23.0204C105.305 23.0204 106.393 22.0609 106.959 18.8333L107.031 18.3972C107.597 15.1697 106.48 14.2101 102.17 14.2101C97.8464 14.2101 96.7581 15.1697 96.1922 18.3972L96.1197 18.8333C95.5537 22.0609 96.6711 23.0204 100.981 23.0204ZM101.082 21.334C98.1221 21.334 97.6868 20.7815 98.0495 18.6734L98.064 18.5571C98.4413 16.4345 99.0798 15.8966 102.054 15.8966C105.015 15.8966 105.479 16.4345 105.087 18.5571L105.073 18.6734C104.71 20.7815 104.057 21.334 101.082 21.334Z"/>
<path d="M108.523 20.5198C108.335 21.6102 108.233 22.2063 108.103 22.846H110.018C110.105 22.2063 110.207 21.6393 110.41 20.5198L110.744 18.6007C111.121 16.5217 111.817 15.9257 113.921 15.9257C115.793 15.9257 116.214 16.3763 115.953 17.8738L115.488 20.5634C115.285 21.6538 115.213 22.119 115.068 22.846H116.969C117.114 21.9591 117.244 21.3049 117.36 20.5198L117.709 18.6007C118.071 16.5217 118.811 15.9257 120.886 15.9257C122.758 15.9257 123.193 16.3763 122.932 17.8738L122.453 20.5489C122.265 21.6538 122.192 22.119 122.033 22.846H123.948C124.093 21.9737 124.209 21.3194 124.34 20.5489L124.47 19.7638C124.703 18.4553 124.848 17.7575 124.949 17.1033C125.327 15.0243 124.557 14.2101 121.713 14.2101C119.871 14.2101 118.753 14.719 118.057 15.7367C117.839 14.6463 116.867 14.2101 114.806 14.2101C113.007 14.2101 111.904 14.6753 111.179 15.6203L111.367 14.3846H109.597C109.51 14.9516 109.409 15.504 109.234 16.5072L108.523 20.5198Z"/>
<path d="M126.69 20.5198C126.501 21.6102 126.4 22.2063 126.269 22.846H128.184C128.271 22.2063 128.373 21.6393 128.576 20.5198L128.91 18.6007C129.287 16.5217 129.984 15.9257 132.088 15.9257C133.96 15.9257 134.38 16.3763 134.119 17.8738L133.655 20.5634C133.452 21.6538 133.379 22.119 133.234 22.846H135.135C135.28 21.9591 135.411 21.3049 135.527 20.5198L135.875 18.6007C136.238 16.5217 136.978 15.9257 139.053 15.9257C140.925 15.9257 141.36 16.3763 141.099 17.8738L140.62 20.5489C140.431 21.6538 140.359 22.119 140.199 22.846H142.114C142.259 21.9737 142.376 21.3194 142.506 20.5489L142.637 19.7638C142.869 18.4553 143.014 17.7575 143.116 17.1033C143.493 15.0243 142.724 14.2101 139.88 14.2101C138.037 14.2101 136.92 14.719 136.223 15.7367C136.005 14.6463 135.033 14.2101 132.973 14.2101C131.174 14.2101 130.071 14.6753 129.345 15.6203L129.534 14.3846H127.764C127.677 14.9516 127.575 15.504 127.401 16.5072L126.69 20.5198Z"/>
<path d="M149.558 23.0204C153.911 23.0204 154.709 22.1772 155.086 20.04L153.229 19.9819C153.055 20.9705 152.619 21.4357 149.645 21.4357C146.844 21.4357 146.293 20.9414 146.51 19.1677H155.231C155.275 18.9497 155.333 18.688 155.376 18.3972C155.87 15.2714 154.883 14.2101 150.66 14.2101C146.423 14.2101 145.291 15.1697 144.726 18.3972L144.653 18.8333C144.102 21.9591 145.248 23.0204 149.558 23.0204ZM150.573 15.664C153.316 15.664 153.751 16.1728 153.519 17.8157H146.757C147.163 16.1147 147.903 15.664 150.573 15.664Z"/>
<path d="M156.858 20.5198C156.67 21.6102 156.568 22.2063 156.438 22.846H158.353C158.44 22.2063 158.542 21.6393 158.745 20.5198L159.079 18.6007C159.456 16.5217 160.167 15.9257 162.808 15.9257C165.55 15.9257 165.913 16.5653 165.608 18.3972L165.216 20.5489C165.013 21.7265 164.941 22.1627 164.796 22.846H166.711C166.813 22.1336 166.914 21.523 167.103 20.5489L167.262 19.6475C167.422 18.6734 167.509 18.2809 167.625 17.6412C168.046 15.2133 167.262 14.2101 163.577 14.2101C161.574 14.2101 160.312 14.7044 159.499 15.6785L159.702 14.3846H157.932C157.845 14.9516 157.744 15.504 157.569 16.5072L156.858 20.5198Z"/>
<path d="M170.53 17.4667C170.385 18.31 170.225 19.1532 170.109 19.822C169.674 22.308 170.544 22.9187 174.07 22.9187C174.665 22.9187 175.115 22.8896 175.666 22.846L175.928 21.2031C175.362 21.2467 175.028 21.2613 174.404 21.2613C172.242 21.2613 171.778 21.0432 172.068 19.3713L172.663 16.0274H176.842L177.132 14.3846H172.953C173.083 13.6722 173.185 13.1197 173.258 12.7272L171.342 12.7563C171.241 13.4105 171.168 13.8903 171.067 14.3846C170.602 14.3846 170.08 14.3846 169.543 14.3846L169.253 16.0274H170.791L170.53 17.4667Z"/>
</mask>
<path d="M27.6942 12.5237C26.3157 14.6463 22.2528 20.8687 20.9033 22.846H23.0799L24.4148 20.767H31.5975L32.1924 22.846H34.2239C33.5999 20.8687 31.7571 14.6463 31.1622 12.5237H27.6942ZM26.2432 17.9174C27.0412 16.6671 27.8393 15.3877 28.5068 14.3264H29.8272C30.1174 15.4023 30.4657 16.6962 30.8139 17.961L31.1477 19.1241H25.4596L26.2432 17.9174Z" fill="white"/>
<path d="M39.7387 23.0204C41.8282 23.0204 43.1052 22.5261 43.9177 21.5666L43.7146 22.846H45.4994C45.6155 22.1336 45.7025 21.6393 45.8912 20.5198L46.9649 14.3846C47.1536 13.3378 47.2842 12.5818 47.4148 11.9712H45.4704C45.3833 12.5818 45.1221 14.1374 44.8609 15.6203C44.3095 14.6899 43.1052 14.2101 41.0157 14.2101C37.1124 14.2101 36.0241 15.1406 35.4582 18.3972L35.3856 18.8333C34.8197 22.0609 35.8935 23.0204 39.7387 23.0204ZM40.3772 21.3049C37.4316 21.3049 36.9527 20.767 37.3155 18.6734L37.33 18.5571C37.7073 16.449 38.3893 15.9257 41.3929 15.9257C44.237 15.9257 44.7303 16.5072 44.3676 18.5571L44.3386 18.6734C43.9758 20.7088 43.2793 21.3049 40.3772 21.3049Z" fill="white"/>
<path d="M52.4212 23.0204C54.5107 23.0204 55.7876 22.5261 56.6002 21.5666L56.397 22.846H58.1818C58.2979 22.1336 58.385 21.6393 58.5736 20.5198L59.6474 14.3846C59.836 13.3378 59.9666 12.5818 60.0972 11.9712H58.1528C58.0657 12.5818 57.8046 14.1374 57.5434 15.6203C56.992 14.6899 55.7876 14.2101 53.6981 14.2101C49.7948 14.2101 48.7065 15.1406 48.1406 18.3972L48.0681 18.8333C47.5022 22.0609 48.5759 23.0204 52.4212 23.0204ZM53.0597 21.3049C50.114 21.3049 49.6352 20.767 49.998 18.6734L50.0125 18.5571C50.3897 16.449 51.0717 15.9257 54.0754 15.9257C56.9194 15.9257 57.4128 16.5072 57.05 18.5571L57.021 18.6734C56.6582 20.7088 55.9617 21.3049 53.0597 21.3049Z" fill="white"/>
<path d="M70.2248 23.0204C72.5465 23.0204 73.8379 22.5697 74.5489 21.7992L74.3893 22.846H76.1015C76.2901 21.6974 76.4207 20.956 76.5804 20.0837C76.8125 18.7461 76.9141 18.2518 77.1172 17.1033C77.4655 15.126 76.6674 14.2101 72.2998 14.2101C68.3094 14.2101 67.3808 14.9807 67.076 16.8997L68.8898 16.9433C69.0349 16.042 69.3832 15.7512 72.1692 15.7512C75.0277 15.7512 75.3905 16.1583 75.1583 17.4958L74.9842 18.4844C74.4473 17.9174 73.2865 17.6121 71.1244 17.6121C67.3662 17.6121 66.4521 18.4117 66.1038 20.3453C65.7846 22.2499 66.4376 23.0204 70.2248 23.0204ZM71.1244 21.552C68.3239 21.552 67.8596 21.2322 68.0192 20.3017C68.1788 19.3567 68.5996 18.9642 71.6033 18.9642C74.4909 18.9642 74.8826 19.3422 74.7666 19.9528L74.7085 20.3163C74.5634 21.1595 74.0265 21.552 71.1244 21.552Z" fill="white"/>
<path d="M88.9919 23.0204C93.2579 23.0204 94.2156 22.0609 94.6799 19.473L92.8226 19.4294C92.5905 20.7815 91.9375 21.334 89.0789 21.334C86.1623 21.334 85.727 20.7815 86.0898 18.6734L86.1043 18.5571C86.4816 16.4345 87.12 15.8966 90.0366 15.8966C92.8952 15.8966 93.316 16.4636 93.0838 17.8011V17.7866L94.9556 17.743C95.4345 15.0824 94.4042 14.2101 90.1382 14.2101C85.9302 14.2101 84.7984 15.1697 84.2324 18.3972L84.1599 18.8333C83.594 22.0609 84.7984 23.0204 88.9919 23.0204Z" fill="white"/>
<path d="M100.981 23.0204C105.305 23.0204 106.393 22.0609 106.959 18.8333L107.031 18.3972C107.597 15.1697 106.48 14.2101 102.17 14.2101C97.8464 14.2101 96.7581 15.1697 96.1922 18.3972L96.1197 18.8333C95.5537 22.0609 96.6711 23.0204 100.981 23.0204ZM101.082 21.334C98.1221 21.334 97.6868 20.7815 98.0495 18.6734L98.064 18.5571C98.4413 16.4345 99.0798 15.8966 102.054 15.8966C105.015 15.8966 105.479 16.4345 105.087 18.5571L105.073 18.6734C104.71 20.7815 104.057 21.334 101.082 21.334Z" fill="white"/>
<path d="M108.523 20.5198C108.335 21.6102 108.233 22.2063 108.103 22.846H110.018C110.105 22.2063 110.207 21.6393 110.41 20.5198L110.744 18.6007C111.121 16.5217 111.817 15.9257 113.921 15.9257C115.793 15.9257 116.214 16.3763 115.953 17.8738L115.488 20.5634C115.285 21.6538 115.213 22.119 115.068 22.846H116.969C117.114 21.9591 117.244 21.3049 117.36 20.5198L117.709 18.6007C118.071 16.5217 118.811 15.9257 120.886 15.9257C122.758 15.9257 123.193 16.3763 122.932 17.8738L122.453 20.5489C122.265 21.6538 122.192 22.119 122.033 22.846H123.948C124.093 21.9737 124.209 21.3194 124.34 20.5489L124.47 19.7638C124.703 18.4553 124.848 17.7575 124.949 17.1033C125.327 15.0243 124.557 14.2101 121.713 14.2101C119.871 14.2101 118.753 14.719 118.057 15.7367C117.839 14.6463 116.867 14.2101 114.806 14.2101C113.007 14.2101 111.904 14.6753 111.179 15.6203L111.367 14.3846H109.597C109.51 14.9516 109.409 15.504 109.234 16.5072L108.523 20.5198Z" fill="white"/>
<path d="M126.69 20.5198C126.501 21.6102 126.4 22.2063 126.269 22.846H128.184C128.271 22.2063 128.373 21.6393 128.576 20.5198L128.91 18.6007C129.287 16.5217 129.984 15.9257 132.088 15.9257C133.96 15.9257 134.38 16.3763 134.119 17.8738L133.655 20.5634C133.452 21.6538 133.379 22.119 133.234 22.846H135.135C135.28 21.9591 135.411 21.3049 135.527 20.5198L135.875 18.6007C136.238 16.5217 136.978 15.9257 139.053 15.9257C140.925 15.9257 141.36 16.3763 141.099 17.8738L140.62 20.5489C140.431 21.6538 140.359 22.119 140.199 22.846H142.114C142.259 21.9737 142.376 21.3194 142.506 20.5489L142.637 19.7638C142.869 18.4553 143.014 17.7575 143.116 17.1033C143.493 15.0243 142.724 14.2101 139.88 14.2101C138.037 14.2101 136.92 14.719 136.223 15.7367C136.005 14.6463 135.033 14.2101 132.973 14.2101C131.174 14.2101 130.071 14.6753 129.345 15.6203L129.534 14.3846H127.764C127.677 14.9516 127.575 15.504 127.401 16.5072L126.69 20.5198Z" fill="white"/>
<path d="M149.558 23.0204C153.911 23.0204 154.709 22.1772 155.086 20.04L153.229 19.9819C153.055 20.9705 152.619 21.4357 149.645 21.4357C146.844 21.4357 146.293 20.9414 146.51 19.1677H155.231C155.275 18.9497 155.333 18.688 155.376 18.3972C155.87 15.2714 154.883 14.2101 150.66 14.2101C146.423 14.2101 145.291 15.1697 144.726 18.3972L144.653 18.8333C144.102 21.9591 145.248 23.0204 149.558 23.0204ZM150.573 15.664C153.316 15.664 153.751 16.1728 153.519 17.8157H146.757C147.163 16.1147 147.903 15.664 150.573 15.664Z" fill="white"/>
<path d="M156.858 20.5198C156.67 21.6102 156.568 22.2063 156.438 22.846H158.353C158.44 22.2063 158.542 21.6393 158.745 20.5198L159.079 18.6007C159.456 16.5217 160.167 15.9257 162.808 15.9257C165.55 15.9257 165.913 16.5653 165.608 18.3972L165.216 20.5489C165.013 21.7265 164.941 22.1627 164.796 22.846H166.711C166.813 22.1336 166.914 21.523 167.103 20.5489L167.262 19.6475C167.422 18.6734 167.509 18.2809 167.625 17.6412C168.046 15.2133 167.262 14.2101 163.577 14.2101C161.574 14.2101 160.312 14.7044 159.499 15.6785L159.702 14.3846H157.932C157.845 14.9516 157.744 15.504 157.569 16.5072L156.858 20.5198Z" fill="white"/>
<path d="M170.53 17.4667C170.385 18.31 170.225 19.1532 170.109 19.822C169.674 22.308 170.544 22.9187 174.07 22.9187C174.665 22.9187 175.115 22.8896 175.666 22.846L175.928 21.2031C175.362 21.2467 175.028 21.2613 174.404 21.2613C172.242 21.2613 171.778 21.0432 172.068 19.3713L172.663 16.0274H176.842L177.132 14.3846H172.953C173.083 13.6722 173.185 13.1197 173.258 12.7272L171.342 12.7563C171.241 13.4105 171.168 13.8903 171.067 14.3846C170.602 14.3846 170.08 14.3846 169.543 14.3846L169.253 16.0274H170.791L170.53 17.4667Z" fill="white"/>
<path d="M27.6942 12.5237C26.3157 14.6463 22.2528 20.8687 20.9033 22.846H23.0799L24.4148 20.767H31.5975L32.1924 22.846H34.2239C33.5999 20.8687 31.7571 14.6463 31.1622 12.5237H27.6942ZM26.2432 17.9174C27.0412 16.6671 27.8393 15.3877 28.5068 14.3264H29.8272C30.1174 15.4023 30.4657 16.6962 30.8139 17.961L31.1477 19.1241H25.4596L26.2432 17.9174Z" stroke="white" stroke-width="0.276389" mask="url(#path-2-outside-1_304_7459)"/>
<path d="M39.7387 23.0204C41.8282 23.0204 43.1052 22.5261 43.9177 21.5666L43.7146 22.846H45.4994C45.6155 22.1336 45.7025 21.6393 45.8912 20.5198L46.9649 14.3846C47.1536 13.3378 47.2842 12.5818 47.4148 11.9712H45.4704C45.3833 12.5818 45.1221 14.1374 44.8609 15.6203C44.3095 14.6899 43.1052 14.2101 41.0157 14.2101C37.1124 14.2101 36.0241 15.1406 35.4582 18.3972L35.3856 18.8333C34.8197 22.0609 35.8935 23.0204 39.7387 23.0204ZM40.3772 21.3049C37.4316 21.3049 36.9527 20.767 37.3155 18.6734L37.33 18.5571C37.7073 16.449 38.3893 15.9257 41.3929 15.9257C44.237 15.9257 44.7303 16.5072 44.3676 18.5571L44.3386 18.6734C43.9758 20.7088 43.2793 21.3049 40.3772 21.3049Z" stroke="white" stroke-width="0.276389" mask="url(#path-2-outside-1_304_7459)"/>
<path d="M52.4212 23.0204C54.5107 23.0204 55.7876 22.5261 56.6002 21.5666L56.397 22.846H58.1818C58.2979 22.1336 58.385 21.6393 58.5736 20.5198L59.6474 14.3846C59.836 13.3378 59.9666 12.5818 60.0972 11.9712H58.1528C58.0657 12.5818 57.8046 14.1374 57.5434 15.6203C56.992 14.6899 55.7876 14.2101 53.6981 14.2101C49.7948 14.2101 48.7065 15.1406 48.1406 18.3972L48.0681 18.8333C47.5022 22.0609 48.5759 23.0204 52.4212 23.0204ZM53.0597 21.3049C50.114 21.3049 49.6352 20.767 49.998 18.6734L50.0125 18.5571C50.3897 16.449 51.0717 15.9257 54.0754 15.9257C56.9194 15.9257 57.4128 16.5072 57.05 18.5571L57.021 18.6734C56.6582 20.7088 55.9617 21.3049 53.0597 21.3049Z" stroke="white" stroke-width="0.276389" mask="url(#path-2-outside-1_304_7459)"/>
<path d="M70.2248 23.0204C72.5465 23.0204 73.8379 22.5697 74.5489 21.7992L74.3893 22.846H76.1015C76.2901 21.6974 76.4207 20.956 76.5804 20.0837C76.8125 18.7461 76.9141 18.2518 77.1172 17.1033C77.4655 15.126 76.6674 14.2101 72.2998 14.2101C68.3094 14.2101 67.3808 14.9807 67.076 16.8997L68.8898 16.9433C69.0349 16.042 69.3832 15.7512 72.1692 15.7512C75.0277 15.7512 75.3905 16.1583 75.1583 17.4958L74.9842 18.4844C74.4473 17.9174 73.2865 17.6121 71.1244 17.6121C67.3662 17.6121 66.4521 18.4117 66.1038 20.3453C65.7846 22.2499 66.4376 23.0204 70.2248 23.0204ZM71.1244 21.552C68.3239 21.552 67.8596 21.2322 68.0192 20.3017C68.1788 19.3567 68.5996 18.9642 71.6033 18.9642C74.4909 18.9642 74.8826 19.3422 74.7666 19.9528L74.7085 20.3163C74.5634 21.1595 74.0265 21.552 71.1244 21.552Z" stroke="white" stroke-width="0.276389" mask="url(#path-2-outside-1_304_7459)"/>
<path d="M88.9919 23.0204C93.2579 23.0204 94.2156 22.0609 94.6799 19.473L92.8226 19.4294C92.5905 20.7815 91.9375 21.334 89.0789 21.334C86.1623 21.334 85.727 20.7815 86.0898 18.6734L86.1043 18.5571C86.4816 16.4345 87.12 15.8966 90.0366 15.8966C92.8952 15.8966 93.316 16.4636 93.0838 17.8011V17.7866L94.9556 17.743C95.4345 15.0824 94.4042 14.2101 90.1382 14.2101C85.9302 14.2101 84.7984 15.1697 84.2324 18.3972L84.1599 18.8333C83.594 22.0609 84.7984 23.0204 88.9919 23.0204Z" stroke="white" stroke-width="0.276389" mask="url(#path-2-outside-1_304_7459)"/>
<path d="M100.981 23.0204C105.305 23.0204 106.393 22.0609 106.959 18.8333L107.031 18.3972C107.597 15.1697 106.48 14.2101 102.17 14.2101C97.8464 14.2101 96.7581 15.1697 96.1922 18.3972L96.1197 18.8333C95.5537 22.0609 96.6711 23.0204 100.981 23.0204ZM101.082 21.334C98.1221 21.334 97.6868 20.7815 98.0495 18.6734L98.064 18.5571C98.4413 16.4345 99.0798 15.8966 102.054 15.8966C105.015 15.8966 105.479 16.4345 105.087 18.5571L105.073 18.6734C104.71 20.7815 104.057 21.334 101.082 21.334Z" stroke="white" stroke-width="0.276389" mask="url(#path-2-outside-1_304_7459)"/>
<path d="M108.523 20.5198C108.335 21.6102 108.233 22.2063 108.103 22.846H110.018C110.105 22.2063 110.207 21.6393 110.41 20.5198L110.744 18.6007C111.121 16.5217 111.817 15.9257 113.921 15.9257C115.793 15.9257 116.214 16.3763 115.953 17.8738L115.488 20.5634C115.285 21.6538 115.213 22.119 115.068 22.846H116.969C117.114 21.9591 117.244 21.3049 117.36 20.5198L117.709 18.6007C118.071 16.5217 118.811 15.9257 120.886 15.9257C122.758 15.9257 123.193 16.3763 122.932 17.8738L122.453 20.5489C122.265 21.6538 122.192 22.119 122.033 22.846H123.948C124.093 21.9737 124.209 21.3194 124.34 20.5489L124.47 19.7638C124.703 18.4553 124.848 17.7575 124.949 17.1033C125.327 15.0243 124.557 14.2101 121.713 14.2101C119.871 14.2101 118.753 14.719 118.057 15.7367C117.839 14.6463 116.867 14.2101 114.806 14.2101C113.007 14.2101 111.904 14.6753 111.179 15.6203L111.367 14.3846H109.597C109.51 14.9516 109.409 15.504 109.234 16.5072L108.523 20.5198Z" stroke="white" stroke-width="0.276389" mask="url(#path-2-outside-1_304_7459)"/>
<path d="M126.69 20.5198C126.501 21.6102 126.4 22.2063 126.269 22.846H128.184C128.271 22.2063 128.373 21.6393 128.576 20.5198L128.91 18.6007C129.287 16.5217 129.984 15.9257 132.088 15.9257C133.96 15.9257 134.38 16.3763 134.119 17.8738L133.655 20.5634C133.452 21.6538 133.379 22.119 133.234 22.846H135.135C135.28 21.9591 135.411 21.3049 135.527 20.5198L135.875 18.6007C136.238 16.5217 136.978 15.9257 139.053 15.9257C140.925 15.9257 141.36 16.3763 141.099 17.8738L140.62 20.5489C140.431 21.6538 140.359 22.119 140.199 22.846H142.114C142.259 21.9737 142.376 21.3194 142.506 20.5489L142.637 19.7638C142.869 18.4553 143.014 17.7575 143.116 17.1033C143.493 15.0243 142.724 14.2101 139.88 14.2101C138.037 14.2101 136.92 14.719 136.223 15.7367C136.005 14.6463 135.033 14.2101 132.973 14.2101C131.174 14.2101 130.071 14.6753 129.345 15.6203L129.534 14.3846H127.764C127.677 14.9516 127.575 15.504 127.401 16.5072L126.69 20.5198Z" stroke="white" stroke-width="0.276389" mask="url(#path-2-outside-1_304_7459)"/>
<path d="M149.558 23.0204C153.911 23.0204 154.709 22.1772 155.086 20.04L153.229 19.9819C153.055 20.9705 152.619 21.4357 149.645 21.4357C146.844 21.4357 146.293 20.9414 146.51 19.1677H155.231C155.275 18.9497 155.333 18.688 155.376 18.3972C155.87 15.2714 154.883 14.2101 150.66 14.2101C146.423 14.2101 145.291 15.1697 144.726 18.3972L144.653 18.8333C144.102 21.9591 145.248 23.0204 149.558 23.0204ZM150.573 15.664C153.316 15.664 153.751 16.1728 153.519 17.8157H146.757C147.163 16.1147 147.903 15.664 150.573 15.664Z" stroke="white" stroke-width="0.276389" mask="url(#path-2-outside-1_304_7459)"/>
<path d="M156.858 20.5198C156.67 21.6102 156.568 22.2063 156.438 22.846H158.353C158.44 22.2063 158.542 21.6393 158.745 20.5198L159.079 18.6007C159.456 16.5217 160.167 15.9257 162.808 15.9257C165.55 15.9257 165.913 16.5653 165.608 18.3972L165.216 20.5489C165.013 21.7265 164.941 22.1627 164.796 22.846H166.711C166.813 22.1336 166.914 21.523 167.103 20.5489L167.262 19.6475C167.422 18.6734 167.509 18.2809 167.625 17.6412C168.046 15.2133 167.262 14.2101 163.577 14.2101C161.574 14.2101 160.312 14.7044 159.499 15.6785L159.702 14.3846H157.932C157.845 14.9516 157.744 15.504 157.569 16.5072L156.858 20.5198Z" stroke="white" stroke-width="0.276389" mask="url(#path-2-outside-1_304_7459)"/>
<path d="M170.53 17.4667C170.385 18.31 170.225 19.1532 170.109 19.822C169.674 22.308 170.544 22.9187 174.07 22.9187C174.665 22.9187 175.115 22.8896 175.666 22.846L175.928 21.2031C175.362 21.2467 175.028 21.2613 174.404 21.2613C172.242 21.2613 171.778 21.0432 172.068 19.3713L172.663 16.0274H176.842L177.132 14.3846H172.953C173.083 13.6722 173.185 13.1197 173.258 12.7272L171.342 12.7563C171.241 13.4105 171.168 13.8903 171.067 14.3846C170.602 14.3846 170.08 14.3846 169.543 14.3846L169.253 16.0274H170.791L170.53 17.4667Z" stroke="white" stroke-width="0.276389" mask="url(#path-2-outside-1_304_7459)"/>
</svg>
