<svg width="231" height="41" viewBox="0 0 231 41" fill="none" xmlns="http://www.w3.org/2000/svg">
<path d="M106.671 28.2C106.671 23.96 107.951 22.8 111.991 22.8C114.231 22.8 117.191 23.2 119.231 23.64L119.731 22.1C117.651 21.66 114.611 21.26 111.851 21.26C106.011 21.26 104.851 24.18 104.851 28.2C104.851 32.22 105.991 35.24 111.751 35.2C114.771 35.18 117.611 34.82 119.911 34.28L119.431 32.72C117.431 33.28 114.751 33.66 111.991 33.66C108.171 33.66 106.671 32.18 106.671 28.2ZM128.424 24C124.384 24 121.664 25.84 121.664 29.24V29.86C121.664 33.26 124.384 35.1 128.424 35.1H129.984C134.024 35.1 136.744 33.26 136.744 29.86V29.24C136.744 25.84 134.024 24 129.984 24H128.424ZM134.964 29.86C134.964 32.22 133.364 33.58 130.044 33.58H128.364C125.044 33.58 123.444 32.22 123.444 29.86V29.24C123.444 26.88 125.044 25.52 128.364 25.52H130.044C133.364 25.52 134.964 26.88 134.964 29.24V29.86ZM149.933 26.54C149.613 24.84 147.773 24 145.693 24H144.733C143.253 24 141.793 24.76 141.253 26.06V24.1H139.473V35H141.253V28.62C141.533 26.8 143.133 25.52 144.553 25.52H145.693C147.233 25.52 148.473 26.36 148.473 28.62V35H150.253V28.82C150.533 27 151.853 25.52 153.673 25.52H154.813C156.593 25.52 157.513 26.56 157.513 28.22V35H159.293V28.04C159.293 25.42 157.513 24 154.913 24H153.953C152.253 24 150.533 24.94 149.933 26.54ZM173.039 26.54C172.719 24.84 170.879 24 168.799 24H167.839C166.359 24 164.899 24.76 164.359 26.06V24.1H162.579V35H164.359V28.62C164.639 26.8 166.239 25.52 167.659 25.52H168.799C170.339 25.52 171.579 26.36 171.579 28.62V35H173.359V28.82C173.639 27 174.959 25.52 176.779 25.52H177.919C179.699 25.52 180.619 26.56 180.619 28.22V35H182.399V28.04C182.399 25.42 180.619 24 178.019 24H177.059C175.359 24 173.639 24.94 173.039 26.54ZM193.304 25.52C195.864 25.52 197.544 26.4 197.544 28.24V28.9H187.664L188.184 30.42H199.324V28.72C199.324 25.32 197.204 24 193.164 24H191.544C187.504 24 184.984 25.74 184.984 29.14V29.96C184.984 33.36 187.504 35.1 191.544 35.1H192.744C195.124 35.1 197.544 34.74 199.464 34.16L198.984 32.66C197.204 33.24 194.744 33.58 192.744 33.58H191.484C188.164 33.58 186.764 32.32 186.764 29.96V29.14C186.764 26.78 188.164 25.52 191.484 25.52H193.304ZM201.993 24.1V35H203.773V28.3C204.933 26.68 206.833 25.52 209.073 25.52H209.733C213.153 25.52 214.533 26.9 214.533 29.26V35H216.333V29.14C216.333 25.74 213.613 24 209.733 24H209.073C206.973 24 204.913 24.92 203.773 26.28V24.1H201.993ZM221.691 31.84C221.691 34 222.411 35.06 225.111 35.06C226.791 35.06 227.931 34.9 229.271 34.58L229.671 33C228.351 33.38 227.131 33.58 225.711 33.58C224.371 33.58 223.471 33.2 223.471 32.22V26.46H229.151V24.94H223.471V21.46H221.691V24.94H218.691V26.46H221.691V31.84Z" fill="white"/>
<path d="M229.5 1H31C41.9169 1.32407 63.7508 5.77778 63.7508 21" stroke="white" stroke-width="2" stroke-linecap="round"/>
</svg>
