<svg width="139" height="36" viewBox="0 0 139 36" fill="none" xmlns="http://www.w3.org/2000/svg">
<rect width="139" height="36" rx="17.6328" fill="#E965FF"/>
<path d="M26.9362 22.43C32.1112 22.43 33.2962 21.395 33.8512 18.2L31.9012 18.155C31.5412 20.015 30.8812 20.615 27.0712 20.615C23.2912 20.615 22.7512 19.88 23.2612 16.97L23.2762 16.82C23.7862 13.985 24.5962 13.175 28.3762 13.175C32.2012 13.175 32.6662 13.76 32.3362 15.635L34.3012 15.59C34.8562 12.455 33.6562 11.36 28.4662 11.36C23.3512 11.36 22.0012 12.59 21.2812 16.655L21.1912 17.135C20.4562 21.08 21.7312 22.43 26.9362 22.43Z" fill="white"/>
<path d="M40.3606 22.4C44.8306 22.4 45.9556 21.41 46.5406 18.08L46.6156 17.63C47.2006 14.3 46.0456 13.31 41.5906 13.31C37.1206 13.31 35.9956 14.3 35.4106 17.63L35.3356 18.08C34.7506 21.41 35.9056 22.4 40.3606 22.4ZM40.4656 20.66C37.4056 20.66 36.9556 20.09 37.3306 17.915L37.3456 17.795C37.7356 15.605 38.3956 15.05 41.4706 15.05C44.5306 15.05 45.0106 15.605 44.6056 17.795L44.5906 17.915C44.2156 20.09 43.5406 20.66 40.4656 20.66Z" fill="white"/>
<path d="M48.1579 19.82C47.9629 20.945 47.8579 21.56 47.7229 22.22H49.7029C49.7929 21.56 49.8979 20.975 50.1079 19.82L50.4529 17.84C50.8429 15.695 51.5629 15.08 53.7379 15.08C55.6729 15.08 56.1079 15.545 55.8379 17.09L55.3579 19.865C55.1479 20.99 55.0729 21.47 54.9229 22.22H56.8879C57.0379 21.305 57.1729 20.63 57.2929 19.82L57.6529 17.84C58.0279 15.695 58.7929 15.08 60.9379 15.08C62.8729 15.08 63.3229 15.545 63.0529 17.09L62.5579 19.85C62.3629 20.99 62.2879 21.47 62.1229 22.22H64.1029C64.2529 21.32 64.3729 20.645 64.5079 19.85L64.6429 19.04C64.8829 17.69 65.0329 16.97 65.1379 16.295C65.5279 14.15 64.7329 13.31 61.7929 13.31C59.8879 13.31 58.7329 13.835 58.0129 14.885C57.7879 13.76 56.7829 13.31 54.6529 13.31C52.7929 13.31 51.6529 13.79 50.9029 14.765L51.0979 13.49H49.2679C49.1779 14.075 49.0729 14.645 48.8929 15.68L48.1579 19.82Z" fill="white"/>
<path d="M66.5172 22.22C66.3522 23.12 66.2172 23.87 66.1272 24.32H68.1222C68.2122 23.69 68.4222 22.475 68.7072 20.93C69.2622 21.905 70.5072 22.4 72.6672 22.4C76.7172 22.4 77.8272 21.44 78.4272 18.08L78.5022 17.63C79.0722 14.3 77.9772 13.31 74.0022 13.31C71.8572 13.31 70.5372 13.805 69.6972 14.78L69.9222 13.49H68.0472C67.9422 14.12 67.8372 14.675 67.7172 15.395L66.5172 22.22ZM69.2172 17.915L69.2472 17.795C69.6072 15.695 70.3272 15.08 73.3422 15.08C76.3722 15.08 76.8822 15.62 76.5072 17.795L76.4772 17.915C76.0872 20.075 75.3972 20.63 72.2922 20.63C69.3522 20.63 68.8422 20.03 69.2172 17.915Z" fill="white"/>
<path d="M80.1075 19.7C79.9125 20.795 79.7925 21.53 79.6425 22.22H81.6225C81.7275 21.53 81.8625 20.795 82.0425 19.715L83.1375 13.505C83.3325 12.44 83.4675 11.63 83.6025 11H81.6225C81.5175 11.645 81.3825 12.44 81.2025 13.49L80.1075 19.7Z" fill="white"/>
<path d="M89.3753 22.4C93.8753 22.4 94.7003 21.53 95.0903 19.325L93.1703 19.265C92.9903 20.285 92.5403 20.765 89.4653 20.765C86.5703 20.765 86.0003 20.255 86.2253 18.425H95.2403C95.2853 18.2 95.3453 17.93 95.3903 17.63C95.9003 14.405 94.8803 13.31 90.5153 13.31C86.1353 13.31 84.9653 14.3 84.3803 17.63L84.3053 18.08C83.7353 21.305 84.9203 22.4 89.3753 22.4ZM90.4253 14.81C93.2603 14.81 93.7103 15.335 93.4703 17.03H86.4803C86.9003 15.275 87.6653 14.81 90.4253 14.81Z" fill="white"/>
<path d="M98.0325 16.67C97.8825 17.54 97.7175 18.41 97.5975 19.1C97.1475 21.665 98.0475 22.295 101.693 22.295C102.308 22.295 102.773 22.265 103.343 22.22L103.613 20.525C103.028 20.57 102.683 20.585 102.038 20.585C99.8025 20.585 99.3225 20.36 99.6225 18.635L100.238 15.185H104.558L104.858 13.49H100.538C100.673 12.755 100.778 12.185 100.853 11.78L98.8725 11.81C98.7675 12.485 98.6925 12.98 98.5875 13.49C98.1075 13.49 97.5675 13.49 97.0125 13.49L96.7125 15.185H98.3025L98.0325 16.67Z" fill="white"/>
<path d="M110.396 22.4C114.896 22.4 115.721 21.53 116.111 19.325L114.191 19.265C114.011 20.285 113.561 20.765 110.486 20.765C107.591 20.765 107.021 20.255 107.246 18.425H116.261C116.306 18.2 116.366 17.93 116.411 17.63C116.921 14.405 115.901 13.31 111.536 13.31C107.156 13.31 105.986 14.3 105.401 17.63L105.326 18.08C104.756 21.305 105.941 22.4 110.396 22.4ZM111.446 14.81C114.281 14.81 114.731 15.335 114.491 17.03H107.501C107.921 15.275 108.686 14.81 111.446 14.81Z" fill="white"/>
</svg>
