<svg width="375" height="166" viewBox="0 0 375 166" fill="none" xmlns="http://www.w3.org/2000/svg">
<g clip-path="url(#clip0_3318_16887)">
<path fill-rule="evenodd" clip-rule="evenodd" d="M222.349 157.689C219.003 158.587 215.442 158.189 212.378 156.574L190.291 144.929C183.215 141.199 180.809 132.236 185.065 125.463L198.351 104.322C200.194 101.39 203.077 99.2614 206.422 98.3634L314.666 69.3043C318.011 68.4063 321.572 68.8048 324.636 70.4201L346.724 82.0646C353.8 85.7951 356.206 94.7576 351.95 101.53L338.664 122.671C336.821 125.604 333.938 127.732 330.593 128.63L222.349 157.689Z" fill="url(#paint0_linear_3318_16887)"/>
<path d="M233.152 133.868C234.677 129.182 239.215 115.427 240.758 111.03L236.66 112.13L233.163 122.998C232.318 125.744 231.434 128.559 230.74 130.883L228.226 131.558C227.164 129.676 225.856 127.42 224.562 125.219L219.502 116.736L215.677 117.763C217.849 121.163 224.431 131.932 226.649 135.613L233.152 133.868Z" fill="#0D0E11"/>
<path d="M252.538 129.015C260.679 126.829 262.244 124.476 261.682 118.124L261.598 117.268C261.035 110.917 258.448 109.678 250.333 111.857C242.192 114.042 240.627 116.396 241.189 122.747L241.273 123.603C241.835 129.955 244.423 131.193 252.538 129.015ZM251.878 125.794C246.305 127.29 245.206 126.472 244.826 122.327L244.794 122.101C244.434 117.922 245.365 116.588 250.965 115.085C256.539 113.588 257.685 114.365 258.018 118.552L258.049 118.777C258.43 122.922 257.479 124.291 251.878 125.794Z" fill="#0D0E11"/>
<path d="M275.455 122.862C283.488 120.706 284.807 118.419 284.375 113.321L280.856 114.178C281.101 116.836 280.151 118.204 274.768 119.649C269.277 121.123 268.178 120.305 267.798 116.16L267.767 115.934C267.406 111.755 268.337 110.421 273.828 108.947C279.211 107.502 280.289 108.355 280.527 110.986L280.519 110.958L284.022 109.93C283.581 104.689 281.201 103.57 273.169 105.726C265.246 107.853 263.599 110.229 264.161 116.58L264.245 117.436C264.808 123.788 267.559 124.982 275.455 122.862Z" fill="#0D0E11"/>
<path d="M296.389 117.243C300.761 116.069 302.965 114.569 303.915 112.762L304.142 114.81L307.366 113.944C307.142 111.69 307.014 110.231 306.874 108.511C306.637 105.88 306.579 104.9 306.382 102.639C306.04 98.7472 304.075 97.4293 295.851 99.637C288.338 101.654 286.978 103.571 287.373 107.332L290.81 106.497C290.628 104.73 291.137 104.007 296.383 102.599C301.765 101.154 302.654 101.736 302.891 104.367L303.062 106.313C301.765 105.518 299.426 105.531 295.355 106.624C288.278 108.524 286.961 110.489 287.28 114.298C287.64 118.039 289.258 119.157 296.389 117.243ZM297.342 114.028C292.069 115.444 291.034 115.078 290.865 113.248C290.689 111.392 291.283 110.441 296.938 108.923C302.375 107.464 303.304 107.976 303.393 109.182L303.467 109.894C303.619 111.552 302.807 112.561 297.342 114.028Z" fill="#0D0E11"/>
<path d="M311.473 107.921C311.653 110.011 311.794 111.408 311.858 112.738L315.465 111.77C315.319 110.462 315.205 109.057 315.005 107.002L313.963 95.1556C313.797 93.1205 313.647 91.5791 313.585 90.3656L309.979 91.3338C310.103 92.5599 310.246 94.074 310.431 96.0745L311.473 107.921Z" fill="#0D0E11"/>
<path d="M3.99378 42.2291C8.3799 25.8435 25.2187 16.116 41.6043 20.5021L226.644 70.0336C243.029 74.4197 252.757 91.2585 248.371 107.644C243.985 124.03 227.146 133.757 210.76 129.371L25.7208 79.8396C9.33518 75.4535 -0.392336 58.6147 3.99378 42.2291Z" fill="#43FF8E"/>
<path d="M42.3338 57.8472L43.1591 56.0768C46.2397 56.9307 50.9945 58.2034 53.3992 58.8471C60.0942 60.6393 62.3151 59.1253 64.3784 54.6992C66.4144 50.2658 65.1575 47.8502 58.4626 46.0581L45.3185 42.5397C44.82 43.6362 44.2795 44.78 43.5528 46.4011L38.7067 56.847C37.8321 58.6921 37.2989 59.8086 36.7092 61.0271L40.3983 62.0146C40.968 60.7615 41.4592 59.6923 42.3338 57.8472ZM57.4228 49.1767C61.1938 50.1862 61.7176 51.2928 60.6074 53.6898C59.4972 56.0868 58.1701 56.6686 54.399 55.6592L44.5615 53.0259L47.5852 46.5434L57.4228 49.1767Z" fill="#0D0E11"/>
<path d="M63.8585 63.609C62.9547 65.5634 62.4635 66.6325 61.8957 67.7691L65.5028 68.7346C65.9886 67.5761 66.4652 66.5616 67.411 64.5599L68.8772 61.3797C70.8054 57.2396 72.3458 56.6269 76.8273 57.8266C81.2269 59.0042 81.4959 59.7498 80.2506 62.4327L80.0023 62.9227L83.4601 63.7897C83.7376 63.1905 83.9366 62.7752 84.1776 62.3126C86.1204 58.1178 85.3692 56.6575 79.4394 55.0702C75.8323 54.1046 73.2681 54.3846 71.2678 55.8405L72.3014 53.5109L68.9675 52.6185C68.5183 53.6403 68.049 54.6275 67.2164 56.4253L63.8585 63.609Z" fill="#0D0E11"/>
<path d="M92.0805 76.2004C100.224 78.3802 102.756 77.1253 105.446 71.3441L105.802 70.5608C108.491 64.7796 106.87 62.4129 98.7541 60.2404C90.6108 58.0606 88.0785 59.3155 85.3889 65.0967L85.0328 65.8799C82.3432 71.6611 83.9646 74.0279 92.0805 76.2004ZM93.1203 73.0817C87.5457 71.5895 87.0039 70.3317 88.7477 66.5522L88.8336 66.3409C90.612 62.5414 92.085 61.8522 97.6869 63.3517C103.262 64.8439 103.865 66.0891 102.06 69.8813L101.974 70.0926C100.23 73.872 98.7223 74.5813 93.1203 73.0817Z" fill="#0D0E11"/>
<path d="M114.101 82.0948C118.036 83.1481 120.689 82.8627 122.702 81.4688L121.676 83.7711L125.037 84.6709C125.614 83.3904 126.027 82.5052 126.945 80.4961L132.054 69.5056C132.936 67.6332 133.563 66.2781 134.116 65.1962L130.454 64.216C129.983 65.3198 128.708 68.1121 127.47 70.7677C126.9 68.7409 124.873 67.232 120.938 66.1787C113.587 64.211 111.07 65.4113 108.366 71.2471L108.009 72.0303C105.32 77.8115 106.859 80.1564 114.101 82.0948ZM116.166 79.1921C110.619 77.7072 109.988 76.4548 111.724 72.7026L111.81 72.4913C113.581 68.7192 115.129 68.0792 120.786 69.5934C126.142 71.0271 126.778 72.3688 125.064 76.039L124.95 76.243C123.243 79.8858 121.632 80.6551 116.166 79.1921Z" fill="#0D0E11"/>
<path d="M133.807 76.4173C132.996 78.1331 132.662 78.8344 132.114 80.0055C130.073 84.3496 131.044 86.6301 137.957 88.4808C141.619 89.461 144.253 89.1409 146.273 87.7197L145.232 90.0767L148.566 90.9691C149.022 89.9199 149.484 88.96 150.317 87.1623L153.675 79.9786C154.586 77.9968 155.07 76.955 155.638 75.8185L152.031 74.8529C151.545 76.0114 151.068 77.0259 150.122 79.0276L148.528 82.4665C146.807 86.164 145.133 86.946 140.269 85.6439C135.159 84.2761 134.77 82.8835 136.3 79.574L138.086 75.7472C139.061 73.6361 139.417 72.8529 140.034 71.6417L136.427 70.6762C135.878 71.964 135.379 73.0605 134.561 74.8036L133.807 76.4173Z" fill="#0D0E11"/>
<path d="M162.424 95.0299C170.458 97.1805 172.744 95.8597 174.92 91.2296L171.445 90.2114C170.327 92.6357 168.819 93.3449 163.436 91.9039C157.943 90.4337 157.402 89.1758 159.145 85.3963L159.231 85.185C161.01 81.3856 162.483 80.6963 167.975 82.1666C173.359 83.6076 173.866 84.8855 172.756 87.2825L172.763 87.2551L176.31 88.1168C178.55 83.3574 177.049 81.1985 169.015 79.0479C161.09 76.9266 158.476 78.1596 155.787 83.9408L155.431 84.7241C152.741 90.5053 154.526 92.9159 162.424 95.0299Z" fill="#0D0E11"/>
<path d="M185.083 101.095C193.281 103.29 195.208 102.107 196.994 98.2805L193.526 97.2349C192.7 99.0053 191.646 99.6603 186.045 98.1608C180.771 96.749 179.981 95.542 181.283 92.3178L197.706 96.714C197.898 96.3261 198.139 95.8635 198.367 95.3389C200.869 89.7124 199.545 87.2201 191.593 85.0915C183.614 82.9556 180.999 84.1886 178.31 89.9698L177.954 90.753C175.342 96.3503 176.967 98.923 185.083 101.095ZM190.697 87.7803C195.862 89.1628 196.426 90.3387 195.162 93.3095L182.428 89.9008C184.049 86.9084 185.669 86.4344 190.697 87.7803Z" fill="#0D0E11"/>
<path d="M200.091 100.076C199.187 102.03 198.696 103.099 198.128 104.236L201.735 105.201C202.221 104.043 202.697 103.028 203.643 101.027L205.109 97.8464C207.038 93.7063 208.578 93.0937 213.059 94.2933C217.459 95.471 217.728 96.2166 216.483 98.8995L216.234 99.3895L219.692 100.256C219.97 99.6572 220.169 99.2419 220.41 98.7793C222.353 94.5846 221.601 93.1243 215.672 91.537C212.064 90.5714 209.5 90.8514 207.5 92.3073L208.534 89.9777L205.2 89.0853C204.75 90.1071 204.281 91.0943 203.449 92.892L200.091 100.076Z" fill="#0D0E11"/>
</g>
<defs>
<linearGradient id="paint0_linear_3318_16887" x1="283.377" y1="121.39" x2="205.57" y2="100.459" gradientUnits="userSpaceOnUse">
<stop stop-color="#E965FF"/>
<stop offset="1" stop-color="#E965FF" stop-opacity="0"/>
</linearGradient>
<clipPath id="clip0_3318_16887">
<rect width="375" height="166" fill="white"/>
</clipPath>
</defs>
</svg>
