<svg width="1438" height="166" viewBox="0 0 1438 166" fill="none" xmlns="http://www.w3.org/2000/svg">
<path d="M5.334 48.322C4.83 51.136 4.578 52.69 4.116 55H20.874C35.238 55 38.85 51.682 40.866 40.342L40.95 39.838C42.756 29.002 39.27 25.18 24.948 25.18H9.366C9.072 27.196 8.82 28.498 8.442 30.766L5.334 48.322ZM24.906 29.128C36.288 29.128 38.01 31.354 36.54 39.838L36.456 40.342C34.944 48.826 32.424 51.052 21 51.052H9.24L13.062 29.128H24.906ZM49.9695 24.256L49.2975 28.162H53.5815L54.2535 24.256H49.9695ZM45.7695 48.406C45.2655 51.22 44.9295 53.152 44.5515 55H48.8355C49.1295 53.152 49.4655 51.22 49.9695 48.448L51.8175 37.738C52.3635 34.714 52.7835 32.446 53.1195 30.64H48.8355C48.5835 32.446 48.1635 34.714 47.6595 37.696L45.7695 48.406ZM69.6311 55.504C81.8531 55.504 83.1131 54.034 83.9951 48.994C84.8771 43.996 82.9871 41.896 71.3111 40.804C62.4491 39.964 62.0291 38.914 62.3231 36.73C62.5751 34.798 64.1711 33.916 72.0671 33.916C80.0891 33.916 81.1811 34.882 80.7191 37.444L80.5931 38.074L84.9611 37.948C85.9691 32.11 83.7011 30.136 72.3191 30.136C61.1051 30.136 59.2151 31.774 58.2911 36.898C57.4511 41.854 59.3411 43.786 69.9251 44.71C79.5431 45.55 80.0891 46.6 79.7111 48.952C79.3751 51.094 78.2831 51.976 69.8411 51.976C60.8951 51.976 59.7611 51.01 60.3491 47.608L60.4751 46.936L56.1911 47.062C54.9731 54.118 57.4931 55.504 69.6311 55.504ZM102.793 55.504C114.763 55.504 117.493 52.774 118.795 45.55L114.637 45.424C113.881 49.792 111.781 51.598 102.877 51.598C93.8054 51.598 92.3354 49.834 93.5114 43.03L93.5954 42.61C94.8134 35.806 96.9134 34.042 105.985 34.042C114.889 34.042 116.233 35.932 115.477 40.216L119.677 40.09C120.979 32.656 118.123 30.136 106.111 30.136C94.3094 30.136 91.0334 32.908 89.3954 42.19L89.1854 43.45C87.5474 52.732 91.0334 55.504 102.793 55.504ZM137.084 55.504C149.222 55.504 152.414 52.732 154.052 43.45L154.262 42.19C155.9 32.908 152.708 30.136 140.57 30.136C128.432 30.136 125.24 32.908 123.602 42.19L123.392 43.45C121.754 52.732 124.946 55.504 137.084 55.504ZM137.252 51.598C128.012 51.598 126.542 49.834 127.718 43.03L127.802 42.61C129.02 35.806 131.12 34.042 140.36 34.042C149.6 34.042 151.112 35.806 149.894 42.61L149.81 43.03C148.634 49.834 146.492 51.598 137.252 51.598ZM173.516 55C177.464 49.036 185.948 36.352 189.854 30.64H184.982L177.632 41.644C175.448 44.878 173.348 48.112 171.626 50.8H168.686C167.93 48.154 166.922 44.836 165.914 41.602L162.554 30.64H158.018C159.866 36.352 164.024 49.834 165.578 55H173.516ZM203.248 55.504C215.512 55.504 217.654 53.068 218.704 47.23L214.546 47.062C214 50.212 212.614 51.766 203.374 51.766C194.428 51.766 192.706 50.128 193.462 44.458H219.166C219.292 43.744 219.502 42.862 219.586 42.19C220.972 33.202 218.326 30.136 206.356 30.136C194.386 30.136 191.194 32.908 189.556 42.19L189.346 43.45C187.834 52.48 190.984 55.504 203.248 55.504ZM206.188 33.79C214.798 33.79 216.142 35.47 215.344 40.846H194.092C195.394 35.302 197.746 33.79 206.188 33.79ZM224.514 48.28C223.926 51.598 223.632 53.236 223.296 55H227.58C227.832 53.236 228.126 51.682 228.714 48.28L229.722 42.652C230.94 35.596 233.208 34.042 240.432 34.042C247.782 34.042 248.454 35.05 247.614 39.796L247.446 40.636L251.52 40.552C251.646 39.922 251.772 39.292 251.856 38.788C253.074 31.816 251.478 30.136 242.112 30.136C236.904 30.136 233.334 31.48 230.94 34.21L231.486 30.64H227.58C227.328 32.278 227.076 33.79 226.53 36.898L224.514 48.28ZM285.674 55.756C289.916 49.54 298.82 36.352 302.852 30.64H298.19L291.176 40.804C289.286 43.492 287.438 46.222 285.842 48.616H283.532C282.482 46.18 281.222 43.408 280.046 40.678L275.678 30.64H271.016C273.662 36.394 278.366 47.356 280.508 52.522H283.154L282.188 53.866C280.214 56.596 279.248 57.1 276.77 57.1C275.174 57.1 273.872 57.058 272.57 56.974L271.772 60.754C273.284 60.838 275.216 60.922 276.224 60.922C280.508 60.922 283.07 59.578 285.674 55.756ZM316.036 55.504C328.174 55.504 331.366 52.732 333.004 43.45L333.214 42.19C334.852 32.908 331.66 30.136 319.522 30.136C307.384 30.136 304.192 32.908 302.554 42.19L302.344 43.45C300.706 52.732 303.898 55.504 316.036 55.504ZM316.204 51.598C306.964 51.598 305.494 49.834 306.67 43.03L306.754 42.61C307.972 35.806 310.072 34.042 319.312 34.042C328.552 34.042 330.064 35.806 328.846 42.61L328.762 43.03C327.586 49.834 325.444 51.598 316.204 51.598ZM339.596 39.88C339.134 42.4 338.924 43.408 338.63 45.13C337.328 52.522 339.638 55.504 350.684 55.504C356.06 55.504 359.714 54.16 362.108 51.472L361.562 55H365.468C365.72 53.362 365.972 51.85 366.518 48.742L368.534 37.36C369.122 34.042 369.416 32.404 369.752 30.64H365.468C365.216 32.404 364.922 33.958 364.334 37.36L363.284 43.24C362.192 49.624 359.84 51.598 351.776 51.598C343.292 51.598 342.074 49.456 343.082 43.87L344.216 37.318C344.846 33.748 345.056 32.53 345.434 30.64H341.15C340.856 32.614 340.562 34.294 340.016 37.318L339.596 39.88ZM374.262 48.28C373.674 51.598 373.38 53.236 373.044 55H377.328C377.58 53.236 377.874 51.682 378.462 48.28L379.47 42.652C380.688 35.596 382.956 34.042 390.18 34.042C397.53 34.042 398.202 35.05 397.362 39.796L397.194 40.636L401.268 40.552C401.394 39.922 401.52 39.292 401.604 38.788C402.822 31.816 401.226 30.136 391.86 30.136C386.652 30.136 383.082 31.48 380.688 34.21L381.234 30.64H377.328C377.076 32.278 376.824 33.79 376.278 36.898L374.262 48.28ZM5.082 102.406C4.578 105.22 4.242 107.152 3.864 109H8.148C8.442 107.152 8.778 105.22 9.282 102.448L12.39 84.682C12.936 81.658 13.314 79.39 13.692 77.584H9.408C9.114 79.39 8.736 81.658 8.19 84.64L5.082 102.406ZM21.2996 78.256L20.6276 82.162H24.9116L25.5836 78.256H21.2996ZM17.0996 102.406C16.5956 105.22 16.2596 107.152 15.8816 109H20.1656C20.4596 107.152 20.7956 105.22 21.2996 102.448L23.1476 91.738C23.6936 88.714 24.1136 86.446 24.4496 84.64H20.1656C19.9136 86.446 19.4936 88.714 18.9896 91.696L17.0996 102.406ZM29.0332 102.28C28.4452 105.598 28.1512 107.236 27.8152 109H32.0992C32.3512 107.236 32.6452 105.682 33.2332 102.28L34.2832 96.4C35.4172 90.016 37.7272 88.042 44.3632 88.042C50.1592 88.042 51.5872 89.47 50.8312 93.796L49.3192 102.406C48.7312 105.64 48.5212 106.942 48.1012 109H52.3852C52.8052 106.438 53.1412 104.59 53.5192 102.28L54.5692 96.4C55.7032 90.016 58.0972 88.042 64.6912 88.042C70.4872 88.042 71.9152 89.47 71.1592 93.796L69.6472 102.364C69.0592 105.64 68.8492 106.942 68.4292 109H72.7132C73.1332 106.438 73.4692 104.59 73.8472 102.364L74.2252 100.18C74.8972 96.4 75.3172 94.258 75.6112 92.536C76.7032 86.404 74.3932 84.136 66.0772 84.136C60.8692 84.136 57.5512 85.564 55.4092 88.42C54.7372 85.312 51.7972 84.136 45.7492 84.136C40.8352 84.136 37.6012 85.396 35.5012 87.916L36.0052 84.64H32.0992C31.8472 86.278 31.5952 87.79 31.0492 90.898L29.0332 102.28ZM85.6941 78.256L85.0221 82.162H89.3061L89.9781 78.256H85.6941ZM81.4941 102.406C80.9901 105.22 80.6541 107.152 80.2761 109H84.5601C84.8541 107.152 85.1901 105.22 85.6941 102.448L87.5421 91.738C88.0881 88.714 88.5081 86.446 88.8441 84.64H84.5601C84.3081 86.446 83.8881 88.714 83.3841 91.696L81.4941 102.406ZM96.2417 93.88C95.9057 95.938 95.4437 98.332 95.1077 100.18C93.8477 107.404 96.1577 109.21 106.07 109.21C107.918 109.21 109.052 109.126 110.396 109L111.026 105.178C109.43 105.262 108.422 105.304 106.532 105.304C100.106 105.304 98.5517 104.674 99.4337 99.592L101.408 88.462H113.966L114.638 84.64H102.122C102.458 82.54 102.752 80.86 102.962 79.852L98.6777 79.936C98.3417 81.868 98.1317 83.254 97.8797 84.64C96.5357 84.64 95.1917 84.682 93.4697 84.64L92.7977 88.462H97.2077L96.2417 93.88ZM117.26 102.406C116.756 105.22 116.42 107.152 116.042 109H120.326C120.62 107.152 120.956 105.22 121.46 102.448L124.568 84.682C125.114 81.658 125.492 79.39 125.87 77.584H121.586C121.292 79.39 120.914 81.658 120.368 84.64L117.26 102.406ZM142.339 109.504C154.603 109.504 156.745 107.068 157.795 101.23L153.637 101.062C153.091 104.212 151.705 105.766 142.465 105.766C133.519 105.766 131.797 104.128 132.553 98.458H158.257C158.383 97.744 158.593 96.862 158.677 96.19C160.063 87.202 157.417 84.136 145.447 84.136C133.477 84.136 130.285 86.908 128.647 96.19L128.437 97.45C126.925 106.48 130.075 109.504 142.339 109.504ZM145.279 87.79C153.889 87.79 155.233 89.47 154.435 94.846H133.183C134.485 89.302 136.837 87.79 145.279 87.79ZM175.533 109.504C187.755 109.504 189.015 108.034 189.897 102.994C190.779 97.996 188.889 95.896 177.213 94.804C168.351 93.964 167.931 92.914 168.225 90.73C168.477 88.798 170.073 87.916 177.969 87.916C185.991 87.916 187.083 88.882 186.621 91.444L186.495 92.074L190.863 91.948C191.871 86.11 189.603 84.136 178.221 84.136C167.007 84.136 165.117 85.774 164.193 90.898C163.353 95.854 165.243 97.786 175.827 98.71C185.445 99.55 185.991 100.6 185.613 102.952C185.277 105.094 184.185 105.976 175.743 105.976C166.797 105.976 165.663 105.01 166.251 101.608L166.377 100.936L162.093 101.062C160.875 108.118 163.395 109.504 175.533 109.504ZM207.772 109.504C219.994 109.504 221.254 108.034 222.136 102.994C223.018 97.996 221.128 95.896 209.452 94.804C200.59 93.964 200.17 92.914 200.464 90.73C200.716 88.798 202.312 87.916 210.208 87.916C218.23 87.916 219.322 88.882 218.86 91.444L218.734 92.074L223.102 91.948C224.11 86.11 221.842 84.136 210.46 84.136C199.246 84.136 197.356 85.774 196.432 90.898C195.592 95.854 197.482 97.786 208.066 98.71C217.684 99.55 218.23 100.6 217.852 102.952C217.516 105.094 216.424 105.976 207.982 105.976C199.036 105.976 197.902 105.01 198.49 101.608L198.616 100.936L194.332 101.062C193.114 108.118 195.634 109.504 207.772 109.504ZM256.561 109.504C268.531 109.504 271.261 106.774 272.563 99.55L268.405 99.424C267.649 103.792 265.549 105.598 256.645 105.598C247.573 105.598 246.103 103.834 247.279 97.03L247.363 96.61C248.581 89.806 250.681 88.042 259.753 88.042C268.657 88.042 270.001 89.932 269.245 94.216L273.445 94.09C274.747 86.656 271.891 84.136 259.879 84.136C248.077 84.136 244.801 86.908 243.163 96.19L242.953 97.45C241.315 106.732 244.801 109.504 256.561 109.504ZM277.916 102.364C277.37 105.43 277.118 106.942 276.698 109H280.982C281.318 106.9 281.612 105.094 282.116 102.28L283.166 96.4C284.3 90.016 286.61 88.042 294.842 88.042C303.368 88.042 304.586 90.184 303.62 95.77L302.444 102.364C301.898 105.346 301.646 106.858 301.226 109H305.51C305.888 106.606 306.224 104.632 306.644 102.448L307.106 99.76C307.526 97.24 307.778 96.232 308.072 94.51C309.374 87.118 307.022 84.136 295.934 84.136C290.39 84.136 286.862 85.312 284.594 87.622C285.182 84.556 286.442 78.298 286.568 77.584H282.242C281.948 79.39 281.57 81.616 281.024 84.64L277.916 102.364ZM325.345 109.504C331.855 109.504 335.803 108.202 337.987 106.144L337.525 109H341.305C341.851 105.682 342.229 103.54 342.691 101.02C343.279 97.492 343.615 95.896 344.203 92.578C345.211 86.824 343.111 84.136 330.679 84.136C319.381 84.136 316.819 86.53 316.021 91.612L320.263 91.738C320.725 88.84 321.901 87.874 330.469 87.874C339.331 87.874 340.549 89.176 339.835 93.376L339.289 96.358C337.609 94.804 334.165 93.88 328.117 93.88C317.071 93.88 314.257 96.19 313.249 101.776C312.325 107.236 314.173 109.504 325.345 109.504ZM327.193 105.85C318.625 105.85 317.071 104.8 317.575 101.776C318.121 98.668 319.507 97.366 328.705 97.366C337.735 97.366 338.995 98.626 338.659 100.516L338.407 101.818C337.945 104.548 336.223 105.85 327.193 105.85ZM349.98 102.28C349.392 105.598 349.098 107.236 348.762 109H353.046C353.298 107.236 353.592 105.682 354.18 102.28L355.23 96.4C356.364 90.016 358.674 88.042 366.906 88.042C375.432 88.042 376.65 90.184 375.684 95.77L374.508 102.322C373.878 105.892 373.668 107.11 373.29 109H377.574C377.868 107.026 378.162 105.346 378.708 102.322L379.17 99.76C379.59 97.24 379.842 96.232 380.136 94.51C381.438 87.118 379.086 84.136 367.998 84.136C362.538 84.136 358.842 85.48 356.406 88.21L356.952 84.64H353.046C352.794 86.278 352.542 87.79 351.996 90.898L349.98 102.28ZM399.131 109.504C411.101 109.504 413.831 106.774 415.133 99.55L410.975 99.424C410.219 103.792 408.119 105.598 399.215 105.598C390.143 105.598 388.673 103.834 389.849 97.03L389.933 96.61C391.151 89.806 393.251 88.042 402.323 88.042C411.227 88.042 412.571 89.932 411.815 94.216L416.015 94.09C417.317 86.656 414.461 84.136 402.449 84.136C390.647 84.136 387.371 86.908 385.733 96.19L385.523 97.45C383.885 106.732 387.371 109.504 399.131 109.504ZM433.632 109.504C445.896 109.504 448.038 107.068 449.088 101.23L444.93 101.062C444.384 104.212 442.998 105.766 433.758 105.766C424.812 105.766 423.09 104.128 423.846 98.458H449.55C449.676 97.744 449.886 96.862 449.97 96.19C451.356 87.202 448.71 84.136 436.74 84.136C424.77 84.136 421.578 86.908 419.94 96.19L419.73 97.45C418.218 106.48 421.368 109.504 433.632 109.504ZM436.572 87.79C445.182 87.79 446.526 89.47 445.728 94.846H424.476C425.778 89.302 428.13 87.79 436.572 87.79Z" fill="#313338"/>
<g clip-path="url(#clip0_1381_6536)">
<path d="M1220.07 127.824C1217.06 114.481 1225.44 101.227 1238.78 98.2197L1389.46 64.2643C1402.81 61.2574 1416.06 69.6368 1419.07 82.98C1422.07 96.3232 1413.7 109.578 1400.35 112.584L1249.67 146.54C1236.33 149.547 1223.07 141.167 1220.07 127.824Z" fill="url(#paint0_linear_1381_6536)" fill-opacity="0.8"/>
<path d="M1253.29 124.611L1253.22 123.038C1255.74 122.493 1259.61 121.621 1261.57 121.179C1267.02 119.951 1268.04 118.038 1267.86 114.104C1267.65 110.176 1265.85 108.922 1260.39 110.151L1249.69 112.563C1249.75 113.532 1249.79 114.551 1249.88 115.981L1250.33 125.256C1250.4 126.901 1250.43 127.898 1250.47 128.989L1253.47 128.312C1253.41 127.204 1253.36 126.256 1253.29 124.611ZM1260.82 112.767C1263.89 112.075 1264.68 112.669 1264.79 114.796C1264.89 116.924 1264.16 117.837 1261.09 118.529L1253.08 120.334L1252.81 114.572L1260.82 112.767Z" fill="#0D0E11"/>
<path d="M1270.82 120.661C1270.91 122.395 1270.96 123.343 1270.98 124.367L1273.92 123.705C1273.83 122.696 1273.79 121.793 1273.72 120.009L1273.57 117.189C1273.4 113.51 1274.27 112.496 1277.92 111.674C1281.5 110.866 1281.97 111.298 1282.09 113.68L1282.09 114.123L1284.89 113.447C1284.86 112.915 1284.85 112.544 1284.85 112.123C1284.66 108.4 1283.58 107.639 1278.75 108.727C1275.81 109.389 1274.09 110.549 1273.2 112.338L1273.07 110.288L1270.35 110.899C1270.42 111.797 1270.45 112.678 1270.53 114.274L1270.82 120.661Z" fill="#0D0E11"/>
<path d="M1295.69 119.079C1302.32 117.585 1303.66 115.74 1303.42 110.604L1303.38 109.911C1303.13 104.776 1301.09 103.693 1294.48 105.183C1287.85 106.677 1286.51 108.522 1286.75 113.657L1286.79 114.35C1287.04 119.486 1289.08 120.568 1295.69 119.079ZM1295.27 116.462C1290.73 117.485 1289.87 116.79 1289.7 113.438L1289.68 113.255C1289.53 109.876 1290.32 108.832 1294.88 107.804C1299.42 106.781 1300.32 107.444 1300.45 110.828L1300.47 111.011C1300.64 114.363 1299.83 115.434 1295.27 116.462Z" fill="#0D0E11"/>
<path d="M1313.62 115.038C1316.83 114.316 1318.62 113.118 1319.53 111.369L1319.66 113.397L1322.4 112.78C1322.33 111.65 1322.29 110.863 1322.2 109.084L1321.73 99.3227C1321.65 97.6553 1321.59 96.453 1321.58 95.4733L1318.6 96.1452C1318.68 97.1099 1318.82 99.5812 1318.93 101.941C1317.76 100.708 1315.75 100.39 1312.54 101.112C1306.56 102.461 1305.21 104.261 1305.46 109.441L1305.5 110.134C1305.75 115.269 1307.73 116.367 1313.62 115.038ZM1314.01 112.192C1309.49 113.21 1308.57 112.552 1308.41 109.222L1308.39 109.039C1308.24 105.682 1309.11 104.645 1313.71 103.607C1318.07 102.624 1319.03 103.344 1319.18 106.607L1319.18 106.795C1319.32 110.036 1318.46 111.189 1314.01 112.192Z" fill="#0D0E11"/>
<path d="M1325.57 103.601C1325.63 105.13 1325.66 105.756 1325.7 106.798C1325.87 110.664 1327.42 111.929 1333.05 110.66C1336.03 109.988 1337.79 108.773 1338.7 107.001L1338.84 109.074L1341.56 108.463C1341.49 107.542 1341.46 106.684 1341.38 105.088L1341.09 98.7009C1341 96.9445 1340.95 96.0193 1340.93 94.9951L1337.99 95.657C1338.08 96.6662 1338.12 97.5691 1338.2 99.3528L1338.35 102.405C1338.5 105.691 1337.6 106.876 1333.64 107.769C1329.48 108.706 1328.68 107.858 1328.53 104.921L1328.37 101.52C1328.28 99.647 1328.24 98.9544 1328.22 97.8583L1325.29 98.5203C1325.38 99.6457 1325.43 100.615 1325.5 102.167L1325.57 103.601Z" fill="#0D0E11"/>
<path d="M1352.97 106.171C1359.52 104.696 1360.65 102.897 1360.47 98.7752L1357.61 99.3503C1357.72 101.5 1356.91 102.571 1352.53 103.559C1348.05 104.567 1347.19 103.872 1347.02 100.52L1347.01 100.337C1346.85 96.9576 1347.65 95.9136 1352.12 94.9057C1356.5 93.9179 1357.34 94.6403 1357.45 96.7678L1357.44 96.7455L1360.3 96.0319C1360.12 91.7942 1358.24 90.815 1351.69 92.2893C1345.24 93.7435 1343.84 95.6033 1344.08 100.739L1344.12 101.432C1344.36 106.567 1346.54 107.62 1352.97 106.171Z" fill="#0D0E11"/>
<path d="M1371.43 102.012C1378.1 100.508 1379.04 98.9417 1378.88 95.5401L1376.01 96.093C1376.08 97.6663 1375.57 98.5289 1371.01 99.5568C1366.72 100.525 1365.7 99.9586 1365.42 97.1685L1378.8 94.1548C1378.79 93.806 1378.79 93.3854 1378.75 92.9253C1378.43 87.9705 1376.55 86.687 1370.08 88.1462C1363.58 89.6105 1362.18 91.4703 1362.42 96.6059L1362.46 97.2986C1362.69 102.273 1364.82 103.502 1371.43 102.012ZM1370.45 90.4016C1374.65 89.4538 1375.5 90.0822 1375.71 92.677L1365.34 95.0138C1365.37 92.2698 1366.35 91.3243 1370.45 90.4016Z" fill="#0D0E11"/>
<path d="M1381.76 95.6619C1381.85 97.3961 1381.9 98.3436 1381.92 99.3678L1384.85 98.7059C1384.77 97.6967 1384.73 96.7937 1384.65 95.0101L1384.51 92.1899C1384.33 88.5113 1385.2 87.4968 1388.85 86.6744C1392.44 85.8671 1392.91 86.2987 1393.02 88.681L1393.03 89.1238L1395.82 88.4475C1395.8 87.9156 1395.78 87.5445 1395.78 87.1239C1395.6 83.4008 1394.52 82.6395 1389.69 83.7277C1386.75 84.3896 1385.02 85.5502 1384.14 87.3392L1384.01 85.2885L1381.29 85.9002C1381.35 86.7982 1381.39 87.6789 1381.47 89.2745L1381.76 95.6619Z" fill="#0D0E11"/>
<path fill-rule="evenodd" clip-rule="evenodd" d="M1096.57 102.493C1092.51 101.845 1088.85 99.6896 1086.32 96.4577L1068.05 73.1593C1062.2 65.6954 1063.93 54.8305 1071.82 49.5619L1096.44 33.1159C1099.85 30.8345 1104 29.927 1108.06 30.575L1239.28 51.5435C1243.33 52.1915 1246.99 54.3472 1249.53 57.5792L1267.79 80.8776C1273.64 88.3415 1271.91 99.2064 1264.02 104.475L1239.41 120.921C1235.99 123.202 1231.84 124.11 1227.79 123.462L1096.57 102.493Z" fill="#E965FF"/>
<path d="M1119.79 81.9433C1123.71 77.6105 1135.28 64.9222 1139.08 60.9101L1134.12 60.1162L1125.07 70.1849C1122.83 72.7475 1120.5 75.3657 1118.63 77.5453L1115.58 77.0584C1115.34 74.5069 1115.02 71.4322 1114.68 68.4237L1113.32 56.7925L1108.68 56.0515C1109.38 60.7835 1111.29 75.6258 1111.91 80.6837L1119.79 81.9433Z" fill="#0D0E11"/>
<path d="M1143.12 86.079C1152.99 87.6562 1155.83 85.8672 1158.29 78.7209L1158.62 77.7537C1161.08 70.6074 1158.88 68.014 1149.05 66.4421C1139.18 64.8649 1136.34 66.6539 1133.88 73.8002L1133.55 74.7674C1131.09 81.9137 1133.29 84.5071 1143.12 86.079ZM1143.97 82.2741C1137.21 81.1944 1136.42 79.7771 1138.02 75.1069L1138.09 74.8473C1139.73 70.1493 1141.38 69.1567 1148.17 70.2417C1154.92 71.3214 1155.79 72.7162 1154.12 77.4088L1154.05 77.6685C1152.45 82.3387 1150.76 83.3591 1143.97 82.2741Z" fill="#0D0E11"/>
<path d="M1170.91 90.5185C1180.64 92.0745 1183.18 90.2378 1185.18 84.5118L1180.96 83.735C1179.93 86.7305 1178.24 87.7509 1171.72 86.7083C1165.06 85.6445 1164.27 84.2271 1165.86 79.557L1165.94 79.2973C1167.57 74.5994 1169.23 73.6068 1175.88 74.6706C1182.41 75.7132 1183.16 77.1584 1182.15 80.1208L1182.15 80.0877L1186.44 80.671C1188.5 74.7847 1186.47 72.4217 1176.73 70.8657C1167.12 69.3308 1164.19 71.104 1161.73 78.2503L1161.4 79.2174C1158.93 86.3637 1161.33 88.9889 1170.91 90.5185Z" fill="#0D0E11"/>
<path d="M1196.28 94.5737C1201.58 95.4205 1204.69 94.8648 1206.6 93.3688L1205.85 95.6952L1209.76 96.3197C1210.61 93.772 1211.18 92.1305 1211.86 90.2015C1212.88 87.2391 1213.29 86.1501 1214.17 83.6077C1215.68 79.2303 1214.2 76.8527 1204.23 75.2596C1195.12 73.8042 1192.72 75.2208 1191.32 79.4816L1195.45 80.2425C1196.11 78.242 1197.01 77.7066 1203.37 78.7227C1209.89 79.7654 1210.57 80.825 1209.56 83.7874L1208.8 85.9761C1207.78 84.4886 1205.24 83.3697 1200.31 82.5811C1191.73 81.2103 1189.35 82.6985 1187.85 86.9765C1186.43 91.1988 1187.64 93.1924 1196.28 94.5737ZM1198.87 91.5567C1192.48 90.5352 1191.54 89.6372 1192.24 87.5757C1192.95 85.4811 1194.05 84.7404 1200.91 85.8359C1207.5 86.8891 1208.25 87.8932 1207.77 89.2419L1207.5 90.0487C1206.86 91.9168 1205.5 92.6152 1198.87 91.5567Z" fill="#0D0E11"/>
<path d="M1217.12 91.7898C1216.3 94.1388 1215.78 95.7193 1215.21 97.1899L1219.58 97.8885C1220.05 96.4021 1220.61 94.8268 1221.39 92.5056L1226 79.1802C1226.8 76.8974 1227.39 75.1566 1227.91 73.8132L1223.54 73.1145C1223.08 74.5017 1222.5 76.2094 1221.73 78.4643L1217.12 91.7898Z" fill="#0D0E11"/>
</g>
<defs>
<linearGradient id="paint0_linear_1381_6536" x1="1345.24" y1="123.284" x2="1246.14" y2="97.1213" gradientUnits="userSpaceOnUse">
<stop stop-color="#43FF8E"/>
<stop offset="1" stop-color="#43FF8E" stop-opacity="0.05"/>
</linearGradient>
<clipPath id="clip0_1381_6536">
<rect width="375" height="166" fill="white" transform="translate(1063)"/>
</clipPath>
</defs>
</svg>
