<svg width="1435" height="210" viewBox="0 0 1435 210" fill="none" xmlns="http://www.w3.org/2000/svg">
<path d="M2.35001 86.0484C1.75001 89.3984 1.45001 91.2484 0.900006 93.9984H20.85C37.95 93.9984 42.25 90.0484 44.65 76.5484L44.75 75.9484C46.9 63.0484 42.75 58.4984 25.7 58.4984H7.15001C6.80001 60.8984 6.50001 62.4484 6.05001 65.1484L2.35001 86.0484ZM25.65 63.1984C39.2 63.1984 41.25 65.8484 39.5 75.9484L39.4 76.5484C37.6 86.6484 34.6 89.2984 21 89.2984H7.00001L11.55 63.1984H25.65Z" fill="#535559"/>
<path d="M55.4875 57.3984L54.6875 62.0484H59.7875L60.5875 57.3984H55.4875ZM50.4875 86.1484C49.8875 89.4984 49.4875 91.7984 49.0375 93.9984H54.1375C54.4875 91.7984 54.8875 89.4984 55.4875 86.1984L57.6875 73.4484C58.3375 69.8484 58.8375 67.1484 59.2375 64.9984H54.1375C53.8375 67.1484 53.3375 69.8484 52.7375 73.3984L50.4875 86.1484Z" fill="#535559"/>
<path d="M78.8941 94.5984C93.4442 94.5984 94.9441 92.8484 95.9941 86.8484C97.0441 80.8984 94.7942 78.3984 80.8941 77.0984C70.3441 76.0984 69.8442 74.8484 70.1942 72.2484C70.4942 69.9484 72.3941 68.8984 81.7942 68.8984C91.3441 68.8984 92.6441 70.0484 92.0942 73.0984L91.9442 73.8484L97.1441 73.6984C98.3442 66.7484 95.6441 64.3984 82.0941 64.3984C68.7441 64.3984 66.4941 66.3484 65.3941 72.4484C64.3941 78.3484 66.6441 80.6484 79.2441 81.7484C90.6942 82.7484 91.3441 83.9984 90.8941 86.7984C90.4941 89.3484 89.1942 90.3984 79.1441 90.3984C68.4941 90.3984 67.1441 89.2484 67.8441 85.1984L67.9941 84.3984L62.8941 84.5484C61.4441 92.9484 64.4441 94.5984 78.8941 94.5984Z" fill="#535559"/>
<path d="M118.373 94.5984C132.623 94.5984 135.873 91.3484 137.423 82.7484L132.473 82.5984C131.573 87.7984 129.073 89.9484 118.473 89.9484C107.673 89.9484 105.923 87.8484 107.323 79.7484L107.423 79.2484C108.873 71.1484 111.373 69.0484 122.173 69.0484C132.773 69.0484 134.373 71.2984 133.473 76.3984L138.473 76.2484C140.023 67.3984 136.623 64.3984 122.323 64.3984C108.273 64.3984 104.373 67.6984 102.423 78.7484L102.173 80.2484C100.223 91.2984 104.373 94.5984 118.373 94.5984Z" fill="#535559"/>
<path d="M159.196 94.5984C173.646 94.5984 177.446 91.2984 179.396 80.2484L179.646 78.7484C181.596 67.6984 177.796 64.3984 163.346 64.3984C148.896 64.3984 145.096 67.6984 143.146 78.7484L142.896 80.2484C140.946 91.2984 144.746 94.5984 159.196 94.5984ZM159.396 89.9484C148.396 89.9484 146.646 87.8484 148.046 79.7484L148.146 79.2484C149.596 71.1484 152.096 69.0484 163.096 69.0484C174.096 69.0484 175.896 71.1484 174.446 79.2484L174.346 79.7484C172.946 87.8484 170.396 89.9484 159.396 89.9484Z" fill="#535559"/>
<path d="M202.567 93.9984C207.267 86.8984 217.367 71.7984 222.017 64.9984H216.217L207.467 78.0984C204.867 81.9484 202.367 85.7984 200.317 88.9984H196.817C195.917 85.8484 194.717 81.8984 193.517 78.0484L189.517 64.9984H184.117C186.317 71.7984 191.267 87.8484 193.117 93.9984H202.567Z" fill="#535559"/>
<path d="M237.961 94.5984C252.561 94.5984 255.111 91.6984 256.361 84.7484L251.411 84.5484C250.761 88.2984 249.111 90.1484 238.111 90.1484C227.461 90.1484 225.411 88.1984 226.311 81.4484H256.911C257.061 80.5984 257.311 79.5484 257.411 78.7484C259.061 68.0484 255.911 64.3984 241.661 64.3984C227.411 64.3984 223.611 67.6984 221.661 78.7484L221.411 80.2484C219.611 90.9984 223.361 94.5984 237.961 94.5984ZM241.461 68.7484C251.711 68.7484 253.311 70.7484 252.361 77.1484H227.061C228.611 70.5484 231.411 68.7484 241.461 68.7484Z" fill="#535559"/>
<path d="M263.278 85.9984C262.578 89.9484 262.228 91.8984 261.828 93.9984H266.928C267.228 91.8984 267.578 90.0484 268.278 85.9984L269.478 79.2984C270.928 70.8984 273.628 69.0484 282.228 69.0484C290.978 69.0484 291.778 70.2484 290.778 75.8984L290.578 76.8984L295.428 76.7984C295.578 76.0484 295.728 75.2984 295.828 74.6984C297.278 66.3984 295.378 64.3984 284.228 64.3984C278.028 64.3984 273.778 65.9984 270.928 69.2484L271.578 64.9984H266.928C266.628 66.9484 266.328 68.7484 265.678 72.4484L263.278 85.9984Z" fill="#535559"/>
<path d="M336.089 94.8984C341.139 87.4984 351.739 71.7984 356.539 64.9984H350.989L342.639 77.0984C340.389 80.2984 338.189 83.5484 336.289 86.3984H333.539C332.289 83.4984 330.789 80.1984 329.389 76.9484L324.189 64.9984H318.639C321.789 71.8484 327.389 84.8984 329.939 91.0484H333.089L331.939 92.6484C329.589 95.8984 328.439 96.4984 325.489 96.4984C323.589 96.4984 322.039 96.4484 320.489 96.3484L319.539 100.848C321.339 100.948 323.639 101.048 324.839 101.048C329.939 101.048 332.989 99.4484 336.089 94.8984Z" fill="#535559"/>
<path d="M372.233 94.5984C386.683 94.5984 390.483 91.2984 392.433 80.2484L392.683 78.7484C394.633 67.6984 390.833 64.3984 376.383 64.3984C361.933 64.3984 358.133 67.6984 356.183 78.7484L355.933 80.2484C353.983 91.2984 357.783 94.5984 372.233 94.5984ZM372.433 89.9484C361.433 89.9484 359.683 87.8484 361.083 79.7484L361.183 79.2484C362.633 71.1484 365.133 69.0484 376.133 69.0484C387.133 69.0484 388.933 71.1484 387.483 79.2484L387.383 79.7484C385.983 87.8484 383.433 89.9484 372.433 89.9484Z" fill="#535559"/>
<path d="M400.281 75.9984C399.731 78.9984 399.481 80.1984 399.131 82.2484C397.581 91.0484 400.331 94.5984 413.481 94.5984C419.881 94.5984 424.231 92.9984 427.081 89.7984L426.431 93.9984H431.081C431.381 92.0484 431.681 90.2484 432.331 86.5484L434.731 72.9984C435.431 69.0484 435.781 67.0984 436.181 64.9984H431.081C430.781 67.0984 430.431 68.9484 429.731 72.9984L428.481 79.9984C427.181 87.5984 424.381 89.9484 414.781 89.9484C404.681 89.9484 403.231 87.3984 404.431 80.7484L405.781 72.9484C406.531 68.6984 406.781 67.2484 407.231 64.9984H402.131C401.781 67.3484 401.431 69.3484 400.781 72.9484L400.281 75.9984Z" fill="#535559"/>
<path d="M441.55 85.9984C440.85 89.9484 440.5 91.8984 440.1 93.9984H445.2C445.5 91.8984 445.85 90.0484 446.55 85.9984L447.75 79.2984C449.2 70.8984 451.9 69.0484 460.5 69.0484C469.25 69.0484 470.05 70.2484 469.05 75.8984L468.85 76.8984L473.7 76.7984C473.85 76.0484 474 75.2984 474.1 74.6984C475.55 66.3984 473.65 64.3984 462.5 64.3984C456.3 64.3984 452.05 65.9984 449.2 69.2484L449.85 64.9984H445.2C444.9 66.9484 444.6 68.7484 443.95 72.4484L441.55 85.9984Z" fill="#535559"/>
<path d="M2.05001 150.148C1.45001 153.498 1.05001 155.798 0.600006 157.998H5.70001C6.05001 155.798 6.45001 153.498 7.05001 150.198L10.75 129.048C11.4 125.448 11.85 122.748 12.3 120.598H7.20001C6.85001 122.748 6.40001 125.448 5.75001 128.998L2.05001 150.148Z" fill="#535559"/>
<path d="M21.3566 121.398L20.5566 126.048H25.6566L26.4566 121.398H21.3566ZM16.3566 150.148C15.7566 153.498 15.3566 155.798 14.9066 157.998H20.0066C20.3566 155.798 20.7566 153.498 21.3566 150.198L23.5566 137.448C24.2066 133.848 24.7066 131.148 25.1066 128.998H20.0066C19.7066 131.148 19.2066 133.848 18.6066 137.398L16.3566 150.148Z" fill="#535559"/>
<path d="M30.5633 149.998C29.8633 153.948 29.5133 155.898 29.1133 157.998H34.2133C34.5133 155.898 34.8633 154.048 35.5633 149.998L36.8133 142.998C38.1633 135.398 40.9133 133.048 48.8133 133.048C55.7133 133.048 57.4133 134.748 56.5133 139.898L54.7133 150.148C54.0133 153.998 53.7633 155.548 53.2633 157.998H58.3633C58.8633 154.948 59.2633 152.748 59.7133 149.998L60.9633 142.998C62.3133 135.398 65.1633 133.048 73.0133 133.048C79.9133 133.048 81.6133 134.748 80.7133 139.898L78.9133 150.098C78.2133 153.998 77.9633 155.548 77.4633 157.998H82.5633C83.0633 154.948 83.4633 152.748 83.9133 150.098L84.3633 147.498C85.1633 142.998 85.6633 140.448 86.0133 138.398C87.3133 131.098 84.5633 128.398 74.6633 128.398C68.4633 128.398 64.5133 130.098 61.9633 133.498C61.1633 129.798 57.6633 128.398 50.4633 128.398C44.6133 128.398 40.7633 129.898 38.2633 132.898L38.8633 128.998H34.2133C33.9133 130.948 33.6133 132.748 32.9633 136.448L30.5633 149.998Z" fill="#535559"/>
<path d="M98.0168 121.398L97.2168 126.048H102.317L103.117 121.398H98.0168ZM93.0168 150.148C92.4168 153.498 92.0168 155.798 91.5668 157.998H96.6668C97.0168 155.798 97.4168 153.498 98.0168 150.198L100.217 137.448C100.867 133.848 101.367 131.148 101.767 128.998H96.6668C96.3668 131.148 95.8668 133.848 95.2668 137.398L93.0168 150.148Z" fill="#535559"/>
<path d="M110.573 139.998C110.173 142.448 109.623 145.298 109.223 147.498C107.723 156.098 110.473 158.248 122.273 158.248C124.473 158.248 125.823 158.148 127.423 157.998L128.173 153.448C126.273 153.548 125.073 153.598 122.823 153.598C115.173 153.598 113.323 152.848 114.373 146.798L116.723 133.548H131.673L132.473 128.998H117.573C117.973 126.498 118.323 124.498 118.573 123.298L113.473 123.398C113.073 125.698 112.823 127.348 112.523 128.998C110.923 128.998 109.323 129.048 107.273 128.998L106.473 133.548H111.723L110.573 139.998Z" fill="#535559"/>
<path d="M135.595 150.148C134.995 153.498 134.595 155.798 134.145 157.998H139.245C139.595 155.798 139.995 153.498 140.595 150.198L144.295 129.048C144.945 125.448 145.395 122.748 145.845 120.598H140.745C140.395 122.748 139.945 125.448 139.295 128.998L135.595 150.148Z" fill="#535559"/>
<path d="M165.452 158.598C180.052 158.598 182.602 155.698 183.852 148.748L178.902 148.548C178.252 152.298 176.602 154.148 165.602 154.148C154.952 154.148 152.902 152.198 153.802 145.448H184.402C184.552 144.598 184.802 143.548 184.902 142.748C186.552 132.048 183.402 128.398 169.152 128.398C154.902 128.398 151.102 131.698 149.152 142.748L148.902 144.248C147.102 154.998 150.852 158.598 165.452 158.598ZM168.952 132.748C179.202 132.748 180.802 134.748 179.852 141.148H154.552C156.102 134.548 158.902 132.748 168.952 132.748Z" fill="#535559"/>
<path d="M204.968 158.598C219.518 158.598 221.018 156.848 222.068 150.848C223.118 144.898 220.868 142.398 206.968 141.098C196.418 140.098 195.918 138.848 196.268 136.248C196.568 133.948 198.468 132.898 207.868 132.898C217.418 132.898 218.718 134.048 218.168 137.098L218.018 137.848L223.218 137.698C224.418 130.748 221.718 128.398 208.168 128.398C194.818 128.398 192.568 130.348 191.468 136.448C190.468 142.348 192.718 144.648 205.318 145.748C216.768 146.748 217.418 147.998 216.968 150.798C216.568 153.348 215.268 154.398 205.218 154.398C194.568 154.398 193.218 153.248 193.918 149.198L194.068 148.398L188.968 148.548C187.518 156.948 190.518 158.598 204.968 158.598Z" fill="#535559"/>
<path d="M243.347 158.598C257.897 158.598 259.397 156.848 260.447 150.848C261.497 144.898 259.247 142.398 245.347 141.098C234.797 140.098 234.297 138.848 234.647 136.248C234.947 133.948 236.847 132.898 246.247 132.898C255.797 132.898 257.097 134.048 256.547 137.098L256.397 137.848L261.597 137.698C262.797 130.748 260.097 128.398 246.547 128.398C233.197 128.398 230.947 130.348 229.847 136.448C228.847 142.348 231.097 144.648 243.697 145.748C255.147 146.748 255.797 147.998 255.347 150.798C254.947 153.348 253.647 154.398 243.597 154.398C232.947 154.398 231.597 153.248 232.297 149.198L232.447 148.398L227.347 148.548C225.897 156.948 228.897 158.598 243.347 158.598Z" fill="#535559"/>
<path d="M291.23 121.398L290.43 126.048H295.53L296.33 121.398H291.23ZM286.23 150.148C285.63 153.498 285.23 155.798 284.78 157.998H289.88C290.23 155.798 290.63 153.498 291.23 150.198L293.43 137.448C294.08 133.848 294.58 131.148 294.98 128.998H289.88C289.58 131.148 289.08 133.848 288.48 137.398L286.23 150.148Z" fill="#535559"/>
<path d="M300.436 149.998C299.736 153.948 299.386 155.898 298.986 157.998H304.086C304.386 155.898 304.736 154.048 305.436 149.998L306.686 142.998C308.036 135.398 310.786 133.048 320.586 133.048C330.736 133.048 332.186 135.598 331.036 142.248L329.636 150.048C328.886 154.298 328.636 155.748 328.186 157.998H333.286C333.636 155.648 333.986 153.648 334.636 150.048L335.186 146.998C335.686 143.998 335.986 142.798 336.336 140.748C337.886 131.948 335.086 128.398 321.886 128.398C315.386 128.398 310.986 129.998 308.086 133.248L308.736 128.998H304.086C303.786 130.948 303.486 132.748 302.836 136.448L300.436 149.998Z" fill="#535559"/>
<path d="M357.849 158.598C372.399 158.598 373.899 156.848 374.949 150.848C375.999 144.898 373.749 142.398 359.849 141.098C349.299 140.098 348.799 138.848 349.149 136.248C349.449 133.948 351.349 132.898 360.749 132.898C370.299 132.898 371.599 134.048 371.049 137.098L370.899 137.848L376.099 137.698C377.299 130.748 374.599 128.398 361.049 128.398C347.699 128.398 345.449 130.348 344.349 136.448C343.349 142.348 345.599 144.648 358.199 145.748C369.649 146.748 370.299 147.998 369.849 150.798C369.449 153.348 368.149 154.398 358.099 154.398C347.449 154.398 346.099 153.248 346.799 149.198L346.949 148.398L341.849 148.548C340.399 156.948 343.399 158.598 357.849 158.598Z" fill="#535559"/>
<path d="M380.628 157.998C380.078 160.998 379.628 163.498 379.328 164.998H384.478C384.828 162.848 385.478 158.998 386.378 153.848C388.428 157.048 392.728 158.598 399.928 158.598C413.628 158.598 417.478 155.298 419.428 144.248L419.678 142.748C421.628 131.698 417.778 128.398 404.378 128.398C397.328 128.398 392.728 129.948 389.778 133.148L390.528 128.998H385.678C385.378 131.098 385.028 132.898 384.628 135.198L380.628 157.998ZM388.128 143.698L388.228 143.298C389.578 135.398 392.278 133.048 403.178 133.048C414.128 133.048 415.928 135.148 414.528 143.248L414.428 143.748C412.978 151.848 410.428 153.948 399.228 153.948C388.578 153.948 386.728 151.648 388.128 143.698Z" fill="#535559"/>
<path d="M430.683 121.398L429.883 126.048H434.983L435.783 121.398H430.683ZM425.683 150.148C425.083 153.498 424.683 155.798 424.233 157.998H429.333C429.683 155.798 430.083 153.498 430.683 150.198L432.883 137.448C433.533 133.848 434.033 131.148 434.433 128.998H429.333C429.033 131.148 428.533 133.848 427.933 137.398L425.683 150.148Z" fill="#535559"/>
<path d="M439.889 149.998C439.189 153.948 438.839 155.898 438.439 157.998H443.539C443.839 155.898 444.189 154.048 444.889 149.998L446.089 143.298C447.539 134.898 450.239 133.048 458.839 133.048C467.589 133.048 468.389 134.248 467.389 139.898L467.189 140.898L472.039 140.798C472.189 140.048 472.339 139.298 472.439 138.698C473.889 130.398 471.989 128.398 460.839 128.398C454.639 128.398 450.389 129.998 447.539 133.248L448.189 128.998H443.539C443.239 130.948 442.939 132.748 442.289 136.448L439.889 149.998Z" fill="#535559"/>
<path d="M489.614 158.598C497.364 158.598 502.064 157.048 504.664 154.598L504.114 157.998H508.614C509.264 154.048 509.714 151.498 510.264 148.498C510.964 144.298 511.364 142.398 512.064 138.448C513.264 131.598 510.764 128.398 495.964 128.398C482.514 128.398 479.464 131.248 478.514 137.298L483.564 137.448C484.114 133.998 485.514 132.848 495.714 132.848C506.264 132.848 507.714 134.398 506.864 139.398L506.214 142.948C504.214 141.098 500.114 139.998 492.914 139.998C479.764 139.998 476.414 142.748 475.214 149.398C474.114 155.898 476.314 158.598 489.614 158.598ZM491.814 154.248C481.614 154.248 479.764 152.998 480.364 149.398C481.014 145.698 482.664 144.148 493.614 144.148C504.364 144.148 505.864 145.648 505.464 147.898L505.164 149.448C504.614 152.698 502.564 154.248 491.814 154.248Z" fill="#535559"/>
<path d="M522.292 139.998C521.892 142.448 521.342 145.298 520.942 147.498C519.442 156.098 522.192 158.248 533.992 158.248C536.192 158.248 537.542 158.148 539.142 157.998L539.892 153.448C537.992 153.548 536.792 153.598 534.542 153.598C526.892 153.598 525.042 152.848 526.092 146.798L528.442 133.548H543.392L544.192 128.998H529.292C529.692 126.498 530.042 124.498 530.292 123.298L525.192 123.398C524.792 125.698 524.542 127.348 524.242 128.998C522.642 128.998 521.042 129.048 518.992 128.998L518.192 133.548H523.442L522.292 139.998Z" fill="#535559"/>
<path d="M552.314 121.398L551.514 126.048H556.614L557.414 121.398H552.314ZM547.314 150.148C546.714 153.498 546.314 155.798 545.864 157.998H550.964C551.314 155.798 551.714 153.498 552.314 150.198L554.514 137.448C555.164 133.848 555.664 131.148 556.064 128.998H550.964C550.664 131.148 550.164 133.848 549.564 137.398L547.314 150.148Z" fill="#535559"/>
<path d="M576.92 158.598C591.37 158.598 595.17 155.298 597.12 144.248L597.37 142.748C599.32 131.698 595.52 128.398 581.07 128.398C566.62 128.398 562.82 131.698 560.87 142.748L560.62 144.248C558.67 155.298 562.47 158.598 576.92 158.598ZM577.12 153.948C566.12 153.948 564.37 151.848 565.77 143.748L565.87 143.248C567.32 135.148 569.82 133.048 580.82 133.048C591.82 133.048 593.62 135.148 592.17 143.248L592.07 143.748C590.67 151.848 588.12 153.948 577.12 153.948Z" fill="#535559"/>
<path d="M603.268 149.998C602.568 153.948 602.218 155.898 601.818 157.998H606.918C607.218 155.898 607.568 154.048 608.268 149.998L609.518 142.998C610.868 135.398 613.618 133.048 623.418 133.048C633.568 133.048 635.018 135.598 633.868 142.248L632.468 150.048C631.718 154.298 631.468 155.748 631.018 157.998H636.118C636.468 155.648 636.818 153.648 637.468 150.048L638.018 146.998C638.518 143.998 638.818 142.798 639.168 140.748C640.718 131.948 637.918 128.398 624.718 128.398C618.218 128.398 613.818 129.998 610.918 133.248L611.568 128.998H606.918C606.618 130.948 606.318 132.748 605.668 136.448L603.268 149.998Z" fill="#535559"/>
<path fill-rule="evenodd" clip-rule="evenodd" d="M1254.01 199.634C1249.87 200.745 1245.46 200.252 1241.67 198.254L1214.34 183.847C1205.59 179.231 1202.61 168.142 1207.88 159.763L1224.32 133.606C1226.6 129.978 1230.16 127.344 1234.3 126.233L1368.23 90.28C1372.37 89.1688 1376.77 89.6619 1380.56 91.6605L1407.89 106.068C1416.65 110.683 1419.62 121.772 1414.36 130.152L1397.92 156.308C1395.64 159.937 1392.07 162.57 1387.93 163.681L1254.01 199.634Z" fill="url(#paint0_linear_1384_6538)"/>
<path d="M1267.37 170.163C1269.26 164.366 1274.87 147.348 1276.78 141.907L1271.71 143.268L1267.39 156.715C1266.34 160.112 1265.25 163.595 1264.39 166.471L1261.28 167.306C1259.97 164.977 1258.35 162.186 1256.75 159.463L1250.49 148.967L1245.75 150.238C1248.44 154.445 1256.58 167.769 1259.33 172.323L1267.37 170.163Z" fill="#0D0E11"/>
<path d="M1291.36 164.159C1301.43 161.455 1303.37 158.543 1302.67 150.685L1302.57 149.626C1301.87 141.767 1298.67 140.235 1288.63 142.93C1278.56 145.635 1276.62 148.546 1277.32 156.404L1277.42 157.464C1278.12 165.322 1281.32 166.854 1291.36 164.159ZM1290.54 160.175C1283.65 162.026 1282.29 161.013 1281.82 155.885L1281.78 155.606C1281.33 150.434 1282.48 148.784 1289.41 146.924C1296.31 145.073 1297.73 146.033 1298.14 151.214L1298.18 151.493C1298.65 156.621 1297.47 158.314 1290.54 160.175Z" fill="#0D0E11"/>
<path d="M1319.71 156.547C1329.65 153.879 1331.28 151.049 1330.75 144.742L1326.4 145.802C1326.7 149.091 1325.52 150.784 1318.86 152.572C1312.07 154.396 1310.71 153.383 1310.24 148.255L1310.2 147.975C1309.75 142.804 1310.91 141.154 1317.7 139.33C1324.36 137.543 1325.69 138.598 1325.99 141.853L1325.98 141.819L1330.31 140.547C1329.77 134.061 1326.82 132.678 1316.88 135.346C1307.08 137.977 1305.04 140.916 1305.74 148.774L1305.84 149.834C1306.54 157.692 1309.94 159.17 1319.71 156.547Z" fill="#0D0E11"/>
<path d="M1345.61 149.594C1351.02 148.142 1353.75 146.286 1354.92 144.05L1355.21 146.584L1359.19 145.513C1358.92 142.725 1358.76 140.919 1358.59 138.791C1358.29 135.536 1358.22 134.323 1357.98 131.526C1357.55 126.711 1355.12 125.08 1344.95 127.812C1335.65 130.307 1333.97 132.679 1334.46 137.332L1338.71 136.299C1338.49 134.113 1339.12 133.219 1345.61 131.476C1352.27 129.689 1353.36 130.408 1353.66 133.663L1353.87 136.071C1352.27 135.088 1349.37 135.104 1344.33 136.457C1335.58 138.807 1333.95 141.238 1334.34 145.951C1334.79 150.579 1336.79 151.962 1345.61 149.594ZM1346.79 145.617C1340.27 147.369 1338.99 146.915 1338.78 144.652C1338.56 142.355 1339.3 141.179 1346.29 139.301C1353.02 137.495 1354.17 138.129 1354.28 139.621L1354.37 140.502C1354.56 142.554 1353.55 143.802 1346.79 145.617Z" fill="#0D0E11"/>
<path d="M1364.28 138.061C1364.5 140.646 1364.67 142.375 1364.75 144.021L1369.21 142.823C1369.03 141.205 1368.89 139.467 1368.65 136.924L1367.36 122.267C1367.15 119.749 1366.97 117.842 1366.89 116.34L1362.43 117.538C1362.58 119.055 1362.76 120.929 1362.99 123.404L1364.28 138.061Z" fill="#0D0E11"/>
<path d="M983.845 56.7858C989.272 36.5127 1010.11 24.4773 1030.38 29.9041L1259.32 91.1869C1279.59 96.6136 1291.63 117.447 1286.2 137.72C1280.77 157.994 1259.94 170.029 1239.67 164.602L1010.73 103.319C990.454 97.8926 978.418 77.0588 983.845 56.7858Z" fill="#43FF8E"/>
<path d="M1031.28 76.1053L1032.31 73.9148C1036.12 74.9713 1042 76.546 1044.97 77.3425C1053.26 79.5598 1056.01 77.6866 1058.56 72.2104C1061.08 66.7252 1059.52 63.7365 1051.24 61.5192L1034.98 57.166C1034.36 58.5227 1033.69 59.9379 1032.79 61.9436L1026.8 74.8678C1025.71 77.1506 1025.05 78.532 1024.32 80.0396L1028.89 81.2614C1029.59 79.7109 1030.2 78.3881 1031.28 76.1053ZM1049.95 65.3778C1054.62 66.6267 1055.27 67.9958 1053.89 70.9615C1052.52 73.9272 1050.88 74.6471 1046.21 73.3982L1034.04 70.1401L1037.78 62.1197L1049.95 65.3778Z" fill="#0D0E11"/>
<path d="M1057.92 83.234C1056.8 85.6521 1056.19 86.9749 1055.49 88.3811L1059.95 89.5757C1060.55 88.1424 1061.14 86.8872 1062.31 84.4105L1064.12 80.4758C1066.51 75.3535 1068.42 74.5955 1073.96 76.0797C1079.4 77.5368 1079.74 78.4592 1078.2 81.7787L1077.89 82.3849L1082.17 83.4576C1082.51 82.7162 1082.76 82.2024 1083.06 81.63C1085.46 76.4401 1084.53 74.6333 1077.19 72.6694C1072.73 71.4748 1069.56 71.8212 1067.08 73.6225L1068.36 70.7402L1064.24 69.636C1063.68 70.9003 1063.1 72.1217 1062.07 74.346L1057.92 83.234Z" fill="#0D0E11"/>
<path d="M1092.83 98.8127C1102.91 101.51 1106.04 99.957 1109.37 92.8042L1109.81 91.8352C1113.14 84.6824 1111.13 81.7541 1101.09 79.0662C1091.01 76.3692 1087.88 77.9219 1084.55 85.0747L1084.11 86.0437C1080.79 93.1965 1082.79 96.1248 1092.83 98.8127ZM1094.12 94.9542C1087.22 93.1079 1086.55 91.5517 1088.71 86.8755L1088.82 86.6141C1091.02 81.9132 1092.84 81.0604 1099.77 82.9157C1106.67 84.762 1107.41 86.3025 1105.18 90.9944L1105.07 91.2558C1102.92 95.932 1101.05 96.8095 1094.12 94.9542Z" fill="#0D0E11"/>
<path d="M1120.08 106.106C1124.95 107.409 1128.23 107.056 1130.72 105.331L1129.45 108.18L1133.61 109.293C1134.32 107.709 1134.83 106.613 1135.97 104.128L1142.29 90.5296C1143.38 88.213 1144.16 86.5364 1144.84 85.1978L1140.31 83.9851C1139.73 85.3508 1138.15 88.8055 1136.62 92.0912C1135.91 89.5835 1133.41 87.7166 1128.54 86.4133C1119.44 83.9788 1116.33 85.4639 1112.98 92.6843L1112.54 93.6533C1109.21 100.806 1111.12 103.707 1120.08 106.106ZM1122.63 102.514C1115.77 100.677 1114.99 99.1275 1117.14 94.4851L1117.24 94.2237C1119.43 89.5566 1121.35 88.7648 1128.35 90.6382C1134.98 92.412 1135.76 94.0721 1133.64 98.613L1133.5 98.8654C1131.39 103.373 1129.4 104.324 1122.63 102.514Z" fill="#0D0E11"/>
<path d="M1144.46 99.0812C1143.46 101.204 1143.04 102.072 1142.36 103.521C1139.84 108.895 1141.04 111.717 1149.59 114.007C1154.12 115.219 1157.38 114.823 1159.88 113.065L1158.59 115.981L1162.72 117.085C1163.28 115.787 1163.86 114.6 1164.89 112.375L1169.04 103.487C1170.17 101.035 1170.77 99.7464 1171.47 98.3402L1167.01 97.1456C1166.41 98.5789 1165.82 99.8341 1164.65 102.311L1162.67 106.565C1160.54 111.14 1158.47 112.108 1152.45 110.497C1146.13 108.804 1145.65 107.081 1147.54 102.987L1149.75 98.252C1150.96 95.6401 1151.4 94.6711 1152.16 93.1725L1147.7 91.9779C1147.02 93.5712 1146.4 94.9279 1145.39 97.0845L1144.46 99.0812Z" fill="#0D0E11"/>
<path d="M1179.86 122.11C1189.81 124.77 1192.63 123.136 1195.33 117.408L1191.03 116.148C1189.64 119.147 1187.78 120.025 1181.12 118.242C1174.32 116.423 1173.65 114.867 1175.81 110.19L1175.92 109.929C1178.12 105.228 1179.94 104.375 1186.73 106.194C1193.39 107.977 1194.02 109.558 1192.65 112.524L1192.66 112.49L1197.05 113.556C1199.82 107.668 1197.96 104.997 1188.02 102.336C1178.22 99.7113 1174.98 101.237 1171.65 108.39L1171.21 109.359C1167.89 116.511 1170.09 119.494 1179.86 122.11Z" fill="#0D0E11"/>
<path d="M1207.9 129.614C1218.04 132.329 1220.43 130.866 1222.64 126.131L1218.35 124.838C1217.32 127.028 1216.02 127.838 1209.09 125.983C1202.56 124.236 1201.59 122.743 1203.2 118.754L1223.52 124.193C1223.76 123.713 1224.05 123.141 1224.34 122.492C1227.43 115.53 1225.79 112.447 1215.95 109.813C1206.08 107.171 1202.85 108.696 1199.52 115.849L1199.08 116.818C1195.85 123.743 1197.86 126.926 1207.9 129.614ZM1214.85 113.14C1221.24 114.85 1221.93 116.305 1220.37 119.981L1204.62 115.764C1206.62 112.061 1208.63 111.475 1214.85 113.14Z" fill="#0D0E11"/>
<path d="M1226.47 128.352C1225.35 130.771 1224.74 132.093 1224.04 133.5L1228.5 134.694C1229.1 133.261 1229.69 132.006 1230.86 129.529L1232.68 125.594C1235.06 120.472 1236.97 119.714 1242.51 121.198C1247.96 122.655 1248.29 123.578 1246.75 126.897L1246.44 127.503L1250.72 128.576C1251.06 127.835 1251.31 127.321 1251.61 126.748C1254.01 121.559 1253.08 119.752 1245.75 117.788C1241.28 116.593 1238.11 116.94 1235.64 118.741L1236.91 115.859L1232.79 114.755C1232.23 116.019 1231.65 117.24 1230.62 119.464L1226.47 128.352Z" fill="#0D0E11"/>
<defs>
<linearGradient id="paint0_linear_1384_6538" x1="1329.51" y1="154.723" x2="1233.25" y2="128.826" gradientUnits="userSpaceOnUse">
<stop stop-color="#E965FF"/>
<stop offset="1" stop-color="#E965FF" stop-opacity="0"/>
</linearGradient>
</defs>
</svg>
