<svg width="112" height="15" viewBox="0 0 112 15" fill="none" xmlns="http://www.w3.org/2000/svg">
<path d="M1.06849 11.6678H2.63136L3.58821 9.13223H8.97851L8.02165 11.6678H9.58452C9.90347 10.8278 10.2224 9.97223 10.5414 9.13223H12.9495V7.70112H11.0676C11.4663 6.65889 11.8491 5.63223 12.2478 4.59H14.8153V3.15889H12.774C13.093 2.31889 13.4119 1.46334 13.7309 0.623338H12.168L11.2112 3.15889H5.82088L6.77774 0.623338H5.21487C4.89592 1.46334 4.57697 2.31889 4.25801 3.15889H1.86587V4.59H3.73174C3.33305 5.63223 2.95031 6.65889 2.55162 7.70112H0V9.13223H2.02535C1.7064 9.97223 1.38744 10.8278 1.06849 11.6678ZM4.11449 7.70112L5.29461 4.59H10.6849L9.50478 7.70112H4.11449Z" fill="#535559"/>
<path d="M23.114 11.6678H24.8044C24.7885 10.8278 24.7885 10.5322 24.7885 9.14778V6.69H34.1178V9.16334C34.1178 10.3611 34.1178 10.89 34.1019 11.6678H35.7923C35.7764 10.8278 35.7764 10.5322 35.7764 9.14778V2.64556C35.7764 1.82112 35.7764 1.37 35.7923 0.623338H34.1019C34.1178 1.37 34.1178 1.82112 34.1178 2.64556V5.22778H24.7885V2.64556C24.7885 1.82112 24.7885 1.37 24.8044 0.623338H23.114C23.1299 1.37 23.1299 1.82112 23.1299 2.64556V9.16334C23.1299 10.3611 23.1299 10.89 23.114 11.6678Z" fill="#535559"/>
<path d="M43.5143 11.8544C45.9862 11.8544 47.3896 11.3722 48.0913 10.61L48.1072 11.6678H49.5425C49.5266 10.4389 49.5266 9.64556 49.5266 8.71223C49.5266 7.40556 49.5425 6.81445 49.5425 5.58556C49.5425 3.45445 48.7292 2.45889 44.0087 2.45889C39.7188 2.45889 38.746 3.34556 38.7779 5.22778L40.3886 5.27445C40.3726 4.20112 40.7554 3.84334 44.0087 3.84334C47.3736 3.84334 47.9318 4.32556 47.9318 5.88112V6.98556C47.1823 6.41001 45.8108 6.06778 43.5143 6.06778C39.3201 6.06778 38.4111 6.92334 38.4111 8.99223C38.4111 11.0145 39.2723 11.8544 43.5143 11.8544ZM43.9768 10.5011C40.7235 10.5011 40.0537 10.1122 40.0537 8.99223C40.0537 7.84112 40.4843 7.35889 43.9768 7.35889C47.4055 7.35889 47.9637 7.82556 47.9637 8.52556V9.00778C47.9637 10.0189 47.4055 10.5011 43.9768 10.5011Z" fill="#535559"/>
<path d="M57.1745 11.8544C61.8152 11.8544 62.4053 11.1389 62.4053 9.27223C62.4053 7.42112 61.8312 6.73667 57.0469 6.34778C53.6181 6.06778 53.3789 5.78778 53.3789 5.01C53.3789 4.18556 53.8733 3.85889 56.8715 3.85889C59.9174 3.85889 60.3959 4.21667 60.3959 5.16556V5.39889L62.0385 5.35223C62.0385 3.19 61.257 2.45889 56.9352 2.45889C52.6772 2.45889 51.8479 3.22112 51.8479 5.11889C51.8479 6.95445 52.5496 7.54556 56.7917 7.88778C60.4916 8.18334 60.7786 8.47889 60.7786 9.35001C60.7786 10.19 60.4437 10.5478 57.2382 10.5478C53.8414 10.5478 53.347 10.19 53.347 8.93001V8.68112L51.7363 8.72778C51.7363 11.3411 52.5656 11.8544 57.1745 11.8544Z" fill="#535559"/>
<path d="M64.6156 9.21001C64.6156 10.3456 64.6156 10.9056 64.5997 11.6678H66.2263C66.2104 10.89 66.2104 10.2211 66.2104 9.17889V7.00112C66.2104 4.63667 66.9599 3.90556 70.0857 3.90556C73.323 3.90556 73.929 4.69889 73.929 6.76778V9.21001C73.929 10.3145 73.929 10.8744 73.9131 11.6678H75.5398C75.5238 10.7811 75.5238 10.05 75.5238 9.24112V8.24556C75.5238 7.31223 75.5398 6.93889 75.5398 6.30112C75.5398 3.56334 74.7264 2.45889 70.5163 2.45889C68.2995 2.45889 66.928 2.94112 66.1626 3.90556C66.1945 2.84778 66.2423 0.296671 66.2423 0.0322266H64.5997C64.6156 0.701115 64.6156 1.52556 64.6156 2.64556V9.21001Z" fill="#535559"/>
<path d="M78.9088 6.06778C78.9088 6.83 78.8929 7.71667 78.8929 8.40112C78.8929 11.0767 79.7381 11.7456 83.5017 11.7456C84.2034 11.7456 84.7935 11.7144 85.2879 11.6678L85.2719 10.2522C84.6659 10.2833 84.2991 10.2989 83.5815 10.2989C81.1415 10.2989 80.5036 10.0656 80.5036 8.18334V4.06112H85.2719V2.64556H80.5036C80.5036 1.86778 80.5036 1.24556 80.5195 0.872227L78.8929 0.903338C78.9088 1.61889 78.9088 2.13223 78.9088 2.64556C78.3985 2.64556 77.8882 2.66112 77.2343 2.64556V4.06112H78.9088V6.06778Z" fill="#535559"/>
<path d="M92.1203 11.8544C94.5922 11.8544 95.9956 11.3722 96.6973 10.61L96.7132 11.6678H98.1485C98.1325 10.4389 98.1325 9.64556 98.1325 8.71223C98.1325 7.40556 98.1485 6.81445 98.1485 5.58556C98.1485 3.45445 97.3352 2.45889 92.6147 2.45889C88.3248 2.45889 87.352 3.34556 87.3839 5.22778L88.9946 5.27445C88.9786 4.20112 89.3614 3.84334 92.6147 3.84334C95.9796 3.84334 96.5378 4.32556 96.5378 5.88112V6.98556C95.7882 6.41001 94.4168 6.06778 92.1203 6.06778C87.9261 6.06778 87.0171 6.92334 87.0171 8.99223C87.0171 11.0145 87.8782 11.8544 92.1203 11.8544ZM92.5828 10.5011C89.3295 10.5011 88.6597 10.1122 88.6597 8.99223C88.6597 7.84112 89.0902 7.35889 92.5828 7.35889C96.0115 7.35889 96.5697 7.82556 96.5697 8.52556V9.00778C96.5697 10.0189 96.0115 10.5011 92.5828 10.5011Z" fill="#535559"/>
<path d="M105.972 10.7656C108.268 10.7656 109.656 10.2678 110.421 9.38112L110.405 10.2678C110.373 11.87 109.767 12.6167 105.972 12.6167C102.734 12.6167 102.176 12.1811 102.176 11.2633L100.629 11.3256C100.629 13.3789 101.698 14.0322 105.972 14.0322C110.82 14.0322 112 13.1144 112 10.47C112 9.25667 111.984 8.32334 111.984 7.00112V4.66778C111.984 3.90556 111.984 3.31445 112 2.64556H110.517L110.501 3.84334C109.735 2.94112 108.332 2.45889 105.956 2.45889C101.937 2.45889 100.374 3.22111 100.374 6.53445V6.69C100.374 10.0033 102.017 10.7656 105.972 10.7656ZM102.001 6.69V6.53445C102.001 4.54334 102.91 3.87445 106.243 3.87445C109.656 3.87445 110.373 4.52778 110.389 6.53445C110.389 8.52556 109.592 9.35001 106.259 9.35001C102.75 9.35001 102.001 8.68112 102.001 6.69Z" fill="#535559"/>
</svg>
