<svg width="29" height="29" viewBox="0 0 29 29" fill="none" xmlns="http://www.w3.org/2000/svg">
<g clip-path="url(#clip0_300_6085)">
<path d="M25.7973 20.5489V20.356H25.7971V8.45098C25.7971 5.55699 23.4428 3.2027 20.5487 3.2027H8.45082C5.55683 3.2027 3.2027 5.55701 3.2027 8.45098V20.5489C3.2027 23.443 5.55683 25.7973 8.45082 25.7971H20.5489C23.443 25.7971 25.7973 23.443 25.7973 20.5489ZM8.45082 1.19286H20.5487C24.5509 1.19286 27.8071 4.44912 27.807 8.45097V20.5489C27.807 24.5507 24.5509 27.807 20.5487 27.807H8.45082C4.44895 27.807 1.19286 24.5509 1.19286 20.5489V8.45098C1.19286 4.44911 4.44896 1.19286 8.45082 1.19286Z" fill="#535559" stroke="black" stroke-width="0.385714"/>
<path d="M7.73583 14.5001C7.73583 10.7704 10.7704 7.73583 14.5001 7.73583C18.2299 7.73583 21.2645 10.7704 21.2645 14.5001C21.2645 18.2297 18.2299 21.2641 14.5001 21.2641C10.7704 21.2641 7.73583 18.2297 7.73583 14.5001ZM9.74567 14.5C9.74567 17.1217 11.8785 19.2541 14.5001 19.2541C17.1218 19.2541 19.2546 17.1217 19.2546 14.5C19.2546 11.8781 17.122 9.74551 14.5001 9.74551C11.8783 9.74551 9.74567 11.8781 9.74567 14.5Z" fill="#535559" stroke="black" stroke-width="0.385714"/>
<path d="M20.644 6.1627L20.644 6.1627L20.6447 6.16204C20.9342 5.87128 21.3383 5.70458 21.7489 5.70458C22.1613 5.70458 22.5655 5.87136 22.8547 6.162L22.8547 6.162L22.8554 6.16267C23.146 6.45189 23.3128 6.85609 23.3128 7.26846C23.3128 7.67899 23.1462 8.08337 22.8552 8.37444C22.5636 8.66448 22.1605 8.83234 21.7489 8.83234C21.3387 8.83234 20.9341 8.66429 20.6444 8.37458C20.353 8.08318 20.185 7.67876 20.185 7.26846C20.185 6.8565 20.353 6.4522 20.644 6.1627Z" fill="#535559" stroke="black" stroke-width="0.385714"/>
</g>
<rect x="0.807143" y="0.807143" width="27.3857" height="27.3857" stroke="black" stroke-width="0.385714"/>
<defs>
<clipPath id="clip0_300_6085">
<rect x="1" y="1" width="27" height="27" fill="white"/>
</clipPath>
</defs>
</svg>
