<svg width="183" height="18" viewBox="0 0 183 18" fill="none" xmlns="http://www.w3.org/2000/svg">
<path d="M18.335 18.0001C24.949 10.0903 7.4512 6.29763 0 6.01369L1.00466 0.720215H31.3118L29.9722 6.01369H17.9164C28.9676 8.87338 27.8792 15.9111 26.2885 18.0001H18.335Z" fill="white"/>
<path d="M32.0006 13.7388C31.7155 15.3701 31.5254 16.5875 31.3115 17.6345H37.0143C37.1807 16.5632 37.3945 15.3458 37.6559 13.7388L37.7034 13.3979H53.1737L53.8866 14.7127C54.4568 15.784 54.9796 16.8067 55.3598 17.6345H61.514C60.8725 16.4171 60.2072 15.1266 59.5894 13.8605C59.2805 13.2762 58.9715 12.6918 58.6389 12.1074C61.3715 11.3526 62.5833 9.86738 63.0823 6.89688C63.8902 2.22198 61.324 0.347154 55.2647 0.347154H34.2817C34.1629 1.19935 33.9966 2.10024 33.8065 3.26896L32.0006 13.7388ZM54.5994 5.11944C56.9756 5.11944 57.5696 5.65511 57.3558 6.89688C57.1419 8.13865 56.3578 8.72301 53.9816 8.72301H38.5113L39.1529 5.11944H54.5994Z" fill="white"/>
<path d="M72.4308 0.347154C70.1021 4.2916 65.1021 14.3231 63.0823 17.6345H69.4742L70.686 15.3701H87.3774L87.8526 17.6345H93.6742C92.795 14.3231 90.3 4.2916 89.3496 0.347154H72.4308ZM73.2047 10.7196C74.1552 8.94214 74.5911 7.11601 75.4703 5.41162H85.3814C85.6903 7.16471 86.0705 9.03954 86.4507 10.8413H73.1335L73.2047 10.7196Z" fill="white"/>
<path d="M111.771 17.9754C120.919 17.9754 123.985 16.4171 124.959 10.3057L119.327 10.2083C119.019 12.0587 117.355 12.9353 112.294 12.9353C107.47 12.9353 100.357 13.015 100.903 9.82531V8.15541C101.474 4.94142 107.47 5.04641 112.294 5.04641C117.427 5.04641 120.04 5.8499 119.708 7.77343L125.363 7.67603C126.313 1.9785 122.06 0.00628916 112.912 0.00628916C103.787 0.00628916 96.4364 -0.542043 95.153 8.60127V9.82531C95.8252 18.8706 102.647 17.9754 111.771 17.9754Z" fill="white"/>
<path d="M127.725 13.7388C127.44 15.3701 127.249 16.5632 127.036 17.6345H132.738C132.905 16.5388 133.119 15.3458 133.38 13.7388L133.831 11.1578H141.873C142.871 12.4483 143.655 13.4709 144.249 14.2744L146.839 17.6345H153.658L153.682 17.5858C152.233 15.8327 148.668 11.2552 146.577 8.52822C149.5 5.99599 154.11 2.00285 156.011 0.395852L155.987 0.347154H148.858L144.558 4.2916C143.869 4.90031 143.108 5.60641 142.181 6.40991H134.639L135.186 3.26896C135.4 2.05154 135.542 1.24805 135.709 0.347154H130.006C129.887 1.2237 129.721 2.10024 129.531 3.26896L127.725 13.7388Z" fill="white"/>
<path d="M156.874 6.67009L156.019 11.6372H164.749L165.604 6.67009H156.874Z" fill="white"/>
<path d="M182.226 17.9998H169.084L169.859 13.3919H174.534L175.899 5.22808L170.897 6.72157L171.7 2.11361L178.159 0H182.309L180.04 13.3919H183L182.226 17.9998Z" fill="white"/>
</svg>
