<svg width="176" height="52" viewBox="0 0 176 52" fill="none" xmlns="http://www.w3.org/2000/svg">
<rect width="176" height="52" rx="26" fill="#43FF8E"/>
<path d="M25.5207 33.294C32.8077 33.294 34.6767 31.614 35.7057 25.881L35.8317 25.209C36.8607 19.665 35.0547 17.796 27.6417 17.796C20.3127 17.796 18.4437 19.476 17.4147 25.209L17.2887 25.881C16.2597 31.425 18.0657 33.294 25.5207 33.294ZM25.6257 30.753C20.2287 30.753 19.4727 29.724 20.1867 25.65L20.2077 25.44C20.9217 21.471 22.0767 20.337 27.4737 20.337C32.8707 20.337 33.6477 21.366 32.9127 25.44L32.8917 25.65C32.1777 29.724 31.0437 30.753 25.6257 30.753Z" fill="#0D0E11"/>
<path d="M37.1885 33C36.9575 34.26 36.7685 35.31 36.6425 35.94H39.4355C39.5615 35.058 39.8555 33.357 40.2545 31.194C41.0315 32.559 42.7745 33.252 45.7985 33.252C51.4685 33.252 53.0225 31.908 53.8625 27.204L53.9675 26.574C54.7655 21.912 53.2325 20.526 47.6675 20.526C44.6645 20.526 42.8165 21.219 41.6405 22.584L41.9555 20.778H39.3305C39.1835 21.66 39.0365 22.437 38.8685 23.445L37.1885 33ZM40.9685 26.973L41.0105 26.805C41.5145 23.865 42.5225 23.004 46.7435 23.004C50.9855 23.004 51.6995 23.76 51.1745 26.805L51.1325 26.973C50.5865 29.997 49.6205 30.774 45.2735 30.774C41.1575 30.774 40.4435 29.934 40.9685 26.973Z" fill="#0D0E11"/>
<path d="M62.935 33.252C69.235 33.252 70.39 32.034 70.936 28.947L68.248 28.863C67.996 30.291 67.366 30.963 63.061 30.963C59.008 30.963 58.21 30.249 58.525 27.687H71.146C71.209 27.372 71.293 26.994 71.356 26.574C72.07 22.059 70.642 20.526 64.531 20.526C58.399 20.526 56.761 21.912 55.942 26.574L55.837 27.204C55.039 31.719 56.698 33.252 62.935 33.252ZM64.405 22.626C68.374 22.626 69.004 23.361 68.668 25.734H58.882C59.47 23.277 60.541 22.626 64.405 22.626Z" fill="#0D0E11"/>
<path d="M73.5011 29.64C73.2281 31.215 73.0811 32.076 72.8921 33H75.6641C75.7901 32.076 75.9371 31.257 76.2311 29.64L76.7141 26.868C77.2601 23.865 78.2891 23.004 82.1111 23.004C86.0801 23.004 86.6051 23.928 86.1641 26.574L85.5971 29.682C85.3031 31.383 85.1981 32.013 84.9881 33H87.7601C87.9071 31.971 88.0541 31.089 88.3271 29.682L88.5581 28.38C88.7891 26.973 88.9151 26.406 89.0831 25.482C89.6921 21.975 88.5581 20.526 83.2241 20.526C80.3261 20.526 78.4991 21.24 77.3231 22.647L77.6171 20.778H75.0551C74.9291 21.597 74.7821 22.395 74.5301 23.844L73.5011 29.64Z" fill="#0D0E11"/>
<path d="M98.5365 33.252C104.837 33.252 105.992 32.034 106.538 28.947L103.85 28.863C103.598 30.291 102.968 30.963 98.6625 30.963C94.6095 30.963 93.8115 30.249 94.1265 27.687H106.748C106.811 27.372 106.895 26.994 106.958 26.574C107.672 22.059 106.244 20.526 100.133 20.526C94.0005 20.526 92.3625 21.912 91.5435 26.574L91.4385 27.204C90.6405 31.719 92.2995 33.252 98.5365 33.252ZM100.007 22.626C103.976 22.626 104.606 23.361 104.27 25.734H94.4835C95.0715 23.277 96.1425 22.626 100.007 22.626Z" fill="#0D0E11"/>
<path d="M115.109 33.252C118.133 33.252 119.981 32.538 121.157 31.152L120.863 33H123.446C123.614 31.971 123.74 31.257 124.013 29.64L125.567 20.778C125.84 19.266 126.029 18.174 126.218 17.292H123.404C123.278 18.174 122.9 20.421 122.522 22.563C121.724 21.219 119.981 20.526 116.957 20.526C111.308 20.526 109.733 21.87 108.914 26.574L108.809 27.204C107.99 31.866 109.544 33.252 115.109 33.252ZM116.033 30.774C111.77 30.774 111.077 29.997 111.602 26.973L111.623 26.805C112.169 23.76 113.156 23.004 117.503 23.004C121.619 23.004 122.333 23.844 121.808 26.805L121.766 26.973C121.241 29.913 120.233 30.774 116.033 30.774Z" fill="#0D0E11"/>
<circle cx="150" cy="26" r="17" fill="#0D0E11"/>
<path d="M141.5 25.5002C142.5 25.5002 147 26.4998 147 32C146.5 26.5 151.5 22.5 158.5 22.5" stroke="#43FF8E" stroke-width="2" stroke-linecap="square"/>
</svg>
