<svg width="79" height="18" viewBox="0 0 79 18" fill="none" xmlns="http://www.w3.org/2000/svg">
<g id="Frame 957">
<g id="Producer">
<path d="M1.7747 10.9511L1.94175 9.98002C3.2543 9.98002 5.4021 9.98002 6.57146 9.98002C9.37554 9.98002 10.0915 9.12739 10.4256 7.22081C10.7597 5.31423 10.0318 4.47344 7.22773 4.47344H1.66731C1.59572 4.92344 1.51219 5.39712 1.4048 6.0366L0.533748 10.9511C0.378629 11.8155 0.283171 12.3129 0.175781 12.8813H1.4406C1.53606 12.3011 1.61958 11.8274 1.7747 10.9511ZM7.19194 5.5866C8.9937 5.5866 9.35167 6.00107 9.13689 7.22081C8.92211 8.44054 8.40902 8.85502 6.60726 8.85502H2.1446L2.71735 5.5866H7.19194Z" fill="#43FF8E"/>
<path d="M11.3215 10.9866C11.1545 11.9221 11.0709 12.384 10.9755 12.8813H12.1926C12.2642 12.384 12.3477 11.9458 12.5147 10.9866L12.8011 9.39975C13.1471 7.41028 13.7915 6.97212 15.8438 6.97212C17.932 6.97212 18.1229 7.25633 17.8842 8.59449L17.8365 8.83133L18.9939 8.80765C19.0297 8.63002 19.0655 8.45238 19.0894 8.31028C19.4354 6.34449 18.982 5.87081 16.3211 5.87081C14.8415 5.87081 13.8273 6.24975 13.1471 7.01949L13.3023 6.01291H12.1926C12.121 6.47475 12.0494 6.90107 11.8943 7.77738L11.3215 10.9866Z" fill="#43FF8E"/>
<path d="M23.8759 13.0234C27.3243 13.0234 28.2312 12.2419 28.6965 9.62475L28.7562 9.26949C29.2215 6.65238 28.3147 5.87081 24.8663 5.87081C21.4179 5.87081 20.511 6.65238 20.0457 9.26949L19.986 9.62475C19.5206 12.2419 20.4275 13.0234 23.8759 13.0234ZM23.9236 11.9221C21.2985 11.9221 20.8809 11.4248 21.215 9.50633L21.2389 9.38791C21.5849 7.46949 22.1815 6.97212 24.8066 6.97212C27.4317 6.97212 27.8613 7.46949 27.5152 9.38791L27.4914 9.50633C27.1573 11.4248 26.5487 11.9221 23.9236 11.9221Z" fill="#43FF8E"/>
<path d="M33.6002 13.0234C35.3065 13.0234 36.4043 12.6445 37.1083 11.8748L36.9532 12.8813H38.0629C38.1583 12.3011 38.2299 11.8984 38.385 10.9866L39.268 6.01291C39.4231 5.1366 39.5305 4.53265 39.6379 4.02344H38.397C38.3134 4.50896 38.0987 5.78791 37.8958 6.99581C37.4066 6.23791 36.3804 5.87081 34.6622 5.87081C31.3927 5.87081 30.474 6.65238 30.0086 9.26949L29.9489 9.62475C29.4836 12.2419 30.4024 13.0234 33.6002 13.0234ZM33.8866 11.9221C31.2734 11.9221 30.8439 11.4248 31.178 9.50633L31.2018 9.38791C31.5479 7.46949 32.1564 6.97212 34.8292 6.97212C37.3708 6.97212 37.8123 7.51686 37.4782 9.39975L37.4543 9.49449C37.1321 11.3655 36.4878 11.9221 33.8866 11.9221Z" fill="#43FF8E"/>
<path d="M40.9635 8.61817C40.8323 9.3287 40.7726 9.61291 40.6891 10.0984C40.3192 12.1826 40.9754 13.0234 44.1136 13.0234C45.641 13.0234 46.6791 12.6445 47.3592 11.8866L47.2041 12.8813H48.3138C48.3854 12.4195 48.457 11.9932 48.6121 11.1169L49.1848 7.90765C49.3519 6.97212 49.4354 6.51028 49.5309 6.01291H48.3138C48.2422 6.51028 48.1587 6.94844 47.9916 7.90765L47.6933 9.56554C47.3831 11.3655 46.7149 11.9221 44.4239 11.9221C42.0136 11.9221 41.6675 11.3182 41.9539 9.74317L42.2761 7.89581C42.455 6.88923 42.5147 6.54581 42.6221 6.01291H41.405C41.3215 6.56949 41.238 7.04317 41.0828 7.89581L40.9635 8.61817Z" fill="#43FF8E"/>
<path d="M54.4633 13.0234C57.864 13.0234 58.6396 12.2537 59.0095 10.2169L57.8282 10.1813C57.6135 11.4129 57.0168 11.9221 54.4872 11.9221C51.9099 11.9221 51.4922 11.4248 51.8263 9.50633L51.8502 9.38791C52.1962 7.46949 52.7928 6.97212 55.3702 6.97212C57.8998 6.97212 58.2817 7.50502 58.0669 8.71291L59.2601 8.67738C59.63 6.58133 58.8186 5.87081 55.406 5.87081C52.053 5.87081 51.1223 6.65238 50.657 9.26949L50.5973 9.62475C50.1319 12.2419 51.1223 13.0234 54.4633 13.0234Z" fill="#43FF8E"/>
<path d="M64.2651 13.0234C67.7493 13.0234 68.3579 12.3366 68.6562 10.6905L67.4749 10.6432C67.3198 11.5313 66.926 11.9695 64.3009 11.9695C61.7593 11.9695 61.2701 11.5076 61.4849 9.90896H68.7874C68.8232 9.70765 68.8829 9.45896 68.9068 9.26949C69.3005 6.73528 68.5488 5.87081 65.1481 5.87081C61.7474 5.87081 60.8406 6.65238 60.3752 9.26949L60.3156 9.62475C59.886 12.1708 60.7809 13.0234 64.2651 13.0234ZM65.1004 6.90107C67.5465 6.90107 67.9283 7.37475 67.7016 8.89054H61.6639C62.0338 7.32738 62.702 6.90107 65.1004 6.90107Z" fill="#43FF8E"/>
<path d="M70.3068 10.9866C70.1398 11.9221 70.0563 12.384 69.9608 12.8813H71.1779C71.2495 12.384 71.333 11.9458 71.5001 10.9866L71.7864 9.39975C72.1325 7.41028 72.7768 6.97212 74.8292 6.97212C76.9173 6.97212 77.1082 7.25633 76.8696 8.59449L76.8218 8.83133L77.9793 8.80765C78.0151 8.63002 78.0509 8.45238 78.0747 8.31028C78.4208 6.34449 77.9673 5.87081 75.3064 5.87081C73.8269 5.87081 72.8126 6.24975 72.1325 7.01949L72.2876 6.01291H71.1779C71.1063 6.47475 71.0347 6.90107 70.8796 7.77738L70.3068 10.9866Z" fill="#43FF8E"/>
</g>
</g>
</svg>
