<svg width="134" height="43" viewBox="0 0 134 43" fill="none" xmlns="http://www.w3.org/2000/svg">
<path d="M42.2704 28.7645C42.2704 31.0947 42.2704 32.1237 42.2404 33.6368H45.4262C45.3961 32.0026 45.3961 31.4276 45.3961 28.7342V15.025H51.0764C52.2786 15.025 54.2622 15.025 56.6666 15.0553V12.15H31V15.0553C33.4044 15.025 35.388 15.025 38.694 15.025H42.2704V28.7645Z" fill="#43FF8E"/>
<path d="M60.507 11.4842V14.2987H63.5725V11.4842H60.507ZM60.537 28.8855C60.537 30.9132 60.537 32.3053 60.507 33.6368H63.5725C63.5425 32.3053 63.5425 30.9132 63.5425 28.9158V21.1987C63.5425 19.0197 63.5425 17.3855 63.5725 16.0842H60.507C60.537 17.3855 60.537 19.0197 60.537 21.1684V28.8855Z" fill="#43FF8E"/>
<path d="M70.0382 22.7421C70.0382 24.225 70.0082 25.95 70.0082 27.2816C70.0082 32.4868 71.6011 33.7882 78.6939 33.7882C80.0163 33.7882 81.1283 33.7276 82.06 33.6368L82.03 30.8829C80.8879 30.9434 80.1967 30.9737 78.8442 30.9737C74.2459 30.9737 73.0437 30.5197 73.0437 26.8579V18.8382H82.03V16.0842H73.0437C73.0437 14.5711 73.0437 13.3605 73.0737 12.6342L70.0082 12.6947C70.0382 14.0868 70.0382 15.0855 70.0382 16.0842C69.0765 16.0842 68.1147 16.1145 66.8825 16.0842V18.8382H70.0382V22.7421Z" fill="#43FF8E"/>
<path d="M86.1303 28.8855C86.1303 30.9132 86.1303 32.3053 86.1003 33.6368H89.1658C89.1358 32.3053 89.1358 30.9132 89.1358 28.9158V16.1145C89.1358 13.9355 89.1358 12.3013 89.1658 11H86.1003C86.1303 12.3013 86.1303 13.9355 86.1303 16.0842V28.8855Z" fill="#43FF8E"/>
<path d="M104.558 34C113.334 34 114.987 32.2447 114.987 28.0382L112.011 27.9171C112.011 30.1868 111.2 31.3066 104.588 31.3066C98.1862 31.3066 96.7436 30.1263 96.5933 26.0408H114.987C114.987 25.5263 115.017 24.8908 114.987 24.4066C114.896 17.7184 112.913 15.7211 104.347 15.7211C95.7818 15.7211 93.4977 17.7184 93.4977 24.4066V25.3145C93.4977 32.0026 95.7818 34 104.558 34ZM104.347 18.3539C110.509 18.3539 111.681 19.5645 111.801 23.4382H96.5933C96.8037 19.4434 98.3064 18.3539 104.347 18.3539Z" fill="#43FF8E"/>
<path d="M20 22C14.4774 22 10 15.2839 10 7C10 15.2839 5.52258 22 0 22C5.52258 22 10 28.7161 10 37C10 28.7161 14.4774 22 20 22Z" fill="#43FF8E"/>
</svg>
