<svg width="423" height="21" viewBox="0 0 423 21" fill="none" xmlns="http://www.w3.org/2000/svg">
<path d="M1.14845 13.5064C0.849446 15.2314 0.711445 16.1054 0.481445 17.2094H3.58645C3.77045 16.0364 3.88545 15.4154 4.23045 13.4834L4.59845 11.4594H12.9934L14.4194 14.1044C14.9714 15.1394 15.4544 16.1974 15.9144 17.2094H19.3184C18.6054 15.8524 17.9614 14.5874 17.3864 13.3914C16.9724 12.5634 16.5584 11.7584 16.1444 11.0224C19.3184 10.4474 20.5604 9.09037 21.0664 6.16937C21.7334 2.60437 20.0084 0.879371 14.5114 0.879371H3.35645C3.19545 1.89137 3.08045 2.62737 2.85045 3.82337L1.14845 13.5064ZM14.3274 3.54737C17.5474 3.54737 18.2604 4.21437 17.9154 6.05437C17.5704 7.96337 16.6044 8.81437 13.4074 8.81437H5.05845L5.97845 3.54737H14.3274Z" fill="white"/>
<path d="M30.0688 17.4854C36.9688 17.4854 38.2338 16.1514 38.8318 12.7704L35.8878 12.6784C35.6118 14.2424 34.9218 14.9784 30.2068 14.9784C25.7678 14.9784 24.8938 14.1964 25.2388 11.3904H39.0618C39.1308 11.0454 39.2228 10.6314 39.2918 10.1714C40.0738 5.22637 38.5098 3.54737 31.8168 3.54737C25.1008 3.54737 23.3068 5.06537 22.4098 10.1714L22.2948 10.8614C21.4208 15.8064 23.2378 17.4854 30.0688 17.4854ZM31.6788 5.84737C36.0258 5.84737 36.7158 6.65237 36.3478 9.25137H25.6298C26.2738 6.56037 27.4468 5.84737 31.6788 5.84737Z" fill="white"/>
<path d="M48.2192 17.4854C51.3472 17.4854 53.3482 16.7954 54.6362 15.4154C54.2452 17.6924 53.9232 19.4864 53.7392 20.4294H56.7752C56.8672 19.7394 57.0742 18.5894 57.3272 17.2094L59.1672 6.74437C59.3512 5.64037 59.5122 4.78937 59.7192 3.82337H56.8212L56.4302 5.93937C55.6022 4.35237 53.6702 3.54737 50.2432 3.54737C44.0562 3.54737 42.3312 5.01937 41.4342 10.1714L41.3192 10.8614C40.4222 15.9674 42.1242 17.4854 48.2192 17.4854ZM49.2312 14.7714C44.5622 14.7714 43.8032 13.9204 44.3782 10.6084L44.4012 10.4244C44.9992 7.08937 46.0802 6.26137 50.8412 6.26137C55.3492 6.26137 56.1312 7.18137 55.5562 10.4244L55.5102 10.6084C54.9582 13.8284 53.8312 14.7714 49.2312 14.7714Z" fill="white"/>
<path d="M62.5027 8.88337C62.2267 10.4014 62.1117 11.0224 61.9277 12.0574C61.2377 15.8984 62.4797 17.4854 68.2987 17.4854C71.3807 17.4854 73.3817 16.6804 74.6697 15.1394L74.3477 17.2094H77.1537C77.2917 16.2894 77.4527 15.4384 77.7287 13.8514L78.8557 7.50337C79.1547 5.75537 79.3157 4.83537 79.5227 3.82337H76.4867C76.3487 4.83537 76.1877 5.73237 75.8657 7.50337L75.3367 10.5394C74.7617 13.8054 73.6117 14.7714 69.5177 14.7714C65.2167 14.7714 64.6188 13.7594 65.1247 10.8384L65.7227 7.45737C66.0447 5.59437 66.1597 4.90437 66.3897 3.82337H63.3537C63.1927 4.95037 63.0317 5.91637 62.7557 7.45737L62.5027 8.88337Z" fill="white"/>
<path d="M89.0063 17.4854C95.9063 17.4854 97.1713 16.1514 97.7693 12.7704L94.8253 12.6784C94.5493 14.2424 93.8593 14.9784 89.1443 14.9784C84.7053 14.9784 83.8313 14.1964 84.1763 11.3904H97.9993C98.0683 11.0454 98.1603 10.6314 98.2293 10.1714C99.0113 5.22637 97.4473 3.54737 90.7543 3.54737C84.0383 3.54737 82.2443 5.06537 81.3473 10.1714L81.2323 10.8614C80.3583 15.8064 82.1753 17.4854 89.0063 17.4854ZM90.6163 5.84737C94.9633 5.84737 95.6533 6.65237 95.2853 9.25137H84.5673C85.2113 6.56037 86.3843 5.84737 90.6163 5.84737Z" fill="white"/>
<path d="M107.387 17.4854C114.149 17.4854 114.954 16.6344 115.46 13.7364C115.943 11.0224 114.977 9.78037 108.583 9.25137C103.868 8.83737 103.615 8.35437 103.776 7.29637C103.914 6.35337 104.65 5.91637 108.606 5.91637C112.723 5.91637 113.252 6.39937 113.022 7.64137L112.953 7.94037L115.966 7.87137C116.518 4.65137 115.345 3.54737 108.79 3.54737C102.534 3.54737 101.43 4.51337 100.924 7.36537C100.441 10.1024 101.43 11.2294 107.295 11.6894C112.332 12.1264 112.631 12.6094 112.447 13.7594C112.286 14.7944 111.757 15.2084 107.548 15.2084C102.902 15.2084 102.373 14.7484 102.649 13.1614L102.695 12.8164L99.7507 12.8854C99.0837 16.7264 100.51 17.4854 107.387 17.4854Z" fill="white"/>
<path d="M120.025 8.69937C119.795 10.0334 119.542 11.3674 119.358 12.4254C118.668 16.3584 120.048 17.3244 125.637 17.3244C126.58 17.3244 127.293 17.2784 128.167 17.2094L128.581 14.6104C127.684 14.6794 127.155 14.7024 126.166 14.7024C122.739 14.7024 122.003 14.3574 122.463 11.7124L123.406 6.42237H130.03L130.49 3.82337H123.866C124.073 2.69637 124.234 1.82237 124.349 1.20137L121.313 1.24737C121.152 2.28237 121.037 3.04137 120.876 3.82337C120.14 3.82337 119.312 3.82337 118.461 3.82337L118.001 6.42237H120.439L120.025 8.69937Z" fill="white"/>
<path d="M146.225 17.4854C149.905 17.4854 151.952 16.7724 153.079 15.5534L152.826 17.2094H155.54C155.839 15.3924 156.046 14.2194 156.299 12.8394C156.667 10.7234 156.828 9.94137 157.15 8.12437C157.702 4.99637 156.437 3.54737 149.514 3.54737C143.189 3.54737 141.717 4.76637 141.234 7.80237L144.109 7.87137C144.339 6.44537 144.891 5.98537 149.307 5.98537C153.838 5.98537 154.413 6.62937 154.045 8.74537L153.769 10.3094C152.918 9.41237 151.078 8.92937 147.651 8.92937C141.694 8.92937 140.245 10.1944 139.693 13.2534C139.187 16.2664 140.222 17.4854 146.225 17.4854ZM147.651 15.1624C143.212 15.1624 142.476 14.6564 142.729 13.1844C142.982 11.6894 143.649 11.0684 148.41 11.0684C152.987 11.0684 153.608 11.6664 153.424 12.6324L153.332 13.2074C153.102 14.5414 152.251 15.1624 147.651 15.1624Z" fill="white"/>
<path d="M167.991 17.2094C167.738 18.5894 167.531 19.7394 167.393 20.4294H170.452C170.59 19.4634 170.912 17.6004 171.349 15.2314C172.2 16.7264 174.109 17.4854 177.421 17.4854C183.631 17.4854 185.333 16.0134 186.253 10.8614L186.368 10.1714C187.242 5.06537 185.563 3.54737 179.468 3.54737C176.179 3.54737 174.155 4.30637 172.867 5.80137L173.212 3.82337H170.337C170.176 4.78937 170.015 5.64037 169.831 6.74437L167.991 17.2094ZM172.131 10.6084L172.177 10.4244C172.729 7.20437 173.833 6.26137 178.456 6.26137C183.102 6.26137 183.884 7.08937 183.309 10.4244L183.263 10.6084C182.665 13.9204 181.607 14.7714 176.846 14.7714C172.338 14.7714 171.556 13.8514 172.131 10.6084Z" fill="white"/>
<path d="M194.741 17.4854C198.421 17.4854 200.468 16.7724 201.595 15.5534L201.342 17.2094H204.056C204.355 15.3924 204.562 14.2194 204.815 12.8394C205.183 10.7234 205.344 9.94137 205.666 8.12437C206.218 4.99637 204.953 3.54737 198.03 3.54737C191.705 3.54737 190.233 4.76637 189.75 7.80237L192.625 7.87137C192.855 6.44537 193.407 5.98537 197.823 5.98537C202.354 5.98537 202.929 6.62937 202.561 8.74537L202.285 10.3094C201.434 9.41237 199.594 8.92937 196.167 8.92937C190.21 8.92937 188.761 10.1944 188.209 13.2534C187.703 16.2664 188.738 17.4854 194.741 17.4854ZM196.167 15.1624C191.728 15.1624 190.992 14.6564 191.245 13.1844C191.498 11.6894 192.165 11.0684 196.926 11.0684C201.503 11.0684 202.124 11.6664 201.94 12.6324L201.848 13.2074C201.618 14.5414 200.767 15.1624 196.167 15.1624Z" fill="white"/>
<path d="M215.267 17.4854C222.029 17.4854 222.834 16.6344 223.34 13.7364C223.823 11.0224 222.857 9.78037 216.463 9.25137C211.748 8.83737 211.495 8.35437 211.656 7.29637C211.794 6.35337 212.53 5.91637 216.486 5.91637C220.603 5.91637 221.132 6.39937 220.902 7.64137L220.833 7.94037L223.846 7.87137C224.398 4.65137 223.225 3.54737 216.67 3.54737C210.414 3.54737 209.31 4.51337 208.804 7.36537C208.321 10.1024 209.31 11.2294 215.175 11.6894C220.212 12.1264 220.511 12.6094 220.327 13.7594C220.166 14.7944 219.637 15.2084 215.428 15.2084C210.782 15.2084 210.253 14.7484 210.529 13.1614L210.575 12.8164L207.631 12.8854C206.964 16.7264 208.39 17.4854 215.267 17.4854Z" fill="white"/>
<path d="M233.011 17.4854C239.773 17.4854 240.578 16.6344 241.084 13.7364C241.567 11.0224 240.601 9.78037 234.207 9.25137C229.492 8.83737 229.239 8.35437 229.4 7.29637C229.538 6.35337 230.274 5.91637 234.23 5.91637C238.347 5.91637 238.876 6.39937 238.646 7.64137L238.577 7.94037L241.59 7.87137C242.142 4.65137 240.969 3.54737 234.414 3.54737C228.158 3.54737 227.054 4.51337 226.548 7.36537C226.065 10.1024 227.054 11.2294 232.919 11.6894C237.956 12.1264 238.255 12.6094 238.071 13.7594C237.91 14.7944 237.381 15.2084 233.172 15.2084C228.526 15.2084 227.997 14.7484 228.273 13.1614L228.319 12.8164L225.375 12.8854C224.708 16.7264 226.134 17.4854 233.011 17.4854Z" fill="white"/>
<path d="M254.278 11.0684C255.037 9.66537 255.819 8.23937 256.555 6.92837H257.268C257.475 8.26237 257.705 9.73437 257.912 11.1144L258.878 17.2094H263.547C265.341 13.9434 269.251 6.95137 271.137 3.82337H267.802L264.72 9.59637C263.869 11.2064 263.018 12.8624 262.236 14.3574H261.27C261.063 12.9774 260.81 11.4134 260.58 9.89537L259.568 3.82337H255.221L252.001 9.84937C251.196 11.3674 250.345 12.9314 249.586 14.3574H248.597C248.39 12.9084 248.16 11.2754 247.907 9.71137L247.01 3.82337H243.767C244.411 6.90537 245.676 13.9434 246.205 17.2094H250.874L254.278 11.0684Z" fill="white"/>
<path d="M278.485 17.4854C285.339 17.4854 287.064 15.9674 287.961 10.8614L288.076 10.1714C288.973 5.06537 287.202 3.54737 280.371 3.54737C273.517 3.54737 271.792 5.06537 270.895 10.1714L270.78 10.8614C269.883 15.9674 271.654 17.4854 278.485 17.4854ZM278.646 14.8174C273.954 14.8174 273.264 13.9434 273.839 10.6084L273.862 10.4244C274.46 7.06637 275.472 6.21537 280.187 6.21537C284.879 6.21537 285.615 7.06637 284.994 10.4244L284.971 10.6084C284.396 13.9434 283.361 14.8174 278.646 14.8174Z" fill="white"/>
<path d="M290.441 13.5294C290.142 15.2544 289.981 16.1974 289.774 17.2094H292.81C292.948 16.1974 293.109 15.3004 293.431 13.5294L293.914 10.7234C294.558 7.06637 295.639 6.26137 299.411 6.26137C303.114 6.26137 303.482 6.79037 303.068 9.15937L302.976 9.59637L305.874 9.55037C305.966 9.02137 306.035 8.65337 306.127 8.23937C306.771 4.53637 305.874 3.54737 300.883 3.54737C297.847 3.54737 295.892 4.30637 294.627 5.87037L294.949 3.82337H292.143C292.005 4.72037 291.844 5.59437 291.568 7.18137L290.441 13.5294Z" fill="white"/>
<path d="M314.449 17.4854C317.761 17.4854 319.785 16.7034 321.073 15.1854L320.751 17.2094H323.58C323.764 16.0824 323.902 15.3004 324.201 13.5294L325.903 3.82337C326.202 2.16737 326.409 0.971371 326.616 0.00537109H323.534C323.396 0.971371 322.982 3.43237 322.568 5.77837C321.694 4.30637 319.785 3.54737 316.473 3.54737C310.286 3.54737 308.561 5.01937 307.664 10.1714L307.549 10.8614C306.652 15.9674 308.354 17.4854 314.449 17.4854ZM315.461 14.7714C310.792 14.7714 310.033 13.9204 310.608 10.6084L310.631 10.4244C311.229 7.08937 312.31 6.26137 317.071 6.26137C321.579 6.26137 322.361 7.18137 321.786 10.4244L321.74 10.6084C321.165 13.8284 320.061 14.7714 315.461 14.7714Z" fill="white"/>
<path d="M336.666 13.5294C336.367 15.2544 336.206 16.1974 335.999 17.2094H339.035C339.173 16.1974 339.334 15.3004 339.656 13.5294L340.139 10.7234C340.783 7.06637 341.864 6.26137 345.636 6.26137C349.339 6.26137 349.707 6.79037 349.293 9.15937L349.201 9.59637L352.099 9.55037C352.191 9.02137 352.26 8.65337 352.352 8.23937C352.996 4.53637 352.099 3.54737 347.108 3.54737C344.072 3.54737 342.117 4.30637 340.852 5.87037L341.174 3.82337H338.368C338.23 4.72037 338.069 5.59437 337.793 7.18137L336.666 13.5294Z" fill="white"/>
<path d="M361.547 17.4854C368.447 17.4854 369.712 16.1514 370.31 12.7704L367.366 12.6784C367.09 14.2424 366.4 14.9784 361.685 14.9784C357.246 14.9784 356.372 14.1964 356.717 11.3904H370.54C370.609 11.0454 370.701 10.6314 370.77 10.1714C371.552 5.22637 369.988 3.54737 363.295 3.54737C356.579 3.54737 354.785 5.06537 353.888 10.1714L353.773 10.8614C352.899 15.8064 354.716 17.4854 361.547 17.4854ZM363.157 5.84737C367.504 5.84737 368.194 6.65237 367.826 9.25137H357.108C357.752 6.56037 358.925 5.84737 363.157 5.84737Z" fill="white"/>
<path d="M379.928 17.4854C386.69 17.4854 387.495 16.6344 388.001 13.7364C388.484 11.0224 387.518 9.78037 381.124 9.25137C376.409 8.83737 376.156 8.35437 376.317 7.29637C376.455 6.35337 377.191 5.91637 381.147 5.91637C385.264 5.91637 385.793 6.39937 385.563 7.64137L385.494 7.94037L388.507 7.87137C389.059 4.65137 387.886 3.54737 381.331 3.54737C375.075 3.54737 373.971 4.51337 373.465 7.36537C372.982 10.1024 373.971 11.2294 379.836 11.6894C384.873 12.1264 385.172 12.6094 384.988 13.7594C384.827 14.7944 384.298 15.2084 380.089 15.2084C375.443 15.2084 374.914 14.7484 375.19 13.1614L375.236 12.8164L372.292 12.8854C371.625 16.7264 373.051 17.4854 379.928 17.4854Z" fill="white"/>
<path d="M398.316 17.4854C405.216 17.4854 406.481 16.1514 407.079 12.7704L404.135 12.6784C403.859 14.2424 403.169 14.9784 398.454 14.9784C394.015 14.9784 393.141 14.1964 393.486 11.3904H407.309C407.378 11.0454 407.47 10.6314 407.539 10.1714C408.321 5.22637 406.757 3.54737 400.064 3.54737C393.348 3.54737 391.554 5.06537 390.657 10.1714L390.542 10.8614C389.668 15.8064 391.485 17.4854 398.316 17.4854ZM399.926 5.84737C404.273 5.84737 404.963 6.65237 404.595 9.25137H393.877C394.521 6.56037 395.694 5.84737 399.926 5.84737Z" fill="white"/>
<path d="M411.59 8.69937C411.36 10.0334 411.107 11.3674 410.923 12.4254C410.233 16.3584 411.613 17.3244 417.202 17.3244C418.145 17.3244 418.858 17.2784 419.732 17.2094L420.146 14.6104C419.249 14.6794 418.72 14.7024 417.731 14.7024C414.304 14.7024 413.568 14.3574 414.028 11.7124L414.971 6.42237H421.595L422.055 3.82337H415.431C415.638 2.69637 415.799 1.82237 415.914 1.20137L412.878 1.24737C412.717 2.28237 412.602 3.04137 412.441 3.82337C411.705 3.82337 410.877 3.82337 410.026 3.82337L409.566 6.42237H412.004L411.59 8.69937Z" fill="white"/>
</svg>
