<svg width="40" height="40" viewBox="0 0 40 40" fill="none" xmlns="http://www.w3.org/2000/svg">
<circle cx="20" cy="20" r="10.2478" stroke="#FF4F4F" stroke-width="1.50441"/>
<path d="M20.6928 22.0195H19.3803L19.2709 13.8945H20.8022L20.6928 22.0195ZM19.0366 24.8862C19.0314 24.7091 19.073 24.545 19.1616 24.394C19.2553 24.2377 19.3777 24.1153 19.5288 24.0268C19.685 23.933 19.8543 23.8862 20.0366 23.8862C20.2137 23.8862 20.3777 23.9304 20.5288 24.019C20.685 24.1075 20.8074 24.2273 20.8959 24.3784C20.9897 24.5294 21.0366 24.6935 21.0366 24.8705C21.0366 25.1518 20.9402 25.394 20.7475 25.5971C20.5548 25.795 20.3178 25.8966 20.0366 25.9018C19.8543 25.9018 19.685 25.8549 19.5288 25.7612C19.3777 25.6674 19.2553 25.545 19.1616 25.394C19.073 25.2377 19.0314 25.0685 19.0366 24.8862Z" fill="#FF4F4F"/>
</svg>
