<svg width="555" height="67" viewBox="0 0 555 67" fill="none" xmlns="http://www.w3.org/2000/svg">
<rect width="555" height="67" rx="30" fill="#E965FF"/>
<path d="M93.136 26.67H90.008C89.893 27.498 89.709 28.51 89.525 29.637L88.375 36.077C87.754 39.596 86.581 40.539 81.061 40.539C75.518 40.539 74.69 39.596 75.311 36.077L76.461 29.614C76.645 28.51 76.829 27.498 77.013 26.67H73.908C73.793 27.452 73.609 28.418 73.402 29.614L73.08 31.408C72.85 32.65 72.551 34.26 72.183 36.353C71.263 41.505 73.126 43.322 80.9 43.322C88.697 43.322 90.514 41.505 91.411 36.353C91.779 34.26 92.055 32.65 92.262 31.408L92.561 29.66C92.791 28.418 92.975 27.452 93.136 26.67ZM94.0105 43C93.7575 44.38 93.5505 45.53 93.4125 46.22H96.4715C96.6095 45.254 96.9315 43.391 97.3685 41.022C98.2195 42.517 100.129 43.276 103.441 43.276C109.651 43.276 111.353 41.804 112.273 36.652L112.388 35.962C113.262 30.856 111.583 29.338 105.488 29.338C102.199 29.338 100.175 30.097 98.8865 31.592L99.2315 29.614H96.3565C96.1955 30.58 96.0345 31.431 95.8505 32.535L94.0105 43ZM98.1505 36.399L98.1965 36.215C98.7485 32.995 99.8525 32.052 104.476 32.052C109.122 32.052 109.904 32.88 109.329 36.215L109.283 36.399C108.685 39.711 107.627 40.562 102.866 40.562C98.3575 40.562 97.5755 39.642 98.1505 36.399ZM114.849 39.136C114.55 40.815 114.366 41.942 114.136 43H117.172C117.333 41.942 117.54 40.815 117.816 39.159L119.495 29.637C119.794 28.004 120.001 26.762 120.208 25.796H117.172C117.011 26.785 116.804 28.004 116.528 29.614L114.849 39.136ZM128.991 43.276C135.845 43.276 137.57 41.758 138.467 36.652L138.582 35.962C139.479 30.856 137.708 29.338 130.877 29.338C124.023 29.338 122.298 30.856 121.401 35.962L121.286 36.652C120.389 41.758 122.16 43.276 128.991 43.276ZM129.152 40.608C124.46 40.608 123.77 39.734 124.345 36.399L124.368 36.215C124.966 32.857 125.978 32.006 130.693 32.006C135.385 32.006 136.121 32.857 135.5 36.215L135.477 36.399C134.902 39.734 133.867 40.608 129.152 40.608ZM146.95 43.276C150.63 43.276 152.677 42.563 153.804 41.344L153.551 43H156.265C156.564 41.183 156.771 40.01 157.024 38.63C157.392 36.514 157.553 35.732 157.875 33.915C158.427 30.787 157.162 29.338 150.239 29.338C143.914 29.338 142.442 30.557 141.959 33.593L144.834 33.662C145.064 32.236 145.616 31.776 150.032 31.776C154.563 31.776 155.138 32.42 154.77 34.536L154.494 36.1C153.643 35.203 151.803 34.72 148.376 34.72C142.419 34.72 140.97 35.985 140.418 39.044C139.912 42.057 140.947 43.276 146.95 43.276ZM148.376 40.953C143.937 40.953 143.201 40.447 143.454 38.975C143.707 37.48 144.374 36.859 149.135 36.859C153.712 36.859 154.333 37.457 154.149 38.423L154.057 38.998C153.827 40.332 152.976 40.953 148.376 40.953ZM167.245 43.276C170.557 43.276 172.581 42.494 173.869 40.976L173.547 43H176.376C176.56 41.873 176.698 41.091 176.997 39.32L178.699 29.614C178.998 27.958 179.205 26.762 179.412 25.796H176.33C176.192 26.762 175.778 29.223 175.364 31.569C174.49 30.097 172.581 29.338 169.269 29.338C163.082 29.338 161.357 30.81 160.46 35.962L160.345 36.652C159.448 41.758 161.15 43.276 167.245 43.276ZM168.257 40.562C163.588 40.562 162.829 39.711 163.404 36.399L163.427 36.215C164.025 32.88 165.106 32.052 169.867 32.052C174.375 32.052 175.157 32.972 174.582 36.215L174.536 36.399C173.961 39.619 172.857 40.562 168.257 40.562ZM196.684 39.711C196.454 40.953 196.27 42.011 196.086 43H199.168C199.329 41.988 199.536 40.953 199.766 39.711L200.111 37.71C203.124 34.651 207.885 29.821 211.059 26.67H207.402L202.848 31.224C201.422 32.673 200.065 34.03 198.8 35.387C197.995 34.076 197.121 32.673 196.247 31.27L193.349 26.67H189.968C192.015 29.752 195.005 34.49 197.029 37.733L196.684 39.711ZM215.533 43.276C222.387 43.276 224.112 41.758 225.009 36.652L225.124 35.962C226.021 30.856 224.25 29.338 217.419 29.338C210.565 29.338 208.84 30.856 207.943 35.962L207.828 36.652C206.931 41.758 208.702 43.276 215.533 43.276ZM215.694 40.608C211.002 40.608 210.312 39.734 210.887 36.399L210.91 36.215C211.508 32.857 212.52 32.006 217.235 32.006C221.927 32.006 222.663 32.857 222.042 36.215L222.019 36.399C221.444 39.734 220.409 40.608 215.694 40.608ZM228.247 34.674C227.971 36.192 227.856 36.813 227.672 37.848C226.982 41.689 228.224 43.276 234.043 43.276C237.125 43.276 239.126 42.471 240.414 40.93L240.092 43H242.898C243.036 42.08 243.197 41.229 243.473 39.642L244.6 33.294C244.899 31.546 245.06 30.626 245.267 29.614H242.231C242.093 30.626 241.932 31.523 241.61 33.294L241.081 36.33C240.506 39.596 239.356 40.562 235.262 40.562C230.961 40.562 230.363 39.55 230.869 36.629L231.467 33.248C231.789 31.385 231.904 30.695 232.134 29.614H229.098C228.937 30.741 228.776 31.707 228.5 33.248L228.247 34.674ZM247.299 39.32C247 41.045 246.839 41.988 246.632 43H249.668C249.806 41.988 249.967 41.091 250.289 39.32L250.772 36.514C251.416 32.857 252.497 32.052 256.269 32.052C259.972 32.052 260.34 32.581 259.926 34.95L259.834 35.387L262.732 35.341C262.824 34.812 262.893 34.444 262.985 34.03C263.629 30.327 262.732 29.338 257.741 29.338C254.705 29.338 252.75 30.097 251.485 31.661L251.807 29.614H249.001C248.863 30.511 248.702 31.385 248.426 32.972L247.299 39.32ZM273.605 39.297C273.306 41.022 273.168 41.873 272.938 43H276.043C276.25 41.804 276.342 41.206 276.687 39.274L277.216 36.33H280.965C283.656 36.33 287.451 36.33 289.36 36.353L289.843 33.685H277.676L278.435 29.361H282.989C286.554 29.361 289.521 29.361 291.614 29.384L292.097 26.67H275.813C275.652 27.682 275.537 28.418 275.307 29.614L273.605 39.297ZM295.017 25.957L294.603 28.257H297.639L298.03 25.957H295.017ZM292.717 39.136C292.418 40.815 292.234 41.942 292.004 43H295.04C295.201 41.942 295.408 40.815 295.684 39.159L296.696 33.432C296.972 31.799 297.202 30.58 297.386 29.614H294.373C294.235 30.58 294.005 31.822 293.729 33.432L292.717 39.136ZM299.476 39.32C299.177 41.045 299.016 41.988 298.809 43H301.845C301.983 41.988 302.144 41.091 302.466 39.32L302.949 36.514C303.593 32.857 304.674 32.052 308.446 32.052C312.149 32.052 312.517 32.581 312.103 34.95L312.011 35.387L314.909 35.341C315.001 34.812 315.07 34.444 315.162 34.03C315.806 30.327 314.909 29.338 309.918 29.338C306.882 29.338 304.927 30.097 303.662 31.661L303.984 29.614H301.178C301.04 30.511 300.879 31.385 300.603 32.972L299.476 39.32ZM323.713 43.276C330.475 43.276 331.28 42.425 331.786 39.527C332.269 36.813 331.303 35.571 324.909 35.042C320.194 34.628 319.941 34.145 320.102 33.087C320.24 32.144 320.976 31.707 324.932 31.707C329.049 31.707 329.578 32.19 329.348 33.432L329.279 33.731L332.292 33.662C332.844 30.442 331.671 29.338 325.116 29.338C318.86 29.338 317.756 30.304 317.25 33.156C316.767 35.893 317.756 37.02 323.621 37.48C328.658 37.917 328.957 38.4 328.773 39.55C328.612 40.585 328.083 40.999 323.874 40.999C319.228 40.999 318.699 40.539 318.975 38.952L319.021 38.607L316.077 38.676C315.41 42.517 316.836 43.276 323.713 43.276ZM336.352 34.49C336.122 35.824 335.869 37.158 335.685 38.216C334.995 42.149 336.375 43.115 341.964 43.115C342.907 43.115 343.62 43.069 344.494 43L344.908 40.401C344.011 40.47 343.482 40.493 342.493 40.493C339.066 40.493 338.33 40.148 338.79 37.503L339.733 32.213H346.357L346.817 29.614H340.193C340.4 28.487 340.561 27.613 340.676 26.992L337.64 27.038C337.479 28.073 337.364 28.832 337.203 29.614C336.467 29.614 335.639 29.614 334.788 29.614L334.328 32.213H336.766L336.352 34.49ZM359.815 39.32L360.091 37.756C362.69 37.779 366.692 37.779 368.716 37.779C374.351 37.779 375.777 36.123 376.467 32.213C377.134 28.303 375.639 26.67 370.004 26.67H358.941C358.78 27.636 358.596 28.648 358.366 30.074L356.756 39.297C356.457 40.93 356.273 41.919 356.066 43H359.171C359.355 41.896 359.516 40.953 359.815 39.32ZM369.843 29.338C373.017 29.338 373.661 30.097 373.293 32.213C372.925 34.329 372.005 35.065 368.831 35.065H360.551L361.563 29.338H369.843ZM385.27 43.276C392.124 43.276 393.849 41.758 394.746 36.652L394.861 35.962C395.758 30.856 393.987 29.338 387.156 29.338C380.302 29.338 378.577 30.856 377.68 35.962L377.565 36.652C376.668 41.758 378.439 43.276 385.27 43.276ZM385.431 40.608C380.739 40.608 380.049 39.734 380.624 36.399L380.647 36.215C381.245 32.857 382.257 32.006 386.972 32.006C391.664 32.006 392.4 32.857 391.779 36.215L391.756 36.399C391.181 39.734 390.146 40.608 385.431 40.608ZM397.226 39.32C396.927 41.045 396.766 41.988 396.559 43H399.595C399.733 41.988 399.894 41.091 400.216 39.32L400.699 36.514C401.343 32.857 402.424 32.052 406.196 32.052C409.899 32.052 410.267 32.581 409.853 34.95L409.761 35.387L412.659 35.341C412.751 34.812 412.82 34.444 412.912 34.03C413.556 30.327 412.659 29.338 407.668 29.338C404.632 29.338 402.677 30.097 401.412 31.661L401.734 29.614H398.928C398.79 30.511 398.629 31.385 398.353 32.972L397.226 39.32ZM416.357 34.49C416.127 35.824 415.874 37.158 415.69 38.216C415 42.149 416.38 43.115 421.969 43.115C422.912 43.115 423.625 43.069 424.499 43L424.913 40.401C424.016 40.47 423.487 40.493 422.498 40.493C419.071 40.493 418.335 40.148 418.795 37.503L419.738 32.213H426.362L426.822 29.614H420.198C420.405 28.487 420.566 27.613 420.681 26.992L417.645 27.038C417.484 28.073 417.369 28.832 417.208 29.614C416.472 29.614 415.644 29.614 414.793 29.614L414.333 32.213H416.771L416.357 34.49ZM429.312 35.548C428.99 37.388 428.323 41.183 427.978 43H431.014C431.175 41.942 431.382 40.723 431.635 39.32L432.877 32.213H436.465L436.925 29.614H433.337C433.59 28.441 434.004 28.165 435.062 28.119C435.959 28.05 436.948 28.027 437.5 28.027L437.822 25.658C437.178 25.681 436.005 25.704 434.786 25.796C431.911 25.98 430.83 26.785 430.37 29.545L430.347 29.614H428.116L427.564 32.213H429.887C429.703 33.294 429.496 34.49 429.312 35.548ZM444.387 43.276C451.241 43.276 452.966 41.758 453.863 36.652L453.978 35.962C454.875 30.856 453.104 29.338 446.273 29.338C439.419 29.338 437.694 30.856 436.797 35.962L436.682 36.652C435.785 41.758 437.556 43.276 444.387 43.276ZM444.548 40.608C439.856 40.608 439.166 39.734 439.741 36.399L439.764 36.215C440.362 32.857 441.374 32.006 446.089 32.006C450.781 32.006 451.517 32.857 450.896 36.215L450.873 36.399C450.298 39.734 449.263 40.608 444.548 40.608ZM456.435 39.136C456.136 40.815 455.952 41.942 455.722 43H458.758C458.919 41.942 459.126 40.815 459.402 39.159L461.081 29.637C461.38 28.004 461.587 26.762 461.794 25.796H458.758C458.597 26.785 458.39 28.004 458.114 29.614L456.435 39.136ZM465.586 25.957L465.172 28.257H468.208L468.599 25.957H465.586ZM463.286 39.136C462.987 40.815 462.803 41.942 462.573 43H465.609C465.77 41.942 465.977 40.815 466.253 39.159L467.265 33.432C467.541 31.799 467.771 30.58 467.955 29.614H464.942C464.804 30.58 464.574 31.822 464.298 33.432L463.286 39.136ZM477.427 43.276C484.281 43.276 486.006 41.758 486.903 36.652L487.018 35.962C487.915 30.856 486.144 29.338 479.313 29.338C472.459 29.338 470.734 30.856 469.837 35.962L469.722 36.652C468.825 41.758 470.596 43.276 477.427 43.276ZM477.588 40.608C472.896 40.608 472.206 39.734 472.781 36.399L472.804 36.215C473.402 32.857 474.414 32.006 479.129 32.006C483.821 32.006 484.557 32.857 483.936 36.215L483.913 36.399C483.338 39.734 482.303 40.608 477.588 40.608Z" fill="#0D0E11"/>
</svg>
