<svg width="555" height="67" viewBox="0 0 555 67" fill="none" xmlns="http://www.w3.org/2000/svg">
<rect width="555" height="67" rx="30" fill="#5200FF"/>
<path d="M195.995 43.322C203.953 43.322 205.586 42.011 206.529 36.721C206.644 36.054 206.805 35.088 206.966 34.329H195.029L194.569 36.905H203.493C202.987 39.964 202.09 40.585 196.156 40.585C190.314 40.585 189.463 39.458 190.268 34.95L190.291 34.72C191.073 30.373 192.315 29.131 198.157 29.131C203.93 29.131 204.689 29.821 204.344 32.052L204.321 32.075L207.334 32.029C208.116 27.705 206.23 26.348 198.272 26.348C190.406 26.348 188.336 28.234 187.232 34.467L187.094 35.203C185.99 41.436 188.037 43.322 195.995 43.322ZM216.579 43.276C223.479 43.276 224.744 41.942 225.342 38.561L222.398 38.469C222.122 40.033 221.432 40.769 216.717 40.769C212.278 40.769 211.404 39.987 211.749 37.181H225.572C225.641 36.836 225.733 36.422 225.802 35.962C226.584 31.017 225.02 29.338 218.327 29.338C211.611 29.338 209.817 30.856 208.92 35.962L208.805 36.652C207.931 41.597 209.748 43.276 216.579 43.276ZM218.189 31.638C222.536 31.638 223.226 32.443 222.858 35.042H212.14C212.784 32.351 213.957 31.638 218.189 31.638ZM229.853 34.49C229.623 35.824 229.37 37.158 229.186 38.216C228.496 42.149 229.876 43.115 235.465 43.115C236.408 43.115 237.121 43.069 237.995 43L238.409 40.401C237.512 40.47 236.983 40.493 235.994 40.493C232.567 40.493 231.831 40.148 232.291 37.503L233.234 32.213H239.858L240.318 29.614H233.694C233.901 28.487 234.062 27.613 234.177 26.992L231.141 27.038C230.98 28.073 230.865 28.832 230.704 29.614C229.968 29.614 229.14 29.614 228.289 29.614L227.829 32.213H230.267L229.853 34.49ZM258.929 43.322C266.634 43.322 267.876 42.034 268.52 38.492C269.026 35.318 267.945 33.846 260.332 33.317C254.283 32.926 253.8 32.42 254.053 30.925C254.283 29.522 255.134 28.947 260.125 28.947C265.553 28.947 266.335 29.453 266.036 31.017L265.967 31.477L268.98 31.408L269.026 31.086C269.647 27.682 268.382 26.348 260.401 26.348C252.903 26.348 251.5 27.751 250.902 31.132C250.327 34.421 251.362 35.525 259.067 36.077C265.047 36.537 265.668 37.089 265.415 38.584V38.607C265.139 40.171 264.449 40.7 259.136 40.7C253.087 40.7 252.167 40.309 252.489 38.446L252.581 37.917L249.568 37.986L249.499 38.354C248.786 42.333 250.465 43.322 258.929 43.322ZM273.045 34.49C272.815 35.824 272.562 37.158 272.378 38.216C271.688 42.149 273.068 43.115 278.657 43.115C279.6 43.115 280.313 43.069 281.187 43L281.601 40.401C280.704 40.47 280.175 40.493 279.186 40.493C275.759 40.493 275.023 40.148 275.483 37.503L276.426 32.213H283.05L283.51 29.614H276.886C277.093 28.487 277.254 27.613 277.369 26.992L274.333 27.038C274.172 28.073 274.057 28.832 273.896 29.614C273.16 29.614 272.332 29.614 271.481 29.614L271.021 32.213H273.459L273.045 34.49ZM290.554 43.276C294.234 43.276 296.281 42.563 297.408 41.344L297.155 43H299.869C300.168 41.183 300.375 40.01 300.628 38.63C300.996 36.514 301.157 35.732 301.479 33.915C302.031 30.787 300.766 29.338 293.843 29.338C287.518 29.338 286.046 30.557 285.563 33.593L288.438 33.662C288.668 32.236 289.22 31.776 293.636 31.776C298.167 31.776 298.742 32.42 298.374 34.536L298.098 36.1C297.247 35.203 295.407 34.72 291.98 34.72C286.023 34.72 284.574 35.985 284.022 39.044C283.516 42.057 284.551 43.276 290.554 43.276ZM291.98 40.953C287.541 40.953 286.805 40.447 287.058 38.975C287.311 37.48 287.978 36.859 292.739 36.859C297.316 36.859 297.937 37.457 297.753 38.423L297.661 38.998C297.431 40.332 296.58 40.953 291.98 40.953ZM304.271 39.32C303.972 41.045 303.811 41.988 303.604 43H306.64C306.778 41.988 306.939 41.091 307.261 39.32L307.744 36.514C308.388 32.857 309.469 32.052 313.241 32.052C316.944 32.052 317.312 32.581 316.898 34.95L316.806 35.387L319.704 35.341C319.796 34.812 319.865 34.444 319.957 34.03C320.601 30.327 319.704 29.338 314.713 29.338C311.677 29.338 309.722 30.097 308.457 31.661L308.779 29.614H305.973C305.835 30.511 305.674 31.385 305.398 32.972L304.271 39.32ZM323.403 34.49C323.173 35.824 322.92 37.158 322.736 38.216C322.046 42.149 323.426 43.115 329.015 43.115C329.958 43.115 330.671 43.069 331.545 43L331.959 40.401C331.062 40.47 330.533 40.493 329.544 40.493C326.117 40.493 325.381 40.148 325.841 37.503L326.784 32.213H333.408L333.868 29.614H327.244C327.451 28.487 327.612 27.613 327.727 26.992L324.691 27.038C324.53 28.073 324.415 28.832 324.254 29.614C323.518 29.614 322.69 29.614 321.839 29.614L321.379 32.213H323.817L323.403 34.49ZM342.36 43.276C349.26 43.276 350.525 41.942 351.123 38.561L348.179 38.469C347.903 40.033 347.213 40.769 342.498 40.769C338.059 40.769 337.185 39.987 337.53 37.181H351.353C351.422 36.836 351.514 36.422 351.583 35.962C352.365 31.017 350.801 29.338 344.108 29.338C337.392 29.338 335.598 30.856 334.701 35.962L334.586 36.652C333.712 41.597 335.529 43.276 342.36 43.276ZM343.97 31.638C348.317 31.638 349.007 32.443 348.639 35.042H337.921C338.565 32.351 339.738 31.638 343.97 31.638ZM360.51 43.276C363.822 43.276 365.846 42.494 367.134 40.976L366.812 43H369.641C369.825 41.873 369.963 41.091 370.262 39.32L371.964 29.614C372.263 27.958 372.47 26.762 372.677 25.796H369.595C369.457 26.762 369.043 29.223 368.629 31.569C367.755 30.097 365.846 29.338 362.534 29.338C356.347 29.338 354.622 30.81 353.725 35.962L353.61 36.652C352.713 41.758 354.415 43.276 360.51 43.276ZM361.522 40.562C356.853 40.562 356.094 39.711 356.669 36.399L356.692 36.215C357.29 32.88 358.371 32.052 363.132 32.052C367.64 32.052 368.422 32.972 367.847 36.215L367.801 36.399C367.226 39.619 366.122 40.562 361.522 40.562Z" fill="white"/>
</svg>
