<svg width="24" height="24" viewBox="0 0 24 24" fill="none" xmlns="http://www.w3.org/2000/svg">
<circle cx="12" cy="12" r="12" transform="matrix(-1 0 0 1 24 0)" fill="#5200FF"/>
<path d="M12.606 16.744C15.658 16.744 16.96 15.736 16.96 14.07V13.65C16.96 12.726 16.204 11.788 14.986 11.634C16.204 11.256 16.652 10.486 16.652 9.674V9.492C16.652 7.728 15.49 7 12.438 7C10.954 7 10.002 7.084 8.546 7.336L8.308 8.498C9.862 8.218 11.584 8.092 13.068 8.078C14.664 8.064 15.35 8.652 15.35 9.436V9.618C15.35 10.458 14.496 11.186 12.9 11.186H9.596V12.264H13.068C14.678 12.264 15.658 12.922 15.658 13.748V14C15.658 14.938 14.93 15.68 12.648 15.68C10.898 15.68 9.624 15.484 8 15.218L8.266 16.366C9.736 16.618 11.122 16.744 12.606 16.744Z" fill="white"/>
</svg>
