<svg width="483" height="20" viewBox="0 0 483 20" fill="none" xmlns="http://www.w3.org/2000/svg">
<path d="M9.62279 16.9333C16.9827 16.9333 18.191 15.6444 18.191 12.2667C18.191 9.06667 17.0486 7.77778 9.51294 7.26667C3.66896 6.88889 3.09775 6.4 3.09775 4.95555C3.09775 3.6 3.80078 3.04444 8.56824 3.04444C13.7311 3.04444 14.588 3.53333 14.588 5.04444V5.48889L17.4441 5.42222V5.11111C17.4441 1.82222 16.1918 0.533333 8.56824 0.533333C1.40607 0.533333 0.131819 1.88889 0.131819 5.15556C0.131819 8.44444 1.29622 9.42222 8.76597 9.95556C14.544 10.3778 15.2471 10.9333 15.2471 12.3556V12.3778C15.2471 13.8889 14.6759 14.4 9.60082 14.4C3.82275 14.4 2.87805 14.0222 2.87805 12.2222V11.7111L0 11.7778V12.1333C0 15.9778 1.53789 16.9333 9.62279 16.9333Z" fill="white"/>
<path d="M21.0643 0.155555V2.37778H23.9643V0.155555H21.0643ZM21.0862 12.8889C21.0862 14.5111 21.0862 15.6 21.0643 16.6222H23.9643C23.9423 15.6 23.9423 14.5111 23.9423 12.9111V7.37778C23.9423 5.8 23.9423 4.62222 23.9643 3.68889H21.0643C21.0862 4.62222 21.0862 5.82222 21.0862 7.37778V12.8889Z" fill="white"/>
<path d="M34.3308 15.1778C37.5604 15.1778 39.4058 14.4444 40.3945 13.1111V14.6C40.3505 16.6667 39.6035 17.5778 34.6823 17.5778C30.552 17.5778 29.8709 17.0444 29.8709 15.8889L27.1686 15.9778C27.1686 19.0667 28.4868 20 34.7262 20C41.5369 20 43.2066 18.7111 43.2066 15.0444C43.2066 13.3111 43.1846 12.0222 43.1846 9.95556V6.62222C43.1846 5.46667 43.1846 4.55555 43.2066 3.68889H40.5043L40.4823 5.53333C39.4937 4.15555 37.6263 3.42222 34.3308 3.42222C28.7724 3.42222 26.8171 4.51111 26.8171 9.2V9.4C26.8171 14.1111 28.8823 15.1778 34.3308 15.1778ZM35.0778 12.6667C30.6399 12.6667 29.6952 11.8444 29.6952 9.37778V9.2C29.6952 6.75556 30.8156 5.93333 35.0558 5.93333C39.4498 5.93333 40.3286 6.77778 40.3286 9.2C40.3286 11.6667 39.3619 12.6667 35.0778 12.6667Z" fill="white"/>
<path d="M46.7882 13.0667C46.7882 14.7333 46.7882 15.6444 46.7662 16.6222H49.6663C49.6443 15.6444 49.6443 14.7778 49.6443 13.0667V10.1333C49.6443 6.95556 50.567 6.04445 54.5655 6.04445C58.6959 6.04445 59.4428 7.02222 59.4428 9.82222V13.1111C59.4428 14.9111 59.4428 15.5778 59.4209 16.6222H62.3209C62.2989 15.5333 62.2989 14.6 62.2989 13.1111V11.7333C62.2989 10.2444 62.3209 9.64445 62.3209 8.66667C62.3209 4.95556 61.2444 3.42222 55.642 3.42222C52.3685 3.42222 50.5011 4.2 49.4905 5.71111L49.4685 3.68889H46.7662C46.7882 4.55555 46.7882 5.4 46.7882 6.93333V13.0667Z" fill="white"/>
<path d="M74.0988 8.57778C74.0988 10.0444 74.0768 10.6444 74.0768 11.6444C74.0768 15.3556 75.1533 16.8889 80.7117 16.8889C83.9193 16.8889 85.7867 16.1111 86.7754 14.6L86.8193 16.6222H89.4996C89.4777 15.7333 89.4777 14.9111 89.4777 13.3778V7.24444C89.4777 5.55556 89.4777 4.66667 89.4996 3.68889H86.6216C86.6435 4.66667 86.6436 5.53333 86.6436 7.24444V10.1778C86.6436 13.3333 85.7208 14.2667 81.7882 14.2667C77.6799 14.2667 76.9329 13.2889 76.9329 10.4667V7.2C76.9329 5.4 76.9329 4.73333 76.9548 3.68889H74.0768C74.0988 4.77778 74.0988 5.71111 74.0988 7.2V8.57778Z" fill="white"/>
<path d="M93.0879 16.6222C93.0879 17.9556 93.0879 19.0667 93.0659 19.7333H95.9879C95.966 18.8444 95.966 17.1778 95.966 14.8222C96.9986 16.2 98.8221 16.8889 101.92 16.8889C107.852 16.8889 109.455 15.4667 109.455 10.4889V9.82222C109.455 4.84444 107.874 3.42222 102.03 3.42222C98.7342 3.42222 96.8448 4.17778 95.8342 5.64444V3.68889H93.0659C93.0879 4.62222 93.0879 5.44444 93.0879 6.51111V16.6222ZM95.944 10.2444V10.0667C95.944 6.95556 96.8228 6.04445 101.239 6.04445C105.699 6.04445 106.577 6.84445 106.577 10.0667V10.2444C106.577 13.4444 105.699 14.2667 101.129 14.2667C96.8228 14.2667 95.944 13.3778 95.944 10.2444Z" fill="white"/>
<path d="M130.194 10.6889C130.677 9.33333 131.183 7.95556 131.666 6.68889H132.369C132.786 7.97778 133.248 9.4 133.665 10.7333L135.62 16.6222H140.08C141.245 13.4667 143.815 6.71111 145.068 3.68889H142.014L140.058 9.26667C139.509 10.8222 138.96 12.4222 138.455 13.8667H137.532C137.092 12.5333 136.609 11.0222 136.126 9.55556L134.149 3.68889H129.996L127.931 9.51111C127.404 10.9778 126.855 12.4889 126.393 13.8667H125.426C124.987 12.4667 124.482 10.8889 123.998 9.37778L122.131 3.68889H118.923C120.066 6.66667 122.461 13.4667 123.515 16.6222H127.975L130.194 10.6889Z" fill="white"/>
<path d="M147.026 0.155555V2.37778H149.926V0.155555H147.026ZM147.048 12.8889C147.048 14.5111 147.048 15.6 147.026 16.6222H149.926C149.904 15.6 149.904 14.5111 149.904 12.9111V7.37778C149.904 5.8 149.904 4.62222 149.926 3.68889H147.026C147.048 4.62222 147.048 5.82222 147.048 7.37778V12.8889Z" fill="white"/>
<path d="M154.361 8.4C154.361 9.68889 154.339 10.9778 154.339 12C154.339 15.8 155.591 16.7333 160.996 16.7333C161.896 16.7333 162.753 16.6889 163.566 16.6222L163.544 14.1111C162.665 14.1778 162.204 14.2 161.237 14.2C157.964 14.2 157.217 13.8667 157.217 11.3111V6.2H163.544V3.68889H157.217C157.217 2.57778 157.217 1.73333 157.239 1.15556L154.339 1.2C154.361 2.2 154.361 2.91111 154.361 3.68889C153.658 3.68889 152.867 3.68889 152.054 3.68889V6.2H154.361V8.4Z" fill="white"/>
<path d="M166.185 12.8889C166.185 14.6 166.185 15.5111 166.163 16.6222H169.041C169.019 15.4222 169.019 14.4667 169.019 12.8444V10.1333C169.019 6.95556 169.942 6.04445 173.941 6.04445C178.093 6.04445 178.84 7.02222 178.84 9.82222V13.1111C178.84 14.6889 178.84 15.4667 178.818 16.6222H181.696C181.674 15.3556 181.674 14.3111 181.674 13.1556V11.7333C181.674 10.2444 181.696 9.64445 181.696 8.66667C181.696 4.95556 180.62 3.42222 175.017 3.42222C171.832 3.42222 169.964 4.15556 168.954 5.62222C168.997 4.11111 169.063 0.4 169.063 0H166.163C166.185 0.955555 166.185 2.11111 166.185 3.68889V12.8889Z" fill="white"/>
<path d="M202.547 16.7556C204.173 13.5111 207.557 6.71111 209.138 3.68889H206.063L203.426 8.91111C202.811 10.1556 202.196 11.4222 201.647 12.5778H200.438C199.757 11.4 198.966 10.1333 198.219 8.86667L195.1 3.68889H191.87C193.782 6.73333 197.033 12.1778 198.681 15.0222H200.394L200.065 15.6222C199.34 17 198.835 17.2889 197.494 17.2889C196.66 17.2889 195.891 17.2667 194.99 17.2222L194.946 19.6667C195.847 19.7556 196.945 19.8 197.582 19.8C200.241 19.8 201.383 19.0667 202.547 16.7556Z" fill="white"/>
<path d="M217.958 16.8889C224.505 16.8889 226.175 15.4222 226.175 10.4889V9.82222C226.175 4.88889 224.505 3.42222 217.958 3.42222C211.433 3.42222 209.763 4.88889 209.763 9.82222V10.4889C209.763 15.4222 211.433 16.8889 217.958 16.8889ZM217.958 14.3111C213.476 14.3111 212.641 13.4667 212.641 10.2444V10.0667C212.641 6.82222 213.476 6 217.958 6C222.462 6 223.275 6.82222 223.275 10.0667V10.2444C223.275 13.4667 222.462 14.3111 217.958 14.3111Z" fill="white"/>
<path d="M228.939 8.57778C228.939 10.0444 228.917 10.6444 228.917 11.6444C228.917 15.3556 229.993 16.8889 235.552 16.8889C238.759 16.8889 240.627 16.1111 241.616 14.6L241.659 16.6222H244.34C244.318 15.7333 244.318 14.9111 244.318 13.3778V7.24444C244.318 5.55556 244.318 4.66667 244.34 3.68889H241.462C241.484 4.66667 241.484 5.53333 241.484 7.24444V10.1778C241.484 13.3333 240.561 14.2667 236.628 14.2667C232.52 14.2667 231.773 13.2889 231.773 10.4667V7.2C231.773 5.4 231.773 4.73333 231.795 3.68889H228.917C228.939 4.77778 228.939 5.71111 228.939 7.2V8.57778Z" fill="white"/>
<path d="M247.928 13.0667C247.928 14.7333 247.928 15.6444 247.906 16.6222H250.806C250.784 15.6444 250.784 14.7778 250.784 13.0667V10.3556C250.784 6.82222 251.663 6.04445 255.266 6.04445C258.803 6.04445 259.243 6.55556 259.243 8.84444V9.26667L261.989 9.22222C262.011 8.71111 262.011 8.35556 262.011 7.95556C262.011 4.37778 260.978 3.42222 256.233 3.42222C253.333 3.42222 251.575 4.17778 250.63 5.66667L250.608 3.68889H247.906C247.928 4.55555 247.928 5.4 247.928 6.93333V13.0667Z" fill="white"/>
<path d="M273.056 13.0444C273.056 14.7111 273.056 15.5556 273.034 16.6222H289.292V14.0444C287.204 14.0667 282.086 14.0667 279.185 14.0667H275.978V9.82222H279.889C282.305 9.82222 284.173 9.82222 287.951 9.84444V7.33333H275.978V3.4H278.439C281.185 3.4 285.315 3.4 288.852 3.42222V0.844444H273.034C273.056 1.82222 273.056 2.53333 273.056 3.68889V13.0444Z" fill="white"/>
<path d="M292.061 13.0667C292.061 14.7333 292.061 15.6444 292.039 16.6222H294.939C294.917 15.6444 294.917 14.7778 294.917 13.0667V10.1333C294.917 6.95556 295.818 6.04445 299.003 6.04445C301.837 6.04445 302.606 6.73333 302.606 9.02222V13.1333C302.606 14.8 302.606 15.5111 302.584 16.6222H305.462C305.44 15.2667 305.44 14.2667 305.44 13.0667V10.1333C305.44 6.95556 306.407 6.04445 309.549 6.04445C312.383 6.04445 313.152 6.73333 313.152 9.02222V13.1111C313.152 14.8 313.152 15.5111 313.13 16.6222H316.03C316.008 15.2889 316.008 14.2889 316.008 13.1111V11.9111C316.008 9.91111 316.03 8.84444 316.03 7.84444C316.03 4.66667 314.953 3.42222 310.647 3.42222C307.813 3.42222 306.165 4.22222 305.287 5.8C304.759 4.11111 303.353 3.42222 300.19 3.42222C297.378 3.42222 295.686 4.17778 294.763 5.75556L294.741 3.68889H292.039C292.061 4.55555 292.061 5.4 292.061 6.93333V13.0667Z" fill="white"/>
<path d="M325.915 16.8889C329.452 16.8889 331.298 16.2 332.177 15.0222L332.221 16.6222H334.813C334.791 14.8667 334.791 13.7333 334.791 12.4C334.791 10.3556 334.813 9.6 334.813 7.84444C334.813 4.82222 333.627 3.42222 327.014 3.42222C320.972 3.42222 319.522 4.6 319.566 7.53333L322.312 7.6C322.29 6.22222 322.752 5.77778 326.97 5.77778C331.298 5.77778 331.957 6.4 331.957 8.44444V9.93333C330.99 9.06667 329.167 8.62222 325.915 8.62222C320.225 8.62222 319.017 9.84445 319.017 12.8C319.017 15.7111 320.181 16.8889 325.915 16.8889ZM326.926 14.6444C322.686 14.6444 321.895 14.1556 321.895 12.7333C321.895 11.2889 322.422 10.6889 326.97 10.6889C331.342 10.6889 332.023 11.2667 332.023 12.2V12.7556C332.023 14.0444 331.342 14.6444 326.926 14.6444Z" fill="white"/>
<path d="M338.425 0.155555V2.37778H341.325V0.155555H338.425ZM338.447 12.8889C338.447 14.5111 338.447 15.6 338.425 16.6222H341.325C341.303 15.6 341.303 14.5111 341.303 12.9111V7.37778C341.303 5.8 341.303 4.62222 341.325 3.68889H338.425C338.447 4.62222 338.447 5.82222 338.447 7.37778V12.8889Z" fill="white"/>
<path d="M344.991 12.8889C344.991 14.5111 344.991 15.6 344.969 16.6222H347.869C347.847 15.6 347.847 14.5111 347.847 12.9111V3.71111C347.847 2.13333 347.847 0.933333 347.869 0H344.969C344.991 0.955555 344.991 2.13333 344.991 3.68889V12.8889Z" fill="white"/>
<path d="M366.143 16.8889C369.68 16.8889 371.526 16.2 372.405 15.0222L372.449 16.6222H375.041C375.019 14.8667 375.019 13.7333 375.019 12.4C375.019 10.3556 375.041 9.6 375.041 7.84444C375.041 4.82222 373.855 3.42222 367.242 3.42222C361.2 3.42222 359.75 4.6 359.794 7.53333L362.54 7.6C362.518 6.22222 362.98 5.77778 367.198 5.77778C371.526 5.77778 372.185 6.4 372.185 8.44444V9.93333C371.218 9.06667 369.395 8.62222 366.143 8.62222C360.453 8.62222 359.245 9.84445 359.245 12.8C359.245 15.7111 360.409 16.8889 366.143 16.8889ZM367.154 14.6444C362.914 14.6444 362.123 14.1556 362.123 12.7333C362.123 11.2889 362.65 10.6889 367.198 10.6889C371.57 10.6889 372.251 11.2667 372.251 12.2V12.7556C372.251 14.0444 371.57 14.6444 367.154 14.6444Z" fill="white"/>
<path d="M385.31 16.8889C388.628 16.8889 390.517 16.1111 391.528 14.6L391.55 16.6222H394.252C394.23 15.5333 394.23 14.7778 394.23 13.0667V3.68889C394.23 2.08889 394.23 0.933333 394.252 0H391.308C391.33 0.911111 391.352 3.22222 391.352 5.48889C390.319 4.11111 388.474 3.42222 385.376 3.42222C379.466 3.42222 377.862 4.84444 377.862 9.82222V10.4889C377.862 15.4667 379.466 16.8889 385.31 16.8889ZM386.101 14.2667C381.619 14.2667 380.741 13.4667 380.741 10.2444V10.0667C380.741 6.8 381.619 6 386.167 6C390.495 6 391.374 6.88889 391.374 10.0667V10.2444C391.374 13.3556 390.495 14.2667 386.101 14.2667Z" fill="white"/>
<path d="M404.512 16.8889C407.83 16.8889 409.719 16.1111 410.73 14.6L410.752 16.6222H413.454C413.432 15.5333 413.432 14.7778 413.432 13.0667V3.68889C413.432 2.08889 413.432 0.933333 413.454 0H410.51C410.532 0.911111 410.554 3.22222 410.554 5.48889C409.522 4.11111 407.676 3.42222 404.578 3.42222C398.668 3.42222 397.065 4.84444 397.065 9.82222V10.4889C397.065 15.4667 398.668 16.8889 404.512 16.8889ZM405.303 14.2667C400.821 14.2667 399.943 13.4667 399.943 10.2444V10.0667C399.943 6.8 400.822 6 405.369 6C409.697 6 410.576 6.88889 410.576 10.0667V10.2444C410.576 13.3556 409.697 14.2667 405.303 14.2667Z" fill="white"/>
<path d="M417.036 13.0667C417.036 14.7333 417.036 15.6444 417.014 16.6222H419.914C419.892 15.6444 419.892 14.7778 419.892 13.0667V10.3556C419.892 6.82222 420.771 6.04445 424.374 6.04445C427.911 6.04445 428.35 6.55556 428.35 8.84444V9.26667L431.096 9.22222C431.118 8.71111 431.118 8.35556 431.118 7.95556C431.118 4.37778 430.086 3.42222 425.34 3.42222C422.44 3.42222 420.683 4.17778 419.738 5.66667L419.716 3.68889H417.014C417.036 4.55555 417.036 5.4 417.036 6.93333V13.0667Z" fill="white"/>
<path d="M441.155 16.8889C447.723 16.8889 449.02 15.6 449.02 12.3333L446.23 12.2444C446.23 13.7556 445.658 14.4667 441.176 14.4667C436.914 14.4667 435.948 13.7111 435.816 11H449.02C449.02 10.6667 449.042 10.2667 449.02 9.82222C448.998 4.88889 447.438 3.42222 441.023 3.42222C434.629 3.42222 432.916 4.88889 432.916 9.82222V10.4889C432.916 15.4222 434.629 16.8889 441.155 16.8889ZM441.045 5.64444C445.175 5.64444 445.988 6.42222 446.054 8.93333H435.816C435.992 6.33333 437.002 5.64444 441.045 5.64444Z" fill="white"/>
<path d="M458.712 16.8889C465.171 16.8889 466.094 15.8222 466.094 13.0222C466.094 10.4222 465.259 9.35556 458.778 8.86667C454.186 8.48889 453.878 8.15556 453.878 7.15556C453.878 6.13333 454.471 5.71111 458.228 5.71111C462.183 5.71111 462.754 6.17778 462.754 7.37778V7.66667L465.588 7.6C465.588 4.48889 464.578 3.42222 458.316 3.42222C452.34 3.42222 451.132 4.55556 451.132 7.31111C451.132 9.97778 452.121 10.8667 457.965 11.3333C462.842 11.7111 463.215 12.0889 463.215 13.2C463.215 14.2667 462.82 14.6889 458.778 14.6889C454.34 14.6889 453.768 14.2444 453.768 12.7111V12.3778L450.956 12.4444C450.956 16.1556 452.143 16.8889 458.712 16.8889Z" fill="white"/>
<path d="M475.618 16.8889C482.077 16.8889 483 15.8222 483 13.0222C483 10.4222 482.165 9.35556 475.684 8.86667C471.092 8.48889 470.785 8.15556 470.785 7.15556C470.785 6.13333 471.378 5.71111 475.135 5.71111C479.089 5.71111 479.661 6.17778 479.661 7.37778V7.66667L482.495 7.6C482.495 4.48889 481.484 3.42222 475.223 3.42222C469.247 3.42222 468.039 4.55556 468.039 7.31111C468.039 9.97778 469.027 10.8667 474.871 11.3333C479.748 11.7111 480.122 12.0889 480.122 13.2C480.122 14.2667 479.727 14.6889 475.684 14.6889C471.246 14.6889 470.675 14.2444 470.675 12.7111V12.3778L467.863 12.4444C467.863 16.1556 469.049 16.8889 475.618 16.8889Z" fill="white"/>
</svg>
