<svg width="1920" height="715" viewBox="0 0 1920 715" fill="none" xmlns="http://www.w3.org/2000/svg">
<g clip-path="url(#clip0_938_1995)">
<g opacity="0.15">
<path d="M1595.68 235.632C1566.74 237.052 1541.54 203 1539.4 159.579C1541.54 203 1519.81 239.355 1490.87 240.776C1519.81 239.355 1545 273.408 1547.14 316.829C1545 273.408 1566.74 237.052 1595.68 235.632Z" fill="#E965FF"/>
<path d="M1562.1 483.544L1678.16 273.991C1686.98 258.07 1707.04 252.313 1722.96 261.133L1932.54 377.214C1948.46 386.034 1954.22 406.09 1945.4 422.011L1829.34 631.564C1820.52 647.485 1800.47 653.242 1784.54 644.423L1574.97 528.341C1559.04 519.522 1553.28 499.465 1562.1 483.544Z" fill="#141517" stroke="url(#paint0_linear_938_1995)" stroke-width="3.12643"/>
<path d="M1692.01 582.943C1635.53 547.178 1596.58 537.143 1568.49 509.524L1710.94 467.897L1721.53 478.48C1722.84 479.794 1724.33 480.919 1725.96 481.821L1743.7 491.685L1692.01 582.943Z" fill="url(#paint1_linear_938_1995)"/>
<path d="M1817.58 324.137C1881.73 359.669 1907.39 370.936 1936.3 394.014L1782.94 446.684L1763.44 412.918L1817.58 324.137Z" fill="url(#paint2_linear_938_1995)"/>
<path d="M1705.27 473.551C1700.77 471.057 1699.14 465.385 1701.63 460.882L1732.97 404.303C1735.47 399.8 1741.14 398.172 1745.64 400.666L1802.23 432.008C1806.73 434.503 1808.36 440.175 1805.86 444.677L1774.53 501.257C1772.03 505.759 1766.36 507.387 1761.86 504.893L1705.27 473.551Z" fill="url(#paint3_linear_938_1995)"/>
<path d="M1329.66 390.187L767.82 584.614L752.627 489.162L1319.64 292.945L1329.66 390.187Z" fill="url(#paint4_linear_938_1995)" stroke="url(#paint5_linear_938_1995)" stroke-width="2.57571"/>
<path d="M1183.79 334.736L621.953 529.163L606.76 433.711L1173.77 237.494L1183.79 334.736Z" fill="url(#paint6_linear_938_1995)" stroke="url(#paint7_linear_938_1995)" stroke-width="2.57571"/>
<path d="M848.966 523.311L848.026 517.281C844.321 518.615 837.019 521.142 832.089 522.848L821.438 526.534L817.82 503.876C817.339 501.282 817.037 499.355 816.798 497.458L810.519 499.631C810.851 501.495 811.153 503.422 811.588 506.033L814.92 526.81C815.458 530.323 815.808 532.389 816.13 534.674L848.966 523.311Z" fill="white"/>
<path d="M848.673 484.813L849.445 489.755L855.584 487.63L854.766 482.704L848.673 484.813ZM853.242 513.08C853.812 516.685 854.228 519.094 854.503 521.395L860.642 519.27C860.228 517.018 859.858 514.593 859.258 511.05L857.297 498.758C856.713 495.262 856.325 492.635 856.022 490.552L849.929 492.661C850.326 494.711 850.729 497.384 851.298 500.834L853.242 513.08Z" fill="white"/>
<path d="M867.038 508.723C867.64 512.421 867.974 514.441 868.263 516.633L874.403 514.509C873.974 512.365 873.672 510.438 873.084 506.63L872.03 500.119C870.938 493.048 872.511 490.368 879.255 488.034C885.254 485.958 887.102 486.933 887.922 492.015L889.411 501.137C889.966 504.851 890.249 506.42 890.588 508.907L896.681 506.799C896.165 503.8 895.859 501.562 895.362 498.921L894.355 492.393C893.216 485.338 894.929 482.61 901.58 480.308C907.579 478.232 909.474 479.192 910.294 484.273L911.72 493.364C912.338 497.109 912.62 498.679 912.913 501.182L919.052 499.057C918.552 496.105 918.2 493.883 917.766 491.272L917.316 488.615C916.612 484.17 916.304 481.776 915.906 479.57C914.814 472.499 911.448 470.747 902.332 473.901C896.425 475.945 893.407 478.813 892.301 482.842C890.396 479.594 886.798 479.277 880.193 481.563C874.426 483.558 871.406 486.27 870.126 490.099L869.363 485.935L863.689 487.899C864.037 489.81 864.323 491.69 864.875 495.094L867.038 508.723Z" fill="white"/>
<path d="M920.755 459.869L921.526 464.811L927.666 462.686L926.847 457.76L920.755 459.869ZM925.323 488.136C925.893 491.741 926.31 494.15 926.585 496.451L932.724 494.326C932.31 492.073 931.94 489.649 931.339 486.106L929.379 473.814C928.795 470.318 928.407 467.691 928.103 465.608L922.011 467.717C922.407 469.767 922.811 472.44 923.379 475.89L925.323 488.136Z" fill="white"/>
<path d="M939.182 472.818C939.65 475.677 940.072 478.552 940.44 480.821C941.796 489.259 945.263 490.248 956.565 486.337C958.471 485.677 959.881 485.085 961.6 484.334L960.619 478.787C958.854 479.554 957.8 479.971 955.8 480.663C948.87 483.061 947.14 482.878 946.22 477.206L944.426 465.846L957.821 461.211L956.933 455.632L943.538 460.267C943.168 457.842 942.882 455.962 942.68 454.625L936.573 456.843C936.972 459.049 937.27 460.665 937.492 462.359C936.003 462.874 934.329 463.454 932.608 464.049L933.496 469.628L938.426 467.922L939.182 472.818Z" fill="white"/>
<path d="M965.884 474.1C966.454 477.705 966.87 480.114 967.145 482.415L973.284 480.29C972.87 478.037 972.5 475.613 971.9 472.07L968.633 451.635C968.095 448.122 967.645 445.465 967.388 443.366L961.249 445.491C961.615 447.604 962.049 450.215 962.617 453.664L965.884 474.1Z" fill="white"/>
<path d="M997.516 472.53C1011.47 467.701 1013.09 464.118 1011.94 456.86L1005.92 458.734C1006.46 462.091 1005.58 464.063 996.042 467.362C987.065 470.468 984.751 469.498 983.485 463.581L1011.44 453.908C1011.34 453.162 1011.23 452.26 1011.05 451.281C1009.17 440.732 1004.83 438.43 991.3 443.114C977.719 447.813 975.153 452.139 976.912 463.095L977.162 464.571C978.854 475.185 983.703 477.31 997.516 472.53ZM992.63 447.862C1001.42 444.82 1003.38 445.966 1004.45 451.481L982.779 458.981C982.199 453.087 984.072 450.824 992.63 447.862Z" fill="white"/>
<path d="M1034.69 459.667C1048.36 454.935 1049.39 452.651 1048.39 446.435C1047.47 440.607 1044.64 438.771 1031.34 442.175C1021.52 444.637 1020.67 443.837 1020.25 441.585C1019.87 439.581 1021.06 438.182 1029.06 435.413C1037.38 432.532 1038.79 433.139 1039.19 435.812L1039.26 436.465L1045.31 434.217C1044.17 427.318 1041.03 425.906 1027.77 430.493C1015.12 434.871 1013.56 437.597 1014.54 443.72C1015.47 449.594 1018.26 451.182 1030.44 448.008C1040.94 445.367 1041.88 446.135 1042.31 448.59C1042.71 450.796 1041.93 452.004 1033.42 454.949C1024.02 458.2 1022.63 457.64 1022.08 454.237L1021.93 453.507L1016.03 455.706C1017.36 463.942 1020.78 464.48 1034.69 459.667Z" fill="white"/>
<path d="M1070.57 447.25C1084.24 442.518 1085.27 440.234 1084.27 434.018C1083.35 428.19 1080.52 426.354 1067.22 429.758C1057.4 432.22 1056.55 431.42 1056.14 429.168C1055.76 427.164 1056.94 425.765 1064.94 422.996C1073.26 420.115 1074.67 420.722 1075.08 423.395L1075.14 424.048L1081.19 421.8C1080.05 414.901 1076.91 413.489 1063.65 418.076C1051 422.453 1049.45 425.18 1050.42 431.303C1051.36 437.177 1054.14 438.765 1066.33 435.591C1076.82 432.95 1077.76 433.718 1078.19 436.173C1078.59 438.379 1077.81 439.586 1069.3 442.532C1059.9 445.783 1058.51 445.223 1057.96 441.82L1057.81 441.09L1051.91 443.289C1053.25 451.525 1056.66 452.063 1070.57 447.25Z" fill="white"/>
<path d="M1107.55 414.552C1108.02 417.411 1108.44 420.286 1108.81 422.555C1110.17 430.994 1113.64 431.982 1124.94 428.071C1126.84 427.411 1128.25 426.819 1129.97 426.068L1128.99 420.521C1127.23 421.288 1126.17 421.705 1124.17 422.397C1117.24 424.795 1115.51 424.612 1114.59 418.94L1112.8 407.58L1126.19 402.945L1125.31 397.366L1111.91 402.001C1111.54 399.577 1111.25 397.696 1111.05 396.359L1104.95 398.577C1105.34 400.783 1105.64 402.399 1105.86 404.093C1104.38 404.608 1102.7 405.188 1100.98 405.783L1101.87 411.362L1106.8 409.656L1107.55 414.552Z" fill="white"/>
<path d="M1134.2 416.271C1134.8 419.969 1135.14 421.989 1135.42 424.181L1141.56 422.056C1141.14 419.913 1140.83 417.986 1140.25 414.178L1139.26 408.164C1138 400.317 1139.63 397.932 1147.25 395.292C1154.74 392.701 1155.86 393.513 1156.68 398.595L1156.8 399.543L1162.62 397.422C1162.44 396.288 1162.32 395.495 1162.22 394.593C1160.93 386.653 1158.42 385.28 1148.33 388.772C1142.19 390.897 1138.77 393.8 1137.31 397.849L1136.52 393.483L1130.85 395.447C1131.2 397.358 1131.48 399.238 1132.04 402.642L1134.2 416.271Z" fill="white"/>
<path d="M1183.67 408.11C1191.11 405.535 1194.75 402.661 1196.18 399.406L1196.83 402.933L1202.31 401.034C1201.65 397.149 1201.25 394.632 1200.79 391.663C1200.06 387.126 1199.83 385.431 1199.21 381.53C1198.14 374.817 1194.57 372.771 1180.57 377.616C1167.78 382.042 1165.66 385.538 1166.8 392.017L1172.67 390.145C1172.13 387.099 1172.93 385.783 1181.86 382.692C1191.02 379.522 1192.63 380.422 1193.37 384.959L1193.91 388.316C1191.56 387.097 1187.5 387.408 1180.57 389.806C1168.52 393.975 1166.48 397.547 1167.5 404.121C1168.59 410.57 1171.53 412.311 1183.67 408.11ZM1184.93 402.414C1175.95 405.52 1174.11 405.012 1173.59 401.857C1173.06 398.656 1173.97 396.933 1183.6 393.602C1192.86 390.399 1194.53 391.174 1194.83 393.256L1195.05 394.484C1195.52 397.343 1194.23 399.195 1184.93 402.414Z" fill="white"/>
<path d="M1226.25 393.377C1239.92 388.645 1241.93 384.512 1240.55 375.716L1234.55 377.636C1235.3 382.221 1233.82 384.713 1224.66 387.883C1215.31 391.119 1213.3 389.834 1212.13 382.685L1212.05 382.297C1210.91 375.086 1212.36 372.657 1221.71 369.422C1230.87 366.251 1232.85 367.599 1233.59 372.136L1233.57 372.09L1239.52 369.874C1238.11 360.829 1233.84 359.18 1220.17 363.912C1206.68 368.58 1204.12 372.906 1205.87 383.862L1206.12 385.338C1207.88 396.294 1212.81 398.028 1226.25 393.377Z" fill="white"/>
<path d="M1247.03 376.807C1247.6 380.412 1248.02 382.82 1248.3 385.121L1254.44 382.997C1254.02 380.744 1253.65 378.32 1253.05 374.777L1252.51 371.265L1259.44 368.866C1261.04 369.72 1262.86 370.603 1264.72 371.469L1274.43 376.076L1282.02 373.453L1282.08 373.327C1277.29 371.077 1268.96 367.031 1263.63 364.398C1267.54 358.562 1273.35 350.043 1276.87 345.021L1276.74 344.96L1268.98 347.648L1262.84 356.545C1261.23 358.82 1259.64 361.142 1258.23 363.244L1251.58 365.546L1249.78 354.342C1249.25 350.829 1248.8 348.172 1248.54 346.073L1242.4 348.198C1242.77 350.311 1243.2 352.922 1243.77 356.371L1247.03 376.807Z" fill="white"/>
<path d="M661.589 474.004C662.093 477.268 662.395 479.195 662.783 481.822L682.317 475.062C698.596 469.428 701.199 464.308 699.105 451.177L698.987 450.384C696.853 437.891 691.45 434.916 675.218 440.534L657.172 446.778C657.57 448.985 657.822 450.616 658.241 453.181L661.589 474.004ZM676.931 446.088C688.744 442 691.237 443.637 692.71 452.712L692.778 453.21C694.204 462.301 692.511 465.387 680.651 469.492L668.093 473.837L664.326 450.449L676.931 446.088Z" fill="white"/>
<path d="M702.32 429.54L703.092 434.482L709.232 432.357L708.413 427.431L702.32 429.54ZM706.889 457.807C707.459 461.412 707.876 463.821 708.151 466.122L714.29 463.997C713.876 461.745 713.506 459.32 712.905 455.777L710.945 443.485C710.361 439.989 709.973 437.362 709.669 435.279L703.577 437.388C703.973 439.438 704.377 442.111 704.945 445.561L706.889 457.807Z" fill="white"/>
<path d="M737.22 456.687C750.894 451.955 751.926 449.671 750.922 443.455C750 437.627 747.178 435.791 733.878 439.195C724.054 441.657 723.204 440.857 722.79 438.605C722.409 436.601 723.591 435.202 731.591 432.433C739.917 429.552 741.324 430.159 741.728 432.832L741.798 433.485L747.842 431.237C746.706 424.338 743.561 422.926 730.306 427.513C717.655 431.891 716.099 434.617 717.071 440.74C718.009 446.614 720.797 448.202 732.979 445.028C743.47 442.387 744.413 443.155 744.845 445.61C745.244 447.816 744.464 449.024 735.952 451.969C726.557 455.22 725.166 454.66 724.614 451.257L724.465 450.527L718.56 452.726C719.899 460.962 723.313 461.5 737.22 456.687Z" fill="white"/>
<path d="M774.172 443.9C787.846 439.168 789.853 435.035 788.477 426.239L782.476 428.16C783.228 432.744 781.747 435.236 772.584 438.407C763.236 441.642 761.229 440.357 760.058 433.209L759.976 432.821C758.836 425.61 760.287 423.18 769.636 419.945C778.798 416.774 780.775 418.122 781.511 422.66L781.495 422.613L787.446 420.397C786.037 411.352 781.769 409.704 768.095 414.436C754.607 419.103 752.041 423.429 753.799 434.385L754.049 435.861C755.808 446.817 760.73 448.552 774.172 443.9Z" fill="white"/>
<path d="M812.599 430.602C826.459 425.806 828.885 421.528 827.127 410.572L826.877 409.096C825.119 398.14 820.476 396.309 806.662 401.089C792.802 405.886 790.376 410.163 792.134 421.119L792.384 422.595C794.142 433.551 798.786 435.382 812.599 430.602ZM811.058 425.093C801.57 428.376 799.563 427.091 798.393 419.943L798.311 419.555C797.171 412.344 798.622 409.914 808.156 406.615C817.645 403.332 819.728 404.538 820.822 411.765L820.904 412.153C822.074 419.301 820.593 421.793 811.058 425.093Z" fill="white"/>
<path d="M853.959 415.664C855.999 407.561 860.41 390.199 862.5 382.392L855.57 384.79L852.058 399.028C851.031 403.134 850.066 407.271 849.266 410.829L845.964 411.972C844.159 409.315 841.992 406.21 839.856 403.198L832.455 392.789L826.036 395.01C830.224 400.645 839.776 413.957 843.54 419.27L853.959 415.664Z" fill="white"/>
<path d="M886.637 404.981C900.59 400.152 902.215 396.569 901.059 389.312L895.041 391.186C895.577 394.542 894.697 396.514 885.162 399.813C876.186 402.92 873.872 401.95 872.606 396.032L900.559 386.359C900.457 385.613 900.353 384.711 900.171 383.733C898.293 373.183 893.956 370.881 880.421 375.565C866.84 380.265 864.274 384.591 866.033 395.546L866.283 397.023C867.975 407.637 872.824 409.761 886.637 404.981ZM881.751 380.314C890.542 377.272 892.5 378.417 893.574 383.932L871.9 391.432C871.32 385.538 873.193 383.275 881.751 380.314Z" fill="white"/>
<path d="M907.271 388.881C907.873 392.579 908.208 394.599 908.497 396.791L914.636 394.667C914.207 392.523 913.905 390.596 913.318 386.789L912.331 380.775C911.075 372.927 912.698 370.542 920.326 367.903C927.814 365.311 928.928 366.124 929.748 371.205L929.868 372.154L935.696 370.033C935.512 368.898 935.394 368.106 935.29 367.204C934.002 359.263 931.496 357.89 921.404 361.383C915.264 363.507 911.842 366.411 910.378 370.459L909.597 366.094L903.923 368.057C904.271 369.968 904.557 371.849 905.109 375.252L907.271 388.881Z" fill="white"/>
<path d="M980.486 372.192C982.788 363.79 987.538 346.206 989.769 338.35L983.025 340.684L979.318 354.208C978.405 357.441 977.555 360.704 976.81 363.671L974.299 364.54C972.423 362.428 970.327 360.132 968.309 357.913L959.863 348.699L953.258 350.985C958.346 356.36 967.172 366.068 971.697 371.17L975.045 370.011L974.596 371.573C973.61 375.196 972.78 376.109 969.989 377.074C968.175 377.702 966.578 378.203 964.685 378.754L965.432 384.225C967.357 383.768 969.714 383.056 971.063 382.589C976.691 380.642 978.858 378.173 980.486 372.192Z" fill="white"/>
<path d="M1013.77 360.988C1027.63 356.192 1030.05 351.914 1028.29 340.958L1028.04 339.482C1026.28 328.526 1021.64 326.695 1007.83 331.475C993.968 336.272 991.542 340.549 993.3 351.505L993.55 352.981C995.308 363.937 999.952 365.768 1013.77 360.988ZM1012.22 355.479C1002.74 358.762 1000.73 357.477 999.559 350.329L999.477 349.941C998.337 342.73 999.788 340.3 1009.32 337.001C1018.81 333.717 1020.89 334.924 1021.99 342.151L1022.07 342.539C1023.24 349.687 1021.76 352.179 1012.22 355.479Z" fill="white"/>
<path d="M1033.46 334.691C1033.96 337.954 1034.16 339.291 1034.52 341.513C1035.81 349.765 1039.43 352.106 1051.2 348.034C1057.43 345.878 1060.91 342.849 1062.44 338.831L1063.24 343.243L1068.91 341.28C1068.55 339.322 1068.28 337.488 1067.72 334.085L1065.56 320.456C1064.94 316.711 1064.63 314.737 1064.34 312.545L1058.2 314.67C1058.63 316.814 1058.93 318.741 1059.52 322.548L1060.57 329.059C1061.69 336.068 1060.04 338.827 1051.76 341.692C1043.07 344.701 1041.15 343.073 1040.13 336.81L1038.97 329.553C1038.32 325.559 1038.07 324.083 1037.78 321.736L1031.64 323.86C1032.1 326.253 1032.45 328.319 1032.97 331.629L1033.46 334.691Z" fill="white"/>
<path d="M1075.24 330.756C1075.84 334.455 1076.17 336.475 1076.46 338.667L1082.6 336.542C1082.17 334.399 1081.87 332.472 1081.28 328.664L1080.29 322.65C1079.04 314.802 1080.66 312.418 1088.29 309.778C1095.78 307.187 1096.89 307.999 1097.71 313.081L1097.83 314.029L1103.66 311.908C1103.48 310.774 1103.36 309.981 1103.25 309.079C1101.97 301.138 1099.46 299.766 1089.37 303.258C1083.23 305.383 1079.81 308.286 1078.34 312.335L1077.56 307.969L1071.89 309.933C1072.23 311.844 1072.52 313.724 1073.07 317.127L1075.24 330.756Z" fill="white"/>
<path d="M225.288 605.864C244.605 507.93 340.105 444.291 438.617 463.729C537.128 483.168 601.309 578.315 581.993 676.249L579.01 691.369L400.658 656.177L222.305 620.984L225.288 605.864Z" fill="#0D0E11" stroke="url(#paint8_linear_938_1995)" stroke-width="2.00027"/>
<path d="M248.975 608.332C257.124 567.021 281.344 530.64 316.31 507.191C351.275 483.742 394.12 475.147 435.42 483.296C476.719 491.445 513.091 515.672 536.532 550.645C559.974 585.619 568.566 628.475 560.417 669.786L404.696 639.059L248.975 608.332Z" fill="url(#paint9_linear_938_1995)"/>
<path d="M518.291 661.48C524.302 631.005 517.964 599.389 500.671 573.589C483.378 547.789 456.546 529.917 426.079 523.905C395.612 517.893 364.005 524.234 338.211 541.532C312.417 558.831 294.55 585.67 288.539 616.145L403.415 638.813L518.291 661.48Z" fill="url(#paint10_linear_938_1995)"/>
<path d="M460.733 650.786C463.772 635.379 460.568 619.396 451.825 606.353C443.083 593.309 429.518 584.274 414.115 581.235C398.713 578.195 382.733 581.401 369.693 590.146C356.653 598.891 347.62 612.46 344.581 627.867L402.657 639.327L460.733 650.786Z" fill="url(#paint11_linear_938_1995)"/>
<path d="M576.789 586.804L559.078 593.618L499.301 616.613" stroke="#5200FF" stroke-width="1.33351"/>
<rect width="48.3803" height="15.1208" rx="2.00027" transform="matrix(0.936506 -0.350547 0.350386 0.936645 476.711 616.833)" fill="#5200FF"/>
<path d="M190.727 447.514C134.694 443.812 15.498 462.507 -30.3565 473.959L-17.3199 526.097C181.864 462.204 227.704 512.557 224.534 545.782L289.402 515.871C273.873 457.796 251.442 451.524 190.727 447.514Z" fill="#5200FF"/>
<path fill-rule="evenodd" clip-rule="evenodd" d="M-35.4641 470.894L-31.3733 469.872C-8.2358 464.094 33.197 456.532 75.8184 450.878C118.373 445.233 162.541 441.43 191.009 443.311C221.174 445.303 243.049 447.865 259.224 457.832C275.744 468.013 285.619 485.394 293.477 514.786L294.395 518.217L219.646 552.684L220.342 545.385C221.031 538.163 219.08 529.907 212.853 522.4C206.606 514.871 195.836 507.841 178.497 503.62C143.678 495.144 83.3298 498.244 -16.0287 530.116L-20.3129 531.49L-35.4641 470.894ZM-25.2341 477.057L-14.3162 520.722C83.0068 489.962 143.921 486.525 180.491 495.428C199.114 499.962 211.658 507.757 219.34 517.016C225.175 524.05 228.076 531.782 228.748 539.202L284.394 513.543C276.919 487.091 268.002 473.145 254.803 465.011C240.701 456.322 221.003 453.742 190.453 451.724C162.888 449.903 119.441 453.597 76.9266 459.237C36.9187 464.544 -1.88474 471.522 -25.2341 477.057Z" fill="url(#paint12_linear_938_1995)"/>
<path d="M267.758 394.167L-16.694 525.329L-30.645 473.856L256.426 341.487L267.758 394.167Z" fill="#5200FF"/>
<path fill-rule="evenodd" clip-rule="evenodd" d="M-35.6499 471.517L259.435 335.453L272.584 396.58L-19.462 531.243L-35.6499 471.517ZM-25.6495 476.19L-13.9354 519.41L262.922 391.75L253.407 347.516L-25.6495 476.19Z" fill="url(#paint13_linear_938_1995)"/>
<path d="M401.14 391.136C386.744 386.713 380.45 365.616 387.083 344.016C380.45 365.616 363.402 379.541 349.006 375.119C363.402 379.541 369.696 400.639 363.063 422.238C369.696 400.639 386.744 386.713 401.14 391.136Z" fill="#43FF8E"/>
<path d="M142.628 230.629C118.475 239.182 88.4927 216.736 75.6654 180.496C88.4927 216.736 79.3102 253.053 55.1568 261.606C79.3102 253.053 109.292 275.499 122.12 311.739C109.292 275.499 118.475 239.182 142.628 230.629Z" fill="#5200FF"/>
<circle cx="96.6736" cy="96.6736" r="96.6736" transform="matrix(0.937695 -0.34749 0.347317 0.937737 1262.95 346.96)" fill="#0D0E11"/>
<path d="M1347.35 493.631C1314.27 478.438 1303.64 453.798 1297.59 439.494L1361.95 415.271L1362.95 417.537C1365.26 422.737 1369.38 426.916 1374.55 429.291L1376.95 430.393L1347.35 493.631Z" fill="url(#paint14_linear_938_1995)"/>
<path d="M1428.54 316.89C1461.62 332.083 1472.25 356.722 1478.3 371.026L1409.89 397.229L1398.98 381.242L1428.54 316.89Z" fill="url(#paint15_linear_938_1995)"/>
<circle cx="101.229" cy="101.229" r="99.405" transform="matrix(0.937695 -0.34749 0.347317 0.937737 1257.05 344.747)" stroke="url(#paint16_linear_938_1995)" stroke-width="3.64771"/>
<circle cx="27.9252" cy="27.9252" r="27.9252" transform="matrix(0.937695 -0.34749 0.347317 0.937737 1351.89 388.311)" fill="url(#paint17_linear_938_1995)"/>
</g>
</g>
<path d="M354.391 108.74C356.811 103.735 359.341 98.6199 361.486 94.2749H363.191C363.741 98.6199 364.346 103.79 364.951 108.74L367.206 127H378.756C382.991 118.97 395.696 95.4299 399.931 87.9499H391.626L382.001 106.76C379.581 111.6 377.161 116.385 375.236 120.18H372.706C372.266 116.33 371.716 111.545 371.166 106.705L368.746 87.9499H357.306L348.231 106.65C345.866 111.49 343.556 116.33 341.686 120.18H339.321C338.771 116.44 338.056 111.71 337.396 106.98L334.426 87.9499H326.781C328.376 95.4299 332.556 118.97 333.821 127H345.371L354.391 108.74Z" fill="white"/>
<path d="M415.357 127.66C431.857 127.66 434.882 124.47 436.312 116.385L429.272 116.165C428.612 119.905 426.962 121.665 415.687 121.665C405.072 121.665 402.982 119.795 403.807 113.085H436.862C437.027 112.26 437.247 111.27 437.412 110.17C439.282 98.3449 435.542 94.3299 419.537 94.3299C403.477 94.3299 399.187 97.9599 397.042 110.17L396.767 111.82C394.677 123.645 399.022 127.66 415.357 127.66ZM419.207 99.8299C429.602 99.8299 431.252 101.755 430.372 107.97H404.742C406.282 101.535 409.087 99.8299 419.207 99.8299Z" fill="white"/>
<path d="M443.251 117.76C442.536 121.775 442.096 124.47 441.546 127H448.806C449.191 124.47 449.686 121.775 450.346 117.815L454.361 95.0449C455.076 91.1399 455.571 88.1699 456.066 85.8599H448.806C448.421 88.2249 447.926 91.1399 447.266 94.9899L443.251 117.76Z" fill="white"/>
<path d="M476.957 127.66C493.127 127.66 496.757 124.03 498.517 114.24L491.477 114.075C490.597 119.19 488.122 121.28 477.287 121.28C466.232 121.28 464.582 119.19 465.957 111.215L466.012 110.775C467.442 102.745 469.862 100.71 480.917 100.71C491.752 100.71 493.347 102.855 492.467 107.915V107.86L499.562 107.695C501.377 97.6299 497.472 94.3299 481.302 94.3299C465.352 94.3299 461.062 97.9599 458.917 110.17L458.642 111.82C456.497 124.03 461.062 127.66 476.957 127.66Z" fill="white"/>
<path d="M522.399 127.66C538.789 127.66 542.914 124.03 545.059 111.82L545.334 110.17C547.479 97.9599 543.244 94.3299 526.909 94.3299C510.519 94.3299 506.394 97.9599 504.249 110.17L503.974 111.82C501.829 124.03 506.064 127.66 522.399 127.66ZM522.784 121.28C511.564 121.28 509.914 119.19 511.289 111.215L511.344 110.775C512.774 102.745 515.194 100.71 526.469 100.71C537.689 100.71 539.449 102.745 537.964 110.775L537.909 111.215C536.534 119.19 534.059 121.28 522.784 121.28Z" fill="white"/>
<path d="M550.99 118.2C550.275 122.325 549.89 124.58 549.395 127H556.655C556.985 124.58 557.37 122.435 558.14 118.2L559.405 110.94C560.835 103.075 563.475 100.82 571.45 100.82C578.545 100.82 580.14 102.525 579.15 108.19L577.39 118.365C576.62 122.49 576.345 124.25 575.795 127H583C583.55 123.645 584.045 121.17 584.485 118.2L585.805 110.94C587.18 103.075 589.985 100.82 597.85 100.82C604.945 100.82 606.595 102.525 605.605 108.19L603.79 118.31C603.075 122.49 602.8 124.25 602.195 127H609.455C610.005 123.7 610.445 121.225 610.94 118.31L611.435 115.34C612.315 110.39 612.865 107.75 613.25 105.275C614.68 97.4099 611.765 94.3299 600.985 94.3299C594 94.3299 589.765 96.2549 587.125 100.105C586.3 95.9799 582.615 94.3299 574.805 94.3299C567.985 94.3299 563.805 96.0899 561.055 99.6649L561.77 94.9899H555.06C554.73 97.1349 554.345 99.2249 553.685 103.02L550.99 118.2Z" fill="white"/>
<path d="M637.667 127.66C654.167 127.66 657.192 124.47 658.622 116.385L651.582 116.165C650.922 119.905 649.272 121.665 637.997 121.665C627.382 121.665 625.292 119.795 626.117 113.085H659.172C659.337 112.26 659.557 111.27 659.722 110.17C661.592 98.3449 657.852 94.3299 641.847 94.3299C625.787 94.3299 621.497 97.9599 619.352 110.17L619.077 111.82C616.987 123.645 621.332 127.66 637.667 127.66ZM641.517 99.8299C651.912 99.8299 653.562 101.755 652.682 107.97H627.052C628.592 101.535 631.397 99.8299 641.517 99.8299Z" fill="white"/>
<path d="M669.74 87.9499C669.63 88.9399 666.66 111.325 665.89 115.945H672.105C672.93 111.325 677.825 88.9399 678.045 87.9499H669.74ZM664.24 118.97L662.81 127H671.225L672.71 118.97H664.24Z" fill="white"/>
<path d="M337.997 166.294C345.032 166.294 346.712 164.803 346.712 160.561L344.612 160.498C344.57 163.396 343.667 164.257 338.081 164.257C332.495 164.257 331.424 163.123 331.424 158.671V158.419C331.424 154.114 332.495 152.833 338.081 152.833C343.667 152.833 344.612 153.694 344.612 156.592L346.712 156.529C346.712 152.287 345.011 150.796 337.997 150.796C331.025 150.796 329.219 152.497 329.219 158.209V158.881C329.219 164.593 331.025 166.294 337.997 166.294Z" fill="#535559"/>
<path d="M349.804 162.64C349.804 164.299 349.804 165.118 349.783 166H351.925C351.904 165.118 351.904 164.341 351.904 162.64V159.826C351.904 156.298 352.891 155.521 356.503 155.521C360.178 155.521 360.598 156.025 360.598 158.398V158.818L362.614 158.776C362.635 158.461 362.635 158.146 362.635 157.894C362.635 154.408 361.69 153.568 357.007 153.568C354.403 153.568 352.723 154.24 351.778 155.605L351.736 153.82H349.783C349.804 154.639 349.804 155.395 349.804 156.949V162.64Z" fill="#535559"/>
<path d="M372.34 166.252C378.472 166.252 379.627 165.034 379.627 162.115L377.548 162.031C377.548 163.606 376.981 164.383 372.361 164.383C367.888 164.383 366.88 163.564 366.775 160.729H379.627C379.627 160.372 379.648 159.931 379.627 159.595C379.564 154.954 378.178 153.568 372.193 153.568C366.208 153.568 364.612 154.954 364.612 159.595V160.225C364.612 164.866 366.208 166.252 372.34 166.252ZM372.193 155.395C376.498 155.395 377.317 156.235 377.401 158.923H366.775C366.922 156.151 367.972 155.395 372.193 155.395Z" fill="#535559"/>
<path d="M388.832 166.252C392.087 166.252 393.935 165.601 394.859 164.572L394.88 166H396.77C396.749 164.341 396.749 163.27 396.749 162.01C396.749 160.246 396.77 159.448 396.77 157.789C396.77 154.912 395.699 153.568 389.483 153.568C383.834 153.568 382.553 154.765 382.595 157.306L384.716 157.369C384.695 155.92 385.199 155.437 389.483 155.437C393.914 155.437 394.649 156.088 394.649 158.188V159.679C393.662 158.902 391.856 158.44 388.832 158.44C383.309 158.44 382.112 159.595 382.112 162.388C382.112 165.118 383.246 166.252 388.832 166.252ZM389.441 164.425C385.157 164.425 384.275 163.9 384.275 162.388C384.275 160.834 384.842 160.183 389.441 160.183C393.956 160.183 394.691 160.813 394.691 161.758V162.409C394.691 163.774 393.956 164.425 389.441 164.425Z" fill="#535559"/>
<path d="M401.192 158.44C401.192 159.469 401.171 160.666 401.171 161.59C401.171 165.202 402.284 166.105 407.24 166.105C408.164 166.105 408.941 166.063 409.592 166L409.571 164.089C408.773 164.131 408.29 164.152 407.345 164.152C404.132 164.152 403.292 163.837 403.292 161.296V155.731H409.571V153.82H403.292C403.292 152.77 403.292 151.93 403.313 151.426L401.171 151.468C401.192 152.434 401.192 153.127 401.192 153.82C400.52 153.82 399.848 153.841 398.987 153.82V155.731H401.192V158.44Z" fill="#535559"/>
<path d="M419.303 166.252C425.435 166.252 426.59 165.034 426.59 162.115L424.511 162.031C424.511 163.606 423.944 164.383 419.324 164.383C414.851 164.383 413.843 163.564 413.738 160.729H426.59C426.59 160.372 426.611 159.931 426.59 159.595C426.527 154.954 425.141 153.568 419.156 153.568C413.171 153.568 411.575 154.954 411.575 159.595V160.225C411.575 164.866 413.171 166.252 419.303 166.252ZM419.156 155.395C423.461 155.395 424.28 156.235 424.364 158.923H413.738C413.885 156.151 414.935 155.395 419.156 155.395Z" fill="#535559"/>
<path d="M445.205 166.378C446.78 163.27 450.077 156.676 451.589 153.82H449.321L446.717 158.902C446.024 160.246 445.331 161.611 444.743 162.808H443.567C442.832 161.59 441.971 160.204 441.131 158.839L438.065 153.82H435.671C437.498 156.697 440.816 162.178 442.349 164.761H443.735L443.357 165.433C442.601 166.777 442.118 167.05 440.879 167.05C440.081 167.05 439.43 167.029 438.758 166.987L438.695 168.877C439.472 168.919 440.438 168.961 440.942 168.961C443.084 168.961 444.239 168.289 445.205 166.378Z" fill="#535559"/>
<path d="M460.112 166.252C466.181 166.252 467.777 164.866 467.777 160.225V159.595C467.777 154.954 466.181 153.568 460.112 153.568C454.043 153.568 452.447 154.954 452.447 159.595V160.225C452.447 164.866 454.043 166.252 460.112 166.252ZM460.112 164.299C455.492 164.299 454.589 163.417 454.589 160.015V159.805C454.589 156.403 455.492 155.521 460.112 155.521C464.732 155.521 465.635 156.403 465.635 159.805V160.015C465.635 163.417 464.732 164.299 460.112 164.299Z" fill="#535559"/>
<path d="M470.738 158.44C470.738 159.7 470.717 160.204 470.717 161.065C470.717 164.761 471.788 166.252 477.311 166.252C480.251 166.252 482.036 165.58 483.023 164.215L483.065 166H485.018C484.997 165.181 484.997 164.425 484.997 162.871V157.18C484.997 155.521 484.997 154.702 485.018 153.82H482.876C482.897 154.702 482.897 155.479 482.897 157.18V160.12C482.897 163.312 481.91 164.299 477.878 164.299C473.636 164.299 472.838 163.228 472.838 160.435V157.159C472.838 155.374 472.838 154.765 472.859 153.82H470.717C470.738 154.807 470.738 155.647 470.738 157.159V158.44Z" fill="#535559"/>
<path d="M488.827 162.64C488.827 164.299 488.827 165.118 488.806 166H490.948C490.927 165.118 490.927 164.341 490.927 162.64V159.826C490.927 156.298 491.914 155.521 495.526 155.521C499.201 155.521 499.621 156.025 499.621 158.398V158.818L501.637 158.776C501.658 158.461 501.658 158.146 501.658 157.894C501.658 154.408 500.713 153.568 496.03 153.568C493.426 153.568 491.746 154.24 490.801 155.605L490.759 153.82H488.806C488.827 154.639 488.827 155.395 488.827 156.949V162.64Z" fill="#535559"/>
<path d="M519.113 166.252C525.182 166.252 526.778 164.866 526.778 160.225V159.595C526.778 154.954 525.182 153.568 519.113 153.568C513.044 153.568 511.448 154.954 511.448 159.595V160.225C511.448 164.866 513.044 166.252 519.113 166.252ZM519.113 164.299C514.493 164.299 513.59 163.417 513.59 160.015V159.805C513.59 156.403 514.493 155.521 519.113 155.521C523.733 155.521 524.636 156.403 524.636 159.805V160.015C524.636 163.417 523.733 164.299 519.113 164.299Z" fill="#535559"/>
<path d="M537.913 160.015C538.438 158.65 538.984 157.285 539.467 156.046H540.076C540.517 157.306 541 158.713 541.462 160.078L543.499 166H546.901C548.035 163.018 550.513 156.676 551.752 153.82H549.505L547.468 159.154C546.859 160.771 546.229 162.451 545.683 163.9H544.906C544.486 162.556 543.961 161.002 543.436 159.469L541.504 153.82H538.228L536.128 159.385C535.561 160.897 534.952 162.493 534.448 163.9H533.629C533.146 162.472 532.579 160.792 532.054 159.238L530.227 153.82H527.833C528.925 156.634 531.214 163.018 532.222 166H535.624L537.913 160.015Z" fill="#535559"/>
<path d="M553.837 162.64C553.837 164.299 553.837 165.118 553.816 166H555.958C555.937 165.118 555.937 164.341 555.937 162.64V159.7C555.937 156.508 556.924 155.521 561.04 155.521C565.303 155.521 566.101 156.592 566.101 159.385V162.661C566.101 164.446 566.101 165.055 566.08 166H568.222C568.201 165.013 568.201 164.173 568.201 162.661V161.38C568.201 160.12 568.222 159.616 568.222 158.755C568.222 155.059 567.151 153.568 561.607 153.568C558.625 153.568 556.798 154.24 555.811 155.605L555.769 153.82H553.816C553.837 154.639 553.837 155.395 553.837 156.949V162.64Z" fill="#535559"/>
<path d="M586.099 166.252C592.21 166.252 592.987 165.286 592.987 162.766C592.987 160.267 592.231 159.343 585.931 158.818C581.416 158.44 581.101 158.062 581.101 157.012C581.101 155.899 581.752 155.458 585.7 155.458C589.711 155.458 590.341 155.941 590.341 157.222V157.537L592.504 157.474C592.504 154.555 591.475 153.568 585.784 153.568C580.177 153.568 579.085 154.597 579.085 157.159C579.085 159.637 580.009 160.435 585.595 160.897C590.467 161.296 590.845 161.695 590.845 162.871C590.845 164.005 590.404 164.488 586.183 164.488C581.71 164.488 581.059 164.005 581.059 162.304V161.968L578.938 162.031C578.938 165.559 580.03 166.252 586.099 166.252Z" fill="#535559"/>
<path d="M596.57 158.44C596.57 159.469 596.549 160.666 596.549 161.59C596.549 165.202 597.662 166.105 602.618 166.105C603.542 166.105 604.319 166.063 604.97 166L604.949 164.089C604.151 164.131 603.668 164.152 602.723 164.152C599.51 164.152 598.67 163.837 598.67 161.296V155.731H604.949V153.82H598.67C598.67 152.77 598.67 151.93 598.691 151.426L596.549 151.468C596.57 152.434 596.57 153.127 596.57 153.82C595.898 153.82 595.226 153.841 594.365 153.82V155.731H596.57V158.44Z" fill="#535559"/>
<path d="M607.73 158.44C607.73 159.7 607.709 160.204 607.709 161.065C607.709 164.761 608.78 166.252 614.303 166.252C617.243 166.252 619.028 165.58 620.015 164.215L620.057 166H622.01C621.989 165.181 621.989 164.425 621.989 162.871V157.18C621.989 155.521 621.989 154.702 622.01 153.82H619.868C619.889 154.702 619.889 155.479 619.889 157.18V160.12C619.889 163.312 618.902 164.299 614.87 164.299C610.628 164.299 609.83 163.228 609.83 160.435V157.159C609.83 155.374 609.83 154.765 609.851 153.82H607.709C607.73 154.807 607.73 155.647 607.73 157.159V158.44Z" fill="#535559"/>
<path d="M632.245 166.252C635.416 166.252 637.306 165.559 638.314 164.152L638.356 166H640.309C640.288 164.971 640.288 164.257 640.288 162.64V153.82C640.288 152.266 640.288 151.195 640.309 150.292H638.125C638.146 151.153 638.167 153.337 638.167 155.458C637.117 154.177 635.311 153.568 632.371 153.568C626.617 153.568 625 154.954 625 159.595V160.225C625 164.866 626.617 166.252 632.245 166.252ZM632.665 164.299C628.066 164.299 627.142 163.417 627.142 160.015V159.805C627.142 156.403 628.066 155.521 632.77 155.521C637.243 155.521 638.188 156.487 638.188 159.826V159.994C638.188 163.312 637.243 164.299 632.665 164.299Z" fill="#535559"/>
<path d="M644.133 150.628V152.581H646.275V150.628H644.133ZM644.154 162.703C644.154 164.11 644.154 165.076 644.133 166H646.275C646.254 165.076 646.254 164.11 646.254 162.724V157.369C646.254 155.857 646.254 154.723 646.275 153.82H644.133C644.154 154.723 644.154 155.857 644.154 157.348V162.703Z" fill="#535559"/>
<path d="M656.967 166.252C663.036 166.252 664.632 164.866 664.632 160.225V159.595C664.632 154.954 663.036 153.568 656.967 153.568C650.898 153.568 649.302 154.954 649.302 159.595V160.225C649.302 164.866 650.898 166.252 656.967 166.252ZM656.967 164.299C652.347 164.299 651.444 163.417 651.444 160.015V159.805C651.444 156.403 652.347 155.521 656.967 155.521C661.587 155.521 662.49 156.403 662.49 159.805V160.015C662.49 163.417 661.587 164.299 656.967 164.299Z" fill="#535559"/>
<defs>
<linearGradient id="paint0_linear_938_1995" x1="1697.47" y1="256.782" x2="1809.99" y2="648.788" gradientUnits="userSpaceOnUse">
<stop offset="0.104167" stop-color="#E965FF"/>
<stop offset="0.489583" stop-color="#5200FF"/>
<stop offset="0.890625" stop-color="#43FF8E"/>
</linearGradient>
<linearGradient id="paint1_linear_938_1995" x1="1694.6" y1="578.262" x2="1638.67" y2="476.078" gradientUnits="userSpaceOnUse">
<stop stop-color="#1E2025"/>
<stop offset="1" stop-color="#1E2025" stop-opacity="0"/>
</linearGradient>
<linearGradient id="paint2_linear_938_1995" x1="1807.73" y1="332.958" x2="1863.67" y2="435.143" gradientUnits="userSpaceOnUse">
<stop stop-color="#2E3138"/>
<stop offset="1" stop-color="#1E2025" stop-opacity="0"/>
</linearGradient>
<linearGradient id="paint3_linear_938_1995" x1="1738.55" y1="399.861" x2="1768.93" y2="505.702" gradientUnits="userSpaceOnUse">
<stop offset="0.31669" stop-color="#E965FF"/>
<stop offset="1" stop-color="#E965FF" stop-opacity="0"/>
</linearGradient>
<linearGradient id="paint4_linear_938_1995" x1="1028.18" y1="393.807" x2="1349.93" y2="332.852" gradientUnits="userSpaceOnUse">
<stop offset="0.64073" stop-color="#5200FF"/>
<stop offset="1" stop-color="#43FF8E"/>
</linearGradient>
<linearGradient id="paint5_linear_938_1995" x1="1312.78" y1="345.886" x2="482.389" y2="637.614" gradientUnits="userSpaceOnUse">
<stop stop-color="#43FF8E"/>
<stop offset="0.526042" stop-color="#5200FF"/>
</linearGradient>
<linearGradient id="paint6_linear_938_1995" x1="539.925" y1="432.53" x2="1225" y2="270.209" gradientUnits="userSpaceOnUse">
<stop stop-color="#E965FF"/>
<stop offset="0.223958" stop-color="#5200FF"/>
</linearGradient>
<linearGradient id="paint7_linear_938_1995" x1="1252.18" y1="260.928" x2="643.278" y2="474.844" gradientUnits="userSpaceOnUse">
<stop offset="0.520833" stop-color="#5200FF"/>
<stop offset="1" stop-color="#E965FF"/>
</linearGradient>
<linearGradient id="paint8_linear_938_1995" x1="315.607" y1="475.578" x2="574.014" y2="722.134" gradientUnits="userSpaceOnUse">
<stop stop-color="#43FF8E"/>
<stop offset="0.364583" stop-color="#E965FF"/>
<stop offset="0.692708" stop-color="#5703FF"/>
</linearGradient>
<linearGradient id="paint9_linear_938_1995" x1="253.989" y1="582.912" x2="565.436" y2="644.343" gradientUnits="userSpaceOnUse">
<stop stop-color="#0D0E11"/>
<stop offset="1" stop-color="#292B32"/>
</linearGradient>
<linearGradient id="paint10_linear_938_1995" x1="521.99" y1="642.728" x2="292.234" y2="597.41" gradientUnits="userSpaceOnUse">
<stop stop-color="#0D0E11"/>
<stop offset="0.609375" stop-color="#292B32"/>
</linearGradient>
<linearGradient id="paint11_linear_938_1995" x1="414.115" y1="581.235" x2="391.19" y2="697.417" gradientUnits="userSpaceOnUse">
<stop offset="0.078125" stop-color="#5200FF"/>
<stop offset="0.463542" stop-color="#0D0E11"/>
</linearGradient>
<linearGradient id="paint12_linear_938_1995" x1="116.042" y1="474.138" x2="257.478" y2="530.82" gradientUnits="userSpaceOnUse">
<stop stop-color="#5200FF"/>
<stop offset="0.885209" stop-color="#E965FF"/>
</linearGradient>
<linearGradient id="paint13_linear_938_1995" x1="248.156" y1="358.001" x2="-9.55602" y2="493.131" gradientUnits="userSpaceOnUse">
<stop stop-color="#43FF8E"/>
<stop offset="1" stop-color="#5200FF"/>
</linearGradient>
<linearGradient id="paint14_linear_938_1995" x1="1357.97" y1="470.518" x2="1326.46" y2="422.03" gradientUnits="userSpaceOnUse">
<stop stop-color="#1E2025"/>
<stop offset="1" stop-color="#1E2025" stop-opacity="0"/>
</linearGradient>
<linearGradient id="paint15_linear_938_1995" x1="1417.92" y1="340.002" x2="1449.43" y2="388.491" gradientUnits="userSpaceOnUse">
<stop stop-color="#2E3138"/>
<stop offset="1" stop-color="#1E2025" stop-opacity="0"/>
</linearGradient>
<linearGradient id="paint16_linear_938_1995" x1="101.229" y1="0" x2="101.229" y2="202.458" gradientUnits="userSpaceOnUse">
<stop stop-color="#43FF8E"/>
<stop offset="0.489583" stop-color="#5200FF"/>
<stop offset="1" stop-color="#E965FF"/>
</linearGradient>
<linearGradient id="paint17_linear_938_1995" x1="27.9252" y1="0" x2="27.9252" y2="55.8504" gradientUnits="userSpaceOnUse">
<stop stop-color="#43FF8E"/>
<stop offset="1" stop-color="#43FF8E" stop-opacity="0"/>
</linearGradient>
<clipPath id="clip0_938_1995">
<rect width="1920" height="715" fill="white"/>
</clipPath>
</defs>
</svg>
