<svg width="103" height="16" viewBox="0 0 103 16" fill="none" xmlns="http://www.w3.org/2000/svg">
<path d="M6.51562 13.2257C12.084 13.2257 13.3591 12.112 13.9563 8.67413L11.8581 8.6257C11.4707 10.6271 10.7605 11.2727 6.66088 11.2727C2.59351 11.2727 2.01246 10.4818 2.56123 7.35062L2.57737 7.18921C3.12614 4.13869 3.99772 3.26711 8.06509 3.26711C12.1809 3.26711 12.6812 3.89658 12.3261 5.91413L14.4405 5.86571C15.0377 2.49237 13.7465 1.31413 8.16193 1.31413C2.65807 1.31413 1.20544 2.63763 0.430703 7.01167L0.333861 7.52816C-0.457016 11.7731 0.914914 13.2257 6.51562 13.2257Z" fill="white"/>
<path d="M20.9606 13.1934C25.7704 13.1934 26.9809 12.1282 27.6104 8.545L27.6911 8.06079C28.3206 4.47764 27.0778 3.41237 22.2841 3.41237C17.4743 3.41237 16.2638 4.47764 15.6343 8.06079L15.5536 8.545C14.9241 12.1282 16.1669 13.1934 20.9606 13.1934ZM21.0736 11.3211C17.781 11.3211 17.2967 10.7078 17.7002 8.36746L17.7164 8.23834C18.136 5.88184 18.8462 5.28465 22.155 5.28465C25.4476 5.28465 25.9641 5.88184 25.5283 8.23834L25.5122 8.36746C25.1087 10.7078 24.3824 11.3211 21.0736 11.3211Z" fill="white"/>
<path d="M29.3507 10.4173C29.1409 11.6278 29.0279 12.2896 28.8826 12.9997H31.0131C31.11 12.2896 31.223 11.6601 31.4489 10.4173L31.8202 8.28676C32.2398 5.97869 33.0145 5.31693 35.3549 5.31693C37.437 5.31693 37.9051 5.81728 37.6145 7.47974L37.098 10.4657C36.8721 11.6762 36.7914 12.1927 36.63 12.9997H38.7444C38.9058 12.0152 39.051 11.2889 39.1802 10.4173L39.5675 8.28676C39.971 5.97869 40.7942 5.31693 43.1023 5.31693C45.1844 5.31693 45.6686 5.81728 45.3781 7.47974L44.8454 10.4496C44.6356 11.6762 44.5549 12.1927 44.3773 12.9997H46.5079C46.6693 12.0313 46.7984 11.305 46.9437 10.4496L47.0889 9.57799C47.3472 8.12535 47.5086 7.35062 47.6216 6.6243C48.0412 4.31623 47.1858 3.41237 44.0223 3.41237C41.9724 3.41237 40.7296 3.97728 39.9549 5.10711C39.7128 3.89658 38.6314 3.41237 36.3395 3.41237C34.3381 3.41237 33.1114 3.92886 32.3044 4.97799L32.5142 3.60606H30.5451C30.4482 4.23553 30.3352 4.84886 30.1416 5.96255L29.3507 10.4173Z" fill="white"/>
<path d="M49.1057 12.9997C48.9282 13.9682 48.7829 14.7752 48.6861 15.2594H50.8327C50.9296 14.5815 51.1555 13.2741 51.4622 11.6117C52.0594 12.6608 53.399 13.1934 55.7233 13.1934C60.0812 13.1934 61.2755 12.1604 61.9212 8.545L62.0019 8.06079C62.6152 4.47764 61.4369 3.41237 57.1597 3.41237C54.8517 3.41237 53.4313 3.945 52.5275 4.99413L52.7696 3.60606H50.752C50.639 4.28395 50.5261 4.88114 50.3969 5.65588L49.1057 12.9997ZM52.011 8.36746L52.0433 8.23834C52.4306 5.97869 53.2054 5.31693 56.4496 5.31693C59.7099 5.31693 60.2587 5.89799 59.8552 8.23834L59.8229 8.36746C59.4033 10.6917 58.6608 11.2889 55.3197 11.2889C52.1562 11.2889 51.6075 10.6432 52.011 8.36746Z" fill="white"/>
<path d="M63.7292 10.2882C63.5194 11.4664 63.3903 12.2573 63.2289 12.9997H65.3594C65.4724 12.2573 65.6177 11.4664 65.8114 10.3043L66.9896 3.6222C67.1994 2.47623 67.3447 1.60465 67.49 0.926758H65.3594C65.2464 1.62079 65.1012 2.47623 64.9075 3.60606L63.7292 10.2882Z" fill="white"/>
<path d="M73.7016 13.1934C78.5437 13.1934 79.4314 12.2573 79.8511 9.88465L77.7851 9.82009C77.5914 10.9176 77.1072 11.4341 73.7984 11.4341C70.6833 11.4341 70.07 10.8854 70.3121 8.91623H80.0125C80.0609 8.67413 80.1255 8.3836 80.1739 8.06079C80.7226 4.59062 79.6251 3.41237 74.9283 3.41237C70.2153 3.41237 68.9563 4.47764 68.3269 8.06079L68.2462 8.545C67.6328 12.0152 68.9079 13.1934 73.7016 13.1934ZM74.8314 5.02641C77.8819 5.02641 78.3661 5.59132 78.1079 7.41518H70.5865C71.0384 5.52676 71.8616 5.02641 74.8314 5.02641Z" fill="white"/>
<path d="M83.017 7.02781C82.8556 7.96395 82.678 8.90009 82.5489 9.64255C82.0647 12.4025 83.0331 13.0804 86.9552 13.0804C87.617 13.0804 88.1173 13.0482 88.7307 12.9997L89.0212 11.1759C88.3917 11.2243 88.0205 11.2404 87.3264 11.2404C84.9215 11.2404 84.405 10.9983 84.7278 9.1422L85.3896 5.42992H90.038L90.3608 3.60606H85.7124C85.8577 2.81518 85.9706 2.20185 86.0514 1.76606L83.9208 1.79834C83.8078 2.52465 83.7271 3.05728 83.6142 3.60606C83.0977 3.60606 82.5166 3.60606 81.9194 3.60606L81.5966 5.42992H83.3075L83.017 7.02781Z" fill="white"/>
<path d="M96.3202 13.1934C101.162 13.1934 102.05 12.2573 102.47 9.88465L100.404 9.82009C100.21 10.9176 99.7258 11.4341 96.417 11.4341C93.3019 11.4341 92.6886 10.8854 92.9307 8.91623H102.631C102.679 8.67413 102.744 8.3836 102.792 8.06079C103.341 4.59062 102.244 3.41237 97.5468 3.41237C92.8338 3.41237 91.5749 4.47764 90.9454 8.06079L90.8647 8.545C90.2514 12.0152 91.5265 13.1934 96.3202 13.1934ZM97.45 5.02641C100.501 5.02641 100.985 5.59132 100.726 7.41518H93.2051C93.657 5.52676 94.4801 5.02641 97.45 5.02641Z" fill="white"/>
</svg>
