<svg width="267" height="65" viewBox="0 0 267 65" fill="none" xmlns="http://www.w3.org/2000/svg">
<path d="M111.022 35.276C117.784 35.276 118.589 34.425 119.095 31.527C119.578 28.813 118.612 27.571 112.218 27.042C107.503 26.628 107.25 26.145 107.411 25.087C107.549 24.144 108.285 23.707 112.241 23.707C116.358 23.707 116.887 24.19 116.657 25.432L116.588 25.731L119.601 25.662C120.153 22.442 118.98 21.338 112.425 21.338C106.169 21.338 105.065 22.304 104.559 25.156C104.076 27.893 105.065 29.02 110.93 29.48C115.967 29.917 116.266 30.4 116.082 31.55C115.921 32.585 115.392 32.999 111.183 32.999C106.537 32.999 106.008 32.539 106.284 30.952L106.33 30.607L103.386 30.676C102.719 34.517 104.145 35.276 111.022 35.276ZM122.05 31.136C121.751 32.815 121.567 33.942 121.337 35H124.373C124.534 33.942 124.741 32.815 125.017 31.159L125.316 29.526H128.743C129.318 30.147 129.985 30.814 130.675 31.481L134.263 35H138.012L138.058 34.954C136.287 33.229 133.228 30.17 131.273 28.192C133.895 26.214 137.759 23.339 140.082 21.66L140.036 21.614H136.195L132.124 24.604C131.066 25.363 130.008 26.145 129.065 26.858H125.776L126.696 21.637C126.995 20.004 127.202 18.762 127.409 17.796H124.373C124.212 18.785 124.005 20.004 123.729 21.614L122.05 31.136ZM143.285 17.957L142.871 20.257H145.907L146.298 17.957H143.285ZM140.985 31.136C140.686 32.815 140.502 33.942 140.272 35H143.308C143.469 33.942 143.676 32.815 143.952 31.159L144.964 25.432C145.24 23.799 145.47 22.58 145.654 21.614H142.641C142.503 22.58 142.273 23.822 141.997 25.432L140.985 31.136ZM147.099 35C146.846 36.38 146.639 37.53 146.501 38.22H149.56C149.698 37.254 150.02 35.391 150.457 33.022C151.308 34.517 153.217 35.276 156.529 35.276C162.739 35.276 164.441 33.804 165.361 28.652L165.476 27.962C166.35 22.856 164.671 21.338 158.576 21.338C155.287 21.338 153.263 22.097 151.975 23.592L152.32 21.614H149.445C149.284 22.58 149.123 23.431 148.939 24.535L147.099 35ZM151.239 28.399L151.285 28.215C151.837 24.995 152.941 24.052 157.564 24.052C162.21 24.052 162.992 24.88 162.417 28.215L162.371 28.399C161.773 31.711 160.715 32.562 155.954 32.562C151.446 32.562 150.664 31.642 151.239 28.399Z" fill="#D9D9D9"/>
<path d="M104.5 7.91669H155.5H206.5C200.677 7.68555 189.03 9.81202 189.03 20.167" stroke="white" stroke-width="1.53333" stroke-linecap="round"/>
</svg>
