<svg width="555" height="67" viewBox="0 0 555 67" fill="none" xmlns="http://www.w3.org/2000/svg">
<rect width="555" height="67" rx="30" fill="#43FF8E"/>
<path d="M112.138 26.67H109.01C108.895 27.498 108.711 28.51 108.527 29.637L107.377 36.077C106.756 39.596 105.583 40.539 100.063 40.539C94.5199 40.539 93.6919 39.596 94.3129 36.077L95.4629 29.614C95.6469 28.51 95.8309 27.498 96.0149 26.67H92.9099C92.7949 27.452 92.6109 28.418 92.4039 29.614L92.0819 31.408C91.8519 32.65 91.5529 34.26 91.1849 36.353C90.2649 41.505 92.1279 43.322 99.9019 43.322C107.699 43.322 109.516 41.505 110.413 36.353C110.781 34.26 111.057 32.65 111.264 31.408L111.563 29.66C111.793 28.418 111.977 27.452 112.138 26.67ZM113.012 43C112.759 44.38 112.552 45.53 112.414 46.22H115.473C115.611 45.254 115.933 43.391 116.37 41.022C117.221 42.517 119.13 43.276 122.442 43.276C128.652 43.276 130.354 41.804 131.274 36.652L131.389 35.962C132.263 30.856 130.584 29.338 124.489 29.338C121.2 29.338 119.176 30.097 117.888 31.592L118.233 29.614H115.358C115.197 30.58 115.036 31.431 114.852 32.535L113.012 43ZM117.152 36.399L117.198 36.215C117.75 32.995 118.854 32.052 123.477 32.052C128.123 32.052 128.905 32.88 128.33 36.215L128.284 36.399C127.686 39.711 126.628 40.562 121.867 40.562C117.359 40.562 116.577 39.642 117.152 36.399ZM133.851 39.136C133.552 40.815 133.368 41.942 133.138 43H136.174C136.335 41.942 136.542 40.815 136.818 39.159L138.497 29.637C138.796 28.004 139.003 26.762 139.21 25.796H136.174C136.013 26.785 135.806 28.004 135.53 29.614L133.851 39.136ZM147.993 43.276C154.847 43.276 156.572 41.758 157.469 36.652L157.584 35.962C158.481 30.856 156.71 29.338 149.879 29.338C143.025 29.338 141.3 30.856 140.403 35.962L140.288 36.652C139.391 41.758 141.162 43.276 147.993 43.276ZM148.154 40.608C143.462 40.608 142.772 39.734 143.347 36.399L143.37 36.215C143.968 32.857 144.98 32.006 149.695 32.006C154.387 32.006 155.123 32.857 154.502 36.215L154.479 36.399C153.904 39.734 152.869 40.608 148.154 40.608ZM165.951 43.276C169.631 43.276 171.678 42.563 172.805 41.344L172.552 43H175.266C175.565 41.183 175.772 40.01 176.025 38.63C176.393 36.514 176.554 35.732 176.876 33.915C177.428 30.787 176.163 29.338 169.24 29.338C162.915 29.338 161.443 30.557 160.96 33.593L163.835 33.662C164.065 32.236 164.617 31.776 169.033 31.776C173.564 31.776 174.139 32.42 173.771 34.536L173.495 36.1C172.644 35.203 170.804 34.72 167.377 34.72C161.42 34.72 159.971 35.985 159.419 39.044C158.913 42.057 159.948 43.276 165.951 43.276ZM167.377 40.953C162.938 40.953 162.202 40.447 162.455 38.975C162.708 37.48 163.375 36.859 168.136 36.859C172.713 36.859 173.334 37.457 173.15 38.423L173.058 38.998C172.828 40.332 171.977 40.953 167.377 40.953ZM186.247 43.276C189.559 43.276 191.583 42.494 192.871 40.976L192.549 43H195.378C195.562 41.873 195.7 41.091 195.999 39.32L197.701 29.614C198 27.958 198.207 26.762 198.414 25.796H195.332C195.194 26.762 194.78 29.223 194.366 31.569C193.492 30.097 191.583 29.338 188.271 29.338C182.084 29.338 180.359 30.81 179.462 35.962L179.347 36.652C178.45 41.758 180.152 43.276 186.247 43.276ZM187.259 40.562C182.59 40.562 181.831 39.711 182.406 36.399L182.429 36.215C183.027 32.88 184.108 32.052 188.869 32.052C193.377 32.052 194.159 32.972 193.584 36.215L193.538 36.399C192.963 39.619 191.859 40.562 187.259 40.562ZM215.686 39.711C215.456 40.953 215.272 42.011 215.088 43H218.17C218.331 41.988 218.538 40.953 218.768 39.711L219.113 37.71C222.126 34.651 226.887 29.821 230.061 26.67H226.404L221.85 31.224C220.424 32.673 219.067 34.03 217.802 35.387C216.997 34.076 216.123 32.673 215.249 31.27L212.351 26.67H208.97C211.017 29.752 214.007 34.49 216.031 37.733L215.686 39.711ZM234.535 43.276C241.389 43.276 243.114 41.758 244.011 36.652L244.126 35.962C245.023 30.856 243.252 29.338 236.421 29.338C229.567 29.338 227.842 30.856 226.945 35.962L226.83 36.652C225.933 41.758 227.704 43.276 234.535 43.276ZM234.696 40.608C230.004 40.608 229.314 39.734 229.889 36.399L229.912 36.215C230.51 32.857 231.522 32.006 236.237 32.006C240.929 32.006 241.665 32.857 241.044 36.215L241.021 36.399C240.446 39.734 239.411 40.608 234.696 40.608ZM247.249 34.674C246.973 36.192 246.858 36.813 246.674 37.848C245.984 41.689 247.226 43.276 253.045 43.276C256.127 43.276 258.128 42.471 259.416 40.93L259.094 43H261.9C262.038 42.08 262.199 41.229 262.475 39.642L263.602 33.294C263.901 31.546 264.062 30.626 264.269 29.614H261.233C261.095 30.626 260.934 31.523 260.612 33.294L260.083 36.33C259.508 39.596 258.358 40.562 254.264 40.562C249.963 40.562 249.365 39.55 249.871 36.629L250.469 33.248C250.791 31.385 250.906 30.695 251.136 29.614H248.1C247.939 30.741 247.778 31.707 247.502 33.248L247.249 34.674ZM266.301 39.32C266.002 41.045 265.841 41.988 265.634 43H268.67C268.808 41.988 268.969 41.091 269.291 39.32L269.774 36.514C270.418 32.857 271.499 32.052 275.271 32.052C278.974 32.052 279.342 32.581 278.928 34.95L278.836 35.387L281.734 35.341C281.826 34.812 281.895 34.444 281.987 34.03C282.631 30.327 281.734 29.338 276.743 29.338C273.707 29.338 271.752 30.097 270.487 31.661L270.809 29.614H268.003C267.865 30.511 267.704 31.385 267.428 32.972L266.301 39.32ZM292.607 39.297C292.308 41.022 292.17 41.873 291.94 43H295.045C295.252 41.804 295.344 41.206 295.689 39.274L296.218 36.33H299.967C302.658 36.33 306.453 36.33 308.362 36.353L308.845 33.685H296.678L297.437 29.361H301.991C305.556 29.361 308.523 29.361 310.616 29.384L311.099 26.67H294.815C294.654 27.682 294.539 28.418 294.309 29.614L292.607 39.297ZM314.019 25.957L313.605 28.257H316.641L317.032 25.957H314.019ZM311.719 39.136C311.42 40.815 311.236 41.942 311.006 43H314.042C314.203 41.942 314.41 40.815 314.686 39.159L315.698 33.432C315.974 31.799 316.204 30.58 316.388 29.614H313.375C313.237 30.58 313.007 31.822 312.731 33.432L311.719 39.136ZM318.478 39.32C318.179 41.045 318.018 41.988 317.811 43H320.847C320.985 41.988 321.146 41.091 321.468 39.32L321.951 36.514C322.595 32.857 323.676 32.052 327.448 32.052C331.151 32.052 331.519 32.581 331.105 34.95L331.013 35.387L333.911 35.341C334.003 34.812 334.072 34.444 334.164 34.03C334.808 30.327 333.911 29.338 328.92 29.338C325.884 29.338 323.929 30.097 322.664 31.661L322.986 29.614H320.18C320.042 30.511 319.881 31.385 319.605 32.972L318.478 39.32ZM342.715 43.276C349.477 43.276 350.282 42.425 350.788 39.527C351.271 36.813 350.305 35.571 343.911 35.042C339.196 34.628 338.943 34.145 339.104 33.087C339.242 32.144 339.978 31.707 343.934 31.707C348.051 31.707 348.58 32.19 348.35 33.432L348.281 33.731L351.294 33.662C351.846 30.442 350.673 29.338 344.118 29.338C337.862 29.338 336.758 30.304 336.252 33.156C335.769 35.893 336.758 37.02 342.623 37.48C347.66 37.917 347.959 38.4 347.775 39.55C347.614 40.585 347.085 40.999 342.876 40.999C338.23 40.999 337.701 40.539 337.977 38.952L338.023 38.607L335.079 38.676C334.412 42.517 335.838 43.276 342.715 43.276ZM355.354 34.49C355.124 35.824 354.871 37.158 354.687 38.216C353.997 42.149 355.377 43.115 360.966 43.115C361.909 43.115 362.622 43.069 363.496 43L363.91 40.401C363.013 40.47 362.484 40.493 361.495 40.493C358.068 40.493 357.332 40.148 357.792 37.503L358.735 32.213H365.359L365.819 29.614H359.195C359.402 28.487 359.563 27.613 359.678 26.992L356.642 27.038C356.481 28.073 356.366 28.832 356.205 29.614C355.469 29.614 354.641 29.614 353.79 29.614L353.33 32.213H355.768L355.354 34.49ZM382.727 39.297C382.428 41.022 382.29 41.873 382.06 43H385.188C385.372 41.804 385.464 41.206 385.809 39.274L387.534 29.453H391.72C392.64 29.453 394.204 29.453 395.929 29.476L396.435 26.67H376.563L376.08 29.476C377.805 29.453 379.806 29.453 381.991 29.453H384.475L382.727 39.297ZM395.676 39.32C395.377 41.045 395.216 41.988 395.009 43H398.045C398.183 41.988 398.344 41.091 398.666 39.32L399.149 36.514C399.793 32.857 400.874 32.052 404.646 32.052C408.349 32.052 408.717 32.581 408.303 34.95L408.211 35.387L411.109 35.341C411.201 34.812 411.27 34.444 411.362 34.03C412.006 30.327 411.109 29.338 406.118 29.338C403.082 29.338 401.127 30.097 399.862 31.661L400.184 29.614H397.378C397.24 30.511 397.079 31.385 396.803 32.972L395.676 39.32ZM418.772 43.276C422.452 43.276 424.499 42.563 425.626 41.344L425.373 43H428.087C428.386 41.183 428.593 40.01 428.846 38.63C429.214 36.514 429.375 35.732 429.697 33.915C430.249 30.787 428.984 29.338 422.061 29.338C415.736 29.338 414.264 30.557 413.781 33.593L416.656 33.662C416.886 32.236 417.438 31.776 421.854 31.776C426.385 31.776 426.96 32.42 426.592 34.536L426.316 36.1C425.465 35.203 423.625 34.72 420.198 34.72C414.241 34.72 412.792 35.985 412.24 39.044C411.734 42.057 412.769 43.276 418.772 43.276ZM420.198 40.953C415.759 40.953 415.023 40.447 415.276 38.975C415.529 37.48 416.196 36.859 420.957 36.859C425.534 36.859 426.155 37.457 425.971 38.423L425.879 38.998C425.649 40.332 424.798 40.953 420.198 40.953ZM439.826 43.276C446.588 43.276 448.106 41.758 448.842 37.664L445.898 37.595C445.53 39.734 444.495 40.608 439.964 40.608C435.341 40.608 434.651 39.734 435.226 36.399L435.249 36.215C435.847 32.857 436.859 32.006 441.482 32.006C446.013 32.006 446.68 32.903 446.312 35.019V34.996L449.279 34.927C450.038 30.718 448.405 29.338 441.643 29.338C434.973 29.338 433.179 30.856 432.282 35.962L432.167 36.652C431.27 41.758 433.179 43.276 439.826 43.276ZM451.539 39.136C451.24 40.815 451.056 41.942 450.826 43H453.862C454.023 41.942 454.23 40.815 454.506 39.159L454.805 37.526H458.232C458.807 38.147 459.474 38.814 460.164 39.481L463.752 43H467.501L467.547 42.954C465.776 41.229 462.717 38.17 460.762 36.192C463.384 34.214 467.248 31.339 469.571 29.66L469.525 29.614H465.684L461.613 32.604C460.555 33.363 459.497 34.145 458.554 34.858H455.265L456.185 29.637C456.484 28.004 456.691 26.762 456.898 25.796H453.862C453.701 26.785 453.494 28.004 453.218 29.614L451.539 39.136Z" fill="#0D0E11"/>
</svg>
