<svg width="40" height="40" viewBox="0 0 40 40" fill="none" xmlns="http://www.w3.org/2000/svg">
<path d="M23.177 29.6748C21.9949 29.9813 20.769 30.1272 19.4993 30.1272C14.7271 30.1272 10.4511 27.8944 7.53236 24.3627C5.48921 21.8963 5.48921 18.0873 7.53236 15.6355C7.76586 15.3436 8.02855 15.0663 8.29124 14.7891" stroke="#535559" stroke-width="1.5" stroke-linecap="round" stroke-linejoin="round"/>
<path d="M31.4658 24.3628C30.2983 25.7638 28.9119 26.9605 27.3795 27.8946L11.6035 12.104C13.9239 10.6738 16.6092 9.87109 19.4988 9.87109C24.271 9.87109 28.547 12.104 31.4658 15.6357C33.5089 18.0875 33.5089 21.9111 31.4658 24.3628Z" stroke="#535559" stroke-width="1.5" stroke-linecap="round" stroke-linejoin="round"/>
<path d="M23.9947 19.9988C23.9947 21.2393 23.484 22.363 22.6813 23.1803L16.3184 16.8174C17.121 16.0001 18.2593 15.5039 19.4998 15.5039C21.9954 15.5039 23.9947 17.5033 23.9947 19.9988Z" stroke="#535559" stroke-width="1.5" stroke-linecap="round" stroke-linejoin="round"/>
<path d="M6 6.5L11.6041 12.104L16.3179 16.8179L22.6808 23.1808L27.3946 27.8946L32.9987 33.4987" stroke="#535559" stroke-width="1.5" stroke-linecap="round" stroke-linejoin="round"/>
</svg>
