<svg width="246" height="52" viewBox="0 0 246 52" fill="none" xmlns="http://www.w3.org/2000/svg">
<g id="Group 436">
<rect id="Rectangle 42" width="246" height="52" rx="25.5188" fill="#1E2025"/>
<g id="Upload">
<path d="M85.4303 17.8986H81.8203C81.6876 18.75 81.4753 19.7905 81.2629 20.9493L79.9357 27.5709C79.219 31.1892 77.8653 32.1588 71.4948 32.1588C65.0977 32.1588 64.1421 31.1892 64.8588 27.5709L66.186 20.9257C66.3984 19.7905 66.6107 18.75 66.8231 17.8986H63.2397C63.1069 18.7027 62.8946 19.6959 62.6557 20.9257L62.2841 22.7703C62.0186 24.0473 61.6736 25.7027 61.2489 27.8547C60.1871 33.152 62.3372 35.0203 71.309 35.0203C80.3073 35.0203 82.4043 33.152 83.4395 27.8547C83.8642 25.7027 84.1827 24.0473 84.4216 22.7703L84.7667 20.973C85.0321 19.6959 85.2445 18.7027 85.4303 17.8986Z" fill="#4F4F4F"/>
<path d="M86.4396 34.6892C86.1476 36.1081 85.9087 37.2905 85.7495 38H89.2798C89.439 37.0068 89.8107 35.0912 90.315 32.6554C91.2971 34.1926 93.5003 34.973 97.3226 34.973C104.489 34.973 106.454 33.4595 107.515 28.1622L107.648 27.4527C108.657 22.2027 106.719 20.6419 99.685 20.6419C95.8892 20.6419 93.5533 21.4223 92.0669 22.9595L92.465 20.9257H89.1471C88.9613 21.9189 88.7755 22.7939 88.5631 23.9291L86.4396 34.6892ZM91.2175 27.902L91.2706 27.7128C91.9076 24.402 93.1817 23.4324 98.517 23.4324C103.879 23.4324 104.781 24.2838 104.118 27.7128L104.065 27.902C103.375 31.3074 102.154 32.1824 96.659 32.1824C91.4564 32.1824 90.5539 31.2365 91.2175 27.902Z" fill="#4F4F4F"/>
<path d="M110.489 30.7162C110.144 32.4426 109.932 33.6014 109.666 34.6892H113.17C113.356 33.6014 113.595 32.4426 113.913 30.7399L115.851 20.9493C116.196 19.2703 116.435 17.9932 116.674 17H113.17C112.984 18.0169 112.745 19.2703 112.427 20.9257L110.489 30.7162Z" fill="#4F4F4F"/>
<path d="M126.809 34.973C134.72 34.973 136.71 33.4122 137.746 28.1622L137.878 27.4527C138.913 22.2027 136.87 20.6419 128.986 20.6419C121.076 20.6419 119.085 22.2027 118.05 27.4527L117.917 28.1622C116.882 33.4122 118.926 34.973 126.809 34.973ZM126.995 32.2297C121.58 32.2297 120.784 31.3311 121.448 27.902L121.474 27.7128C122.164 24.2601 123.332 23.3851 128.774 23.3851C134.189 23.3851 135.038 24.2601 134.321 27.7128L134.295 27.902C133.631 31.3311 132.437 32.2297 126.995 32.2297Z" fill="#4F4F4F"/>
<path d="M147.535 34.973C151.782 34.973 154.145 34.2399 155.446 32.9865L155.154 34.6892H158.286C158.631 32.8209 158.87 31.6149 159.162 30.1959C159.586 28.0203 159.772 27.2162 160.144 25.348C160.781 22.1318 159.321 20.6419 151.331 20.6419C144.032 20.6419 142.333 21.8953 141.775 25.0169L145.093 25.0878C145.359 23.6216 145.996 23.1486 151.092 23.1486C156.321 23.1486 156.985 23.8108 156.56 25.9865L156.242 27.5946C155.26 26.6723 153.136 26.1757 149.181 26.1757C142.306 26.1757 140.634 27.4764 139.997 30.6216C139.413 33.7196 140.607 34.973 147.535 34.973ZM149.181 32.5845C144.058 32.5845 143.209 32.0642 143.501 30.5507C143.793 29.0135 144.563 28.375 150.057 28.375C155.339 28.375 156.056 28.9899 155.844 29.9831L155.737 30.5743C155.472 31.9459 154.49 32.5845 149.181 32.5845Z" fill="#4F4F4F"/>
<path d="M170.958 34.973C174.781 34.973 177.116 34.1689 178.603 32.6081L178.231 34.6892H181.496C181.709 33.5304 181.868 32.7264 182.213 30.9054L184.177 20.9257C184.522 19.223 184.761 17.9932 185 17H181.443C181.284 17.9932 180.806 20.5236 180.328 22.9358C179.32 21.4223 177.116 20.6419 173.294 20.6419C166.154 20.6419 164.163 22.1554 163.128 27.4527L162.995 28.1622C161.96 33.4122 163.924 34.973 170.958 34.973ZM172.126 32.1824C166.738 32.1824 165.862 31.3074 166.525 27.902L166.552 27.7128C167.242 24.2838 168.49 23.4324 173.984 23.4324C179.187 23.4324 180.089 24.3784 179.426 27.7128L179.373 27.902C178.709 31.2128 177.435 32.1824 172.126 32.1824Z" fill="#4F4F4F"/>
</g>
</g>
</svg>
