<svg width="559" height="67" viewBox="0 0 559 67" fill="none" xmlns="http://www.w3.org/2000/svg">
<rect width="559" height="67" rx="33.5" fill="#313338"/>
<path d="M252.775 43.322C260.48 43.322 261.722 42.034 262.366 38.492C262.872 35.318 261.791 33.846 254.178 33.317C248.129 32.926 247.646 32.42 247.899 30.925C248.129 29.522 248.98 28.947 253.971 28.947C259.399 28.947 260.181 29.453 259.882 31.017L259.813 31.477L262.826 31.408L262.872 31.086C263.493 27.682 262.228 26.348 254.247 26.348C246.749 26.348 245.346 27.751 244.748 31.132C244.173 34.421 245.208 35.525 252.913 36.077C258.893 36.537 259.514 37.089 259.261 38.584V38.607C258.985 40.171 258.295 40.7 252.982 40.7C246.933 40.7 246.013 40.309 246.335 38.446L246.427 37.917L243.414 37.986L243.345 38.354C242.632 42.333 244.311 43.322 252.775 43.322ZM271.193 43.276C274.873 43.276 276.92 42.563 278.047 41.344L277.794 43H280.508C280.807 41.183 281.014 40.01 281.267 38.63C281.635 36.514 281.796 35.732 282.118 33.915C282.67 30.787 281.405 29.338 274.482 29.338C268.157 29.338 266.685 30.557 266.202 33.593L269.077 33.662C269.307 32.236 269.859 31.776 274.275 31.776C278.806 31.776 279.381 32.42 279.013 34.536L278.737 36.1C277.886 35.203 276.046 34.72 272.619 34.72C266.662 34.72 265.213 35.985 264.661 39.044C264.155 42.057 265.19 43.276 271.193 43.276ZM272.619 40.953C268.18 40.953 267.444 40.447 267.697 38.975C267.95 37.48 268.617 36.859 273.378 36.859C277.955 36.859 278.576 37.457 278.392 38.423L278.3 38.998C278.07 40.332 277.219 40.953 272.619 40.953ZM293.526 43C295.665 39.734 300.265 32.742 302.381 29.614H298.954L295.228 35.364C294.147 37.02 293.089 38.699 292.192 40.148H290.559C290.168 38.699 289.685 36.997 289.202 35.341L287.523 29.614H284.349C285.338 32.742 287.523 40.079 288.374 43H293.526ZM309.59 43.276C316.49 43.276 317.755 41.942 318.353 38.561L315.409 38.469C315.133 40.033 314.443 40.769 309.728 40.769C305.289 40.769 304.415 39.987 304.76 37.181H318.583C318.652 36.836 318.744 36.422 318.813 35.962C319.595 31.017 318.031 29.338 311.338 29.338C304.622 29.338 302.828 30.856 301.931 35.962L301.816 36.652C300.942 41.597 302.759 43.276 309.59 43.276ZM311.2 31.638C315.547 31.638 316.237 32.443 315.869 35.042H305.151C305.795 32.351 306.968 31.638 311.2 31.638Z" fill="white"/>
</svg>
