<svg width="52" height="52" viewBox="0 0 52 52" fill="none" xmlns="http://www.w3.org/2000/svg">
<circle cx="26" cy="26" r="25" stroke="white" stroke-width="2"/>
<path d="M34.3275 24.6234L34.3303 24.625C34.6915 24.8368 35 25.351 35 26.0185C35 26.6633 34.696 27.1618 34.3179 27.3835L34.3151 27.3852L21.6487 34.8677L21.6487 34.8677L21.643 34.8711C21.4996 34.9571 21.3329 35 21.1668 35C21.0042 35 20.8058 34.9441 20.6136 34.8096L20.6115 34.8081C20.2603 34.5635 20 34.0921 20 33.4868V18.5075C20 17.9022 20.2603 17.4308 20.6115 17.1862C20.9476 16.9522 21.3189 16.9404 21.6624 17.1417C21.6628 17.1419 21.6631 17.142 21.6634 17.1422L34.3275 24.6234Z" stroke="white" stroke-width="2"/>
</svg>
