<svg width="41" height="41" viewBox="0 0 41 41" fill="none" xmlns="http://www.w3.org/2000/svg">
<path d="M24.9381 20.537C26.2578 20.6892 27.5914 20.4122 28.7414 19.747C29.8913 19.0818 30.7963 18.0638 31.3222 16.8438C31.8482 15.6239 31.9671 14.267 31.6613 12.9742C31.3555 11.6814 30.6413 10.5215 29.6246 9.66644C28.6079 8.81139 27.3427 8.30667 26.0166 8.2271C24.6905 8.14753 23.3741 8.49733 22.2624 9.22467C21.1507 9.952 20.303 11.0182 19.8448 12.2651C19.3866 13.5121 19.3424 14.8735 19.7187 16.1476" stroke="#9EA1AB" stroke-width="1.5" stroke-linecap="round" stroke-linejoin="round"/>
<path d="M19.4704 15.7387L25.4535 20.769L14.083 32.3839C12.9853 33.5053 11.2087 33.5906 10.0085 32.5797C8.77602 31.5415 8.58441 29.7149 9.57461 28.4436L19.4704 15.7387Z" stroke="#9EA1AB" stroke-width="1.5" stroke-linecap="round" stroke-linejoin="round"/>
<path d="M10.8877 26.5797L15.6147 30.8902" stroke="#9EA1AB" stroke-width="1.5" stroke-linecap="round"/>
</svg>
