<svg width="30" height="30" viewBox="0 0 30 30" fill="none" xmlns="http://www.w3.org/2000/svg">
<g id="btn_filter">
<path id="Vector" d="M22.422 9.35742L22.4387 9.34226L22.4542 9.32596C23.0136 8.73748 23.1549 7.91591 22.8228 7.18187C22.4931 6.45287 21.78 6 20.9619 6H8.03736C7.23417 6 6.52648 6.44126 6.19041 7.15154C5.85199 7.86685 5.97049 8.68109 6.49963 9.27653L6.51969 9.2991L12.3179 14.6485L12.3599 20.9044C12.3621 21.2352 12.6395 21.5019 12.9804 21.5019L12.9845 21.5019C13.3272 21.4997 13.6032 21.2287 13.601 20.8966L13.5555 14.1297L7.42292 8.47177C7.22588 8.23607 7.18657 7.93186 7.31858 7.65286C7.45192 7.37103 7.72064 7.20278 8.03738 7.20278H20.9619C21.2846 7.20278 21.5553 7.3755 21.6862 7.66479C21.8167 7.95327 21.7674 8.26279 21.5548 8.49665L15.2639 14.2065L15.2908 23.4003C15.2918 23.7319 15.5694 24 15.9113 24H15.9131C16.2558 23.9991 16.5329 23.729 16.5319 23.3969L16.5065 14.7265L22.422 9.35742Z" fill="#62656C"/>
<path id="Vector_2" d="M18 16.6033C18 16.9352 18.2665 17.2067 18.5923 17.2067H23.4077C23.7335 17.2067 24 16.9352 24 16.6033C24 16.2715 23.7335 16 23.4077 16H18.5923C18.2665 16 18 16.2715 18 16.6033ZM23.4077 19.3967H18.5923C18.2665 19.3967 18 19.6682 18 20C18 20.3318 18.2665 20.6033 18.5923 20.6033H23.4077C23.7335 20.6033 24 20.3318 24 20C24 19.6682 23.7335 19.3967 23.4077 19.3967ZM23.4077 22.7933H18.5923C18.2665 22.7933 18 23.0648 18 23.3967C18 23.7285 18.2665 24 18.5923 24H23.4077C23.7335 24 24 23.7285 24 23.3967C24 23.0648 23.7335 22.7933 23.4077 22.7933Z" fill="#62656C"/>
</g>
</svg>
