<svg xmlns="http://www.w3.org/2000/svg" width="18" height="18" viewBox="0 0 18 18" fill="none">
  <circle cx="9" cy="9" r="7.75" stroke="#62656C"/>
  <path d="M8.53483 7.33301H9.51921L9.60124 13.4268H8.4528L8.53483 7.33301ZM9.77702 5.18303C9.78092 5.31584 9.74967 5.43889 9.68327 5.55217C9.61296 5.66936 9.52116 5.76116 9.40788 5.82756C9.29069 5.89787 9.16374 5.93303 9.02702 5.93303C8.89421 5.93303 8.77116 5.89983 8.65788 5.83342C8.54069 5.76701 8.44889 5.67717 8.38249 5.56389C8.31217 5.45061 8.27702 5.32756 8.27702 5.19475C8.27702 4.98381 8.34928 4.80217 8.49381 4.64983C8.63835 4.50139 8.81608 4.42522 9.02702 4.42131C9.16374 4.42131 9.29069 4.45647 9.40788 4.52678C9.52116 4.59709 9.61296 4.68889 9.68327 4.80217C9.74967 4.91936 9.78092 5.04631 9.77702 5.18303Z" fill="#62656C"/>
</svg>