<svg width="112" height="11" viewBox="0 0 112 11" fill="none" xmlns="http://www.w3.org/2000/svg">
<g id="Group 1129" filter="url(#filter0_b_6493_3056)">
<path id="Vector 3" d="M11.2048 10.9995C15.2467 6.16565 4.55355 3.8479 0 3.67438L0.613962 0.439453H19.1351L18.3165 3.67438H10.949C17.7026 5.42199 17.0374 9.72283 16.0653 10.9995H11.2048Z" fill="#5200FF"/>
<g id="Subtract">
<path d="M19.5559 8.39599C19.3816 9.39293 19.2655 10.1369 19.1348 10.7767H22.6198C22.7215 10.122 22.8522 9.37805 23.0119 8.39599L23.041 8.18768H32.4951L32.9307 8.99118C33.2792 9.64589 33.5987 10.2708 33.831 10.7767H37.592C37.2 10.0328 36.7934 9.24414 36.4158 8.47039C36.227 8.11328 36.0383 7.75616 35.835 7.39905C37.5049 6.93778 38.2455 6.03012 38.5504 4.2148C39.0441 1.35789 37.4759 0.212152 33.773 0.212152H20.9499C20.8773 0.732942 20.7757 1.28349 20.6595 1.99772L19.5559 8.39599ZM33.3664 3.12858C34.8185 3.12858 35.1815 3.45593 35.0508 4.2148C34.9201 4.97366 34.4409 5.33077 32.9888 5.33077H23.5347L23.9267 3.12858H33.3664Z" fill="#5200FF"/>
<path d="M44.2634 0.212152C42.8404 2.62266 39.7847 8.75311 38.5504 10.7767H42.4566L43.1972 9.39293H53.3975L53.6879 10.7767H57.2456C56.7083 8.75311 55.1836 2.62266 54.6028 0.212152H44.2634ZM44.7364 6.55091C45.3172 5.46469 45.5836 4.34871 46.1209 3.30713H52.1777C52.3665 4.37847 52.5989 5.52421 52.8312 6.62531H44.6928L44.7364 6.55091Z" fill="#5200FF"/>
<path d="M68.305 10.9851C73.8957 10.9851 75.7689 10.0328 76.3643 6.29795L72.9227 6.23844C72.734 7.36929 71.7175 7.90496 68.6245 7.90496C65.6767 7.90496 61.3295 7.95365 61.6634 6.00441V4.9839C62.0119 3.01978 65.6767 3.08395 68.6245 3.08395C71.7611 3.08395 73.3584 3.57497 73.1551 4.75047L76.6111 4.69095C77.192 1.2091 74.5927 0.00384341 69.002 0.00384341C63.4259 0.00384341 58.9336 -0.331251 58.1493 5.25638V6.00441C58.5602 11.5321 62.7289 10.9851 68.305 10.9851Z" fill="#5200FF"/>
<path d="M78.0544 8.39599C77.8802 9.39293 77.764 10.122 77.6333 10.7767H81.1184C81.22 10.1072 81.3507 9.37805 81.5104 8.39599L81.7863 6.81874H86.7004C87.3103 7.60737 87.7895 8.23232 88.1525 8.72335L89.7353 10.7767H93.9029L93.9174 10.747C93.0316 9.67565 90.8535 6.87826 89.5756 5.21174C91.3617 3.66425 94.1788 1.22397 95.3405 0.241912L95.326 0.212152H90.9696L88.3413 2.62266C87.9202 2.99466 87.4555 3.42617 86.8892 3.9172H82.2801L82.614 1.99772C82.7447 1.25373 82.8319 0.762701 82.9335 0.212152H79.4484C79.3758 0.747821 79.2742 1.28349 79.158 1.99772L78.0544 8.39599Z" fill="#5200FF"/>
<path d="M95.8683 4.0762L95.3455 7.11166H100.681L101.203 4.0762H95.8683Z" fill="#5200FF"/>
</g>
<path id="1" d="M111.361 11H103.33L103.803 8.184H106.661L107.495 3.19497L104.438 4.10766L104.929 1.29166L108.876 0H111.412L110.025 8.184H111.835L111.361 11Z" fill="#5200FF"/>
</g>
<defs>
<filter id="filter0_b_6493_3056" x="-70" y="-70" width="251.835" height="151" filterUnits="userSpaceOnUse" color-interpolation-filters="sRGB">
<feFlood flood-opacity="0" result="BackgroundImageFix"/>
<feGaussianBlur in="BackgroundImageFix" stdDeviation="35"/>
<feComposite in2="SourceAlpha" operator="in" result="effect1_backgroundBlur_6493_3056"/>
<feBlend mode="normal" in="SourceGraphic" in2="effect1_backgroundBlur_6493_3056" result="shape"/>
</filter>
</defs>
</svg>
