<svg width="31" height="9" viewBox="0 0 31 9" fill="none" xmlns="http://www.w3.org/2000/svg">
<g id="more">
<path id="Vector" d="M27.3242 8.15039C26.6178 8.15039 26.0026 7.99316 25.4785 7.67871C24.9544 7.36426 24.5511 6.91992 24.2686 6.3457C23.9906 5.77148 23.8516 5.10612 23.8516 4.34961C23.8516 3.5931 23.9906 2.92318 24.2686 2.33984C24.5511 1.75195 24.9453 1.29622 25.4512 0.972656C25.9616 0.644531 26.5495 0.480469 27.2148 0.480469C27.7754 0.480469 28.2972 0.605794 28.7803 0.856445C29.2633 1.10254 29.6553 1.50358 29.9561 2.05957C30.2614 2.611 30.4141 3.31966 30.4141 4.18555V4.67773H25.0273C25.0456 5.19271 25.1527 5.63249 25.3486 5.99707C25.5492 6.36165 25.818 6.63965 26.1553 6.83105C26.4925 7.0179 26.8822 7.11133 27.3242 7.11133C27.7435 7.11133 28.0967 7.03385 28.3838 6.87891C28.6755 6.7194 28.8965 6.51432 29.0469 6.26367H30.3047C30.1862 6.64193 29.988 6.97461 29.71 7.26172C29.4365 7.54427 29.0947 7.76302 28.6846 7.91797C28.279 8.07292 27.8255 8.15039 27.3242 8.15039ZM29.2246 3.67969C29.2246 3.26953 29.1403 2.90039 28.9717 2.57227C28.8076 2.24414 28.5729 1.98665 28.2676 1.7998C27.9668 1.61296 27.6159 1.51953 27.2148 1.51953C26.8001 1.51953 26.431 1.61751 26.1074 1.81348C25.7884 2.00944 25.5355 2.27376 25.3486 2.60645C25.1663 2.93457 25.0615 3.29232 25.0342 3.67969H29.2246Z" fill="#9EA1AB"/>
<path id="Vector_2" d="M19.6992 0.576172H20.834V1.71094H20.916C21.0482 1.33724 21.2897 1.03646 21.6406 0.808594C21.9961 0.576172 22.3926 0.457682 22.8301 0.453125C22.8939 0.453125 22.944 0.455404 22.9805 0.459961C23.0352 0.459961 23.1149 0.46224 23.2197 0.466797C23.3245 0.471354 23.3997 0.475911 23.4453 0.480469V1.66992C23.2083 1.61523 22.9714 1.58789 22.7344 1.58789C22.3835 1.58789 22.0667 1.66309 21.7842 1.81348C21.5016 1.96387 21.2783 2.17122 21.1143 2.43555C20.9548 2.69987 20.875 2.99609 20.875 3.32422V8H19.6992V0.576172Z" fill="#9EA1AB"/>
<path id="Vector_3" d="M14.9297 8.15039C14.2598 8.15039 13.6673 7.99316 13.1523 7.67871C12.6419 7.3597 12.2454 6.91081 11.9629 6.33203C11.6803 5.75326 11.5391 5.08333 11.5391 4.32227C11.5391 3.55664 11.6803 2.88444 11.9629 2.30566C12.2454 1.72689 12.6419 1.27799 13.1523 0.958984C13.6673 0.639974 14.2598 0.480469 14.9297 0.480469C15.5951 0.480469 16.1829 0.639974 16.6934 0.958984C17.2038 1.27799 17.598 1.72689 17.876 2.30566C18.154 2.88444 18.293 3.55664 18.293 4.32227C18.293 5.08333 18.154 5.75326 17.876 6.33203C17.598 6.91081 17.2038 7.3597 16.6934 7.67871C16.1829 7.99316 15.5951 8.15039 14.9297 8.15039ZM12.7148 4.32227C12.7194 4.83268 12.8014 5.2998 12.9609 5.72363C13.125 6.14746 13.3734 6.4847 13.7061 6.73535C14.0387 6.986 14.4466 7.11133 14.9297 7.11133C15.4082 7.11133 15.8115 6.986 16.1396 6.73535C16.4678 6.4847 16.7116 6.14746 16.8711 5.72363C17.0352 5.2998 17.1172 4.83268 17.1172 4.32227C17.1172 3.81185 17.0352 3.34473 16.8711 2.9209C16.7116 2.49707 16.4678 2.15755 16.1396 1.90234C15.8115 1.64714 15.4082 1.51953 14.9297 1.51953C14.4466 1.51953 14.0387 1.64714 13.7061 1.90234C13.3734 2.15755 13.125 2.49707 12.9609 2.9209C12.8014 3.34473 12.7194 3.81185 12.7148 4.32227Z" fill="#9EA1AB"/>
<path id="Vector_4" d="M0.359375 0.576172H1.49414V1.73828H1.58984C1.74479 1.3418 1.99544 1.03418 2.3418 0.81543C2.68815 0.592122 3.10286 0.480469 3.58594 0.480469C4.06445 0.480469 4.47005 0.589844 4.80273 0.808594C5.13542 1.02279 5.39062 1.33268 5.56836 1.73828H5.65039C5.8418 1.34635 6.12891 1.03874 6.51172 0.81543C6.89909 0.592122 7.35482 0.480469 7.87891 0.480469C8.33008 0.480469 8.72428 0.573893 9.06152 0.760742C9.40332 0.947591 9.66992 1.23242 9.86133 1.61523C10.0527 1.99805 10.1484 2.47201 10.1484 3.03711V8H8.97266V3.05078C8.9681 2.53581 8.82682 2.15527 8.54883 1.90918C8.27083 1.65853 7.91081 1.5332 7.46875 1.5332C7.13151 1.5332 6.83984 1.60384 6.59375 1.74512C6.35221 1.88639 6.16764 2.08008 6.04004 2.32617C5.91244 2.57227 5.84635 2.85482 5.8418 3.17383V8H4.65234V2.92773C4.65234 2.6543 4.59082 2.41276 4.46777 2.20312C4.34928 1.98893 4.17839 1.82487 3.95508 1.71094C3.73633 1.59245 3.48568 1.5332 3.20312 1.5332C2.9069 1.5332 2.63118 1.61296 2.37598 1.77246C2.12077 1.92741 1.91569 2.14388 1.76074 2.42188C1.61035 2.69987 1.53516 3.01432 1.53516 3.36523V8H0.359375V0.576172Z" fill="#9EA1AB"/>
</g>
</svg>
