<svg width="16" height="20" viewBox="0 0 16 20" fill="none" xmlns="http://www.w3.org/2000/svg">
<g id="Vector">
<path id="Vector-11" fillRule="evenodd" clipRule="evenodd" d="M11.4375 4.6875C11.4375 6.58598 9.89848 8.125 8 8.125C6.10152 8.125 4.5625 6.58598 4.5625 4.6875C4.5625 2.78902 6.10152 1.25 8 1.25C9.89848 1.25 11.4375 2.78902 11.4375 4.6875Z" stroke="white" stroke-width="1.5" stroke-linecap="round" stroke-linejoin="round"/>
<path id="Vector-12" d="M1.87467 14.6766C1.86238 14.2626 1.51679 13.9369 1.10275 13.9492C0.688723 13.9615 0.363044 14.3071 0.37533 14.7211L1.87467 14.6766ZM5.35625 18.6914V17.9414C5.34915 17.9414 5.34206 17.9415 5.33497 17.9417L5.35625 18.6914ZM10.6437 18.6914L10.665 17.9417C10.6579 17.9415 10.6508 17.9414 10.6438 17.9414L10.6437 18.6914ZM15.6247 14.7211C15.637 14.3071 15.3113 13.9615 14.8972 13.9492C14.4832 13.9369 14.1376 14.2626 14.1253 14.6766L15.6247 14.7211ZM14.1253 14.5399C14.1376 14.9539 14.4832 15.2796 14.8972 15.2673C15.3113 15.255 15.637 14.9094 15.6247 14.4954L14.1253 14.5399ZM10.6437 10.5251V11.2751C10.6508 11.2751 10.6579 11.275 10.665 11.2748L10.6437 10.5251ZM5.35625 10.5251L5.33497 11.2748C5.34206 11.275 5.34915 11.2751 5.35625 11.2751V10.5251ZM0.37533 14.4954C0.363044 14.9094 0.688723 15.255 1.10275 15.2673C1.51679 15.2796 1.86238 14.9539 1.87467 14.5399L0.37533 14.4954ZM0.37533 14.7211C0.454973 17.4051 2.6935 19.5173 5.37753 19.4411L5.33497 17.9417C3.47827 17.9944 1.92976 16.5333 1.87467 14.6766L0.37533 14.7211ZM5.35625 19.4414H10.6437V17.9414H5.35625V19.4414ZM10.6225 19.4411C13.3065 19.5173 15.545 17.4051 15.6247 14.7211L14.1253 14.6766C14.0702 16.5333 12.5217 17.9944 10.665 17.9417L10.6225 19.4411ZM15.6247 14.4954C15.545 11.8114 13.3065 9.69923 10.6225 9.77543L10.665 11.2748C12.5217 11.2221 14.0702 12.6832 14.1253 14.5399L15.6247 14.4954ZM10.6437 9.77513H5.35625V11.2751H10.6437V9.77513ZM5.37753 9.77543C2.6935 9.69923 0.454973 11.8114 0.37533 14.4954L1.87467 14.5399C1.92976 12.6832 3.47827 11.2221 5.33497 11.2748L5.37753 9.77543Z" fill="white"/>
</g>
</svg>
