<svg width="28" height="28" viewBox="0 0 28 28" xmlns="http://www.w3.org/2000/svg">
<g id="btn_reset">
<path id="Vector" d="M4.96773 15.5785L6.69791 15.3402C6.62345 14.7977 6.59827 14.2496 6.62268 13.7025L4.87791 13.625C4.84885 14.2775 4.87891 14.9314 4.96773 15.5785Z" />
<path id="Vector_2" d="M15.5637 24.7973C17.0072 24.7973 18.408 24.5144 19.7272 23.9564C21.0009 23.4177 22.1446 22.6466 23.1266 21.6646C24.1085 20.6827 24.8796 19.5389 25.4184 18.2652C25.9763 16.946 26.2592 15.5453 26.2592 14.1018C26.2592 12.6583 25.9763 11.2575 25.4184 9.93832C24.8796 8.66462 24.1085 7.52088 23.1266 6.53891C22.1446 5.55695 21.0009 4.78588 19.7272 4.24713C18.408 3.68918 17.0072 3.40625 15.5637 3.40625C12.7909 3.40625 10.162 4.46292 8.16144 6.38161C6.16704 8.29436 5.00127 10.8649 4.87891 13.6197L6.62368 13.6972C6.8365 8.90595 10.7634 5.15278 15.5637 5.15278C20.4982 5.15278 24.5127 9.1673 24.5127 14.1018C24.5127 19.0363 20.4982 23.0508 15.5637 23.0508C13.6599 23.0508 11.8425 22.4612 10.308 21.3457L9.28109 22.7584C11.116 24.0923 13.2885 24.7973 15.5637 24.7973Z" />
<path id="Vector_3" d="M6.08025 17.2099C6.30373 17.2099 6.52721 17.1246 6.6977 16.9541L9.90329 13.7485C10.2443 13.4075 10.2443 12.8546 9.90329 12.5136C9.56229 12.1726 9.00937 12.1726 8.66837 12.5136L5.4628 15.7191C5.12177 16.0602 5.12177 16.6131 5.4628 16.9541C5.63332 17.1246 5.8568 17.2099 6.08025 17.2099Z" />
<path id="Vector_4" d="M5.89522 17.2645C6.11873 17.2645 6.34215 17.1793 6.51267 17.0088C6.8537 16.6678 6.8537 16.1148 6.51267 15.7738L3.30711 12.5683C2.96613 12.2272 2.41321 12.2272 2.07218 12.5683C1.73115 12.9093 1.73115 13.4622 2.07218 13.8032L5.27777 17.0088C5.44823 17.1793 5.67177 17.2645 5.89522 17.2645Z" />
</g>
</svg>
