<svg width="111" height="57" viewBox="0 0 111 57" fill="none" xmlns="http://www.w3.org/2000/svg">
<path fillRule="evenodd" clipRule="evenodd" d="M60.1333 11.0946C60.1333 11.5211 60.479 11.8668 60.9055 11.8668C61.332 11.8668 61.6777 11.5211 61.6777 11.0946C61.6777 10.6681 61.332 10.3224 60.9055 10.3224C60.479 10.3224 60.1333 10.6681 60.1333 11.0946Z" stroke="white" stroke-width="1.16848" stroke-linecap="round" stroke-linejoin="round"/>
<path d="M65.7269 14.9556C65.7269 15.2783 65.9885 15.5398 66.3111 15.5398C66.6338 15.5398 66.8954 15.2783 66.8954 14.9556H65.7269ZM44.689 21.1334L45.2732 21.1341V21.1334H44.689ZM45.4458 25.1744C45.6391 25.4329 46.0052 25.4857 46.2636 25.2925C46.522 25.0992 46.5748 24.7331 46.3816 24.4747L45.4458 25.1744ZM66.8964 14.9557C66.8964 14.633 66.6348 14.3714 66.3121 14.3714C65.9895 14.3714 65.7279 14.633 65.7279 14.9557H66.8964ZM50.8678 27.3112V26.7269H50.8674L50.8678 27.3112ZM46.3835 24.4759C46.1909 24.217 45.8249 24.1633 45.566 24.3559C45.3071 24.5485 45.2534 24.9145 45.446 25.1734L46.3835 24.4759ZM66.7046 15.3885C66.9436 15.1718 66.9617 14.8023 66.745 14.5632C66.5283 14.3242 66.1588 14.3061 65.9197 14.5228L66.7046 15.3885ZM59.0533 21.5365L58.6609 21.1037L58.6569 21.1073L59.0533 21.5365ZM57.8786 21.9411L57.8306 22.5234L57.8786 21.9411ZM56.786 21.3496L57.2473 20.9911L57.2471 20.9908L56.786 21.3496ZM53.6833 17.3634L54.1443 17.0046L54.1434 17.0035L53.6833 17.3634ZM52.435 16.7709L52.4229 16.1868L52.435 16.7709ZM51.2122 17.4144L50.7375 17.0737L50.7369 17.0746L51.2122 17.4144ZM45.4395 24.4849C45.2518 24.7473 45.3125 25.1123 45.575 25.2999C45.8375 25.4876 46.2024 25.4269 46.39 25.1644L45.4395 24.4849ZM66.8954 14.9556V11.8667H65.7269V14.9556H66.8954ZM66.8954 11.8667C66.8954 8.13218 63.8679 5.10473 60.1334 5.10473V6.2732C63.2226 6.2732 65.7269 8.77751 65.7269 11.8667H66.8954ZM60.1334 5.10473H50.8667V6.2732H60.1334V5.10473ZM50.8667 5.10473C47.1322 5.10473 44.1047 8.13218 44.1047 11.8667H45.2732C45.2732 8.77751 47.7775 6.2732 50.8667 6.2732V5.10473ZM44.1047 11.8667V21.1334H45.2732V11.8667H44.1047ZM44.1047 21.1326C44.1028 22.5895 44.5733 24.0077 45.4458 25.1744L46.3816 24.4747C45.6605 23.5104 45.2716 22.3382 45.2732 21.1341L44.1047 21.1326ZM65.7279 14.9557V21.1334H66.8964V14.9557H65.7279ZM65.7279 21.1334C65.7279 24.2226 63.2236 26.7269 60.1344 26.7269V27.8954C63.8689 27.8954 66.8964 24.868 66.8964 21.1334H65.7279ZM60.1344 26.7269H50.8678V27.8954H60.1344V26.7269ZM50.8674 26.7269C49.1008 26.7281 47.4379 25.8932 46.3835 24.4759L45.446 25.1734C46.7211 26.8873 48.7319 27.8968 50.8681 27.8954L50.8674 26.7269ZM65.9197 14.5228L58.6609 21.1037L59.4457 21.9694L66.7046 15.3885L65.9197 14.5228ZM58.6569 21.1073C58.4594 21.2897 58.1945 21.3809 57.9266 21.3588L57.8306 22.5234C58.4246 22.5723 59.0118 22.37 59.4496 21.9657L58.6569 21.1073ZM57.9266 21.3588C57.6587 21.3367 57.4123 21.2034 57.2473 20.9911L56.3247 21.7082C56.6905 22.1787 57.2367 22.4744 57.8306 22.5234L57.9266 21.3588ZM57.2471 20.9908L54.1443 17.0046L53.2222 17.7223L56.325 21.7085L57.2471 20.9908ZM54.1434 17.0035C53.7305 16.4756 53.093 16.173 52.4229 16.1868L52.447 17.355C52.7493 17.3488 53.0368 17.4853 53.2231 17.7234L54.1434 17.0035ZM52.4229 16.1868C51.7528 16.2006 51.1284 16.5292 50.7375 17.0737L51.6868 17.7551C51.8631 17.5095 52.1448 17.3613 52.447 17.355L52.4229 16.1868ZM50.7369 17.0746L45.4395 24.4849L46.39 25.1644L51.6874 17.7542L50.7369 17.0746Z" fill="white"/>
<path d="M2.223 50.0272C2.223 47.55 2.97083 46.8723 5.33115 46.8723C6.63985 46.8723 8.3692 47.106 9.56104 47.363L9.85316 46.4633C8.63795 46.2062 6.86186 45.9726 5.24936 45.9726C1.8374 45.9726 1.15969 47.6785 1.15969 50.0272C1.15969 52.3758 1.82572 54.1402 5.19094 54.1168C6.95534 54.1052 8.61458 53.8948 9.95833 53.5793L9.67789 52.6679C8.50941 52.9951 6.94365 53.2171 5.33115 53.2171C3.09936 53.2171 2.223 52.3524 2.223 50.0272ZM12.4315 49.7935C13.0858 48.9872 14.2193 48.4614 15.528 48.4614H15.9136C17.9116 48.4614 18.7179 49.2677 18.7179 50.6465V54H19.7695V50.5764C19.7695 48.5899 18.1804 47.5734 15.9136 47.5734H15.528C14.3011 47.5734 13.0391 48.0408 12.4315 48.6717V45.4935H11.3915V54H12.4315V49.7935ZM28.7752 54.0584V50.0856C28.7752 48.5432 27.9573 47.55 25.223 47.5734C23.8325 47.5851 22.7342 47.7253 21.6475 47.994L21.9279 48.8821C22.9562 48.625 24.1247 48.4614 25.2931 48.4614C27.1627 48.4614 27.7353 48.8587 27.7353 50.0973V50.4478C26.9407 50.1791 25.6554 50.0272 24.8491 50.0272H24.4518C21.9513 50.0272 21.2969 50.8217 21.2969 51.9552V52.1421C21.2969 53.2522 22.2668 54.0584 24.4635 54.0584H24.8491C25.8774 54.0584 27.0225 53.7897 27.7353 53.2405V54.0584H28.7752ZM24.4518 53.1704C22.7575 53.1704 22.3369 52.7147 22.3369 52.1421V51.8967C22.3369 51.3242 22.7575 50.9152 24.4518 50.9152H24.8491C25.8306 50.9152 26.8706 51.0321 27.7353 51.3592V52.3875C26.9524 52.9133 25.854 53.1704 24.8491 53.1704H24.4518ZM30.7445 47.6318V54H31.7844V50.0856C32.4621 49.1391 33.5722 48.4614 34.8809 48.4614H35.2665C37.2646 48.4614 38.0708 49.2677 38.0708 50.6465V54H39.1225V50.5764C39.1225 48.5899 37.5333 47.5734 35.2665 47.5734H34.8809C33.654 47.5734 32.4504 48.1109 31.7844 48.9054V47.6318H30.7445ZM48.0716 52.9484C48.0716 54.2454 47.1719 55.0283 44.5078 55.0283C43.1056 55.0283 41.9839 54.8413 41.0023 54.5492L41.2243 55.5307C42.1474 55.7761 43.4211 55.9163 44.5078 55.9163C47.6743 55.9163 49.1116 54.8647 49.1116 53.112V47.6318H48.0716V48.6133C47.464 47.9823 46.1436 47.5149 44.9167 47.5149H44.5311C42.2643 47.5149 40.6167 48.3562 40.6167 50.3427V50.7633C40.6167 52.7497 42.2643 53.4742 44.5311 53.4742H44.9167C46.2488 53.4742 47.464 52.8549 48.0716 52.2005V52.9484ZM48.0716 51.0788C47.4407 52.0019 46.2254 52.5861 44.9167 52.5861H44.5311C42.5915 52.5861 41.6684 52.2239 41.6684 50.7516V50.3543C41.6684 48.9755 42.533 48.403 44.5311 48.403H44.9167C46.2254 48.403 47.4173 48.9288 48.0716 49.7351V51.0788ZM55.5535 48.4614C57.0491 48.4614 58.0306 48.9755 58.0306 50.0505V50.4361H52.2583L52.5621 51.3242H59.0706V50.331C59.0706 48.3446 57.832 47.5734 55.4717 47.5734H54.5252C52.1649 47.5734 50.6926 48.5899 50.6926 50.5764V51.0554C50.6926 53.0418 52.1649 54.0584 54.5252 54.0584H55.2263C56.6168 54.0584 58.0306 53.8481 59.1524 53.5092L58.8719 52.6329C57.832 52.9717 56.3948 53.1704 55.2263 53.1704H54.4901C52.5505 53.1704 51.7325 52.4342 51.7325 51.0554V50.5764C51.7325 49.1976 52.5505 48.4614 54.4901 48.4614H55.5535ZM68.7304 51.2073C71.5581 51.2073 72.5163 50.2375 72.5163 48.847V48.5432C72.5163 47.2111 71.5581 46.1011 68.7304 46.1011H63.9046V54H64.9562V46.9891H68.8239C70.6467 46.9891 71.4763 47.5149 71.4763 48.5783V48.812C71.4763 49.8753 70.6467 50.3193 68.8239 50.3193H65.3886L65.6924 51.2073H68.7304ZM75.1117 49.7935C75.766 48.9872 76.8995 48.4614 78.2081 48.4614H78.5937C80.5918 48.4614 81.3981 49.2677 81.3981 50.6465V54H82.4497V50.5764C82.4497 48.5899 80.8606 47.5734 78.5937 47.5734H78.2081C76.9812 47.5734 75.7193 48.0408 75.1117 48.6717V45.4935H74.0717V54H75.1117V49.7935ZM87.9733 47.5734C85.613 47.5734 84.0239 48.6484 84.0239 50.6348V50.997C84.0239 52.9834 85.613 54.0584 87.9733 54.0584H88.8848C91.2451 54.0584 92.8342 52.9834 92.8342 50.997V50.6348C92.8342 48.6484 91.2451 47.5734 88.8848 47.5734H87.9733ZM91.7943 50.997C91.7943 52.3758 90.8595 53.1704 88.9198 53.1704H87.9383C85.9986 53.1704 85.0638 52.3758 85.0638 50.997V50.6348C85.0638 49.256 85.9986 48.4614 87.9383 48.4614H88.9198C90.8595 48.4614 91.7943 49.256 91.7943 50.6348V50.997ZM95.6557 52.1538C95.6557 53.4158 96.0764 54.0351 97.6538 54.0351C98.6353 54.0351 99.3014 53.9416 100.084 53.7546L100.318 52.8315C99.5467 53.0535 98.834 53.1704 98.0044 53.1704C97.2215 53.1704 96.6957 52.9484 96.6957 52.3758V49.0106H100.014V48.1226H96.6957V46.0894H95.6557V48.1226H93.903V49.0106H95.6557V52.1538ZM105.044 47.5734C102.684 47.5734 101.095 48.6484 101.095 50.6348V50.997C101.095 52.9834 102.684 54.0584 105.044 54.0584H105.955C108.316 54.0584 109.905 52.9834 109.905 50.997V50.6348C109.905 48.6484 108.316 47.5734 105.955 47.5734H105.044ZM108.865 50.997C108.865 52.3758 107.93 53.1704 105.991 53.1704H105.009C103.069 53.1704 102.135 52.3758 102.135 50.997V50.6348C102.135 49.256 103.069 48.4614 105.009 48.4614H105.991C107.93 48.4614 108.865 49.256 108.865 50.6348V50.997Z" fill="white"/>
</svg>
