<svg width="217" height="217" viewBox="0 0 217 217" fill="none" xmlns="http://www.w3.org/2000/svg">
<g clip-path="url(#clip0_169_7704)">
<circle cx="107.5" cy="107.5" r="107.5" fill="#0D0E11"/>
<path d="M33.9489 182.855C6.35956 155.266 2.1039 125.226 1.34803 108.597L79.1056 108.219L79.1898 109.566C79.6232 116.501 82.5239 123.052 87.3673 128.035L88.3707 129.067L33.9489 182.855Z" fill="url(#paint0_linear_169_77041)"/>
<path d="M184.831 32.6198C213.396 61.1853 213.851 91.9679 214.633 109.185L138.695 110.072L138.607 107.987C138.325 101.271 135.809 94.8409 131.458 89.7172L129.717 87.6661L184.831 32.6198Z" fill="url(#paint1_linear_169_7704)"/>
<circle cx="108.5" cy="108.5" r="107.602" stroke="url(#paint2_linear_169_7704)" stroke-width="1.79636"/>
<circle cx="109.038" cy="107.312" r="29.9992" fill="url(#paint3_linear_169_7704)"/>
<path d="M112.314 107.559C112.314 109.792 110.503 111.603 108.27 111.603C106.036 111.603 104.226 109.792 104.226 107.559C104.226 105.325 106.036 103.515 108.27 103.515C110.503 103.515 112.314 105.325 112.314 107.559Z" stroke="#9EA1AB" stroke-width="1.09181"/>
<path d="M108.336 105.961V108.888" stroke="#9EA1AB" stroke-width="1.09181" stroke-linecap="round"/>
<path d="M109.805 107.43L106.878 107.43" stroke="#9EA1AB" stroke-width="1.09181" stroke-linecap="round"/>
<path d="M105.353 99.0525C105.526 98.8641 105.769 98.7568 106.025 98.7568H110.525C110.78 98.7568 111.024 98.8641 111.196 99.0525L112.094 100.034C112.474 100.448 113.009 100.684 113.571 100.684H115.985C116.744 100.684 117.367 101.307 117.367 102.066V113.632C117.367 114.39 116.744 115.014 115.985 115.014H100.564C99.8056 115.014 99.1826 114.39 99.1826 113.632V102.066C99.1826 101.307 99.8056 100.684 100.564 100.684H102.978C103.54 100.684 104.076 100.448 104.455 100.034L105.353 99.0525Z" stroke="#9EA1AB" stroke-width="1.09181"/>
</g>
<defs>
<linearGradient id="paint0_linear_169_77041" x1="54.5399" y1="162.264" x2="40.9342" y2="101.794" gradientUnits="userSpaceOnUse">
<stop stop-color="#1E2025"/>
<stop offset="1" stop-color="#1E2025" stop-opacity="0"/>
</linearGradient>
<linearGradient id="paint1_linear_169_7704" x1="163.763" y1="53.6197" x2="177.85" y2="116.229" gradientUnits="userSpaceOnUse">
<stop stop-color="#2E3138"/>
<stop offset="1" stop-color="#1E2025" stop-opacity="0"/>
</linearGradient>
<linearGradient id="paint2_linear_169_7704" x1="108.5" y1="0" x2="108.5" y2="217" gradientUnits="userSpaceOnUse">
<stop stop-color="#43FF8E"/>
<stop offset="0.489583" stop-color="#5200FF"/>
<stop offset="1" stop-color="#E965FF"/>
</linearGradient>
<linearGradient id="paint3_linear_169_7704" x1="109.038" y1="87.6767" x2="109.038" y2="137.311" gradientUnits="userSpaceOnUse">
<stop stop-color="#313338"/>
<stop offset="1" stop-color="#313338" stop-opacity="0"/>
</linearGradient>
<clipPath id="clip0_169_7704">
<rect width="217" height="217" fill="white"/>
</clipPath>
</defs>
</svg>
