<svg width="20" height="20" viewBox="0 0 20 20" fill="none" xmlns="http://www.w3.org/2000/svg">
<g id="Vector">
<path id="Vector-55" fill-rule="evenodd" clip-rule="evenodd" d="M10.1654 18.3782C9.0661 18.3954 8.06542 17.7465 7.63273 16.7358C7.20005 15.7251 7.42119 14.5531 8.19243 13.7696C8.96367 12.9861 10.132 12.7464 11.1494 13.1631C12.1668 13.5797 12.8315 14.57 12.8316 15.6694C12.8373 16.3822 12.5596 17.068 12.0595 17.576C11.5595 18.084 10.8782 18.3726 10.1654 18.3782Z" stroke="white" stroke-width="1.5" stroke-linecap="round" stroke-linejoin="round"/>
<path id="Vector-56" d="M8.75 1.62848C9.16421 1.62848 9.5 1.2927 9.5 0.878482C9.5 0.464268 9.16421 0.128482 8.75 0.128482V1.62848ZM1.25 0.128482C0.835786 0.128482 0.5 0.464268 0.5 0.878482C0.5 1.2927 0.835786 1.62848 1.25 1.62848V0.128482ZM8.75 5.37848C9.16421 5.37848 9.5 5.0427 9.5 4.62848C9.5 4.21427 9.16421 3.87848 8.75 3.87848V5.37848ZM1.25 3.87848C0.835786 3.87848 0.5 4.21427 0.5 4.62848C0.5 5.0427 0.835786 5.37848 1.25 5.37848V3.87848ZM6.25 9.12848C6.66421 9.12848 7 8.7927 7 8.37848C7 7.96427 6.66421 7.62848 6.25 7.62848V9.12848ZM1.25 7.62848C0.835786 7.62848 0.5 7.96427 0.5 8.37848C0.5 8.7927 0.835786 9.12848 1.25 9.12848V7.62848ZM12.0813 15.6697C12.0813 16.0839 12.417 16.4197 12.8313 16.4197C13.2455 16.4197 13.5813 16.0839 13.5813 15.6697H12.0813ZM13.5813 5.25348C13.5813 4.83927 13.2455 4.50348 12.8313 4.50348C12.417 4.50348 12.0813 4.83927 12.0813 5.25348H13.5813ZM12.8313 5.25348H12.0813C12.0813 5.46607 12.1715 5.66868 12.3295 5.81091C12.4875 5.95314 12.6984 6.02163 12.9099 5.99935L12.8313 5.25348ZM12.8313 3.37848H13.5813C13.5813 3.36495 13.5809 3.35142 13.5802 3.33791L12.8313 3.37848ZM13.5234 1.57063L12.9931 1.0403V1.0403L13.5234 1.57063ZM15.3313 0.878482L15.2907 1.62738C15.3042 1.62812 15.3177 1.62848 15.3313 1.62848V0.878482ZM16.775 0.878482L16.775 1.62849L16.7785 1.62847L16.775 0.878482ZM18.7553 2.74834L18.0063 2.78781V2.78781L18.7553 2.74834ZM16.9825 4.81598L16.9072 4.06977L16.9039 4.07011L16.9825 4.81598ZM8.75 0.128482H1.25V1.62848H8.75V0.128482ZM8.75 3.87848H1.25V5.37848H8.75V3.87848ZM6.25 7.62848H1.25V9.12848H6.25V7.62848ZM13.5813 15.6697V5.25348H12.0813V15.6697H13.5813ZM13.5813 5.25348V3.37848H12.0813V5.25348H13.5813ZM13.5802 3.33791C13.5552 2.87705 13.7274 2.42731 14.0537 2.10096L12.9931 1.0403C12.3655 1.6679 12.0343 2.53278 12.0823 3.41905L13.5802 3.33791ZM14.0537 2.10096C14.3801 1.7746 14.8298 1.60242 15.2907 1.62738L15.3718 0.12958C14.4856 0.0815663 13.6207 0.412688 12.9931 1.0403L14.0537 2.10096ZM15.3313 1.62848H16.775V0.128482H15.3313V1.62848ZM16.7785 1.62847C17.4316 1.6254 17.972 2.13566 18.0063 2.78781L19.5043 2.70887C19.4278 1.25735 18.225 0.121653 16.7715 0.12849L16.7785 1.62847ZM18.0063 2.78781C18.0407 3.43996 17.5569 4.00419 16.9072 4.06977L17.0578 5.56219C18.504 5.41622 19.5808 4.16039 19.5043 2.70887L18.0063 2.78781ZM16.9039 4.07011L12.7526 4.50761L12.9099 5.99935L17.0611 5.56185L16.9039 4.07011Z" fill="white"/>
</g>
</svg>
