<svg width="30" height="30" viewBox="0 0 30 30" fill="none" xmlns="http://www.w3.org/2000/svg">
<circle cx="15" cy="15" r="7.75" stroke="#FF4F4F"/>
<path d="M15.5199 16.5156H14.5355L14.4535 10.4219H15.6019L15.5199 16.5156ZM14.2777 18.6656C14.2738 18.5328 14.305 18.4097 14.3714 18.2965C14.4417 18.1793 14.5335 18.0875 14.6468 18.0211C14.764 17.9508 14.891 17.9156 15.0277 17.9156C15.1605 17.9156 15.2835 17.9488 15.3968 18.0152C15.514 18.0816 15.6058 18.1715 15.6722 18.2847C15.7425 18.398 15.7777 18.5211 15.7777 18.6539C15.7777 18.8648 15.7054 19.0465 15.5609 19.1988C15.4163 19.3472 15.2386 19.4234 15.0277 19.4273C14.891 19.4273 14.764 19.3922 14.6468 19.3219C14.5335 19.2515 14.4417 19.1597 14.3714 19.0465C14.305 18.9293 14.2738 18.8023 14.2777 18.6656Z" fill="#FF4F4F"/>
</svg>
