<svg width="390" height="380" viewBox="0 0 390 380" fill="none" xmlns="http://www.w3.org/2000/svg">
<rect width="390" height="380" transform="matrix(-1 0 0 1 390 0)" fill="url(#paint0_linear_2670_5231)"/>
<g style="mix-blend-mode:overlay">
<mask id="path-2-inside-1_2670_5231" fill="white">
<path fill-rule="evenodd" clip-rule="evenodd" d="M0 266C0 266 0 266 0 266C0 157.752 87.3045 70 195 70C302.696 70 390 157.752 390 266C390 266 390 266 390 266H0Z"/>
</mask>
<path fill-rule="evenodd" clip-rule="evenodd" d="M0 266C0 266 0 266 0 266C0 157.752 87.3045 70 195 70C302.696 70 390 157.752 390 266C390 266 390 266 390 266H0Z" fill="url(#paint1_linear_2670_5231)"/>
<path d="M0 266V269H-3V266H0ZM390 266H393V269H390V266ZM3 266C3 266 3 266 3 266C3 266 3 266 3 266C3 266 3 266 3 266V266C3 266 3 266 3 266C3 266 3 266 3 266C3 266 3 266 3 266C3 266 3 266 3 266C3 266 3 266 3 266C3 266 3 266 3 266C3 266 3 266 3 266C3 266 3 266 3 266C3 266 3 266 3 266V266C3 266 3 266 3 266C3 266 3 266 3 266C3 266 3 266 3 266H-3C-3 266 -3 266 -3 266C-3 266 -3 266 -3 266C-3 266 -3 266 -3 266V266C-3 266 -3 266 -3 266C-3 266 -3 266 -3 266C-3 266 -3 266 -3 266C-3 266 -3 266 -3 266C-3 266 -3 266 -3 266C-3 266 -3 266 -3 266C-3 266 -3 266 -3 266C-3 266 -3 266 -3 266C-3 266 -3 266 -3 266V266C-3 266 -3 266 -3 266C-3 266 -3 266 -3 266C-3 266 -3 266 -3 266H3ZM195 73C88.9758 73 3 159.395 3 266H-3C-3 156.11 85.6332 67 195 67V73ZM387 266C387 159.395 301.024 73 195 73V67C304.367 67 393 156.11 393 266H387ZM387 266C387 266 387 266 387 266C387 266 387 266 387 266C387 266 387 266 387 266V266C387 266 387 266 387 266C387 266 387 266 387 266C387 266 387 266 387 266C387 266 387 266 387 266C387 266 387 266 387 266C387 266 387 266 387 266C387 266 387 266 387 266C387 266 387 266 387 266C387 266 387 266 387 266V266C387 266 387 266 387 266C387 266 387 266 387 266C387 266 387 266 387 266H393C393 266 393 266 393 266C393 266 393 266 393 266C393 266 393 266 393 266V266C393 266 393 266 393 266C393 266 393 266 393 266C393 266 393 266 393 266C393 266 393 266 393 266C393 266 393 266 393 266C393 266 393 266 393 266C393 266 393 266 393 266C393 266 393 266 393 266C393 266 393 266 393 266V266C393 266 393 266 393 266C393 266 393 266 393 266C393 266 393 266 393 266H387ZM390 269H0V263H390V269Z" fill="url(#paint2_linear_2670_5231)" mask="url(#path-2-inside-1_2670_5231)"/>
</g>
<path d="M118.294 134.6H122.358L128.374 154.632H127.414L133.43 134.6H137.142L143.19 154.632H142.23L148.214 134.6H152.118L144.534 157H140.63L134.742 137.64L135.702 137.672L129.718 157H125.846L118.294 134.6ZM164.687 147.272C164.644 146.312 164.42 145.501 164.015 144.84C163.631 144.157 163.087 143.635 162.383 143.272C161.679 142.888 160.868 142.696 159.951 142.696C158.927 142.696 158.031 142.931 157.263 143.4C156.516 143.869 155.929 144.531 155.503 145.384C155.076 146.216 154.863 147.197 154.863 148.328C154.863 149.544 155.087 150.6 155.535 151.496C156.004 152.392 156.644 153.085 157.455 153.576C158.287 154.067 159.236 154.312 160.303 154.312C162.201 154.312 163.801 153.64 165.103 152.296L167.055 154.248C166.223 155.165 165.209 155.88 164.015 156.392C162.82 156.883 161.487 157.128 160.015 157.128C158.265 157.128 156.74 156.765 155.439 156.04C154.137 155.315 153.124 154.312 152.399 153.032C151.673 151.731 151.311 150.227 151.311 148.52C151.311 146.813 151.673 145.32 152.399 144.04C153.124 142.739 154.137 141.725 155.439 141C156.74 140.275 158.233 139.901 159.919 139.88C161.924 139.88 163.535 140.296 164.751 141.128C165.967 141.939 166.831 143.091 167.343 144.584C167.855 146.077 168.036 147.848 167.887 149.896H154.287V147.272H164.687ZM171.563 133.256H175.243V157H171.563V133.256ZM192.521 144.872C191.923 144.253 191.219 143.773 190.409 143.432C189.598 143.091 188.681 142.92 187.657 142.92C186.675 142.92 185.801 143.155 185.033 143.624C184.265 144.093 183.667 144.755 183.241 145.608C182.814 146.44 182.601 147.411 182.601 148.52C182.601 149.629 182.814 150.611 183.241 151.464C183.667 152.296 184.265 152.957 185.033 153.448C185.801 153.917 186.675 154.152 187.657 154.152C188.723 154.152 189.683 153.981 190.537 153.64C191.39 153.277 192.105 152.755 192.681 152.072L194.729 154.088C193.961 155.048 192.958 155.795 191.721 156.328C190.505 156.861 189.097 157.128 187.497 157.128C185.811 157.128 184.318 156.765 183.017 156.04C181.737 155.315 180.734 154.312 180.009 153.032C179.283 151.731 178.921 150.227 178.921 148.52C178.921 146.813 179.283 145.32 180.009 144.04C180.734 142.739 181.737 141.725 183.017 141C184.318 140.253 185.811 139.88 187.497 139.88C189.033 139.88 190.387 140.115 191.561 140.584C192.755 141.032 193.747 141.672 194.537 142.504L192.521 144.872ZM204.872 139.88C206.621 139.88 208.157 140.243 209.48 140.968C210.824 141.693 211.869 142.707 212.616 144.008C213.362 145.288 213.736 146.781 213.736 148.488C213.736 150.195 213.362 151.699 212.616 153C211.869 154.301 210.824 155.315 209.48 156.04C208.157 156.765 206.621 157.128 204.872 157.128C203.122 157.128 201.576 156.765 200.232 156.04C198.888 155.315 197.842 154.301 197.096 153C196.349 151.699 195.976 150.195 195.976 148.488C195.976 146.781 196.349 145.288 197.096 144.008C197.842 142.707 198.888 141.693 200.232 140.968C201.576 140.243 203.122 139.88 204.872 139.88ZM204.872 142.856C203.848 142.856 202.941 143.101 202.152 143.592C201.362 144.061 200.744 144.723 200.296 145.576C199.869 146.429 199.656 147.411 199.656 148.52C199.656 149.651 199.869 150.643 200.296 151.496C200.744 152.349 201.362 153.021 202.152 153.512C202.941 153.981 203.848 154.216 204.872 154.216C205.896 154.216 206.792 153.981 207.56 153.512C208.349 153.021 208.957 152.349 209.384 151.496C209.832 150.643 210.056 149.651 210.056 148.52C210.056 147.411 209.832 146.429 209.384 145.576C208.957 144.723 208.349 144.061 207.56 143.592C206.792 143.101 205.896 142.856 204.872 142.856ZM229.64 147.4C229.64 146.056 229.288 145.011 228.584 144.264C227.88 143.496 226.898 143.112 225.64 143.112C224.168 143.155 223.005 143.699 222.152 144.744C221.32 145.789 220.904 147.08 220.904 148.616H219.88C219.88 146.525 220.168 144.84 220.744 143.56C221.341 142.28 222.173 141.352 223.24 140.776C224.328 140.179 225.608 139.88 227.08 139.88C228.381 139.88 229.49 140.147 230.408 140.68C231.346 141.213 232.061 141.971 232.552 142.952C233.064 143.912 233.32 145.075 233.32 146.44V157H229.64V147.4ZM242.024 147.4C242.024 146.056 241.661 145.011 240.936 144.264C240.232 143.496 239.25 143.112 237.992 143.112C236.541 143.155 235.4 143.699 234.568 144.744C233.736 145.789 233.32 147.08 233.32 148.616H232.264C232.264 146.525 232.552 144.84 233.128 143.56C233.725 142.28 234.557 141.352 235.624 140.776C236.712 140.179 237.992 139.88 239.464 139.88C240.765 139.88 241.874 140.147 242.792 140.68C243.73 141.213 244.445 141.971 244.936 142.952C245.448 143.912 245.704 145.075 245.704 146.44V157H242.024V147.4ZM217.256 140.008H220.904V157H217.256V140.008ZM262.087 147.272C262.044 146.312 261.82 145.501 261.415 144.84C261.031 144.157 260.487 143.635 259.783 143.272C259.079 142.888 258.268 142.696 257.351 142.696C256.327 142.696 255.431 142.931 254.663 143.4C253.916 143.869 253.329 144.531 252.903 145.384C252.476 146.216 252.263 147.197 252.263 148.328C252.263 149.544 252.487 150.6 252.935 151.496C253.404 152.392 254.044 153.085 254.855 153.576C255.687 154.067 256.636 154.312 257.703 154.312C259.601 154.312 261.201 153.64 262.503 152.296L264.455 154.248C263.623 155.165 262.609 155.88 261.415 156.392C260.22 156.883 258.887 157.128 257.415 157.128C255.665 157.128 254.14 156.765 252.839 156.04C251.537 155.315 250.524 154.312 249.799 153.032C249.073 151.731 248.711 150.227 248.711 148.52C248.711 146.813 249.073 145.32 249.799 144.04C250.524 142.739 251.537 141.725 252.839 141C254.14 140.275 255.633 139.901 257.319 139.88C259.324 139.88 260.935 140.296 262.151 141.128C263.367 141.939 264.231 143.091 264.743 144.584C265.255 146.077 265.436 147.848 265.287 149.896H251.687V147.272H262.087ZM268.163 134.888H271.683V140.392L271.075 149.96H268.771L268.163 140.392V134.888ZM269.923 153.224C270.499 153.224 270.979 153.416 271.363 153.8C271.747 154.163 271.939 154.643 271.939 155.24C271.939 155.837 271.747 156.328 271.363 156.712C270.979 157.096 270.499 157.288 269.923 157.288C269.347 157.288 268.867 157.096 268.483 156.712C268.099 156.328 267.907 155.837 267.907 155.24C267.907 154.643 268.099 154.163 268.483 153.8C268.867 153.416 269.347 153.224 269.923 153.224Z" fill="white"/>
<path d="M123.102 179.25C122.998 178.745 122.792 178.312 122.485 177.953C122.177 177.589 121.802 177.312 121.36 177.125C120.922 176.938 120.451 176.844 119.946 176.844C119.253 176.844 118.631 177.018 118.078 177.367C117.532 177.716 117.099 178.229 116.782 178.906C116.464 179.583 116.305 180.396 116.305 181.344C116.305 182.286 116.464 183.096 116.782 183.773C117.099 184.451 117.532 184.964 118.078 185.312C118.631 185.661 119.253 185.839 119.946 185.844C120.451 185.839 120.922 185.745 121.36 185.562C121.797 185.375 122.17 185.102 122.477 184.742C122.784 184.383 122.993 183.953 123.102 183.453H124.508C124.373 184.208 124.091 184.867 123.664 185.43C123.237 185.987 122.701 186.414 122.055 186.711C121.414 187.008 120.711 187.156 119.946 187.156C118.977 187.156 118.112 186.919 117.352 186.445C116.597 185.971 116.006 185.297 115.578 184.422C115.157 183.542 114.946 182.516 114.946 181.344C114.946 180.172 115.157 179.148 115.578 178.273C116.006 177.393 116.597 176.716 117.352 176.242C118.112 175.768 118.977 175.531 119.946 175.531C120.711 175.531 121.414 175.68 122.055 175.977C122.696 176.268 123.229 176.695 123.657 177.258C124.089 177.815 124.373 178.479 124.508 179.25H123.102ZM126.145 178.516H127.442V179.812H127.536C127.687 179.385 127.963 179.042 128.364 178.781C128.77 178.516 129.223 178.38 129.723 178.375C129.796 178.375 129.853 178.378 129.895 178.383C129.958 178.383 130.049 178.385 130.168 178.391C130.288 178.396 130.374 178.401 130.426 178.406V179.766C130.155 179.703 129.885 179.672 129.614 179.672C129.213 179.672 128.851 179.758 128.528 179.93C128.205 180.102 127.95 180.339 127.762 180.641C127.58 180.943 127.489 181.281 127.489 181.656V187H126.145V178.516ZM134.86 187.172C134.053 187.172 133.35 186.992 132.751 186.633C132.152 186.273 131.691 185.766 131.368 185.109C131.05 184.453 130.891 183.693 130.891 182.828C130.891 181.964 131.05 181.198 131.368 180.531C131.691 179.859 132.141 179.339 132.719 178.969C133.303 178.594 133.975 178.406 134.735 178.406C135.376 178.406 135.972 178.549 136.524 178.836C137.076 179.117 137.524 179.576 137.868 180.211C138.217 180.841 138.391 181.651 138.391 182.641V183.203H132.235C132.256 183.792 132.378 184.294 132.602 184.711C132.831 185.128 133.139 185.445 133.524 185.664C133.909 185.878 134.355 185.984 134.86 185.984C135.339 185.984 135.743 185.896 136.071 185.719C136.404 185.536 136.657 185.302 136.829 185.016H138.266C138.131 185.448 137.904 185.828 137.587 186.156C137.274 186.479 136.883 186.729 136.415 186.906C135.951 187.083 135.433 187.172 134.86 187.172ZM137.032 182.062C137.032 181.594 136.936 181.172 136.743 180.797C136.555 180.422 136.287 180.128 135.938 179.914C135.594 179.701 135.193 179.594 134.735 179.594C134.261 179.594 133.839 179.706 133.469 179.93C133.105 180.154 132.816 180.456 132.602 180.836C132.394 181.211 132.274 181.62 132.243 182.062H137.032ZM139.575 184.594C139.575 183.719 139.874 183.102 140.473 182.742C141.078 182.378 141.841 182.161 142.763 182.094C143.122 182.068 143.549 182.042 144.044 182.016C144.539 181.99 144.877 181.974 145.059 181.969V181.281C145.059 180.734 144.895 180.315 144.567 180.023C144.244 179.727 143.768 179.578 143.138 179.578C142.622 179.578 142.2 179.685 141.872 179.898C141.544 180.107 141.33 180.38 141.231 180.719H139.825C139.882 180.266 140.059 179.865 140.356 179.516C140.653 179.167 141.046 178.896 141.536 178.703C142.031 178.505 142.585 178.406 143.2 178.406C144.018 178.406 144.755 178.615 145.411 179.031C146.067 179.443 146.393 180.234 146.388 181.406V187H145.059V185.844H144.997C144.825 186.198 144.526 186.513 144.098 186.789C143.677 187.06 143.132 187.198 142.466 187.203C141.924 187.198 141.434 187.094 140.997 186.891C140.559 186.682 140.213 186.383 139.958 185.992C139.703 185.596 139.575 185.13 139.575 184.594ZM140.919 184.656C140.924 185.094 141.088 185.427 141.411 185.656C141.739 185.885 142.174 186 142.716 186C143.2 186 143.619 185.904 143.973 185.711C144.328 185.518 144.596 185.263 144.778 184.945C144.966 184.628 145.059 184.286 145.059 183.922V183.07C144.94 183.076 144.596 183.099 144.028 183.141L142.919 183.219C142.283 183.26 141.791 183.398 141.442 183.633C141.098 183.867 140.924 184.208 140.919 184.656ZM152.087 179.641H150.306V184.562C150.3 185.057 150.397 185.393 150.595 185.57C150.798 185.742 151.071 185.828 151.415 185.828C151.618 185.828 151.813 185.82 152.001 185.805L152.212 185.797V187.047C151.931 187.089 151.618 187.109 151.274 187.109C150.879 187.109 150.504 187.029 150.149 186.867C149.795 186.701 149.506 186.451 149.282 186.117C149.058 185.784 148.946 185.38 148.946 184.906V179.641H147.665V178.516H148.946V176.484H150.306V178.516H152.087V179.641ZM157.13 187.172C156.323 187.172 155.62 186.992 155.021 186.633C154.422 186.273 153.961 185.766 153.638 185.109C153.32 184.453 153.161 183.693 153.161 182.828C153.161 181.964 153.32 181.198 153.638 180.531C153.961 179.859 154.411 179.339 154.989 178.969C155.573 178.594 156.245 178.406 157.005 178.406C157.646 178.406 158.242 178.549 158.794 178.836C159.346 179.117 159.794 179.576 160.138 180.211C160.487 180.841 160.661 181.651 160.661 182.641V183.203H154.505C154.526 183.792 154.648 184.294 154.872 184.711C155.101 185.128 155.409 185.445 155.794 185.664C156.179 185.878 156.625 185.984 157.13 185.984C157.609 185.984 158.013 185.896 158.341 185.719C158.674 185.536 158.927 185.302 159.099 185.016H160.536C160.401 185.448 160.174 185.828 159.857 186.156C159.544 186.479 159.153 186.729 158.685 186.906C158.221 187.083 157.703 187.172 157.13 187.172ZM159.302 182.062C159.302 181.594 159.206 181.172 159.013 180.797C158.825 180.422 158.557 180.128 158.208 179.914C157.864 179.701 157.463 179.594 157.005 179.594C156.531 179.594 156.109 179.706 155.739 179.93C155.375 180.154 155.086 180.456 154.872 180.836C154.664 181.211 154.544 181.62 154.513 182.062H159.302ZM166.966 190.188C166.581 190.177 166.331 190.167 166.216 190.156V188.953C166.279 188.958 166.498 188.969 166.873 188.984C167.102 188.979 167.289 188.953 167.435 188.906C167.586 188.865 167.737 188.75 167.888 188.562C168.039 188.38 168.185 188.094 168.326 187.703L168.576 187.062L165.435 178.516H166.904L169.216 185.25H169.31L171.623 178.516H173.091L169.498 188.219C169.248 188.885 168.914 189.378 168.498 189.695C168.081 190.018 167.57 190.182 166.966 190.188ZM177.572 187.172C176.806 187.172 176.129 186.992 175.541 186.633C174.957 186.268 174.504 185.755 174.181 185.094C173.858 184.432 173.697 183.667 173.697 182.797C173.697 181.922 173.858 181.154 174.181 180.492C174.504 179.831 174.957 179.318 175.541 178.953C176.129 178.589 176.806 178.406 177.572 178.406C178.332 178.406 179.004 178.589 179.588 178.953C180.171 179.318 180.621 179.831 180.939 180.492C181.257 181.154 181.416 181.922 181.416 182.797C181.416 183.667 181.257 184.432 180.939 185.094C180.621 185.755 180.171 186.268 179.588 186.633C179.004 186.992 178.332 187.172 177.572 187.172ZM175.041 182.797C175.046 183.38 175.14 183.914 175.322 184.398C175.509 184.883 175.793 185.268 176.173 185.555C176.554 185.841 177.02 185.984 177.572 185.984C178.119 185.984 178.58 185.841 178.955 185.555C179.33 185.268 179.608 184.883 179.791 184.398C179.978 183.914 180.072 183.38 180.072 182.797C180.072 182.214 179.978 181.68 179.791 181.195C179.608 180.711 179.33 180.323 178.955 180.031C178.58 179.74 178.119 179.594 177.572 179.594C177.02 179.594 176.554 179.74 176.173 180.031C175.793 180.323 175.509 180.711 175.322 181.195C175.14 181.68 175.046 182.214 175.041 182.797ZM188.381 178.516H189.709V187H188.381V185.562H188.287C188.073 186.021 187.75 186.393 187.318 186.68C186.891 186.966 186.375 187.109 185.771 187.109C185.224 187.109 184.743 186.992 184.326 186.758C183.914 186.518 183.594 186.159 183.365 185.68C183.136 185.195 183.021 184.604 183.021 183.906V178.516H184.365V183.812C184.365 184.214 184.443 184.565 184.599 184.867C184.756 185.169 184.972 185.404 185.248 185.57C185.529 185.732 185.849 185.812 186.209 185.812C186.547 185.818 186.883 185.734 187.217 185.562C187.55 185.391 187.826 185.133 188.045 184.789C188.269 184.44 188.381 184.016 188.381 183.516V178.516ZM191.705 178.516H193.002V179.812H193.096C193.247 179.385 193.523 179.042 193.924 178.781C194.33 178.516 194.783 178.38 195.283 178.375C195.356 178.375 195.413 178.378 195.455 178.383C195.518 178.383 195.609 178.385 195.728 178.391C195.848 178.396 195.934 178.401 195.986 178.406V179.766C195.715 179.703 195.445 179.672 195.174 179.672C194.773 179.672 194.411 179.758 194.088 179.93C193.765 180.102 193.51 180.339 193.322 180.641C193.14 180.943 193.049 181.281 193.049 181.656V187H191.705V178.516ZM204.463 187.172C203.698 187.172 203.02 186.992 202.432 186.633C201.849 186.268 201.395 185.755 201.073 185.094C200.75 184.432 200.588 183.667 200.588 182.797C200.588 181.922 200.75 181.154 201.073 180.492C201.395 179.831 201.849 179.318 202.432 178.953C203.02 178.589 203.698 178.406 204.463 178.406C205.224 178.406 205.895 178.589 206.479 178.953C207.062 179.318 207.513 179.831 207.83 180.492C208.148 181.154 208.307 181.922 208.307 182.797C208.307 183.667 208.148 184.432 207.83 185.094C207.513 185.755 207.062 186.268 206.479 186.633C205.895 186.992 205.224 187.172 204.463 187.172ZM201.932 182.797C201.937 183.38 202.031 183.914 202.213 184.398C202.401 184.883 202.684 185.268 203.065 185.555C203.445 185.841 203.911 185.984 204.463 185.984C205.01 185.984 205.471 185.841 205.846 185.555C206.221 185.268 206.5 184.883 206.682 184.398C206.869 183.914 206.963 183.38 206.963 182.797C206.963 182.214 206.869 181.68 206.682 181.195C206.5 180.711 206.221 180.323 205.846 180.031C205.471 179.74 205.01 179.594 204.463 179.594C203.911 179.594 203.445 179.74 203.065 180.031C202.684 180.323 202.401 180.711 202.213 181.195C202.031 181.68 201.937 182.214 201.932 182.797ZM208.959 178.516H210.381L212.194 184.984H212.272L214.069 178.516H215.506L217.272 184.953H217.366L219.178 178.516H220.584L218.006 187H216.678L214.834 180.531H214.709L212.881 187H211.537L208.959 178.516ZM223.253 187H221.909V178.516H223.206V179.844H223.315C223.523 179.391 223.833 179.039 224.245 178.789C224.661 178.534 225.18 178.406 225.799 178.406C226.383 178.406 226.888 178.526 227.315 178.766C227.742 179 228.073 179.357 228.307 179.836C228.542 180.315 228.659 180.906 228.659 181.609V187H227.315V181.703C227.315 181.047 227.146 180.534 226.807 180.164C226.469 179.794 225.997 179.609 225.393 179.609C224.976 179.609 224.607 179.701 224.284 179.883C223.961 180.06 223.708 180.323 223.526 180.672C223.344 181.016 223.253 181.427 223.253 181.906V187ZM239.229 180.719C239.13 180.354 238.938 180.07 238.651 179.867C238.37 179.659 237.99 179.552 237.511 179.547C237.167 179.547 236.86 179.604 236.589 179.719C236.318 179.833 236.104 179.99 235.948 180.188C235.792 180.38 235.714 180.594 235.714 180.828C235.719 181.109 235.839 181.349 236.073 181.547C236.308 181.74 236.672 181.896 237.167 182.016L238.433 182.328C239.188 182.505 239.753 182.786 240.128 183.172C240.503 183.552 240.693 184.036 240.698 184.625C240.693 185.12 240.56 185.56 240.3 185.945C240.039 186.331 239.659 186.633 239.159 186.852C238.659 187.065 238.063 187.172 237.37 187.172C236.422 187.177 235.669 186.974 235.112 186.562C234.555 186.151 234.219 185.557 234.104 184.781H235.511C235.667 185.594 236.266 186 237.308 186C237.927 186 238.414 185.885 238.768 185.656C239.128 185.422 239.308 185.104 239.308 184.703C239.308 184.401 239.196 184.151 238.972 183.953C238.748 183.755 238.396 183.599 237.917 183.484L236.636 183.188C235.901 183.016 235.339 182.734 234.948 182.344C234.563 181.953 234.37 181.474 234.37 180.906C234.37 180.427 234.5 179.997 234.761 179.617C235.026 179.237 235.396 178.94 235.87 178.727C236.349 178.513 236.896 178.406 237.511 178.406C238.084 178.406 238.589 178.503 239.026 178.695C239.464 178.888 239.81 179.159 240.065 179.508C240.326 179.857 240.485 180.26 240.542 180.719H239.229ZM245.991 179.641H244.21V184.562C244.205 185.057 244.301 185.393 244.499 185.57C244.702 185.742 244.976 185.828 245.319 185.828C245.522 185.828 245.718 185.82 245.905 185.805L246.116 185.797V187.047C245.835 187.089 245.522 187.109 245.179 187.109C244.783 187.109 244.408 187.029 244.054 186.867C243.7 186.701 243.411 186.451 243.187 186.117C242.963 185.784 242.851 185.38 242.851 184.906V179.641H241.569V178.516H242.851V176.484H244.21V178.516H245.991V179.641ZM252.925 178.516H254.253V187H252.925V185.562H252.831C252.618 186.021 252.295 186.393 251.862 186.68C251.435 186.966 250.92 187.109 250.316 187.109C249.769 187.109 249.287 186.992 248.87 186.758C248.459 186.518 248.139 186.159 247.909 185.68C247.68 185.195 247.566 184.604 247.566 183.906V178.516H248.909V183.812C248.909 184.214 248.987 184.565 249.144 184.867C249.3 185.169 249.516 185.404 249.792 185.57C250.073 185.732 250.394 185.812 250.753 185.812C251.092 185.818 251.428 185.734 251.761 185.562C252.094 185.391 252.37 185.133 252.589 184.789C252.813 184.44 252.925 184.016 252.925 183.516V178.516ZM259.453 187.172C258.749 187.172 258.124 186.995 257.578 186.641C257.031 186.281 256.604 185.771 256.296 185.109C255.994 184.443 255.843 183.667 255.843 182.781C255.843 181.901 255.994 181.13 256.296 180.469C256.604 179.807 257.031 179.299 257.578 178.945C258.13 178.586 258.76 178.406 259.468 178.406C259.968 178.406 260.382 178.49 260.71 178.656C261.038 178.818 261.275 178.987 261.421 179.164C261.572 179.341 261.739 179.573 261.921 179.859H262.015V175.688H263.374V187H262.062V185.703H261.921C261.744 185.979 261.575 186.214 261.413 186.406C261.257 186.594 261.012 186.768 260.679 186.93C260.351 187.091 259.942 187.172 259.453 187.172ZM257.203 182.75C257.203 183.365 257.294 183.914 257.476 184.398C257.663 184.883 257.939 185.266 258.304 185.547C258.674 185.828 259.119 185.969 259.64 185.969C260.15 185.969 260.585 185.836 260.945 185.57C261.309 185.299 261.585 184.922 261.773 184.438C261.96 183.953 262.057 183.391 262.062 182.75C262.057 182.12 261.96 181.568 261.773 181.094C261.591 180.62 261.317 180.255 260.953 180C260.593 179.74 260.156 179.609 259.64 179.609C259.114 179.609 258.666 179.745 258.296 180.016C257.932 180.286 257.658 180.659 257.476 181.133C257.294 181.607 257.203 182.146 257.203 182.75ZM265.543 178.516H266.886V187H265.543V178.516ZM266.214 177.109C265.959 177.109 265.738 177.023 265.55 176.852C265.368 176.68 265.277 176.474 265.277 176.234C265.277 175.984 265.365 175.771 265.543 175.594C265.725 175.417 265.944 175.328 266.199 175.328C266.464 175.328 266.691 175.414 266.878 175.586C267.066 175.758 267.162 175.969 267.168 176.219C267.162 176.464 267.066 176.674 266.878 176.852C266.696 177.023 266.475 177.109 266.214 177.109ZM272.336 187.172C271.57 187.172 270.893 186.992 270.304 186.633C269.721 186.268 269.268 185.755 268.945 185.094C268.622 184.432 268.461 183.667 268.461 182.797C268.461 181.922 268.622 181.154 268.945 180.492C269.268 179.831 269.721 179.318 270.304 178.953C270.893 178.589 271.57 178.406 272.336 178.406C273.096 178.406 273.768 178.589 274.351 178.953C274.935 179.318 275.385 179.831 275.703 180.492C276.021 181.154 276.179 181.922 276.179 182.797C276.179 183.667 276.021 184.432 275.703 185.094C275.385 185.755 274.935 186.268 274.351 186.633C273.768 186.992 273.096 187.172 272.336 187.172ZM269.804 182.797C269.81 183.38 269.903 183.914 270.086 184.398C270.273 184.883 270.557 185.268 270.937 185.555C271.317 185.841 271.784 185.984 272.336 185.984C272.883 185.984 273.343 185.841 273.718 185.555C274.093 185.268 274.372 184.883 274.554 184.398C274.742 183.914 274.836 183.38 274.836 182.797C274.836 182.214 274.742 181.68 274.554 181.195C274.372 180.711 274.093 180.323 273.718 180.031C273.343 179.74 272.883 179.594 272.336 179.594C271.784 179.594 271.317 179.74 270.937 180.031C270.557 180.323 270.273 180.711 270.086 181.195C269.903 181.68 269.81 182.214 269.804 182.797Z" fill="#730EFF"/>
<defs>
<linearGradient id="paint0_linear_2670_5231" x1="195" y1="0" x2="195" y2="380" gradientUnits="userSpaceOnUse">
<stop stop-color="#5200FF"/>
<stop offset="1" stop-color="#0D0E11" stop-opacity="0"/>
</linearGradient>
<linearGradient id="paint1_linear_2670_5231" x1="29.8169" y1="80.3698" x2="196.244" y2="355.613" gradientUnits="userSpaceOnUse">
<stop stop-color="white"/>
<stop offset="0.448303" stop-color="white" stop-opacity="0"/>
</linearGradient>
<linearGradient id="paint2_linear_2670_5231" x1="195" y1="183.84" x2="195" y2="266" gradientUnits="userSpaceOnUse">
<stop stop-color="white"/>
<stop offset="1" stop-color="white" stop-opacity="0"/>
</linearGradient>
</defs>
</svg>
