<svg width="79" height="16" viewBox="0 0 79 16" fill="none" xmlns="http://www.w3.org/2000/svg">
<path d="M0.730938 11.78C0.730938 13.32 0.730938 14.02 0.710938 15H10.7709C15.4709 15 16.6909 13.98 16.6909 11.28V11.2C16.6909 9.42004 16.0309 8.34004 13.7509 7.80004C15.8709 7.22004 16.4509 6.14004 16.4509 4.52004V4.44004C16.4509 2.00004 15.2909 0.800039 10.6509 0.800039H0.710938C0.730938 1.74004 0.730938 2.34004 0.730938 3.40004V11.78ZM10.6709 2.68004C13.5509 2.68004 14.2909 3.24004 14.2909 4.72004V4.80004C14.2909 6.26004 13.4909 6.88004 10.5909 6.88004H2.81094V2.68004H10.6709ZM10.7709 8.76004C13.6309 8.76004 14.5309 9.30004 14.5309 10.92V10.96C14.5309 12.64 13.7909 13.12 10.7709 13.12H2.81094V8.76004H10.7709Z" fill="white"/>
<path d="M25.2991 15.24C28.3991 15.24 30.1591 14.62 31.0391 13.64L31.0591 15H32.8591C32.8391 13.42 32.8391 12.4 32.8391 11.2C32.8391 9.52004 32.8591 8.76004 32.8591 7.18004C32.8591 4.44004 31.8391 3.16004 25.9191 3.16004C20.5391 3.16004 19.3191 4.30004 19.3591 6.72004L21.3791 6.78004C21.3591 5.40004 21.8391 4.94004 25.9191 4.94004C30.1391 4.94004 30.8391 5.56004 30.8391 7.56004V8.98004C29.8991 8.24004 28.1791 7.80004 25.2991 7.80004C20.0391 7.80004 18.8991 8.90004 18.8991 11.56C18.8991 14.16 19.9791 15.24 25.2991 15.24ZM25.8791 13.5C21.7991 13.5 20.9591 13 20.9591 11.56C20.9591 10.08 21.4991 9.46004 25.8791 9.46004C30.1791 9.46004 30.8791 10.06 30.8791 10.96V11.58C30.8791 12.88 30.1791 13.5 25.8791 13.5Z" fill="white"/>
<path d="M36.4703 11.86C36.4703 13.2 36.4703 14.12 36.4503 15H38.4903C38.4703 14.12 38.4703 13.2 38.4703 11.88V3.42004C38.4703 1.98004 38.4703 0.900039 38.4903 0.0400391H36.4503C36.4703 0.900039 36.4703 1.98004 36.4703 3.40004V11.86Z" fill="white"/>
<path d="M42.193 11.86C42.193 13.2 42.193 14.12 42.173 15H44.213C44.193 14.12 44.193 13.2 44.193 11.88V3.42004C44.193 1.98004 44.193 0.900039 44.213 0.0400391H42.173C42.193 0.900039 42.193 1.98004 42.193 3.40004V11.86Z" fill="white"/>
<path d="M53.7756 15.24C56.8756 15.24 58.6356 14.62 59.5156 13.64L59.5356 15H61.3356C61.3156 13.42 61.3156 12.4 61.3156 11.2C61.3156 9.52004 61.3356 8.76004 61.3356 7.18004C61.3356 4.44004 60.3156 3.16004 54.3956 3.16004C49.0156 3.16004 47.7956 4.30004 47.8356 6.72004L49.8556 6.78004C49.8356 5.40004 50.3156 4.94004 54.3956 4.94004C58.6156 4.94004 59.3156 5.56004 59.3156 7.56004V8.98004C58.3756 8.24004 56.6556 7.80004 53.7756 7.80004C48.5156 7.80004 47.3756 8.90004 47.3756 11.56C47.3756 14.16 48.4556 15.24 53.7756 15.24ZM54.3556 13.5C50.2756 13.5 49.4356 13 49.4356 11.56C49.4356 10.08 49.9756 9.46004 54.3556 9.46004C58.6556 9.46004 59.3556 10.06 59.3556 10.96V11.58C59.3556 12.88 58.6556 13.5 54.3556 13.5Z" fill="white"/>
<path d="M71.0269 15.24C74.0469 15.24 75.8469 14.58 76.8069 13.24L76.8469 15H78.7069C78.6869 14.02 78.6869 13.34 78.6869 11.8V3.40004C78.6869 1.92004 78.6869 0.900039 78.7069 0.0400391H76.6269C76.6469 0.860039 76.6669 2.94004 76.6669 4.96004C75.6669 3.74004 73.9469 3.16004 71.1469 3.16004C65.6669 3.16004 64.1269 4.48004 64.1269 8.90004V9.50004C64.1269 13.92 65.6669 15.24 71.0269 15.24ZM71.4269 13.38C67.0469 13.38 66.1669 12.54 66.1669 9.30004V9.10004C66.1669 5.86004 67.0469 5.02004 71.5269 5.02004C75.7869 5.02004 76.6869 5.94004 76.6869 9.12004V9.28004C76.6869 12.44 75.7869 13.38 71.4269 13.38Z" fill="white"/>
</svg>
