<svg width="124" height="67" viewBox="0 0 124 67" fill="none" xmlns="http://www.w3.org/2000/svg">
<path d="M24.092 39.482C24.092 40.832 24.092 41.498 24.074 42.38H26.522C26.504 41.444 26.504 40.976 26.504 39.464V31.778H29.78C30.5 31.778 31.706 31.778 33.074 31.796V29.6H17.522V31.796C18.89 31.778 20.456 31.778 22.148 31.778H24.092V39.482Z" fill="white"/>
<path d="M34.226 39.5C34.226 40.85 34.226 41.588 34.208 42.38H36.584C36.566 41.588 36.566 40.886 36.566 39.5V37.304C36.566 34.442 37.286 33.812 40.238 33.812C43.136 33.812 43.496 34.226 43.496 36.08V36.422L45.746 36.386C45.764 35.972 45.764 35.684 45.764 35.36C45.764 32.462 44.918 31.688 41.03 31.688C38.654 31.688 37.214 32.3 36.44 33.506L36.422 31.904H34.208C34.226 32.606 34.226 33.29 34.226 34.532V39.5Z" fill="white"/>
<path d="M52.8049 42.596C55.7029 42.596 57.2149 42.038 57.9349 41.084L57.9709 42.38H60.0949C60.0769 40.958 60.0769 40.04 60.0769 38.96C60.0769 37.304 60.0949 36.692 60.0949 35.27C60.0949 32.822 59.1229 31.688 53.7049 31.688C48.7549 31.688 47.5669 32.642 47.6029 35.018L49.8529 35.072C49.8349 33.956 50.2129 33.596 53.6689 33.596C57.2149 33.596 57.7549 34.1 57.7549 35.756V36.962C56.9629 36.26 55.4689 35.9 52.8049 35.9C48.1429 35.9 47.1529 36.89 47.1529 39.284C47.1529 41.642 48.1069 42.596 52.8049 42.596ZM53.6329 40.778C50.1589 40.778 49.5109 40.382 49.5109 39.23C49.5109 38.06 49.9429 37.574 53.6689 37.574C57.2509 37.574 57.8089 38.042 57.8089 38.798V39.248C57.8089 40.292 57.2509 40.778 53.6329 40.778Z" fill="white"/>
<path d="M69.0485 42.596C74.3405 42.596 75.6005 41.408 75.6005 38.204L73.2965 38.15C73.2965 39.824 72.6125 40.508 69.0665 40.508C65.4485 40.508 64.7645 39.824 64.7645 37.214V37.07C64.7645 34.442 65.4485 33.776 69.0665 33.776C72.6125 33.776 73.2605 34.478 73.2605 36.134V36.116L75.5645 36.062C75.5645 32.768 74.3585 31.688 69.0485 31.688C63.8285 31.688 62.4065 32.876 62.4065 36.872V37.412C62.4065 41.408 63.8465 42.596 69.0485 42.596Z" fill="white"/>
<path d="M77.9085 39.356C77.9085 40.67 77.9085 41.552 77.8905 42.38H80.2665C80.2485 41.552 80.2485 40.67 80.2485 39.374V38.096H82.9305C83.4525 38.582 84.0285 39.104 84.6585 39.626L87.8985 42.38H90.9405L90.9765 42.344C89.3565 40.994 86.5665 38.528 84.7485 36.944C86.5125 35.414 89.0685 33.254 90.7245 31.94L90.6885 31.904H87.7545L84.9105 34.244C84.1905 34.838 83.4705 35.45 82.8225 36.008H80.2485V31.922C80.2485 30.644 80.2485 29.672 80.2665 28.916H77.8905C77.9085 29.69 77.9085 30.644 77.9085 31.904V39.356Z" fill="white"/>
<path d="M98.2717 42.596C103.564 42.596 104.32 41.732 104.32 39.464C104.32 37.358 103.636 36.494 98.3257 36.098C94.5637 35.792 94.3117 35.522 94.3117 34.712C94.3117 33.884 94.7977 33.542 97.8757 33.542C101.116 33.542 101.584 33.92 101.584 34.892V35.126L103.906 35.072C103.906 32.552 103.078 31.688 97.9477 31.688C93.0517 31.688 92.0617 32.606 92.0617 34.838C92.0617 36.998 92.8717 37.718 97.6597 38.096C101.656 38.402 101.962 38.708 101.962 39.608C101.962 40.472 101.638 40.814 98.3257 40.814C94.6897 40.814 94.2217 40.454 94.2217 39.212V38.942L91.9177 38.996C91.9177 42.002 92.8897 42.596 98.2717 42.596Z" fill="white"/>
<path d="M17 49.3799H106" stroke="white" stroke-width="1.5"/>
</svg>
