<svg width="124" height="67" viewBox="0 0 124 67" fill="none" xmlns="http://www.w3.org/2000/svg">
<path d="M32.774 43.38C34.016 40.824 37.85 33.048 39.128 30.6H37.166L34.034 36.99C33.242 38.61 32.432 40.284 31.82 41.58H30.308C29.696 40.284 28.922 38.646 28.148 37.008L25.106 30.6H23C24.224 33.048 27.986 40.842 29.192 43.38H32.774Z" fill="#535559"/>
<path d="M45.4758 43.596C50.6778 43.596 52.0458 42.408 52.0458 38.43V37.89C52.0458 33.912 50.6778 32.724 45.4758 32.724C40.2738 32.724 38.9058 33.912 38.9058 37.89V38.43C38.9058 42.408 40.2738 43.596 45.4758 43.596ZM45.4758 41.922C41.5158 41.922 40.7418 41.166 40.7418 38.25V38.07C40.7418 35.154 41.5158 34.398 45.4758 34.398C49.4358 34.398 50.2098 35.154 50.2098 38.07V38.25C50.2098 41.166 49.4358 41.922 45.4758 41.922Z" fill="#535559"/>
<path d="M60.4155 43.596C65.5455 43.596 66.7695 42.426 66.7695 39.33L64.9875 39.276C64.9875 41.148 64.2315 41.922 60.4155 41.922C56.5275 41.922 55.7535 41.166 55.7535 38.25V38.07C55.7535 35.154 56.5275 34.398 60.4155 34.398C64.2315 34.398 64.9515 35.208 64.9515 37.044L66.7335 36.99C66.7335 33.804 65.5635 32.724 60.4155 32.724C55.3575 32.724 53.9175 33.912 53.9175 37.89V38.43C53.9175 42.408 55.3755 43.596 60.4155 43.596Z" fill="#535559"/>
<path d="M74.5897 43.596C77.3797 43.596 78.9637 43.038 79.7557 42.156L79.7737 43.38H81.3937C81.3757 41.958 81.3757 41.04 81.3757 39.96C81.3757 38.448 81.3937 37.764 81.3937 36.342C81.3937 33.876 80.4757 32.724 75.1477 32.724C70.3057 32.724 69.2077 33.75 69.2437 35.928L71.0617 35.982C71.0437 34.74 71.4757 34.326 75.1477 34.326C78.9457 34.326 79.5757 34.884 79.5757 36.684V37.962C78.7297 37.296 77.1817 36.9 74.5897 36.9C69.8557 36.9 68.8297 37.89 68.8297 40.284C68.8297 42.624 69.8017 43.596 74.5897 43.596ZM75.1117 42.03C71.4397 42.03 70.6837 41.58 70.6837 40.284C70.6837 38.952 71.1697 38.394 75.1117 38.394C78.9817 38.394 79.6117 38.934 79.6117 39.744V40.302C79.6117 41.472 78.9817 42.03 75.1117 42.03Z" fill="#535559"/>
<path d="M84.6438 40.554C84.6438 41.76 84.6438 42.588 84.6258 43.38H86.4618C86.4438 42.588 86.4438 41.76 86.4438 40.572V32.958C86.4438 31.662 86.4438 30.69 86.4618 29.916H84.6258C84.6438 30.69 84.6438 31.662 84.6438 32.94V40.554Z" fill="#535559"/>
<path d="M95.1582 43.596C100.396 43.596 101.062 42.768 101.062 40.608C101.062 38.466 100.414 37.674 95.0142 37.224C91.1442 36.9 90.8742 36.576 90.8742 35.676C90.8742 34.722 91.4322 34.344 94.8162 34.344C98.2542 34.344 98.7942 34.758 98.7942 35.856V36.126L100.648 36.072C100.648 33.57 99.7662 32.724 94.8882 32.724C90.0822 32.724 89.1462 33.606 89.1462 35.802C89.1462 37.926 89.9382 38.61 94.7262 39.006C98.9022 39.348 99.2262 39.69 99.2262 40.698C99.2262 41.67 98.8482 42.084 95.2302 42.084C91.3962 42.084 90.8382 41.67 90.8382 40.212V39.924L89.0202 39.978C89.0202 43.002 89.9562 43.596 95.1582 43.596Z" fill="#535559"/>
</svg>
