<svg width="103" height="15" viewBox="0 0 103 15" fill="none" xmlns="http://www.w3.org/2000/svg">
<path d="M7.616 12.224C12.976 12.224 14.256 11.088 14.256 7.856L12.656 7.808C12.624 10.016 11.936 10.672 7.68 10.672C3.424 10.672 2.608 9.808 2.608 6.416V6.224C2.608 2.944 3.424 1.968 7.68 1.968C11.936 1.968 12.656 2.624 12.656 4.832L14.256 4.784C14.256 1.552 12.96 0.415999 7.616 0.415999C2.304 0.415999 0.928 1.712 0.928 6.064V6.576C0.928 10.928 2.304 12.224 7.616 12.224ZM21.3323 12.192C23.8123 12.192 25.2203 11.696 25.9243 10.912L25.9403 12H27.3803C27.3643 10.736 27.3643 9.92 27.3643 8.96C27.3643 7.616 27.3803 7.008 27.3803 5.744C27.3803 3.552 26.5643 2.528 21.8283 2.528C17.5243 2.528 16.5483 3.44 16.5803 5.376L18.1963 5.424C18.1803 4.32 18.5643 3.952 21.8283 3.952C25.2043 3.952 25.7643 4.448 25.7643 6.048V7.184C25.0123 6.592 23.6363 6.24 21.3323 6.24C17.1243 6.24 16.2122 7.12 16.2122 9.248C16.2122 11.328 17.0763 12.192 21.3323 12.192ZM21.7963 10.8C18.5323 10.8 17.8603 10.4 17.8603 9.248C17.8603 8.064 18.2923 7.568 21.7963 7.568C25.2363 7.568 25.7963 8.048 25.7963 8.768V9.264C25.7963 10.304 25.2363 10.8 21.7963 10.8ZM30.7493 6.24C30.7493 7.024 30.7333 7.936 30.7333 8.64C30.7333 11.392 31.5813 12.08 35.3573 12.08C36.0613 12.08 36.6533 12.048 37.1493 12L37.1333 10.544C36.5253 10.576 36.1573 10.592 35.4373 10.592C32.9893 10.592 32.3493 10.352 32.3493 8.416V4.176H37.1333V2.72H32.3493C32.3493 1.92 32.3493 1.28 32.3653 0.896L30.7333 0.927999C30.7493 1.664 30.7493 2.192 30.7493 2.72C30.2373 2.72 29.7253 2.736 29.0693 2.72V4.176H30.7493V6.24ZM44.5481 12.192C49.2201 12.192 50.1001 11.264 50.1001 9.04L48.5161 8.976C48.5161 10.176 48.0841 10.768 44.5641 10.768C41.1561 10.768 40.3881 10.144 40.3081 7.984H50.1001C50.1001 7.712 50.1161 7.376 50.1001 7.12C50.0521 3.584 48.9961 2.528 44.4361 2.528C39.8761 2.528 38.6601 3.584 38.6601 7.12V7.6C38.6601 11.136 39.8761 12.192 44.5481 12.192ZM44.4361 3.92C47.7161 3.92 48.3401 4.56 48.4041 6.608H40.3081C40.4201 4.496 41.2201 3.92 44.4361 3.92ZM57.3855 11.072C59.6895 11.072 61.0815 10.56 61.8495 9.648L61.8335 10.56C61.8015 12.208 61.1935 12.976 57.3855 12.976C54.1375 12.976 53.5775 12.528 53.5775 11.584L52.0255 11.648C52.0255 13.76 53.0975 14.432 57.3855 14.432C62.2495 14.432 63.4335 13.488 63.4335 10.768C63.4335 9.52 63.4175 8.56 63.4175 7.2V4.8C63.4175 4.016 63.4175 3.408 63.4335 2.72H61.9455L61.9295 3.952C61.1615 3.024 59.7535 2.528 57.3695 2.528C53.3375 2.528 51.7695 3.312 51.7695 6.72V6.88C51.7695 10.288 53.4175 11.072 57.3855 11.072ZM53.4015 6.88V6.72C53.4015 4.672 54.3135 3.984 57.6575 3.984C61.0815 3.984 61.8015 4.656 61.8175 6.72C61.8175 8.768 61.0175 9.616 57.6735 9.616C54.1535 9.616 53.4015 8.928 53.4015 6.88ZM71.547 12.192C76.171 12.192 77.387 11.136 77.387 7.6V7.12C77.387 3.584 76.171 2.528 71.547 2.528C66.923 2.528 65.707 3.584 65.707 7.12V7.6C65.707 11.136 66.923 12.192 71.547 12.192ZM71.547 10.704C68.027 10.704 67.339 10.032 67.339 7.44V7.28C67.339 4.688 68.027 4.016 71.547 4.016C75.067 4.016 75.755 4.688 75.755 7.28V7.44C75.755 10.032 75.067 10.704 71.547 10.704ZM79.6748 9.44C79.6748 10.704 79.6748 11.328 79.6588 12H81.2908C81.2748 11.328 81.2748 10.736 81.2748 9.44V7.296C81.2748 4.608 82.0268 4.016 84.7788 4.016C87.5788 4.016 87.8988 4.4 87.8988 6.208V6.528L89.4348 6.496C89.4508 6.256 89.4508 6.016 89.4508 5.824C89.4508 3.168 88.7308 2.528 85.1628 2.528C83.1788 2.528 81.8988 3.04 81.1788 4.08L81.1468 2.72H79.6588C79.6748 3.344 79.6748 3.92 79.6748 5.104V9.44ZM97.3608 12.288C98.5608 9.92 101.073 4.896 102.225 2.72H100.497L98.5128 6.592C97.9848 7.616 97.4568 8.656 97.0088 9.568H96.1128C95.5528 8.64 94.8968 7.584 94.2568 6.544L91.9208 2.72H90.0968C91.4888 4.912 94.0168 9.088 95.1848 11.056H96.2408L95.9528 11.568C95.3768 12.592 95.0088 12.8 94.0648 12.8C93.4568 12.8 92.9608 12.784 92.4488 12.752L92.4008 14.192C92.9928 14.224 93.7288 14.256 94.1128 14.256C95.7448 14.256 96.6248 13.744 97.3608 12.288Z" fill="#9EA1AB"/>
</svg>
