<svg width="123" height="15" viewBox="0 0 123 15" fill="none" xmlns="http://www.w3.org/2000/svg">
<path d="M29.886 12.2105C35.1613 12.2105 36.4211 11.0758 36.4211 7.84752L34.8464 7.79958C34.8149 10.0051 34.1378 10.6603 29.949 10.6603C25.7603 10.6603 24.9572 9.7973 24.9572 6.40917V6.21739C24.9572 2.94113 25.7603 1.96624 29.949 1.96624C34.1378 1.96624 34.8464 2.6215 34.8464 4.82697L36.4211 4.77903C36.4211 1.55072 35.1456 0.416016 29.886 0.416016C24.658 0.416016 23.3037 1.71054 23.3037 6.05757V6.56898C23.3037 10.916 24.658 12.2105 29.886 12.2105Z" fill="#535559"/>
<path d="M43.3856 12.1786C45.8264 12.1786 47.2121 11.6831 47.905 10.9L47.9207 11.9868H49.338C49.3222 10.7242 49.3222 9.90917 49.3222 8.95026C49.3222 7.6078 49.338 7.00049 49.338 5.73793C49.338 3.54844 48.5349 2.52561 43.8737 2.52561C39.6377 2.52561 38.6771 3.43656 38.7086 5.37035L40.2991 5.4183C40.2834 4.31556 40.6613 3.94798 43.8737 3.94798C47.1964 3.94798 47.7475 4.44341 47.7475 6.04159V7.17629C47.0074 6.58497 45.6531 6.23337 43.3856 6.23337C39.244 6.23337 38.3465 7.11236 38.3465 9.23793C38.3465 11.3156 39.1968 12.1786 43.3856 12.1786ZM43.8422 10.7882C40.6298 10.7882 39.9684 10.3886 39.9684 9.23793C39.9684 8.05529 40.3936 7.55985 43.8422 7.55985C47.2279 7.55985 47.779 8.0393 47.779 8.75848V9.25392C47.779 10.2927 47.2279 10.7882 43.8422 10.7882Z" fill="#535559"/>
<path d="M52.6538 6.23337C52.6538 7.01647 52.638 7.92743 52.638 8.63063C52.638 11.3795 53.4726 12.0667 57.1889 12.0667C57.8818 12.0667 58.4645 12.0347 58.9526 11.9868L58.9369 10.5325C58.3385 10.5644 57.9763 10.5804 57.2677 10.5804C54.8584 10.5804 54.2285 10.3407 54.2285 8.40688V4.17172H58.9369V2.71739H54.2285C54.2285 1.9183 54.2285 1.27903 54.2442 0.895468L52.638 0.927431C52.6537 1.66259 52.6538 2.18999 52.6538 2.71739C52.1498 2.71739 51.6459 2.73337 51.0003 2.71739V4.17172H52.6538V6.23337Z" fill="#535559"/>
<path d="M66.2346 12.1786C70.8328 12.1786 71.6989 11.2516 71.6989 9.03017L70.1399 8.96624C70.1399 10.1649 69.7147 10.7562 66.2503 10.7562C62.8962 10.7562 62.1403 10.1329 62.0616 7.97538H71.6989C71.6989 7.70369 71.7146 7.36807 71.6989 7.11236C71.6516 3.5804 70.6123 2.52561 66.1244 2.52561C61.6364 2.52561 60.4396 3.5804 60.4396 7.11236V7.59182C60.4396 11.1238 61.6364 12.1786 66.2346 12.1786ZM66.1244 3.91602C69.3525 3.91602 69.9667 4.55528 70.0297 6.60095H62.0616C62.1718 4.49136 62.9592 3.91602 66.1244 3.91602Z" fill="#535559"/>
<path d="M78.8691 11.0599C81.1367 11.0599 82.5067 10.5484 83.2626 9.63748L83.2468 10.5484C83.2153 12.1946 82.6169 12.9617 78.8691 12.9617C75.6724 12.9617 75.1213 12.5142 75.1213 11.5713L73.5938 11.6352C73.5938 13.7448 74.6489 14.416 78.8691 14.416C83.6563 14.416 84.8215 13.4731 84.8215 10.7562C84.8215 9.50962 84.8058 8.55072 84.8058 7.19227V4.79501C84.8058 4.01191 84.8058 3.4046 84.8215 2.71739H83.3571L83.3413 3.94798C82.5854 3.02104 81.1997 2.52561 78.8534 2.52561C74.8851 2.52561 73.3419 3.30871 73.3419 6.71282V6.87264C73.3419 10.2767 74.9638 11.0599 78.8691 11.0599ZM74.9481 6.87264V6.71282C74.9481 4.66716 75.8457 3.97994 79.1368 3.97994C82.5067 3.97994 83.2153 4.65118 83.2311 6.71282C83.2311 8.75848 82.4437 9.60551 79.1526 9.60551C75.6882 9.60551 74.9481 8.9183 74.9481 6.87264Z" fill="#535559"/>
<path d="M92.8068 12.1786C97.3578 12.1786 98.5546 11.1238 98.5546 7.59182V7.11236C98.5546 3.5804 97.3578 2.52561 92.8068 2.52561C88.2559 2.52561 87.0591 3.5804 87.0591 7.11236V7.59182C87.0591 11.1238 88.2559 12.1786 92.8068 12.1786ZM92.8068 10.6923C89.3425 10.6923 88.6653 10.021 88.6653 7.432V7.27218C88.6653 4.68314 89.3425 4.01191 92.8068 4.01191C96.2712 4.01191 96.9483 4.68314 96.9483 7.27218V7.432C96.9483 10.021 96.2712 10.6923 92.8068 10.6923Z" fill="#535559"/>
<path d="M100.806 9.42971C100.806 10.6923 100.806 11.3156 100.79 11.9868H102.397C102.381 11.3156 102.381 10.7242 102.381 9.42971V7.28816C102.381 4.60323 103.121 4.01191 105.83 4.01191C108.585 4.01191 108.9 4.39547 108.9 6.2014V6.52104L110.412 6.48908C110.428 6.24935 110.428 6.00962 110.428 5.81784C110.428 3.16487 109.719 2.52561 106.207 2.52561C104.255 2.52561 102.995 3.03702 102.286 4.07583L102.255 2.71739H100.79C100.806 3.34067 100.806 3.91602 100.806 5.09866V9.42971Z" fill="#535559"/>
<path d="M118.213 12.2745C119.394 9.90917 121.866 4.8909 123 2.71739H121.299L119.347 6.58497C118.827 7.6078 118.307 8.64661 117.866 9.55757H116.984C116.433 8.63063 115.788 7.57583 115.158 6.53702L112.859 2.71739H111.063C112.433 4.90688 114.922 9.07812 116.071 11.0439H117.11L116.827 11.5553C116.26 12.5781 115.898 12.7859 114.969 12.7859C114.37 12.7859 113.882 12.7699 113.378 12.7379L113.331 14.1763C113.914 14.2083 114.638 14.2402 115.016 14.2402C116.622 14.2402 117.488 13.7288 118.213 12.2745Z" fill="#535559"/>
<path fill-rule="evenodd" clip-rule="evenodd" d="M3.93652 1.24902H12.3022V2.74731H3.93652V1.24902Z" fill="#535559"/>
<path fill-rule="evenodd" clip-rule="evenodd" d="M0 1.24902H1.57472V2.74731H0V1.24902Z" fill="#535559"/>
<path fill-rule="evenodd" clip-rule="evenodd" d="M3.9375 6.24329H12.3032V7.74157H3.9375V6.24329Z" fill="#535559"/>
<path fill-rule="evenodd" clip-rule="evenodd" d="M0 6.24329H1.57472V7.74157H0V6.24329Z" fill="#535559"/>
<path fill-rule="evenodd" clip-rule="evenodd" d="M3.9375 11.2377H12.3032V12.736H3.9375V11.2377Z" fill="#535559"/>
<path fill-rule="evenodd" clip-rule="evenodd" d="M0 11.2377H1.57472V12.736H0V11.2377Z" fill="#535559"/>
</svg>
