<svg width="308" height="16" viewBox="0 0 308 16" fill="none" xmlns="http://www.w3.org/2000/svg">
<path d="M7.616 13.224C12.976 13.224 14.256 12.088 14.256 8.856L12.656 8.808C12.624 11.016 11.936 11.672 7.68 11.672C3.424 11.672 2.608 10.808 2.608 7.416V7.224C2.608 3.944 3.424 2.968 7.68 2.968C11.936 2.968 12.656 3.624 12.656 5.832L14.256 5.784C14.256 2.552 12.96 1.416 7.616 1.416C2.304 1.416 0.928 2.712 0.928 7.064V7.576C0.928 11.928 2.304 13.224 7.616 13.224ZM21.8283 13.192C26.4523 13.192 27.6683 12.136 27.6683 8.6V8.12C27.6683 4.584 26.4523 3.528 21.8283 3.528C17.2043 3.528 15.9883 4.584 15.9883 8.12V8.6C15.9883 12.136 17.2043 13.192 21.8283 13.192ZM21.8283 11.704C18.3083 11.704 17.6203 11.032 17.6203 8.44V8.28C17.6203 5.688 18.3083 5.016 21.8283 5.016C25.3483 5.016 26.0363 5.688 26.0363 8.28V8.44C26.0363 11.032 25.3483 11.704 21.8283 11.704ZM29.956 10.44C29.956 11.704 29.956 12.328 29.94 13H31.572C31.556 12.328 31.556 11.736 31.556 10.44V8.2C31.556 5.768 32.308 5.016 35.444 5.016C38.692 5.016 39.3 5.832 39.3 7.96V10.456C39.3 11.816 39.3 12.28 39.284 13H40.916C40.9 12.248 40.9 11.608 40.9 10.456V9.48C40.9 8.52 40.916 8.136 40.916 7.48C40.916 4.664 40.1 3.528 35.876 3.528C33.604 3.528 32.212 4.04 31.46 5.08L31.428 3.72H29.94C29.956 4.344 29.956 4.92 29.956 6.104V10.44ZM44.2481 7.608C44.2481 8.888 44.2481 11.736 44.2321 13H45.8641C45.8481 12.296 45.8481 11.384 45.8481 10.44V5.176H48.3121V3.72H45.8481V3.576C45.8481 2.632 46.1201 2.408 46.8401 2.376C47.4321 2.344 48.1201 2.312 48.5361 2.312L48.4881 0.936C48.1521 0.952 47.2881 0.967999 46.5201 1.016C44.8721 1.112 44.2321 1.624 44.2321 3.416C44.2321 3.512 44.2321 3.608 44.2321 3.72H42.7121L42.6481 5.176H44.2321C44.2481 5.976 44.2481 6.856 44.2481 7.608ZM50.0033 1.288V2.776H51.6353V1.288H50.0033ZM50.0193 10.488C50.0193 11.56 50.0193 12.296 50.0033 13H51.6353C51.6193 12.296 51.6193 11.56 51.6193 10.504V6.424C51.6193 5.272 51.6193 4.408 51.6353 3.72H50.0033C50.0193 4.408 50.0193 5.272 50.0193 6.408V10.488ZM54.5654 10.44C54.5654 11.704 54.5654 12.328 54.5494 13H56.1814C56.1654 12.328 56.1654 11.736 56.1654 10.44V8.296C56.1654 5.608 56.9174 5.016 59.6694 5.016C62.4694 5.016 62.7894 5.4 62.7894 7.208V7.528L64.3254 7.496C64.3414 7.256 64.3414 7.016 64.3414 6.824C64.3414 4.168 63.6214 3.528 60.0534 3.528C58.0694 3.528 56.7894 4.04 56.0694 5.08L56.0374 3.72H54.5494C54.5654 4.344 54.5654 4.92 54.5654 6.104V10.44ZM66.4716 10.44C66.4716 11.704 66.4716 12.328 66.4556 13H68.0876C68.0716 12.328 68.0716 11.736 68.0716 10.44V8.2C68.0716 5.768 68.8236 5.016 71.3516 5.016C73.5596 5.016 74.1996 5.56 74.1996 7.208V10.488C74.1996 11.72 74.1996 12.216 74.1836 13H75.8156C75.7996 12.024 75.7996 11.32 75.7996 10.44V8.2C75.7996 5.768 76.5836 5.016 79.0956 5.016C81.3036 5.016 81.9436 5.56 81.9436 7.208V10.472C81.9436 11.72 81.9436 12.216 81.9276 13H83.5596C83.5436 12.024 83.5436 11.32 83.5436 10.472V9.64C83.5436 8.2 83.5596 7.384 83.5596 6.728C83.5596 4.392 82.7436 3.528 79.5756 3.528C77.5596 3.528 76.3116 4.072 75.6396 5.192C75.2396 3.992 74.1676 3.528 71.8316 3.528C69.8796 3.528 68.6476 4.04 67.9756 5.096L67.9436 3.72H66.4556C66.4716 4.344 66.4716 4.92 66.4716 6.104V10.44ZM98.3139 13.288C99.5139 10.92 102.026 5.896 103.178 3.72H101.45L99.4659 7.592C98.9379 8.616 98.4099 9.656 97.9619 10.568H97.0659C96.5059 9.64 95.8499 8.584 95.2099 7.544L92.8739 3.72H91.0499C92.4419 5.912 94.9699 10.088 96.1379 12.056H97.1939L96.9059 12.568C96.3299 13.592 95.9619 13.8 95.0179 13.8C94.4099 13.8 93.9139 13.784 93.4019 13.752L93.3539 15.192C93.9459 15.224 94.6819 15.256 95.0659 15.256C96.6979 15.256 97.5779 14.744 98.3139 13.288ZM109.672 13.192C114.296 13.192 115.512 12.136 115.512 8.6V8.12C115.512 4.584 114.296 3.528 109.672 3.528C105.048 3.528 103.832 4.584 103.832 8.12V8.6C103.832 12.136 105.048 13.192 109.672 13.192ZM109.672 11.704C106.152 11.704 105.464 11.032 105.464 8.44V8.28C105.464 5.688 106.152 5.016 109.672 5.016C113.192 5.016 113.88 5.688 113.88 8.28V8.44C113.88 11.032 113.192 11.704 109.672 11.704ZM117.768 7.24C117.768 8.2 117.752 8.584 117.752 9.24C117.752 12.056 118.568 13.192 122.776 13.192C125.016 13.192 126.376 12.68 127.128 11.64L127.16 13H128.648C128.632 12.376 128.632 11.8 128.632 10.616V6.28C128.632 5.016 128.632 4.392 128.648 3.72H127.016C127.032 4.392 127.032 4.984 127.032 6.28V8.52C127.032 10.952 126.28 11.704 123.208 11.704C119.976 11.704 119.368 10.888 119.368 8.76V6.264C119.368 4.904 119.368 4.44 119.384 3.72H117.752C117.768 4.472 117.768 5.112 117.768 6.264V7.24ZM131.55 10.44C131.55 11.704 131.55 12.328 131.534 13H133.166C133.15 12.328 133.15 11.736 133.15 10.44V8.296C133.15 5.608 133.902 5.016 136.654 5.016C139.454 5.016 139.774 5.4 139.774 7.208V7.528L141.31 7.496C141.326 7.256 141.326 7.016 141.326 6.824C141.326 4.168 140.606 3.528 137.038 3.528C135.054 3.528 133.774 4.04 133.054 5.08L133.022 3.72H131.534C131.55 4.344 131.55 4.92 131.55 6.104V10.44ZM149.409 10.44C149.409 11.704 149.409 12.328 149.393 13H151.025C151.009 12.328 151.009 11.736 151.009 10.44V8.2C151.009 5.768 151.761 5.016 154.897 5.016C158.145 5.016 158.753 5.832 158.753 7.96V10.456C158.753 11.816 158.753 12.28 158.737 13H160.369C160.353 12.248 160.353 11.608 160.353 10.456V9.48C160.353 8.52 160.369 8.136 160.369 7.48C160.369 4.664 159.553 3.528 155.329 3.528C153.057 3.528 151.665 4.04 150.913 5.08L150.881 3.72H149.393C149.409 4.344 149.409 4.92 149.409 6.104V10.44ZM168.501 13.192C173.173 13.192 174.053 12.264 174.053 10.04L172.469 9.976C172.469 11.176 172.037 11.768 168.517 11.768C165.109 11.768 164.341 11.144 164.261 8.984H174.053C174.053 8.712 174.069 8.376 174.053 8.12C174.005 4.584 172.949 3.528 168.389 3.528C163.829 3.528 162.613 4.584 162.613 8.12V8.6C162.613 12.136 163.829 13.192 168.501 13.192ZM168.389 4.92C171.669 4.92 172.293 5.56 172.357 7.608H164.261C164.373 5.496 165.173 4.92 168.389 4.92ZM182.542 8.44C182.942 7.4 183.358 6.36 183.726 5.416H184.19C184.526 6.376 184.894 7.448 185.246 8.488L186.798 13H189.39C190.254 10.728 192.142 5.896 193.086 3.72H191.374L189.822 7.784C189.358 9.016 188.878 10.296 188.462 11.4H187.87C187.55 10.376 187.15 9.192 186.75 8.024L185.278 3.72H182.782L181.182 7.96C180.75 9.112 180.286 10.328 179.902 11.4H179.278C178.91 10.312 178.478 9.032 178.078 7.848L176.686 3.72H174.862C175.694 5.864 177.438 10.728 178.206 13H180.798L182.542 8.44ZM200.628 13C200.628 13.96 200.628 14.76 200.612 15.24H202.26C202.244 14.584 202.244 13.432 202.244 11.752C203.044 12.728 204.42 13.192 206.66 13.192C211.044 13.192 212.276 12.136 212.276 8.6V8.12C212.276 4.584 211.044 3.528 206.756 3.528C204.388 3.528 202.948 4.04 202.164 5.08V3.72H200.612C200.628 4.392 200.628 4.968 200.628 5.704V13ZM202.228 8.424V8.296C202.228 5.768 202.948 5.016 206.436 5.016C209.94 5.016 210.644 5.688 210.644 8.28V8.44C210.644 11.032 209.94 11.704 206.356 11.704C202.948 11.704 202.228 10.968 202.228 8.424ZM219.285 13.192C221.765 13.192 223.173 12.696 223.877 11.912L223.893 13H225.333C225.317 11.736 225.317 10.92 225.317 9.96C225.317 8.616 225.333 8.008 225.333 6.744C225.333 4.552 224.517 3.528 219.781 3.528C215.477 3.528 214.501 4.44 214.533 6.376L216.149 6.424C216.133 5.32 216.517 4.952 219.781 4.952C223.157 4.952 223.717 5.448 223.717 7.048V8.184C222.965 7.592 221.589 7.24 219.285 7.24C215.077 7.24 214.165 8.12 214.165 10.248C214.165 12.328 215.029 13.192 219.285 13.192ZM219.749 11.8C216.485 11.8 215.813 11.4 215.813 10.248C215.813 9.064 216.245 8.568 219.749 8.568C223.189 8.568 223.749 9.048 223.749 9.768V10.264C223.749 11.304 223.189 11.8 219.749 11.8ZM232.99 13.192C237.646 13.192 238.238 12.456 238.238 10.536C238.238 8.632 237.662 7.928 232.862 7.528C229.422 7.24 229.182 6.952 229.182 6.152C229.182 5.304 229.678 4.968 232.686 4.968C235.742 4.968 236.222 5.336 236.222 6.312V6.552L237.87 6.504C237.87 4.28 237.086 3.528 232.75 3.528C228.478 3.528 227.646 4.312 227.646 6.264C227.646 8.152 228.35 8.76 232.606 9.112C236.318 9.416 236.606 9.72 236.606 10.616C236.606 11.48 236.27 11.848 233.054 11.848C229.646 11.848 229.15 11.48 229.15 10.184V9.928L227.534 9.976C227.534 12.664 228.366 13.192 232.99 13.192ZM245.256 13.192C249.912 13.192 250.504 12.456 250.504 10.536C250.504 8.632 249.928 7.928 245.128 7.528C241.688 7.24 241.448 6.952 241.448 6.152C241.448 5.304 241.944 4.968 244.952 4.968C248.008 4.968 248.488 5.336 248.488 6.312V6.552L250.136 6.504C250.136 4.28 249.352 3.528 245.016 3.528C240.744 3.528 239.912 4.312 239.912 6.264C239.912 8.152 240.616 8.76 244.872 9.112C248.584 9.416 248.872 9.72 248.872 10.616C248.872 11.48 248.536 11.848 245.32 11.848C241.912 11.848 241.416 11.48 241.416 10.184V9.928L239.8 9.976C239.8 12.664 240.632 13.192 245.256 13.192ZM259.074 8.44C259.474 7.4 259.89 6.36 260.258 5.416H260.722C261.058 6.376 261.426 7.448 261.778 8.488L263.33 13H265.922C266.786 10.728 268.674 5.896 269.618 3.72H267.906L266.354 7.784C265.89 9.016 265.41 10.296 264.994 11.4H264.402C264.082 10.376 263.682 9.192 263.282 8.024L261.81 3.72H259.314L257.714 7.96C257.282 9.112 256.818 10.328 256.434 11.4H255.81C255.442 10.312 255.01 9.032 254.61 7.848L253.218 3.72H251.394C252.226 5.864 253.97 10.728 254.738 13H257.33L259.074 8.44ZM276.266 13.192C280.89 13.192 282.106 12.136 282.106 8.6V8.12C282.106 4.584 280.89 3.528 276.266 3.528C271.642 3.528 270.426 4.584 270.426 8.12V8.6C270.426 12.136 271.642 13.192 276.266 13.192ZM276.266 11.704C272.746 11.704 272.058 11.032 272.058 8.44V8.28C272.058 5.688 272.746 5.016 276.266 5.016C279.786 5.016 280.474 5.688 280.474 8.28V8.44C280.474 11.032 279.786 11.704 276.266 11.704ZM284.394 10.44C284.394 11.704 284.394 12.328 284.378 13H286.01C285.994 12.328 285.994 11.736 285.994 10.44V8.296C285.994 5.608 286.746 5.016 289.498 5.016C292.298 5.016 292.618 5.4 292.618 7.208V7.528L294.154 7.496C294.17 7.256 294.17 7.016 294.17 6.824C294.17 4.168 293.45 3.528 289.882 3.528C287.898 3.528 286.618 4.04 285.898 5.08L285.866 3.72H284.378C284.394 4.344 284.394 4.92 284.394 6.104V10.44ZM301.196 13.192C303.612 13.192 305.052 12.664 305.82 11.592L305.852 13H307.34C307.324 12.216 307.324 11.672 307.324 10.44V3.72C307.324 2.536 307.324 1.72 307.34 1.032H305.676C305.692 1.688 305.708 3.352 305.708 4.968C304.908 3.992 303.532 3.528 301.292 3.528C296.908 3.528 295.676 4.584 295.676 8.12V8.6C295.676 12.136 296.908 13.192 301.196 13.192ZM301.516 11.704C298.012 11.704 297.308 11.032 297.308 8.44V8.28C297.308 5.688 298.012 5.016 301.596 5.016C305.004 5.016 305.724 5.752 305.724 8.296V8.424C305.724 10.952 305.004 11.704 301.516 11.704Z" fill="#9EA1AB"/>
</svg>
