<svg width="396" height="396" viewBox="0 0 396 396" fill="none" xmlns="http://www.w3.org/2000/svg">
<g filter="url(#filter0_b_1_7353)">
<rect y="198" width="280" height="280" rx="30" transform="rotate(-45 0 198)" fill="#1E2025" fill-opacity="0.5"/>
</g>
<path fill-rule="evenodd" clip-rule="evenodd" d="M203.453 181.028C203.453 181.498 203.835 181.88 204.305 181.88C204.776 181.88 205.157 181.498 205.157 181.028C205.157 180.557 204.776 180.176 204.305 180.176C203.835 180.176 203.453 180.557 203.453 181.028Z" stroke="white" stroke-width="1.25534" stroke-linecap="round" stroke-linejoin="round"/>
<path d="M209.64 185.287C209.64 185.634 209.921 185.915 210.268 185.915C210.615 185.915 210.896 185.634 210.896 185.287H209.64ZM186.415 192.102L187.043 192.103V192.102H186.415ZM187.263 196.55C187.471 196.828 187.864 196.885 188.142 196.677C188.42 196.469 188.476 196.076 188.269 195.798L187.263 196.55ZM210.897 185.287C210.897 184.941 210.616 184.66 210.269 184.66C209.922 184.66 209.641 184.941 209.641 185.287H210.897ZM193.231 198.918V198.29H193.231L193.231 198.918ZM188.271 195.8C188.064 195.522 187.671 195.464 187.393 195.671C187.114 195.878 187.057 196.271 187.264 196.549L188.271 195.8ZM210.691 185.752C210.948 185.52 210.967 185.123 210.734 184.866C210.501 184.609 210.104 184.59 209.848 184.822L210.691 185.752ZM202.261 192.547L201.84 192.082L201.836 192.086L202.261 192.547ZM200.965 192.994L200.914 193.619L200.914 193.619L200.965 192.994ZM199.76 192.341L200.256 191.956L200.255 191.956L199.76 192.341ZM196.337 187.944L196.833 187.558L196.832 187.557L196.337 187.944ZM194.96 187.29L194.947 186.662L194.96 187.29ZM193.611 188L193.101 187.634L193.101 187.635L193.611 188ZM187.257 195.81C187.055 196.092 187.12 196.484 187.402 196.685C187.684 196.887 188.076 196.822 188.278 196.54L187.257 195.81ZM210.896 185.287V181.88H209.64V185.287H210.896ZM210.896 181.88C210.896 177.769 207.563 174.437 203.453 174.437V175.692C206.87 175.692 209.64 178.462 209.64 181.88H210.896ZM203.453 174.437H193.23V175.692H203.453V174.437ZM193.23 174.437C189.12 174.437 185.787 177.769 185.787 181.88H187.043C187.043 178.462 189.813 175.692 193.23 175.692V174.437ZM185.787 181.88V192.102H187.043V181.88H185.787ZM185.787 192.101C185.785 193.705 186.303 195.266 187.263 196.55L188.269 195.798C187.471 194.732 187.041 193.435 187.043 192.103L185.787 192.101ZM209.641 185.287V192.103H210.897V185.287H209.641ZM209.641 192.103C209.641 195.52 206.871 198.29 203.454 198.29V199.545C207.565 199.545 210.897 196.213 210.897 192.103H209.641ZM203.454 198.29H193.231V199.545H203.454V198.29ZM193.231 198.29C191.277 198.291 189.437 197.368 188.271 195.8L187.264 196.549C188.667 198.436 190.88 199.547 193.232 199.545L193.231 198.29ZM209.848 184.822L201.84 192.082L202.683 193.012L210.691 185.752L209.848 184.822ZM201.836 192.086C201.614 192.29 201.317 192.393 201.017 192.368L200.914 193.619C201.564 193.673 202.208 193.451 202.687 193.008L201.836 192.086ZM201.017 192.368C200.717 192.343 200.441 192.194 200.256 191.956L199.265 192.726C199.665 193.242 200.263 193.565 200.914 193.619L201.017 192.368ZM200.255 191.956L196.833 187.558L195.842 188.329L199.265 192.727L200.255 191.956ZM196.832 187.557C196.379 186.979 195.681 186.647 194.947 186.662L194.973 187.917C195.312 187.91 195.634 188.063 195.843 188.33L196.832 187.557ZM194.947 186.662C194.213 186.678 193.529 187.037 193.101 187.634L194.121 188.366C194.319 188.091 194.634 187.924 194.973 187.917L194.947 186.662ZM193.101 187.635L187.257 195.81L188.278 196.54L194.122 188.365L193.101 187.635Z" fill="white"/>
<path d="M140.977 221.085C140.977 218.424 141.78 217.696 144.316 217.696C145.722 217.696 147.58 217.947 148.86 218.223L149.174 217.257C147.868 216.98 145.96 216.729 144.228 216.729C140.562 216.729 139.834 218.562 139.834 221.085C139.834 223.609 140.55 225.504 144.165 225.479C146.061 225.466 147.843 225.241 149.287 224.902L148.986 223.922C147.73 224.274 146.048 224.512 144.316 224.512C141.918 224.512 140.977 223.583 140.977 221.085ZM151.944 220.834C152.647 219.968 153.865 219.403 155.27 219.403H155.685C157.831 219.403 158.698 220.269 158.698 221.751V225.354H159.827V221.675C159.827 219.541 158.12 218.449 155.685 218.449H155.27C153.952 218.449 152.597 218.951 151.944 219.629V216.215H150.827V225.354H151.944V220.834ZM169.502 225.416V221.148C169.502 219.491 168.624 218.424 165.686 218.449C164.192 218.462 163.012 218.612 161.845 218.901L162.146 219.855C163.251 219.579 164.506 219.403 165.762 219.403C167.77 219.403 168.385 219.83 168.385 221.161V221.537C167.532 221.249 166.151 221.085 165.285 221.085H164.858C162.171 221.085 161.468 221.939 161.468 223.157V223.358C161.468 224.55 162.51 225.416 164.87 225.416H165.285C166.389 225.416 167.619 225.128 168.385 224.538V225.416H169.502ZM164.858 224.462C163.037 224.462 162.586 223.973 162.586 223.358V223.094C162.586 222.479 163.037 222.039 164.858 222.039H165.285C166.339 222.039 167.456 222.165 168.385 222.516V223.621C167.544 224.186 166.364 224.462 165.285 224.462H164.858ZM171.618 218.512V225.354H172.735V221.148C173.463 220.131 174.656 219.403 176.062 219.403H176.476C178.623 219.403 179.489 220.269 179.489 221.751V225.354H180.619V221.675C180.619 219.541 178.912 218.449 176.476 218.449H176.062C174.744 218.449 173.451 219.027 172.735 219.88V218.512H171.618ZM190.233 224.224C190.233 225.617 189.267 226.458 186.405 226.458C184.898 226.458 183.693 226.257 182.639 225.944L182.877 226.998C183.869 227.262 185.237 227.412 186.405 227.412C189.806 227.412 191.351 226.282 191.351 224.399V218.512H190.233V219.566C189.581 218.889 188.162 218.386 186.844 218.386H186.43C183.994 218.386 182.224 219.29 182.224 221.424V221.876C182.224 224.01 183.994 224.789 186.43 224.789H186.844C188.275 224.789 189.581 224.123 190.233 223.42V224.224ZM190.233 222.215C189.555 223.207 188.25 223.835 186.844 223.835H186.43C184.346 223.835 183.354 223.445 183.354 221.864V221.437C183.354 219.956 184.283 219.34 186.43 219.34H186.844C188.25 219.34 189.53 219.905 190.233 220.772V222.215ZM198.271 219.403C199.878 219.403 200.933 219.956 200.933 221.11V221.525H194.731L195.058 222.479H202.05V221.412C202.05 219.278 200.719 218.449 198.183 218.449H197.167C194.631 218.449 193.049 219.541 193.049 221.675V222.19C193.049 224.324 194.631 225.416 197.167 225.416H197.92C199.414 225.416 200.933 225.19 202.138 224.826L201.836 223.885C200.719 224.249 199.175 224.462 197.92 224.462H197.129C195.045 224.462 194.166 223.671 194.166 222.19V221.675C194.166 220.194 195.045 219.403 197.129 219.403H198.271ZM212.428 222.353C215.466 222.353 216.495 221.311 216.495 219.817V219.491C216.495 218.06 215.466 216.867 212.428 216.867H207.243V225.354H208.373V217.821H212.528C214.487 217.821 215.378 218.386 215.378 219.529V219.78C215.378 220.922 214.487 221.399 212.528 221.399H208.838L209.164 222.353H212.428ZM219.283 220.834C219.986 219.968 221.204 219.403 222.61 219.403H223.024C225.171 219.403 226.037 220.269 226.037 221.751V225.354H227.167V221.675C227.167 219.541 225.46 218.449 223.024 218.449H222.61C221.292 218.449 219.936 218.951 219.283 219.629V216.215H218.166V225.354H219.283V220.834ZM233.101 218.449C230.565 218.449 228.858 219.604 228.858 221.738V222.127C228.858 224.261 230.565 225.416 233.101 225.416H234.08C236.616 225.416 238.323 224.261 238.323 222.127V221.738C238.323 219.604 236.616 218.449 234.08 218.449H233.101ZM237.206 222.127C237.206 223.609 236.202 224.462 234.118 224.462H233.063C230.98 224.462 229.975 223.609 229.975 222.127V221.738C229.975 220.257 230.98 219.403 233.063 219.403H234.118C236.202 219.403 237.206 220.257 237.206 221.738V222.127ZM241.355 223.37C241.355 224.726 241.806 225.391 243.501 225.391C244.556 225.391 245.271 225.291 246.112 225.09L246.363 224.098C245.535 224.337 244.769 224.462 243.878 224.462C243.037 224.462 242.472 224.224 242.472 223.609V219.993H246.037V219.039H242.472V216.855H241.355V219.039H239.472V219.993H241.355V223.37ZM251.441 218.449C248.905 218.449 247.198 219.604 247.198 221.738V222.127C247.198 224.261 248.905 225.416 251.441 225.416H252.42C254.956 225.416 256.663 224.261 256.663 222.127V221.738C256.663 219.604 254.956 218.449 252.42 218.449H251.441ZM255.546 222.127C255.546 223.609 254.542 224.462 252.458 224.462H251.403C249.319 224.462 248.315 223.609 248.315 222.127V221.738C248.315 220.257 249.319 219.403 251.403 219.403H252.458C254.542 219.403 255.546 220.257 255.546 221.738V222.127Z" fill="white"/>
<defs>
<filter id="filter0_b_1_7353" x="-25.2334" y="-25.2246" width="446.447" height="446.449" filterUnits="userSpaceOnUse" color-interpolation-filters="sRGB">
<feFlood flood-opacity="0" result="BackgroundImageFix"/>
<feGaussianBlur in="BackgroundImageFix" stdDeviation="18.8301"/>
<feComposite in2="SourceAlpha" operator="in" result="effect1_backgroundBlur_1_7353"/>
<feBlend mode="normal" in="SourceGraphic" in2="effect1_backgroundBlur_1_7353" result="shape"/>
</filter>
</defs>
</svg>
