<svg width="161" height="15" viewBox="0 0 161 15" fill="none" xmlns="http://www.w3.org/2000/svg">
<path d="M0.488 12H2.184C2.168 10.72 2.168 8.56 2.168 7.44C2.168 5.44 2.136 3.408 2.12 2.08H2.616C3.832 3.68 5.208 5.472 6.12 6.64L10.296 12H13.24C13.224 11.232 13.224 10.608 13.224 9.44V2.8C13.224 1.92 13.224 1.424 13.24 0.639999H11.544C11.56 1.904 11.56 4.08 11.56 5.36C11.56 6.656 11.608 9.152 11.624 10.56H11.16C9.864 8.832 7.976 6.352 7.464 5.68L3.576 0.639999H0.488C0.504 1.424 0.504 1.904 0.504 2.768V9.456C0.504 11.008 0.504 11.12 0.488 12ZM21.4544 12.192C26.1264 12.192 27.0064 11.264 27.0064 9.04L25.4224 8.976C25.4224 10.176 24.9904 10.768 21.4704 10.768C18.0624 10.768 17.2944 10.144 17.2144 7.984H27.0064C27.0064 7.712 27.0224 7.376 27.0064 7.12C26.9584 3.584 25.9024 2.528 21.3424 2.528C16.7824 2.528 15.5664 3.584 15.5664 7.12V7.6C15.5664 11.136 16.7824 12.192 21.4544 12.192ZM21.3424 3.92C24.6224 3.92 25.2464 4.56 25.3104 6.608H17.2144C17.3264 4.496 18.1264 3.92 21.3424 3.92ZM35.4955 7.44C35.8955 6.4 36.3115 5.36 36.6795 4.416H37.1435C37.4795 5.376 37.8475 6.448 38.1995 7.488L39.7515 12H42.3435C43.2075 9.728 45.0955 4.896 46.0395 2.72H44.3275L42.7755 6.784C42.3115 8.016 41.8315 9.296 41.4155 10.4H40.8235C40.5035 9.376 40.1035 8.192 39.7035 7.024L38.2315 2.72H35.7355L34.1355 6.96C33.7035 8.112 33.2395 9.328 32.8555 10.4H32.2315C31.8635 9.312 31.4315 8.032 31.0315 6.848L29.6395 2.72H27.8155C28.6475 4.864 30.3915 9.728 31.1595 12H33.7515L35.4955 7.44ZM53.581 12C53.581 12.96 53.581 13.76 53.565 14.24H55.213C55.197 13.584 55.197 12.432 55.197 10.752C55.997 11.728 57.373 12.192 59.613 12.192C63.997 12.192 65.229 11.136 65.229 7.6V7.12C65.229 3.584 63.997 2.528 59.709 2.528C57.341 2.528 55.901 3.04 55.117 4.08V2.72H53.565C53.581 3.392 53.581 3.968 53.581 4.704V12ZM55.181 7.424V7.296C55.181 4.768 55.901 4.016 59.389 4.016C62.893 4.016 63.597 4.688 63.597 7.28V7.44C63.597 10.032 62.893 10.704 59.309 10.704C55.901 10.704 55.181 9.968 55.181 7.424ZM72.2385 12.192C74.7185 12.192 76.1265 11.696 76.8305 10.912L76.8465 12H78.2865C78.2705 10.736 78.2705 9.92 78.2705 8.96C78.2705 7.616 78.2865 7.008 78.2865 5.744C78.2865 3.552 77.4705 2.528 72.7345 2.528C68.4305 2.528 67.4545 3.44 67.4865 5.376L69.1025 5.424C69.0865 4.32 69.4705 3.952 72.7345 3.952C76.1105 3.952 76.6705 4.448 76.6705 6.048V7.184C75.9185 6.592 74.5425 6.24 72.2385 6.24C68.0305 6.24 67.1185 7.12 67.1185 9.248C67.1185 11.328 67.9825 12.192 72.2385 12.192ZM72.7025 10.8C69.4385 10.8 68.7665 10.4 68.7665 9.248C68.7665 8.064 69.1985 7.568 72.7025 7.568C76.1425 7.568 76.7025 8.048 76.7025 8.768V9.264C76.7025 10.304 76.1425 10.8 72.7025 10.8ZM85.9435 12.192C90.5995 12.192 91.1915 11.456 91.1915 9.536C91.1915 7.632 90.6155 6.928 85.8155 6.528C82.3755 6.24 82.1355 5.952 82.1355 5.152C82.1355 4.304 82.6315 3.968 85.6395 3.968C88.6955 3.968 89.1755 4.336 89.1755 5.312V5.552L90.8235 5.504C90.8235 3.28 90.0395 2.528 85.7035 2.528C81.4315 2.528 80.5995 3.312 80.5995 5.264C80.5995 7.152 81.3035 7.76 85.5595 8.112C89.2715 8.416 89.5595 8.72 89.5595 9.616C89.5595 10.48 89.2235 10.848 86.0075 10.848C82.5995 10.848 82.1035 10.48 82.1035 9.184V8.928L80.4875 8.976C80.4875 11.664 81.3195 12.192 85.9435 12.192ZM98.2091 12.192C102.865 12.192 103.457 11.456 103.457 9.536C103.457 7.632 102.881 6.928 98.0811 6.528C94.6411 6.24 94.4011 5.952 94.4011 5.152C94.4011 4.304 94.8971 3.968 97.9051 3.968C100.961 3.968 101.441 4.336 101.441 5.312V5.552L103.089 5.504C103.089 3.28 102.305 2.528 97.9691 2.528C93.6971 2.528 92.8651 3.312 92.8651 5.264C92.8651 7.152 93.5691 7.76 97.8251 8.112C101.537 8.416 101.825 8.72 101.825 9.616C101.825 10.48 101.489 10.848 98.2731 10.848C94.8651 10.848 94.3691 10.48 94.3691 9.184V8.928L92.7531 8.976C92.7531 11.664 93.5851 12.192 98.2091 12.192ZM112.027 7.44C112.427 6.4 112.843 5.36 113.211 4.416H113.675C114.011 5.376 114.379 6.448 114.731 7.488L116.283 12H118.875C119.739 9.728 121.627 4.896 122.571 2.72H120.859L119.307 6.784C118.843 8.016 118.363 9.296 117.947 10.4H117.355C117.035 9.376 116.635 8.192 116.235 7.024L114.763 2.72H112.267L110.667 6.96C110.235 8.112 109.771 9.328 109.387 10.4H108.763C108.395 9.312 107.963 8.032 107.563 6.848L106.171 2.72H104.347C105.179 4.864 106.923 9.728 107.691 12H110.283L112.027 7.44ZM129.219 12.192C133.843 12.192 135.059 11.136 135.059 7.6V7.12C135.059 3.584 133.843 2.528 129.219 2.528C124.595 2.528 123.379 3.584 123.379 7.12V7.6C123.379 11.136 124.595 12.192 129.219 12.192ZM129.219 10.704C125.699 10.704 125.011 10.032 125.011 7.44V7.28C125.011 4.688 125.699 4.016 129.219 4.016C132.739 4.016 133.427 4.688 133.427 7.28V7.44C133.427 10.032 132.739 10.704 129.219 10.704ZM137.347 9.44C137.347 10.704 137.347 11.328 137.331 12H138.963C138.947 11.328 138.947 10.736 138.947 9.44V7.296C138.947 4.608 139.699 4.016 142.451 4.016C145.251 4.016 145.571 4.4 145.571 6.208V6.528L147.107 6.496C147.123 6.256 147.123 6.016 147.123 5.824C147.123 3.168 146.403 2.528 142.835 2.528C140.851 2.528 139.571 3.04 138.851 4.08L138.819 2.72H137.331C137.347 3.344 137.347 3.92 137.347 5.104V9.44ZM154.149 12.192C156.565 12.192 158.005 11.664 158.773 10.592L158.805 12H160.293C160.277 11.216 160.277 10.672 160.277 9.44V2.72C160.277 1.536 160.277 0.719999 160.293 0.0319996H158.629C158.645 0.688 158.661 2.352 158.661 3.968C157.861 2.992 156.485 2.528 154.245 2.528C149.861 2.528 148.629 3.584 148.629 7.12V7.6C148.629 11.136 149.861 12.192 154.149 12.192ZM154.469 10.704C150.965 10.704 150.261 10.032 150.261 7.44V7.28C150.261 4.688 150.965 4.016 154.549 4.016C157.957 4.016 158.677 4.752 158.677 7.296V7.424C158.677 9.952 157.957 10.704 154.469 10.704Z" fill="#9EA1AB"/>
</svg>
