<svg width="200" height="41" viewBox="0 0 200 41" fill="none" xmlns="http://www.w3.org/2000/svg">
<path d="M3.96 27.2C3.96 28.2 4.05333 29.0467 4.24 29.74C4.44 30.4333 4.75333 31 5.18 31.44C5.60667 31.8667 6.15333 32.18 6.82 32.38C7.5 32.5667 8.32 32.66 9.28 32.66C10.6667 32.66 12 32.5733 13.28 32.4C14.5733 32.2267 15.72 32 16.72 31.72L17.2 33.28C16.04 33.5467 14.7667 33.7667 13.38 33.94C12.0067 34.1 10.56 34.1867 9.04 34.2C7.6 34.2133 6.42667 34.0467 5.52 33.7C4.62667 33.34 3.92667 32.8467 3.42 32.22C2.92667 31.5933 2.58667 30.8533 2.4 30C2.22667 29.1333 2.14 28.2 2.14 27.2C2.14 26.2 2.22667 25.2733 2.4 24.42C2.58667 23.5667 2.93333 22.8333 3.44 22.22C3.96 21.6067 4.67333 21.1267 5.58 20.78C6.48667 20.4333 7.67333 20.26 9.14 20.26C9.83333 20.26 10.5333 20.2867 11.24 20.34C11.96 20.38 12.66 20.44 13.34 20.52C14.02 20.6 14.6733 20.6933 15.3 20.8C15.9267 20.8933 16.5 20.9933 17.02 21.1L16.52 22.64C16.0133 22.5333 15.4533 22.4333 14.84 22.34C14.24 22.2333 13.62 22.14 12.98 22.06C12.34 21.98 11.7 21.92 11.06 21.88C10.4333 21.8267 9.84 21.8 9.28 21.8C8.26667 21.8 7.42 21.8867 6.74 22.06C6.06 22.22 5.51333 22.5067 5.1 22.92C4.68667 23.32 4.39333 23.8733 4.22 24.58C4.04667 25.2733 3.96 26.1467 3.96 27.2ZM21.9331 19.76V34H20.1131V21.28H18.5331V19.76H21.9331ZM32.8786 23C33.8919 23 34.8119 23.1133 35.6386 23.34C36.4653 23.5667 37.1719 23.9 37.7586 24.34C38.3586 24.78 38.8186 25.3267 39.1386 25.98C39.4719 26.6333 39.6386 27.3867 39.6386 28.24V28.86C39.6386 29.7133 39.4719 30.4667 39.1386 31.12C38.8186 31.7733 38.3586 32.32 37.7586 32.76C37.1719 33.2 36.4653 33.5333 35.6386 33.76C34.8119 33.9867 33.8919 34.1 32.8786 34.1H31.3186C30.3053 34.1 29.3853 33.9867 28.5586 33.76C27.7319 33.5333 27.0186 33.2 26.4186 32.76C25.8319 32.32 25.3719 31.7733 25.0386 31.12C24.7186 30.4667 24.5586 29.7133 24.5586 28.86V28.24C24.5586 27.3867 24.7186 26.6333 25.0386 25.98C25.3719 25.3267 25.8319 24.78 26.4186 24.34C27.0186 23.9 27.7319 23.5667 28.5586 23.34C29.3853 23.1133 30.3053 23 31.3186 23H32.8786ZM37.8586 28.24C37.8586 27.0533 37.4519 26.14 36.6386 25.5C35.8386 24.8467 34.6053 24.52 32.9386 24.52H31.2586C29.5919 24.52 28.3519 24.8467 27.5386 25.5C26.7386 26.14 26.3386 27.0533 26.3386 28.24V28.86C26.3386 30.0467 26.7386 30.9667 27.5386 31.62C28.3519 32.26 29.5919 32.58 31.2586 32.58H32.9386C34.6053 32.58 35.8386 32.26 36.6386 31.62C37.4519 30.9667 37.8586 30.0467 37.8586 28.86V28.24ZM55.788 30.68C55.788 31.7867 55.2946 32.64 54.308 33.24C53.3346 33.8267 51.768 34.1133 49.608 34.1H49.128C48.5013 34.1 47.8546 34.0733 47.188 34.02C46.5213 33.9667 45.8546 33.8867 45.188 33.78C44.5346 33.6733 43.9013 33.5533 43.288 33.42C42.688 33.2867 42.148 33.14 41.668 32.98L42.188 31.5C42.668 31.6467 43.1946 31.7867 43.768 31.92C44.3546 32.0533 44.9546 32.1733 45.568 32.28C46.1813 32.3733 46.7946 32.4467 47.408 32.5C48.0213 32.5533 48.6013 32.58 49.148 32.58H49.608C51.208 32.58 52.3413 32.4333 53.008 32.14C53.6746 31.8467 54.008 31.4267 54.008 30.88C54.008 30.3867 53.8746 30.0267 53.608 29.8C53.3546 29.56 52.8613 29.4 52.128 29.32C51.728 29.28 51.2613 29.2467 50.728 29.22C50.208 29.1933 49.6746 29.1733 49.128 29.16C48.5946 29.1467 48.0746 29.1333 47.568 29.12C47.0613 29.1067 46.628 29.0867 46.268 29.06C44.8413 28.9667 43.7813 28.7133 43.088 28.3C42.3946 27.8733 42.048 27.18 42.048 26.22C42.048 25.1 42.5946 24.28 43.688 23.76C44.7813 23.24 46.3613 22.9867 48.428 23H48.908C50.0546 23 51.2013 23.0933 52.348 23.28C53.508 23.4667 54.5746 23.7133 55.548 24.02L55.068 25.5C54.148 25.1533 53.168 24.9067 52.128 24.76C51.088 24.6 50.0146 24.52 48.908 24.52H48.428C47.4946 24.52 46.728 24.5533 46.128 24.62C45.5413 24.6733 45.0746 24.7667 44.728 24.9C44.3946 25.0333 44.1613 25.2067 44.028 25.42C43.8946 25.62 43.828 25.86 43.828 26.14C43.828 26.5533 44.0213 26.8733 44.408 27.1C44.7946 27.3133 45.4813 27.4667 46.468 27.56C46.8013 27.6 47.2146 27.6333 47.708 27.66C48.2013 27.6733 48.7213 27.6933 49.268 27.72C49.828 27.7333 50.3813 27.7533 50.928 27.78C51.4746 27.8067 51.9746 27.84 52.428 27.88C53.5346 27.9867 54.368 28.26 54.928 28.7C55.5013 29.1267 55.788 29.7867 55.788 30.68ZM64.2617 24.52C62.5951 24.52 61.3884 24.8267 60.6417 25.44C59.9084 26.0533 59.5417 26.9533 59.5417 28.14V28.96C59.5417 30.1467 59.9084 31.0467 60.6417 31.66C61.3884 32.2733 62.5951 32.58 64.2617 32.58H65.5217C66.0151 32.58 66.5351 32.56 67.0817 32.52C67.6284 32.48 68.1751 32.42 68.7217 32.34C69.2684 32.26 69.8017 32.1667 70.3217 32.06C70.8417 31.94 71.3217 31.8067 71.7617 31.66L72.2417 33.16C71.2817 33.4533 70.2217 33.6867 69.0617 33.86C67.9017 34.02 66.7217 34.1 65.5217 34.1H64.3217C63.3084 34.1 62.3951 33.9933 61.5817 33.78C60.7817 33.5667 60.0951 33.2467 59.5217 32.82C58.9617 32.38 58.5284 31.84 58.2217 31.2C57.9151 30.56 57.7617 29.8133 57.7617 28.96V28.14C57.7617 27.2867 57.9151 26.54 58.2217 25.9C58.5284 25.26 58.9617 24.7267 59.5217 24.3C60.0951 23.8733 60.7817 23.5533 61.5817 23.34C62.3951 23.1133 63.3084 23 64.3217 23H65.9417C66.9551 23 67.8417 23.0867 68.6017 23.26C69.3751 23.4333 70.0217 23.7133 70.5417 24.1C71.0617 24.4733 71.4484 24.96 71.7017 25.56C71.9684 26.1467 72.1017 26.8667 72.1017 27.72V29.42H60.9617L60.4417 27.9H70.3217V27.24C70.3217 26.32 69.9351 25.64 69.1617 25.2C68.3884 24.7467 67.3617 24.52 66.0817 24.52H64.2617Z" fill="white"/>
<path d="M1 1H199.5C188.583 1.32407 166.749 5.77778 166.749 21" stroke="white" stroke-width="2" stroke-linecap="round"/>
</svg>
