<svg width="176" height="52" viewBox="0 0 176 52" fill="none" xmlns="http://www.w3.org/2000/svg">
<rect width="176" height="52" rx="26" fill="#1E2025"/>
<path d="M66.4161 33.294C73.6611 33.294 75.3201 31.845 76.0971 27.372L73.3671 27.309C72.8631 29.913 71.9391 30.753 66.6051 30.753C61.3131 30.753 60.5571 29.724 61.2711 25.65L61.2921 25.44C62.0061 21.471 63.1401 20.337 68.4321 20.337C73.7871 20.337 74.4381 21.156 73.9761 23.781L76.7271 23.718C77.5041 19.329 75.8241 17.796 68.5581 17.796C61.3971 17.796 59.5071 19.518 58.4991 25.209L58.3731 25.881C57.3441 31.404 59.1291 33.294 66.4161 33.294Z" fill="#535559"/>
<path d="M78.5533 29.472C78.2803 31.005 78.1123 32.034 77.9023 33H80.6743C80.8213 32.034 81.0103 31.005 81.2623 29.493L82.7953 20.799C83.0683 19.308 83.2573 18.174 83.4463 17.292H80.6743C80.5273 18.195 80.3383 19.308 80.0863 20.778L78.5533 29.472Z" fill="#535559"/>
<path d="M91.4651 33.252C97.7231 33.252 99.2981 31.866 100.117 27.204L100.222 26.574C101.041 21.912 99.4241 20.526 93.1871 20.526C86.9291 20.526 85.3541 21.912 84.5351 26.574L84.4301 27.204C83.6111 31.866 85.2281 33.252 91.4651 33.252ZM91.6121 30.816C87.3281 30.816 86.6981 30.018 87.2231 26.973L87.2441 26.805C87.7901 23.739 88.7141 22.962 93.0191 22.962C97.3032 22.962 97.9752 23.739 97.4081 26.805L97.3871 26.973C96.8621 30.018 95.9171 30.816 91.6121 30.816Z" fill="#535559"/>
<path d="M108.597 33.252C114.771 33.252 115.506 32.475 115.968 29.829C116.409 27.351 115.527 26.217 109.689 25.734C105.384 25.356 105.153 24.915 105.3 23.949C105.426 23.088 106.098 22.689 109.71 22.689C113.469 22.689 113.952 23.13 113.742 24.264L113.679 24.537L116.43 24.474C116.934 21.534 115.863 20.526 109.878 20.526C104.166 20.526 103.158 21.408 102.696 24.012C102.255 26.511 103.158 27.54 108.513 27.96C113.112 28.359 113.385 28.8 113.217 29.85C113.07 30.795 112.587 31.173 108.744 31.173C104.502 31.173 104.019 30.753 104.271 29.304L104.313 28.989L101.625 29.052C101.016 32.559 102.318 33.252 108.597 33.252Z" fill="#535559"/>
<path d="M125.387 33.252C131.687 33.252 132.842 32.034 133.388 28.947L130.7 28.863C130.448 30.291 129.818 30.963 125.513 30.963C121.46 30.963 120.662 30.249 120.977 27.687H133.598C133.661 27.372 133.745 26.994 133.808 26.574C134.522 22.059 133.094 20.526 126.983 20.526C120.851 20.526 119.213 21.912 118.394 26.574L118.289 27.204C117.491 31.719 119.15 33.252 125.387 33.252ZM126.857 22.626C130.826 22.626 131.456 23.361 131.12 25.734H121.334C121.922 23.277 122.993 22.626 126.857 22.626Z" fill="#535559"/>
<path d="M141.959 33.252C144.983 33.252 146.831 32.538 148.007 31.152L147.713 33H150.296C150.464 31.971 150.59 31.257 150.863 29.64L152.417 20.778C152.69 19.266 152.879 18.174 153.068 17.292H150.254C150.128 18.174 149.75 20.421 149.372 22.563C148.574 21.219 146.831 20.526 143.807 20.526C138.158 20.526 136.583 21.87 135.764 26.574L135.659 27.204C134.84 31.866 136.394 33.252 141.959 33.252ZM142.883 30.774C138.62 30.774 137.927 29.997 138.452 26.973L138.473 26.805C139.019 23.76 140.006 23.004 144.353 23.004C148.469 23.004 149.183 23.844 148.658 26.805L148.616 26.973C148.091 29.913 147.083 30.774 142.883 30.774Z" fill="#535559"/>
<circle cx="27" cy="26" r="17" fill="#9EA1AB"/>
<path d="M21.9992 21L32.0391 31.0398" stroke="#535559" stroke-width="2" stroke-linecap="round"/>
<path d="M32.0398 21L22 31.0398" stroke="#535559" stroke-width="2" stroke-linecap="round"/>
</svg>
