<svg width="199" height="36" viewBox="0 0 199 36" fill="none" xmlns="http://www.w3.org/2000/svg">
<rect width="199" height="36" rx="17.6328" fill="#1E2025"/>
<mask id="path-2-outside-1_11_1769" maskUnits="userSpaceOnUse" x="19.9033" y="10.9707" width="158" height="13" fill="black">
<rect fill="white" x="19.9033" y="10.9707" width="158" height="13"/>
<path d="M27.6942 12.5232C26.3157 14.6458 22.2528 20.8682 20.9033 22.8455H23.0799L24.4148 20.7665H31.5975L32.1924 22.8455H34.2239C33.5999 20.8682 31.7571 14.6458 31.1622 12.5232H27.6942ZM26.2432 17.9169C27.0412 16.6666 27.8393 15.3872 28.5068 14.3259H29.8272C30.1174 15.4018 30.4657 16.6957 30.8139 17.9605L31.1477 19.1236H25.4596L26.2432 17.9169Z"/>
<path d="M39.7387 23.0199C41.8282 23.0199 43.1052 22.5256 43.9177 21.5661L43.7146 22.8455H45.4994C45.6155 22.1331 45.7025 21.6388 45.8912 20.5193L46.9649 14.3841C47.1536 13.3373 47.2842 12.5813 47.4148 11.9707H45.4704C45.3833 12.5813 45.1221 14.1369 44.8609 15.6199C44.3095 14.6894 43.1052 14.2096 41.0157 14.2096C37.1124 14.2096 36.0241 15.1401 35.4582 18.3967L35.3856 18.8329C34.8197 22.0604 35.8935 23.0199 39.7387 23.0199ZM40.3772 21.3044C37.4316 21.3044 36.9527 20.7665 37.3155 18.6729L37.33 18.5566C37.7073 16.4485 38.3893 15.9252 41.3929 15.9252C44.237 15.9252 44.7303 16.5067 44.3676 18.5566L44.3386 18.6729C43.9758 20.7083 43.2793 21.3044 40.3772 21.3044Z"/>
<path d="M52.4212 23.0199C54.5107 23.0199 55.7876 22.5256 56.6002 21.5661L56.397 22.8455H58.1818C58.2979 22.1331 58.385 21.6388 58.5736 20.5193L59.6474 14.3841C59.836 13.3373 59.9666 12.5813 60.0972 11.9707H58.1528C58.0657 12.5813 57.8046 14.1369 57.5434 15.6199C56.992 14.6894 55.7876 14.2096 53.6981 14.2096C49.7948 14.2096 48.7065 15.1401 48.1406 18.3967L48.0681 18.8329C47.5022 22.0604 48.5759 23.0199 52.4212 23.0199ZM53.0597 21.3044C50.114 21.3044 49.6352 20.7665 49.998 18.6729L50.0125 18.5566C50.3897 16.4485 51.0717 15.9252 54.0754 15.9252C56.9194 15.9252 57.4128 16.5067 57.05 18.5566L57.021 18.6729C56.6582 20.7083 55.9617 21.3044 53.0597 21.3044Z"/>
<path d="M70.2248 23.0199C72.5465 23.0199 73.8379 22.5692 74.5489 21.7987L74.3893 22.8455H76.1015C76.2901 21.6969 76.4207 20.9555 76.5804 20.0832C76.8125 18.7456 76.9141 18.2513 77.1172 17.1028C77.4655 15.1255 76.6674 14.2096 72.2998 14.2096C68.3094 14.2096 67.3808 14.9802 67.076 16.8992L68.8898 16.9429C69.0349 16.0415 69.3832 15.7507 72.1692 15.7507C75.0277 15.7507 75.3905 16.1578 75.1583 17.4953L74.9842 18.4839C74.4473 17.9169 73.2865 17.6116 71.1244 17.6116C67.3662 17.6116 66.4521 18.4112 66.1038 20.3449C65.7846 22.2494 66.4376 23.0199 70.2248 23.0199ZM71.1244 21.5515C68.3239 21.5515 67.8596 21.2317 68.0192 20.3012C68.1788 19.3562 68.5996 18.9637 71.6033 18.9637C74.4909 18.9637 74.8826 19.3417 74.7666 19.9523L74.7085 20.3158C74.5634 21.159 74.0265 21.5515 71.1244 21.5515Z"/>
<path d="M88.9919 23.0199C93.2579 23.0199 94.2156 22.0604 94.6799 19.4725L92.8226 19.4289C92.5905 20.781 91.9375 21.3335 89.0789 21.3335C86.1623 21.3335 85.727 20.781 86.0898 18.6729L86.1043 18.5566C86.4816 16.434 87.12 15.8961 90.0366 15.8961C92.8952 15.8961 93.316 16.4631 93.0838 17.8006V17.7861L94.9556 17.7425C95.4345 15.0819 94.4042 14.2096 90.1382 14.2096C85.9302 14.2096 84.7984 15.1692 84.2324 18.3967L84.1599 18.8329C83.594 22.0604 84.7984 23.0199 88.9919 23.0199Z"/>
<path d="M100.981 23.0199C105.305 23.0199 106.393 22.0604 106.959 18.8329L107.031 18.3967C107.597 15.1692 106.48 14.2096 102.17 14.2096C97.8464 14.2096 96.7581 15.1692 96.1922 18.3967L96.1197 18.8329C95.5537 22.0604 96.6711 23.0199 100.981 23.0199ZM101.082 21.3335C98.1221 21.3335 97.6868 20.781 98.0495 18.6729L98.064 18.5566C98.4413 16.434 99.0798 15.8961 102.054 15.8961C105.015 15.8961 105.479 16.434 105.087 18.5566L105.073 18.6729C104.71 20.781 104.057 21.3335 101.082 21.3335Z"/>
<path d="M108.523 20.5193C108.335 21.6097 108.233 22.2058 108.103 22.8455H110.018C110.105 22.2058 110.207 21.6388 110.41 20.5193L110.744 18.6002C111.121 16.5212 111.817 15.9252 113.921 15.9252C115.793 15.9252 116.214 16.3759 115.953 17.8733L115.488 20.5629C115.285 21.6533 115.213 22.1185 115.068 22.8455H116.969C117.114 21.9586 117.244 21.3044 117.36 20.5193L117.709 18.6002C118.071 16.5212 118.811 15.9252 120.886 15.9252C122.758 15.9252 123.193 16.3759 122.932 17.8733L122.453 20.5484C122.265 21.6533 122.192 22.1185 122.033 22.8455H123.948C124.093 21.9732 124.209 21.3189 124.34 20.5484L124.47 19.7633C124.703 18.4549 124.848 17.757 124.949 17.1028C125.327 15.0238 124.557 14.2096 121.713 14.2096C119.871 14.2096 118.753 14.7185 118.057 15.7362C117.839 14.6458 116.867 14.2096 114.806 14.2096C113.007 14.2096 111.904 14.6749 111.179 15.6199L111.367 14.3841H109.597C109.51 14.9511 109.409 15.5035 109.234 16.5067L108.523 20.5193Z"/>
<path d="M126.69 20.5193C126.501 21.6097 126.4 22.2058 126.269 22.8455H128.184C128.271 22.2058 128.373 21.6388 128.576 20.5193L128.91 18.6002C129.287 16.5212 129.984 15.9252 132.088 15.9252C133.96 15.9252 134.38 16.3759 134.119 17.8733L133.655 20.5629C133.452 21.6533 133.379 22.1185 133.234 22.8455H135.135C135.28 21.9586 135.411 21.3044 135.527 20.5193L135.875 18.6002C136.238 16.5212 136.978 15.9252 139.053 15.9252C140.925 15.9252 141.36 16.3759 141.099 17.8733L140.62 20.5484C140.431 21.6533 140.359 22.1185 140.199 22.8455H142.114C142.259 21.9732 142.376 21.3189 142.506 20.5484L142.637 19.7633C142.869 18.4549 143.014 17.757 143.116 17.1028C143.493 15.0238 142.724 14.2096 139.88 14.2096C138.037 14.2096 136.92 14.7185 136.223 15.7362C136.005 14.6458 135.033 14.2096 132.973 14.2096C131.174 14.2096 130.071 14.6749 129.345 15.6199L129.534 14.3841H127.764C127.677 14.9511 127.575 15.5035 127.401 16.5067L126.69 20.5193Z"/>
<path d="M149.558 23.0199C153.911 23.0199 154.709 22.1767 155.086 20.0395L153.229 19.9814C153.055 20.97 152.619 21.4352 149.645 21.4352C146.844 21.4352 146.293 20.9409 146.51 19.1672H155.231C155.275 18.9492 155.333 18.6875 155.376 18.3967C155.87 15.2709 154.883 14.2096 150.66 14.2096C146.423 14.2096 145.291 15.1692 144.726 18.3967L144.653 18.8329C144.102 21.9586 145.248 23.0199 149.558 23.0199ZM150.573 15.6635C153.316 15.6635 153.751 16.1723 153.519 17.8152H146.757C147.163 16.1142 147.903 15.6635 150.573 15.6635Z"/>
<path d="M156.858 20.5193C156.67 21.6097 156.568 22.2058 156.438 22.8455H158.353C158.44 22.2058 158.542 21.6388 158.745 20.5193L159.079 18.6002C159.456 16.5212 160.167 15.9252 162.808 15.9252C165.55 15.9252 165.913 16.5649 165.608 18.3967L165.216 20.5484C165.013 21.726 164.941 22.1622 164.796 22.8455H166.711C166.813 22.1331 166.914 21.5225 167.103 20.5484L167.262 19.647C167.422 18.6729 167.509 18.2804 167.625 17.6407C168.046 15.2128 167.262 14.2096 163.577 14.2096C161.574 14.2096 160.312 14.7039 159.499 15.678L159.702 14.3841H157.932C157.845 14.9511 157.744 15.5035 157.569 16.5067L156.858 20.5193Z"/>
<path d="M170.53 17.4662C170.385 18.3095 170.225 19.1527 170.109 19.8215C169.674 22.3075 170.544 22.9182 174.07 22.9182C174.665 22.9182 175.115 22.8891 175.666 22.8455L175.928 21.2026C175.362 21.2462 175.028 21.2608 174.404 21.2608C172.242 21.2608 171.778 21.0427 172.068 19.3708L172.663 16.0269H176.842L177.132 14.3841H172.953C173.083 13.6717 173.185 13.1192 173.258 12.7267L171.342 12.7558C171.241 13.41 171.168 13.8898 171.067 14.3841C170.602 14.3841 170.08 14.3841 169.543 14.3841L169.253 16.0269H170.791L170.53 17.4662Z"/>
</mask>
<path d="M27.6942 12.5232C26.3157 14.6458 22.2528 20.8682 20.9033 22.8455H23.0799L24.4148 20.7665H31.5975L32.1924 22.8455H34.2239C33.5999 20.8682 31.7571 14.6458 31.1622 12.5232H27.6942ZM26.2432 17.9169C27.0412 16.6666 27.8393 15.3872 28.5068 14.3259H29.8272C30.1174 15.4018 30.4657 16.6957 30.8139 17.9605L31.1477 19.1236H25.4596L26.2432 17.9169Z" fill="#535559"/>
<path d="M39.7387 23.0199C41.8282 23.0199 43.1052 22.5256 43.9177 21.5661L43.7146 22.8455H45.4994C45.6155 22.1331 45.7025 21.6388 45.8912 20.5193L46.9649 14.3841C47.1536 13.3373 47.2842 12.5813 47.4148 11.9707H45.4704C45.3833 12.5813 45.1221 14.1369 44.8609 15.6199C44.3095 14.6894 43.1052 14.2096 41.0157 14.2096C37.1124 14.2096 36.0241 15.1401 35.4582 18.3967L35.3856 18.8329C34.8197 22.0604 35.8935 23.0199 39.7387 23.0199ZM40.3772 21.3044C37.4316 21.3044 36.9527 20.7665 37.3155 18.6729L37.33 18.5566C37.7073 16.4485 38.3893 15.9252 41.3929 15.9252C44.237 15.9252 44.7303 16.5067 44.3676 18.5566L44.3386 18.6729C43.9758 20.7083 43.2793 21.3044 40.3772 21.3044Z" fill="#535559"/>
<path d="M52.4212 23.0199C54.5107 23.0199 55.7876 22.5256 56.6002 21.5661L56.397 22.8455H58.1818C58.2979 22.1331 58.385 21.6388 58.5736 20.5193L59.6474 14.3841C59.836 13.3373 59.9666 12.5813 60.0972 11.9707H58.1528C58.0657 12.5813 57.8046 14.1369 57.5434 15.6199C56.992 14.6894 55.7876 14.2096 53.6981 14.2096C49.7948 14.2096 48.7065 15.1401 48.1406 18.3967L48.0681 18.8329C47.5022 22.0604 48.5759 23.0199 52.4212 23.0199ZM53.0597 21.3044C50.114 21.3044 49.6352 20.7665 49.998 18.6729L50.0125 18.5566C50.3897 16.4485 51.0717 15.9252 54.0754 15.9252C56.9194 15.9252 57.4128 16.5067 57.05 18.5566L57.021 18.6729C56.6582 20.7083 55.9617 21.3044 53.0597 21.3044Z" fill="#535559"/>
<path d="M70.2248 23.0199C72.5465 23.0199 73.8379 22.5692 74.5489 21.7987L74.3893 22.8455H76.1015C76.2901 21.6969 76.4207 20.9555 76.5804 20.0832C76.8125 18.7456 76.9141 18.2513 77.1172 17.1028C77.4655 15.1255 76.6674 14.2096 72.2998 14.2096C68.3094 14.2096 67.3808 14.9802 67.076 16.8992L68.8898 16.9429C69.0349 16.0415 69.3832 15.7507 72.1692 15.7507C75.0277 15.7507 75.3905 16.1578 75.1583 17.4953L74.9842 18.4839C74.4473 17.9169 73.2865 17.6116 71.1244 17.6116C67.3662 17.6116 66.4521 18.4112 66.1038 20.3449C65.7846 22.2494 66.4376 23.0199 70.2248 23.0199ZM71.1244 21.5515C68.3239 21.5515 67.8596 21.2317 68.0192 20.3012C68.1788 19.3562 68.5996 18.9637 71.6033 18.9637C74.4909 18.9637 74.8826 19.3417 74.7666 19.9523L74.7085 20.3158C74.5634 21.159 74.0265 21.5515 71.1244 21.5515Z" fill="#535559"/>
<path d="M88.9919 23.0199C93.2579 23.0199 94.2156 22.0604 94.6799 19.4725L92.8226 19.4289C92.5905 20.781 91.9375 21.3335 89.0789 21.3335C86.1623 21.3335 85.727 20.781 86.0898 18.6729L86.1043 18.5566C86.4816 16.434 87.12 15.8961 90.0366 15.8961C92.8952 15.8961 93.316 16.4631 93.0838 17.8006V17.7861L94.9556 17.7425C95.4345 15.0819 94.4042 14.2096 90.1382 14.2096C85.9302 14.2096 84.7984 15.1692 84.2324 18.3967L84.1599 18.8329C83.594 22.0604 84.7984 23.0199 88.9919 23.0199Z" fill="#535559"/>
<path d="M100.981 23.0199C105.305 23.0199 106.393 22.0604 106.959 18.8329L107.031 18.3967C107.597 15.1692 106.48 14.2096 102.17 14.2096C97.8464 14.2096 96.7581 15.1692 96.1922 18.3967L96.1197 18.8329C95.5537 22.0604 96.6711 23.0199 100.981 23.0199ZM101.082 21.3335C98.1221 21.3335 97.6868 20.781 98.0495 18.6729L98.064 18.5566C98.4413 16.434 99.0798 15.8961 102.054 15.8961C105.015 15.8961 105.479 16.434 105.087 18.5566L105.073 18.6729C104.71 20.781 104.057 21.3335 101.082 21.3335Z" fill="#535559"/>
<path d="M108.523 20.5193C108.335 21.6097 108.233 22.2058 108.103 22.8455H110.018C110.105 22.2058 110.207 21.6388 110.41 20.5193L110.744 18.6002C111.121 16.5212 111.817 15.9252 113.921 15.9252C115.793 15.9252 116.214 16.3759 115.953 17.8733L115.488 20.5629C115.285 21.6533 115.213 22.1185 115.068 22.8455H116.969C117.114 21.9586 117.244 21.3044 117.36 20.5193L117.709 18.6002C118.071 16.5212 118.811 15.9252 120.886 15.9252C122.758 15.9252 123.193 16.3759 122.932 17.8733L122.453 20.5484C122.265 21.6533 122.192 22.1185 122.033 22.8455H123.948C124.093 21.9732 124.209 21.3189 124.34 20.5484L124.47 19.7633C124.703 18.4549 124.848 17.757 124.949 17.1028C125.327 15.0238 124.557 14.2096 121.713 14.2096C119.871 14.2096 118.753 14.7185 118.057 15.7362C117.839 14.6458 116.867 14.2096 114.806 14.2096C113.007 14.2096 111.904 14.6749 111.179 15.6199L111.367 14.3841H109.597C109.51 14.9511 109.409 15.5035 109.234 16.5067L108.523 20.5193Z" fill="#535559"/>
<path d="M126.69 20.5193C126.501 21.6097 126.4 22.2058 126.269 22.8455H128.184C128.271 22.2058 128.373 21.6388 128.576 20.5193L128.91 18.6002C129.287 16.5212 129.984 15.9252 132.088 15.9252C133.96 15.9252 134.38 16.3759 134.119 17.8733L133.655 20.5629C133.452 21.6533 133.379 22.1185 133.234 22.8455H135.135C135.28 21.9586 135.411 21.3044 135.527 20.5193L135.875 18.6002C136.238 16.5212 136.978 15.9252 139.053 15.9252C140.925 15.9252 141.36 16.3759 141.099 17.8733L140.62 20.5484C140.431 21.6533 140.359 22.1185 140.199 22.8455H142.114C142.259 21.9732 142.376 21.3189 142.506 20.5484L142.637 19.7633C142.869 18.4549 143.014 17.757 143.116 17.1028C143.493 15.0238 142.724 14.2096 139.88 14.2096C138.037 14.2096 136.92 14.7185 136.223 15.7362C136.005 14.6458 135.033 14.2096 132.973 14.2096C131.174 14.2096 130.071 14.6749 129.345 15.6199L129.534 14.3841H127.764C127.677 14.9511 127.575 15.5035 127.401 16.5067L126.69 20.5193Z" fill="#535559"/>
<path d="M149.558 23.0199C153.911 23.0199 154.709 22.1767 155.086 20.0395L153.229 19.9814C153.055 20.97 152.619 21.4352 149.645 21.4352C146.844 21.4352 146.293 20.9409 146.51 19.1672H155.231C155.275 18.9492 155.333 18.6875 155.376 18.3967C155.87 15.2709 154.883 14.2096 150.66 14.2096C146.423 14.2096 145.291 15.1692 144.726 18.3967L144.653 18.8329C144.102 21.9586 145.248 23.0199 149.558 23.0199ZM150.573 15.6635C153.316 15.6635 153.751 16.1723 153.519 17.8152H146.757C147.163 16.1142 147.903 15.6635 150.573 15.6635Z" fill="#535559"/>
<path d="M156.858 20.5193C156.67 21.6097 156.568 22.2058 156.438 22.8455H158.353C158.44 22.2058 158.542 21.6388 158.745 20.5193L159.079 18.6002C159.456 16.5212 160.167 15.9252 162.808 15.9252C165.55 15.9252 165.913 16.5649 165.608 18.3967L165.216 20.5484C165.013 21.726 164.941 22.1622 164.796 22.8455H166.711C166.813 22.1331 166.914 21.5225 167.103 20.5484L167.262 19.647C167.422 18.6729 167.509 18.2804 167.625 17.6407C168.046 15.2128 167.262 14.2096 163.577 14.2096C161.574 14.2096 160.312 14.7039 159.499 15.678L159.702 14.3841H157.932C157.845 14.9511 157.744 15.5035 157.569 16.5067L156.858 20.5193Z" fill="#535559"/>
<path d="M170.53 17.4662C170.385 18.3095 170.225 19.1527 170.109 19.8215C169.674 22.3075 170.544 22.9182 174.07 22.9182C174.665 22.9182 175.115 22.8891 175.666 22.8455L175.928 21.2026C175.362 21.2462 175.028 21.2608 174.404 21.2608C172.242 21.2608 171.778 21.0427 172.068 19.3708L172.663 16.0269H176.842L177.132 14.3841H172.953C173.083 13.6717 173.185 13.1192 173.258 12.7267L171.342 12.7558C171.241 13.41 171.168 13.8898 171.067 14.3841C170.602 14.3841 170.08 14.3841 169.543 14.3841L169.253 16.0269H170.791L170.53 17.4662Z" fill="#535559"/>
<path d="M27.6942 12.5232C26.3157 14.6458 22.2528 20.8682 20.9033 22.8455H23.0799L24.4148 20.7665H31.5975L32.1924 22.8455H34.2239C33.5999 20.8682 31.7571 14.6458 31.1622 12.5232H27.6942ZM26.2432 17.9169C27.0412 16.6666 27.8393 15.3872 28.5068 14.3259H29.8272C30.1174 15.4018 30.4657 16.6957 30.8139 17.9605L31.1477 19.1236H25.4596L26.2432 17.9169Z" stroke="#535559" stroke-width="0.276389" mask="url(#path-2-outside-1_11_1769)"/>
<path d="M39.7387 23.0199C41.8282 23.0199 43.1052 22.5256 43.9177 21.5661L43.7146 22.8455H45.4994C45.6155 22.1331 45.7025 21.6388 45.8912 20.5193L46.9649 14.3841C47.1536 13.3373 47.2842 12.5813 47.4148 11.9707H45.4704C45.3833 12.5813 45.1221 14.1369 44.8609 15.6199C44.3095 14.6894 43.1052 14.2096 41.0157 14.2096C37.1124 14.2096 36.0241 15.1401 35.4582 18.3967L35.3856 18.8329C34.8197 22.0604 35.8935 23.0199 39.7387 23.0199ZM40.3772 21.3044C37.4316 21.3044 36.9527 20.7665 37.3155 18.6729L37.33 18.5566C37.7073 16.4485 38.3893 15.9252 41.3929 15.9252C44.237 15.9252 44.7303 16.5067 44.3676 18.5566L44.3386 18.6729C43.9758 20.7083 43.2793 21.3044 40.3772 21.3044Z" stroke="#535559" stroke-width="0.276389" mask="url(#path-2-outside-1_11_1769)"/>
<path d="M52.4212 23.0199C54.5107 23.0199 55.7876 22.5256 56.6002 21.5661L56.397 22.8455H58.1818C58.2979 22.1331 58.385 21.6388 58.5736 20.5193L59.6474 14.3841C59.836 13.3373 59.9666 12.5813 60.0972 11.9707H58.1528C58.0657 12.5813 57.8046 14.1369 57.5434 15.6199C56.992 14.6894 55.7876 14.2096 53.6981 14.2096C49.7948 14.2096 48.7065 15.1401 48.1406 18.3967L48.0681 18.8329C47.5022 22.0604 48.5759 23.0199 52.4212 23.0199ZM53.0597 21.3044C50.114 21.3044 49.6352 20.7665 49.998 18.6729L50.0125 18.5566C50.3897 16.4485 51.0717 15.9252 54.0754 15.9252C56.9194 15.9252 57.4128 16.5067 57.05 18.5566L57.021 18.6729C56.6582 20.7083 55.9617 21.3044 53.0597 21.3044Z" stroke="#535559" stroke-width="0.276389" mask="url(#path-2-outside-1_11_1769)"/>
<path d="M70.2248 23.0199C72.5465 23.0199 73.8379 22.5692 74.5489 21.7987L74.3893 22.8455H76.1015C76.2901 21.6969 76.4207 20.9555 76.5804 20.0832C76.8125 18.7456 76.9141 18.2513 77.1172 17.1028C77.4655 15.1255 76.6674 14.2096 72.2998 14.2096C68.3094 14.2096 67.3808 14.9802 67.076 16.8992L68.8898 16.9429C69.0349 16.0415 69.3832 15.7507 72.1692 15.7507C75.0277 15.7507 75.3905 16.1578 75.1583 17.4953L74.9842 18.4839C74.4473 17.9169 73.2865 17.6116 71.1244 17.6116C67.3662 17.6116 66.4521 18.4112 66.1038 20.3449C65.7846 22.2494 66.4376 23.0199 70.2248 23.0199ZM71.1244 21.5515C68.3239 21.5515 67.8596 21.2317 68.0192 20.3012C68.1788 19.3562 68.5996 18.9637 71.6033 18.9637C74.4909 18.9637 74.8826 19.3417 74.7666 19.9523L74.7085 20.3158C74.5634 21.159 74.0265 21.5515 71.1244 21.5515Z" stroke="#535559" stroke-width="0.276389" mask="url(#path-2-outside-1_11_1769)"/>
<path d="M88.9919 23.0199C93.2579 23.0199 94.2156 22.0604 94.6799 19.4725L92.8226 19.4289C92.5905 20.781 91.9375 21.3335 89.0789 21.3335C86.1623 21.3335 85.727 20.781 86.0898 18.6729L86.1043 18.5566C86.4816 16.434 87.12 15.8961 90.0366 15.8961C92.8952 15.8961 93.316 16.4631 93.0838 17.8006V17.7861L94.9556 17.7425C95.4345 15.0819 94.4042 14.2096 90.1382 14.2096C85.9302 14.2096 84.7984 15.1692 84.2324 18.3967L84.1599 18.8329C83.594 22.0604 84.7984 23.0199 88.9919 23.0199Z" stroke="#535559" stroke-width="0.276389" mask="url(#path-2-outside-1_11_1769)"/>
<path d="M100.981 23.0199C105.305 23.0199 106.393 22.0604 106.959 18.8329L107.031 18.3967C107.597 15.1692 106.48 14.2096 102.17 14.2096C97.8464 14.2096 96.7581 15.1692 96.1922 18.3967L96.1197 18.8329C95.5537 22.0604 96.6711 23.0199 100.981 23.0199ZM101.082 21.3335C98.1221 21.3335 97.6868 20.781 98.0495 18.6729L98.064 18.5566C98.4413 16.434 99.0798 15.8961 102.054 15.8961C105.015 15.8961 105.479 16.434 105.087 18.5566L105.073 18.6729C104.71 20.781 104.057 21.3335 101.082 21.3335Z" stroke="#535559" stroke-width="0.276389" mask="url(#path-2-outside-1_11_1769)"/>
<path d="M108.523 20.5193C108.335 21.6097 108.233 22.2058 108.103 22.8455H110.018C110.105 22.2058 110.207 21.6388 110.41 20.5193L110.744 18.6002C111.121 16.5212 111.817 15.9252 113.921 15.9252C115.793 15.9252 116.214 16.3759 115.953 17.8733L115.488 20.5629C115.285 21.6533 115.213 22.1185 115.068 22.8455H116.969C117.114 21.9586 117.244 21.3044 117.36 20.5193L117.709 18.6002C118.071 16.5212 118.811 15.9252 120.886 15.9252C122.758 15.9252 123.193 16.3759 122.932 17.8733L122.453 20.5484C122.265 21.6533 122.192 22.1185 122.033 22.8455H123.948C124.093 21.9732 124.209 21.3189 124.34 20.5484L124.47 19.7633C124.703 18.4549 124.848 17.757 124.949 17.1028C125.327 15.0238 124.557 14.2096 121.713 14.2096C119.871 14.2096 118.753 14.7185 118.057 15.7362C117.839 14.6458 116.867 14.2096 114.806 14.2096C113.007 14.2096 111.904 14.6749 111.179 15.6199L111.367 14.3841H109.597C109.51 14.9511 109.409 15.5035 109.234 16.5067L108.523 20.5193Z" stroke="#535559" stroke-width="0.276389" mask="url(#path-2-outside-1_11_1769)"/>
<path d="M126.69 20.5193C126.501 21.6097 126.4 22.2058 126.269 22.8455H128.184C128.271 22.2058 128.373 21.6388 128.576 20.5193L128.91 18.6002C129.287 16.5212 129.984 15.9252 132.088 15.9252C133.96 15.9252 134.38 16.3759 134.119 17.8733L133.655 20.5629C133.452 21.6533 133.379 22.1185 133.234 22.8455H135.135C135.28 21.9586 135.411 21.3044 135.527 20.5193L135.875 18.6002C136.238 16.5212 136.978 15.9252 139.053 15.9252C140.925 15.9252 141.36 16.3759 141.099 17.8733L140.62 20.5484C140.431 21.6533 140.359 22.1185 140.199 22.8455H142.114C142.259 21.9732 142.376 21.3189 142.506 20.5484L142.637 19.7633C142.869 18.4549 143.014 17.757 143.116 17.1028C143.493 15.0238 142.724 14.2096 139.88 14.2096C138.037 14.2096 136.92 14.7185 136.223 15.7362C136.005 14.6458 135.033 14.2096 132.973 14.2096C131.174 14.2096 130.071 14.6749 129.345 15.6199L129.534 14.3841H127.764C127.677 14.9511 127.575 15.5035 127.401 16.5067L126.69 20.5193Z" stroke="#535559" stroke-width="0.276389" mask="url(#path-2-outside-1_11_1769)"/>
<path d="M149.558 23.0199C153.911 23.0199 154.709 22.1767 155.086 20.0395L153.229 19.9814C153.055 20.97 152.619 21.4352 149.645 21.4352C146.844 21.4352 146.293 20.9409 146.51 19.1672H155.231C155.275 18.9492 155.333 18.6875 155.376 18.3967C155.87 15.2709 154.883 14.2096 150.66 14.2096C146.423 14.2096 145.291 15.1692 144.726 18.3967L144.653 18.8329C144.102 21.9586 145.248 23.0199 149.558 23.0199ZM150.573 15.6635C153.316 15.6635 153.751 16.1723 153.519 17.8152H146.757C147.163 16.1142 147.903 15.6635 150.573 15.6635Z" stroke="#535559" stroke-width="0.276389" mask="url(#path-2-outside-1_11_1769)"/>
<path d="M156.858 20.5193C156.67 21.6097 156.568 22.2058 156.438 22.8455H158.353C158.44 22.2058 158.542 21.6388 158.745 20.5193L159.079 18.6002C159.456 16.5212 160.167 15.9252 162.808 15.9252C165.55 15.9252 165.913 16.5649 165.608 18.3967L165.216 20.5484C165.013 21.726 164.941 22.1622 164.796 22.8455H166.711C166.813 22.1331 166.914 21.5225 167.103 20.5484L167.262 19.647C167.422 18.6729 167.509 18.2804 167.625 17.6407C168.046 15.2128 167.262 14.2096 163.577 14.2096C161.574 14.2096 160.312 14.7039 159.499 15.678L159.702 14.3841H157.932C157.845 14.9511 157.744 15.5035 157.569 16.5067L156.858 20.5193Z" stroke="#535559" stroke-width="0.276389" mask="url(#path-2-outside-1_11_1769)"/>
<path d="M170.53 17.4662C170.385 18.3095 170.225 19.1527 170.109 19.8215C169.674 22.3075 170.544 22.9182 174.07 22.9182C174.665 22.9182 175.115 22.8891 175.666 22.8455L175.928 21.2026C175.362 21.2462 175.028 21.2608 174.404 21.2608C172.242 21.2608 171.778 21.0427 172.068 19.3708L172.663 16.0269H176.842L177.132 14.3841H172.953C173.083 13.6717 173.185 13.1192 173.258 12.7267L171.342 12.7558C171.241 13.41 171.168 13.8898 171.067 14.3841C170.602 14.3841 170.08 14.3841 169.543 14.3841L169.253 16.0269H170.791L170.53 17.4662Z" stroke="#535559" stroke-width="0.276389" mask="url(#path-2-outside-1_11_1769)"/>
</svg>
