<svg width="200" height="16" viewBox="0 0 200 16" fill="none" xmlns="http://www.w3.org/2000/svg">
<path d="M7.616 13.224C12.976 13.224 14.256 12.088 14.256 8.856L12.656 8.808C12.624 11.016 11.936 11.672 7.68 11.672C3.424 11.672 2.608 10.808 2.608 7.416V7.224C2.608 3.944 3.424 2.968 7.68 2.968C11.936 2.968 12.656 3.624 12.656 5.832L14.256 5.784C14.256 2.552 12.96 1.416 7.616 1.416C2.304 1.416 0.928 2.712 0.928 7.064V7.576C0.928 11.928 2.304 13.224 7.616 13.224ZM21.8283 13.192C26.4523 13.192 27.6683 12.136 27.6683 8.6V8.12C27.6683 4.584 26.4523 3.528 21.8283 3.528C17.2043 3.528 15.9883 4.584 15.9883 8.12V8.6C15.9883 12.136 17.2043 13.192 21.8283 13.192ZM21.8283 11.704C18.3083 11.704 17.6203 11.032 17.6203 8.44V8.28C17.6203 5.688 18.3083 5.016 21.8283 5.016C25.3483 5.016 26.0363 5.688 26.0363 8.28V8.44C26.0363 11.032 25.3483 11.704 21.8283 11.704ZM29.956 10.44C29.956 11.704 29.956 12.328 29.94 13H31.572C31.556 12.328 31.556 11.736 31.556 10.44V8.2C31.556 5.768 32.308 5.016 35.444 5.016C38.692 5.016 39.3 5.832 39.3 7.96V10.456C39.3 11.816 39.3 12.28 39.284 13H40.916C40.9 12.248 40.9 11.608 40.9 10.456V9.48C40.9 8.52 40.916 8.136 40.916 7.48C40.916 4.664 40.1 3.528 35.876 3.528C33.604 3.528 32.212 4.04 31.46 5.08L31.428 3.72H29.94C29.956 4.344 29.956 4.92 29.956 6.104V10.44ZM44.2481 7.608C44.2481 8.888 44.2481 11.736 44.2321 13H45.8641C45.8481 12.296 45.8481 11.384 45.8481 10.44V5.176H48.3121V3.72H45.8481V3.576C45.8481 2.632 46.1201 2.408 46.8401 2.376C47.4321 2.344 48.1201 2.312 48.5361 2.312L48.4881 0.936C48.1521 0.952 47.2881 0.967999 46.5201 1.016C44.8721 1.112 44.2321 1.624 44.2321 3.416C44.2321 3.512 44.2321 3.608 44.2321 3.72H42.7121L42.6481 5.176H44.2321C44.2481 5.976 44.2481 6.856 44.2481 7.608ZM50.0033 1.288V2.776H51.6353V1.288H50.0033ZM50.0193 10.488C50.0193 11.56 50.0193 12.296 50.0033 13H51.6353C51.6193 12.296 51.6193 11.56 51.6193 10.504V6.424C51.6193 5.272 51.6193 4.408 51.6353 3.72H50.0033C50.0193 4.408 50.0193 5.272 50.0193 6.408V10.488ZM54.5654 10.44C54.5654 11.704 54.5654 12.328 54.5494 13H56.1814C56.1654 12.328 56.1654 11.736 56.1654 10.44V8.296C56.1654 5.608 56.9174 5.016 59.6694 5.016C62.4694 5.016 62.7894 5.4 62.7894 7.208V7.528L64.3254 7.496C64.3414 7.256 64.3414 7.016 64.3414 6.824C64.3414 4.168 63.6214 3.528 60.0534 3.528C58.0694 3.528 56.7894 4.04 56.0694 5.08L56.0374 3.72H54.5494C54.5654 4.344 54.5654 4.92 54.5654 6.104V10.44ZM66.4716 10.44C66.4716 11.704 66.4716 12.328 66.4556 13H68.0876C68.0716 12.328 68.0716 11.736 68.0716 10.44V8.2C68.0716 5.768 68.8236 5.016 71.3516 5.016C73.5596 5.016 74.1996 5.56 74.1996 7.208V10.488C74.1996 11.72 74.1996 12.216 74.1836 13H75.8156C75.7996 12.024 75.7996 11.32 75.7996 10.44V8.2C75.7996 5.768 76.5836 5.016 79.0956 5.016C81.3036 5.016 81.9436 5.56 81.9436 7.208V10.472C81.9436 11.72 81.9436 12.216 81.9276 13H83.5596C83.5436 12.024 83.5436 11.32 83.5436 10.472V9.64C83.5436 8.2 83.5596 7.384 83.5596 6.728C83.5596 4.392 82.7436 3.528 79.5756 3.528C77.5596 3.528 76.3116 4.072 75.6396 5.192C75.2396 3.992 74.1676 3.528 71.8316 3.528C69.8796 3.528 68.6476 4.04 67.9756 5.096L67.9436 3.72H66.4556C66.4716 4.344 66.4716 4.92 66.4716 6.104V10.44ZM92.3779 13C92.3779 13.96 92.3779 14.76 92.3619 15.24H94.0099C93.9939 14.584 93.9939 13.432 93.9939 11.752C94.7939 12.728 96.1699 13.192 98.4099 13.192C102.794 13.192 104.026 12.136 104.026 8.6V8.12C104.026 4.584 102.794 3.528 98.5059 3.528C96.1379 3.528 94.6979 4.04 93.9139 5.08V3.72H92.3619C92.3779 4.392 92.3779 4.968 92.3779 5.704V13ZM93.9779 8.424V8.296C93.9779 5.768 94.6979 5.016 98.1859 5.016C101.69 5.016 102.394 5.688 102.394 8.28V8.44C102.394 11.032 101.69 11.704 98.1059 11.704C94.6979 11.704 93.9779 10.968 93.9779 8.424ZM111.035 13.192C113.515 13.192 114.923 12.696 115.627 11.912L115.643 13H117.083C117.067 11.736 117.067 10.92 117.067 9.96C117.067 8.616 117.083 8.008 117.083 6.744C117.083 4.552 116.267 3.528 111.531 3.528C107.227 3.528 106.251 4.44 106.283 6.376L107.899 6.424C107.883 5.32 108.267 4.952 111.531 4.952C114.907 4.952 115.467 5.448 115.467 7.048V8.184C114.715 7.592 113.339 7.24 111.035 7.24C106.827 7.24 105.915 8.12 105.915 10.248C105.915 12.328 106.779 13.192 111.035 13.192ZM111.499 11.8C108.235 11.8 107.563 11.4 107.563 10.248C107.563 9.064 107.995 8.568 111.499 8.568C114.939 8.568 115.499 9.048 115.499 9.768V10.264C115.499 11.304 114.939 11.8 111.499 11.8ZM124.74 13.192C129.396 13.192 129.988 12.456 129.988 10.536C129.988 8.632 129.412 7.928 124.612 7.528C121.172 7.24 120.932 6.952 120.932 6.152C120.932 5.304 121.428 4.968 124.436 4.968C127.492 4.968 127.972 5.336 127.972 6.312V6.552L129.62 6.504C129.62 4.28 128.836 3.528 124.5 3.528C120.228 3.528 119.396 4.312 119.396 6.264C119.396 8.152 120.1 8.76 124.356 9.112C128.068 9.416 128.356 9.72 128.356 10.616C128.356 11.48 128.02 11.848 124.804 11.848C121.396 11.848 120.9 11.48 120.9 10.184V9.928L119.284 9.976C119.284 12.664 120.116 13.192 124.74 13.192ZM137.006 13.192C141.662 13.192 142.254 12.456 142.254 10.536C142.254 8.632 141.678 7.928 136.878 7.528C133.438 7.24 133.198 6.952 133.198 6.152C133.198 5.304 133.694 4.968 136.702 4.968C139.758 4.968 140.238 5.336 140.238 6.312V6.552L141.886 6.504C141.886 4.28 141.102 3.528 136.766 3.528C132.494 3.528 131.662 4.312 131.662 6.264C131.662 8.152 132.366 8.76 136.622 9.112C140.334 9.416 140.622 9.72 140.622 10.616C140.622 11.48 140.286 11.848 137.07 11.848C133.662 11.848 133.166 11.48 133.166 10.184V9.928L131.55 9.976C131.55 12.664 132.382 13.192 137.006 13.192ZM150.824 8.44C151.224 7.4 151.64 6.36 152.008 5.416H152.472C152.808 6.376 153.176 7.448 153.528 8.488L155.08 13H157.672C158.536 10.728 160.424 5.896 161.368 3.72H159.656L158.104 7.784C157.64 9.016 157.16 10.296 156.744 11.4H156.152C155.832 10.376 155.432 9.192 155.032 8.024L153.56 3.72H151.064L149.464 7.96C149.032 9.112 148.568 10.328 148.184 11.4H147.56C147.192 10.312 146.76 9.032 146.36 7.848L144.968 3.72H143.144C143.976 5.864 145.72 10.728 146.488 13H149.08L150.824 8.44ZM168.016 13.192C172.64 13.192 173.856 12.136 173.856 8.6V8.12C173.856 4.584 172.64 3.528 168.016 3.528C163.392 3.528 162.176 4.584 162.176 8.12V8.6C162.176 12.136 163.392 13.192 168.016 13.192ZM168.016 11.704C164.496 11.704 163.808 11.032 163.808 8.44V8.28C163.808 5.688 164.496 5.016 168.016 5.016C171.536 5.016 172.224 5.688 172.224 8.28V8.44C172.224 11.032 171.536 11.704 168.016 11.704ZM176.144 10.44C176.144 11.704 176.144 12.328 176.128 13H177.76C177.744 12.328 177.744 11.736 177.744 10.44V8.296C177.744 5.608 178.496 5.016 181.248 5.016C184.048 5.016 184.368 5.4 184.368 7.208V7.528L185.904 7.496C185.92 7.256 185.92 7.016 185.92 6.824C185.92 4.168 185.2 3.528 181.632 3.528C179.648 3.528 178.368 4.04 177.648 5.08L177.616 3.72H176.128C176.144 4.344 176.144 4.92 176.144 6.104V10.44ZM192.946 13.192C195.362 13.192 196.802 12.664 197.57 11.592L197.602 13H199.09C199.074 12.216 199.074 11.672 199.074 10.44V3.72C199.074 2.536 199.074 1.72 199.09 1.032H197.426C197.442 1.688 197.458 3.352 197.458 4.968C196.658 3.992 195.282 3.528 193.042 3.528C188.658 3.528 187.426 4.584 187.426 8.12V8.6C187.426 12.136 188.658 13.192 192.946 13.192ZM193.266 11.704C189.762 11.704 189.058 11.032 189.058 8.44V8.28C189.058 5.688 189.762 5.016 193.346 5.016C196.754 5.016 197.474 5.752 197.474 8.296V8.424C197.474 10.952 196.754 11.704 193.266 11.704Z" fill="#9EA1AB"/>
</svg>
