<svg width="557" height="21" viewBox="0 0 557 21" fill="none" xmlns="http://www.w3.org/2000/svg">
<path d="M9.7266 17.3081C17.3386 17.3081 19.1206 15.7901 19.0986 11.1041L16.2386 11.0381C16.1946 13.7661 15.3806 14.6461 9.7926 14.6461C4.2486 14.6461 3.2586 13.5681 3.2586 9.30011V9.08011C3.2586 4.92211 4.2266 3.73411 9.7706 3.73411C15.3806 3.73411 16.2166 4.59211 16.2166 7.34211L19.0766 7.27611C19.0986 2.56811 17.3166 1.07211 9.7266 1.07211C2.1586 1.07211 0.266602 2.87611 0.266602 8.83811V9.54211C0.266602 15.5041 2.1586 17.3081 9.7266 17.3081Z" fill="white"/>
<path d="M22.0237 13.4801C22.0237 15.1301 22.0237 16.0321 22.0017 17.0001H24.9057C24.8837 16.0321 24.8837 15.1741 24.8837 13.4801V10.7961C24.8837 7.29811 25.7637 6.52811 29.3717 6.52811C32.9137 6.52811 33.3537 7.03411 33.3537 9.30011V9.71811L36.1037 9.67411C36.1257 9.16811 36.1257 8.81611 36.1257 8.42011C36.1257 4.87811 35.0917 3.93211 30.3397 3.93211C27.4357 3.93211 25.6757 4.68011 24.7297 6.15411L24.7077 4.19611H22.0017C22.0237 5.05411 22.0237 5.89011 22.0237 7.40811V13.4801Z" fill="white"/>
<path d="M46.1756 17.2641C52.7536 17.2641 54.0516 15.9881 54.0516 12.7541L51.2576 12.6661C51.2576 14.1621 50.6856 14.8661 46.1976 14.8661C41.9296 14.8661 40.9616 14.1181 40.8296 11.4341H54.0516C54.0516 11.1041 54.0736 10.7081 54.0516 10.2681C54.0296 5.38411 52.4676 3.93211 46.0436 3.93211C39.6416 3.93211 37.9256 5.38411 37.9256 10.2681V10.9281C37.9256 15.8121 39.6416 17.2641 46.1756 17.2641ZM46.0656 6.13211C50.2016 6.13211 51.0156 6.90211 51.0816 9.38811H40.8296C41.0056 6.81411 42.0176 6.13211 46.0656 6.13211Z" fill="white"/>
<path d="M63.2509 17.2641C66.7929 17.2641 68.6409 16.5821 69.5209 15.4161L69.5649 17.0001H72.1609C72.1389 15.2621 72.1389 14.1401 72.1389 12.8201C72.1389 10.7961 72.1609 10.0481 72.1609 8.31011C72.1609 5.31811 70.9729 3.93211 64.3509 3.93211C58.3009 3.93211 56.8489 5.09811 56.8929 8.00211L59.6429 8.06811C59.6209 6.70411 60.0829 6.26411 64.3069 6.26411C68.6409 6.26411 69.3009 6.88011 69.3009 8.90411V10.3781C68.3329 9.52011 66.5069 9.08011 63.2509 9.08011C57.5529 9.08011 56.3429 10.2901 56.3429 13.2161C56.3429 16.0981 57.5089 17.2641 63.2509 17.2641ZM64.2629 15.0421C60.0169 15.0421 59.2249 14.5581 59.2249 13.1501C59.2249 11.7201 59.7529 11.1261 64.3069 11.1261C68.6849 11.1261 69.3669 11.6981 69.3669 12.6221V13.1721C69.3669 14.4481 68.6849 15.0421 64.2629 15.0421Z" fill="white"/>
<path d="M76.5702 8.86011C76.5702 10.1361 76.5482 11.4121 76.5482 12.4241C76.5482 16.1861 77.8022 17.1101 83.2142 17.1101C84.1162 17.1101 84.9742 17.0661 85.7882 17.0001L85.7662 14.5141C84.8862 14.5801 84.4242 14.6021 83.4562 14.6021C80.1782 14.6021 79.4302 14.2721 79.4302 11.7421V6.68211H85.7662V4.19611H79.4302C79.4302 3.09611 79.4302 2.26011 79.4522 1.68811L76.5482 1.73211C76.5702 2.72211 76.5702 3.42611 76.5702 4.19611C75.8662 4.19611 75.0742 4.19611 74.2602 4.19611V6.68211H76.5702V8.86011Z" fill="white"/>
<path d="M95.869 17.2641C102.447 17.2641 103.745 15.9881 103.745 12.7541L100.951 12.6661C100.951 14.1621 100.379 14.8661 95.891 14.8661C91.623 14.8661 90.655 14.1181 90.523 11.4341H103.745C103.745 11.1041 103.767 10.7081 103.745 10.2681C103.723 5.38411 102.161 3.93211 95.737 3.93211C89.335 3.93211 87.619 5.38411 87.619 10.2681V10.9281C87.619 15.8121 89.335 17.2641 95.869 17.2641ZM95.759 6.13211C99.895 6.13211 100.709 6.90211 100.775 9.38811H90.523C90.699 6.81411 91.711 6.13211 95.759 6.13211Z" fill="white"/>
<path d="M121.259 17.2641C124.801 17.2641 126.649 16.5821 127.529 15.4161L127.573 17.0001H130.169C130.147 15.2621 130.147 14.1401 130.147 12.8201C130.147 10.7961 130.169 10.0481 130.169 8.31011C130.169 5.31811 128.981 3.93211 122.359 3.93211C116.309 3.93211 114.857 5.09811 114.901 8.00211L117.651 8.06811C117.629 6.70411 118.091 6.26411 122.315 6.26411C126.649 6.26411 127.309 6.88011 127.309 8.90411V10.3781C126.341 9.52011 124.515 9.08011 121.259 9.08011C115.561 9.08011 114.351 10.2901 114.351 13.2161C114.351 16.0981 115.517 17.2641 121.259 17.2641ZM122.271 15.0421C118.025 15.0421 117.233 14.5581 117.233 13.1501C117.233 11.7201 117.761 11.1261 122.315 11.1261C126.693 11.1261 127.375 11.6981 127.375 12.6221V13.1721C127.375 14.4481 126.693 15.0421 122.271 15.0421Z" fill="white"/>
<path d="M142.078 17.0001C142.078 18.3201 142.078 19.4201 142.056 20.0801H144.982C144.96 19.2001 144.96 17.5501 144.96 15.2181C145.994 16.5821 147.82 17.2641 150.922 17.2641C156.862 17.2641 158.468 15.8561 158.468 10.9281V10.2681C158.468 5.34011 156.884 3.93211 151.032 3.93211C147.732 3.93211 145.84 4.68011 144.828 6.13211V4.19611H142.056C142.078 5.12011 142.078 5.93411 142.078 6.99011V17.0001ZM144.938 10.6861V10.5101C144.938 7.43011 145.818 6.52811 150.24 6.52811C154.706 6.52811 155.586 7.32011 155.586 10.5101V10.6861C155.586 13.8541 154.706 14.6681 150.13 14.6681C145.818 14.6681 144.938 13.7881 144.938 10.6861Z" fill="white"/>
<path d="M167.665 17.2641C171.207 17.2641 173.055 16.5821 173.935 15.4161L173.979 17.0001H176.575C176.553 15.2621 176.553 14.1401 176.553 12.8201C176.553 10.7961 176.575 10.0481 176.575 8.31011C176.575 5.31811 175.387 3.93211 168.765 3.93211C162.715 3.93211 161.263 5.09811 161.307 8.00211L164.057 8.06811C164.035 6.70411 164.497 6.26411 168.721 6.26411C173.055 6.26411 173.715 6.88011 173.715 8.90411V10.3781C172.747 9.52011 170.921 9.08011 167.665 9.08011C161.967 9.08011 160.757 10.2901 160.757 13.2161C160.757 16.0981 161.923 17.2641 167.665 17.2641ZM168.677 15.0421C164.431 15.0421 163.639 14.5581 163.639 13.1501C163.639 11.7201 164.167 11.1261 168.721 11.1261C173.099 11.1261 173.781 11.6981 173.781 12.6221V13.1721C173.781 14.4481 173.099 15.0421 168.677 15.0421Z" fill="white"/>
<path d="M187.034 17.2641C193.502 17.2641 194.426 16.2081 194.426 13.4361C194.426 10.8621 193.59 9.80611 187.1 9.32211C182.502 8.94811 182.194 8.61811 182.194 7.62811C182.194 6.61611 182.788 6.19811 186.55 6.19811C190.51 6.19811 191.082 6.66011 191.082 7.84811V8.13411L193.92 8.06811C193.92 4.98811 192.908 3.93211 186.638 3.93211C180.654 3.93211 179.444 5.05411 179.444 7.78211C179.444 10.4221 180.434 11.3021 186.286 11.7641C191.17 12.1381 191.544 12.5121 191.544 13.6121C191.544 14.6681 191.148 15.0861 187.1 15.0861C182.656 15.0861 182.084 14.6461 182.084 13.1281V12.7981L179.268 12.8641C179.268 16.5381 180.456 17.2641 187.034 17.2641Z" fill="white"/>
<path d="M203.964 17.2641C210.432 17.2641 211.356 16.2081 211.356 13.4361C211.356 10.8621 210.52 9.80611 204.03 9.32211C199.432 8.94811 199.124 8.61811 199.124 7.62811C199.124 6.61611 199.718 6.19811 203.48 6.19811C207.44 6.19811 208.012 6.66011 208.012 7.84811V8.13411L210.85 8.06811C210.85 4.98811 209.838 3.93211 203.568 3.93211C197.584 3.93211 196.374 5.05411 196.374 7.78211C196.374 10.4221 197.364 11.3021 203.216 11.7641C208.1 12.1381 208.474 12.5121 208.474 13.6121C208.474 14.6681 208.078 15.0861 204.03 15.0861C199.586 15.0861 199.014 14.6461 199.014 13.1281V12.7981L196.198 12.8641C196.198 16.5381 197.386 17.2641 203.964 17.2641Z" fill="white"/>
<path d="M223.493 11.1261C223.977 9.78411 224.483 8.42011 224.967 7.16611H225.671C226.089 8.44211 226.551 9.85011 226.969 11.1701L228.927 17.0001H233.393C234.559 13.8761 237.133 7.18811 238.387 4.19611H235.329L233.371 9.71811C232.821 11.2581 232.271 12.8421 231.765 14.2721H230.841C230.401 12.9521 229.917 11.4561 229.433 10.0041L227.453 4.19611H223.295L221.227 9.96011C220.699 11.4121 220.149 12.9081 219.687 14.2721H218.719C218.279 12.8861 217.773 11.3241 217.289 9.82811L215.419 4.19611H212.207C213.351 7.14411 215.749 13.8761 216.805 17.0001H221.271L223.493 11.1261Z" fill="white"/>
<path d="M247.44 17.2641C253.996 17.2641 255.668 15.8121 255.668 10.9281V10.2681C255.668 5.38411 253.996 3.93211 247.44 3.93211C240.906 3.93211 239.234 5.38411 239.234 10.2681V10.9281C239.234 15.8121 240.906 17.2641 247.44 17.2641ZM247.44 14.7121C242.952 14.7121 242.116 13.8761 242.116 10.6861V10.5101C242.116 7.29811 242.952 6.48411 247.44 6.48411C251.95 6.48411 252.764 7.29811 252.764 10.5101V10.6861C252.764 13.8761 251.95 14.7121 247.44 14.7121Z" fill="white"/>
<path d="M258.502 13.4801C258.502 15.1301 258.502 16.0321 258.48 17.0001H261.384C261.362 16.0321 261.362 15.1741 261.362 13.4801V10.7961C261.362 7.29811 262.242 6.52811 265.85 6.52811C269.392 6.52811 269.832 7.03411 269.832 9.30011V9.71811L272.582 9.67411C272.604 9.16811 272.604 8.81611 272.604 8.42011C272.604 4.87811 271.57 3.93211 266.818 3.93211C263.914 3.93211 262.154 4.68011 261.208 6.15411L261.186 4.19611H258.48C258.502 5.05411 258.502 5.89011 258.502 7.40811V13.4801Z" fill="white"/>
<path d="M281.862 17.2641C285.184 17.2641 287.076 16.4941 288.088 14.9981L288.11 17.0001H290.816C290.794 15.9221 290.794 15.1741 290.794 13.4801V4.19611C290.794 2.61211 290.794 1.46811 290.816 0.544109H287.868C287.89 1.44611 287.912 3.73411 287.912 5.97811C286.878 4.61411 285.03 3.93211 281.928 3.93211C276.01 3.93211 274.404 5.34011 274.404 10.2681V10.9281C274.404 15.8561 276.01 17.2641 281.862 17.2641ZM282.654 14.6681C278.166 14.6681 277.286 13.8761 277.286 10.6861V10.5101C277.286 7.27611 278.166 6.48411 282.72 6.48411C287.054 6.48411 287.934 7.36411 287.934 10.5101V10.6861C287.934 13.7661 287.054 14.6681 282.654 14.6681Z" fill="white"/>
<path d="M303.465 9.87211C303.465 11.6321 303.465 15.2621 303.443 17.0001H306.347C306.325 15.9881 306.325 14.8221 306.325 13.4801V6.68211H309.735V4.19611H306.325C306.347 3.07411 306.699 2.81011 307.711 2.76611C308.569 2.70011 309.493 2.67811 310.021 2.67811L309.933 0.412109C309.317 0.434109 308.195 0.456109 307.073 0.544109C304.323 0.72011 303.443 1.49011 303.443 4.13011V4.19611H301.331L301.243 6.68211H303.465C303.465 7.71611 303.465 8.86011 303.465 9.87211Z" fill="white"/>
<path d="M318.897 17.2641C325.453 17.2641 327.125 15.8121 327.125 10.9281V10.2681C327.125 5.38411 325.453 3.93211 318.897 3.93211C312.363 3.93211 310.691 5.38411 310.691 10.2681V10.9281C310.691 15.8121 312.363 17.2641 318.897 17.2641ZM318.897 14.7121C314.409 14.7121 313.573 13.8761 313.573 10.6861V10.5101C313.573 7.29811 314.409 6.48411 318.897 6.48411C323.407 6.48411 324.221 7.29811 324.221 10.5101V10.6861C324.221 13.8761 323.407 14.7121 318.897 14.7121Z" fill="white"/>
<path d="M329.959 13.4801C329.959 15.1301 329.959 16.0321 329.937 17.0001H332.841C332.819 16.0321 332.819 15.1741 332.819 13.4801V10.7961C332.819 7.29811 333.699 6.52811 337.307 6.52811C340.849 6.52811 341.289 7.03411 341.289 9.30011V9.71811L344.039 9.67411C344.061 9.16811 344.061 8.81611 344.061 8.42011C344.061 4.87811 343.027 3.93211 338.275 3.93211C335.371 3.93211 333.611 4.68011 332.665 6.15411L332.643 4.19611H329.937C329.959 5.05411 329.959 5.89011 329.959 7.40811V13.4801Z" fill="white"/>
<path d="M363.966 17.1321C365.594 13.9201 368.982 7.18811 370.566 4.19611H367.486L364.846 9.36611C364.23 10.5981 363.614 11.8521 363.064 12.9961H361.854C361.172 11.8301 360.38 10.5761 359.632 9.32211L356.508 4.19611H353.274C355.188 7.21011 358.444 12.6001 360.094 15.4161H361.81L361.48 16.0101C360.754 17.3741 360.248 17.6601 358.906 17.6601C358.07 17.6601 357.3 17.6381 356.398 17.5941L356.354 20.0141C357.256 20.1021 358.356 20.1461 358.994 20.1461C361.656 20.1461 362.8 19.4201 363.966 17.1321Z" fill="white"/>
<path d="M379.397 17.2641C385.953 17.2641 387.625 15.8121 387.625 10.9281V10.2681C387.625 5.38411 385.953 3.93211 379.397 3.93211C372.863 3.93211 371.191 5.38411 371.191 10.2681V10.9281C371.191 15.8121 372.863 17.2641 379.397 17.2641ZM379.397 14.7121C374.909 14.7121 374.073 13.8761 374.073 10.6861V10.5101C374.073 7.29811 374.909 6.48411 379.397 6.48411C383.907 6.48411 384.721 7.29811 384.721 10.5101V10.6861C384.721 13.8761 383.907 14.7121 379.397 14.7121Z" fill="white"/>
<path d="M390.393 9.03611C390.393 10.4881 390.371 11.0821 390.371 12.0721C390.371 15.7461 391.449 17.2641 397.015 17.2641C400.227 17.2641 402.097 16.4941 403.087 14.9981L403.131 17.0001H405.815C405.793 16.1201 405.793 15.3061 405.793 13.7881V7.71611C405.793 6.04411 405.793 5.16411 405.815 4.19611H402.933C402.955 5.16411 402.955 6.02211 402.955 7.71611V10.6201C402.955 13.7441 402.031 14.6681 398.093 14.6681C393.979 14.6681 393.231 13.7001 393.231 10.9061V7.67211C393.231 5.89011 393.231 5.23011 393.253 4.19611H390.371C390.393 5.27411 390.393 6.19811 390.393 7.67211V9.03611Z" fill="white"/>
<path d="M409.409 13.4801C409.409 15.1301 409.409 16.0321 409.387 17.0001H412.291C412.269 16.0321 412.269 15.1741 412.269 13.4801V10.7961C412.269 7.29811 413.149 6.52811 416.757 6.52811C420.299 6.52811 420.739 7.03411 420.739 9.30011V9.71811L423.489 9.67411C423.511 9.16811 423.511 8.81611 423.511 8.42011C423.511 4.87811 422.477 3.93211 417.725 3.93211C414.821 3.93211 413.061 4.68011 412.115 6.15411L412.093 4.19611H409.387C409.409 5.05411 409.409 5.89011 409.409 7.40811V13.4801Z" fill="white"/>
<path d="M440.753 17.2641C444.295 17.2641 446.143 16.5821 447.023 15.4161L447.067 17.0001H449.663C449.641 15.2621 449.641 14.1401 449.641 12.8201C449.641 10.7961 449.663 10.0481 449.663 8.31011C449.663 5.31811 448.475 3.93211 441.853 3.93211C435.803 3.93211 434.351 5.09811 434.395 8.00211L437.145 8.06811C437.123 6.70411 437.585 6.26411 441.809 6.26411C446.143 6.26411 446.803 6.88011 446.803 8.90411V10.3781C445.835 9.52011 444.009 9.08011 440.753 9.08011C435.055 9.08011 433.845 10.2901 433.845 13.2161C433.845 16.0981 435.011 17.2641 440.753 17.2641ZM441.765 15.0421C437.519 15.0421 436.727 14.5581 436.727 13.1501C436.727 11.7201 437.255 11.1261 441.809 11.1261C446.187 11.1261 446.869 11.6981 446.869 12.6221V13.1721C446.869 14.4481 446.187 15.0421 441.765 15.0421Z" fill="white"/>
<path d="M460.606 17.2641C467.074 17.2641 468.614 15.8121 468.614 11.8961L465.798 11.8301C465.798 13.8761 464.962 14.7121 460.628 14.7121C456.206 14.7121 455.37 13.8761 455.37 10.6861V10.5101C455.37 7.29811 456.206 6.48411 460.628 6.48411C464.962 6.48411 465.754 7.34211 465.754 9.36611V9.34411L468.57 9.27811C468.57 5.25211 467.096 3.93211 460.606 3.93211C454.226 3.93211 452.488 5.38411 452.488 10.2681V10.9281C452.488 15.8121 454.248 17.2641 460.606 17.2641Z" fill="white"/>
<path d="M478.739 17.2641C485.207 17.2641 486.747 15.8121 486.747 11.8961L483.931 11.8301C483.931 13.8761 483.095 14.7121 478.761 14.7121C474.339 14.7121 473.503 13.8761 473.503 10.6861V10.5101C473.503 7.29811 474.339 6.48411 478.761 6.48411C483.095 6.48411 483.887 7.34211 483.887 9.36611V9.34411L486.703 9.27811C486.703 5.25211 485.229 3.93211 478.739 3.93211C472.359 3.93211 470.621 5.38411 470.621 10.2681V10.9281C470.621 15.8121 472.381 17.2641 478.739 17.2641Z" fill="white"/>
<path d="M496.96 17.2641C503.516 17.2641 505.188 15.8121 505.188 10.9281V10.2681C505.188 5.38411 503.516 3.93211 496.96 3.93211C490.426 3.93211 488.754 5.38411 488.754 10.2681V10.9281C488.754 15.8121 490.426 17.2641 496.96 17.2641ZM496.96 14.7121C492.472 14.7121 491.636 13.8761 491.636 10.6861V10.5101C491.636 7.29811 492.472 6.48411 496.96 6.48411C501.47 6.48411 502.284 7.29811 502.284 10.5101V10.6861C502.284 13.8761 501.47 14.7121 496.96 14.7121Z" fill="white"/>
<path d="M507.956 9.03611C507.956 10.4881 507.934 11.0821 507.934 12.0721C507.934 15.7461 509.012 17.2641 514.578 17.2641C517.79 17.2641 519.66 16.4941 520.65 14.9981L520.694 17.0001H523.378C523.356 16.1201 523.356 15.3061 523.356 13.7881V7.71611C523.356 6.04411 523.356 5.16411 523.378 4.19611H520.496C520.518 5.16411 520.518 6.02211 520.518 7.71611V10.6201C520.518 13.7441 519.594 14.6681 515.656 14.6681C511.542 14.6681 510.794 13.7001 510.794 10.9061V7.67211C510.794 5.89011 510.794 5.23011 510.816 4.19611H507.934C507.956 5.27411 507.956 6.19811 507.956 7.67211V9.03611Z" fill="white"/>
<path d="M526.971 13.4801C526.971 15.1301 526.971 16.0321 526.949 17.0001H529.853C529.831 16.0321 529.831 15.1741 529.831 13.4801V10.5761C529.831 7.43011 530.755 6.52811 534.759 6.52811C538.895 6.52811 539.643 7.49611 539.643 10.2681V13.5241C539.643 15.3061 539.643 15.9661 539.621 17.0001H542.525C542.503 15.9221 542.503 14.9981 542.503 13.5241V12.1601C542.503 10.6861 542.525 10.0921 542.525 9.12411C542.525 5.45011 541.447 3.93211 535.837 3.93211C532.559 3.93211 530.689 4.70211 529.677 6.19811L529.655 4.19611H526.949C526.971 5.05411 526.971 5.89011 526.971 7.40811V13.4801Z" fill="white"/>
<path d="M546.885 8.86011C546.885 10.1361 546.863 11.4121 546.863 12.4241C546.863 16.1861 548.117 17.1101 553.529 17.1101C554.431 17.1101 555.289 17.0661 556.103 17.0001L556.081 14.5141C555.201 14.5801 554.739 14.6021 553.771 14.6021C550.493 14.6021 549.745 14.2721 549.745 11.7421V6.68211H556.081V4.19611H549.745C549.745 3.09611 549.745 2.26011 549.767 1.68811L546.863 1.73211C546.885 2.72211 546.885 3.42611 546.885 4.19611C546.181 4.19611 545.389 4.19611 544.575 4.19611V6.68211H546.885V8.86011Z" fill="white"/>
</svg>
