<svg width="557" height="21" viewBox="0 0 557 21" fill="none" xmlns="http://www.w3.org/2000/svg">
<path d="M9.72563 17.3101C17.3376 17.3101 19.1196 15.7921 19.0976 11.1061L16.2376 11.0401C16.1936 13.7681 15.3796 14.6481 9.79163 14.6481C4.24762 14.6481 3.25762 13.5701 3.25762 9.30206V9.08206C3.25762 4.92406 4.22562 3.73606 9.76962 3.73606C15.3796 3.73606 16.2156 4.59406 16.2156 7.34406L19.0756 7.27806C19.0976 2.57006 17.3156 1.07406 9.72563 1.07406C2.15763 1.07406 0.265625 2.87806 0.265625 8.84006V9.54406C0.265625 15.5061 2.15763 17.3101 9.72563 17.3101Z" fill="white"/>
<path d="M22.0228 13.4821C22.0228 15.1321 22.0228 16.0341 22.0008 17.0021H24.9048C24.8828 16.0341 24.8828 15.1761 24.8828 13.4821V10.7981C24.8828 7.30006 25.7628 6.53006 29.3708 6.53006C32.9128 6.53006 33.3528 7.03606 33.3528 9.30206V9.72006L36.1028 9.67606C36.1248 9.17006 36.1248 8.81806 36.1248 8.42206C36.1248 4.88006 35.0908 3.93406 30.3388 3.93406C27.4348 3.93406 25.6748 4.68206 24.7288 6.15606L24.7068 4.19806H22.0008C22.0228 5.05606 22.0228 5.89206 22.0228 7.41006V13.4821Z" fill="white"/>
<path d="M46.1746 17.2661C52.7526 17.2661 54.0506 15.9901 54.0506 12.7561L51.2566 12.6681C51.2566 14.1641 50.6846 14.8681 46.1966 14.8681C41.9286 14.8681 40.9606 14.1201 40.8286 11.4361H54.0506C54.0506 11.1061 54.0726 10.7101 54.0506 10.2701C54.0286 5.38606 52.4666 3.93406 46.0426 3.93406C39.6406 3.93406 37.9246 5.38606 37.9246 10.2701V10.9301C37.9246 15.8141 39.6406 17.2661 46.1746 17.2661ZM46.0646 6.13406C50.2006 6.13406 51.0146 6.90406 51.0806 9.39006H40.8286C41.0046 6.81606 42.0166 6.13406 46.0646 6.13406Z" fill="white"/>
<path d="M63.2499 17.2661C66.7919 17.2661 68.6399 16.5841 69.5199 15.4181L69.5639 17.0021H72.1599C72.1379 15.2641 72.1379 14.1421 72.1379 12.8221C72.1379 10.7981 72.1599 10.0501 72.1599 8.31206C72.1599 5.32006 70.9719 3.93406 64.3499 3.93406C58.2999 3.93406 56.8479 5.10006 56.8919 8.00406L59.6419 8.07006C59.6199 6.70606 60.0819 6.26606 64.3059 6.26606C68.6399 6.26606 69.2999 6.88206 69.2999 8.90606V10.3801C68.3319 9.52206 66.5059 9.08206 63.2499 9.08206C57.5519 9.08206 56.3419 10.2921 56.3419 13.2181C56.3419 16.1001 57.5079 17.2661 63.2499 17.2661ZM64.2619 15.0441C60.0159 15.0441 59.2239 14.5601 59.2239 13.1521C59.2239 11.7221 59.7519 11.1281 64.3059 11.1281C68.6839 11.1281 69.3659 11.7001 69.3659 12.6241V13.1741C69.3659 14.4501 68.6839 15.0441 64.2619 15.0441Z" fill="white"/>
<path d="M76.5692 8.86206C76.5692 10.1381 76.5472 11.4141 76.5472 12.4261C76.5472 16.1881 77.8012 17.1121 83.2132 17.1121C84.1152 17.1121 84.9732 17.0681 85.7872 17.0021L85.7652 14.5161C84.8852 14.5821 84.4232 14.6041 83.4552 14.6041C80.1772 14.6041 79.4292 14.2741 79.4292 11.7441V6.68406H85.7652V4.19806H79.4292C79.4292 3.09806 79.4292 2.26206 79.4512 1.69006L76.5472 1.73406C76.5692 2.72406 76.5692 3.42806 76.5692 4.19806C75.8652 4.19806 75.0732 4.19806 74.2592 4.19806V6.68406H76.5692V8.86206Z" fill="white"/>
<path d="M95.868 17.2661C102.446 17.2661 103.744 15.9901 103.744 12.7561L100.95 12.6681C100.95 14.1641 100.378 14.8681 95.89 14.8681C91.622 14.8681 90.654 14.1201 90.522 11.4361H103.744C103.744 11.1061 103.766 10.7101 103.744 10.2701C103.722 5.38606 102.16 3.93406 95.736 3.93406C89.334 3.93406 87.618 5.38606 87.618 10.2701V10.9301C87.618 15.8141 89.334 17.2661 95.868 17.2661ZM95.758 6.13406C99.894 6.13406 100.708 6.90406 100.774 9.39006H90.522C90.698 6.81606 91.71 6.13406 95.758 6.13406Z" fill="white"/>
<path d="M121.258 17.2661C124.8 17.2661 126.648 16.5841 127.528 15.4181L127.572 17.0021H130.168C130.146 15.2641 130.146 14.1421 130.146 12.8221C130.146 10.7981 130.168 10.0501 130.168 8.31206C130.168 5.32006 128.98 3.93406 122.358 3.93406C116.308 3.93406 114.856 5.10006 114.9 8.00406L117.65 8.07006C117.628 6.70606 118.09 6.26606 122.314 6.26606C126.648 6.26606 127.308 6.88206 127.308 8.90606V10.3801C126.34 9.52206 124.514 9.08206 121.258 9.08206C115.56 9.08206 114.35 10.2921 114.35 13.2181C114.35 16.1001 115.516 17.2661 121.258 17.2661ZM122.27 15.0441C118.024 15.0441 117.232 14.5601 117.232 13.1521C117.232 11.7221 117.76 11.1281 122.314 11.1281C126.692 11.1281 127.374 11.7001 127.374 12.6241V13.1741C127.374 14.4501 126.692 15.0441 122.27 15.0441Z" fill="white"/>
<path d="M142.077 17.0021C142.077 18.3221 142.077 19.4221 142.055 20.0821H144.981C144.959 19.2021 144.959 17.5521 144.959 15.2201C145.993 16.5841 147.819 17.2661 150.921 17.2661C156.861 17.2661 158.467 15.8581 158.467 10.9301V10.2701C158.467 5.34206 156.883 3.93406 151.031 3.93406C147.731 3.93406 145.839 4.68206 144.827 6.13406V4.19806H142.055C142.077 5.12206 142.077 5.93606 142.077 6.99206V17.0021ZM144.937 10.6881V10.5121C144.937 7.43206 145.817 6.53006 150.239 6.53006C154.705 6.53006 155.585 7.32206 155.585 10.5121V10.6881C155.585 13.8561 154.705 14.6701 150.129 14.6701C145.817 14.6701 144.937 13.7901 144.937 10.6881Z" fill="white"/>
<path d="M167.664 17.2661C171.206 17.2661 173.054 16.5841 173.934 15.4181L173.978 17.0021H176.574C176.552 15.2641 176.552 14.1421 176.552 12.8221C176.552 10.7981 176.574 10.0501 176.574 8.31206C176.574 5.32006 175.386 3.93406 168.764 3.93406C162.714 3.93406 161.262 5.10006 161.306 8.00406L164.056 8.07006C164.034 6.70606 164.496 6.26606 168.72 6.26606C173.054 6.26606 173.714 6.88206 173.714 8.90606V10.3801C172.746 9.52206 170.92 9.08206 167.664 9.08206C161.966 9.08206 160.756 10.2921 160.756 13.2181C160.756 16.1001 161.922 17.2661 167.664 17.2661ZM168.676 15.0441C164.43 15.0441 163.638 14.5601 163.638 13.1521C163.638 11.7221 164.166 11.1281 168.72 11.1281C173.098 11.1281 173.78 11.7001 173.78 12.6241V13.1741C173.78 14.4501 173.098 15.0441 168.676 15.0441Z" fill="white"/>
<path d="M187.033 17.2661C193.501 17.2661 194.425 16.2101 194.425 13.4381C194.425 10.8641 193.589 9.80806 187.099 9.32406C182.501 8.95006 182.193 8.62006 182.193 7.63006C182.193 6.61806 182.787 6.20006 186.549 6.20006C190.509 6.20006 191.081 6.66206 191.081 7.85006V8.13606L193.919 8.07006C193.919 4.99006 192.907 3.93406 186.637 3.93406C180.653 3.93406 179.443 5.05606 179.443 7.78406C179.443 10.4241 180.433 11.3041 186.285 11.7661C191.169 12.1401 191.543 12.5141 191.543 13.6141C191.543 14.6701 191.147 15.0881 187.099 15.0881C182.655 15.0881 182.083 14.6481 182.083 13.1301V12.8001L179.267 12.8661C179.267 16.5401 180.455 17.2661 187.033 17.2661Z" fill="white"/>
<path d="M203.963 17.2661C210.431 17.2661 211.355 16.2101 211.355 13.4381C211.355 10.8641 210.519 9.80806 204.029 9.32406C199.431 8.95006 199.123 8.62006 199.123 7.63006C199.123 6.61806 199.717 6.20006 203.479 6.20006C207.439 6.20006 208.011 6.66206 208.011 7.85006V8.13606L210.849 8.07006C210.849 4.99006 209.837 3.93406 203.567 3.93406C197.583 3.93406 196.373 5.05606 196.373 7.78406C196.373 10.4241 197.363 11.3041 203.215 11.7661C208.099 12.1401 208.473 12.5141 208.473 13.6141C208.473 14.6701 208.077 15.0881 204.029 15.0881C199.585 15.0881 199.013 14.6481 199.013 13.1301V12.8001L196.197 12.8661C196.197 16.5401 197.385 17.2661 203.963 17.2661Z" fill="white"/>
<path d="M223.492 11.1281C223.976 9.78606 224.482 8.42206 224.966 7.16806H225.67C226.088 8.44406 226.55 9.85206 226.968 11.1721L228.926 17.0021H233.392C234.558 13.8781 237.132 7.19006 238.386 4.19806H235.328L233.37 9.72006C232.82 11.2601 232.27 12.8441 231.764 14.2741H230.84C230.4 12.9541 229.916 11.4581 229.432 10.0061L227.452 4.19806H223.294L221.226 9.96206C220.698 11.4141 220.148 12.9101 219.686 14.2741H218.718C218.278 12.8881 217.772 11.3261 217.288 9.83006L215.418 4.19806H212.206C213.35 7.14606 215.748 13.8781 216.804 17.0021H221.27L223.492 11.1281Z" fill="white"/>
<path d="M247.439 17.2661C253.995 17.2661 255.667 15.8141 255.667 10.9301V10.2701C255.667 5.38606 253.995 3.93406 247.439 3.93406C240.905 3.93406 239.233 5.38606 239.233 10.2701V10.9301C239.233 15.8141 240.905 17.2661 247.439 17.2661ZM247.439 14.7141C242.951 14.7141 242.115 13.8781 242.115 10.6881V10.5121C242.115 7.30006 242.951 6.48606 247.439 6.48606C251.949 6.48606 252.763 7.30006 252.763 10.5121V10.6881C252.763 13.8781 251.949 14.7141 247.439 14.7141Z" fill="white"/>
<path d="M258.501 13.4821C258.501 15.1321 258.501 16.0341 258.479 17.0021H261.383C261.361 16.0341 261.361 15.1761 261.361 13.4821V10.7981C261.361 7.30006 262.241 6.53006 265.849 6.53006C269.391 6.53006 269.831 7.03606 269.831 9.30206V9.72006L272.581 9.67606C272.603 9.17006 272.603 8.81806 272.603 8.42206C272.603 4.88006 271.569 3.93406 266.817 3.93406C263.913 3.93406 262.153 4.68206 261.207 6.15606L261.185 4.19806H258.479C258.501 5.05606 258.501 5.89206 258.501 7.41006V13.4821Z" fill="white"/>
<path d="M281.861 17.2661C285.183 17.2661 287.075 16.4961 288.087 15.0001L288.109 17.0021H290.815C290.793 15.9241 290.793 15.1761 290.793 13.4821V4.19806C290.793 2.61406 290.793 1.47006 290.815 0.546062H287.867C287.889 1.44806 287.911 3.73606 287.911 5.98006C286.877 4.61606 285.029 3.93406 281.927 3.93406C276.009 3.93406 274.403 5.34206 274.403 10.2701V10.9301C274.403 15.8581 276.009 17.2661 281.861 17.2661ZM282.653 14.6701C278.165 14.6701 277.285 13.8781 277.285 10.6881V10.5121C277.285 7.27806 278.165 6.48606 282.719 6.48606C287.053 6.48606 287.933 7.36606 287.933 10.5121V10.6881C287.933 13.7681 287.053 14.6701 282.653 14.6701Z" fill="white"/>
<path d="M303.464 9.87406C303.464 11.6341 303.464 15.2641 303.442 17.0021H306.346C306.324 15.9901 306.324 14.8241 306.324 13.4821V6.68406H309.734V4.19806H306.324C306.346 3.07606 306.698 2.81206 307.71 2.76806C308.568 2.70206 309.492 2.68006 310.02 2.68006L309.932 0.414062C309.316 0.436062 308.194 0.458062 307.072 0.546062C304.322 0.722063 303.442 1.49206 303.442 4.13206V4.19806H301.33L301.242 6.68406H303.464C303.464 7.71806 303.464 8.86206 303.464 9.87406Z" fill="white"/>
<path d="M318.896 17.2661C325.452 17.2661 327.124 15.8141 327.124 10.9301V10.2701C327.124 5.38606 325.452 3.93406 318.896 3.93406C312.362 3.93406 310.69 5.38606 310.69 10.2701V10.9301C310.69 15.8141 312.362 17.2661 318.896 17.2661ZM318.896 14.7141C314.408 14.7141 313.572 13.8781 313.572 10.6881V10.5121C313.572 7.30006 314.408 6.48606 318.896 6.48606C323.406 6.48606 324.22 7.30006 324.22 10.5121V10.6881C324.22 13.8781 323.406 14.7141 318.896 14.7141Z" fill="white"/>
<path d="M329.958 13.4821C329.958 15.1321 329.958 16.0341 329.936 17.0021H332.84C332.818 16.0341 332.818 15.1761 332.818 13.4821V10.7981C332.818 7.30006 333.698 6.53006 337.306 6.53006C340.848 6.53006 341.288 7.03606 341.288 9.30206V9.72006L344.038 9.67606C344.06 9.17006 344.06 8.81806 344.06 8.42206C344.06 4.88006 343.026 3.93406 338.274 3.93406C335.37 3.93406 333.61 4.68206 332.664 6.15606L332.642 4.19806H329.936C329.958 5.05606 329.958 5.89206 329.958 7.41006V13.4821Z" fill="white"/>
<path d="M363.965 17.1341C365.593 13.9221 368.981 7.19006 370.565 4.19806H367.485L364.845 9.36806C364.229 10.6001 363.613 11.8541 363.063 12.9981H361.853C361.171 11.8321 360.379 10.5781 359.631 9.32406L356.507 4.19806H353.273C355.187 7.21206 358.443 12.6021 360.093 15.4181H361.809L361.479 16.0121C360.753 17.3761 360.247 17.6621 358.905 17.6621C358.069 17.6621 357.299 17.6401 356.397 17.5961L356.353 20.0161C357.255 20.1041 358.355 20.1481 358.993 20.1481C361.655 20.1481 362.799 19.4221 363.965 17.1341Z" fill="white"/>
<path d="M379.396 17.2661C385.952 17.2661 387.624 15.8141 387.624 10.9301V10.2701C387.624 5.38606 385.952 3.93406 379.396 3.93406C372.862 3.93406 371.19 5.38606 371.19 10.2701V10.9301C371.19 15.8141 372.862 17.2661 379.396 17.2661ZM379.396 14.7141C374.908 14.7141 374.072 13.8781 374.072 10.6881V10.5121C374.072 7.30006 374.908 6.48606 379.396 6.48606C383.906 6.48606 384.72 7.30006 384.72 10.5121V10.6881C384.72 13.8781 383.906 14.7141 379.396 14.7141Z" fill="white"/>
<path d="M390.392 9.03806C390.392 10.4901 390.37 11.0841 390.37 12.0741C390.37 15.7481 391.448 17.2661 397.014 17.2661C400.226 17.2661 402.096 16.4961 403.086 15.0001L403.13 17.0021H405.814C405.792 16.1221 405.792 15.3081 405.792 13.7901V7.71806C405.792 6.04606 405.792 5.16606 405.814 4.19806H402.932C402.954 5.16606 402.954 6.02406 402.954 7.71806V10.6221C402.954 13.7461 402.03 14.6701 398.092 14.6701C393.978 14.6701 393.23 13.7021 393.23 10.9081V7.67406C393.23 5.89206 393.23 5.23206 393.252 4.19806H390.37C390.392 5.27606 390.392 6.20006 390.392 7.67406V9.03806Z" fill="white"/>
<path d="M409.408 13.4821C409.408 15.1321 409.408 16.0341 409.386 17.0021H412.29C412.268 16.0341 412.268 15.1761 412.268 13.4821V10.7981C412.268 7.30006 413.148 6.53006 416.756 6.53006C420.298 6.53006 420.738 7.03606 420.738 9.30206V9.72006L423.488 9.67606C423.51 9.17006 423.51 8.81806 423.51 8.42206C423.51 4.88006 422.476 3.93406 417.724 3.93406C414.82 3.93406 413.06 4.68206 412.114 6.15606L412.092 4.19806H409.386C409.408 5.05606 409.408 5.89206 409.408 7.41006V13.4821Z" fill="white"/>
<path d="M440.752 17.2661C444.294 17.2661 446.142 16.5841 447.022 15.4181L447.066 17.0021H449.662C449.64 15.2641 449.64 14.1421 449.64 12.8221C449.64 10.7981 449.662 10.0501 449.662 8.31206C449.662 5.32006 448.474 3.93406 441.852 3.93406C435.802 3.93406 434.35 5.10006 434.394 8.00406L437.144 8.07006C437.122 6.70606 437.584 6.26606 441.808 6.26606C446.142 6.26606 446.802 6.88206 446.802 8.90606V10.3801C445.834 9.52206 444.008 9.08206 440.752 9.08206C435.054 9.08206 433.844 10.2921 433.844 13.2181C433.844 16.1001 435.01 17.2661 440.752 17.2661ZM441.764 15.0441C437.518 15.0441 436.726 14.5601 436.726 13.1521C436.726 11.7221 437.254 11.1281 441.808 11.1281C446.186 11.1281 446.868 11.7001 446.868 12.6241V13.1741C446.868 14.4501 446.186 15.0441 441.764 15.0441Z" fill="white"/>
<path d="M460.605 17.2661C467.073 17.2661 468.613 15.8141 468.613 11.8981L465.797 11.8321C465.797 13.8781 464.961 14.7141 460.627 14.7141C456.205 14.7141 455.369 13.8781 455.369 10.6881V10.5121C455.369 7.30006 456.205 6.48606 460.627 6.48606C464.961 6.48606 465.753 7.34406 465.753 9.36806V9.34606L468.569 9.28006C468.569 5.25406 467.095 3.93406 460.605 3.93406C454.225 3.93406 452.487 5.38606 452.487 10.2701V10.9301C452.487 15.8141 454.247 17.2661 460.605 17.2661Z" fill="white"/>
<path d="M478.738 17.2661C485.206 17.2661 486.746 15.8141 486.746 11.8981L483.93 11.8321C483.93 13.8781 483.094 14.7141 478.76 14.7141C474.338 14.7141 473.502 13.8781 473.502 10.6881V10.5121C473.502 7.30006 474.338 6.48606 478.76 6.48606C483.094 6.48606 483.886 7.34406 483.886 9.36806V9.34606L486.702 9.28006C486.702 5.25406 485.228 3.93406 478.738 3.93406C472.358 3.93406 470.62 5.38606 470.62 10.2701V10.9301C470.62 15.8141 472.38 17.2661 478.738 17.2661Z" fill="white"/>
<path d="M496.959 17.2661C503.515 17.2661 505.187 15.8141 505.187 10.9301V10.2701C505.187 5.38606 503.515 3.93406 496.959 3.93406C490.425 3.93406 488.753 5.38606 488.753 10.2701V10.9301C488.753 15.8141 490.425 17.2661 496.959 17.2661ZM496.959 14.7141C492.471 14.7141 491.635 13.8781 491.635 10.6881V10.5121C491.635 7.30006 492.471 6.48606 496.959 6.48606C501.469 6.48606 502.283 7.30006 502.283 10.5121V10.6881C502.283 13.8781 501.469 14.7141 496.959 14.7141Z" fill="white"/>
<path d="M507.955 9.03806C507.955 10.4901 507.933 11.0841 507.933 12.0741C507.933 15.7481 509.011 17.2661 514.577 17.2661C517.789 17.2661 519.659 16.4961 520.649 15.0001L520.693 17.0021H523.377C523.355 16.1221 523.355 15.3081 523.355 13.7901V7.71806C523.355 6.04606 523.355 5.16606 523.377 4.19806H520.495C520.517 5.16606 520.517 6.02406 520.517 7.71806V10.6221C520.517 13.7461 519.593 14.6701 515.655 14.6701C511.541 14.6701 510.793 13.7021 510.793 10.9081V7.67406C510.793 5.89206 510.793 5.23206 510.815 4.19806H507.933C507.955 5.27606 507.955 6.20006 507.955 7.67406V9.03806Z" fill="white"/>
<path d="M526.97 13.4821C526.97 15.1321 526.97 16.0341 526.948 17.0021H529.852C529.83 16.0341 529.83 15.1761 529.83 13.4821V10.5781C529.83 7.43206 530.754 6.53006 534.758 6.53006C538.894 6.53006 539.642 7.49806 539.642 10.2701V13.5261C539.642 15.3081 539.642 15.9681 539.62 17.0021H542.524C542.502 15.9241 542.502 15.0001 542.502 13.5261V12.1621C542.502 10.6881 542.524 10.0941 542.524 9.12606C542.524 5.45206 541.446 3.93406 535.836 3.93406C532.558 3.93406 530.688 4.70406 529.676 6.20006L529.654 4.19806H526.948C526.97 5.05606 526.97 5.89206 526.97 7.41006V13.4821Z" fill="white"/>
<path d="M546.884 8.86206C546.884 10.1381 546.862 11.4141 546.862 12.4261C546.862 16.1881 548.116 17.1121 553.528 17.1121C554.43 17.1121 555.288 17.0681 556.102 17.0021L556.08 14.5161C555.2 14.5821 554.738 14.6041 553.77 14.6041C550.492 14.6041 549.744 14.2741 549.744 11.7441V6.68406H556.08V4.19806H549.744C549.744 3.09806 549.744 2.26206 549.766 1.69006L546.862 1.73406C546.884 2.72406 546.884 3.42806 546.884 4.19806C546.18 4.19806 545.388 4.19806 544.574 4.19806V6.68406H546.884V8.86206Z" fill="white"/>
</svg>
