<svg width="246" height="52" viewBox="0 0 246 52" fill="none" xmlns="http://www.w3.org/2000/svg">
<rect width="246" height="52" rx="25.5188" fill="#5200FF"/>
<path d="M42.696 31.7711C42.408 33.3862 42.24 34.3406 42 35.6375H52.08C60.48 35.6375 62.496 33.6554 63.624 27.1462L63.696 26.7547C64.704 20.5391 62.688 18.2634 54.312 18.2634H45C44.832 19.3646 44.688 20.1721 44.472 21.4446L42.696 31.7711ZM54.216 21.1509C60.312 21.1509 61.2 22.3255 60.432 26.8281L60.384 27.0728C59.592 31.5754 58.32 32.75 52.2 32.75H45.72L47.712 21.1509H54.216Z" fill="white"/>
<path d="M73.7627 35.9311C80.9147 35.9311 82.7147 34.3161 83.6507 28.8836L83.7707 28.1495C84.7067 22.717 82.8587 21.102 75.7307 21.102C68.5787 21.102 66.7787 22.717 65.8427 28.1495L65.7227 28.8836C64.7867 34.3161 66.6347 35.9311 73.7627 35.9311ZM73.9307 33.0926C69.0347 33.0926 68.3147 32.1627 68.9147 28.6144L68.9387 28.4187C69.5627 24.846 70.6187 23.9406 75.5387 23.9406C80.4347 23.9406 81.2027 24.846 80.5547 28.4187L80.5307 28.6144C79.9307 32.1627 78.8507 33.0926 73.9307 33.0926Z" fill="white"/>
<path d="M96.8308 29.1038C97.6228 27.6111 98.4388 26.094 99.2068 24.6991H99.9508C100.167 26.1184 100.407 27.6846 100.623 29.1528L101.631 35.6375H106.503C108.375 32.1627 112.455 24.7236 114.423 21.3956H110.943L107.727 27.5377C106.839 29.2507 105.951 31.0126 105.135 32.6031H104.127C103.911 31.1349 103.647 29.4709 103.407 27.8558L102.351 21.3956H97.8148L94.4548 27.8069C93.6148 29.422 92.7268 31.086 91.9348 32.6031H90.9028C90.6868 31.0615 90.4468 29.3241 90.1828 27.6601L89.2468 21.3956H85.8628C86.5348 24.6747 87.8548 32.1627 88.4068 35.6375H93.2788L96.8308 29.1038Z" fill="white"/>
<path d="M114.738 31.7222C114.426 33.5575 114.258 34.5608 114.042 35.6375H117.21C117.354 34.5608 117.522 33.6064 117.858 31.7222L118.41 28.4921C119.034 24.9928 120.21 23.9895 124.578 23.9895C129.114 23.9895 129.714 25.0662 129.21 28.1495L128.562 31.7711C128.226 33.7533 128.106 34.4874 127.866 35.6375H131.034C131.202 34.4384 131.37 33.4107 131.682 31.7711L131.946 30.254C132.21 28.6144 132.354 27.9537 132.546 26.877C133.242 22.7904 131.946 21.102 125.85 21.102C122.538 21.102 120.45 21.934 119.106 23.5735L119.442 21.3956H116.514C116.37 22.35 116.202 23.2798 115.914 24.9683L114.738 31.7222Z" fill="white"/>
<path d="M135.67 31.5264C135.358 33.3128 135.166 34.5118 134.926 35.6375H138.094C138.262 34.5118 138.478 33.3128 138.766 31.5509L140.518 21.4201C140.83 19.6827 141.046 18.3613 141.262 17.3335H138.094C137.926 18.3857 137.71 19.6827 137.422 21.3956L135.67 31.5264Z" fill="white"/>
<path d="M150.427 35.9311C157.579 35.9311 159.379 34.3161 160.315 28.8836L160.435 28.1495C161.371 22.717 159.523 21.102 152.395 21.102C145.243 21.102 143.443 22.717 142.507 28.1495L142.387 28.8836C141.451 34.3161 143.299 35.9311 150.427 35.9311ZM150.595 33.0926C145.699 33.0926 144.979 32.1627 145.579 28.6144L145.603 28.4187C146.227 24.846 147.283 23.9406 152.203 23.9406C157.099 23.9406 157.867 24.846 157.219 28.4187L157.195 28.6144C156.595 32.1627 155.515 33.0926 150.595 33.0926Z" fill="white"/>
<path d="M169.166 35.9311C173.006 35.9311 175.142 35.1726 176.318 33.8756L176.054 35.6375H178.886C179.198 33.7043 179.414 32.4563 179.678 30.9881C180.062 28.7368 180.23 27.9048 180.566 25.9716C181.142 22.6436 179.822 21.102 172.598 21.102C165.998 21.102 164.462 22.3989 163.958 25.629L166.958 25.7024C167.198 24.1853 167.774 23.6958 172.382 23.6958C177.11 23.6958 177.71 24.381 177.326 26.6323L177.038 28.2963C176.15 27.342 174.23 26.8281 170.654 26.8281C164.438 26.8281 162.926 28.174 162.35 31.4286C161.822 34.6342 162.902 35.9311 169.166 35.9311ZM170.654 33.4596C166.022 33.4596 165.254 32.9213 165.518 31.3551C165.782 29.7646 166.478 29.1038 171.446 29.1038C176.222 29.1038 176.87 29.7401 176.678 30.7678L176.582 31.3796C176.342 32.7989 175.454 33.4596 170.654 33.4596Z" fill="white"/>
<path d="M190.345 35.9311C193.801 35.9311 195.913 35.0991 197.257 33.4841L196.921 35.6375H199.873C200.065 34.4384 200.209 33.6064 200.521 31.7222L202.297 21.3956C202.609 19.6337 202.825 18.3613 203.041 17.3335H199.825C199.681 18.3613 199.249 20.9796 198.817 23.4756C197.905 21.9095 195.913 21.102 192.457 21.102C186.001 21.102 184.201 22.6681 183.265 28.1495L183.145 28.8836C182.209 34.3161 183.985 35.9311 190.345 35.9311ZM191.401 33.0436C186.529 33.0436 185.737 32.1382 186.337 28.6144L186.361 28.4187C186.985 24.8704 188.113 23.9895 193.081 23.9895C197.785 23.9895 198.601 24.9683 198.001 28.4187L197.953 28.6144C197.353 32.0403 196.201 33.0436 191.401 33.0436Z" fill="white"/>
</svg>
