<svg width="59" height="15" viewBox="0 0 59 15" fill="none" xmlns="http://www.w3.org/2000/svg">
<path d="M0.730938 11.7798C0.730938 13.3198 0.730938 14.0198 0.710938 14.9998H15.1509V13.0998C13.5509 13.1198 8.59094 13.1198 5.99094 13.1198H2.81094V8.6798H6.65094C8.85094 8.6798 10.9309 8.67981 13.9309 8.69981V6.7998H2.81094V2.6798H5.19094C7.59094 2.6798 11.3109 2.6798 14.7109 2.69981V0.799805H0.710938C0.730938 1.7398 0.730938 2.33981 0.730938 3.39981V11.7798Z" fill="#E965FF"/>
<path d="M18.0942 11.8198C18.0942 13.1598 18.0942 13.8998 18.0742 14.9998H25.7742C32.6142 14.9998 34.3342 13.4198 34.3342 8.0198V7.77981C34.3342 2.37981 32.6142 0.799805 25.7942 0.799805H18.0742C18.0942 1.7598 18.0942 2.3798 18.0942 3.4598V11.8198ZM25.7942 2.6798C31.2142 2.6798 32.2342 3.73981 32.2342 7.77981V8.0198C32.2342 12.0598 31.2142 13.1198 25.7742 13.1198H20.1742V2.6798H25.7942Z" fill="#E965FF"/>
<path d="M37.4492 14.9998H39.5692C39.5492 13.3998 39.5492 10.6998 39.5492 9.2998C39.5492 6.8998 39.5092 4.43981 39.4892 2.7598H40.6692C41.4292 4.37981 42.4292 6.4798 43.4292 8.53981L46.5492 14.9998H49.0692L52.2092 8.53981C53.2092 6.4798 54.2092 4.39981 54.9892 2.7598H56.0692C56.0492 4.6998 56.0092 7.6398 56.0092 9.0998C56.0092 10.6998 56.0092 13.4198 55.9892 14.9998H58.1092C58.0892 13.9998 58.0892 13.2198 58.0892 11.6998V3.33981C58.0892 2.31981 58.0892 1.7598 58.1092 0.799805H53.7492L50.3092 7.9598C49.4492 9.7598 48.5892 11.5398 47.9292 12.9998H47.7092C47.0492 11.5398 46.2092 9.7598 45.3692 7.93981L42.0692 0.799805H37.4492C37.4692 1.77981 37.4692 2.35981 37.4692 3.4198V11.7998C37.4692 13.2598 37.4692 14.0398 37.4492 14.9998Z" fill="#E965FF"/>
</svg>
