<svg width="361" height="66" viewBox="0 0 361 66" fill="none" xmlns="http://www.w3.org/2000/svg">
<path d="M3.39129 49.51C2.22129 56.26 1.68129 59.68 0.781286 64H67.3813L69.1813 53.56C60.7213 53.65 39.7513 53.65 27.7813 53.65H14.6413L17.7013 36.46H33.7213C43.6213 36.46 51.3613 36.46 66.8413 36.55L68.5513 26.38H19.5013L22.2913 10.45H32.4613C43.6213 10.45 60.5413 10.45 74.9413 10.54L76.8313 0.0999966H12.0313C11.4013 4.06 10.9513 6.94 10.0513 11.62L3.39129 49.51ZM82.1455 49.6C80.9755 56.35 80.3455 60.04 79.5355 64H91.4155C91.9555 60.04 92.5855 56.53 93.8455 49.6L95.7355 38.62C98.2555 24.31 102.486 21.16 117.246 21.16C131.736 21.16 133.176 23.23 131.556 32.5L131.196 34.21L142.536 34.03C142.896 31.96 143.166 30.52 143.526 28.9C146.046 14.41 142.536 10.54 123.006 10.54C111.126 10.54 103.476 13.51 98.5255 19.63L99.7855 11.62H88.8055C88.2655 15.13 87.6355 18.55 86.5555 24.76L82.1455 49.6ZM151.249 49.6C150.079 56.35 149.449 60.04 148.639 64H160.519C161.059 60.04 161.689 56.53 162.949 49.6L164.839 38.62C167.359 24.31 171.589 21.16 186.349 21.16C200.839 21.16 202.279 23.23 200.659 32.5L200.299 34.21L211.639 34.03C211.999 31.96 212.269 30.52 212.629 28.9C215.149 14.41 211.639 10.54 192.109 10.54C180.229 10.54 172.579 13.51 167.629 19.63L168.889 11.62H157.909C157.369 15.13 156.739 18.55 155.659 24.76L151.249 49.6ZM249.242 65.08C276.062 65.08 282.812 59.14 286.322 39.16L286.772 36.46C290.282 16.48 283.352 10.54 256.622 10.54C229.802 10.54 223.052 16.48 219.542 36.46L219.092 39.16C215.582 59.14 222.512 65.08 249.242 65.08ZM249.872 54.64C231.512 54.64 228.812 51.22 231.062 38.17L231.152 37.45C233.492 24.31 237.452 20.98 255.902 20.98C274.262 20.98 277.142 24.31 274.712 37.45L274.622 38.17C272.372 51.22 268.322 54.64 249.872 54.64ZM296.926 49.6C295.756 56.35 295.126 60.04 294.316 64H306.196C306.736 60.04 307.366 56.53 308.626 49.6L310.516 38.62C313.036 24.31 317.266 21.16 332.026 21.16C346.516 21.16 347.956 23.23 346.336 32.5L345.976 34.21L357.316 34.03C357.676 31.96 357.946 30.52 358.306 28.9C360.826 14.41 357.316 10.54 337.786 10.54C325.906 10.54 318.256 13.51 313.306 19.63L314.566 11.62H303.586C303.046 15.13 302.416 18.55 301.336 24.76L296.926 49.6Z" fill="#5200FF"/>
</svg>
