<svg width="726" height="113" viewBox="0 0 726 113" fill="none" xmlns="http://www.w3.org/2000/svg">
<path d="M2.9914 106.448L34.5575 9.29782H146.157L135.023 25.5609H49.8233L42.4069 48.3863H130.007L118.873 64.6493H37.1227L28.8256 90.1852H120.026L108.741 106.448H2.9914ZM176.011 56.9458H215.911C224.611 56.9458 231.324 55.5192 236.051 52.666C240.779 49.8128 243.915 46.0086 245.46 41.2533L245.784 40.2547C247.237 35.7848 246.464 32.3134 243.468 29.8407C240.471 27.3679 234.623 26.1315 225.923 26.1315H180.023L153.927 106.448H133.377L164.943 9.29782H232.143C238.743 9.29782 244.592 9.91601 249.69 11.1524C254.788 12.3888 258.886 14.2433 261.982 16.7161C265.21 19.0937 267.336 22.0895 268.362 25.7036C269.388 29.3176 269.144 33.4547 267.629 38.1148L265.961 43.2505C264.725 47.0548 262.766 50.6212 260.084 53.9499C257.434 57.1835 254.257 60.0367 250.553 62.5094C246.95 64.9822 242.885 67.027 238.36 68.6438C233.835 70.2606 229.129 71.3543 224.244 71.9249L246.962 105.878L246.777 106.448H222.177L198.905 72.3529H176.255L176.011 56.9458ZM306.528 56.9458H346.428C355.128 56.9458 361.842 55.5192 366.569 52.666C371.296 49.8128 374.432 46.0086 375.977 41.2533L376.302 40.2547C377.754 35.7848 376.982 32.3134 373.985 29.8407C370.989 27.3679 365.141 26.1315 356.441 26.1315H310.541L284.444 106.448H263.894L295.46 9.29782H362.66C369.26 9.29782 375.109 9.91601 380.208 11.1524C385.306 12.3888 389.403 14.2433 392.5 16.7161C395.727 19.0937 397.854 22.0895 398.88 25.7036C399.905 29.3176 399.661 33.4547 398.147 38.1148L396.478 43.2505C395.242 47.0548 393.283 50.6212 390.602 53.9499C387.951 57.1835 384.774 60.0367 381.071 62.5094C377.467 64.9822 373.403 67.027 368.878 68.6438C364.352 70.2606 359.647 71.3543 354.761 71.9249L377.48 105.878L377.294 106.448H352.694L329.422 72.3529H306.772L306.528 56.9458ZM404.229 58.2297C406.547 51.0968 409.594 44.4869 413.372 38.4002C417.15 32.3134 421.949 27.0826 427.771 22.7077C433.623 18.2378 440.551 14.7664 448.554 12.2937C456.689 9.7258 466.256 8.44188 477.256 8.44188H487.156C498.056 8.44188 506.739 9.7258 513.204 12.2937C519.701 14.7664 524.423 18.2378 527.371 22.7077C530.349 27.0826 531.75 32.3134 531.572 38.4002C531.394 44.4869 530.147 51.0968 527.829 58.2297C525.511 65.3626 522.464 71.9725 518.686 78.0592C514.908 84.146 510.093 89.4243 504.241 93.8943C498.419 98.2692 491.457 101.693 483.353 104.166C475.25 106.638 465.748 107.875 454.848 107.875H444.948C433.948 107.875 425.2 106.638 418.703 104.166C412.307 101.693 407.619 98.2692 404.641 93.8943C401.693 89.4243 400.308 84.146 400.486 78.0592C400.664 71.9725 401.911 65.3626 404.229 58.2297ZM506.829 58.2297C510.506 46.9121 510.36 38.5904 506.391 33.2645C502.521 27.9385 494.086 25.2756 481.086 25.2756H472.386C465.886 25.2756 460.07 25.9413 454.937 27.2728C449.936 28.5092 445.537 30.5064 441.741 33.2645C437.975 35.9274 434.713 39.3512 431.953 43.5359C429.324 47.6254 427.083 52.5233 425.229 58.2297C423.375 63.936 422.433 68.834 422.405 72.9235C422.476 77.0131 423.513 80.4369 425.517 83.1949C427.552 85.8579 430.653 87.8551 434.82 89.1866C439.119 90.423 444.518 91.0411 451.018 91.0411H459.718C472.718 91.0411 482.868 88.4257 490.167 83.1949C497.598 77.869 503.152 69.5473 506.829 58.2297ZM574.302 56.9458H614.202C622.902 56.9458 629.615 55.5192 634.342 52.666C639.07 49.8128 642.206 46.0086 643.751 41.2533L644.075 40.2547C645.528 35.7848 644.755 32.3134 641.759 29.8407C638.762 27.3679 632.914 26.1315 624.214 26.1315H578.314L552.218 106.448H531.668L563.234 9.29782H630.434C637.034 9.29782 642.883 9.91601 647.981 11.1524C653.079 12.3888 657.177 14.2433 660.273 16.7161C663.501 19.0937 665.627 22.0895 666.653 25.7036C667.679 29.3176 667.435 33.4547 665.92 38.1148L664.252 43.2505C663.016 47.0548 661.057 50.6212 658.375 53.9499C655.725 57.1835 652.548 60.0367 648.844 62.5094C645.241 64.9822 641.176 67.027 636.651 68.6438C632.126 70.2606 627.42 71.3543 622.535 71.9249L645.253 105.878L645.068 106.448H620.468L597.196 72.3529H574.546L574.302 56.9458ZM725.829 0.595659L697.55 73.7795H680L699.279 0.595659H725.829ZM671.345 91.1838H694.895L687.942 112.583H664.392L671.345 91.1838Z" fill="#5200FF"/>
<path d="M2.9914 106.448H0.9914L0.373366 108.35H2.37337L2.9914 106.448ZM34.5575 9.29782L35.1755 7.39571H33.1755L32.5575 9.29782H34.5575ZM146.157 9.29782L147.85 9.91352L149.574 7.39571H146.776L146.157 9.29782ZM135.023 25.5609L134.405 27.463H135.835L136.716 26.1766L135.023 25.5609ZM49.8233 25.5609L50.4413 23.6588H48.4413L47.8233 25.5609H49.8233ZM42.4069 48.3863H40.4069L39.7889 50.2884H41.7889L42.4069 48.3863ZM130.007 48.3863L131.699 49.0019L133.423 46.4841H130.625L130.007 48.3863ZM118.873 64.6493L118.255 66.5514H119.684L120.565 65.265L118.873 64.6493ZM37.1227 64.6493L37.7407 62.7472H35.7407L35.1227 64.6493H37.1227ZM28.8256 90.1852H26.8256L26.2076 92.0873H28.2076L28.8256 90.1852ZM120.026 90.1852L121.708 90.815L123.465 88.2831H120.644L120.026 90.1852ZM108.741 106.448L108.123 108.35H109.541L110.424 107.078L108.741 106.448ZM4.9914 106.448L36.5575 9.29782H32.5575L0.9914 106.448H4.9914ZM33.9395 11.1999H145.539L146.776 7.39571H35.1755L33.9395 11.1999ZM144.465 8.68213L133.331 24.9452L136.716 26.1766L147.85 9.91352L144.465 8.68213ZM135.641 23.6588H50.4413L49.2053 27.463H134.405L135.641 23.6588ZM47.8233 25.5609L40.4069 48.3863H44.4069L51.8233 25.5609H47.8233ZM41.7889 50.2884H129.389L130.625 46.4841H43.0249L41.7889 50.2884ZM128.315 47.7706L117.18 64.0336L120.565 65.265L131.699 49.0019L128.315 47.7706ZM119.491 62.7472H37.7407L36.5047 66.5514H118.255L119.491 62.7472ZM35.1227 64.6493L26.8256 90.1852H30.8256L39.1227 64.6493H35.1227ZM28.2076 92.0873H119.408L120.644 88.2831H29.4436L28.2076 92.0873ZM118.343 89.5554L107.059 105.818L110.424 107.078L121.708 90.815L118.343 89.5554ZM109.359 104.546H3.60943L2.37337 108.35H108.123L109.359 104.546ZM176.011 56.9458L176.629 55.0437H173.878L173.918 57.5322L176.011 56.9458ZM236.051 52.666L235.297 51.1731L235.297 51.1731L236.051 52.666ZM243.468 29.8407L241.828 31.4105L241.828 31.4105L243.468 29.8407ZM180.023 26.1315L180.641 24.2294H178.641L178.023 26.1315H180.023ZM153.927 106.448L153.309 108.35H155.309L155.927 106.448H153.927ZM133.377 106.448H131.377L130.759 108.35H132.759L133.377 106.448ZM164.943 9.29782L165.561 7.39571H163.561L162.943 9.29782H164.943ZM249.69 11.1524L250.752 9.30128L250.752 9.30128L249.69 11.1524ZM261.982 16.7161L260.359 18.2987L260.378 18.3142L260.398 18.3291L261.982 16.7161ZM268.362 25.7036L266.322 26.6566L266.322 26.6566L268.362 25.7036ZM260.084 53.9499L261.631 54.7598L261.639 54.7503L261.646 54.7408L260.084 53.9499ZM250.553 62.5094L249.678 61.0932L249.662 61.1043L249.645 61.1156L250.553 62.5094ZM238.36 68.6438L238.147 66.8932L238.146 66.8932L238.36 68.6438ZM224.244 71.9249L224.604 70.0381L220.546 70.512L222.366 73.2316L224.244 71.9249ZM246.962 105.878H248.962L249.208 105.121L248.84 104.571L246.962 105.878ZM246.777 106.448L246.159 108.35H248.159L248.777 106.448H246.777ZM222.177 106.448L220.305 107.764L220.705 108.35H221.559L222.177 106.448ZM198.905 72.3529L200.777 71.0369L200.376 70.4508H199.523L198.905 72.3529ZM176.255 72.3529L174.162 72.9393L174.183 74.255H175.637L176.255 72.3529ZM175.393 58.8479H215.293L216.529 55.0437H176.629L175.393 58.8479ZM215.293 58.8479C224.125 58.8479 231.407 57.4176 236.806 54.1589L235.297 51.1731C231.242 53.6207 225.097 55.0437 216.529 55.0437L215.293 58.8479ZM236.806 54.1589C242.153 50.9315 245.733 46.5686 247.46 41.2533H243.46C242.097 45.4487 239.404 48.6941 235.297 51.1731L236.806 54.1589ZM247.46 41.2533L247.784 40.2547H243.784L243.46 41.2533H247.46ZM247.784 40.2547C249.435 35.1725 248.544 31.1068 245.107 28.2708L241.828 31.4105C244.385 33.5199 245.038 36.397 243.784 40.2547H247.784ZM245.107 28.2708C241.703 25.4613 235.339 24.2294 226.541 24.2294L225.305 28.0336C233.907 28.0336 239.24 29.2745 241.828 31.4105L245.107 28.2708ZM226.541 24.2294H180.641L179.405 28.0336H225.305L226.541 24.2294ZM178.023 26.1315L151.927 106.448H155.927L182.023 26.1315H178.023ZM154.545 104.546H133.995L132.759 108.35H153.309L154.545 104.546ZM135.377 106.448L166.943 9.29782H162.943L131.377 106.448H135.377ZM164.325 11.1999H231.525L232.761 7.39571H165.561L164.325 11.1999ZM231.525 11.1999C237.995 11.1999 243.691 11.8061 248.629 13.0035L250.752 9.30128C245.493 8.02592 239.49 7.39571 232.761 7.39571L231.525 11.1999ZM248.629 13.0035C253.555 14.1982 257.448 15.9743 260.359 18.2987L263.606 15.1334C260.324 12.5123 256.022 10.5793 250.752 9.30128L248.629 13.0035ZM260.398 18.3291C263.419 20.5546 265.378 23.3311 266.322 26.6566L270.403 24.7505C269.295 20.848 267 17.6328 263.566 15.1031L260.398 18.3291ZM266.322 26.6566C267.256 29.9484 267.048 33.7496 265.629 38.1148H269.629C271.239 33.1597 271.52 28.6867 270.403 24.7505L266.322 26.6566ZM265.629 38.1148L263.961 43.2505H267.961L269.629 38.1148H265.629ZM263.961 43.2505C262.81 46.7929 260.996 50.0885 258.522 53.1591L261.646 54.7408C264.536 51.154 266.64 47.3167 267.961 43.2505H263.961ZM258.538 53.14C256.083 56.1349 253.137 58.784 249.678 61.0932L251.428 63.9257C255.376 61.2894 258.784 58.2321 261.631 54.7598L258.538 53.14ZM249.645 61.1156C246.288 63.4194 242.463 65.3508 238.147 66.8932L238.573 70.3943C243.307 68.7031 247.612 66.545 251.461 63.9033L249.645 61.1156ZM238.146 66.8932C233.829 68.4359 229.317 69.4876 224.604 70.0381L223.884 73.8117C228.942 73.2209 233.841 72.0853 238.573 70.3943L238.146 66.8932ZM222.366 73.2316L245.084 107.184L248.84 104.571L226.122 70.6182L222.366 73.2316ZM244.962 105.878L244.777 106.448H248.777L248.962 105.878H244.962ZM247.395 104.546H222.795L221.559 108.35H246.159L247.395 104.546ZM224.048 105.132L200.777 71.0369L197.033 73.6688L220.305 107.764L224.048 105.132ZM199.523 70.4508H176.873L175.637 74.255H198.287L199.523 70.4508ZM178.348 71.7665L178.104 56.3594L173.918 57.5322L174.162 72.9393L178.348 71.7665ZM306.528 56.9458L307.147 55.0437H304.396L304.435 57.5322L306.528 56.9458ZM366.569 52.666L365.815 51.1731L365.815 51.1731L366.569 52.666ZM373.985 29.8407L372.346 31.4105L372.346 31.4105L373.985 29.8407ZM310.541 26.1315L311.159 24.2294H309.159L308.541 26.1315H310.541ZM284.444 106.448L283.826 108.35H285.826L286.444 106.448H284.444ZM263.894 106.448H261.894L261.276 108.35H263.276L263.894 106.448ZM295.46 9.29782L296.078 7.39571H294.078L293.46 9.29782H295.46ZM380.208 11.1524L381.269 9.30128L381.269 9.30128L380.208 11.1524ZM392.5 16.7161L390.876 18.2987L390.896 18.3142L390.916 18.3291L392.5 16.7161ZM398.88 25.7036L396.839 26.6566L396.839 26.6566L398.88 25.7036ZM390.602 53.9499L392.148 54.7598L392.156 54.7503L392.164 54.7408L390.602 53.9499ZM381.071 62.5094L380.196 61.0932L380.179 61.1043L380.163 61.1156L381.071 62.5094ZM368.878 68.6438L368.664 66.8932L368.664 66.8932L368.878 68.6438ZM354.761 71.9249L355.121 70.0381L351.064 70.512L352.884 73.2316L354.761 71.9249ZM377.48 105.878H379.48L379.725 105.121L379.357 104.571L377.48 105.878ZM377.294 106.448L376.676 108.35H378.676L379.294 106.448H377.294ZM352.694 106.448L350.822 107.764L351.223 108.35H352.076L352.694 106.448ZM329.422 72.3529L331.294 71.0369L330.894 70.4508H330.04L329.422 72.3529ZM306.772 72.3529L304.679 72.9393L304.7 74.255H306.154L306.772 72.3529ZM305.91 58.8479H345.81L347.047 55.0437H307.147L305.91 58.8479ZM345.81 58.8479C354.643 58.8479 361.924 57.4176 367.323 54.1589L365.815 51.1731C361.76 53.6207 355.614 55.0437 347.047 55.0437L345.81 58.8479ZM367.323 54.1589C372.67 50.9315 376.25 46.5686 377.977 41.2533H373.977C372.614 45.4487 369.922 48.6941 365.815 51.1731L367.323 54.1589ZM377.977 41.2533L378.302 40.2547H374.302L373.977 41.2533H377.977ZM378.302 40.2547C379.953 35.1725 379.062 31.1068 375.625 28.2708L372.346 31.4105C374.902 33.5199 375.555 36.397 374.302 40.2547H378.302ZM375.625 28.2708C372.22 25.4613 365.856 24.2294 357.059 24.2294L355.823 28.0336C364.425 28.0336 369.758 29.2745 372.346 31.4105L375.625 28.2708ZM357.059 24.2294H311.159L309.923 28.0336H355.823L357.059 24.2294ZM308.541 26.1315L282.444 106.448H286.444L312.541 26.1315H308.541ZM285.062 104.546H264.512L263.276 108.35H283.826L285.062 104.546ZM265.894 106.448L297.46 9.29782H293.46L261.894 106.448H265.894ZM294.842 11.1999H362.042L363.278 7.39571H296.078L294.842 11.1999ZM362.042 11.1999C368.512 11.1999 374.209 11.8061 379.146 13.0035L381.269 9.30128C376.01 8.02592 370.008 7.39571 363.278 7.39571L362.042 11.1999ZM379.146 13.0035C384.073 14.1982 387.965 15.9743 390.876 18.2987L394.124 15.1334C390.841 12.5123 386.539 10.5793 381.269 9.30128L379.146 13.0035ZM390.916 18.3291C393.937 20.5546 395.895 23.3311 396.839 26.6566L400.92 24.7505C399.813 20.848 397.518 17.6328 394.084 15.1031L390.916 18.3291ZM396.839 26.6566C397.773 29.9484 397.565 33.7496 396.147 38.1148H400.147C401.757 33.1597 402.037 28.6867 400.92 24.7505L396.839 26.6566ZM396.147 38.1148L394.478 43.2505H398.478L400.147 38.1148H396.147ZM394.478 43.2505C393.327 46.7929 391.514 50.0885 389.04 53.1591L392.164 54.7408C395.053 51.154 397.157 47.3167 398.478 43.2505H394.478ZM389.055 53.14C386.6 56.1349 383.654 58.784 380.196 61.0932L381.946 63.9257C385.894 61.2894 389.302 58.2321 392.148 54.7598L389.055 53.14ZM380.163 61.1156C376.805 63.4194 372.981 65.3508 368.664 66.8932L369.091 70.3943C373.825 68.7031 378.129 66.545 381.979 63.9033L380.163 61.1156ZM368.664 66.8932C364.346 68.4359 359.834 69.4876 355.121 70.0381L354.402 73.8117C359.459 73.2209 364.358 72.0853 369.091 70.3943L368.664 66.8932ZM352.884 73.2316L375.602 107.184L379.357 104.571L356.639 70.6182L352.884 73.2316ZM375.48 105.878L375.294 106.448H379.294L379.48 105.878H375.48ZM377.912 104.546H353.312L352.076 108.35H376.676L377.912 104.546ZM354.566 105.132L331.294 71.0369L327.551 73.6688L350.822 107.764L354.566 105.132ZM330.04 70.4508H307.39L306.154 74.255H328.804L330.04 70.4508ZM308.866 71.7665L308.622 56.3594L304.435 57.5322L304.679 72.9393L308.866 71.7665ZM413.372 38.4002L411.614 37.8852L411.614 37.8852L413.372 38.4002ZM427.771 22.7077L428.789 24.0225L428.799 24.0151L428.808 24.0077L427.771 22.7077ZM448.554 12.2937L448.652 14.0827L448.66 14.0802L448.669 14.0777L448.554 12.2937ZM513.204 12.2937L511.931 14.0777L511.941 14.0816L511.951 14.0855L513.204 12.2937ZM527.371 22.7077L525.488 24.0077L525.493 24.0151L525.498 24.0225L527.371 22.7077ZM531.572 38.4002L529.479 38.9151L529.479 38.9151L531.572 38.4002ZM518.686 78.0592L516.928 77.5442L516.928 77.5442L518.686 78.0592ZM504.241 93.8943L505.259 95.2091L505.269 95.2017L505.278 95.1943L504.241 93.8943ZM483.353 104.166L483.442 105.958L483.353 104.166ZM418.703 104.166L417.443 105.955L417.45 105.958L418.703 104.166ZM404.641 93.8943L402.758 95.1943L402.763 95.2017L402.768 95.2091L404.641 93.8943ZM400.486 78.0592L402.579 77.5442L402.579 77.5442L400.486 78.0592ZM506.391 33.2645L504.539 34.6095L504.544 34.6154L504.548 34.6213L506.391 33.2645ZM454.937 27.2728L454.887 29.1032L454.901 29.0996L454.916 29.0958L454.937 27.2728ZM441.741 33.2645L442.685 34.6328L442.702 34.6212L442.718 34.6095L441.741 33.2645ZM431.953 43.5359L430.235 42.9591L430.226 42.9722L430.218 42.9854L431.953 43.5359ZM422.405 72.9235L420.311 73.474L420.311 73.4932L420.311 73.5124L422.405 72.9235ZM425.517 83.1949L423.666 84.5399L423.675 84.5517L423.683 84.5633L425.517 83.1949ZM434.82 89.1866L433.647 91.0063L433.669 91.0134L433.692 91.0199L434.82 89.1866ZM490.167 83.1949L491.128 84.552L491.128 84.5518L490.167 83.1949ZM406.229 58.2297C408.497 51.249 411.468 44.8145 415.13 38.9151L411.614 37.8852C407.72 44.1594 404.596 50.9446 402.229 58.2297H406.229ZM415.13 38.9151C418.73 33.1146 423.28 28.1621 428.789 24.0225L426.753 21.3929C420.618 26.0031 415.569 31.5122 411.614 37.8852L415.13 38.9151ZM428.808 24.0077C434.324 19.7949 440.917 16.4725 448.652 14.0827L448.456 10.5046C440.185 13.0603 432.922 16.6806 426.733 21.4078L428.808 24.0077ZM448.669 14.0777C456.476 11.613 465.785 10.344 476.638 10.344L477.874 6.53976C466.727 6.53976 456.901 7.83864 448.44 10.5097L448.669 14.0777ZM476.638 10.344H486.538L487.774 6.53976H477.874L476.638 10.344ZM486.538 10.344C497.289 10.344 505.724 11.6124 511.931 14.0777L514.478 10.5097C507.754 7.83923 498.823 6.53976 487.774 6.53976L486.538 10.344ZM511.951 14.0855C518.234 16.477 522.714 19.7999 525.488 24.0077L529.253 21.4078C526.133 16.6756 521.168 13.0558 514.458 10.5018L511.951 14.0855ZM525.498 24.0225C528.317 28.1621 529.649 33.1146 529.479 38.9151L533.665 37.8852C533.851 31.5122 532.382 26.0031 529.243 21.3929L525.498 24.0225ZM529.479 38.9151C529.307 44.8145 528.097 51.249 525.829 58.2297H529.829C532.196 50.9446 533.481 44.1594 533.665 37.8852L529.479 38.9151ZM525.829 58.2297C523.561 65.2104 520.589 71.6449 516.928 77.5442L520.444 78.5742C524.338 72.3 527.462 65.5148 529.829 58.2297H525.829ZM516.928 77.5442C513.326 83.3476 508.755 88.3542 503.203 92.5944L505.278 95.1943C511.432 90.4945 516.49 84.9444 520.444 78.5742L516.928 77.5442ZM503.223 92.5795C497.742 96.6985 491.112 99.9793 483.265 102.374L483.442 105.958C491.802 103.407 499.097 99.8398 505.259 95.2091L503.223 92.5795ZM483.265 102.374C475.476 104.751 466.223 105.973 455.466 105.973L454.23 109.777C465.273 109.777 475.024 108.526 483.442 105.958L483.265 102.374ZM455.466 105.973H445.566L444.33 109.777H454.23L455.466 105.973ZM445.566 105.973C434.707 105.973 426.199 104.75 419.957 102.374L417.45 105.958C424.2 108.527 433.19 109.777 444.33 109.777L445.566 105.973ZM419.964 102.377C413.774 99.9837 409.321 96.7034 406.513 92.5795L402.768 95.2091C405.918 99.8349 410.84 103.402 417.443 105.955L419.964 102.377ZM406.523 92.5944C403.727 88.3542 402.409 83.3476 402.579 77.5442L398.393 78.5742C398.207 84.9444 399.659 90.4945 402.758 95.1943L406.523 92.5944ZM402.579 77.5442C402.751 71.6449 403.961 65.2104 406.229 58.2297H402.229C399.862 65.5148 398.576 72.3 398.393 78.5742L402.579 77.5442ZM508.829 58.2297C512.591 46.6499 512.576 37.734 508.233 31.9076L504.548 34.6213C508.145 39.4468 508.421 47.1743 504.829 58.2297H508.829ZM508.242 31.9195C503.989 26.0661 494.911 23.3735 481.704 23.3735L480.468 27.1777C493.262 27.1777 501.053 29.811 504.539 34.6095L508.242 31.9195ZM481.704 23.3735H473.004L471.768 27.1777H480.468L481.704 23.3735ZM473.004 23.3735C466.37 23.3735 460.347 24.052 454.959 25.4498L454.916 29.0958C459.793 27.8307 465.403 27.1777 471.768 27.1777L473.004 23.3735ZM454.988 25.4424C449.688 26.7524 444.925 28.896 440.763 31.9195L442.718 34.6095C446.149 32.1168 450.183 30.2659 454.887 29.1032L454.988 25.4424ZM440.796 31.8961C436.679 34.8082 433.164 38.5181 430.235 42.9591L433.672 44.1126C436.262 40.1844 439.272 37.0467 442.685 34.6328L440.796 31.8961ZM430.218 42.9854C427.443 47.3018 425.125 52.3952 423.229 58.2297H427.229C429.041 52.6515 431.206 47.949 433.689 44.0863L430.218 42.9854ZM423.229 58.2297C421.333 64.0641 420.342 69.1575 420.311 73.474L424.498 72.3731C424.525 68.5104 425.416 63.8079 427.229 58.2297H423.229ZM420.311 73.5124C420.387 77.8573 421.493 81.5488 423.666 84.5399L427.368 81.8499C425.534 79.3249 424.564 76.1689 424.498 72.3346L420.311 73.5124ZM423.683 84.5633C425.906 87.4719 429.258 89.604 433.647 91.0063L435.994 87.3669C432.048 86.1062 429.198 84.2438 427.351 81.8265L423.683 84.5633ZM433.692 91.0199C438.191 92.3142 443.775 92.9433 450.4 92.9433L451.636 89.139C445.26 89.139 440.046 88.5317 435.949 87.3533L433.692 91.0199ZM450.4 92.9433H459.1L460.336 89.139H451.636L450.4 92.9433ZM459.1 92.9433C472.299 92.9433 483.104 90.3013 491.128 84.552L489.207 81.8379C482.631 86.5501 473.137 89.139 460.336 89.139L459.1 92.9433ZM491.128 84.5518C499.257 78.7254 505.066 69.8095 508.829 58.2297H504.829C501.237 69.2851 495.939 77.0126 489.206 81.8381L491.128 84.5518ZM574.302 56.9458L574.92 55.0437H572.169L572.209 57.5322L574.302 56.9458ZM634.342 52.666L633.588 51.1731L633.588 51.1731L634.342 52.666ZM641.759 29.8407L640.119 31.4105L640.119 31.4105L641.759 29.8407ZM578.314 26.1315L578.932 24.2294H576.932L576.314 26.1315H578.314ZM552.218 106.448L551.6 108.35H553.6L554.218 106.448H552.218ZM531.668 106.448H529.668L529.05 108.35H531.05L531.668 106.448ZM563.234 9.29782L563.852 7.39571H561.852L561.234 9.29782H563.234ZM647.981 11.1524L649.043 9.30128L649.043 9.30128L647.981 11.1524ZM660.273 16.7161L658.65 18.2987L658.669 18.3142L658.689 18.3291L660.273 16.7161ZM666.653 25.7036L664.613 26.6566L664.613 26.6566L666.653 25.7036ZM658.375 53.9499L659.922 54.7598L659.93 54.7503L659.937 54.7408L658.375 53.9499ZM648.844 62.5094L647.969 61.0932L647.953 61.1043L647.936 61.1156L648.844 62.5094ZM636.651 68.6438L636.438 66.8932L636.438 66.8932L636.651 68.6438ZM622.535 71.9249L622.895 70.0381L618.837 70.512L620.657 73.2316L622.535 71.9249ZM645.253 105.878H647.253L647.499 105.121L647.131 104.571L645.253 105.878ZM645.068 106.448L644.45 108.35H646.45L647.068 106.448H645.068ZM620.468 106.448L618.596 107.764L618.996 108.35H619.85L620.468 106.448ZM597.196 72.3529L599.068 71.0369L598.667 70.4508H597.814L597.196 72.3529ZM574.546 72.3529L572.453 72.9393L572.474 74.255H573.928L574.546 72.3529ZM573.684 58.8479H613.584L614.82 55.0437H574.92L573.684 58.8479ZM613.584 58.8479C622.416 58.8479 629.698 57.4176 635.097 54.1589L633.588 51.1731C629.533 53.6207 623.388 55.0437 614.82 55.0437L613.584 58.8479ZM635.097 54.1589C640.444 50.9315 644.024 46.5686 645.751 41.2533H641.751C640.388 45.4487 637.695 48.6941 633.588 51.1731L635.097 54.1589ZM645.751 41.2533L646.075 40.2547H642.075L641.751 41.2533H645.751ZM646.075 40.2547C647.726 35.1725 646.835 31.1068 643.398 28.2708L640.119 31.4105C642.676 33.5199 643.329 36.397 642.075 40.2547H646.075ZM643.398 28.2708C639.994 25.4613 633.63 24.2294 624.832 24.2294L623.596 28.0336C632.198 28.0336 637.531 29.2745 640.119 31.4105L643.398 28.2708ZM624.832 24.2294H578.932L577.696 28.0336H623.596L624.832 24.2294ZM576.314 26.1315L550.218 106.448H554.218L580.314 26.1315H576.314ZM552.836 104.546H532.286L531.05 108.35H551.6L552.836 104.546ZM533.668 106.448L565.234 9.29782H561.234L529.668 106.448H533.668ZM562.616 11.1999H629.816L631.052 7.39571H563.852L562.616 11.1999ZM629.816 11.1999C636.286 11.1999 641.982 11.8061 646.92 13.0035L649.043 9.30128C643.784 8.02592 637.781 7.39571 631.052 7.39571L629.816 11.1999ZM646.92 13.0035C651.846 14.1982 655.739 15.9743 658.65 18.2987L661.897 15.1334C658.615 12.5123 654.313 10.5793 649.043 9.30128L646.92 13.0035ZM658.689 18.3291C661.71 20.5546 663.669 23.3311 664.613 26.6566L668.694 24.7505C667.586 20.848 665.291 17.6328 661.857 15.1031L658.689 18.3291ZM664.613 26.6566C665.547 29.9484 665.339 33.7496 663.92 38.1148H667.92C669.53 33.1597 669.811 28.6867 668.694 24.7505L664.613 26.6566ZM663.92 38.1148L662.252 43.2505H666.252L667.92 38.1148H663.92ZM662.252 43.2505C661.101 46.7929 659.287 50.0885 656.813 53.1591L659.937 54.7408C662.827 51.154 664.931 47.3167 666.252 43.2505H662.252ZM656.829 53.14C654.374 56.1349 651.428 58.784 647.969 61.0932L649.719 63.9257C653.667 61.2894 657.075 58.2321 659.922 54.7598L656.829 53.14ZM647.936 61.1156C644.579 63.4194 640.754 65.3508 636.438 66.8932L636.864 70.3943C641.598 68.7031 645.903 66.545 649.752 63.9033L647.936 61.1156ZM636.438 66.8932C632.12 68.4359 627.608 69.4876 622.895 70.0381L622.175 73.8117C627.233 73.2209 632.132 72.0853 636.864 70.3943L636.438 66.8932ZM620.657 73.2316L643.375 107.184L647.131 104.571L624.413 70.6182L620.657 73.2316ZM643.253 105.878L643.068 106.448H647.068L647.253 105.878H643.253ZM645.686 104.546H621.086L619.85 108.35H644.45L645.686 104.546ZM622.339 105.132L599.068 71.0369L595.324 73.6688L618.596 107.764L622.339 105.132ZM597.814 70.4508H575.164L573.928 74.255H596.578L597.814 70.4508ZM576.639 71.7665L576.395 56.3594L572.209 57.5322L572.453 72.9393L576.639 71.7665ZM725.829 0.595659L727.789 0.706704L728.567 -1.30645H726.447L725.829 0.595659ZM697.55 73.7795L696.932 75.6816H698.818L699.51 73.8905L697.55 73.7795ZM680 73.7795L677.967 73.8905L677.495 75.6816H679.382L680 73.7795ZM699.279 0.595659L699.897 -1.30645H697.776L697.246 0.706704L699.279 0.595659ZM671.345 91.1838L671.963 89.2817H669.963L669.345 91.1838H671.345ZM694.895 91.1838H696.895L697.513 89.2817H695.513L694.895 91.1838ZM687.942 112.583L687.324 114.485H689.324L689.942 112.583H687.942ZM664.392 112.583H662.392L661.774 114.485H663.774L664.392 112.583ZM723.868 0.484614L695.589 73.6684L699.51 73.8905L727.789 0.706704L723.868 0.484614ZM698.168 71.8774H680.618L679.382 75.6816H696.932L698.168 71.8774ZM682.033 73.6684L701.311 0.484614L697.246 0.706704L677.967 73.8905L682.033 73.6684ZM698.661 2.49777H725.211L726.447 -1.30645H699.897L698.661 2.49777ZM670.727 93.0859H694.277L695.513 89.2817H671.963L670.727 93.0859ZM692.895 91.1838L685.942 112.583H689.942L696.895 91.1838H692.895ZM688.56 110.68H665.01L663.774 114.485H687.324L688.56 110.68ZM666.392 112.583L673.345 91.1838H669.345L662.392 112.583H666.392Z" fill="#5200FF"/>
</svg>
