<svg width="75" height="16" viewBox="0 0 75 16" fill="none" xmlns="http://www.w3.org/2000/svg">
<path d="M0.980022 11.7798V3.3998C0.980022 2.33981 0.980022 1.7398 0.960022 0.799805H14.96V2.69981C11.56 2.6798 7.84002 2.6798 5.44002 2.6798H3.06002V6.7998H14.18V8.6998C11.18 8.6798 9.10002 8.67981 6.90002 8.67981H3.06002V13.1198H6.24002C8.84002 13.1198 13.8 13.1198 15.4 13.0998V14.9998H0.960022C0.980022 14.0198 0.980022 13.3198 0.980022 11.7798Z" fill="#43FF8E"/>
<path d="M25.6433 14.9998H21.8633C20.6833 12.5398 17.5833 6.1198 16.2233 3.3998H18.5233L21.0433 8.61981C21.7833 10.1598 22.5433 11.7398 23.1433 12.9998H24.5233C25.1233 11.7198 25.8633 10.1798 26.6233 8.6398L29.2033 3.3998H31.3833C30.0033 6.1198 27.0233 12.1598 25.6433 14.9998Z" fill="#43FF8E"/>
<path d="M39.261 15.2398C33.421 15.2398 31.901 13.9198 31.901 9.49981V8.89981C31.901 4.4798 33.421 3.15981 39.121 3.15981C44.821 3.15981 46.141 4.4798 46.201 8.89981C46.221 9.2198 46.201 9.6398 46.201 9.9798H33.961C34.061 12.6798 35.021 13.4598 39.281 13.4598C43.681 13.4598 44.221 12.7198 44.221 11.2198L46.201 11.2998C46.201 14.0798 45.101 15.2398 39.261 15.2398ZM39.121 4.89981C35.101 4.89981 34.101 5.61981 33.961 8.25981H44.081C44.001 5.6998 43.221 4.89981 39.121 4.89981Z" fill="#43FF8E"/>
<path d="M48.7677 11.7998V6.37981C48.7677 4.89981 48.7677 4.17981 48.7477 3.3998H50.6077L50.6477 5.0998C51.5877 3.79981 53.3277 3.15981 56.1677 3.15981C61.4477 3.15981 62.4677 4.5798 62.4677 8.0998C62.4677 8.91981 62.4477 9.39981 62.4477 10.5998V11.8198C62.4477 13.2598 62.4477 14.0598 62.4677 14.9998H60.4277C60.4477 14.0998 60.4477 13.5198 60.4477 11.8198V8.6998C60.4477 6.0398 59.6877 5.0198 55.6277 5.0198C51.7077 5.0198 50.7677 5.95981 50.7677 8.99981V11.7998C50.7677 13.4198 50.7677 14.1598 50.7877 14.9998H48.7477C48.7677 14.1598 48.7677 13.3798 48.7677 11.7998Z" fill="#43FF8E"/>
<path d="M66.3928 7.79981V5.2198H64.2928V3.3998C65.1128 3.4198 65.7528 3.3998 66.3928 3.3998C66.3928 2.7398 66.3928 2.0798 66.3728 1.1598L68.4128 1.11981C68.3928 1.59981 68.3928 2.3998 68.3928 3.3998H74.3728V5.2198H68.3928V10.5198C68.3928 12.9398 69.1928 13.2398 72.2528 13.2398C73.1528 13.2398 73.6128 13.2198 74.3728 13.1798L74.3928 14.9998C73.7728 15.0598 73.0328 15.0998 72.1528 15.0998C67.4328 15.0998 66.3728 14.2398 66.3728 10.7998C66.3728 9.91981 66.3928 8.77981 66.3928 7.79981Z" fill="#43FF8E"/>
</svg>
