<svg width="74" height="15" viewBox="0 0 74 15" fill="none" xmlns="http://www.w3.org/2000/svg">
<path d="M0.02 10.98V2.6C0.02 1.54 0.02 0.94 0 0H14V1.9C10.6 1.88 6.88 1.88 4.48 1.88H2.1V6H13.22V7.9C10.22 7.88 8.14 7.88 5.94 7.88H2.1V12.32H5.28C7.88 12.32 12.84 12.32 14.44 12.3V14.2H0C0.02 13.22 0.02 12.52 0.02 10.98Z" fill="white"/>
<path d="M24.6833 14.2H20.9033C19.7233 11.74 16.6233 5.32 15.2633 2.6H17.5633L20.0833 7.82C20.8233 9.36 21.5833 10.94 22.1833 12.2H23.5633C24.1633 10.92 24.9033 9.38 25.6633 7.84L28.2433 2.6H30.4233C29.0433 5.32 26.0633 11.36 24.6833 14.2Z" fill="white"/>
<path d="M38.3009 14.44C32.4609 14.44 30.9409 13.12 30.9409 8.7V8.1C30.9409 3.68 32.4609 2.36 38.1609 2.36C43.8609 2.36 45.1809 3.68 45.2409 8.1C45.2609 8.42 45.2409 8.84 45.2409 9.18H33.0009C33.1009 11.88 34.0609 12.66 38.3209 12.66C42.7209 12.66 43.2609 11.92 43.2609 10.42L45.2409 10.5C45.2409 13.28 44.1409 14.44 38.3009 14.44ZM38.1609 4.1C34.1409 4.1 33.1409 4.82 33.0009 7.46H43.1209C43.0409 4.9 42.2609 4.1 38.1609 4.1Z" fill="white"/>
<path d="M47.8077 11V5.58C47.8077 4.1 47.8077 3.38 47.7877 2.6H49.6477L49.6877 4.3C50.6277 3 52.3677 2.36 55.2077 2.36C60.4877 2.36 61.5077 3.78 61.5077 7.3C61.5077 8.12 61.4877 8.6 61.4877 9.8V11.02C61.4877 12.46 61.4877 13.26 61.5077 14.2H59.4677C59.4877 13.3 59.4877 12.72 59.4877 11.02V7.9C59.4877 5.24 58.7277 4.22 54.6677 4.22C50.7477 4.22 49.8077 5.16 49.8077 8.2V11C49.8077 12.62 49.8077 13.36 49.8277 14.2H47.7877C47.8077 13.36 47.8077 12.58 47.8077 11Z" fill="white"/>
<path d="M65.4328 7V4.42H63.3328V2.6C64.1528 2.62 64.7928 2.6 65.4328 2.6C65.4328 1.94 65.4328 1.28 65.4128 0.36L67.4528 0.320001C67.4328 0.8 67.4328 1.6 67.4328 2.6H73.4128V4.42H67.4328V9.72C67.4328 12.14 68.2328 12.44 71.2928 12.44C72.1928 12.44 72.6528 12.42 73.4128 12.38L73.4328 14.2C72.8128 14.26 72.0728 14.3 71.1928 14.3C66.4728 14.3 65.4128 13.44 65.4128 10C65.4128 9.12 65.4328 7.98 65.4328 7Z" fill="white"/>
</svg>
