<svg width="29" height="22" viewBox="0 0 29 22" fill="none" xmlns="http://www.w3.org/2000/svg">
<path d="M26.4676 6.69164C28.5108 9.1268 28.5108 12.8732 26.4676 15.3084C23.5487 18.781 19.2724 21 14.5 21C9.72757 21 5.46594 18.7954 2.53243 15.3084C0.48919 12.8732 0.48919 9.1268 2.53243 6.69164C5.45135 3.21902 9.72757 1 14.5 1C19.2724 1 23.5341 3.20461 26.4676 6.69164Z" stroke="#535559" stroke-width="1.5" stroke-linecap="round" stroke-linejoin="round"/>
<path d="M26.4676 6.69164C28.5108 9.1268 28.5108 12.8732 26.4676 15.3084C23.5487 18.781 19.2724 21 14.5 21C9.72757 21 5.46594 18.7954 2.53243 15.3084C0.48919 12.8732 0.48919 9.1268 2.53243 6.69164C5.45135 3.21902 9.72757 1 14.5 1C19.2724 1 23.5341 3.20461 26.4676 6.69164Z" stroke="#535559" stroke-width="1.5" stroke-linecap="round" stroke-linejoin="round"/>
<path d="M14.499 15.4386C16.9816 15.4386 18.9941 13.4516 18.9941 11.0005C18.9941 8.54948 16.9816 6.5625 14.499 6.5625C12.0164 6.5625 10.0039 8.54948 10.0039 11.0005C10.0039 13.4516 12.0164 15.4386 14.499 15.4386Z" stroke="#535559" stroke-width="1.5" stroke-linecap="round" stroke-linejoin="round"/>
</svg>
