<svg width="28" height="28" viewBox="0 0 28 28" fill="none" xmlns="http://www.w3.org/2000/svg">
<g clip-path="url(#clip0_300_6090)">
<path d="M15.4262 25.1882V25.5373L15.7714 25.4847C21.3647 24.6335 25.633 19.8366 25.633 13.9987C25.633 7.55701 20.4414 2.36536 13.9997 2.36536C7.55798 2.36536 2.36634 7.55701 2.36634 13.9987C2.36634 19.7723 6.54094 24.5285 12.0434 25.4563L12.3933 25.5153V25.1605V17.3771V17.0771H12.0933H9.23897V14.3264H12.0933H12.3933V14.0264V11.7962C12.3933 9.99468 12.8321 8.75418 13.5924 7.96345C14.3505 7.17484 15.4765 6.78372 16.9603 6.78372C18.1276 6.78372 18.8498 6.85265 19.275 6.90484V9.26608H17.4832C16.7141 9.26608 16.1803 9.64162 15.8556 10.2092C15.5423 10.7569 15.4262 11.4741 15.4262 12.1947V14.0264V14.3264H15.7262H19.1919L18.7672 17.0771H15.7262H15.4262V17.3771V25.1882ZM0.133008 13.9987C0.133008 6.35713 6.35811 0.132031 13.9997 0.132031C21.6412 0.132031 27.8663 6.35713 27.8663 13.9987C27.8663 21.6403 21.6412 27.8654 13.9997 27.8654C6.35811 27.8654 0.133008 21.6403 0.133008 13.9987Z" fill="#535559" stroke="black" stroke-width="0.6"/>
</g>
<defs>
<clipPath id="clip0_300_6090">
<rect width="28" height="28" fill="white"/>
</clipPath>
</defs>
</svg>
