<svg width="501" height="42" viewBox="0 0 501 42" fill="none" xmlns="http://www.w3.org/2000/svg">
<path d="M95.3793 32.5794C95.3793 31.9481 95.5403 31.3666 95.8621 30.8349C96.1897 30.3032 96.6293 29.8823 97.181 29.5722C97.7327 29.262 98.339 29.107 99 29.107C99.5632 29.107 100.092 29.226 100.586 29.4642C101.08 29.6968 101.488 30.0235 101.81 30.4444C102.132 30.8598 102.333 31.3223 102.414 31.8318H100.914C100.862 31.5715 100.741 31.3389 100.552 31.134C100.368 30.929 100.138 30.7684 99.862 30.6521C99.5919 30.5303 99.3045 30.4694 99 30.4694C98.6034 30.4694 98.2356 30.5663 97.8965 30.7601C97.5632 30.9484 97.2988 31.2032 97.1034 31.5244C96.908 31.8456 96.8103 32.1973 96.8103 32.5794C96.8103 32.9616 96.908 33.3133 97.1034 33.6345C97.2988 33.9557 97.5632 34.2132 97.8965 34.4071C98.2356 34.5954 98.6034 34.6895 99 34.6895C99.454 34.684 99.8448 34.5566 100.172 34.3074C100.506 34.0526 100.713 33.7259 100.793 33.3271H102.276C102.201 33.8422 102.011 34.3074 101.707 34.7227C101.408 35.1381 101.023 35.4649 100.552 35.703C100.08 35.9356 99.5632 36.0519 99 36.0519C98.339 36.0519 97.7327 35.8969 97.181 35.5867C96.6293 35.2766 96.1897 34.8557 95.8621 34.324C95.5403 33.7923 95.3793 33.2108 95.3793 32.5794ZM92.5001 32.5794C92.5001 31.4552 92.7903 30.4195 93.3708 29.4725C93.9512 28.5199 94.7328 27.7667 95.7155 27.2129C96.6983 26.6591 97.7701 26.3821 98.931 26.3821C100.098 26.3821 101.172 26.6591 102.155 27.2129C103.144 27.7667 103.925 28.5199 104.5 29.4725C105.075 30.4195 105.362 31.4552 105.362 32.5794C105.368 33.6982 105.083 34.7338 104.508 35.6864C103.934 36.6334 103.152 37.3866 102.164 37.946C101.175 38.4998 100.098 38.7767 98.931 38.7767C97.7701 38.7767 96.6954 38.4998 95.7069 37.946C94.7242 37.3866 93.9426 36.6334 93.3621 35.6864C92.7817 34.7338 92.4943 33.6982 92.5001 32.5794ZM93.9311 32.5961C93.9311 33.46 94.1552 34.2603 94.6035 34.9969C95.0575 35.7335 95.6667 36.3178 96.431 36.7497C97.1954 37.1817 98.0287 37.3977 98.931 37.3977C99.839 37.3977 100.675 37.1817 101.44 36.7497C102.21 36.3122 102.816 35.7252 103.258 34.9886C103.707 34.252 103.931 33.4489 103.931 32.5794C103.931 31.7044 103.704 30.8986 103.25 30.162C102.802 29.4254 102.195 28.8411 101.431 28.4091C100.667 27.9772 99.8333 27.7612 98.931 27.7612C98.0287 27.7612 97.1925 27.9799 96.4224 28.4174C95.6581 28.855 95.0518 29.4448 94.6035 30.1869C94.1552 30.9235 93.9311 31.7265 93.9311 32.5961Z" fill="white"/>
<path d="M111.138 37.4974L115.397 33.1776C115.954 32.6016 116.38 32.1391 116.673 31.7902C116.972 31.4358 117.199 31.0952 117.354 30.7684C117.509 30.4417 117.586 30.0983 117.586 29.7383C117.586 29.334 117.477 28.9796 117.259 28.675C117.041 28.3648 116.742 28.1239 116.362 27.9522C115.989 27.7805 115.569 27.6947 115.104 27.6947C114.615 27.6947 114.187 27.7916 113.819 27.9855C113.452 28.1738 113.167 28.4368 112.966 28.7747C112.77 29.1125 112.673 29.5057 112.673 29.9543H111.207C111.202 29.2565 111.368 28.639 111.707 28.1018C112.052 27.5646 112.526 27.1464 113.13 26.8474C113.733 26.5483 114.408 26.3988 115.155 26.3988C115.897 26.3988 116.561 26.5455 117.147 26.839C117.739 27.1326 118.201 27.5341 118.535 28.0436C118.868 28.5531 119.035 29.118 119.035 29.7383C119.029 30.198 118.94 30.6383 118.767 31.0592C118.601 31.4746 118.313 31.937 117.905 32.4465C117.497 32.956 116.92 33.5819 116.173 34.324L113.311 37.1651V37.2648H119.259V38.594H111.156L111.138 37.4974Z" fill="white"/>
<path d="M125.25 38.7601C124.331 38.7601 123.544 38.5192 122.888 38.0374C122.239 37.5556 121.742 36.8522 121.397 35.9273C121.058 35.0024 120.888 33.8865 120.888 32.5794C120.888 31.289 121.058 30.1814 121.397 29.2565C121.742 28.3261 122.242 27.6172 122.897 27.1298C123.552 26.6424 124.337 26.3988 125.25 26.3988C126.158 26.3988 126.94 26.6424 127.595 27.1298C128.25 27.6172 128.75 28.3261 129.095 29.2565C129.44 30.1814 129.612 31.289 129.612 32.5794C129.612 33.8865 129.44 35.0024 129.095 35.9273C128.756 36.8522 128.259 37.5556 127.604 38.0374C126.954 38.5192 126.17 38.7601 125.25 38.7601ZM122.388 32.5794C122.388 33.6096 122.501 34.4874 122.725 35.2129C122.955 35.9384 123.282 36.4894 123.707 36.866C124.133 37.2426 124.647 37.4309 125.25 37.4309C125.848 37.4309 126.36 37.2426 126.785 36.866C127.216 36.4894 127.541 35.9384 127.759 35.2129C127.983 34.4874 128.095 33.6096 128.095 32.5794C128.095 31.5493 127.983 30.6687 127.759 29.9377C127.535 29.2066 127.21 28.6501 126.785 28.2679C126.36 27.8858 125.848 27.6947 125.25 27.6947C124.653 27.6947 124.141 27.8858 123.716 28.2679C123.291 28.6501 122.963 29.2066 122.733 29.9377C122.503 30.6687 122.388 31.5493 122.388 32.5794Z" fill="white"/>
<path d="M131.311 37.4974L135.57 33.1776C136.127 32.6016 136.552 32.1391 136.845 31.7902C137.144 31.4358 137.371 31.0952 137.526 30.7684C137.682 30.4417 137.759 30.0983 137.759 29.7383C137.759 29.334 137.65 28.9796 137.432 28.675C137.213 28.3648 136.914 28.1239 136.535 27.9522C136.162 27.7805 135.742 27.6947 135.276 27.6947C134.788 27.6947 134.36 27.7916 133.992 27.9855C133.624 28.1738 133.34 28.4368 133.139 28.7747C132.943 29.1125 132.845 29.5057 132.845 29.9543H131.38C131.374 29.2565 131.541 28.639 131.88 28.1018C132.225 27.5646 132.699 27.1464 133.302 26.8474C133.906 26.5483 134.581 26.3988 135.328 26.3988C136.07 26.3988 136.733 26.5455 137.32 26.839C137.911 27.1326 138.374 27.5341 138.707 28.0436C139.041 28.5531 139.207 29.118 139.207 29.7383C139.202 30.198 139.113 30.6383 138.94 31.0592C138.774 31.4746 138.486 31.937 138.078 32.4465C137.67 32.956 137.093 33.5819 136.345 34.324L133.483 37.1651V37.2648H139.432V38.594H131.328L131.311 37.4974Z" fill="white"/>
<path d="M141.32 37.4974L145.578 33.1776C146.136 32.6016 146.561 32.1391 146.854 31.7902C147.153 31.4358 147.38 31.0952 147.535 30.7684C147.69 30.4417 147.768 30.0983 147.768 29.7383C147.768 29.334 147.659 28.9796 147.44 28.675C147.222 28.3648 146.923 28.1239 146.544 27.9522C146.17 27.7805 145.751 27.6947 145.285 27.6947C144.797 27.6947 144.369 27.7916 144.001 27.9855C143.633 28.1738 143.348 28.4368 143.147 28.7747C142.952 29.1125 142.854 29.5057 142.854 29.9543H141.389C141.383 29.2565 141.55 28.639 141.889 28.1018C142.234 27.5646 142.708 27.1464 143.311 26.8474C143.915 26.5483 144.59 26.3988 145.337 26.3988C146.078 26.3988 146.742 26.5455 147.328 26.839C147.92 27.1326 148.383 27.5341 148.716 28.0436C149.05 28.5531 149.216 29.118 149.216 29.7383C149.21 30.198 149.121 30.6383 148.949 31.0592C148.782 31.4746 148.495 31.937 148.087 32.4465C147.679 32.956 147.101 33.5819 146.354 34.324L143.492 37.1651V37.2648H149.44V38.594H141.337L141.32 37.4974Z" fill="white"/>
<path d="M151.966 42H150.691L151.639 37.4808H153.311L151.966 42Z" fill="white"/>
<path d="M159.105 26.5649H168.519V27.8941H164.605V38.594H163.036V27.8941H159.105V26.5649Z" fill="white"/>
<path d="M169.062 29.5722H170.493V30.9512H170.596C170.763 30.4971 171.068 30.1315 171.51 29.8546C171.959 29.5722 172.459 29.4282 173.01 29.4226C173.091 29.4226 173.154 29.4254 173.2 29.4309C173.269 29.4309 173.369 29.4337 173.502 29.4393C173.634 29.4448 173.729 29.4503 173.786 29.4559V30.9014C173.487 30.8349 173.188 30.8017 172.89 30.8017C172.447 30.8017 172.048 30.893 171.691 31.0758C171.335 31.2586 171.053 31.5106 170.846 31.8318C170.645 32.153 170.545 32.513 170.545 32.9117V38.594H169.062V29.5722Z" fill="white"/>
<path d="M174.416 36.0353C174.416 35.1049 174.746 34.4486 175.407 34.0665C176.074 33.6788 176.916 33.4489 177.933 33.3769C178.329 33.3493 178.801 33.3216 179.347 33.2939C179.893 33.2662 180.266 33.2496 180.467 33.244V32.513C180.467 31.9315 180.286 31.4856 179.924 31.1755C179.568 30.8598 179.042 30.702 178.347 30.702C177.778 30.702 177.312 30.8155 176.95 31.0426C176.588 31.2641 176.352 31.5549 176.243 31.9148H174.692C174.755 31.433 174.95 31.0066 175.278 30.6355C175.605 30.2645 176.039 29.9765 176.579 29.7715C177.125 29.5611 177.737 29.4559 178.416 29.4559C179.318 29.4559 180.131 29.6774 180.855 30.1205C181.579 30.558 181.939 31.3998 181.933 32.6459V38.594H180.467V37.3645H180.398C180.209 37.7411 179.878 38.0762 179.407 38.3697C178.941 38.6577 178.341 38.8044 177.605 38.81C177.008 38.8044 176.467 38.6937 175.985 38.4777C175.502 38.2561 175.12 37.9377 174.838 37.5223C174.557 37.1014 174.416 36.6057 174.416 36.0353ZM175.898 36.1018C175.904 36.567 176.085 36.9214 176.442 37.1651C176.804 37.4088 177.283 37.5306 177.881 37.5306C178.416 37.5306 178.878 37.4282 179.269 37.2233C179.66 37.0183 179.956 36.747 180.157 36.4091C180.364 36.0713 180.467 35.7085 180.467 35.3209V34.4154C180.335 34.4209 179.956 34.4458 179.329 34.4901L178.105 34.5732C177.404 34.6175 176.861 34.7643 176.476 35.0135C176.097 35.2627 175.904 35.6255 175.898 36.1018Z" fill="white"/>
<path d="M187.786 38.7767C186.919 38.7767 186.16 38.5801 185.511 38.1869C184.867 37.7937 184.373 37.2454 184.028 36.5421C183.683 35.8332 183.511 35.0273 183.511 34.1246C183.511 33.2163 183.686 32.4105 184.037 31.7072C184.393 30.9983 184.893 30.4472 185.537 30.054C186.18 29.6552 186.919 29.4559 187.752 29.4559C188.407 29.4559 189.002 29.5749 189.536 29.8131C190.077 30.0457 190.516 30.378 190.855 30.81C191.194 31.242 191.401 31.7376 191.476 32.297H189.993C189.878 31.8484 189.628 31.4746 189.243 31.1755C188.864 30.8709 188.378 30.7186 187.786 30.7186C187.235 30.7186 186.746 30.857 186.321 31.134C185.901 31.4109 185.574 31.8041 185.338 32.3136C185.108 32.8176 184.993 33.4046 184.993 34.0748C184.993 34.7615 185.108 35.3652 185.338 35.8858C185.568 36.4008 185.893 36.7996 186.312 37.082C186.732 37.3589 187.223 37.4974 187.786 37.4974C188.344 37.4974 188.818 37.3617 189.209 37.0903C189.605 36.8134 189.867 36.4285 189.993 35.9356H191.476C191.396 36.4784 191.194 36.9657 190.873 37.3977C190.551 37.8297 190.123 38.1675 189.588 38.4112C189.059 38.6549 188.459 38.7767 187.786 38.7767Z" fill="white"/>
<path d="M192.951 26.5649H194.433V33.5597H194.606L198.657 29.5722H200.485L196.537 33.4351L200.778 38.594H198.899L195.425 34.3406L194.433 35.2295V38.594H192.951V26.5649Z" fill="white"/>
<path d="M205.149 38.7767C204.304 38.7767 203.557 38.5857 202.908 38.2035C202.264 37.8159 201.764 37.2703 201.408 36.567C201.051 35.8636 200.873 35.0495 200.873 34.1246C200.873 33.1942 201.051 32.3773 201.408 31.6739C201.764 30.9706 202.264 30.4251 202.908 30.0374C203.557 29.6497 204.304 29.4559 205.149 29.4559C205.988 29.4559 206.729 29.6497 207.373 30.0374C208.017 30.4251 208.514 30.9706 208.864 31.6739C209.215 32.3773 209.39 33.1942 209.39 34.1246C209.39 35.0495 209.215 35.8636 208.864 36.567C208.514 37.2703 208.017 37.8159 207.373 38.2035C206.729 38.5857 205.988 38.7767 205.149 38.7767ZM202.356 34.1246C202.362 34.7449 202.465 35.3126 202.666 35.8276C202.873 36.3427 203.186 36.7525 203.606 37.0571C204.025 37.3617 204.54 37.514 205.149 37.514C205.752 37.514 206.261 37.3617 206.675 37.0571C207.089 36.7525 207.396 36.3427 207.597 35.8276C207.804 35.3126 207.907 34.7449 207.907 34.1246C207.907 33.5043 207.804 32.9367 207.597 32.4216C207.396 31.9065 207.089 31.4939 206.675 31.1838C206.261 30.8737 205.752 30.7186 205.149 30.7186C204.54 30.7186 204.025 30.8737 203.606 31.1838C203.186 31.4939 202.873 31.9065 202.666 32.4216C202.465 32.9367 202.362 33.5043 202.356 34.1246Z" fill="white"/>
<path d="M212.468 38.594H210.985V29.5722H212.416V30.9844H212.537C212.767 30.5026 213.109 30.1288 213.563 29.8629C214.023 29.5916 214.594 29.4559 215.278 29.4559C215.922 29.4559 216.479 29.5832 216.951 29.838C217.422 30.0872 217.787 30.4666 218.046 30.9761C218.304 31.4856 218.433 32.1142 218.433 32.8619V38.594H216.951V32.9616C216.951 32.2638 216.764 31.7182 216.39 31.325C216.017 30.9318 215.497 30.7352 214.83 30.7352C214.37 30.7352 213.962 30.8321 213.606 31.026C213.25 31.2143 212.971 31.4939 212.77 31.865C212.569 32.2305 212.468 32.6681 212.468 33.1776V38.594Z" fill="white"/>
<path d="M224.391 38.7767C223.5 38.7767 222.724 38.5857 222.063 38.2035C221.402 37.8214 220.894 37.2814 220.537 36.5836C220.187 35.8858 220.011 35.0772 220.011 34.1578C220.011 33.2385 220.187 32.4244 220.537 31.7155C220.894 31.001 221.391 30.4472 222.029 30.054C222.672 29.6552 223.414 29.4559 224.253 29.4559C224.96 29.4559 225.618 29.6082 226.227 29.9128C226.836 30.2118 227.33 30.6992 227.709 31.3749C228.095 32.045 228.287 32.9062 228.287 33.9585V34.5566H221.494C221.517 35.1824 221.652 35.7169 221.899 36.1599C222.152 36.603 222.491 36.9408 222.916 37.1734C223.342 37.4005 223.833 37.514 224.391 37.514C224.919 37.514 225.365 37.4199 225.727 37.2316C226.095 37.0377 226.373 36.7885 226.563 36.4839H228.149C228 36.9436 227.75 37.3479 227.399 37.6968C227.054 38.0402 226.623 38.306 226.106 38.4943C225.595 38.6826 225.023 38.7767 224.391 38.7767ZM226.787 33.3437C226.787 32.8453 226.681 32.3967 226.468 31.9979C226.261 31.5992 225.965 31.2863 225.58 31.0592C225.201 30.8321 224.758 30.7186 224.253 30.7186C223.73 30.7186 223.264 30.8377 222.856 31.0758C222.454 31.3139 222.135 31.6352 221.899 32.0395C221.669 32.4382 221.537 32.873 221.503 33.3437H226.787Z" fill="white"/>
<path d="M230.917 38.6937C230.715 38.6937 230.529 38.6438 230.356 38.5441C230.19 38.4444 230.055 38.3143 229.951 38.1537C229.853 37.9875 229.807 37.8075 229.813 37.6137C229.807 37.4254 229.853 37.251 229.951 37.0903C230.055 36.9242 230.19 36.794 230.356 36.6999C230.529 36.6002 230.715 36.5504 230.917 36.5504C231.112 36.5504 231.293 36.5974 231.46 36.6916C231.632 36.7857 231.767 36.9131 231.865 37.0737C231.968 37.2343 232.02 37.4088 232.02 37.5971C232.02 37.8962 231.914 38.1537 231.701 38.3697C231.488 38.5801 231.227 38.6881 230.917 38.6937Z" fill="white"/>
<path d="M237.822 38.7767C236.954 38.7767 236.196 38.5801 235.546 38.1869C234.903 37.7937 234.408 37.2454 234.063 36.5421C233.719 35.8332 233.546 35.0273 233.546 34.1246C233.546 33.2163 233.722 32.4105 234.072 31.7072C234.428 30.9983 234.928 30.4472 235.572 30.054C236.216 29.6552 236.954 29.4559 237.788 29.4559C238.443 29.4559 239.038 29.5749 239.572 29.8131C240.112 30.0457 240.552 30.378 240.891 30.81C241.23 31.242 241.437 31.7376 241.512 32.297H240.029C239.914 31.8484 239.664 31.4746 239.279 31.1755C238.9 30.8709 238.414 30.7186 237.822 30.7186C237.27 30.7186 236.782 30.857 236.357 31.134C235.937 31.4109 235.609 31.8041 235.374 32.3136C235.144 32.8176 235.029 33.4046 235.029 34.0748C235.029 34.7615 235.144 35.3652 235.374 35.8858C235.604 36.4008 235.928 36.7996 236.348 37.082C236.767 37.3589 237.259 37.4974 237.822 37.4974C238.379 37.4974 238.854 37.3617 239.244 37.0903C239.641 36.8134 239.902 36.4285 240.029 35.9356H241.512C241.431 36.4784 241.23 36.9657 240.908 37.3977C240.586 37.8297 240.158 38.1675 239.624 38.4112C239.095 38.6549 238.494 38.7767 237.822 38.7767Z" fill="white"/>
<path d="M246.814 38.7767C245.969 38.7767 245.222 38.5857 244.572 38.2035C243.929 37.8159 243.429 37.2703 243.072 36.567C242.716 35.8636 242.538 35.0495 242.538 34.1246C242.538 33.1942 242.716 32.3773 243.072 31.6739C243.429 30.9706 243.929 30.4251 244.572 30.0374C245.222 29.6497 245.969 29.4559 246.814 29.4559C247.653 29.4559 248.394 29.6497 249.038 30.0374C249.681 30.4251 250.178 30.9706 250.529 31.6739C250.88 32.3773 251.055 33.1942 251.055 34.1246C251.055 35.0495 250.88 35.8636 250.529 36.567C250.178 37.2703 249.681 37.8159 249.038 38.2035C248.394 38.5857 247.653 38.7767 246.814 38.7767ZM244.021 34.1246C244.026 34.7449 244.13 35.3126 244.331 35.8276C244.538 36.3427 244.851 36.7525 245.27 37.0571C245.69 37.3617 246.204 37.514 246.814 37.514C247.417 37.514 247.926 37.3617 248.339 37.0571C248.753 36.7525 249.061 36.3427 249.262 35.8276C249.469 35.3126 249.572 34.7449 249.572 34.1246C249.572 33.5043 249.469 32.9367 249.262 32.4216C249.061 31.9065 248.753 31.4939 248.339 31.1838C247.926 30.8737 247.417 30.7186 246.814 30.7186C246.204 30.7186 245.69 30.8737 245.27 31.1838C244.851 31.4939 244.538 31.9065 244.331 32.4216C244.13 32.9367 244.026 33.5043 244.021 34.1246Z" fill="white"/>
<path d="M252.65 29.5722H254.081V30.9844H254.202C254.397 30.5026 254.713 30.1288 255.15 29.8629C255.587 29.5916 256.11 29.4559 256.719 29.4559C257.322 29.4559 257.834 29.5888 258.253 29.8546C258.673 30.1149 258.995 30.4915 259.219 30.9844H259.322C259.564 30.5081 259.926 30.1343 260.408 29.8629C260.897 29.5916 261.472 29.4559 262.133 29.4559C262.702 29.4559 263.199 29.5694 263.624 29.7965C264.055 30.0235 264.391 30.3697 264.633 30.8349C264.874 31.3001 264.995 31.8761 264.995 32.5628V38.594H263.512V32.5794C263.506 31.9536 263.328 31.4912 262.977 31.1921C262.627 30.8875 262.173 30.7352 261.615 30.7352C261.19 30.7352 260.822 30.821 260.512 30.9927C260.207 31.1644 259.975 31.3998 259.814 31.6989C259.653 31.9979 259.569 32.3413 259.564 32.729V38.594H258.064V32.4299C258.064 32.0976 257.986 31.8041 257.831 31.5493C257.682 31.289 257.466 31.0897 257.184 30.9512C256.909 30.8072 256.592 30.7352 256.236 30.7352C255.863 30.7352 255.515 30.8321 255.193 31.026C254.871 31.2143 254.613 31.4773 254.417 31.8152C254.228 32.153 254.133 32.5351 254.133 32.9616V38.594H252.65V29.5722Z" fill="white"/>
<path d="M267.624 42H266.348L267.297 37.4808H268.969L267.624 42Z" fill="white"/>
<path d="M277.004 38.594H275.452V26.5649H277.004V38.594Z" fill="white"/>
<path d="M280.703 38.594H279.22V29.5722H280.651V30.9844H280.772C281.001 30.5026 281.343 30.1288 281.797 29.8629C282.257 29.5916 282.829 29.4559 283.513 29.4559C284.157 29.4559 284.714 29.5832 285.185 29.838C285.656 30.0872 286.021 30.4666 286.28 30.9761C286.539 31.4856 286.668 32.1142 286.668 32.8619V38.594H285.185V32.9616C285.185 32.2638 284.998 31.7182 284.625 31.325C284.251 30.9318 283.731 30.7352 283.065 30.7352C282.605 30.7352 282.197 30.8321 281.84 31.026C281.484 31.2143 281.205 31.4939 281.004 31.865C280.803 32.2305 280.703 32.6681 280.703 33.1776V38.594Z" fill="white"/>
<path d="M292.522 38.7767C291.654 38.7767 290.895 38.5801 290.246 38.1869C289.602 37.7937 289.108 37.2454 288.763 36.5421C288.418 35.8332 288.246 35.0273 288.246 34.1246C288.246 33.2163 288.421 32.4105 288.772 31.7072C289.128 30.9983 289.628 30.4472 290.272 30.054C290.915 29.6552 291.654 29.4559 292.487 29.4559C293.142 29.4559 293.737 29.5749 294.272 29.8131C294.812 30.0457 295.251 30.378 295.591 30.81C295.93 31.242 296.136 31.7376 296.211 32.297H294.728C294.614 31.8484 294.364 31.4746 293.978 31.1755C293.599 30.8709 293.114 30.7186 292.522 30.7186C291.97 30.7186 291.481 30.857 291.056 31.134C290.637 31.4109 290.309 31.8041 290.073 32.3136C289.844 32.8176 289.729 33.4046 289.729 34.0748C289.729 34.7615 289.844 35.3652 290.073 35.8858C290.303 36.4008 290.628 36.7996 291.048 37.082C291.467 37.3589 291.958 37.4974 292.522 37.4974C293.079 37.4974 293.553 37.3617 293.944 37.0903C294.341 36.8134 294.602 36.4285 294.728 35.9356H296.211C296.131 36.4784 295.93 36.9657 295.608 37.3977C295.286 37.8297 294.858 38.1675 294.323 38.4112C293.795 38.6549 293.194 38.7767 292.522 38.7767Z" fill="white"/>
<path d="M298.737 38.6937C298.536 38.6937 298.349 38.6438 298.177 38.5441C298.01 38.4444 297.875 38.3143 297.772 38.1537C297.674 37.9875 297.628 37.8075 297.634 37.6137C297.628 37.4254 297.674 37.251 297.772 37.0903C297.875 36.9242 298.01 36.794 298.177 36.6999C298.349 36.6002 298.536 36.5504 298.737 36.5504C298.933 36.5504 299.114 36.5974 299.28 36.6916C299.453 36.7857 299.588 36.9131 299.686 37.0737C299.789 37.2343 299.841 37.4088 299.841 37.5971C299.841 37.8962 299.734 38.1537 299.522 38.3697C299.309 38.5801 299.048 38.6881 298.737 38.6937Z" fill="white"/>
<path d="M309.686 38.7767C308.841 38.7767 308.094 38.5857 307.445 38.2035C306.801 37.8159 306.301 37.2703 305.945 36.567C305.588 35.8636 305.41 35.0495 305.41 34.1246C305.41 33.1942 305.588 32.3773 305.945 31.6739C306.301 30.9706 306.801 30.4251 307.445 30.0374C308.094 29.6497 308.841 29.4559 309.686 29.4559C310.525 29.4559 311.267 29.6497 311.91 30.0374C312.554 30.4251 313.051 30.9706 313.402 31.6739C313.752 32.3773 313.927 33.1942 313.927 34.1246C313.927 35.0495 313.752 35.8636 313.402 36.567C313.051 37.2703 312.554 37.8159 311.91 38.2035C311.267 38.5857 310.525 38.7767 309.686 38.7767ZM306.893 34.1246C306.899 34.7449 307.002 35.3126 307.203 35.8276C307.41 36.3427 307.724 36.7525 308.143 37.0571C308.563 37.3617 309.077 37.514 309.686 37.514C310.29 37.514 310.798 37.3617 311.212 37.0571C311.626 36.7525 311.933 36.3427 312.134 35.8276C312.341 35.3126 312.445 34.7449 312.445 34.1246C312.445 33.5043 312.341 32.9367 312.134 32.4216C311.933 31.9065 311.626 31.4939 311.212 31.1838C310.798 30.8737 310.29 30.7186 309.686 30.7186C309.077 30.7186 308.563 30.8737 308.143 31.1838C307.724 31.4939 307.41 31.9065 307.203 32.4216C307.002 32.9367 306.899 33.5043 306.893 34.1246Z" fill="white"/>
<path d="M315.523 29.5722H316.954V30.9512H317.057C317.224 30.4971 317.528 30.1315 317.971 29.8546C318.419 29.5722 318.919 29.4282 319.471 29.4226C319.551 29.4226 319.614 29.4254 319.66 29.4309C319.729 29.4309 319.83 29.4337 319.962 29.4393C320.094 29.4448 320.189 29.4503 320.247 29.4559V30.9014C319.948 30.8349 319.649 30.8017 319.35 30.8017C318.908 30.8017 318.508 30.893 318.152 31.0758C317.795 31.2586 317.514 31.5106 317.307 31.8318C317.106 32.153 317.005 32.513 317.005 32.9117V38.594H315.523V29.5722Z" fill="white"/>
<path d="M325.42 29.5722H326.902V38.594H325.42V29.5722ZM326.161 28.0768C325.879 28.0768 325.635 27.9855 325.428 27.8027C325.227 27.6199 325.126 27.4012 325.126 27.1464C325.126 26.8806 325.224 26.6535 325.42 26.4652C325.621 26.2769 325.862 26.1828 326.144 26.1828C326.437 26.1828 326.687 26.2741 326.894 26.4569C327.101 26.6397 327.207 26.864 327.213 27.1298C327.207 27.3901 327.101 27.6144 326.894 27.8027C326.693 27.9855 326.448 28.0768 326.161 28.0768Z" fill="white"/>
<path d="M332.997 30.7684H331.032V36.0021C331.026 36.5282 331.132 36.8854 331.351 37.0737C331.575 37.2565 331.877 37.3479 332.256 37.3479C332.48 37.3479 332.696 37.3396 332.903 37.3229L333.135 37.3146V38.6438C332.825 38.6881 332.48 38.7103 332.101 38.7103C331.664 38.7103 331.25 38.6244 330.859 38.4528C330.469 38.2755 330.15 38.0097 329.903 37.6552C329.655 37.3008 329.532 36.8716 329.532 36.3676V30.7684H328.118V29.5722H329.532V27.4123H331.032V29.5722H332.997V30.7684Z" fill="white"/>
<path d="M339.592 31.9148C339.483 31.5272 339.271 31.2253 338.955 31.0093C338.644 30.7878 338.225 30.6743 337.696 30.6687C337.317 30.6687 336.978 30.7297 336.679 30.8515C336.38 30.9733 336.144 31.1395 335.972 31.3499C335.799 31.5549 335.713 31.7819 335.713 32.0312C335.719 32.3302 335.851 32.585 336.11 32.7954C336.368 33.0003 336.771 33.1665 337.317 33.2939L338.713 33.6262C339.546 33.8145 340.17 34.1135 340.584 34.5234C340.998 34.9277 341.207 35.4427 341.213 36.0685C341.207 36.5947 341.061 37.0627 340.773 37.4725C340.486 37.8823 340.067 38.2035 339.515 38.4361C338.963 38.6632 338.305 38.7767 337.541 38.7767C336.495 38.7823 335.664 38.5663 335.049 38.1288C334.434 37.6912 334.064 37.0599 333.937 36.2347H335.489C335.661 37.0986 336.322 37.5306 337.472 37.5306C338.156 37.5306 338.693 37.4088 339.084 37.1651C339.48 36.9159 339.679 36.5781 339.679 36.1516C339.679 35.8304 339.555 35.5646 339.308 35.3541C339.061 35.1436 338.673 34.9775 338.144 34.8557L336.73 34.54C335.92 34.3572 335.299 34.0582 334.868 33.6428C334.443 33.2274 334.23 32.7179 334.23 32.1142C334.23 31.6047 334.374 31.1478 334.661 30.7435C334.955 30.3392 335.363 30.0235 335.886 29.7965C336.414 29.5694 337.018 29.4559 337.696 29.4559C338.328 29.4559 338.886 29.5583 339.368 29.7632C339.851 29.9682 340.233 30.2561 340.515 30.6272C340.802 30.9983 340.977 31.4275 341.041 31.9148H339.592Z" fill="white"/>
<path d="M346.421 36.0353C346.421 35.1049 346.751 34.4486 347.412 34.0665C348.079 33.6788 348.921 33.4489 349.938 33.3769C350.334 33.3493 350.806 33.3216 351.352 33.2939C351.897 33.2662 352.271 33.2496 352.472 33.244V32.513C352.472 31.9315 352.291 31.4856 351.929 31.1755C351.573 30.8598 351.047 30.702 350.352 30.702C349.783 30.702 349.317 30.8155 348.955 31.0426C348.593 31.2641 348.357 31.5549 348.248 31.9148H346.696C346.76 31.433 346.955 31.0066 347.283 30.6355C347.61 30.2645 348.044 29.9765 348.584 29.7715C349.13 29.5611 349.742 29.4559 350.42 29.4559C351.323 29.4559 352.136 29.6774 352.86 30.1205C353.584 30.558 353.943 31.3998 353.938 32.6459V38.594H352.472V37.3645H352.403C352.214 37.7411 351.883 38.0762 351.412 38.3697C350.946 38.6577 350.346 38.8044 349.61 38.81C349.012 38.8044 348.472 38.6937 347.989 38.4777C347.507 38.2561 347.125 37.9377 346.843 37.5223C346.561 37.1014 346.421 36.6057 346.421 36.0353ZM347.903 36.1018C347.909 36.567 348.09 36.9214 348.446 37.1651C348.808 37.4088 349.288 37.5306 349.886 37.5306C350.42 37.5306 350.883 37.4282 351.274 37.2233C351.665 37.0183 351.961 36.747 352.162 36.4091C352.369 36.0713 352.472 35.7085 352.472 35.3209V34.4154C352.34 34.4209 351.961 34.4458 351.334 34.4901L350.11 34.5732C349.409 34.6175 348.866 34.7643 348.481 35.0135C348.102 35.2627 347.909 35.6255 347.903 36.1018Z" fill="white"/>
<path d="M360.153 30.7684H358.084V38.594H356.585V30.7684H355.085V29.5722H356.585V28.3427C356.585 27.8609 356.691 27.4455 356.903 27.0966C357.122 26.7421 357.432 26.4708 357.834 26.2825C358.237 26.0942 358.711 26 359.257 26C359.636 26 360.004 26.0332 360.36 26.0997V27.379C360.079 27.3347 359.82 27.3126 359.584 27.3126C359.061 27.3126 358.679 27.4206 358.438 27.6366C358.197 27.8525 358.079 28.1931 358.084 28.6584V29.5722H360.153V30.7684Z" fill="white"/>
<path d="M365.748 30.7684H363.68V38.594H362.18V30.7684H360.68V29.5722H362.18V28.3427C362.18 27.8609 362.286 27.4455 362.499 27.0966C362.717 26.7421 363.027 26.4708 363.43 26.2825C363.832 26.0942 364.306 26 364.852 26C365.231 26 365.599 26.0332 365.955 26.0997V27.379C365.674 27.3347 365.415 27.3126 365.18 27.3126C364.657 27.3126 364.274 27.4206 364.033 27.6366C363.792 27.8525 363.674 28.1931 363.68 28.6584V29.5722H365.748V30.7684Z" fill="white"/>
<path d="M367.154 29.5722H368.637V38.594H367.154V29.5722ZM367.895 28.0768C367.614 28.0768 367.369 27.9855 367.163 27.8027C366.961 27.6199 366.861 27.4012 366.861 27.1464C366.861 26.8806 366.959 26.6535 367.154 26.4652C367.355 26.2769 367.596 26.1828 367.878 26.1828C368.171 26.1828 368.421 26.2741 368.628 26.4569C368.835 26.6397 368.941 26.864 368.947 27.1298C368.941 27.3901 368.835 27.6144 368.628 27.8027C368.427 27.9855 368.183 28.0768 367.895 28.0768Z" fill="white"/>
<path d="M372.128 38.594H370.646V26.5649H372.128V38.594Z" fill="white"/>
<path d="M374.137 29.5722H375.62V38.594H374.137V29.5722ZM374.879 28.0768C374.597 28.0768 374.353 27.9855 374.146 27.8027C373.945 27.6199 373.844 27.4012 373.844 27.1464C373.844 26.8806 373.942 26.6535 374.137 26.4652C374.338 26.2769 374.58 26.1828 374.861 26.1828C375.154 26.1828 375.404 26.2741 375.611 26.4569C375.818 26.6397 375.925 26.864 375.93 27.1298C375.925 27.3901 375.818 27.6144 375.611 27.8027C375.41 27.9855 375.166 28.0768 374.879 28.0768Z" fill="white"/>
<path d="M377.181 36.0353C377.181 35.1049 377.511 34.4486 378.172 34.0665C378.839 33.6788 379.681 33.4489 380.698 33.3769C381.094 33.3493 381.566 33.3216 382.112 33.2939C382.658 33.2662 383.031 33.2496 383.232 33.244V32.513C383.232 31.9315 383.051 31.4856 382.689 31.1755C382.333 30.8598 381.807 30.702 381.112 30.702C380.543 30.702 380.077 30.8155 379.715 31.0426C379.353 31.2641 379.117 31.5549 379.008 31.9148H377.456C377.52 31.433 377.715 31.0066 378.043 30.6355C378.37 30.2645 378.804 29.9765 379.344 29.7715C379.89 29.5611 380.502 29.4559 381.181 29.4559C382.083 29.4559 382.896 29.6774 383.62 30.1205C384.344 30.558 384.703 31.3998 384.698 32.6459V38.594H383.232V37.3645H383.163C382.974 37.7411 382.643 38.0762 382.172 38.3697C381.706 38.6577 381.106 38.8044 380.37 38.81C379.773 38.8044 379.232 38.6937 378.75 38.4777C378.267 38.2561 377.885 37.9377 377.603 37.5223C377.321 37.1014 377.181 36.6057 377.181 36.0353ZM378.663 36.1018C378.669 36.567 378.85 36.9214 379.206 37.1651C379.569 37.4088 380.048 37.5306 380.646 37.5306C381.181 37.5306 381.643 37.4282 382.034 37.2233C382.425 37.0183 382.721 36.747 382.922 36.4091C383.129 36.0713 383.232 35.7085 383.232 35.3209V34.4154C383.1 34.4209 382.721 34.4458 382.094 34.4901L380.87 34.5732C380.169 34.6175 379.626 34.7643 379.241 35.0135C378.862 35.2627 378.669 35.6255 378.663 36.1018Z" fill="white"/>
<path d="M390.81 30.7684H388.845V36.0021C388.839 36.5282 388.945 36.8854 389.164 37.0737C389.388 37.2565 389.689 37.3479 390.069 37.3479C390.293 37.3479 390.508 37.3396 390.715 37.3229L390.948 37.3146V38.6438C390.638 38.6881 390.293 38.7103 389.913 38.7103C389.477 38.7103 389.063 38.6244 388.672 38.4528C388.281 38.2755 387.962 38.0097 387.715 37.6552C387.468 37.3008 387.345 36.8716 387.345 36.3676V30.7684H385.931V29.5722H387.345V27.4123H388.845V29.5722H390.81V30.7684Z" fill="white"/>
<path d="M396.198 38.7767C395.307 38.7767 394.532 38.5857 393.871 38.2035C393.21 37.8214 392.701 37.2814 392.345 36.5836C391.994 35.8858 391.819 35.0772 391.819 34.1578C391.819 33.2385 391.994 32.4244 392.345 31.7155C392.701 31.001 393.198 30.4472 393.836 30.054C394.48 29.6552 395.221 29.4559 396.06 29.4559C396.767 29.4559 397.425 29.6082 398.034 29.9128C398.644 30.2118 399.138 30.6992 399.517 31.3749C399.902 32.045 400.095 32.9062 400.095 33.9585V34.5566H393.302C393.325 35.1824 393.46 35.7169 393.707 36.1599C393.96 36.603 394.299 36.9408 394.724 37.1734C395.149 37.4005 395.641 37.514 396.198 37.514C396.727 37.514 397.172 37.4199 397.534 37.2316C397.902 37.0377 398.181 36.7885 398.371 36.4839H399.957C399.807 36.9436 399.557 37.3479 399.207 37.6968C398.862 38.0402 398.431 38.306 397.914 38.4943C397.402 38.6826 396.83 38.7767 396.198 38.7767ZM398.595 33.3437C398.595 32.8453 398.488 32.3967 398.276 31.9979C398.069 31.5992 397.773 31.2863 397.388 31.0592C397.009 30.8321 396.566 30.7186 396.06 30.7186C395.537 30.7186 395.072 30.8377 394.664 31.0758C394.261 31.3139 393.943 31.6352 393.707 32.0395C393.477 32.4382 393.345 32.873 393.31 33.3437H398.595Z" fill="white"/>
<path d="M406.879 31.9148C406.77 31.5272 406.558 31.2253 406.241 31.0093C405.931 30.7878 405.512 30.6743 404.983 30.6687C404.604 30.6687 404.264 30.7297 403.966 30.8515C403.667 30.9733 403.431 31.1395 403.259 31.3499C403.086 31.5549 403 31.7819 403 32.0312C403.006 32.3302 403.138 32.585 403.397 32.7954C403.655 33.0003 404.058 33.1665 404.604 33.2939L406 33.6262C406.833 33.8145 407.457 34.1135 407.871 34.5234C408.284 34.9277 408.494 35.4427 408.5 36.0685C408.494 36.5947 408.348 37.0627 408.06 37.4725C407.773 37.8823 407.353 38.2035 406.802 38.4361C406.25 38.6632 405.592 38.7767 404.828 38.7767C403.782 38.7823 402.951 38.5663 402.336 38.1288C401.721 37.6912 401.351 37.0599 401.224 36.2347H402.776C402.948 37.0986 403.609 37.5306 404.759 37.5306C405.443 37.5306 405.98 37.4088 406.371 37.1651C406.767 36.9159 406.966 36.5781 406.966 36.1516C406.966 35.8304 406.842 35.5646 406.595 35.3541C406.348 35.1436 405.96 34.9775 405.431 34.8557L404.017 34.54C403.207 34.3572 402.586 34.0582 402.155 33.6428C401.73 33.2274 401.517 32.7179 401.517 32.1142C401.517 31.6047 401.661 31.1478 401.948 30.7435C402.242 30.3392 402.65 30.0235 403.173 29.7965C403.701 29.5694 404.305 29.4559 404.983 29.4559C405.615 29.4559 406.172 29.5583 406.655 29.7632C407.138 29.9682 407.52 30.2561 407.802 30.6272C408.089 30.9983 408.264 31.4275 408.328 31.9148H406.879Z" fill="white"/>
<path d="M9.5 4.41764C9.38506 3.87246 9.15805 3.40597 8.81897 3.01816C8.47989 2.62473 8.06609 2.32685 7.57759 2.12451C7.09483 1.92218 6.57471 1.82101 6.01724 1.82101C5.25287 1.82101 4.56609 2.0093 3.9569 2.38586C3.35345 2.76243 2.87644 3.31604 2.52586 4.04669C2.17529 4.77735 2 5.65413 2 6.67704C2 7.69434 2.17529 8.56831 2.52586 9.29896C2.87644 10.0296 3.35345 10.5832 3.9569 10.9598C4.56609 11.3364 5.25287 11.5275 6.01724 11.5331C6.57471 11.5275 7.09483 11.4263 7.57759 11.2296C8.06034 11.0272 8.47126 10.7322 8.81034 10.3444C9.14943 9.95655 9.37931 9.49287 9.5 8.95331H11.0517C10.9023 9.76827 10.592 10.4792 10.1207 11.0863C9.64943 11.6876 9.05747 12.1485 8.34483 12.4689C7.63793 12.7892 6.86207 12.9494 6.01724 12.9494C4.94828 12.9494 3.99425 12.6937 3.15517 12.1822C2.32184 11.6708 1.66954 10.9429 1.19828 9.9987C0.732759 9.04885 0.5 7.94163 0.5 6.67704C0.5 5.41245 0.732759 4.30804 1.19828 3.36381C1.66954 2.41396 2.32184 1.68331 3.15517 1.17185C3.99425 0.660398 4.94828 0.404669 6.01724 0.404669C6.86207 0.404669 7.63793 0.564851 8.34483 0.885214C9.05172 1.19996 9.6408 1.66083 10.1121 2.26783C10.5891 2.86922 10.9023 3.58582 11.0517 4.41764H9.5Z" fill="white"/>
<path d="M16.8621 12.9663C16.0172 12.9663 15.2701 12.7724 14.6207 12.3846C13.977 11.9911 13.477 11.4375 13.1207 10.7237C12.7644 10.0099 12.5862 9.18374 12.5862 8.24514C12.5862 7.30091 12.7644 6.4719 13.1207 5.75811C13.477 5.04431 13.977 4.4907 14.6207 4.09728C15.2701 3.70385 16.0172 3.50713 16.8621 3.50713C17.7011 3.50713 18.4425 3.70385 19.0862 4.09728C19.7299 4.4907 20.227 5.04431 20.5776 5.75811C20.9282 6.4719 21.1034 7.30091 21.1034 8.24514C21.1034 9.18374 20.9282 10.0099 20.5776 10.7237C20.227 11.4375 19.7299 11.9911 19.0862 12.3846C18.4425 12.7724 17.7011 12.9663 16.8621 12.9663ZM14.069 8.24514C14.0747 8.87462 14.1782 9.45071 14.3793 9.97341C14.5862 10.4961 14.8994 10.912 15.319 11.2211C15.7385 11.5303 16.2529 11.6848 16.8621 11.6848C17.4655 11.6848 17.9741 11.5303 18.3879 11.2211C18.8017 10.912 19.1092 10.4961 19.3103 9.97341C19.5172 9.45071 19.6207 8.87462 19.6207 8.24514C19.6207 7.61565 19.5172 7.03956 19.3103 6.51686C19.1092 5.99416 18.8017 5.57544 18.3879 5.2607C17.9741 4.94596 17.4655 4.78859 16.8621 4.78859C16.2529 4.78859 15.7385 4.94596 15.319 5.2607C14.8994 5.57544 14.5862 5.99416 14.3793 6.51686C14.1782 7.03956 14.0747 7.61565 14.069 8.24514Z" fill="white"/>
<path d="M24.5345 12.7808H23.0517V3.62516H24.4828V5.05837H24.6034C24.8333 4.56939 25.1753 4.19001 25.6293 3.92023C26.0891 3.64483 26.6609 3.50713 27.3448 3.50713C27.9885 3.50713 28.546 3.6364 29.0172 3.89494C29.4885 4.14786 29.8534 4.53286 30.1121 5.04994C30.3707 5.56701 30.5 6.20493 30.5 6.96368V12.7808H29.0172V7.06485C29.0172 6.35668 28.8305 5.80307 28.4569 5.40402C28.0833 5.00497 27.5632 4.80545 26.8966 4.80545C26.4368 4.80545 26.0287 4.9038 25.6724 5.10052C25.3161 5.29161 25.0374 5.57544 24.8362 5.95201C24.6351 6.32296 24.5345 6.76697 24.5345 7.28405V12.7808Z" fill="white"/>
<path d="M36.4138 12.9663C35.6379 12.9663 34.9483 12.7752 34.3448 12.393C33.7414 12.0052 33.2701 11.4544 32.931 10.7406C32.5977 10.0212 32.431 9.18374 32.431 8.22828C32.431 7.27843 32.5977 6.44661 32.931 5.73281C33.2701 5.01902 33.7414 4.47103 34.3448 4.08885C34.954 3.70104 35.6494 3.50713 36.431 3.50713C36.9828 3.50713 37.4397 3.59706 37.8017 3.77691C38.1638 3.95115 38.4253 4.13381 38.5862 4.3249C38.7529 4.516 38.9368 4.7661 39.1379 5.07523H39.2414V0.573281H40.7414V12.7808H39.2931V11.3813H39.1379C38.9425 11.6792 38.7557 11.9321 38.5776 12.1401C38.4052 12.3424 38.1351 12.5307 37.7672 12.7049C37.4052 12.8792 36.954 12.9663 36.4138 12.9663ZM33.931 8.19455C33.931 8.85776 34.0316 9.45071 34.2328 9.97341C34.4397 10.4961 34.7443 10.9092 35.1466 11.2127C35.5546 11.5162 36.046 11.668 36.6207 11.668C37.1839 11.668 37.6638 11.5246 38.0603 11.238C38.4626 10.9457 38.7672 10.5383 38.9741 10.0156C39.181 9.49287 39.2874 8.88586 39.2931 8.19455C39.2874 7.51448 39.181 6.91872 38.9741 6.40726C38.773 5.89581 38.4713 5.50238 38.069 5.22698C37.6724 4.94596 37.1897 4.80545 36.6207 4.80545C36.0402 4.80545 35.546 4.95158 35.1379 5.24384C34.7356 5.5361 34.4339 5.93796 34.2328 6.44942C34.0316 6.96087 33.931 7.54259 33.931 8.19455Z" fill="white"/>
<path d="M43.3103 3.62516H44.7931V12.7808H43.3103V3.62516ZM44.0517 2.10765C43.7701 2.10765 43.5259 2.01492 43.319 1.82944C43.1178 1.64397 43.0172 1.42196 43.0172 1.16342C43.0172 0.893645 43.1149 0.663208 43.3103 0.472114C43.5115 0.28102 43.7529 0.185473 44.0345 0.185473C44.3276 0.185473 44.5776 0.27821 44.7845 0.463684C44.9914 0.649157 45.0977 0.876783 45.1034 1.14656C45.0977 1.41072 44.9914 1.63835 44.7845 1.82944C44.5833 2.01492 44.3391 2.10765 44.0517 2.10765Z" fill="white"/>
<path d="M51.2414 4.83917H49.2759V10.1505C49.2701 10.6844 49.3764 11.0469 49.5948 11.238C49.819 11.4235 50.1207 11.5162 50.5 11.5162C50.7241 11.5162 50.9397 11.5078 51.1466 11.4909L51.3793 11.4825V12.8314C51.069 12.8764 50.7241 12.8988 50.3448 12.8988C49.908 12.8988 49.4943 12.8117 49.1034 12.6375C48.7126 12.4576 48.3937 12.1879 48.1466 11.8281C47.8994 11.4684 47.7759 11.0329 47.7759 10.5214V4.83917H46.3621V3.62516H47.7759V1.4332H49.2759V3.62516H51.2414V4.83917Z" fill="white"/>
<path d="M53.1552 3.62516H54.6379V12.7808H53.1552V3.62516ZM53.8966 2.10765C53.6149 2.10765 53.3707 2.01492 53.1638 1.82944C52.9626 1.64397 52.8621 1.42196 52.8621 1.16342C52.8621 0.893645 52.9598 0.663208 53.1552 0.472114C53.3563 0.28102 53.5977 0.185473 53.8793 0.185473C54.1724 0.185473 54.4224 0.27821 54.6293 0.463684C54.8362 0.649157 54.9425 0.876783 54.9483 1.14656C54.9425 1.41072 54.8362 1.63835 54.6293 1.82944C54.4282 2.01492 54.1839 2.10765 53.8966 2.10765Z" fill="white"/>
<path d="M60.8276 12.9663C59.9828 12.9663 59.2356 12.7724 58.5862 12.3846C57.9425 11.9911 57.4425 11.4375 57.0862 10.7237C56.7299 10.0099 56.5517 9.18374 56.5517 8.24514C56.5517 7.30091 56.7299 6.4719 57.0862 5.75811C57.4425 5.04431 57.9425 4.4907 58.5862 4.09728C59.2356 3.70385 59.9828 3.50713 60.8276 3.50713C61.6667 3.50713 62.408 3.70385 63.0517 4.09728C63.6954 4.4907 64.1925 5.04431 64.5431 5.75811C64.8937 6.4719 65.069 7.30091 65.069 8.24514C65.069 9.18374 64.8937 10.0099 64.5431 10.7237C64.1925 11.4375 63.6954 11.9911 63.0517 12.3846C62.408 12.7724 61.6667 12.9663 60.8276 12.9663ZM58.0345 8.24514C58.0402 8.87462 58.1437 9.45071 58.3448 9.97341C58.5517 10.4961 58.8649 10.912 59.2845 11.2211C59.704 11.5303 60.2184 11.6848 60.8276 11.6848C61.431 11.6848 61.9397 11.5303 62.3534 11.2211C62.7672 10.912 63.0747 10.4961 63.2759 9.97341C63.4828 9.45071 63.5862 8.87462 63.5862 8.24514C63.5862 7.61565 63.4828 7.03956 63.2759 6.51686C63.0747 5.99416 62.7672 5.57544 62.3534 5.2607C61.9397 4.94596 61.431 4.78859 60.8276 4.78859C60.2184 4.78859 59.704 4.94596 59.2845 5.2607C58.8649 5.57544 58.5517 5.99416 58.3448 6.51686C58.1437 7.03956 58.0402 7.61565 58.0345 8.24514Z" fill="white"/>
<path d="M68.5 12.7808H67.0172V3.62516H68.4483V5.05837H68.569C68.7989 4.56939 69.1408 4.19001 69.5948 3.92023C70.0546 3.64483 70.6264 3.50713 71.3103 3.50713C71.954 3.50713 72.5115 3.6364 72.9828 3.89494C73.454 4.14786 73.819 4.53286 74.0776 5.04994C74.3362 5.56701 74.4655 6.20493 74.4655 6.96368V12.7808H72.9828V7.06485C72.9828 6.35668 72.796 5.80307 72.4224 5.40402C72.0489 5.00497 71.5287 4.80545 70.8621 4.80545C70.4023 4.80545 69.9943 4.9038 69.6379 5.10052C69.2816 5.29161 69.0029 5.57544 68.8017 5.95201C68.6006 6.32296 68.5 6.76697 68.5 7.28405V12.7808Z" fill="white"/>
<path d="M82.0517 6.00259C81.9425 5.60917 81.7299 5.30285 81.4138 5.08366C81.1034 4.85884 80.6839 4.74362 80.1552 4.738C79.7759 4.738 79.4368 4.79983 79.1379 4.92348C78.8391 5.04712 78.6034 5.21574 78.431 5.42931C78.2586 5.63727 78.1724 5.8677 78.1724 6.12062C78.1782 6.42412 78.3103 6.68266 78.569 6.89624C78.8276 7.10419 79.2299 7.27281 79.7759 7.40208L81.1724 7.7393C82.0057 7.93039 82.6293 8.2339 83.0431 8.64981C83.4569 9.06009 83.6667 9.58279 83.6724 10.2179C83.6667 10.7518 83.5201 11.2268 83.2328 11.6427C82.9454 12.0586 82.5259 12.3846 81.9741 12.6206C81.4224 12.8511 80.7644 12.9663 80 12.9663C78.954 12.9719 78.1236 12.7527 77.5086 12.3087C76.8937 11.8647 76.523 11.224 76.3966 10.3865H77.9483C78.1207 11.2633 78.7816 11.7017 79.931 11.7017C80.6149 11.7017 81.1523 11.578 81.5431 11.3307C81.9397 11.0778 82.1379 10.735 82.1379 10.3022C82.1379 9.97622 82.0144 9.70644 81.7672 9.49287C81.5201 9.27929 81.1322 9.11068 80.6034 8.98703L79.1897 8.66667C78.3793 8.48119 77.7586 8.17769 77.3276 7.75616C76.9023 7.33463 76.6897 6.81755 76.6897 6.20493C76.6897 5.68785 76.8333 5.22417 77.1207 4.81388C77.4138 4.40359 77.8218 4.08323 78.3448 3.85279C78.8736 3.62235 79.477 3.50713 80.1552 3.50713C80.7874 3.50713 81.3448 3.61111 81.8276 3.81907C82.3103 4.02702 82.6925 4.31928 82.9741 4.69585C83.2615 5.07242 83.4368 5.508 83.5 6.00259H82.0517Z" fill="white"/>
<path d="M93.8621 12.9663C93.0172 12.9663 92.2701 12.7724 91.6207 12.3846C90.977 11.9911 90.477 11.4375 90.1207 10.7237C89.7644 10.0099 89.5862 9.18374 89.5862 8.24514C89.5862 7.30091 89.7644 6.4719 90.1207 5.75811C90.477 5.04431 90.977 4.4907 91.6207 4.09728C92.2701 3.70385 93.0172 3.50713 93.8621 3.50713C94.7011 3.50713 95.4425 3.70385 96.0862 4.09728C96.7299 4.4907 97.227 5.04431 97.5776 5.75811C97.9282 6.4719 98.1034 7.30091 98.1034 8.24514C98.1034 9.18374 97.9282 10.0099 97.5776 10.7237C97.227 11.4375 96.7299 11.9911 96.0862 12.3846C95.4425 12.7724 94.7011 12.9663 93.8621 12.9663ZM91.069 8.24514C91.0747 8.87462 91.1782 9.45071 91.3793 9.97341C91.5862 10.4961 91.8994 10.912 92.319 11.2211C92.7385 11.5303 93.2529 11.6848 93.8621 11.6848C94.4655 11.6848 94.9741 11.5303 95.3879 11.2211C95.8017 10.912 96.1092 10.4961 96.3103 9.97341C96.5172 9.45071 96.6207 8.87462 96.6207 8.24514C96.6207 7.61565 96.5172 7.03956 96.3103 6.51686C96.1092 5.99416 95.8017 5.57544 95.3879 5.2607C94.9741 4.94596 94.4655 4.78859 93.8621 4.78859C93.2529 4.78859 92.7385 4.94596 92.319 5.2607C91.8994 5.57544 91.5862 5.99416 91.3793 6.51686C91.1782 7.03956 91.0747 7.61565 91.069 8.24514Z" fill="white"/>
<path d="M104.241 4.83917H102.172V12.7808H100.672V4.83917H99.1724V3.62516H100.672V2.37743C100.672 1.88846 100.779 1.46693 100.991 1.11284C101.21 0.753134 101.52 0.477735 101.922 0.286641C102.325 0.0955469 102.799 0 103.345 0C103.724 0 104.092 0.0337224 104.448 0.101167V1.39948C104.167 1.35452 103.908 1.33204 103.672 1.33204C103.149 1.33204 102.767 1.44163 102.526 1.66083C102.284 1.88003 102.167 2.22568 102.172 2.6978V3.62516H104.241V4.83917Z" fill="white"/>
<path d="M120.345 0.573281V8.64981C120.345 9.48163 120.144 10.2291 119.741 10.8923C119.339 11.5499 118.77 12.067 118.034 12.4436C117.299 12.8145 116.448 13 115.483 13C114.517 13 113.667 12.8145 112.931 12.4436C112.195 12.067 111.626 11.5499 111.224 10.8923C110.822 10.2291 110.621 9.48163 110.621 8.64981V0.573281H112.172V8.53178C112.172 9.12192 112.305 9.64743 112.569 10.1083C112.833 10.5692 113.216 10.9317 113.716 11.1958C114.221 11.4544 114.81 11.5837 115.483 11.5837C116.155 11.5837 116.741 11.4544 117.241 11.1958C117.741 10.9317 118.124 10.5692 118.388 10.1083C118.652 9.64743 118.787 9.12192 118.793 8.53178V0.573281H120.345Z" fill="white"/>
<path d="M128.121 6.00259C128.011 5.60917 127.799 5.30285 127.483 5.08366C127.172 4.85884 126.753 4.74362 126.224 4.738C125.845 4.738 125.506 4.79983 125.207 4.92348C124.908 5.04712 124.672 5.21574 124.5 5.42931C124.328 5.63727 124.241 5.8677 124.241 6.12062C124.247 6.42412 124.379 6.68266 124.638 6.89624C124.897 7.10419 125.299 7.27281 125.845 7.40208L127.241 7.7393C128.075 7.93039 128.698 8.2339 129.112 8.64981C129.526 9.06009 129.736 9.58279 129.741 10.2179C129.736 10.7518 129.589 11.2268 129.302 11.6427C129.014 12.0586 128.595 12.3846 128.043 12.6206C127.491 12.8511 126.833 12.9663 126.069 12.9663C125.023 12.9719 124.193 12.7527 123.578 12.3087C122.963 11.8647 122.592 11.224 122.466 10.3865H124.017C124.19 11.2633 124.851 11.7017 126 11.7017C126.684 11.7017 127.221 11.578 127.612 11.3307C128.009 11.0778 128.207 10.735 128.207 10.3022C128.207 9.97622 128.083 9.70644 127.836 9.49287C127.589 9.27929 127.201 9.11068 126.672 8.98703L125.259 8.66667C124.448 8.48119 123.828 8.17769 123.397 7.75616C122.971 7.33463 122.759 6.81755 122.759 6.20493C122.759 5.68785 122.902 5.22417 123.19 4.81388C123.483 4.40359 123.891 4.08323 124.414 3.85279C124.943 3.62235 125.546 3.50713 126.224 3.50713C126.856 3.50713 127.414 3.61111 127.897 3.81907C128.379 4.02702 128.761 4.31928 129.043 4.69585C129.33 5.07242 129.506 5.508 129.569 6.00259H128.121Z" fill="white"/>
<path d="M135.603 12.9663C134.713 12.9663 133.937 12.7724 133.276 12.3846C132.615 11.9968 132.106 11.4488 131.75 10.7406C131.399 10.0324 131.224 9.21185 131.224 8.27886C131.224 7.34587 131.399 6.51967 131.75 5.80026C132.106 5.07523 132.603 4.51319 133.241 4.11414C133.885 3.70947 134.626 3.50713 135.466 3.50713C136.172 3.50713 136.83 3.66169 137.44 3.97082C138.049 4.27432 138.543 4.76891 138.922 5.4546C139.307 6.13467 139.5 7.00865 139.5 8.07652V8.68353H132.707C132.73 9.31863 132.865 9.861 133.112 10.3106C133.365 10.7603 133.704 11.1031 134.129 11.3392C134.555 11.5696 135.046 11.6848 135.603 11.6848C136.132 11.6848 136.578 11.5893 136.94 11.3982C137.307 11.2015 137.586 10.9486 137.776 10.6394H139.362C139.213 11.1059 138.963 11.5162 138.612 11.8703C138.267 12.2188 137.836 12.4885 137.319 12.6796C136.807 12.8707 136.236 12.9663 135.603 12.9663ZM138 7.45266C138 6.94682 137.894 6.49157 137.681 6.0869C137.474 5.68223 137.178 5.36468 136.793 5.13424C136.414 4.9038 135.971 4.78859 135.466 4.78859C134.943 4.78859 134.477 4.90942 134.069 5.1511C133.667 5.39278 133.348 5.71876 133.112 6.12905C132.882 6.53372 132.75 6.97492 132.716 7.45266H138Z" fill="white"/>
<path d="M163.5 0.386961H167.748C168.692 0.386961 169.483 0.555205 170.122 0.891693C170.761 1.22818 171.236 1.68805 171.547 2.27129C171.858 2.84893 172.013 3.51069 172.013 4.25657C172.013 4.99685 171.858 5.66141 171.547 6.25026C171.236 6.83351 170.761 7.29618 170.122 7.63828C169.489 7.97476 168.703 8.14301 167.765 8.14301H165.054V12.5678H163.5V0.386961ZM167.696 6.79706C168.646 6.79706 169.345 6.56712 169.794 6.10726C170.243 5.64739 170.471 5.03049 170.476 4.25657C170.471 3.48265 170.24 2.86856 169.786 2.4143C169.337 1.96004 168.634 1.73291 167.679 1.73291H165.054V6.79706H167.696Z" fill="white"/>
<path d="M173.999 3.43218H175.432V4.8286H175.536C175.703 4.36873 176.008 3.9986 176.451 3.71819C176.9 3.43218 177.401 3.28637 177.953 3.28076C178.034 3.28076 178.097 3.28356 178.143 3.28917C178.212 3.28917 178.313 3.29197 178.445 3.29758C178.578 3.30319 178.673 3.3088 178.73 3.31441V4.77813C178.431 4.71083 178.132 4.67718 177.832 4.67718C177.389 4.67718 176.989 4.76972 176.632 4.95478C176.275 5.13985 175.993 5.39502 175.786 5.72029C175.585 6.04557 175.484 6.41009 175.484 6.81388V12.5678H173.999V3.43218Z" fill="white"/>
<path d="M180.181 3.43218H181.666V12.5678H180.181V3.43218ZM180.923 1.91798C180.641 1.91798 180.397 1.82545 180.189 1.64038C179.988 1.45531 179.887 1.23379 179.887 0.975815C179.887 0.706625 179.985 0.476691 180.181 0.286015C180.382 0.0953382 180.624 0 180.906 0C181.2 0 181.45 0.0925342 181.657 0.277603C181.864 0.462671 181.971 0.6898 181.977 0.958991C181.971 1.22257 181.864 1.4497 181.657 1.64038C181.456 1.82545 181.211 1.91798 180.923 1.91798Z" fill="white"/>
<path d="M188.28 12.5678H186.743L183.289 3.43218H184.912L187.468 10.6835H187.572L190.127 3.43218H191.75L188.28 12.5678Z" fill="white"/>
<path d="M192.648 9.97687C192.648 9.0347 192.979 8.37014 193.641 7.98318C194.309 7.59061 195.152 7.35787 196.171 7.28496C196.568 7.25692 197.04 7.22888 197.587 7.20084C198.134 7.1728 198.508 7.15598 198.709 7.15037V6.41009C198.709 5.82124 198.528 5.36979 198.165 5.05573C197.809 4.73607 197.282 4.57624 196.585 4.57624C196.016 4.57624 195.549 4.6912 195.187 4.92114C194.824 5.14546 194.588 5.43989 194.479 5.80442H192.925C192.988 5.31651 193.184 4.88468 193.512 4.50894C193.84 4.13319 194.274 3.84157 194.815 3.63407C195.362 3.42096 195.975 3.31441 196.654 3.31441C197.558 3.31441 198.373 3.53873 199.098 3.98738C199.823 4.43042 200.183 5.28286 200.177 6.54469V12.5678H198.709V11.3228H198.64C198.45 11.7042 198.119 12.0435 197.647 12.3407C197.181 12.6323 196.58 12.7809 195.843 12.7865C195.244 12.7809 194.703 12.6688 194.22 12.4501C193.736 12.2257 193.353 11.9033 193.071 11.4826C192.789 11.0564 192.648 10.5545 192.648 9.97687ZM194.133 10.0442C194.139 10.5152 194.32 10.8742 194.677 11.1209C195.04 11.3677 195.521 11.4911 196.119 11.4911C196.654 11.4911 197.118 11.3873 197.509 11.1798C197.901 10.9723 198.197 10.6975 198.399 10.3554C198.606 10.0133 198.709 9.64599 198.709 9.25342V8.33649C198.577 8.3421 198.197 8.36733 197.57 8.4122L196.344 8.49632C195.641 8.54119 195.097 8.6898 194.712 8.94217C194.332 9.19453 194.139 9.56186 194.133 10.0442Z" fill="white"/>
<path d="M206.394 12.7529C205.524 12.7529 204.765 12.5538 204.114 12.1556C203.47 11.7574 202.975 11.2022 202.629 10.49C202.284 9.77217 202.111 8.95619 202.111 8.04206C202.111 7.12233 202.287 6.30634 202.638 5.59411C202.995 4.87627 203.495 4.31826 204.14 3.92008C204.785 3.5163 205.524 3.31441 206.359 3.31441C207.015 3.31441 207.611 3.43498 208.146 3.67613C208.687 3.91167 209.128 4.24816 209.467 4.68559C209.807 5.12303 210.014 5.62496 210.089 6.19138H208.604C208.489 5.73712 208.238 5.35857 207.853 5.05573C207.473 4.74728 206.986 4.59306 206.394 4.59306C205.841 4.59306 205.352 4.73326 204.926 5.01367C204.506 5.29408 204.178 5.69225 203.942 6.2082C203.711 6.71854 203.596 7.313 203.596 7.99159C203.596 8.687 203.711 9.29828 203.942 9.82545C204.172 10.347 204.497 10.7508 204.917 11.0368C205.337 11.3172 205.83 11.4574 206.394 11.4574C206.952 11.4574 207.427 11.32 207.818 11.0452C208.215 10.7648 208.477 10.375 208.604 9.87592H210.089C210.008 10.4255 209.807 10.919 209.485 11.3565C209.162 11.7939 208.733 12.136 208.198 12.3828C207.669 12.6295 207.067 12.7529 206.394 12.7529Z" fill="white"/>
<path d="M212.869 16C212.443 15.9888 212.167 15.9776 212.04 15.9664V14.6709C212.109 14.6765 212.351 14.6877 212.765 14.7045C213.019 14.6989 213.226 14.6709 213.387 14.6204C213.554 14.5755 213.721 14.4522 213.888 14.2503C214.055 14.054 214.216 13.7455 214.371 13.3249L214.648 12.6351L211.177 3.43218H212.8L215.356 10.6835H215.459L218.015 3.43218H219.638L215.667 13.8801C215.39 14.598 215.022 15.1279 214.561 15.47C214.101 15.8177 213.537 15.9944 212.869 16Z" fill="white"/>
<path d="M235.835 12.5678H234.35L227.581 3.07886H227.461V12.5678H225.906V0.386961H227.409L234.178 9.89275H234.299V0.386961H235.835V12.5678Z" fill="white"/>
<path d="M242.242 12.7529C241.396 12.7529 240.647 12.5594 239.997 12.1725C239.352 11.7799 238.852 11.2275 238.495 10.5152C238.138 9.80301 237.959 8.97862 237.959 8.04206C237.959 7.0999 238.138 6.2727 238.495 5.56046C238.852 4.84823 239.352 4.29583 239.997 3.90326C240.647 3.51069 241.396 3.31441 242.242 3.31441C243.082 3.31441 243.825 3.51069 244.469 3.90326C245.114 4.29583 245.612 4.84823 245.963 5.56046C246.314 6.2727 246.49 7.0999 246.49 8.04206C246.49 8.97862 246.314 9.80301 245.963 10.5152C245.612 11.2275 245.114 11.7799 244.469 12.1725C243.825 12.5594 243.082 12.7529 242.242 12.7529ZM239.444 8.04206C239.45 8.67017 239.554 9.24501 239.755 9.76656C239.963 10.2881 240.276 10.7031 240.696 11.0116C241.117 11.32 241.632 11.4742 242.242 11.4742C242.846 11.4742 243.356 11.32 243.77 11.0116C244.185 10.7031 244.492 10.2881 244.694 9.76656C244.901 9.24501 245.005 8.67017 245.005 8.04206C245.005 7.41395 244.901 6.83912 244.694 6.31756C244.492 5.796 244.185 5.3782 243.77 5.06414C243.356 4.75009 242.846 4.59306 242.242 4.59306C241.632 4.59306 241.117 4.75009 240.696 5.06414C240.276 5.3782 239.963 5.796 239.755 6.31756C239.554 6.83912 239.45 7.41395 239.444 8.04206Z" fill="white"/>
<path d="M252.534 4.64353H250.565V9.94322C250.559 10.476 250.666 10.8377 250.885 11.0284C251.109 11.2135 251.411 11.306 251.791 11.306C252.016 11.306 252.231 11.2976 252.439 11.2808L252.672 11.2723V12.6183C252.361 12.6632 252.016 12.6856 251.636 12.6856C251.198 12.6856 250.784 12.5987 250.392 12.4248C250.001 12.2454 249.682 11.9762 249.434 11.6172C249.187 11.2583 249.063 10.8237 249.063 10.3134V4.64353H247.647V3.43218H249.063V1.24501H250.565V3.43218H252.534V4.64353Z" fill="white"/>
<path d="M254.45 3.43218H255.935V12.5678H254.45V3.43218ZM255.193 1.91798C254.911 1.91798 254.666 1.82545 254.459 1.64038C254.258 1.45531 254.157 1.23379 254.157 0.975815C254.157 0.706625 254.255 0.476691 254.45 0.286015C254.652 0.0953382 254.894 0 255.176 0C255.469 0 255.72 0.0925342 255.927 0.277603C256.134 0.462671 256.24 0.6898 256.246 0.958991C256.24 1.22257 256.134 1.4497 255.927 1.64038C255.725 1.82545 255.481 1.91798 255.193 1.91798Z" fill="white"/>
<path d="M262.135 12.7529C261.265 12.7529 260.506 12.5538 259.855 12.1556C259.211 11.7574 258.716 11.2022 258.37 10.49C258.025 9.77217 257.852 8.95619 257.852 8.04206C257.852 7.12233 258.028 6.30634 258.379 5.59411C258.736 4.87627 259.236 4.31826 259.881 3.92008C260.526 3.5163 261.265 3.31441 262.1 3.31441C262.756 3.31441 263.352 3.43498 263.887 3.67613C264.428 3.91167 264.869 4.24816 265.208 4.68559C265.548 5.12303 265.755 5.62496 265.83 6.19138H264.345C264.23 5.73712 263.979 5.35857 263.594 5.05573C263.214 4.74728 262.727 4.59306 262.135 4.59306C261.582 4.59306 261.093 4.73326 260.667 5.01367C260.247 5.29408 259.919 5.69225 259.683 6.2082C259.452 6.71854 259.337 7.313 259.337 7.99159C259.337 8.687 259.452 9.29828 259.683 9.82545C259.913 10.347 260.238 10.7508 260.658 11.0368C261.078 11.3172 261.571 11.4574 262.135 11.4574C262.693 11.4574 263.168 11.32 263.559 11.0452C263.956 10.7648 264.218 10.375 264.345 9.87592H265.83C265.749 10.4255 265.548 10.919 265.226 11.3565C264.903 11.7939 264.474 12.136 263.939 12.3828C263.41 12.6295 262.808 12.7529 262.135 12.7529Z" fill="white"/>
<path d="M271.597 12.7529C270.705 12.7529 269.928 12.5594 269.266 12.1725C268.604 11.7855 268.095 11.2387 267.738 10.5321C267.387 9.82545 267.211 9.00666 267.211 8.07571C267.211 7.14476 267.387 6.32036 267.738 5.60252C268.095 4.87907 268.593 4.31826 269.232 3.92008C269.876 3.5163 270.619 3.31441 271.459 3.31441C272.167 3.31441 272.826 3.46863 273.436 3.77708C274.047 4.07992 274.542 4.57343 274.922 5.25762C275.307 5.93621 275.5 6.80827 275.5 7.87382V8.4795H268.696C268.719 9.11321 268.855 9.6544 269.102 10.103C269.355 10.5517 269.695 10.8938 270.121 11.1293C270.547 11.3593 271.039 11.4742 271.597 11.4742C272.127 11.4742 272.573 11.3789 272.936 11.1882C273.304 10.9919 273.583 10.7396 273.773 10.4311H275.362C275.212 10.8966 274.962 11.306 274.611 11.6593C274.265 12.007 273.834 12.2762 273.316 12.4669C272.803 12.6576 272.231 12.7529 271.597 12.7529ZM273.998 7.25131C273.998 6.74658 273.891 6.29232 273.678 5.88854C273.471 5.48475 273.175 5.16789 272.789 4.93796C272.409 4.70803 271.966 4.59306 271.459 4.59306C270.936 4.59306 270.469 4.71363 270.061 4.95478C269.658 5.19593 269.338 5.52121 269.102 5.9306C268.872 6.33438 268.74 6.77462 268.705 7.25131H273.998Z" fill="white"/>
<path d="M302.273 0.386961L305.697 6.03996H305.852L309.276 0.386961H311.066L306.557 7.57098V12.5678H304.991V7.57098L300.5 0.386961H302.273Z" fill="white"/>
<path d="M315.024 12.7529C314.181 12.7529 313.435 12.5594 312.787 12.1725C312.145 11.7799 311.646 11.2275 311.29 10.5152C310.934 9.80301 310.756 8.97862 310.756 8.04206C310.756 7.0999 310.934 6.2727 311.29 5.56046C311.646 4.84823 312.145 4.29583 312.787 3.90326C313.435 3.51069 314.181 3.31441 315.024 3.31441C315.862 3.31441 316.602 3.51069 317.244 3.90326C317.887 4.29583 318.383 4.84823 318.733 5.56046C319.083 6.2727 319.258 7.0999 319.258 8.04206C319.258 8.97862 319.083 9.80301 318.733 10.5152C318.383 11.2275 317.887 11.7799 317.244 12.1725C316.602 12.5594 315.862 12.7529 315.024 12.7529ZM312.236 8.04206C312.242 8.67017 312.345 9.24501 312.546 9.76656C312.753 10.2881 313.065 10.7031 313.484 11.0116C313.903 11.32 314.416 11.4742 315.024 11.4742C315.626 11.4742 316.134 11.32 316.547 11.0116C316.96 10.7031 317.267 10.2881 317.468 9.76656C317.674 9.24501 317.778 8.67017 317.778 8.04206C317.778 7.41395 317.674 6.83912 317.468 6.31756C317.267 5.796 316.96 5.3782 316.547 5.06414C316.134 4.75009 315.626 4.59306 315.024 4.59306C314.416 4.59306 313.903 4.75009 313.484 5.06414C313.065 5.3782 312.753 5.796 312.546 6.31756C312.345 6.83912 312.242 7.41395 312.236 8.04206Z" fill="white"/>
<path d="M327.105 3.43218H328.567V12.5678H327.105V11.02H327.001C326.766 11.5135 326.411 11.9145 325.935 12.2229C325.464 12.5314 324.896 12.6856 324.231 12.6856C323.629 12.6856 323.098 12.5594 322.639 12.307C322.186 12.0491 321.833 11.6621 321.581 11.1462C321.328 10.6246 321.202 9.98808 321.202 9.23659V3.43218H322.682V9.13565C322.682 9.56747 322.768 9.94602 322.94 10.2713C323.112 10.5966 323.35 10.8489 323.654 11.0284C323.964 11.2022 324.317 11.2892 324.713 11.2892C325.086 11.2948 325.456 11.205 325.823 11.02C326.19 10.8349 326.494 10.5573 326.735 10.1872C326.981 9.81143 327.105 9.35436 327.105 8.81598V3.43218Z" fill="white"/>
<path d="M330.942 3.43218H332.371V4.8286H332.474C332.64 4.36873 332.944 3.9986 333.386 3.71819C333.833 3.43218 334.332 3.28637 334.883 3.28076C334.963 3.28076 335.026 3.28356 335.072 3.28917C335.141 3.28917 335.242 3.29197 335.374 3.29758C335.505 3.30319 335.6 3.3088 335.657 3.31441V4.77813C335.359 4.71083 335.061 4.67718 334.763 4.67718C334.321 4.67718 333.922 4.76972 333.567 4.95478C333.211 5.13985 332.93 5.39502 332.723 5.72029C332.523 6.04557 332.422 6.41009 332.422 6.81388V12.5678H330.942V3.43218Z" fill="white"/>
<path d="M340.648 12.5678L345.208 0.386961H346.843L351.403 12.5678H349.769L348.521 9.13565H343.513L342.266 12.5678H340.648ZM348.048 7.80652L346.069 2.35542H345.965L343.986 7.80652H348.048Z" fill="white"/>
<path d="M356.411 12.7529C355.637 12.7529 354.948 12.5622 354.346 12.1809C353.744 11.7939 353.273 11.2443 352.935 10.5321C352.602 9.81423 352.436 8.97862 352.436 8.02524C352.436 7.07746 352.602 6.24746 352.935 5.53523C353.273 4.82299 353.744 4.2762 354.346 3.89485C354.954 3.50789 355.648 3.31441 356.428 3.31441C356.979 3.31441 357.435 3.40414 357.797 3.5836C358.158 3.75745 358.419 3.93971 358.58 4.13039C358.746 4.32107 358.929 4.57063 359.13 4.87907H359.233V0.386961H360.731V12.5678H359.285V11.1714H359.13C358.935 11.4686 358.749 11.721 358.571 11.9285C358.399 12.1304 358.129 12.3183 357.762 12.4921C357.401 12.666 356.95 12.7529 356.411 12.7529ZM353.933 7.99159C353.933 8.65335 354.034 9.24501 354.234 9.76656C354.441 10.2881 354.745 10.7003 355.146 11.0032C355.554 11.306 356.044 11.4574 356.618 11.4574C357.18 11.4574 357.659 11.3144 358.055 11.0284C358.456 10.7368 358.76 10.3302 358.967 9.80862C359.173 9.28707 359.279 8.68139 359.285 7.99159C359.279 7.313 359.173 6.71854 358.967 6.2082C358.766 5.69786 358.465 5.30529 358.063 5.03049C357.667 4.75009 357.186 4.60988 356.618 4.60988C356.038 4.60988 355.545 4.7557 355.138 5.04732C354.736 5.33894 354.435 5.73992 354.234 6.25026C354.034 6.7606 353.933 7.34104 353.933 7.99159Z" fill="white"/>
<path d="M368.492 5.80442C368.383 5.41185 368.171 5.1062 367.855 4.88749C367.545 4.66316 367.127 4.54819 366.599 4.54259C366.22 4.54259 365.882 4.60428 365.583 4.72766C365.285 4.85103 365.05 5.01928 364.878 5.23239C364.706 5.43989 364.62 5.66982 364.62 5.92219C364.626 6.22503 364.757 6.483 365.016 6.69611C365.274 6.90361 365.675 7.07185 366.22 7.20084L367.614 7.53733C368.446 7.72801 369.068 8.03084 369.481 8.44585C369.894 8.85524 370.104 9.3768 370.109 10.0105C370.104 10.5433 369.957 11.0172 369.671 11.4322C369.384 11.8472 368.965 12.1725 368.414 12.408C367.864 12.6379 367.207 12.7529 366.444 12.7529C365.4 12.7585 364.571 12.5398 363.957 12.0967C363.343 11.6537 362.973 11.0144 362.847 10.1788H364.396C364.568 11.0536 365.228 11.4911 366.375 11.4911C367.058 11.4911 367.594 11.3677 367.984 11.1209C368.38 10.8686 368.578 10.5265 368.578 10.0946C368.578 9.76937 368.454 9.50018 368.208 9.28707C367.961 9.07396 367.574 8.90571 367.046 8.78233L365.635 8.46267C364.826 8.2776 364.207 7.97476 363.777 7.55415C363.352 7.13354 363.14 6.6176 363.14 6.00631C363.14 5.49036 363.283 5.02769 363.57 4.6183C363.863 4.2089 364.27 3.88924 364.792 3.65931C365.32 3.42937 365.922 3.31441 366.599 3.31441C367.23 3.31441 367.786 3.41816 368.268 3.62566C368.75 3.83316 369.131 4.12478 369.412 4.50053C369.699 4.87627 369.874 5.3109 369.937 5.80442H368.492Z" fill="white"/>
<path d="M376.649 0.386961H380.882C381.823 0.386961 382.612 0.555205 383.248 0.891693C383.885 1.22818 384.358 1.68805 384.668 2.27129C384.978 2.84893 385.133 3.51069 385.133 4.25657C385.133 4.99685 384.978 5.66141 384.668 6.25026C384.358 6.83351 383.885 7.29618 383.248 7.63828C382.617 7.97476 381.834 8.14301 380.899 8.14301H378.197V12.5678H376.649V0.386961ZM380.83 6.79706C381.777 6.79706 382.474 6.56712 382.921 6.10726C383.369 5.64739 383.595 5.03049 383.601 4.25657C383.595 3.48265 383.366 2.86856 382.913 2.4143C382.465 1.96004 381.765 1.73291 380.813 1.73291H378.197V6.79706H380.83Z" fill="white"/>
<path d="M387.112 3.43218H388.54V4.8286H388.643C388.81 4.36873 389.114 3.9986 389.555 3.71819C390.003 3.43218 390.502 3.28637 391.052 3.28076C391.133 3.28076 391.196 3.28356 391.242 3.28917C391.311 3.28917 391.411 3.29197 391.543 3.29758C391.675 3.30319 391.769 3.3088 391.827 3.31441V4.77813C391.529 4.71083 391.23 4.67718 390.932 4.67718C390.49 4.67718 390.092 4.76972 389.736 4.95478C389.38 5.13985 389.099 5.39502 388.893 5.72029C388.692 6.04557 388.592 6.41009 388.592 6.81388V12.5678H387.112V3.43218Z" fill="white"/>
<path d="M393.272 3.43218H394.752V12.5678H393.272V3.43218ZM394.012 1.91798C393.731 1.91798 393.487 1.82545 393.281 1.64038C393.08 1.45531 392.98 1.23379 392.98 0.975815C392.98 0.706625 393.077 0.476691 393.272 0.286015C393.473 0.0953382 393.714 0 393.995 0C394.288 0 394.537 0.0925342 394.744 0.277603C394.95 0.462671 395.056 0.6898 395.062 0.958991C395.056 1.22257 394.95 1.4497 394.744 1.64038C394.543 1.82545 394.299 1.91798 394.012 1.91798Z" fill="white"/>
<path d="M401.343 12.5678H399.812L396.37 3.43218H397.988L400.534 10.6835H400.638L403.185 3.43218H404.802L401.343 12.5678Z" fill="white"/>
<path d="M405.697 9.97687C405.697 9.0347 406.027 8.37014 406.687 7.98318C407.352 7.59061 408.192 7.35787 409.208 7.28496C409.603 7.25692 410.074 7.22888 410.619 7.20084C411.164 7.1728 411.537 7.15598 411.737 7.15037V6.41009C411.737 5.82124 411.557 5.36979 411.195 5.05573C410.84 4.73607 410.315 4.57624 409.621 4.57624C409.053 4.57624 408.588 4.6912 408.227 4.92114C407.865 5.14546 407.63 5.43989 407.521 5.80442H405.972C406.035 5.31651 406.231 4.88468 406.557 4.50894C406.884 4.13319 407.318 3.84157 407.857 3.63407C408.402 3.42096 409.013 3.31441 409.689 3.31441C410.59 3.31441 411.402 3.53873 412.125 3.98738C412.847 4.43042 413.206 5.28286 413.2 6.54469V12.5678H411.737V11.3228H411.668C411.479 11.7042 411.149 12.0435 410.679 12.3407C410.214 12.6323 409.615 12.7809 408.881 12.7865C408.284 12.7809 407.745 12.6688 407.263 12.4501C406.781 12.2257 406.4 11.9033 406.119 11.4826C405.838 11.0564 405.697 10.5545 405.697 9.97687ZM407.177 10.0442C407.183 10.5152 407.363 10.8742 407.719 11.1209C408.08 11.3677 408.559 11.4911 409.156 11.4911C409.689 11.4911 410.151 11.3873 410.541 11.1798C410.931 10.9723 411.227 10.6975 411.428 10.3554C411.634 10.0133 411.737 9.64599 411.737 9.25342V8.33649C411.605 8.3421 411.227 8.36733 410.602 8.4122L409.38 8.49632C408.68 8.54119 408.138 8.6898 407.753 8.94217C407.375 9.19453 407.183 9.56186 407.177 10.0442Z" fill="white"/>
<path d="M419.395 12.7529C418.529 12.7529 417.772 12.5538 417.124 12.1556C416.481 11.7574 415.988 11.2022 415.644 10.49C415.3 9.77217 415.127 8.95619 415.127 8.04206C415.127 7.12233 415.302 6.30634 415.652 5.59411C416.008 4.87627 416.507 4.31826 417.149 3.92008C417.792 3.5163 418.529 3.31441 419.361 3.31441C420.015 3.31441 420.608 3.43498 421.142 3.67613C421.681 3.91167 422.12 4.24816 422.458 4.68559C422.797 5.12303 423.003 5.62496 423.078 6.19138H421.598C421.483 5.73712 421.234 5.35857 420.849 5.05573C420.471 4.74728 419.986 4.59306 419.395 4.59306C418.845 4.59306 418.357 4.73326 417.932 5.01367C417.514 5.29408 417.187 5.69225 416.952 6.2082C416.722 6.71854 416.607 7.313 416.607 7.99159C416.607 8.687 416.722 9.29828 416.952 9.82545C417.181 10.347 417.505 10.7508 417.924 11.0368C418.343 11.3172 418.833 11.4574 419.395 11.4574C419.952 11.4574 420.425 11.32 420.815 11.0452C421.211 10.7648 421.472 10.375 421.598 9.87592H423.078C422.998 10.4255 422.797 10.919 422.476 11.3565C422.154 11.7939 421.727 12.136 421.194 12.3828C420.666 12.6295 420.066 12.7529 419.395 12.7529Z" fill="white"/>
<path d="M425.848 16C425.424 15.9888 425.149 15.9776 425.022 15.9664V14.6709C425.091 14.6765 425.332 14.6877 425.745 14.7045C425.998 14.6989 426.204 14.6709 426.365 14.6204C426.531 14.5755 426.697 14.4522 426.864 14.2503C427.03 14.054 427.191 13.7455 427.346 13.3249L427.621 12.6351L424.162 3.43218H425.78L428.327 10.6835H428.43L430.977 3.43218H432.594L428.636 13.8801C428.361 14.598 427.994 15.1279 427.535 15.47C427.076 15.8177 426.514 15.9944 425.848 16Z" fill="white"/>
<path d="M447.342 4.22292C447.227 3.67893 447.001 3.21346 446.662 2.8265C446.324 2.43393 445.911 2.1367 445.423 1.93481C444.942 1.73291 444.422 1.63197 443.866 1.63197C443.103 1.63197 442.418 1.81984 441.81 2.19558C441.207 2.57133 440.731 3.12373 440.381 3.85279C440.031 4.58184 439.856 5.45671 439.856 6.47739C439.856 7.49246 440.031 8.36453 440.381 9.09359C440.731 9.82264 441.207 10.375 441.81 10.7508C442.418 11.1265 443.103 11.3172 443.866 11.3228C444.422 11.3172 444.942 11.2163 445.423 11.02C445.905 10.8181 446.315 10.5237 446.654 10.1367C446.992 9.74974 447.222 9.28707 447.342 8.74869H448.891C448.742 9.56186 448.432 10.2713 447.962 10.877C447.491 11.477 446.901 11.9369 446.189 12.2566C445.484 12.5762 444.709 12.7361 443.866 12.7361C442.799 12.7361 441.847 12.4809 441.009 11.9706C440.178 11.4602 439.527 10.734 439.056 9.7918C438.592 8.84402 438.359 7.73922 438.359 6.47739C438.359 5.21556 438.592 4.11356 439.056 3.1714C439.527 2.22362 440.178 1.49457 441.009 0.984227C441.847 0.473887 442.799 0.218717 443.866 0.218717C444.709 0.218717 445.484 0.378549 446.189 0.698212C446.895 1.01227 447.483 1.47213 447.953 2.07781C448.429 2.67788 448.742 3.39292 448.891 4.22292H447.342Z" fill="white"/>
<path d="M452.35 12.5678H450.87V0.386961H452.35V4.86225H452.47C452.952 3.83035 453.87 3.31441 455.224 3.31441C456.21 3.31441 456.988 3.60603 457.556 4.18927C458.123 4.76691 458.407 5.62496 458.407 6.76341V12.5678H456.927V6.86435C456.927 6.14651 456.738 5.59131 456.36 5.19874C455.981 4.80617 455.453 4.60988 454.776 4.60988C454.306 4.60988 453.887 4.70803 453.52 4.90431C453.159 5.09499 452.872 5.3782 452.66 5.75394C452.453 6.12408 452.35 6.56712 452.35 7.08307V12.5678Z" fill="white"/>
<path d="M464.603 12.7529C463.759 12.7529 463.014 12.5594 462.365 12.1725C461.723 11.7799 461.224 11.2275 460.868 10.5152C460.513 9.80301 460.335 8.97862 460.335 8.04206C460.335 7.0999 460.513 6.2727 460.868 5.56046C461.224 4.84823 461.723 4.29583 462.365 3.90326C463.014 3.51069 463.759 3.31441 464.603 3.31441C465.44 3.31441 466.18 3.51069 466.822 3.90326C467.465 4.29583 467.961 4.84823 468.311 5.56046C468.661 6.2727 468.836 7.0999 468.836 8.04206C468.836 8.97862 468.661 9.80301 468.311 10.5152C467.961 11.2275 467.465 11.7799 466.822 12.1725C466.18 12.5594 465.44 12.7529 464.603 12.7529ZM461.815 8.04206C461.82 8.67017 461.924 9.24501 462.125 9.76656C462.331 10.2881 462.644 10.7031 463.062 11.0116C463.481 11.32 463.995 11.4742 464.603 11.4742C465.205 11.4742 465.713 11.32 466.126 11.0116C466.539 10.7031 466.845 10.2881 467.046 9.76656C467.253 9.24501 467.356 8.67017 467.356 8.04206C467.356 7.41395 467.253 6.83912 467.046 6.31756C466.845 5.796 466.539 5.3782 466.126 5.06414C465.713 4.75009 465.205 4.59306 464.603 4.59306C463.995 4.59306 463.481 4.75009 463.062 5.06414C462.644 5.3782 462.331 5.796 462.125 6.31756C461.924 6.83912 461.82 7.41395 461.815 8.04206Z" fill="white"/>
<path d="M470.781 3.43218H472.26V12.5678H470.781V3.43218ZM471.52 1.91798C471.239 1.91798 470.996 1.82545 470.789 1.64038C470.588 1.45531 470.488 1.23379 470.488 0.975815C470.488 0.706625 470.585 0.476691 470.781 0.286015C470.981 0.0953382 471.222 0 471.503 0C471.796 0 472.045 0.0925342 472.252 0.277603C472.458 0.462671 472.564 0.6898 472.57 0.958991C472.564 1.22257 472.458 1.4497 472.252 1.64038C472.051 1.82545 471.807 1.91798 471.52 1.91798Z" fill="white"/>
<path d="M478.438 12.7529C477.572 12.7529 476.815 12.5538 476.167 12.1556C475.524 11.7574 475.031 11.2022 474.687 10.49C474.343 9.77217 474.171 8.95619 474.171 8.04206C474.171 7.12233 474.346 6.30634 474.695 5.59411C475.051 4.87627 475.55 4.31826 476.193 3.92008C476.835 3.5163 477.572 3.31441 478.404 3.31441C479.058 3.31441 479.652 3.43498 480.185 3.67613C480.724 3.91167 481.163 4.24816 481.502 4.68559C481.84 5.12303 482.046 5.62496 482.121 6.19138H480.641C480.526 5.73712 480.277 5.35857 479.893 5.05573C479.514 4.74728 479.029 4.59306 478.438 4.59306C477.888 4.59306 477.4 4.73326 476.976 5.01367C476.557 5.29408 476.23 5.69225 475.995 6.2082C475.765 6.71854 475.651 7.313 475.651 7.99159C475.651 8.687 475.765 9.29828 475.995 9.82545C476.224 10.347 476.548 10.7508 476.967 11.0368C477.386 11.3172 477.876 11.4574 478.438 11.4574C478.995 11.4574 479.468 11.32 479.858 11.0452C480.254 10.7648 480.515 10.375 480.641 9.87592H482.121C482.041 10.4255 481.84 10.919 481.519 11.3565C481.198 11.7939 480.77 12.136 480.237 12.3828C479.709 12.6295 479.11 12.7529 478.438 12.7529Z" fill="white"/>
<path d="M487.869 12.7529C486.98 12.7529 486.205 12.5594 485.546 12.1725C484.886 11.7855 484.378 11.2387 484.023 10.5321C483.673 9.82545 483.498 9.00666 483.498 8.07571C483.498 7.14476 483.673 6.32036 484.023 5.60252C484.378 4.87907 484.874 4.31826 485.511 3.92008C486.154 3.5163 486.894 3.31441 487.731 3.31441C488.437 3.31441 489.093 3.46863 489.702 3.77708C490.31 4.07992 490.803 4.57343 491.181 5.25762C491.566 5.93621 491.758 6.80827 491.758 7.87382V8.4795H484.978C485.001 9.11321 485.135 9.6544 485.382 10.103C485.635 10.5517 485.973 10.8938 486.397 11.1293C486.822 11.3593 487.312 11.4742 487.869 11.4742C488.397 11.4742 488.841 11.3789 489.202 11.1882C489.57 10.9919 489.848 10.7396 490.037 10.4311H491.62C491.471 10.8966 491.222 11.306 490.872 11.6593C490.528 12.007 490.097 12.2762 489.581 12.4669C489.071 12.6576 488.5 12.7529 487.869 12.7529ZM490.261 7.25131C490.261 6.74658 490.155 6.29232 489.942 5.88854C489.736 5.48475 489.441 5.16789 489.056 4.93796C488.678 4.70803 488.236 4.59306 487.731 4.59306C487.209 4.59306 486.744 4.71363 486.337 4.95478C485.936 5.19593 485.617 5.52121 485.382 5.9306C485.153 6.33438 485.021 6.77462 484.986 7.25131H490.261Z" fill="white"/>
<path d="M498.882 5.80442C498.773 5.41185 498.561 5.1062 498.246 4.88749C497.936 4.66316 497.517 4.54819 496.989 4.54259C496.611 4.54259 496.272 4.60428 495.974 4.72766C495.676 4.85103 495.441 5.01928 495.269 5.23239C495.096 5.43989 495.01 5.66982 495.01 5.92219C495.016 6.22503 495.148 6.483 495.406 6.69611C495.664 6.90361 496.066 7.07185 496.611 7.20084L498.005 7.53733C498.836 7.72801 499.459 8.03084 499.872 8.44585C500.285 8.85524 500.494 9.3768 500.5 10.0105C500.494 10.5433 500.348 11.0172 500.061 11.4322C499.774 11.8472 499.356 12.1725 498.805 12.408C498.254 12.6379 497.597 12.7529 496.835 12.7529C495.791 12.7585 494.962 12.5398 494.348 12.0967C493.734 11.6537 493.364 11.0144 493.238 10.1788H494.787C494.959 11.0536 495.618 11.4911 496.766 11.4911C497.448 11.4911 497.985 11.3677 498.375 11.1209C498.771 10.8686 498.968 10.5265 498.968 10.0946C498.968 9.76937 498.845 9.50018 498.598 9.28707C498.352 9.07396 497.965 8.90571 497.437 8.78233L496.026 8.46267C495.217 8.2776 494.597 7.97476 494.167 7.55415C493.743 7.13354 493.53 6.6176 493.53 6.00631C493.53 5.49036 493.674 5.02769 493.961 4.6183C494.253 4.2089 494.661 3.88924 495.182 3.65931C495.71 3.42937 496.313 3.31441 496.989 3.31441C497.62 3.31441 498.177 3.41816 498.659 3.62566C499.141 3.83316 499.522 4.12478 499.803 4.50053C500.09 4.87627 500.265 5.3109 500.328 5.80442H498.882Z" fill="white"/>
</svg>
