<svg width="278" height="21" viewBox="0 0 278 21" fill="none" xmlns="http://www.w3.org/2000/svg">
<path d="M0.0219842 13.1265C0.0219842 14.7931 0.0219811 15.6154 0 16.7043H2.96744C2.94546 15.5487 2.94545 14.9709 2.94545 13.1043V10.2598H6.55034C9.12212 10.2598 12.749 10.2598 14.5734 10.282V7.70425H2.94545V3.52647H7.2977C10.7267 3.52647 13.5403 3.52647 15.5626 3.5487V0.926475H0C0.0219811 1.90425 0.0219842 2.61536 0.0219842 3.77092V13.1265Z" fill="white"/>
<path d="M24.7249 16.9709C31.2752 16.9709 32.9458 15.5043 32.9458 10.5709V9.90425C32.9458 4.97092 31.2752 3.50425 24.7249 3.50425C18.1965 3.50425 16.5259 4.97092 16.5259 9.90425V10.5709C16.5259 15.5043 18.1965 16.9709 24.7249 16.9709ZM24.7249 14.3931C20.2407 14.3931 19.4055 13.5487 19.4055 10.3265V10.1487C19.4055 6.90425 20.2407 6.08203 24.7249 6.08203C29.231 6.08203 30.0443 6.90425 30.0443 10.1487V10.3265C30.0443 13.5487 29.231 14.3931 24.7249 14.3931Z" fill="white"/>
<path d="M35.6674 13.1487C35.6674 14.8154 35.6674 15.7265 35.6455 16.7043H38.547C38.525 15.7265 38.525 14.8598 38.525 13.1487V10.4376C38.525 6.90425 39.4042 6.12647 43.0091 6.12647C46.548 6.12647 46.9877 6.63759 46.9877 8.92647V9.34869L49.7353 9.30425C49.7573 8.79314 49.7573 8.43759 49.7573 8.03759C49.7573 4.45981 48.7242 3.50425 43.9763 3.50425C41.0748 3.50425 39.3163 4.25981 38.3711 5.7487L38.3491 3.77092H35.6455C35.6674 4.63759 35.6674 5.48203 35.6674 7.01536V13.1487Z" fill="white"/>
<path d="M58.9632 15.2598C62.1944 15.2598 64.0408 14.5265 65.03 13.1931V14.682C64.986 16.7487 64.2386 17.6598 59.3149 17.6598C55.1825 17.6598 54.501 17.1265 54.501 15.9709L51.7974 16.0598C51.7974 19.1487 53.1162 20.082 59.3589 20.082C66.173 20.082 67.8435 18.7931 67.8435 15.1265C67.8435 13.3931 67.8215 12.1043 67.8215 10.0376V6.70425C67.8215 5.5487 67.8215 4.63759 67.8435 3.77092H65.1399L65.1179 5.61536C64.1287 4.23759 62.2603 3.50425 58.9632 3.50425C53.402 3.50425 51.4457 4.59314 51.4457 9.28203V9.48203C51.4457 14.1931 53.5119 15.2598 58.9632 15.2598ZM59.7106 12.7487C55.2704 12.7487 54.3252 11.9265 54.3252 9.45981V9.28203C54.3252 6.83759 55.4462 6.01536 59.6886 6.01536C64.0848 6.01536 64.964 6.85981 64.964 9.28203C64.964 11.7487 63.9968 12.7487 59.7106 12.7487Z" fill="white"/>
<path d="M78.7466 16.9709C85.297 16.9709 86.9675 15.5043 86.9675 10.5709V9.90425C86.9675 4.97092 85.297 3.50425 78.7466 3.50425C72.2183 3.50425 70.5477 4.97092 70.5477 9.90425V10.5709C70.5477 15.5043 72.2183 16.9709 78.7466 16.9709ZM78.7466 14.3931C74.2625 14.3931 73.4272 13.5487 73.4272 10.3265V10.1487C73.4272 6.90425 74.2625 6.08203 78.7466 6.08203C83.2527 6.08203 84.066 6.90425 84.066 10.1487V10.3265C84.066 13.5487 83.2527 14.3931 78.7466 14.3931Z" fill="white"/>
<path d="M90.5025 8.48203C90.5025 9.77092 90.4805 11.0598 90.4805 12.082C90.4805 15.882 91.7334 16.8154 97.1408 16.8154C98.042 16.8154 98.8993 16.7709 99.7126 16.7043L99.6906 14.1931C98.8113 14.2598 98.3497 14.282 97.3826 14.282C94.1074 14.282 93.36 13.9487 93.36 11.3931V6.28203H99.6906V3.77092H93.36C93.36 2.65981 93.36 1.81536 93.382 1.23759L90.4805 1.28203C90.5025 2.28203 90.5025 2.99314 90.5025 3.77092C89.7991 3.77092 89.0078 3.77092 88.1945 3.77092V6.28203H90.5025V8.48203Z" fill="white"/>
<path d="M110.399 16.7043C110.399 18.0376 110.399 19.1487 110.377 19.8154H113.3C113.278 18.9265 113.278 17.2598 113.278 14.9043C114.311 16.282 116.136 16.9709 119.235 16.9709C125.17 16.9709 126.774 15.5487 126.774 10.5709V9.90425C126.774 4.92648 125.192 3.50425 119.345 3.50425C116.048 3.50425 114.157 4.25981 113.146 5.72648V3.77092H110.377C110.399 4.70425 110.399 5.52647 110.399 6.59314V16.7043ZM113.256 10.3265V10.1487C113.256 7.03759 114.135 6.12647 118.554 6.12647C123.016 6.12647 123.895 6.92648 123.895 10.1487V10.3265C123.895 13.5265 123.016 14.3487 118.444 14.3487C114.135 14.3487 113.256 13.4598 113.256 10.3265Z" fill="white"/>
<path d="M135.853 16.9709C139.392 16.9709 141.238 16.282 142.118 15.1043L142.162 16.7043H144.755C144.733 14.9487 144.733 13.8154 144.733 12.482C144.733 10.4376 144.755 9.68203 144.755 7.92647C144.755 4.90425 143.568 3.50425 136.952 3.50425C130.907 3.50425 129.457 4.68203 129.501 7.61536L132.248 7.68203C132.226 6.30425 132.688 5.85981 136.908 5.85981C141.238 5.85981 141.898 6.48203 141.898 8.52647V10.0154C140.931 9.1487 139.106 8.70425 135.853 8.70425C130.16 8.70425 128.951 9.92647 128.951 12.882C128.951 15.7931 130.116 16.9709 135.853 16.9709ZM136.864 14.7265C132.622 14.7265 131.831 14.2376 131.831 12.8154C131.831 11.3709 132.358 10.7709 136.908 10.7709C141.282 10.7709 141.964 11.3487 141.964 12.282V12.8376C141.964 14.1265 141.282 14.7265 136.864 14.7265Z" fill="white"/>
<path d="M155.096 16.9709C161.558 16.9709 162.481 15.9043 162.481 13.1043C162.481 10.5043 161.646 9.43759 155.162 8.9487C150.568 8.57092 150.26 8.23759 150.26 7.23759C150.26 6.21536 150.853 5.79314 154.612 5.79314C158.569 5.79314 159.14 6.25981 159.14 7.45981V7.7487L161.976 7.68203C161.976 4.57092 160.965 3.50425 154.7 3.50425C148.721 3.50425 147.512 4.63759 147.512 7.39314C147.512 10.0598 148.501 10.9487 154.348 11.4154C159.228 11.7931 159.602 12.1709 159.602 13.282C159.602 14.3487 159.206 14.7709 155.162 14.7709C150.722 14.7709 150.15 14.3265 150.15 12.7931V12.4598L147.336 12.5265C147.336 16.2376 148.523 16.9709 155.096 16.9709Z" fill="white"/>
<path d="M171.901 16.9709C178.363 16.9709 179.287 15.9043 179.287 13.1043C179.287 10.5043 178.451 9.43759 171.967 8.9487C167.373 8.57092 167.065 8.23759 167.065 7.23759C167.065 6.21536 167.659 5.79314 171.417 5.79314C175.374 5.79314 175.945 6.25981 175.945 7.45981V7.7487L178.781 7.68203C178.781 4.57092 177.77 3.50425 171.505 3.50425C165.526 3.50425 164.317 4.63759 164.317 7.39314C164.317 10.0598 165.307 10.9487 171.154 11.4154C176.033 11.7931 176.407 12.1709 176.407 13.282C176.407 14.3487 176.011 14.7709 171.967 14.7709C167.527 14.7709 166.955 14.3265 166.955 12.7931V12.4598L164.142 12.5265C164.142 16.2376 165.329 16.9709 171.901 16.9709Z" fill="white"/>
<path d="M191.303 10.7709C191.787 9.41536 192.293 8.03759 192.776 6.77092H193.48C193.897 8.05981 194.359 9.48203 194.776 10.8154L196.733 16.7043H201.195C202.36 13.5487 204.932 6.79314 206.185 3.77092H203.129L201.173 9.34869C200.623 10.9043 200.074 12.5043 199.568 13.9487H198.645C198.206 12.6154 197.722 11.1043 197.238 9.63759L195.26 3.77092H191.106L189.039 9.59314C188.512 11.0598 187.962 12.5709 187.501 13.9487H186.534C186.094 12.5487 185.588 10.9709 185.105 9.45981L183.236 3.77092H180.027C181.17 6.7487 183.566 13.5487 184.621 16.7043H189.083L191.303 10.7709Z" fill="white"/>
<path d="M215.12 16.9709C221.67 16.9709 223.341 15.5043 223.341 10.5709V9.90425C223.341 4.97092 221.67 3.50425 215.12 3.50425C208.592 3.50425 206.921 4.97092 206.921 9.90425V10.5709C206.921 15.5043 208.592 16.9709 215.12 16.9709ZM215.12 14.3931C210.636 14.3931 209.8 13.5487 209.8 10.3265V10.1487C209.8 6.90425 210.636 6.08203 215.12 6.08203C219.626 6.08203 220.439 6.90425 220.439 10.1487V10.3265C220.439 13.5487 219.626 14.3931 215.12 14.3931Z" fill="white"/>
<path d="M226.063 13.1487C226.063 14.8154 226.063 15.7265 226.041 16.7043H228.942C228.92 15.7265 228.92 14.8598 228.92 13.1487V10.4376C228.92 6.90425 229.799 6.12647 233.404 6.12647C236.943 6.12647 237.383 6.63759 237.383 8.92647V9.34869L240.13 9.30425C240.152 8.79314 240.152 8.43759 240.152 8.03759C240.152 4.45981 239.119 3.50425 234.371 3.50425C231.47 3.50425 229.711 4.25981 228.766 5.7487L228.744 3.77092H226.041C226.063 4.63759 226.063 5.48203 226.063 7.01536V13.1487Z" fill="white"/>
<path d="M249.292 16.9709C252.611 16.9709 254.502 16.1931 255.513 14.682L255.535 16.7043H258.239C258.217 15.6154 258.217 14.8598 258.217 13.1487V3.77092C258.217 2.17092 258.217 1.01536 258.239 0.0820312H255.293C255.315 0.993142 255.337 3.30425 255.337 5.57092C254.304 4.19314 252.458 3.50425 249.358 3.50425C243.445 3.50425 241.841 4.92648 241.841 9.90425V10.5709C241.841 15.5487 243.445 16.9709 249.292 16.9709ZM250.084 14.3487C245.6 14.3487 244.72 13.5487 244.72 10.3265V10.1487C244.72 6.88203 245.6 6.08203 250.15 6.08203C254.48 6.08203 255.359 6.97092 255.359 10.1487V10.3265C255.359 13.4376 254.48 14.3487 250.084 14.3487Z" fill="white"/>
<path d="M269.867 12.1709C276.373 12.1709 278 10.7487 278 6.61536V6.17092C278 2.03759 276.351 0.615363 269.515 0.615363C262.415 0.615363 260.921 1.9487 260.921 5.92648L263.8 5.99314C263.756 4.01536 264.548 3.17092 269.515 3.17092C274.241 3.17092 275.077 3.97092 275.077 6.39314C275.077 8.83759 274.241 9.61536 269.823 9.61536C269.142 9.61536 268.504 9.61536 267.669 9.59314L267.625 12.1487C268.372 12.1709 269.12 12.1709 269.867 12.1709ZM267.669 13.4598V16.7043H271.032V13.4598H267.669Z" fill="white"/>
</svg>
