<svg width="206" height="15" viewBox="0 0 206 15" fill="none" xmlns="http://www.w3.org/2000/svg">
<path d="M9.056 6.38603C9.536 4.88203 10.032 3.36203 10.432 2.13003H10.912C11.296 3.37803 11.76 4.91403 12.224 6.43403L13.936 12.082H16.736C17.568 9.81003 20.16 2.89803 21.056 0.722031H19.296L17.264 6.38603C16.736 7.87403 16.192 9.34603 15.792 10.482H15.04C14.704 9.33003 14.272 7.84203 13.824 6.33803L12.112 0.722031H9.312L7.536 6.35403C7.072 7.84203 6.608 9.33003 6.256 10.482H5.52C5.12 9.34603 4.608 7.87403 4.096 6.38603L2.128 0.722031H0.256C1.12 2.89803 3.648 9.81003 4.432 12.082H7.232L9.056 6.38603ZM22.7685 9.55403C22.7685 10.722 22.7685 11.298 22.7525 12.082H24.3845C24.3685 11.282 24.3685 10.594 24.3685 9.52203V7.28203C24.3685 4.85003 25.1205 4.09803 28.2565 4.09803C31.5045 4.09803 32.1125 4.91403 32.1125 7.04203V9.55403C32.1125 10.69 32.1125 11.266 32.0965 12.082H33.7285C33.7125 11.17 33.7125 10.418 33.7125 9.58603V8.56203C33.7125 7.60203 33.7285 7.21803 33.7285 6.56203C33.7285 3.74603 32.9125 2.61003 28.6885 2.61003C26.4645 2.61003 25.0885 3.10603 24.3205 4.09803C24.3525 3.01003 24.4005 0.386031 24.4005 0.114031H22.7525C22.7685 0.802031 22.7685 1.65003 22.7685 2.80203V9.55403ZM41.3166 12.274C43.7966 12.274 45.2046 11.778 45.9086 10.994L45.9246 12.082H47.3646C47.3486 10.818 47.3486 10.002 47.3486 9.04203C47.3486 7.69803 47.3646 7.09003 47.3646 5.82603C47.3646 3.63403 46.5486 2.61003 41.8126 2.61003C37.5086 2.61003 36.5326 3.52203 36.5646 5.45803L38.1806 5.50603C38.1646 4.40203 38.5486 4.03403 41.8126 4.03403C45.1886 4.03403 45.7486 4.53003 45.7486 6.13003V7.26603C44.9966 6.67403 43.6206 6.32203 41.3166 6.32203C37.1086 6.32203 36.1966 7.20203 36.1966 9.33003C36.1966 11.41 37.0606 12.274 41.3166 12.274ZM41.7806 10.882C38.5166 10.882 37.8446 10.482 37.8446 9.33003C37.8446 8.14603 38.2766 7.65003 41.7806 7.65003C45.2206 7.65003 45.7806 8.13003 45.7806 8.85003V9.34603C45.7806 10.386 45.2206 10.882 41.7806 10.882ZM50.7336 6.32203C50.7336 7.10603 50.7176 8.01803 50.7176 8.72203C50.7176 11.474 51.5656 12.162 55.3416 12.162C56.0456 12.162 56.6376 12.13 57.1336 12.082L57.1176 10.626C56.5096 10.658 56.1416 10.674 55.4216 10.674C52.9736 10.674 52.3336 10.434 52.3336 8.49803V4.25803H57.1176V2.80203H52.3336C52.3336 2.00203 52.3336 1.36203 52.3496 0.978031L50.7176 1.01003C50.7336 1.74603 50.7336 2.27403 50.7336 2.80203C50.2216 2.80203 49.7096 2.81803 49.0536 2.80203V4.25803H50.7336V6.32203ZM58.9325 0.53003V2.49803C59.0285 2.48203 59.3485 2.48203 59.6525 2.48203C59.6045 2.69003 59.5405 2.89803 59.4765 3.10603L59.1245 4.41803H60.3725L60.9485 2.48203V0.53003H58.9325ZM68.0841 12.274C72.7401 12.274 73.3321 11.538 73.3321 9.61803C73.3321 7.71403 72.7561 7.01003 67.9561 6.61003C64.5161 6.32203 64.2761 6.03403 64.2761 5.23403C64.2761 4.38603 64.7721 4.05003 67.7801 4.05003C70.8361 4.05003 71.3161 4.41803 71.3161 5.39403V5.63403L72.9641 5.58603C72.9641 3.36203 72.1801 2.61003 67.8441 2.61003C63.5721 2.61003 62.7401 3.39403 62.7401 5.34603C62.7401 7.23403 63.4441 7.84203 67.7001 8.19403C71.4121 8.49803 71.7001 8.80203 71.7001 9.69803C71.7001 10.562 71.3641 10.93 68.1481 10.93C64.7401 10.93 64.2441 10.562 64.2441 9.26603V9.01003L62.6281 9.05803C62.6281 11.746 63.4601 12.274 68.0841 12.274ZM87.4389 12.37C88.6389 10.002 91.1509 4.97803 92.3029 2.80203H90.5749L88.5909 6.67403C88.0629 7.69803 87.5349 8.73803 87.0869 9.65003H86.1909C85.6309 8.72203 84.9749 7.66603 84.3349 6.62603L81.9989 2.80203H80.1749C81.5669 4.99403 84.0949 9.17003 85.2629 11.138H86.3189L86.0309 11.65C85.4549 12.674 85.0869 12.882 84.1429 12.882C83.5349 12.882 83.0389 12.866 82.5269 12.834L82.4789 14.274C83.0709 14.306 83.8069 14.338 84.1909 14.338C85.8229 14.338 86.7029 13.826 87.4389 12.37ZM98.797 12.274C103.421 12.274 104.637 11.218 104.637 7.68203V7.20203C104.637 3.66603 103.421 2.61003 98.797 2.61003C94.173 2.61003 92.957 3.66603 92.957 7.20203V7.68203C92.957 11.218 94.173 12.274 98.797 12.274ZM98.797 10.786C95.277 10.786 94.589 10.114 94.589 7.52203V7.36203C94.589 4.77003 95.277 4.09803 98.797 4.09803C102.317 4.09803 103.005 4.77003 103.005 7.36203V7.52203C103.005 10.114 102.317 10.786 98.797 10.786ZM106.893 6.32203C106.893 7.28203 106.877 7.66603 106.877 8.32203C106.877 11.138 107.693 12.274 111.901 12.274C114.141 12.274 115.501 11.762 116.253 10.722L116.285 12.082H117.773C117.757 11.458 117.757 10.882 117.757 9.69803V5.36203C117.757 4.09803 117.757 3.47403 117.773 2.80203H116.141C116.157 3.47403 116.157 4.06603 116.157 5.36203V7.60203C116.157 10.034 115.405 10.786 112.333 10.786C109.101 10.786 108.493 9.97003 108.493 7.84203V5.34603C108.493 3.98603 108.493 3.52203 108.509 2.80203H106.877C106.893 3.55403 106.893 4.19403 106.893 5.34603V6.32203ZM120.675 9.52203C120.675 10.786 120.675 11.41 120.659 12.082H122.291C122.275 11.41 122.275 10.818 122.275 9.52203V7.37803C122.275 4.69003 123.027 4.09803 125.779 4.09803C128.579 4.09803 128.899 4.48203 128.899 6.29003V6.61003L130.435 6.57803C130.451 6.33803 130.451 6.09803 130.451 5.90603C130.451 3.25003 129.731 2.61003 126.163 2.61003C124.179 2.61003 122.899 3.12203 122.179 4.16203L122.147 2.80203H120.659C120.675 3.42603 120.675 4.00203 120.675 5.18603V9.52203ZM143.798 12.274C148.47 12.274 149.35 11.346 149.35 9.12203L147.766 9.05803C147.766 10.258 147.334 10.85 143.814 10.85C140.406 10.85 139.638 10.226 139.558 8.06603H149.35C149.35 7.79403 149.366 7.45803 149.35 7.20203C149.302 3.66603 148.246 2.61003 143.686 2.61003C139.126 2.61003 137.91 3.66603 137.91 7.20203V7.68203C137.91 11.218 139.126 12.274 143.798 12.274ZM143.686 4.00203C146.966 4.00203 147.59 4.64203 147.654 6.69003H139.558C139.67 4.57803 140.47 4.00203 143.686 4.00203ZM151.644 9.52203C151.644 10.786 151.644 11.41 151.628 12.082H153.26C153.244 11.41 153.244 10.818 153.244 9.52203V7.28203C153.244 4.85003 153.996 4.09803 156.524 4.09803C158.732 4.09803 159.372 4.64203 159.372 6.29003V9.57003C159.372 10.802 159.372 11.298 159.356 12.082H160.988C160.972 11.106 160.972 10.402 160.972 9.52203V7.28203C160.972 4.85003 161.756 4.09803 164.268 4.09803C166.476 4.09803 167.116 4.64203 167.116 6.29003V9.55403C167.116 10.802 167.116 11.298 167.1 12.082H168.732C168.716 11.106 168.716 10.402 168.716 9.55403V8.72203C168.716 7.28203 168.732 6.46603 168.732 5.81003C168.732 3.47403 167.916 2.61003 164.748 2.61003C162.732 2.61003 161.484 3.15403 160.812 4.27403C160.412 3.07403 159.34 2.61003 157.004 2.61003C155.052 2.61003 153.82 3.12203 153.148 4.17803L153.116 2.80203H151.628C151.644 3.42603 151.644 4.00203 151.644 5.18603V9.52203ZM176.317 12.274C178.797 12.274 180.205 11.778 180.909 10.994L180.925 12.082H182.365C182.349 10.818 182.349 10.002 182.349 9.04203C182.349 7.69803 182.365 7.09003 182.365 5.82603C182.365 3.63403 181.549 2.61003 176.813 2.61003C172.509 2.61003 171.533 3.52203 171.565 5.45803L173.181 5.50603C173.165 4.40203 173.549 4.03403 176.813 4.03403C180.189 4.03403 180.749 4.53003 180.749 6.13003V7.26603C179.997 6.67403 178.621 6.32203 176.317 6.32203C172.109 6.32203 171.197 7.20203 171.197 9.33003C171.197 11.41 172.061 12.274 176.317 12.274ZM176.781 10.882C173.517 10.882 172.845 10.482 172.845 9.33003C172.845 8.14603 173.277 7.65003 176.781 7.65003C180.221 7.65003 180.781 8.13003 180.781 8.85003V9.34603C180.781 10.386 180.221 10.882 176.781 10.882ZM185.238 0.37003V1.85803H186.87V0.37003H185.238ZM185.254 9.57003C185.254 10.642 185.254 11.378 185.238 12.082H186.87C186.854 11.378 186.854 10.642 186.854 9.58603V5.50603C186.854 4.35403 186.854 3.49003 186.87 2.80203H185.238C185.254 3.49003 185.254 4.35403 185.254 5.49003V9.57003ZM189.832 9.57003C189.832 10.642 189.832 11.378 189.816 12.082H191.448C191.432 11.378 191.432 10.642 191.432 9.58603V2.81803C191.432 1.66603 191.432 0.802031 191.448 0.114031H189.816C189.832 0.802031 189.832 1.66603 189.832 2.80203V9.57003ZM200.042 9.04203C204.762 9.04203 205.978 7.98603 205.978 4.93003V4.61003C205.978 1.55403 204.778 0.498031 199.882 0.498031C194.826 0.498031 193.786 1.45803 193.786 4.29003L195.37 4.33803C195.338 2.70603 196.01 1.98603 199.882 1.98603C203.658 1.98603 204.346 2.65803 204.346 4.77003C204.346 6.88203 203.658 7.55403 200.042 7.55403C199.61 7.55403 199.146 7.55403 198.586 7.53803L198.554 9.02603C199.082 9.04203 199.562 9.04203 200.042 9.04203ZM198.602 10.13V12.082H200.618V10.13H198.602Z" fill="#9EA1AB"/>
</svg>
