<svg width="65" height="16" viewBox="0 0 65 16" fill="none" xmlns="http://www.w3.org/2000/svg">
<path d="M0.730938 11.78C0.730938 13.32 0.730938 14 0.710938 15H2.83094C2.81094 13.92 2.81094 13.54 2.81094 11.76V8.76004H6.17094C8.55094 8.76004 12.1309 8.76004 13.5309 8.78004V6.88004H2.81094V2.68004H6.99094C10.1909 2.68004 13.0309 2.68004 14.4309 2.70004V0.800039H0.710938C0.730938 1.74004 0.730938 2.34004 0.730938 3.40004V11.78Z" fill="#43FF8E"/>
<path d="M16.0583 7.80004C16.0583 9.00004 16.0383 9.48004 16.0383 10.3C16.0383 13.82 17.0583 15.24 22.3183 15.24C25.1183 15.24 26.8183 14.6 27.7583 13.3L27.7983 15H29.6583C29.6383 14.22 29.6383 13.5 29.6383 12.02V6.60004C29.6383 5.02004 29.6383 4.24004 29.6583 3.40004H27.6183C27.6383 4.24004 27.6383 4.98004 27.6383 6.60004V9.40004C27.6383 12.44 26.6983 13.38 22.8583 13.38C18.8183 13.38 18.0583 12.36 18.0583 9.70004V6.58004C18.0583 4.88004 18.0583 4.30004 18.0783 3.40004H16.0383C16.0583 4.34004 16.0583 5.14004 16.0583 6.58004V7.80004Z" fill="#43FF8E"/>
<path d="M33.2858 11.8C33.2858 13.38 33.2858 14.16 33.2658 15H35.3058C35.2858 14.16 35.2858 13.42 35.2858 11.8V9.00004C35.2858 5.96004 36.2258 5.02004 40.1458 5.02004C44.2058 5.02004 44.9658 6.04004 44.9658 8.70004V11.82C44.9658 13.52 44.9658 14.1 44.9458 15H46.9858C46.9658 14.06 46.9658 13.26 46.9658 11.82V10.6C46.9658 9.40004 46.9858 8.92004 46.9858 8.10004C46.9858 4.58004 45.9658 3.16004 40.6858 3.16004C37.8458 3.16004 36.1058 3.80004 35.1658 5.10004L35.1258 3.40004H33.2658C33.2858 4.18004 33.2858 4.90004 33.2858 6.38004V11.8Z" fill="#43FF8E"/>
<path d="M50.6109 11.86C50.6109 13.2 50.6109 14.12 50.5909 15H52.6309C52.6109 14.12 52.6109 13.2 52.6109 11.88V10.1H55.6709C56.2909 10.6 56.9909 11.2 57.7709 11.8L61.7909 15H64.5709L64.6109 14.96C62.6509 13.42 59.3509 10.72 57.2509 9.04004C59.2709 7.38004 62.3109 4.94004 64.3109 3.44004L64.2709 3.40004H61.6109L58.1109 6.18004C57.2309 6.88004 56.3509 7.60004 55.6109 8.22004H52.6109V3.42004C52.6109 1.98004 52.6109 0.880039 52.6309 0.0400391H50.5909C50.6109 0.900039 50.6109 1.98004 50.6109 3.40004V11.86Z" fill="#43FF8E"/>
</svg>
