<svg width="90" height="15" viewBox="0 0 90 15" fill="none" xmlns="http://www.w3.org/2000/svg">
<path opacity="0.25" d="M0.568 12H2.264C2.248 11.136 2.248 10.832 2.248 9.408V6.88H11.608V9.424C11.608 10.656 11.608 11.2 11.592 12H13.288C13.272 11.136 13.272 10.832 13.272 9.408V2.72C13.272 1.872 13.272 1.408 13.288 0.639999H11.592C11.608 1.408 11.608 1.872 11.608 2.72V5.376H2.248V2.72C2.248 1.872 2.248 1.408 2.264 0.639999H0.568C0.584 1.408 0.584 1.872 0.584 2.72V9.424C0.584 10.656 0.584 11.2 0.568 12ZM21.0354 12.192C23.5154 12.192 24.9234 11.696 25.6274 10.912L25.6434 12H27.0834C27.0674 10.736 27.0674 9.92 27.0674 8.96C27.0674 7.616 27.0834 7.008 27.0834 5.744C27.0834 3.552 26.2674 2.528 21.5314 2.528C17.2274 2.528 16.2514 3.44 16.2834 5.376L17.8994 5.424C17.8834 4.32 18.2674 3.952 21.5314 3.952C24.9074 3.952 25.4674 4.448 25.4674 6.048V7.184C24.7154 6.592 23.3394 6.24 21.0354 6.24C16.8274 6.24 15.9154 7.12 15.9154 9.248C15.9154 11.328 16.7794 12.192 21.0354 12.192ZM21.4994 10.8C18.2354 10.8 17.5634 10.4 17.5634 9.248C17.5634 8.064 17.9954 7.568 21.4994 7.568C24.9394 7.568 25.4994 8.048 25.4994 8.768V9.264C25.4994 10.304 24.9394 10.8 21.4994 10.8ZM34.7404 12.192C39.3964 12.192 39.9884 11.456 39.9884 9.536C39.9884 7.632 39.4124 6.928 34.6124 6.528C31.1724 6.24 30.9324 5.952 30.9324 5.152C30.9324 4.304 31.4284 3.968 34.4364 3.968C37.4924 3.968 37.9724 4.336 37.9724 5.312V5.552L39.6204 5.504C39.6204 3.28 38.8364 2.528 34.5004 2.528C30.2284 2.528 29.3964 3.312 29.3964 5.264C29.3964 7.152 30.1004 7.76 34.3564 8.112C38.0684 8.416 38.3564 8.72 38.3564 9.616C38.3564 10.48 38.0204 10.848 34.8044 10.848C31.3964 10.848 30.9004 10.48 30.9004 9.184V8.928L29.2844 8.976C29.2844 11.664 30.1164 12.192 34.7404 12.192ZM42.206 9.472C42.206 10.64 42.206 11.216 42.19 12H43.822C43.806 11.2 43.806 10.512 43.806 9.44V7.2C43.806 4.768 44.558 4.016 47.694 4.016C50.942 4.016 51.55 4.832 51.55 6.96V9.472C51.55 10.608 51.55 11.184 51.534 12H53.166C53.15 11.088 53.15 10.336 53.15 9.504V8.48C53.15 7.52 53.166 7.136 53.166 6.48C53.166 3.664 52.35 2.528 48.126 2.528C45.902 2.528 44.526 3.024 43.758 4.016C43.79 2.928 43.838 0.304 43.838 0.0319996H42.19C42.206 0.719999 42.206 1.568 42.206 2.72V9.472ZM56.5461 6.24C56.5461 7.024 56.5301 7.936 56.5301 8.64C56.5301 11.392 57.3781 12.08 61.1541 12.08C61.8581 12.08 62.4501 12.048 62.9461 12L62.9301 10.544C62.3221 10.576 61.9541 10.592 61.2341 10.592C58.7861 10.592 58.1461 10.352 58.1461 8.416V4.176H62.9301V2.72H58.1461C58.1461 1.92 58.1461 1.28 58.1621 0.896L56.5301 0.927999C56.5461 1.664 56.5461 2.192 56.5461 2.72C56.0341 2.72 55.5221 2.736 54.8661 2.72V4.176H56.5461V6.24ZM69.801 12.192C72.281 12.192 73.689 11.696 74.393 10.912L74.409 12H75.849C75.833 10.736 75.833 9.92 75.833 8.96C75.833 7.616 75.849 7.008 75.849 5.744C75.849 3.552 75.033 2.528 70.297 2.528C65.993 2.528 65.017 3.44 65.049 5.376L66.665 5.424C66.649 4.32 67.033 3.952 70.297 3.952C73.673 3.952 74.233 4.448 74.233 6.048V7.184C73.481 6.592 72.105 6.24 69.801 6.24C65.593 6.24 64.681 7.12 64.681 9.248C64.681 11.328 65.545 12.192 69.801 12.192ZM70.265 10.8C67.001 10.8 66.329 10.4 66.329 9.248C66.329 8.064 66.761 7.568 70.265 7.568C73.705 7.568 74.265 8.048 74.265 8.768V9.264C74.265 10.304 73.705 10.8 70.265 10.8ZM83.698 11.072C86.002 11.072 87.394 10.56 88.162 9.648L88.146 10.56C88.114 12.208 87.506 12.976 83.698 12.976C80.45 12.976 79.89 12.528 79.89 11.584L78.338 11.648C78.338 13.76 79.41 14.432 83.698 14.432C88.562 14.432 89.746 13.488 89.746 10.768C89.746 9.52 89.73 8.56 89.73 7.2V4.8C89.73 4.016 89.73 3.408 89.746 2.72H88.258L88.242 3.952C87.474 3.024 86.066 2.528 83.682 2.528C79.65 2.528 78.082 3.312 78.082 6.72V6.88C78.082 10.288 79.73 11.072 83.698 11.072ZM79.714 6.88V6.72C79.714 4.672 80.626 3.984 83.97 3.984C87.394 3.984 88.114 4.656 88.13 6.72C88.13 8.768 87.33 9.616 83.986 9.616C80.466 9.616 79.714 8.928 79.714 6.88Z" fill="white"/>
</svg>
