<svg width="29" height="30" viewBox="0 0 29 30" fill="none" xmlns="http://www.w3.org/2000/svg">
<path d="M18.177 24.6748C16.9949 24.9813 15.769 25.1272 14.4993 25.1272C9.72715 25.1272 5.45114 22.8944 2.53236 19.3627C0.489214 16.8963 0.489214 13.0873 2.53236 10.6355C2.76586 10.3436 3.02855 10.0663 3.29124 9.78906" stroke="#535559" stroke-width="1.5" stroke-linecap="round" stroke-linejoin="round"/>
<path d="M26.4658 19.3628C25.2983 20.7638 23.9119 21.9605 22.3795 22.8946L6.60352 7.10396C8.92394 5.67376 11.6092 4.87109 14.4988 4.87109C19.271 4.87109 23.547 7.10397 26.4658 10.6357C28.5089 13.0875 28.5089 16.9111 26.4658 19.3628Z" stroke="#535559" stroke-width="1.5" stroke-linecap="round" stroke-linejoin="round"/>
<path d="M18.9947 14.9988C18.9947 16.2393 18.484 17.363 17.6813 18.1803L11.3184 11.8174C12.121 11.0001 13.2593 10.5039 14.4998 10.5039C16.9954 10.5039 18.9947 12.5033 18.9947 14.9988Z" stroke="#535559" stroke-width="1.5" stroke-linecap="round" stroke-linejoin="round"/>
<path d="M1 1.5L6.60405 7.10405L11.3179 11.8179L17.6808 18.1808L22.3946 22.8946L27.9987 28.4987" stroke="#535559" stroke-width="1.5" stroke-linecap="round" stroke-linejoin="round"/>
</svg>
