<svg width="93" height="18" viewBox="0 0 93 18" fill="none" xmlns="http://www.w3.org/2000/svg">
<path d="M0.959961 15H3.07996C3.05996 13.92 3.05996 13.54 3.05996 11.76V8.60004H14.76V11.78C14.76 13.32 14.76 14 14.74 15H16.86C16.84 13.92 16.84 13.54 16.84 11.76V3.40004C16.84 2.34004 16.84 1.76004 16.86 0.800039H14.74C14.76 1.76004 14.76 2.34004 14.76 3.40004V6.72004H3.05996V3.40004C3.05996 2.34004 3.05996 1.76004 3.07996 0.800039H0.959961C0.979961 1.76004 0.979961 2.34004 0.979961 3.40004V11.78C0.979961 13.32 0.979961 14 0.959961 15Z" fill="white"/>
<path d="M20.6642 0.360038V2.22004H22.7042V0.360038H20.6642ZM20.6842 11.86C20.6842 13.2 20.6842 14.12 20.6642 15H22.7042C22.6842 14.12 22.6842 13.2 22.6842 11.88V6.78004C22.6842 5.34004 22.6842 4.26004 22.7042 3.40004H20.6642C20.6842 4.26004 20.6842 5.34004 20.6842 6.76004V11.86Z" fill="white"/>
<path d="M26.3668 15C26.3668 16.2 26.3668 17.2 26.3468 17.8H28.4068C28.3868 16.98 28.3868 15.54 28.3868 13.44C29.3868 14.66 31.1068 15.24 33.9068 15.24C39.3868 15.24 40.9268 13.92 40.9268 9.50004V8.90004C40.9268 4.48004 39.3868 3.16004 34.0268 3.16004C31.0668 3.16004 29.2668 3.80004 28.2868 5.10004V3.40004H26.3468C26.3668 4.24004 26.3668 4.96004 26.3668 5.88004V15ZM28.3668 9.28004V9.12004C28.3668 5.96004 29.2668 5.02004 33.6268 5.02004C38.0068 5.02004 38.8868 5.86004 38.8868 9.10004V9.30004C38.8868 12.54 38.0068 13.38 33.5268 13.38C29.2668 13.38 28.3668 12.46 28.3668 9.28004Z" fill="white"/>
<path d="M43.7887 11.84C43.7887 13.3 43.7887 14.02 43.7687 15H45.8087C45.7887 14 45.7887 13.14 45.7887 11.8V9.00004C45.7887 5.96004 46.7287 5.02004 50.6487 5.02004C54.7087 5.02004 55.4687 6.04004 55.4687 8.70004V11.84C55.4687 13.26 55.4687 13.98 55.4487 15H57.4887C57.4687 13.86 57.4687 12.92 57.4687 11.88V10.6C57.4687 9.40004 57.4887 8.92004 57.4887 8.10004C57.4887 4.58004 56.4687 3.16004 51.1887 3.16004C48.4087 3.16004 46.6887 3.78004 45.7287 5.02004C45.7687 3.66004 45.8287 0.380039 45.8287 0.0400391H43.7687C43.7887 0.900039 43.7887 1.96004 43.7887 3.40004V11.84Z" fill="white"/>
<path d="M67.5939 15.24C73.3739 15.24 74.8939 13.92 74.8939 9.50004V8.90004C74.8939 4.48004 73.3739 3.16004 67.5939 3.16004C61.8139 3.16004 60.2939 4.48004 60.2939 8.90004V9.50004C60.2939 13.92 61.8139 15.24 67.5939 15.24ZM67.5939 13.38C63.1939 13.38 62.3339 12.54 62.3339 9.30004V9.10004C62.3339 5.86004 63.1939 5.02004 67.5939 5.02004C71.9939 5.02004 72.8539 5.86004 72.8539 9.10004V9.30004C72.8539 12.54 71.9939 13.38 67.5939 13.38Z" fill="white"/>
<path d="M77.7536 15C77.7536 16.2 77.7536 17.2 77.7336 17.8H79.7936C79.7736 16.98 79.7736 15.54 79.7736 13.44C80.7736 14.66 82.4936 15.24 85.2936 15.24C90.7736 15.24 92.3136 13.92 92.3136 9.50004V8.90004C92.3136 4.48004 90.7736 3.16004 85.4136 3.16004C82.4536 3.16004 80.6536 3.80004 79.6736 5.10004V3.40004H77.7336C77.7536 4.24004 77.7536 4.96004 77.7536 5.88004V15ZM79.7536 9.28004V9.12004C79.7536 5.96004 80.6536 5.02004 85.0136 5.02004C89.3936 5.02004 90.2736 5.86004 90.2736 9.10004V9.30004C90.2736 12.54 89.3936 13.38 84.9136 13.38C80.6536 13.38 79.7536 12.46 79.7536 9.28004Z" fill="white"/>
</svg>
