<svg width="93" height="18" viewBox="0 0 93 18" fill="none" xmlns="http://www.w3.org/2000/svg">
<path d="M0.960938 15H3.08094C3.06094 13.92 3.06094 13.54 3.06094 11.76V8.60004H14.7609V11.78C14.7609 13.32 14.7609 14 14.7409 15H16.8609C16.8409 13.92 16.8409 13.54 16.8409 11.76V3.40004C16.8409 2.34004 16.8409 1.76004 16.8609 0.800039H14.7409C14.7609 1.76004 14.7609 2.34004 14.7609 3.40004V6.72004H3.06094V3.40004C3.06094 2.34004 3.06094 1.76004 3.08094 0.800039H0.960938C0.980938 1.76004 0.980938 2.34004 0.980938 3.40004V11.78C0.980938 13.32 0.980938 14 0.960938 15Z" fill="#E965FF"/>
<path d="M20.6652 0.360038V2.22004H22.7052V0.360038H20.6652ZM20.6852 11.86C20.6852 13.2 20.6852 14.12 20.6652 15H22.7052C22.6852 14.12 22.6852 13.2 22.6852 11.88V6.78004C22.6852 5.34004 22.6852 4.26004 22.7052 3.40004H20.6652C20.6852 4.26004 20.6852 5.34004 20.6852 6.76004V11.86Z" fill="#E965FF"/>
<path d="M26.3678 15C26.3678 16.2 26.3678 17.2 26.3478 17.8H28.4078C28.3878 16.98 28.3878 15.54 28.3878 13.44C29.3878 14.66 31.1078 15.24 33.9078 15.24C39.3878 15.24 40.9278 13.92 40.9278 9.50004V8.90004C40.9278 4.48004 39.3878 3.16004 34.0278 3.16004C31.0678 3.16004 29.2678 3.80004 28.2878 5.10004V3.40004H26.3478C26.3678 4.24004 26.3678 4.96004 26.3678 5.88004V15ZM28.3678 9.28004V9.12004C28.3678 5.96004 29.2678 5.02004 33.6278 5.02004C38.0078 5.02004 38.8878 5.86004 38.8878 9.10004V9.30004C38.8878 12.54 38.0078 13.38 33.5278 13.38C29.2678 13.38 28.3678 12.46 28.3678 9.28004Z" fill="#E965FF"/>
<path d="M43.7897 11.84C43.7897 13.3 43.7897 14.02 43.7697 15H45.8097C45.7897 14 45.7897 13.14 45.7897 11.8V9.00004C45.7897 5.96004 46.7297 5.02004 50.6497 5.02004C54.7097 5.02004 55.4697 6.04004 55.4697 8.70004V11.84C55.4697 13.26 55.4697 13.98 55.4497 15H57.4897C57.4697 13.86 57.4697 12.92 57.4697 11.88V10.6C57.4697 9.40004 57.4897 8.92004 57.4897 8.10004C57.4897 4.58004 56.4697 3.16004 51.1897 3.16004C48.4097 3.16004 46.6897 3.78004 45.7297 5.02004C45.7697 3.66004 45.8297 0.380039 45.8297 0.0400391H43.7697C43.7897 0.900039 43.7897 1.96004 43.7897 3.40004V11.84Z" fill="#E965FF"/>
<path d="M67.5948 15.24C73.3748 15.24 74.8948 13.92 74.8948 9.50004V8.90004C74.8948 4.48004 73.3748 3.16004 67.5948 3.16004C61.8148 3.16004 60.2948 4.48004 60.2948 8.90004V9.50004C60.2948 13.92 61.8148 15.24 67.5948 15.24ZM67.5948 13.38C63.1948 13.38 62.3348 12.54 62.3348 9.30004V9.10004C62.3348 5.86004 63.1948 5.02004 67.5948 5.02004C71.9949 5.02004 72.8548 5.86004 72.8548 9.10004V9.30004C72.8548 12.54 71.9949 13.38 67.5948 13.38Z" fill="#E965FF"/>
<path d="M77.7545 15C77.7545 16.2 77.7545 17.2 77.7345 17.8H79.7945C79.7745 16.98 79.7745 15.54 79.7745 13.44C80.7745 14.66 82.4945 15.24 85.2945 15.24C90.7745 15.24 92.3145 13.92 92.3145 9.50004V8.90004C92.3145 4.48004 90.7745 3.16004 85.4145 3.16004C82.4545 3.16004 80.6545 3.80004 79.6745 5.10004V3.40004H77.7345C77.7545 4.24004 77.7545 4.96004 77.7545 5.88004V15ZM79.7545 9.28004V9.12004C79.7545 5.96004 80.6545 5.02004 85.0145 5.02004C89.3945 5.02004 90.2745 5.86004 90.2745 9.10004V9.30004C90.2745 12.54 89.3945 13.38 84.9145 13.38C80.6545 13.38 79.7545 12.46 79.7545 9.28004Z" fill="#E965FF"/>
</svg>
