<svg width="263" height="25" viewBox="0 0 263 25" fill="none" xmlns="http://www.w3.org/2000/svg">
<path d="M26.3503 25C35.8556 14.0141 10.7086 8.74648 0 8.35211L1.44385 1H45L43.0749 8.35211H25.7487C41.631 12.3239 40.0668 22.0986 37.7808 25H26.3503Z" fill="#5200FF"/>
<path d="M45.9903 19.0818C45.5805 21.3476 45.3073 23.0385 45 24.4926H53.1958C53.4349 23.0046 53.7422 21.3138 54.1179 19.0818L54.1862 18.6084H76.4194L77.4439 20.4345C78.2635 21.9225 79.0148 23.3428 79.5612 24.4926H88.4058C87.4838 22.8017 86.5276 21.0094 85.6397 19.2509C85.1958 18.4393 84.7518 17.6276 84.2738 16.816C88.2009 15.7677 89.9425 13.7048 90.6597 9.57908C91.8207 3.08611 88.1326 0.482163 79.4246 0.482163H49.2687C49.0979 1.66578 48.8589 2.91703 48.5857 4.54027L45.9903 19.0818ZM78.4684 7.1104C81.8833 7.1104 82.737 7.85439 82.4297 9.57908C82.1223 11.3038 80.9954 12.1154 77.5805 12.1154H55.3472L56.2693 7.1104H78.4684Z" fill="#5200FF"/>
<path d="M104.095 0.482163C100.748 5.9606 93.5623 19.8934 90.6597 24.4926H99.8458L101.587 21.3476H125.576L126.258 24.4926H134.625C133.362 19.8934 129.776 5.9606 128.41 0.482163H104.095ZM105.207 14.8884C106.573 12.4197 107.2 9.88344 108.463 7.51621H122.707C123.151 9.95107 123.697 12.555 124.244 15.0575H105.105L105.207 14.8884Z" fill="#5200FF"/>
<path d="M160.633 24.9661C173.781 24.9661 178.186 22.8017 179.586 14.3135L171.493 14.1783C171.049 16.7484 168.658 17.9658 161.385 17.9658C154.452 17.9658 144.229 18.0765 145.014 13.6464V11.3271C145.834 6.86314 154.452 7.00897 161.385 7.00897C168.761 7.00897 172.517 8.12493 172.039 10.7965L180.167 10.6612C181.533 2.74794 175.42 0.00873503 162.273 0.00873503C149.159 0.00873503 138.595 -0.752844 136.75 11.9463V13.6464C137.716 26.2094 147.52 24.9661 160.633 24.9661Z" fill="#5200FF"/>
<path d="M183.561 19.0818C183.151 21.3476 182.878 23.0046 182.571 24.4926H190.766C191.005 22.9708 191.313 21.3138 191.688 19.0818L192.337 15.4971H203.894C205.328 17.2895 206.455 18.7098 207.309 19.8258L211.031 24.4926H220.832L220.866 24.425C218.783 21.9901 213.66 15.6324 210.655 11.8449C214.856 8.32783 221.481 2.78176 224.213 0.549799L224.178 0.482163H213.934L207.753 5.9606C206.762 6.80604 205.669 7.78675 204.338 8.90273H193.498L194.284 4.54027C194.591 2.84939 194.796 1.73341 195.035 0.482163H186.839C186.669 1.69959 186.43 2.91703 186.156 4.54027L183.561 19.0818Z" fill="#5200FF"/>
<path d="M225.454 9.26409L224.224 16.1629H236.771L238 9.26409H225.454Z" fill="#5200FF"/>
<path d="M261.887 25H243L244.113 18.6H250.833L252.794 7.26129L245.606 9.33559L246.759 2.9356L256.042 0H262.006L258.746 18.6H263L261.887 25Z" fill="#5200FF"/>
</svg>
