<svg width="84" height="16" viewBox="0 0 84 16" fill="none" xmlns="http://www.w3.org/2000/svg">
<path d="M0.710938 14.9998H2.83094C2.81094 13.9198 2.81094 13.5398 2.81094 11.7598V8.5998H14.5109V11.7798C14.5109 13.3198 14.5109 13.9998 14.4909 14.9998H16.6109C16.5909 13.9198 16.5909 13.5398 16.5909 11.7598V3.39981C16.5909 2.33981 16.5909 1.7598 16.6109 0.799805H14.4909C14.5109 1.7598 14.5109 2.33981 14.5109 3.39981V6.7198H2.81094V3.39981C2.81094 2.33981 2.81094 1.7598 2.83094 0.799805H0.710938C0.730938 1.7598 0.730938 2.33981 0.730938 3.39981V11.7798C0.730938 13.3198 0.730938 13.9998 0.710938 14.9998Z" fill="#43FF8E"/>
<path d="M26.9152 15.2398C32.6952 15.2398 34.2152 13.9198 34.2152 9.49981V8.89981C34.2152 4.4798 32.6952 3.15981 26.9152 3.15981C21.1352 3.15981 19.6152 4.4798 19.6152 8.89981V9.49981C19.6152 13.9198 21.1352 15.2398 26.9152 15.2398ZM26.9152 13.3798C22.5152 13.3798 21.6552 12.5398 21.6552 9.2998V9.0998C21.6552 5.85981 22.5152 5.0198 26.9152 5.0198C31.3152 5.0198 32.1752 5.85981 32.1752 9.0998V9.2998C32.1752 12.5398 31.3152 13.3798 26.9152 13.3798Z" fill="#43FF8E"/>
<path d="M37.0348 7.7998C37.0348 8.9998 37.0148 9.4798 37.0148 10.2998C37.0148 13.8198 38.0348 15.2398 43.2948 15.2398C46.0948 15.2398 47.7948 14.5998 48.7348 13.2998L48.7748 14.9998H50.6348C50.6148 14.2198 50.6148 13.4998 50.6148 12.0198V6.5998C50.6148 5.0198 50.6148 4.2398 50.6348 3.39981H48.5948C48.6148 4.2398 48.6148 4.9798 48.6148 6.5998V9.39981C48.6148 12.4398 47.6748 13.3798 43.8348 13.3798C39.7948 13.3798 39.0348 12.3598 39.0348 9.69981V6.5798C39.0348 4.8798 39.0348 4.29981 39.0548 3.39981H37.0148C37.0348 4.3398 37.0348 5.1398 37.0348 6.5798V7.7998Z" fill="#43FF8E"/>
<path d="M60.2623 15.2398C66.0823 15.2398 66.8223 14.3198 66.8223 11.9198C66.8223 9.53981 66.1023 8.65981 60.1023 8.15981C55.8023 7.79981 55.5023 7.43981 55.5023 6.43981C55.5023 5.37981 56.1223 4.9598 59.8823 4.9598C63.7023 4.9598 64.3023 5.4198 64.3023 6.6398V6.93981L66.3623 6.8798C66.3623 4.0998 65.3823 3.15981 59.9623 3.15981C54.6223 3.15981 53.5823 4.1398 53.5823 6.5798C53.5823 8.93981 54.4623 9.69981 59.7823 10.1398C64.4223 10.5198 64.7823 10.8998 64.7823 12.0198C64.7823 13.0998 64.3623 13.5598 60.3423 13.5598C56.0823 13.5598 55.4623 13.0998 55.4623 11.4798V11.1598L53.4423 11.2198C53.4423 14.5798 54.4823 15.2398 60.2623 15.2398Z" fill="#43FF8E"/>
<path d="M76.1744 15.2398C82.0144 15.2398 83.1144 14.0798 83.1144 11.2998L81.1344 11.2198C81.1344 12.7198 80.5944 13.4598 76.1944 13.4598C71.9344 13.4598 70.9744 12.6798 70.8744 9.9798H83.1144C83.1144 9.6398 83.1344 9.2198 83.1144 8.89981C83.0544 4.4798 81.7344 3.15981 76.0344 3.15981C70.3344 3.15981 68.8144 4.4798 68.8144 8.89981V9.49981C68.8144 13.9198 70.3344 15.2398 76.1744 15.2398ZM76.0344 4.89981C80.1344 4.89981 80.9144 5.69981 80.9944 8.25981H70.8744C71.0144 5.61981 72.0144 4.89981 76.0344 4.89981Z" fill="#43FF8E"/>
</svg>
