<svg width="83" height="83" viewBox="0 0 83 83" fill="none" xmlns="http://www.w3.org/2000/svg">
<circle cx="41.5" cy="41.5" r="41.5" fill="black" fill-opacity="0.8"/>
<path d="M52.0646 40.1822L52.0673 40.1838C52.6004 40.4874 53 41.1797 53 42.0222C53 42.8418 52.6026 43.5128 52.052 43.8265L52.0493 43.828L36.4025 52.8071L36.4025 52.8071L36.3968 52.8104C36.179 52.9373 35.9268 53 35.6766 53C35.4168 53 35.1213 52.914 34.8472 52.7276L34.8451 52.7262C34.3408 52.3851 34 51.7544 34 50.9841V33.009C34 32.2387 34.3408 31.6081 34.8451 31.267C35.3396 30.9325 35.9087 30.9133 36.4191 31.2039C36.4194 31.2041 36.4198 31.2043 36.4201 31.2045L52.0646 40.1822Z" stroke="white" stroke-width="2"/>
</svg>
