<svg width="258" height="16" viewBox="0 0 258 16" fill="none" xmlns="http://www.w3.org/2000/svg">
<g clip-path="url(#clip0_864_4613)">
<path d="M0.018 10.674C0.018 12.06 0.018 12.672 0 13.572H1.908C1.89 12.6 1.89 12.258 1.89 10.656V3.132C1.89 2.178 1.89 1.656 1.908 0.792H0C0.018 1.656 0.018 2.178 0.018 3.132V10.674Z" fill="#9EA1AB"/>
<path d="M5.82764 7.506C5.82764 8.946 5.82764 12.15 5.80964 13.572H7.64564C7.62764 12.78 7.62764 11.754 7.62764 10.692V4.77H10.3996V3.132H7.62764V2.97C7.62764 1.908 7.93364 1.656 8.74364 1.62C9.40964 1.584 10.1836 1.548 10.6516 1.548L10.5976 0C10.2196 0.0179998 9.24764 0.0359998 8.38364 0.0900002C6.52964 0.198 5.80964 0.773999 5.80964 2.79C5.80964 2.898 5.80964 3.006 5.80964 3.132H4.09964L4.02764 4.77H5.80964C5.82764 5.67 5.82764 6.66 5.82764 7.506Z" fill="#9EA1AB"/>
<path d="M25.6594 13.896C27.0094 11.232 29.8354 5.58 31.1314 3.132H29.1874L26.9554 7.488C26.3614 8.64 25.7674 9.81 25.2634 10.836H24.2554C23.6254 9.792 22.8874 8.604 22.1674 7.434L19.5394 3.132H17.4874C19.0534 5.598 21.8974 10.296 23.2114 12.51H24.3994L24.0754 13.086C23.4274 14.238 23.0134 14.472 21.9514 14.472C21.2674 14.472 20.7094 14.454 20.1334 14.418L20.0794 16.038C20.7454 16.074 21.5734 16.11 22.0054 16.11C23.8414 16.11 24.8314 15.534 25.6594 13.896Z" fill="#9EA1AB"/>
<path d="M38.4373 13.788C43.6393 13.788 45.0073 12.6 45.0073 8.622V8.082C45.0073 4.104 43.6393 2.916 38.4373 2.916C33.2353 2.916 31.8673 4.104 31.8673 8.082V8.622C31.8673 12.6 33.2353 13.788 38.4373 13.788ZM38.4373 12.114C34.4773 12.114 33.7033 11.358 33.7033 8.442V8.262C33.7033 5.346 34.4773 4.59 38.4373 4.59C42.3973 4.59 43.1713 5.346 43.1713 8.262V8.442C43.1713 11.358 42.3973 12.114 38.4373 12.114Z" fill="#9EA1AB"/>
<path d="M47.545 7.092C47.545 8.172 47.527 8.604 47.527 9.342C47.527 12.51 48.445 13.788 53.179 13.788C55.699 13.788 57.229 13.212 58.075 12.042L58.111 13.572H59.785C59.767 12.87 59.767 12.222 59.767 10.89V6.012C59.767 4.59 59.767 3.888 59.785 3.132H57.949C57.967 3.888 57.967 4.554 57.967 6.012V8.532C57.967 11.268 57.121 12.114 53.665 12.114C50.029 12.114 49.345 11.196 49.345 8.802V5.994C49.345 4.464 49.345 3.942 49.363 3.132H47.527C47.545 3.978 47.545 4.698 47.545 5.994V7.092Z" fill="#9EA1AB"/>
<path d="M75.057 13.788C77.847 13.788 79.431 13.23 80.223 12.348L80.2411 13.572H81.861C81.843 12.15 81.843 11.232 81.843 10.152C81.843 8.64 81.861 7.956 81.861 6.534C81.861 4.068 80.943 2.916 75.615 2.916C70.773 2.916 69.675 3.942 69.711 6.12L71.529 6.174C71.511 4.932 71.943 4.518 75.615 4.518C79.413 4.518 80.043 5.076 80.043 6.876V8.154C79.197 7.488 77.649 7.092 75.057 7.092C70.323 7.092 69.2971 8.082 69.2971 10.476C69.2971 12.816 70.269 13.788 75.057 13.788ZM75.579 12.222C71.907 12.222 71.151 11.772 71.151 10.476C71.151 9.144 71.637 8.586 75.579 8.586C79.449 8.586 80.079 9.126 80.079 9.936V10.494C80.079 11.664 79.449 12.222 75.579 12.222Z" fill="#9EA1AB"/>
<path d="M85.0752 10.692C85.0752 12.114 85.0752 12.816 85.0572 13.572H86.8932C86.8752 12.816 86.8752 12.15 86.8752 10.692V8.28C86.8752 5.256 87.7212 4.59 90.8172 4.59C93.9672 4.59 94.3272 5.022 94.3272 7.056V7.416L96.0552 7.38C96.0732 7.11 96.0732 6.84 96.0732 6.624C96.0732 3.636 95.2632 2.916 91.2492 2.916C89.0172 2.916 87.5772 3.492 86.7672 4.662L86.7312 3.132H85.0572C85.0752 3.834 85.0752 4.482 85.0752 5.814V10.692Z" fill="#9EA1AB"/>
<path d="M104.392 13.788C109.648 13.788 110.638 12.744 110.638 10.242L108.856 10.17C108.856 11.52 108.37 12.186 104.41 12.186C100.576 12.186 99.7117 11.484 99.6217 9.054H110.638C110.638 8.748 110.656 8.37 110.638 8.082C110.584 4.104 109.396 2.916 104.266 2.916C99.1357 2.916 97.7677 4.104 97.7677 8.082V8.622C97.7677 12.6 99.1357 13.788 104.392 13.788ZM104.266 4.482C107.956 4.482 108.658 5.202 108.73 7.506H99.6217C99.7477 5.13 100.648 4.482 104.266 4.482Z" fill="#9EA1AB"/>
<path d="M125.225 13.788C128.015 13.788 129.599 13.23 130.391 12.348L130.409 13.572H132.029C132.011 12.15 132.011 11.232 132.011 10.152C132.011 8.64 132.029 7.956 132.029 6.534C132.029 4.068 131.111 2.916 125.783 2.916C120.941 2.916 119.843 3.942 119.879 6.12L121.697 6.174C121.679 4.932 122.111 4.518 125.783 4.518C129.581 4.518 130.211 5.076 130.211 6.876V8.154C129.365 7.488 127.817 7.092 125.225 7.092C120.491 7.092 119.465 8.082 119.465 10.476C119.465 12.816 120.437 13.788 125.225 13.788ZM125.747 12.222C122.075 12.222 121.319 11.772 121.319 10.476C121.319 9.144 121.805 8.586 125.747 8.586C129.617 8.586 130.247 9.126 130.247 9.936V10.494C130.247 11.664 129.617 12.222 125.747 12.222Z" fill="#9EA1AB"/>
<path d="M141.94 10.692C141.94 12.114 141.94 12.816 141.922 13.572H143.758C143.74 12.816 143.74 12.15 143.74 10.692V8.172C143.74 5.436 144.586 4.59 148.114 4.59C151.768 4.59 152.452 5.508 152.452 7.902V10.71C152.452 12.24 152.452 12.762 152.434 13.572H154.27C154.252 12.726 154.252 12.006 154.252 10.71V9.612C154.252 8.532 154.27 8.1 154.27 7.362C154.27 4.194 153.352 2.916 148.6 2.916C146.044 2.916 144.478 3.492 143.632 4.662L143.596 3.132H141.922C141.94 3.834 141.94 4.482 141.94 5.814V10.692Z" fill="#9EA1AB"/>
<path d="M163.419 13.788C168.675 13.788 169.665 12.744 169.665 10.242L167.883 10.17C167.883 11.52 167.397 12.186 163.437 12.186C159.603 12.186 158.739 11.484 158.649 9.054H169.665C169.665 8.748 169.683 8.37 169.665 8.082C169.611 4.104 168.423 2.916 163.293 2.916C158.163 2.916 156.795 4.104 156.795 8.082V8.622C156.795 12.6 158.163 13.788 163.419 13.788ZM163.293 4.482C166.983 4.482 167.685 5.202 167.757 7.506H158.649C158.775 5.13 159.675 4.482 163.293 4.482Z" fill="#9EA1AB"/>
<path d="M179.215 8.442C179.665 7.272 180.133 6.102 180.547 5.04H181.069C181.447 6.12 181.861 7.326 182.257 8.496L184.003 13.572H186.919C187.891 11.016 190.015 5.58 191.077 3.132H189.151L187.405 7.704C186.883 9.09 186.343 10.53 185.875 11.772H185.209C184.849 10.62 184.399 9.288 183.949 7.974L182.293 3.132H179.485L177.685 7.902C177.199 9.198 176.677 10.566 176.245 11.772H175.543C175.129 10.548 174.643 9.108 174.193 7.776L172.627 3.132H170.575C171.511 5.544 173.473 11.016 174.337 13.572H177.253L179.215 8.442Z" fill="#9EA1AB"/>
<path d="M199.525 7.092C199.525 8.172 199.507 8.604 199.507 9.342C199.507 12.51 200.426 13.788 205.16 13.788C207.68 13.788 209.209 13.212 210.055 12.042L210.091 13.572H211.765C211.747 12.87 211.747 12.222 211.747 10.89V6.012C211.747 4.59 211.747 3.888 211.765 3.132H209.929C209.947 3.888 209.947 4.554 209.947 6.012V8.532C209.947 11.268 209.101 12.114 205.645 12.114C202.009 12.114 201.325 11.196 201.325 8.802V5.994C201.325 4.464 201.325 3.942 201.343 3.132H199.507C199.525 3.978 199.525 4.698 199.525 5.994V7.092Z" fill="#9EA1AB"/>
<path d="M220.43 13.788C225.668 13.788 226.334 12.96 226.334 10.8C226.334 8.658 225.686 7.866 220.286 7.416C216.416 7.092 216.146 6.768 216.146 5.868C216.146 4.914 216.704 4.536 220.088 4.536C223.526 4.536 224.066 4.95 224.066 6.048V6.318L225.92 6.264C225.92 3.762 225.038 2.916 220.16 2.916C215.354 2.916 214.418 3.798 214.418 5.994C214.418 8.118 215.21 8.802 219.998 9.198C224.174 9.54 224.498 9.882 224.498 10.89C224.498 11.862 224.12 12.276 220.502 12.276C216.668 12.276 216.11 11.862 216.11 10.404V10.116L214.292 10.17C214.292 13.194 215.228 13.788 220.43 13.788Z" fill="#9EA1AB"/>
<path d="M234.751 13.788C240.007 13.788 240.997 12.744 240.997 10.242L239.215 10.17C239.215 11.52 238.729 12.186 234.769 12.186C230.935 12.186 230.071 11.484 229.981 9.054H240.997C240.997 8.748 241.015 8.37 240.997 8.082C240.943 4.104 239.755 2.916 234.625 2.916C229.495 2.916 228.127 4.104 228.127 8.082V8.622C228.127 12.6 229.495 13.788 234.751 13.788ZM234.625 4.482C238.315 4.482 239.017 5.202 239.089 7.506H229.981C230.107 5.13 231.007 4.482 234.625 4.482Z" fill="#9EA1AB"/>
<path d="M243.577 10.692C243.577 12.114 243.577 12.816 243.559 13.572H245.395C245.377 12.816 245.377 12.15 245.377 10.692V8.28C245.377 5.256 246.223 4.59 249.319 4.59C252.469 4.59 252.829 5.022 252.829 7.056V7.416L254.557 7.38C254.575 7.11 254.575 6.84 254.575 6.624C254.575 3.636 253.765 2.916 249.751 2.916C247.519 2.916 246.079 3.492 245.269 4.662L245.233 3.132H243.559C243.577 3.834 243.577 4.482 243.577 5.814V10.692Z" fill="#9EA1AB"/>
<path d="M255.152 11.376V13.59C255.26 13.572 255.62 13.572 255.962 13.572C255.908 13.806 255.836 14.04 255.764 14.274L255.368 15.75H256.772L257.42 13.572V11.376H255.152Z" fill="#9EA1AB"/>
<path d="M283.656 0.396V2.07H285.492V0.396H283.656ZM283.674 10.746C283.674 11.952 283.674 12.78 283.656 13.572H285.492C285.474 12.78 285.474 11.952 285.474 10.764V6.174C285.474 4.878 285.474 3.906 285.492 3.132H283.656C283.674 3.906 283.674 4.878 283.674 6.156V10.746Z" fill="#5200FF"/>
<path d="M294.404 12.528C296.996 12.528 298.562 11.952 299.426 10.926L299.408 11.952C299.372 13.806 298.688 14.67 294.404 14.67C290.75 14.67 290.12 14.166 290.12 13.104L288.374 13.176C288.374 15.552 289.58 16.308 294.404 16.308C299.876 16.308 301.208 15.246 301.208 12.186C301.208 10.782 301.19 9.702 301.19 8.172V5.472C301.19 4.59 301.19 3.906 301.208 3.132H299.534L299.516 4.518C298.652 3.474 297.068 2.916 294.386 2.916C289.85 2.916 288.086 3.798 288.086 7.632V7.812C288.086 11.646 289.94 12.528 294.404 12.528ZM289.922 7.812V7.632C289.922 5.328 290.948 4.554 294.71 4.554C298.562 4.554 299.372 5.31 299.39 7.632C299.39 9.936 298.49 10.89 294.728 10.89C290.768 10.89 289.922 10.116 289.922 7.812Z" fill="#5200FF"/>
<path d="M304.468 10.692C304.468 12.114 304.468 12.816 304.45 13.572H306.286C306.268 12.816 306.268 12.15 306.268 10.692V8.172C306.268 5.436 307.114 4.59 310.642 4.59C314.296 4.59 314.98 5.508 314.98 7.902V10.71C314.98 12.24 314.98 12.762 314.962 13.572H316.798C316.78 12.726 316.78 12.006 316.78 10.71V9.612C316.78 8.532 316.798 8.1 316.798 7.362C316.798 4.194 315.88 2.916 311.128 2.916C308.572 2.916 307.006 3.492 306.16 4.662L306.124 3.132H304.45C304.468 3.834 304.468 4.482 304.468 5.814V10.692Z" fill="#5200FF"/>
<path d="M326.686 7.092C326.686 8.172 326.668 8.604 326.668 9.342C326.668 12.51 327.586 13.788 332.32 13.788C334.84 13.788 336.37 13.212 337.216 12.042L337.252 13.572H338.926C338.908 12.87 338.908 12.222 338.908 10.89V6.012C338.908 4.59 338.908 3.888 338.926 3.132H337.09C337.108 3.888 337.108 4.554 337.108 6.012V8.532C337.108 11.268 336.262 12.114 332.806 12.114C329.17 12.114 328.486 11.196 328.486 8.802V5.994C328.486 4.464 328.486 3.942 328.504 3.132H326.668C326.686 3.978 326.686 4.698 326.686 5.994V7.092Z" fill="#5200FF"/>
<path d="M342.19 13.572C342.19 14.652 342.19 15.552 342.172 16.092H344.026C344.008 15.354 344.008 14.058 344.008 12.168C344.908 13.266 346.456 13.788 348.976 13.788C353.908 13.788 355.294 12.6 355.294 8.622V8.082C355.294 4.104 353.908 2.916 349.084 2.916C346.42 2.916 344.8 3.492 343.918 4.662V3.132H342.172C342.19 3.888 342.19 4.536 342.19 5.364V13.572ZM343.99 8.424V8.28C343.99 5.436 344.8 4.59 348.724 4.59C352.666 4.59 353.458 5.346 353.458 8.262V8.442C353.458 11.358 352.666 12.114 348.634 12.114C344.8 12.114 343.99 11.286 343.99 8.424Z" fill="#5200FF"/>
<path d="M364.567 10.728C364.567 12.042 364.567 12.69 364.549 13.572H366.385C366.367 12.672 366.367 11.898 366.367 10.692V8.172C366.367 5.436 367.213 4.59 370.741 4.59C374.395 4.59 375.079 5.508 375.079 7.902V10.728C375.079 12.006 375.079 12.654 375.061 13.572H376.897C376.879 12.546 376.879 11.7 376.879 10.764V9.612C376.879 8.532 376.897 8.1 376.897 7.362C376.897 4.194 375.979 2.916 371.227 2.916C368.725 2.916 367.177 3.474 366.313 4.59C366.349 3.366 366.403 0.414 366.403 0.108H364.549C364.567 0.881999 364.567 1.836 364.567 3.132V10.728Z" fill="#5200FF"/>
<path d="M386.046 13.788C391.302 13.788 392.292 12.744 392.292 10.242L390.51 10.17C390.51 11.52 390.024 12.186 386.064 12.186C382.23 12.186 381.366 11.484 381.276 9.054H392.292C392.292 8.748 392.31 8.37 392.292 8.082C392.238 4.104 391.05 2.916 385.92 2.916C380.79 2.916 379.422 4.104 379.422 8.082V8.622C379.422 12.6 380.79 13.788 386.046 13.788ZM385.92 4.482C389.61 4.482 390.312 5.202 390.384 7.506H381.276C381.402 5.13 382.302 4.482 385.92 4.482Z" fill="#5200FF"/>
<path d="M394.872 10.692C394.872 12.114 394.872 12.816 394.854 13.572H396.69C396.672 12.816 396.672 12.15 396.672 10.692V8.28C396.672 5.256 397.518 4.59 400.614 4.59C403.764 4.59 404.124 5.022 404.124 7.056V7.416L405.852 7.38C405.87 7.11 405.87 6.84 405.87 6.624C405.87 3.636 405.06 2.916 401.046 2.916C398.814 2.916 397.374 3.492 396.564 4.662L396.528 3.132H394.854C394.872 3.834 394.872 4.482 394.872 5.814V10.692Z" fill="#5200FF"/>
<path d="M414.189 13.788C419.445 13.788 420.435 12.744 420.435 10.242L418.653 10.17C418.653 11.52 418.167 12.186 414.207 12.186C410.373 12.186 409.509 11.484 409.419 9.054H420.435C420.435 8.748 420.453 8.37 420.435 8.082C420.381 4.104 419.193 2.916 414.063 2.916C408.933 2.916 407.565 4.104 407.565 8.082V8.622C407.565 12.6 408.933 13.788 414.189 13.788ZM414.063 4.482C417.753 4.482 418.455 5.202 418.527 7.506H409.419C409.545 5.13 410.445 4.482 414.063 4.482Z" fill="#5200FF"/>
</g>
<defs>
<clipPath id="clip0_864_4613">
<rect width="258" height="16" fill="white"/>
</clipPath>
</defs>
</svg>
