<svg width="22" height="22" viewBox="0 0 22 22" fill="none" xmlns="http://www.w3.org/2000/svg">
<circle cx="11" cy="11" r="10.2478" stroke="#FF4F4F" stroke-width="1.50441"/>
<path d="M11.6928 13.0195H10.3803L10.2709 4.89453H11.8022L11.6928 13.0195ZM10.0366 15.8862C10.0314 15.7091 10.073 15.545 10.1616 15.394C10.2553 15.2377 10.3777 15.1153 10.5288 15.0268C10.685 14.933 10.8543 14.8862 11.0366 14.8862C11.2137 14.8862 11.3777 14.9304 11.5288 15.019C11.685 15.1075 11.8074 15.2273 11.8959 15.3784C11.9897 15.5294 12.0366 15.6935 12.0366 15.8705C12.0366 16.1518 11.9402 16.394 11.7475 16.5971C11.5548 16.795 11.3178 16.8966 11.0366 16.9018C10.8543 16.9018 10.685 16.8549 10.5288 16.7612C10.3777 16.6674 10.2553 16.545 10.1616 16.394C10.073 16.2377 10.0314 16.0685 10.0366 15.8862Z" fill="#FF4F4F"/>
</svg>
