<svg width="63" height="16" viewBox="0 0 63 16" fill="none" xmlns="http://www.w3.org/2000/svg">
<path d="M14.9707 0.799805H12.8507C12.8707 1.57981 12.8707 2.45981 12.8707 3.4198V9.03981C12.8707 12.5598 12.3307 13.3398 7.81074 13.3398C3.43074 13.3398 2.49074 12.7798 2.57074 9.03981L0.510742 9.07981V9.15981C0.530742 14.1998 1.81074 15.2798 7.81074 15.2798C13.9907 15.2798 14.9707 13.8398 14.9707 9.25981C14.9707 7.6398 14.9507 6.21981 14.9507 4.9798V3.4198C14.9507 2.33981 14.9507 1.4798 14.9707 0.799805Z" fill="white"/>
<path d="M23.6817 15.2398C26.7817 15.2398 28.5417 14.6198 29.4217 13.6398L29.4417 14.9998H31.2417C31.2217 13.4198 31.2217 12.3998 31.2217 11.1998C31.2217 9.5198 31.2417 8.75981 31.2417 7.1798C31.2417 4.43981 30.2217 3.15981 24.3017 3.15981C18.9217 3.15981 17.7017 4.2998 17.7417 6.7198L19.7617 6.77981C19.7417 5.39981 20.2217 4.93981 24.3017 4.93981C28.5217 4.93981 29.2217 5.5598 29.2217 7.5598V8.9798C28.2817 8.23981 26.5617 7.7998 23.6817 7.7998C18.4217 7.7998 17.2817 8.89981 17.2817 11.5598C17.2817 14.1598 18.3617 15.2398 23.6817 15.2398ZM24.2617 13.4998C20.1817 13.4998 19.3417 12.9998 19.3417 11.5598C19.3417 10.0798 19.8817 9.45981 24.2617 9.45981C28.5617 9.45981 29.2617 10.0598 29.2617 10.9598V11.5798C29.2617 12.8798 28.5617 13.4998 24.2617 13.4998Z" fill="white"/>
<path d="M47.1929 13.1598C45.5729 13.1798 43.3129 13.1798 40.4729 13.1798C38.7729 13.1798 37.2329 13.1798 36.2129 13.1798V13.1398C37.7129 12.1598 39.1929 11.1798 40.6529 10.1998L46.9729 5.93981V3.39981H34.4329V5.23981C36.0529 5.21981 37.6729 5.2198 40.4929 5.2198C42.4129 5.2198 43.9329 5.2198 44.9929 5.19981V5.23981C43.3129 6.35981 41.3929 7.61981 40.4529 8.25981L34.2329 12.4598V14.9998H47.1929V13.1598Z" fill="white"/>
<path d="M62.6617 13.1598C61.0417 13.1798 58.7817 13.1798 55.9417 13.1798C54.2417 13.1798 52.7017 13.1798 51.6817 13.1798V13.1398C53.1817 12.1598 54.6617 11.1798 56.1217 10.1998L62.4417 5.93981V3.39981H49.9017V5.23981C51.5217 5.21981 53.1417 5.2198 55.9617 5.2198C57.8817 5.2198 59.4017 5.2198 60.4617 5.19981V5.23981C58.7817 6.35981 56.8617 7.61981 55.9217 8.25981L49.7017 12.4598V14.9998H62.6617V13.1598Z" fill="white"/>
</svg>
