<svg width="63" height="16" viewBox="0 0 63 16" fill="none" xmlns="http://www.w3.org/2000/svg">
<path d="M14.9717 0.799805H12.8517C12.8717 1.57981 12.8717 2.45981 12.8717 3.4198V9.03981C12.8717 12.5598 12.3317 13.3398 7.81172 13.3398C3.43172 13.3398 2.49172 12.7798 2.57172 9.03981L0.511719 9.07981V9.15981C0.531719 14.1998 1.81172 15.2798 7.81172 15.2798C13.9917 15.2798 14.9717 13.8398 14.9717 9.25981C14.9717 7.6398 14.9517 6.21981 14.9517 4.9798V3.4198C14.9517 2.33981 14.9517 1.4798 14.9717 0.799805Z" fill="#E965FF"/>
<path d="M23.6827 15.2398C26.7827 15.2398 28.5427 14.6198 29.4227 13.6398L29.4427 14.9998H31.2427C31.2227 13.4198 31.2227 12.3998 31.2227 11.1998C31.2227 9.5198 31.2427 8.75981 31.2427 7.1798C31.2427 4.43981 30.2227 3.15981 24.3027 3.15981C18.9227 3.15981 17.7027 4.2998 17.7427 6.7198L19.7627 6.77981C19.7427 5.39981 20.2227 4.93981 24.3027 4.93981C28.5227 4.93981 29.2227 5.5598 29.2227 7.5598V8.9798C28.2827 8.23981 26.5627 7.7998 23.6827 7.7998C18.4227 7.7998 17.2827 8.89981 17.2827 11.5598C17.2827 14.1598 18.3627 15.2398 23.6827 15.2398ZM24.2627 13.4998C20.1827 13.4998 19.3427 12.9998 19.3427 11.5598C19.3427 10.0798 19.8827 9.45981 24.2627 9.45981C28.5627 9.45981 29.2627 10.0598 29.2627 10.9598V11.5798C29.2627 12.8798 28.5627 13.4998 24.2627 13.4998Z" fill="#E965FF"/>
<path d="M47.1939 13.1598C45.5739 13.1798 43.3139 13.1798 40.4739 13.1798C38.7739 13.1798 37.2339 13.1798 36.2139 13.1798V13.1398C37.7139 12.1598 39.1939 11.1798 40.6539 10.1998L46.9739 5.93981V3.39981H34.4339V5.23981C36.0539 5.21981 37.6739 5.2198 40.4939 5.2198C42.4139 5.2198 43.9339 5.2198 44.9939 5.19981V5.23981C43.3139 6.35981 41.3939 7.61981 40.4539 8.25981L34.2339 12.4598V14.9998H47.1939V13.1598Z" fill="#E965FF"/>
<path d="M62.6627 13.1598C61.0427 13.1798 58.7827 13.1798 55.9427 13.1798C54.2427 13.1798 52.7027 13.1798 51.6827 13.1798V13.1398C53.1827 12.1598 54.6627 11.1798 56.1227 10.1998L62.4427 5.93981V3.39981H49.9027V5.23981C51.5227 5.21981 53.1427 5.2198 55.9627 5.2198C57.8827 5.2198 59.4027 5.2198 60.4627 5.19981V5.23981C58.7827 6.35981 56.8627 7.61981 55.9227 8.25981L49.7027 12.4598V14.9998H62.6627V13.1598Z" fill="#E965FF"/>
</svg>
