<svg width="159" height="52" viewBox="0 0 159 52" fill="none" xmlns="http://www.w3.org/2000/svg">
<rect x="0.0673828" width="158.702" height="52" rx="26" fill="#1E2025"/>
<path d="M50.6785 33.3926L51.1625 30.7086C49.4025 30.7306 45.9485 30.7306 43.6165 30.7306H38.5785L40.3605 20.6326C40.5365 19.4666 40.6905 18.6086 40.8665 17.7726H37.8965C37.7645 18.6086 37.6105 19.4666 37.4125 20.6326L35.7845 29.8946C35.4985 31.4566 35.3445 32.3806 35.1465 33.3926H50.6785ZM60.5695 33.6566C67.1255 33.6566 68.7755 32.2046 69.6335 27.3206L69.7435 26.6606C70.6015 21.7766 68.9075 20.3246 62.3735 20.3246C55.8175 20.3246 54.1675 21.7766 53.3095 26.6606L53.1995 27.3206C52.3415 32.2046 54.0355 33.6566 60.5695 33.6566ZM60.7235 31.1046C56.2355 31.1046 55.5755 30.2686 56.1255 27.0786L56.1475 26.9026C56.7195 23.6906 57.6875 22.8766 62.1975 22.8766C66.6855 22.8766 67.3895 23.6906 66.7955 26.9026L66.7735 27.0786C66.2235 30.2686 65.2335 31.1046 60.7235 31.1046ZM78.7816 31.9626C81.8396 31.9626 83.7316 31.2586 84.9196 29.9826L84.6776 31.3906C84.2816 33.4366 83.3576 34.3386 78.4296 34.3386C74.2936 34.3386 73.7216 33.8106 73.9196 32.6666L71.1916 32.7546C70.6416 35.8126 72.0496 36.7366 78.2976 36.7366C85.1176 36.7366 86.7676 35.4606 87.4056 31.8306C87.7136 30.1146 87.9336 28.8386 88.2856 26.7926L88.8576 23.4926C89.0556 22.3486 89.2096 21.4466 89.3856 20.5886H86.7016L86.3276 22.5466C85.5136 21.1166 83.6656 20.3246 80.3436 20.3246C74.7996 20.3246 72.8636 21.4026 72.0056 26.0446L71.9836 26.2206C71.1696 30.8186 73.3036 31.9626 78.7816 31.9626ZM79.6836 29.4766C75.2396 29.4766 74.4476 28.6626 74.8656 26.2206L74.9096 26.0666C75.3496 23.6466 76.5816 22.8106 80.8276 22.8106C85.2276 22.8106 85.9976 23.6466 85.5576 26.0446V26.0886C85.1176 28.5306 83.9736 29.4766 79.6836 29.4766ZM102.167 17.0906L101.771 19.2906H104.675L105.049 17.0906H102.167ZM99.9666 29.6966C99.6806 31.3026 99.5046 32.3806 99.2846 33.3926H102.189C102.343 32.3806 102.541 31.3026 102.805 29.7186L103.773 24.2406C104.037 22.6786 104.257 21.5126 104.433 20.5886H101.551C101.419 21.5126 101.199 22.7006 100.935 24.2406L99.9666 29.6966ZM106.541 29.8726C106.255 31.5226 106.101 32.4246 105.903 33.3926H108.807C108.939 32.4246 109.093 31.5666 109.401 29.8726L109.907 26.9686C110.479 23.8226 111.557 22.9206 115.561 22.9206C119.719 22.9206 120.269 23.8886 119.807 26.6606L119.213 29.9166C118.905 31.6986 118.795 32.3586 118.575 33.3926H121.479C121.633 32.3146 121.787 31.3906 122.073 29.9166L122.315 28.5526C122.557 27.0786 122.689 26.4846 122.865 25.5166C123.503 21.8426 122.315 20.3246 116.727 20.3246C113.691 20.3246 111.777 21.0726 110.545 22.5466L110.853 20.5886H108.169C108.037 21.4466 107.883 22.2826 107.619 23.8006L106.541 29.8726Z" fill="white"/>
</svg>
