<svg width="107" height="12" viewBox="0 0 107 12" fill="none" xmlns="http://www.w3.org/2000/svg">
<path d="M1.67574 9.23684V7.94211C3.36745 7.94211 6.09652 7.94211 7.64459 7.94211C11.3951 7.94211 12.3686 6.80526 12.3686 4.26316V4.2C12.3686 1.6579 11.3951 0.6 7.64459 0.6H0C0.0159595 1.2 0.0159595 1.83158 0.0159595 2.68421V9.23684C0.0159595 10.3895 0.0159595 11.0526 0 11.8105H1.6917C1.67574 11.0368 1.67574 10.4053 1.67574 9.23684ZM7.64459 2.08421C10.0545 2.08421 10.645 2.60526 10.645 4.23158V4.26316C10.645 5.88947 10.0545 6.44211 7.64459 6.44211H1.67574V2.08421H7.64459Z" fill="#9EA1AB"/>
<path d="M19.1687 12C21.6424 12 23.0468 11.5105 23.7491 10.7368L23.765 11.8105H25.2014C25.1854 10.5632 25.1854 9.7579 25.1854 8.81053C25.1854 7.48421 25.2014 6.88421 25.2014 5.63684C25.2014 3.47368 24.3874 2.46316 19.6634 2.46316C15.3703 2.46316 14.3968 3.36316 14.4287 5.27368L16.0406 5.32105C16.0247 4.23158 16.4077 3.86842 19.6634 3.86842C23.0309 3.86842 23.5895 4.35789 23.5895 5.93684V7.0579C22.8394 6.47368 21.4669 6.12632 19.1687 6.12632C14.9714 6.12632 14.0617 6.99474 14.0617 9.09474C14.0617 11.1474 14.9235 12 19.1687 12ZM19.6315 10.6263C16.3758 10.6263 15.7055 10.2316 15.7055 9.09474C15.7055 7.92632 16.1364 7.43684 19.6315 7.43684C23.0628 7.43684 23.6214 7.91053 23.6214 8.62105V9.11053C23.6214 10.1368 23.0628 10.6263 19.6315 10.6263Z" fill="#9EA1AB"/>
<path d="M32.839 12C37.4832 12 38.0737 11.2737 38.0737 9.37895C38.0737 7.5 37.4991 6.80526 32.7113 6.41053C29.28 6.12632 29.0406 5.84211 29.0406 5.05263C29.0406 4.21579 29.5354 3.88421 32.5357 3.88421C35.584 3.88421 36.0628 4.24737 36.0628 5.21053V5.44737L37.7066 5.4C37.7066 3.20526 36.9246 2.46316 32.5996 2.46316C28.3384 2.46316 27.5085 3.23684 27.5085 5.16316C27.5085 7.02632 28.2107 7.62632 32.4559 7.97368C36.1585 8.27368 36.4458 8.57368 36.4458 9.4579C36.4458 10.3105 36.1107 10.6737 32.9028 10.6737C29.5034 10.6737 29.0087 10.3105 29.0087 9.03158V8.77895L27.3968 8.82632C27.3968 11.4789 28.2267 12 32.839 12Z" fill="#9EA1AB"/>
<path d="M45.0735 12C49.7177 12 50.3082 11.2737 50.3082 9.37895C50.3082 7.5 49.7337 6.80526 44.9458 6.41053C41.5146 6.12632 41.2752 5.84211 41.2752 5.05263C41.2752 4.21579 41.7699 3.88421 44.7703 3.88421C47.8186 3.88421 48.2973 4.24737 48.2973 5.21053V5.44737L49.9412 5.4C49.9412 3.20526 49.1591 2.46316 44.8341 2.46316C40.573 2.46316 39.7431 3.23684 39.7431 5.16316C39.7431 7.02632 40.4453 7.62632 44.6905 7.97368C48.3931 8.27368 48.6804 8.57368 48.6804 9.4579C48.6804 10.3105 48.3452 10.6737 45.1374 10.6737C41.738 10.6737 41.2433 10.3105 41.2433 9.03158V8.77895L39.6313 8.82632C39.6313 11.4789 40.4612 12 45.0735 12Z" fill="#9EA1AB"/>
<path d="M58.8561 7.31053C59.2551 6.28421 59.6701 5.25789 60.0371 4.32632H60.5C60.8351 5.27368 61.2022 6.33158 61.5533 7.35789L63.1014 11.8105H65.6868C66.5486 9.56842 68.4318 4.8 69.3734 2.65263H67.6658L66.1177 6.66316C65.6549 7.87895 65.1761 9.14211 64.7611 10.2316H64.1706C63.8515 9.22105 63.4525 8.05263 63.0535 6.9L61.5852 2.65263H59.0955L57.4996 6.83684C57.0687 7.97368 56.6059 9.17368 56.2228 10.2316H55.6004C55.2333 9.15789 54.8024 7.89474 54.4035 6.72632L53.015 2.65263H51.1956C52.0255 4.76842 53.7651 9.56842 54.5311 11.8105H57.1166L58.8561 7.31053Z" fill="#9EA1AB"/>
<path d="M76.0047 12C80.617 12 81.8299 10.9579 81.8299 7.46842V6.99474C81.8299 3.50526 80.617 2.46316 76.0047 2.46316C71.3924 2.46316 70.1795 3.50526 70.1795 6.99474V7.46842C70.1795 10.9579 71.3924 12 76.0047 12ZM76.0047 10.5316C72.4936 10.5316 71.8074 9.86842 71.8074 7.31053V7.15263C71.8074 4.59474 72.4936 3.93158 76.0047 3.93158C79.5158 3.93158 80.2021 4.59474 80.2021 7.15263V7.31053C80.2021 9.86842 79.5158 10.5316 76.0047 10.5316Z" fill="#9EA1AB"/>
<path d="M84.1119 9.28421C84.1119 10.5316 84.1119 11.1474 84.0959 11.8105H85.7238C85.7078 11.1474 85.7078 10.5632 85.7078 9.28421V7.16842C85.7078 4.51579 86.4579 3.93158 89.2029 3.93158C91.9958 3.93158 92.315 4.31053 92.315 6.09474V6.41053L93.8472 6.37895C93.8631 6.14211 93.8631 5.90526 93.8631 5.71579C93.8631 3.09474 93.1449 2.46316 89.586 2.46316C87.607 2.46316 86.3302 2.96842 85.6121 3.99474L85.5801 2.65263H84.0959C84.1119 3.26842 84.1119 3.83684 84.1119 5.00526V9.28421Z" fill="#9EA1AB"/>
<path d="M100.872 12C103.281 12 104.718 11.4789 105.484 10.4211L105.516 11.8105H107C106.984 11.0368 106.984 10.5 106.984 9.28421V2.65263C106.984 1.48421 106.984 0.678947 107 0H105.34C105.356 0.647369 105.372 2.28947 105.372 3.88421C104.574 2.92105 103.202 2.46316 100.967 2.46316C96.5944 2.46316 95.3655 3.50526 95.3655 6.99474V7.46842C95.3655 10.9579 96.5944 12 100.872 12ZM101.191 10.5316C97.6956 10.5316 96.9934 9.86842 96.9934 7.31053V7.15263C96.9934 4.59474 97.6956 3.93158 101.271 3.93158C104.67 3.93158 105.388 4.65789 105.388 7.16842V7.29474C105.388 9.78947 104.67 10.5316 101.191 10.5316Z" fill="#9EA1AB"/>
</svg>
