<svg width="53" height="12" viewBox="0 0 53 12" fill="none" xmlns="http://www.w3.org/2000/svg">
<path d="M0.015826 9.26842C0.015826 10.4842 0.015826 11.0368 0 11.8105H11.4263V10.3105C10.1603 10.3263 6.23542 10.3263 4.17805 10.3263H1.66173V6.82105H4.70031C6.44116 6.82105 8.08706 6.82105 10.461 6.83684V5.33684H1.66173V2.08421H3.54501C5.44413 2.08421 8.38776 2.08421 11.0782 2.1V0.6H0C0.015826 1.3421 0.015826 1.81579 0.015826 2.65263V9.26842Z" fill="#9EA1AB"/>
<path d="M13.6287 9.28421C13.6287 10.5316 13.6287 11.1474 13.6129 11.8105H15.2272C15.2113 11.1474 15.2113 10.5632 15.2113 9.28421V7.07368C15.2113 4.67368 15.9552 3.93158 18.4557 3.93158C20.6396 3.93158 21.2727 4.46842 21.2727 6.09474V9.33158C21.2727 10.5474 21.2727 11.0368 21.2568 11.8105H22.8711C22.8553 10.8474 22.8553 10.1526 22.8553 9.28421V7.07368C22.8553 4.67368 23.6307 3.93158 26.1154 3.93158C28.2994 3.93158 28.9324 4.46842 28.9324 6.09474V9.31579C28.9324 10.5474 28.9324 11.0368 28.9166 11.8105H30.5309C30.515 10.8474 30.515 10.1526 30.515 9.31579V8.49474C30.515 7.07368 30.5309 6.26842 30.5309 5.62105C30.5309 3.31579 29.7237 2.46316 26.5902 2.46316C24.5961 2.46316 23.3617 3 22.697 4.10526C22.3014 2.92105 21.241 2.46316 18.9304 2.46316C16.9997 2.46316 15.7811 2.96842 15.1164 4.01053L15.0847 2.65263H13.6129C13.6287 3.26842 13.6287 3.83684 13.6287 5.00526V9.28421Z" fill="#9EA1AB"/>
<path d="M38.0335 12C40.4865 12 41.8792 11.5105 42.5755 10.7368L42.5913 11.8105H44.0157C43.9999 10.5632 43.9999 9.7579 43.9999 8.81053C43.9999 7.48421 44.0157 6.88421 44.0157 5.63684C44.0157 3.47368 43.2086 2.46316 38.5241 2.46316C34.2669 2.46316 33.3015 3.36316 33.3332 5.27368L34.9316 5.32105C34.9158 4.23158 35.2956 3.86842 38.5241 3.86842C41.8634 3.86842 42.4173 4.35789 42.4173 5.93684V7.0579C41.6734 6.47368 40.3124 6.12632 38.0335 6.12632C33.8712 6.12632 32.9692 6.99474 32.9692 9.09474C32.9692 11.1474 33.8238 12 38.0335 12ZM38.4924 10.6263C35.2639 10.6263 34.5992 10.2316 34.5992 9.09474C34.5992 7.92632 35.0265 7.43684 38.4924 7.43684C41.895 7.43684 42.4489 7.91053 42.4489 8.62105V9.11053C42.4489 10.1368 41.895 10.6263 38.4924 10.6263Z" fill="#9EA1AB"/>
<path d="M46.8574 0.252631V1.72105H48.4717V0.252631H46.8574ZM46.8733 9.33158C46.8733 10.3895 46.8733 11.1158 46.8574 11.8105H48.4717C48.4559 11.1158 48.4559 10.3895 48.4559 9.34737V5.32105C48.4559 4.18421 48.4559 3.33158 48.4717 2.65263H46.8574C46.8733 3.33158 46.8733 4.18421 46.8733 5.30526V9.33158Z" fill="#9EA1AB"/>
<path d="M51.4016 9.33158C51.4016 10.3895 51.4016 11.1158 51.3858 11.8105H53C52.9842 11.1158 52.9842 10.3895 52.9842 9.34737V2.66842C52.9842 1.53158 52.9842 0.678947 53 0H51.3858C51.4016 0.678947 51.4016 1.53158 51.4016 2.65263V9.33158Z" fill="#9EA1AB"/>
</svg>
