<svg width="201" height="14" viewBox="0 0 201 14" fill="none" xmlns="http://www.w3.org/2000/svg">
<path d="M0.0159836 9.13111C0.0159836 10.3289 0.0159836 10.8578 0 11.6356H1.69426C1.67827 10.7956 1.67827 10.5 1.67827 9.11556V6.78222H4.36351C6.26555 6.78222 9.12661 6.78222 10.2455 6.79778V5.32H1.67827V2.05333H5.01884C7.57621 2.05333 9.84587 2.05333 10.9647 2.06889V0.591111H0C0.0159836 1.32222 0.0159836 1.78889 0.0159836 2.61333V9.13111Z" fill="#9EA1AB"/>
<path d="M17.664 11.8222C22.2832 11.8222 23.498 10.7956 23.498 7.35778V6.89111C23.498 3.45333 22.2832 2.42667 17.664 2.42667C13.0447 2.42667 11.83 3.45333 11.83 6.89111V7.35778C11.83 10.7956 13.0447 11.8222 17.664 11.8222ZM17.664 10.3756C14.1476 10.3756 13.4603 9.72222 13.4603 7.20222V7.04667C13.4603 4.52667 14.1476 3.87333 17.664 3.87333C21.1803 3.87333 21.8676 4.52667 21.8676 7.04667V7.20222C21.8676 9.72222 21.1803 10.3756 17.664 10.3756Z" fill="#9EA1AB"/>
<path d="M25.7834 9.14667C25.7834 10.3756 25.7834 10.9822 25.7674 11.6356H27.3977C27.3817 10.9822 27.3817 10.4067 27.3817 9.14667V7.06222C27.3817 4.44889 28.1329 3.87333 30.8821 3.87333C33.6792 3.87333 33.9989 4.24667 33.9989 6.00445V6.31556L35.5333 6.28445C35.5493 6.05111 35.5493 5.81778 35.5493 5.63111C35.5493 3.04889 34.83 2.42667 31.2657 2.42667C29.2838 2.42667 28.0051 2.92445 27.2858 3.93556L27.2538 2.61333H25.7674C25.7834 3.22 25.7834 3.78 25.7834 4.93111V9.14667Z" fill="#9EA1AB"/>
<path d="M42.6642 10.7333C44.9659 10.7333 46.3564 10.2356 47.1237 9.34889L47.1077 10.2356C47.0757 11.8378 46.4683 12.5844 42.6642 12.5844C39.4196 12.5844 38.8601 12.1489 38.8601 11.2311L37.3097 11.2933C37.3097 13.3467 38.3806 14 42.6642 14C47.5232 14 48.706 13.0822 48.706 10.4378C48.706 9.22445 48.69 8.29111 48.69 6.96889V4.63556C48.69 3.87333 48.69 3.28222 48.706 2.61333H47.2196L47.2036 3.81111C46.4364 2.90889 45.0298 2.42667 42.6483 2.42667C38.6204 2.42667 37.054 3.18889 37.054 6.50222V6.65778C37.054 9.97111 38.7003 10.7333 42.6642 10.7333ZM38.6843 6.65778V6.50222C38.6843 4.51111 39.5954 3.84222 42.936 3.84222C46.3564 3.84222 47.0757 4.49556 47.0917 6.50222C47.0917 8.49333 46.2925 9.31778 42.9519 9.31778C39.4356 9.31778 38.6843 8.64889 38.6843 6.65778Z" fill="#9EA1AB"/>
<path d="M56.8112 11.8222C61.4304 11.8222 62.6452 10.7956 62.6452 7.35778V6.89111C62.6452 3.45333 61.4304 2.42667 56.8112 2.42667C52.1919 2.42667 50.9772 3.45333 50.9772 6.89111V7.35778C50.9772 10.7956 52.1919 11.8222 56.8112 11.8222ZM56.8112 10.3756C53.2948 10.3756 52.6075 9.72222 52.6075 7.20222V7.04667C52.6075 4.52667 53.2948 3.87333 56.8112 3.87333C60.3276 3.87333 61.0149 4.52667 61.0149 7.04667V7.20222C61.0149 9.72222 60.3276 10.3756 56.8112 10.3756Z" fill="#9EA1AB"/>
<path d="M65.4421 6.03556C65.4421 6.79778 65.4261 7.68444 65.4261 8.36889C65.4261 11.0444 66.2732 11.7133 70.0453 11.7133C70.7486 11.7133 71.34 11.6822 71.8355 11.6356L71.8195 10.22C71.2121 10.2511 70.8445 10.2667 70.1252 10.2667C67.6798 10.2667 67.0404 10.0333 67.0404 8.15111V4.02889H71.8195V2.61333H67.0404C67.0404 1.83556 67.0404 1.21333 67.0564 0.84L65.4261 0.871111C65.4421 1.58667 65.4421 2.1 65.4421 2.61333C64.9306 2.61333 64.4191 2.62889 63.7638 2.61333V4.02889H65.4421V6.03556Z" fill="#9EA1AB"/>
<path d="M79.9152 11.6356C79.9152 12.5689 79.9152 13.3467 79.8992 13.8133H81.5455C81.5295 13.1756 81.5295 12.0556 81.5295 10.4222C82.3287 11.3711 83.7033 11.8222 85.941 11.8222C90.3205 11.8222 91.5512 10.7956 91.5512 7.35778V6.89111C91.5512 3.45333 90.3205 2.42667 86.0369 2.42667C83.6713 2.42667 82.2328 2.92445 81.4496 3.93556V2.61333H79.8992C79.9152 3.26667 79.9152 3.82667 79.9152 4.54222V11.6356ZM81.5135 7.18667V7.06222C81.5135 4.60444 82.2328 3.87333 85.7172 3.87333C89.2176 3.87333 89.9209 4.52667 89.9209 7.04667V7.20222C89.9209 9.72222 89.2176 10.3756 85.6373 10.3756C82.2328 10.3756 81.5135 9.66 81.5135 7.18667Z" fill="#9EA1AB"/>
<path d="M98.5535 11.8222C101.031 11.8222 102.438 11.34 103.141 10.5778L103.157 11.6356H104.595C104.579 10.4067 104.579 9.61333 104.579 8.68C104.579 7.37333 104.595 6.78222 104.595 5.55333C104.595 3.42222 103.78 2.42667 99.049 2.42667C94.7494 2.42667 93.7744 3.31333 93.8064 5.19556L95.4207 5.24222C95.4047 4.16889 95.7883 3.81111 99.049 3.81111C102.422 3.81111 102.981 4.29333 102.981 5.84889V6.95333C102.23 6.37778 100.855 6.03556 98.5535 6.03556C94.3498 6.03556 93.4388 6.89111 93.4388 8.96C93.4388 10.9822 94.3019 11.8222 98.5535 11.8222ZM99.017 10.4689C95.7564 10.4689 95.0851 10.08 95.0851 8.96C95.0851 7.80889 95.5166 7.32667 99.017 7.32667C102.453 7.32667 103.013 7.79333 103.013 8.49333V8.97556C103.013 9.98667 102.453 10.4689 99.017 10.4689Z" fill="#9EA1AB"/>
<path d="M112.244 11.8222C116.896 11.8222 117.487 11.1067 117.487 9.24C117.487 7.38889 116.912 6.70445 112.117 6.31556C108.68 6.03556 108.44 5.75556 108.44 4.97778C108.44 4.15333 108.936 3.82667 111.941 3.82667C114.994 3.82667 115.473 4.18444 115.473 5.13333V5.36667L117.119 5.32C117.119 3.15778 116.336 2.42667 112.005 2.42667C107.737 2.42667 106.906 3.18889 106.906 5.08667C106.906 6.92222 107.609 7.51333 111.861 7.85556C115.569 8.15111 115.857 8.44667 115.857 9.31778C115.857 10.1578 115.521 10.5156 112.308 10.5156C108.904 10.5156 108.408 10.1578 108.408 8.89778V8.64889L106.794 8.69556C106.794 11.3089 107.625 11.8222 112.244 11.8222Z" fill="#9EA1AB"/>
<path d="M124.497 11.8222C129.149 11.8222 129.74 11.1067 129.74 9.24C129.74 7.38889 129.165 6.70445 124.37 6.31556C120.933 6.03556 120.693 5.75556 120.693 4.97778C120.693 4.15333 121.189 3.82667 124.194 3.82667C127.247 3.82667 127.726 4.18444 127.726 5.13333V5.36667L129.372 5.32C129.372 3.15778 128.589 2.42667 124.258 2.42667C119.99 2.42667 119.159 3.18889 119.159 5.08667C119.159 6.92222 119.862 7.51333 124.114 7.85556C127.822 8.15111 128.11 8.44667 128.11 9.31778C128.11 10.1578 127.774 10.5156 124.561 10.5156C121.157 10.5156 120.661 10.1578 120.661 8.89778V8.64889L119.047 8.69556C119.047 11.3089 119.878 11.8222 124.497 11.8222Z" fill="#9EA1AB"/>
<path d="M138.301 7.20222C138.7 6.19111 139.116 5.18 139.484 4.26222H139.947C140.283 5.19556 140.65 6.23778 141.002 7.24889L142.552 11.6356H145.142C146.005 9.42667 147.891 4.72889 148.834 2.61333H147.124L145.573 6.56445C145.11 7.76222 144.63 9.00667 144.215 10.08H143.623C143.304 9.08444 142.904 7.93333 142.505 6.79778L141.034 2.61333H138.541L136.942 6.73556C136.511 7.85556 136.047 9.03778 135.664 10.08H135.04C134.673 9.02222 134.241 7.77778 133.841 6.62667L132.451 2.61333H130.629C131.46 4.69778 133.202 9.42667 133.969 11.6356H136.559L138.301 7.20222Z" fill="#9EA1AB"/>
<path d="M155.475 11.8222C160.095 11.8222 161.309 10.7956 161.309 7.35778V6.89111C161.309 3.45333 160.095 2.42667 155.475 2.42667C150.856 2.42667 149.641 3.45333 149.641 6.89111V7.35778C149.641 10.7956 150.856 11.8222 155.475 11.8222ZM155.475 10.3756C151.959 10.3756 151.272 9.72222 151.272 7.20222V7.04667C151.272 4.52667 151.959 3.87333 155.475 3.87333C158.992 3.87333 159.679 4.52667 159.679 7.04667V7.20222C159.679 9.72222 158.992 10.3756 155.475 10.3756Z" fill="#9EA1AB"/>
<path d="M163.595 9.14667C163.595 10.3756 163.595 10.9822 163.579 11.6356H165.209C165.193 10.9822 165.193 10.4067 165.193 9.14667V7.06222C165.193 4.44889 165.944 3.87333 168.693 3.87333C171.491 3.87333 171.81 4.24667 171.81 6.00445V6.31556L173.345 6.28445C173.361 6.05111 173.361 5.81778 173.361 5.63111C173.361 3.04889 172.641 2.42667 169.077 2.42667C167.095 2.42667 165.816 2.92445 165.097 3.93556L165.065 2.61333H163.579C163.595 3.22 163.595 3.78 163.595 4.93111V9.14667Z" fill="#9EA1AB"/>
<path d="M180.38 11.8222C182.793 11.8222 184.232 11.3089 184.999 10.2667L185.031 11.6356H186.517C186.501 10.8733 186.501 10.3444 186.501 9.14667V2.61333C186.501 1.46222 186.501 0.668889 186.517 0H184.855C184.871 0.637778 184.887 2.25556 184.887 3.82667C184.088 2.87778 182.713 2.42667 180.476 2.42667C176.096 2.42667 174.865 3.45333 174.865 6.89111V7.35778C174.865 10.7956 176.096 11.8222 180.38 11.8222ZM180.699 10.3756C177.199 10.3756 176.496 9.72222 176.496 7.20222V7.04667C176.496 4.52667 177.199 3.87333 180.779 3.87333C184.184 3.87333 184.903 4.58889 184.903 7.06222V7.18667C184.903 9.64445 184.184 10.3756 180.699 10.3756Z" fill="#9EA1AB"/>
<path d="M195.07 8.68C199.785 8.68 201 7.65333 201 4.68222V4.37111C201 1.4 199.801 0.373333 194.91 0.373333C189.859 0.373333 188.821 1.30667 188.821 4.06L190.403 4.10667C190.371 2.52 191.042 1.82 194.91 1.82C198.682 1.82 199.37 2.47333 199.37 4.52667C199.37 6.58 198.682 7.23333 195.07 7.23333C194.639 7.23333 194.175 7.23333 193.616 7.21778L193.584 8.66445C194.111 8.68 194.591 8.68 195.07 8.68ZM193.632 9.73778V11.6356H195.646V9.73778H193.632Z" fill="#9EA1AB"/>
</svg>
