<svg width="195" height="44" viewBox="0 0 195 44" fill="none" xmlns="http://www.w3.org/2000/svg">
<path d="M35.3071 36.5106V30.4994C31.3063 30.5487 23.5047 30.5487 18.2036 30.5487H6.70134V7.93281C6.70134 5.32139 6.70134 3.39978 6.75135 1.52744H0C0.0500101 3.39978 0.0500097 5.32139 0.0500097 7.93281V28.6764C0.0500097 32.1747 0.0500101 34.2441 0 36.5106H35.3071Z" fill="white"/>
<path d="M56.9911 37.1019C71.8941 37.1019 75.6949 33.8499 75.6949 22.9115V21.4334C75.6949 10.495 71.8941 7.243 56.9911 7.243C42.1381 7.243 38.3374 10.495 38.3374 21.4334V22.9115C38.3374 33.8499 42.1381 37.1019 56.9911 37.1019ZM56.9911 31.3863C46.7891 31.3863 44.8887 29.514 44.8887 22.3695V21.9754C44.8887 14.7816 46.7891 12.9586 56.9911 12.9586C67.2432 12.9586 69.0935 14.7816 69.0935 21.9754V22.3695C69.0935 29.514 67.2432 31.3863 56.9911 31.3863Z" fill="white"/>
<path d="M97.4902 33.3079C104.842 33.3079 109.043 31.682 111.293 28.7256V32.0269C111.193 36.6092 109.493 38.6293 98.2904 38.6293C88.8885 38.6293 87.3382 37.4468 87.3382 34.8847L81.187 35.0817C81.187 41.9306 84.1876 44 98.3904 44C113.894 44 117.694 41.1422 117.694 33.0123C117.694 29.1691 117.644 26.3113 117.644 21.729V14.3382C117.644 11.776 117.644 9.75588 117.694 7.83427H111.543L111.493 11.9239C109.243 8.86898 104.992 7.243 97.4902 7.243C84.8377 7.243 80.3868 9.65734 80.3868 20.0538V20.4972C80.3868 30.9429 85.0878 33.3079 97.4902 33.3079ZM99.1906 27.7402C89.0886 27.7402 86.9381 25.9171 86.9381 20.4479V20.0538C86.9381 14.6338 89.4886 12.8108 99.1406 12.8108C109.143 12.8108 111.143 14.6831 111.143 20.0538C111.143 25.523 108.943 27.7402 99.1906 27.7402Z" fill="white"/>
<path d="M144.797 0V4.92721H151.399V0H144.797ZM144.847 28.2329C144.847 31.8298 144.847 34.2441 144.797 36.5106H151.399C151.349 34.2441 151.349 31.8298 151.349 28.2822V16.0134C151.349 12.5151 151.349 9.9037 151.399 7.83427H144.797C144.847 9.9037 144.847 12.5644 144.847 16.0134V28.2329Z" fill="white"/>
<path d="M159.643 28.6271C159.643 32.3225 159.643 34.3427 159.593 36.5106H166.194C166.144 34.3427 166.144 32.4211 166.144 28.6271V22.1232C166.144 15.0773 168.245 13.0571 177.346 13.0571C186.748 13.0571 188.449 15.2251 188.449 21.4334V28.7256C188.449 32.7167 188.449 34.1948 188.399 36.5106H195C194.95 34.0963 194.95 32.0269 194.95 28.7256V25.6708C194.95 22.3695 195 21.0392 195 18.8712C195 10.6428 192.55 7.243 179.797 7.243C172.345 7.243 168.095 8.96753 165.794 12.318L165.744 7.83427H159.593C159.643 9.75588 159.643 11.6282 159.643 15.028V28.6271Z" fill="white"/>
</svg>
