<svg width="263" height="25" viewBox="0 0 263 25" fill="none" xmlns="http://www.w3.org/2000/svg">
<path d="M26.3155 24.9998C35.8083 13.9961 10.6944 8.71997 0 8.32496L1.44194 0.960938H44.9406L43.018 8.32496H25.7147C41.576 12.3032 40.0139 22.0937 37.7308 24.9998H26.3155Z" fill="#5200FF"/>
<path d="M45.8606 19.0625C45.4503 21.317 45.1768 22.9994 44.8691 24.4463H53.0742C53.3135 22.9657 53.6212 21.2833 53.9973 19.0625L54.0656 18.5915H76.324L77.3496 20.4085C78.1701 21.889 78.9222 23.3022 79.4692 24.4463H88.3239C87.4008 22.7638 86.4435 20.9805 85.5547 19.2308C85.1102 18.4232 84.6658 17.6156 84.1871 16.8081C88.1187 15.765 89.8623 13.7124 90.5803 9.60734C91.7426 3.14685 88.0504 0.555923 79.3325 0.555923H49.1426C48.9717 1.73362 48.7324 2.97861 48.4589 4.59373L45.8606 19.0625ZM78.3752 7.15101C81.794 7.15101 82.6487 7.89127 82.341 9.60734C82.0333 11.3234 80.9051 12.131 77.4864 12.131H55.228L56.1511 7.15101H78.3752Z" fill="#5200FF"/>
<path d="M104.031 0.555923C100.68 6.00696 93.4862 19.8701 90.5802 24.4463H99.7767L101.52 21.317H125.535L126.219 24.4463H134.595C133.33 19.8701 129.741 6.00696 128.373 0.555923H104.031ZM105.144 14.8901C106.512 12.4338 107.139 9.91017 108.404 7.55479H122.664C123.108 9.97747 123.655 12.5684 124.202 15.0584H105.042L105.144 14.8901Z" fill="#5200FF"/>
<path d="M160.633 24.9173C173.795 24.9173 178.205 22.7639 179.607 14.3181L171.505 14.1835C171.06 16.7408 168.667 17.9521 161.385 17.9521C154.445 17.9521 144.21 18.0622 144.996 13.6543V11.3466C145.817 6.90498 154.445 7.05008 161.385 7.05008C168.769 7.05008 172.53 8.16046 172.052 10.8187L180.188 10.6841C181.556 2.81037 175.436 0.0848632 162.274 0.0848632C149.146 0.0848632 138.569 -0.672906 136.723 11.9627V13.6543C137.69 26.1545 147.505 24.9173 160.633 24.9173Z" fill="#5200FF"/>
<path d="M183.586 19.0625C183.176 21.317 182.902 22.9657 182.595 24.4463H190.8C191.039 22.9321 191.347 21.2833 191.723 19.0625L192.372 15.4958H203.942C205.378 17.2792 206.506 18.6924 207.361 19.8028L211.087 24.4463H220.899L220.933 24.379C218.848 21.9563 213.72 15.6304 210.711 11.8618C214.916 8.36235 221.549 2.84401 224.284 0.623221L224.249 0.555923H213.993L207.805 6.00696C206.814 6.84817 205.72 7.82397 204.386 8.93437H193.535L194.321 4.59373C194.629 2.91131 194.834 1.80091 195.073 0.555923H186.868C186.697 1.76726 186.458 2.97861 186.184 4.59373L183.586 19.0625Z" fill="#5200FF"/>
<path d="M225.526 9.29393L224.295 16.1582H236.856L238.087 9.29393H225.526Z" fill="#5200FF"/>
<path d="M261.879 24.6158H242.874L243.994 18.3142H250.756L252.729 7.14971L245.496 9.19214L246.657 2.89048L255.998 0H261.999L258.718 18.3142H263L261.879 24.6158Z" fill="#5200FF"/>
</svg>
