<svg width="170" height="170" viewBox="0 0 170 170" fill="none" xmlns="http://www.w3.org/2000/svg">
<g clip-path="url(#clip0_1151_7607)">
<path d="M32.4215 163.861C35.0185 166.068 36.2997 167.156 37.9669 168.633L41.9674 163.926C40.1374 162.43 39.2371 161.665 36.3285 159.193L21.543 146.628L26.8965 140.328C28.073 138.944 30.0438 136.625 32.314 134.024L28.0896 130.434L2.67518 160.338L6.89961 163.928C9.10051 161.268 11.6596 158.257 14.4246 155.004L17.6014 151.266L32.4215 163.861Z" fill="white"/>
<path d="M49.0167 144.404C51.6136 146.611 53.0333 147.817 54.5275 149.147L58.4102 144.578C56.8573 143.318 55.5068 142.17 52.8406 139.904L48.6162 136.314C43.1105 131.635 43.0752 129.221 47.8992 123.544C52.635 117.972 54.0197 117.957 57.5863 120.988L58.2442 121.547L61.8518 117.161C61.0848 116.45 60.5307 115.979 59.9075 115.449C54.3326 110.712 51.4612 111.073 45.1076 118.549C41.2248 123.118 40.0489 126.887 41.1041 130.347L37.9929 127.763L34.3749 132.02C35.7547 133.133 37.0705 134.251 39.4598 136.282L49.0167 144.404Z" fill="white"/>
<path d="M85.3333 113.741C90.0691 108.168 91.4665 104.349 90.8079 101.404L93.3598 103.454L96.8308 99.3698C94.0659 97.0797 92.2999 95.5789 90.2223 93.8132C87.0367 91.1059 85.8888 90.0707 83.1533 87.746C78.4441 83.7438 74.6743 83.7589 65.8204 94.1769C57.7314 103.695 57.6252 107.539 62.2547 111.354L66.0354 107.116C63.8592 105.326 63.7843 104.011 69.432 97.3655C75.2267 90.547 77.0787 90.3327 80.2643 93.04L82.5843 95.0116C79.9396 95.3869 76.8057 97.6711 72.4523 102.794C64.8338 111.758 65.1205 115.28 69.7258 119.194C74.2619 123.049 77.6561 122.774 85.3333 113.741ZM83.1891 109.176C77.5121 115.856 75.6914 116.455 73.4753 114.572C71.2245 112.659 70.9956 111.034 77.0844 103.869C82.938 96.9813 84.7501 96.6735 86.2044 97.9094L87.0701 98.6451C89.0784 100.352 89.1015 102.219 83.1891 109.176Z" fill="white"/>
<path d="M111.878 82.5065C120.526 72.3307 120.3 67.9657 114.136 62.7276L110.267 67.0696C113.487 69.8064 113.685 72.2398 107.891 79.0583C101.978 86.0152 99.5447 86.2122 94.5238 81.9452L94.2468 81.7098C89.1914 77.4133 89.0279 75.0093 94.9403 68.0524C100.735 61.2339 103.144 61.1356 106.33 63.8429L106.295 63.8135L109.957 59.295C103.62 53.9097 99.5716 54.463 90.8942 64.6734C82.3639 74.7107 82.3255 79.3872 90.0126 85.9201L91.0514 86.803C98.7385 93.3359 103.377 92.5092 111.878 82.5065Z" fill="white"/>
<path d="M120.124 60.1732C122.651 62.3214 124.348 63.7633 125.911 65.1516L129.794 60.5829C128.172 59.2638 126.475 57.8219 123.982 55.7031L121.524 53.6137L125.906 48.4566C127.694 48.2474 129.64 47.9933 131.674 47.6353L142.266 45.9076L147.237 40.0583L147.227 39.9302C141.982 40.8382 132.679 42.1714 126.661 43.0775C126.601 37.1842 126.622 28.7381 126.801 23.4056L126.673 23.416L121.878 29.0577L121.732 38.3519C121.698 40.7074 121.699 43.0924 121.713 45.2507L117.507 50.2001L109.647 43.5201C107.188 41.4307 105.319 39.8416 103.894 38.5711L100.011 43.1398C101.529 44.3705 103.364 45.9302 105.788 47.9901L120.124 60.1732Z" fill="white"/>
<path d="M159.633 26.3146C168.281 16.1388 167.854 13.2726 163.491 9.56474C159.44 6.12172 156.66 6.02443 147.221 15.5874C140.485 22.3209 139.554 22.3641 137.995 21.0398C136.403 19.6861 136.539 18.1925 141.569 12.274C146.863 6.0439 148.355 5.76199 150.225 7.35108L150.675 7.73365L154.366 3.18048C149.518 -0.939384 146.503 -0.759773 138.12 9.10448C130.119 18.5188 130.267 21.9232 134.561 25.5722C138.716 29.1036 141.425 28.7231 149.976 20.1345C157.095 12.951 158.184 12.8629 159.915 14.3343C161.577 15.7468 161.706 16.9289 156.293 23.2974C150.351 30.2889 148.894 30.6003 146.505 28.5698L145.986 28.1284L142.324 32.6469C148.107 37.5613 150.838 36.6634 159.633 26.3146Z" fill="white"/>
</g>
<defs>
<clipPath id="clip0_1151_7607">
<rect width="170" height="170" fill="white"/>
</clipPath>
</defs>
</svg>
