<svg width="79" height="18" viewBox="0 0 79 18" fill="none" xmlns="http://www.w3.org/2000/svg">
<path d="M1.7747 10.952L1.94175 9.98099C3.2543 9.98099 5.4021 9.98099 6.57146 9.98099C9.37554 9.98099 10.0915 9.12836 10.4256 7.22178C10.7597 5.3152 10.0318 4.47441 7.22773 4.47441H1.66731C1.59572 4.92441 1.51219 5.3981 1.4048 6.03757L0.533748 10.952C0.378629 11.8165 0.283171 12.3139 0.175781 12.8823H1.4406C1.53606 12.302 1.61958 11.8284 1.7747 10.952ZM7.19194 5.58757C8.9937 5.58757 9.35167 6.00205 9.13689 7.22178C8.92211 8.44152 8.40902 8.85599 6.60726 8.85599H2.1446L2.71735 5.58757H7.19194Z" fill="#43FF8E"/>
<path d="M11.3215 10.9876C11.1545 11.9231 11.0709 12.3849 10.9755 12.8823H12.1926C12.2642 12.3849 12.3477 11.9468 12.5147 10.9876L12.8011 9.40073C13.1471 7.41126 13.7915 6.9731 15.8438 6.9731C17.932 6.9731 18.1229 7.25731 17.8842 8.59547L17.8365 8.83231L18.9939 8.80862C19.0297 8.63099 19.0655 8.45336 19.0894 8.31126C19.4354 6.34547 18.982 5.87178 16.3211 5.87178C14.8415 5.87178 13.8273 6.25073 13.1471 7.02047L13.3023 6.01389H12.1926C12.121 6.47573 12.0494 6.90205 11.8943 7.77836L11.3215 10.9876Z" fill="#43FF8E"/>
<path d="M23.8759 13.0244C27.3243 13.0244 28.2312 12.2428 28.6965 9.62573L28.7562 9.27047C29.2215 6.65336 28.3147 5.87178 24.8663 5.87178C21.4179 5.87178 20.511 6.65336 20.0457 9.27047L19.986 9.62573C19.5206 12.2428 20.4275 13.0244 23.8759 13.0244ZM23.9236 11.9231C21.2985 11.9231 20.8809 11.4257 21.215 9.50731L21.2389 9.38889C21.5849 7.47047 22.1815 6.9731 24.8066 6.9731C27.4317 6.9731 27.8613 7.47047 27.5152 9.38889L27.4914 9.50731C27.1573 11.4257 26.5487 11.9231 23.9236 11.9231Z" fill="#43FF8E"/>
<path d="M33.6002 13.0244C35.3065 13.0244 36.4043 12.6455 37.1083 11.8757L36.9532 12.8823H38.0629C38.1583 12.302 38.2299 11.8994 38.385 10.9876L39.268 6.01389C39.4231 5.13757 39.5305 4.53362 39.6379 4.02441H38.397C38.3134 4.50994 38.0987 5.78889 37.8958 6.99678C37.4066 6.23889 36.3804 5.87178 34.6622 5.87178C31.3927 5.87178 30.474 6.65336 30.0086 9.27047L29.9489 9.62573C29.4836 12.2428 30.4024 13.0244 33.6002 13.0244ZM33.8866 11.9231C31.2734 11.9231 30.8439 11.4257 31.178 9.50731L31.2018 9.38889C31.5479 7.47047 32.1564 6.9731 34.8292 6.9731C37.3708 6.9731 37.8123 7.51784 37.4782 9.40073L37.4543 9.49547C37.1321 11.3665 36.4878 11.9231 33.8866 11.9231Z" fill="#43FF8E"/>
<path d="M40.9635 8.61915C40.8323 9.32968 40.7726 9.61389 40.6891 10.0994C40.3192 12.1836 40.9754 13.0244 44.1136 13.0244C45.641 13.0244 46.6791 12.6455 47.3592 11.8876L47.2041 12.8823H48.3138C48.3854 12.4205 48.457 11.9942 48.6121 11.1178L49.1848 7.90862C49.3519 6.9731 49.4354 6.51126 49.5309 6.01389H48.3138C48.2422 6.51126 48.1587 6.94941 47.9916 7.90862L47.6933 9.56652C47.3831 11.3665 46.7149 11.9231 44.4239 11.9231C42.0136 11.9231 41.6675 11.3192 41.9539 9.74415L42.2761 7.89678C42.455 6.8902 42.5147 6.54678 42.6221 6.01389H41.405C41.3215 6.57047 41.238 7.04415 41.0828 7.89678L40.9635 8.61915Z" fill="#43FF8E"/>
<path d="M54.4633 13.0244C57.864 13.0244 58.6396 12.2547 59.0095 10.2178L57.8282 10.1823C57.6135 11.4139 57.0168 11.9231 54.4872 11.9231C51.9099 11.9231 51.4922 11.4257 51.8263 9.50731L51.8502 9.38889C52.1962 7.47047 52.7928 6.9731 55.3702 6.9731C57.8998 6.9731 58.2817 7.50599 58.0669 8.71389L59.2601 8.67836C59.63 6.58231 58.8186 5.87178 55.406 5.87178C52.053 5.87178 51.1223 6.65336 50.657 9.27047L50.5973 9.62573C50.1319 12.2428 51.1223 13.0244 54.4633 13.0244Z" fill="#43FF8E"/>
<path d="M64.2651 13.0244C67.7493 13.0244 68.3579 12.3376 68.6562 10.6915L67.4749 10.6442C67.3198 11.5323 66.926 11.9705 64.3009 11.9705C61.7593 11.9705 61.2701 11.5086 61.4849 9.90994H68.7874C68.8232 9.70862 68.8829 9.45994 68.9068 9.27047C69.3005 6.73626 68.5488 5.87178 65.1481 5.87178C61.7474 5.87178 60.8406 6.65336 60.3752 9.27047L60.3156 9.62573C59.886 12.1718 60.7809 13.0244 64.2651 13.0244ZM65.1004 6.90205C67.5465 6.90205 67.9283 7.37573 67.7016 8.89152H61.6639C62.0338 7.32836 62.702 6.90205 65.1004 6.90205Z" fill="#43FF8E"/>
<path d="M70.3068 10.9876C70.1398 11.9231 70.0563 12.3849 69.9608 12.8823H71.1779C71.2495 12.3849 71.333 11.9468 71.5001 10.9876L71.7864 9.40073C72.1325 7.41126 72.7768 6.9731 74.8292 6.9731C76.9173 6.9731 77.1082 7.25731 76.8696 8.59547L76.8218 8.83231L77.9793 8.80862C78.0151 8.63099 78.0509 8.45336 78.0747 8.31126C78.4208 6.34547 77.9673 5.87178 75.3064 5.87178C73.8269 5.87178 72.8126 6.25073 72.1325 7.02047L72.2876 6.01389H71.1779C71.1063 6.47573 71.0347 6.90205 70.8796 7.77836L70.3068 10.9876Z" fill="#43FF8E"/>
</svg>
