<svg width="182" height="190" viewBox="0 0 182 190" fill="none" xmlns="http://www.w3.org/2000/svg">
<path d="M50.6581 178.99C46.8771 170.913 35.9241 147.076 32.5681 139.352L27.6145 145.319L36.4363 164.023C38.686 168.754 41.0208 173.555 42.9991 177.488L39.8022 181.34C35.4978 180.123 30.31 178.672 25.2424 177.249L5.55199 171.898L0.317402 178.205C8.45126 180.173 33.7029 186.784 42.2968 189.063L50.6581 178.99Z" fill="white"/>
<path d="M75.596 149.986C86.0652 137.373 85.9302 131.825 76.4951 123.984L75.2201 122.924C65.785 115.082 60.31 115.967 49.8408 128.58C39.4068 141.15 39.5418 146.698 48.9769 154.539L50.2519 155.599C59.687 163.441 65.162 162.556 75.596 149.986ZM70.666 145.888C63.4992 154.522 60.5491 154.788 54.3866 149.666L54.0466 149.384C47.8415 144.226 47.604 141.311 54.7708 132.677C61.9728 124.001 64.8452 123.742 71.0502 128.899L71.3902 129.182C77.5528 134.304 77.8679 137.212 70.666 145.888Z" fill="white"/>
<path d="M104.995 114.568C115.323 102.125 114.978 96.8314 107.412 90.5439L102.788 95.8553C106.741 99.1404 107.021 102.091 100.1 110.429C93.0384 118.936 90.0884 119.202 83.9258 114.08L83.5858 113.797C77.3808 108.64 77.1433 105.725 84.2047 97.2178C91.1256 88.8801 94.0478 88.734 97.9579 91.9837L97.9154 91.9484L102.285 86.4251C94.5071 79.9609 89.6033 80.6772 79.2395 93.1626C69.0514 105.436 69.081 111.111 78.5161 118.953L79.7911 120.013C89.2262 127.855 94.8418 126.8 104.995 114.568Z" fill="white"/>
<path d="M132.37 81.5893C138.026 74.7752 139.66 70.125 138.812 66.5599L141.943 69.0185L146.088 64.0244C142.695 61.2762 140.528 59.4747 137.978 57.3553C134.068 54.1055 132.658 52.8622 129.3 50.0717C123.52 45.2677 118.946 45.3278 108.371 58.0672C98.71 69.7061 98.6439 74.3716 104.324 78.9496L108.843 73.7652C106.173 71.6175 106.061 70.0222 112.806 61.8961C119.727 53.5584 121.971 53.2777 125.881 56.5275L128.728 58.8941C125.525 59.3788 121.759 62.1851 116.56 68.449C107.461 79.4108 107.866 83.6813 113.518 88.3793C119.086 93.0067 123.201 92.6357 132.37 81.5893ZM129.693 76.0747C122.913 84.2432 120.713 84.9897 117.993 82.729C115.231 80.433 114.926 78.4635 122.199 69.7025C129.19 61.2802 131.384 60.8866 133.169 62.3701L134.231 63.2532C136.696 65.302 136.755 67.5677 129.693 76.0747Z" fill="white"/>
<path d="M144.76 51.0889C147.862 53.6675 149.945 55.3983 151.864 57.0655L156.502 51.4788C154.512 49.8962 152.429 48.1654 149.369 45.6221L131.774 30.9983C128.756 28.4903 126.461 26.5829 124.711 25.057L120.074 30.6437C121.937 32.1203 124.189 33.9924 127.164 36.465L144.76 51.0889Z" fill="white"/>
<path d="M173.764 31.7207C184.093 19.2776 183.528 15.8044 178.173 11.3537C173.201 7.22089 169.826 7.13367 158.527 18.842C150.462 27.0871 149.333 27.1498 147.42 25.5602C145.465 23.9353 145.606 22.1215 151.614 14.8842C157.937 7.26593 159.743 6.90732 162.038 8.81478L162.591 9.27399L166.995 3.70827C161.045 -1.23699 157.389 -0.985615 147.377 11.0766C137.821 22.5886 138.056 26.7178 143.326 31.0979C148.426 35.3367 151.707 34.8451 161.945 24.3288C170.466 15.5335 171.786 15.4145 173.911 17.1807C175.951 18.8762 176.126 20.3092 169.662 28.0967C162.566 36.646 160.802 37.04 157.87 34.6027L157.232 34.0728L152.863 39.5962C159.96 45.4952 163.26 44.3754 173.764 31.7207Z" fill="white"/>
</svg>
