<svg width="170" height="170" viewBox="0 0 170 170" fill="none" xmlns="http://www.w3.org/2000/svg">
<g clip-path="url(#clip0_1151_7605)">
<path d="M53.1802 156.15C49.9651 149.282 40.6512 129.012 37.7974 122.444L33.5852 127.518L41.0867 143.423C42.9998 147.446 44.9852 151.529 46.6674 154.873L43.9489 158.148C40.2887 157.113 35.8773 155.879 31.5681 154.67L14.8245 150.12L10.3733 155.482C17.2899 157.156 38.7624 162.778 46.0702 164.716L53.1802 156.15Z" fill="white"/>
<path d="M74.386 131.486C83.2883 120.762 83.1735 116.044 75.1504 109.376L74.0662 108.475C66.0432 101.806 61.3876 102.559 52.4852 113.284C43.6127 123.973 43.7275 128.691 51.7505 135.359L52.8347 136.26C60.8578 142.928 65.5134 142.175 74.386 131.486ZM70.1937 128.002C64.0995 135.344 61.5909 135.57 56.3507 131.215L56.0615 130.975C50.7851 126.589 50.5831 124.11 56.6774 116.768C62.8015 109.391 65.244 109.17 70.5205 113.556L70.8096 113.796C76.0499 118.151 76.3178 120.624 70.1937 128.002Z" fill="white"/>
<path d="M99.3849 101.37C108.168 90.7888 107.874 86.2871 101.441 80.9406L97.5086 85.4571C100.87 88.2505 101.108 90.7595 95.2226 97.8495C89.2179 105.083 86.7094 105.31 81.4691 100.954L81.18 100.714C75.9036 96.3285 75.7016 93.8496 81.7063 86.6157C87.5914 79.5258 90.0763 79.4016 93.4012 82.165L93.365 82.1349L97.0805 77.4382C90.4668 71.9414 86.2969 72.5505 77.4842 83.1674C68.8208 93.6043 68.846 98.4299 76.869 105.098L77.9532 105.999C85.9763 112.667 90.7514 111.771 99.3849 101.37Z" fill="white"/>
<path d="M122.663 73.3261C127.473 67.5318 128.862 63.5775 128.141 60.546L130.803 62.6367L134.328 58.3899C131.443 56.053 129.6 54.5211 127.432 52.7189C124.107 49.9555 122.908 48.8983 120.053 46.5253C115.138 42.4403 111.248 42.4914 102.256 53.3243C94.0408 63.2214 93.9845 67.1886 98.8147 71.0815L102.657 66.6729C100.387 64.8466 100.291 63.4901 106.027 56.5801C111.912 49.4902 113.82 49.2516 117.145 52.015L119.567 54.0274C116.843 54.4395 113.64 56.8259 109.219 62.1524C101.482 71.4736 101.826 75.1051 106.633 79.1C111.367 83.0348 114.866 82.7193 122.663 73.3261ZM120.387 68.6368C114.622 75.5828 112.751 76.2176 110.438 74.2953C108.089 72.3429 107.83 70.6681 114.014 63.2183C119.959 56.0564 121.825 55.7217 123.343 56.9832L124.246 57.7342C126.342 59.4763 126.392 61.403 120.387 68.6368Z" fill="white"/>
<path d="M133.199 47.3903C135.837 49.583 137.608 51.0548 139.24 52.4725L143.184 47.7219C141.491 46.3762 139.72 44.9043 137.118 42.7417L122.156 30.3064C119.59 28.1738 117.639 26.5518 116.151 25.2543L112.208 30.0049C113.791 31.2605 115.707 32.8524 118.237 34.955L133.199 47.3903Z" fill="white"/>
<path d="M157.863 30.9207C166.646 20.3398 166.165 17.3864 161.612 13.6018C157.383 10.0875 154.514 10.0133 144.906 19.9694C138.048 26.9806 137.087 27.0338 135.461 25.6822C133.799 24.3005 133.919 22.7581 139.027 16.6039C144.404 10.1258 145.94 9.82083 147.892 11.4428L148.361 11.8333L152.107 7.10055C147.047 2.89538 143.938 3.10914 135.424 13.3661C127.298 23.1553 127.499 26.6666 131.98 30.3911C136.317 33.9956 139.107 33.5775 147.812 24.6351C155.058 17.1561 156.181 17.0549 157.988 18.5567C159.722 19.9985 159.871 21.217 154.374 27.8391C148.34 35.1089 146.84 35.4439 144.347 33.3714L143.805 32.9208L140.089 37.6176C146.125 42.6337 148.93 41.6815 157.863 30.9207Z" fill="white"/>
</g>
<defs>
<clipPath id="clip0_1151_7605">
<rect width="170" height="170" fill="white"/>
</clipPath>
</defs>
</svg>
