<svg width="79" height="18" viewBox="0 0 79 18" fill="none" xmlns="http://www.w3.org/2000/svg">
<path d="M6.66064 12.8823C7.7779 11.2007 11.2129 6.08494 12.342 4.47441H10.9633L8.15825 8.67836C7.4451 9.74415 6.72007 10.8455 6.16144 11.6981H5.15115C4.90154 10.8455 4.58063 9.76784 4.25971 8.6902L2.99982 4.47441H1.69238C2.21536 6.08494 3.79617 11.2126 4.29537 12.8823H6.66064Z" fill="#E965FF"/>
<path d="M15.1668 13.0244C18.6018 13.0244 19.5051 12.2428 19.9686 9.62573L20.0281 9.27047C20.4916 6.65336 19.5883 5.87178 16.1533 5.87178C12.7183 5.87178 11.815 6.65336 11.3514 9.27047L11.292 9.62573C10.8285 12.2428 11.7318 13.0244 15.1668 13.0244ZM15.2143 11.9231C12.5994 11.9231 12.1834 11.4257 12.5162 9.50731L12.54 9.38889C12.8847 7.47047 13.479 6.9731 16.0939 6.9731C18.7087 6.9731 19.1366 7.47047 18.7919 9.38889L18.7682 9.50731C18.4354 11.4257 17.8292 11.9231 15.2143 11.9231Z" fill="#E965FF"/>
<path d="M25.0672 13.0244C28.4546 13.0244 29.2272 12.2547 29.5957 10.2178L28.419 10.1823C28.205 11.4139 27.6107 11.9231 25.0909 11.9231C22.5236 11.9231 22.1076 11.4257 22.4404 9.50731L22.4642 9.38889C22.8089 7.47047 23.4032 6.9731 25.9705 6.9731C28.4903 6.9731 28.8706 7.50599 28.6567 8.71389L29.8453 8.67836C30.2137 6.58231 29.4055 5.87178 26.0061 5.87178C22.6662 5.87178 21.7392 6.65336 21.2756 9.27047L21.2162 9.62573C20.7526 12.2428 21.7392 13.0244 25.0672 13.0244Z" fill="#E965FF"/>
<path d="M34.2603 13.0244C36.1026 13.0244 37.2198 12.6573 37.8379 12.077L37.7071 12.8823H38.7769C38.9314 11.9468 39.0384 11.3428 39.1691 10.6323C39.3355 9.63757 39.4306 9.18757 39.597 8.25205C39.8822 6.62968 39.288 5.87178 35.7698 5.87178C32.5725 5.87178 31.8475 6.54678 31.6216 7.97968L32.8221 8.0152C32.9528 7.1981 33.2856 6.92573 35.7103 6.92573C38.2182 6.92573 38.5629 7.29283 38.3609 8.47705L38.2063 9.31783C37.7309 8.87968 36.7563 8.61915 35.0447 8.61915C31.9188 8.61915 31.1224 9.27047 30.8372 10.8455C30.5757 12.3849 31.0986 13.0244 34.2603 13.0244ZM34.7832 11.9942C32.3585 11.9942 31.9188 11.6981 32.0614 10.8455C32.2159 9.96915 32.6081 9.60205 35.2111 9.60205C37.7666 9.60205 38.1231 9.95731 38.0281 10.4902L37.9567 10.8573C37.826 11.627 37.3387 11.9942 34.7832 11.9942Z" fill="#E965FF"/>
<path d="M41.2558 11.0231C41.1132 11.8165 41.0181 12.3613 40.9111 12.8823H42.1235C42.2067 12.3613 42.3017 11.8165 42.4444 11.0349L43.3239 6.02573C43.4784 5.1731 43.5854 4.53362 43.6924 4.02441H42.48C42.3968 4.53362 42.2899 5.1731 42.1353 6.01389L41.2558 11.0231Z" fill="#E965FF"/>
</svg>
