<svg width="72" height="36" viewBox="0 0 72 36" fill="none" xmlns="http://www.w3.org/2000/svg">
<g filter="url(#filter0_b_206_16150)">
<rect width="72" height="36" rx="18" fill="white" fill-opacity="0.21"/>
</g>
<path d="M24.2805 11.5205C22.9074 14.3994 18.8281 22.8388 17.4551 25.5205H20.2608L21.5941 22.7008H31.4441L32.7575 25.5205H35.7224C34.3892 22.8388 30.3696 14.3994 29.0363 11.5205H24.2805ZM23.4248 18.836C24.2009 17.1402 24.9968 15.405 25.6535 13.9656H27.4643C28.121 15.4247 28.9169 17.1797 29.693 18.8952L30.4094 20.4726H22.6487L23.4248 18.836Z" fill="white"/>
<path d="M37.7598 22.405C37.7598 23.7064 37.7598 24.4754 37.7399 25.5205H45.7592C52.7239 25.5205 54.4551 23.9233 54.4551 18.6783V18.3628C54.4551 13.1177 52.7239 11.5205 45.7791 11.5205H37.7399C37.7598 12.4078 37.7598 13.0585 37.7598 14.0839V22.405ZM45.7791 13.8473C50.8533 13.8473 51.7488 14.7937 51.7488 18.4219V18.6191C51.7488 22.2473 50.8533 23.1937 45.7592 23.1937H40.4063V13.8473H45.7791Z" fill="white"/>
<defs>
<filter id="filter0_b_206_16150" x="-10" y="-10" width="92" height="56" filterUnits="userSpaceOnUse" color-interpolation-filters="sRGB">
<feFlood flood-opacity="0" result="BackgroundImageFix"/>
<feGaussianBlur in="BackgroundImageFix" stdDeviation="5"/>
<feComposite in2="SourceAlpha" operator="in" result="effect1_backgroundBlur_206_16150"/>
<feBlend mode="normal" in="SourceGraphic" in2="effect1_backgroundBlur_206_16150" result="shape"/>
</filter>
</defs>
</svg>
