<svg width="183" height="191" viewBox="0 0 183 191" fill="none" xmlns="http://www.w3.org/2000/svg">
<g clip-path="url(#clip0_337_9329)">
<path d="M32.8975 182.034C35.755 184.462 37.1647 185.66 38.9992 187.285L43.4009 182.106C41.3873 180.46 40.3967 179.618 37.1963 176.898L20.9278 163.072L26.8183 156.141C28.1129 154.618 30.2814 152.066 32.7792 149.204L28.1311 145.254L0.167508 178.158L4.81567 182.108C7.23732 179.181 10.0531 175.868 13.0954 172.288L16.5909 168.175L32.8975 182.034Z" fill="white"/>
<path d="M51.1572 160.625C54.0147 163.054 55.5768 164.381 57.2208 165.844L61.493 160.817C59.7843 159.431 58.2984 158.168 55.3647 155.675L50.7165 151.724C44.6587 146.576 44.6198 143.919 49.9277 137.674C55.1385 131.542 56.6621 131.525 60.5864 134.861L61.3103 135.476L65.2797 130.651C64.4358 129.868 63.8262 129.35 63.1404 128.767C57.0064 123.554 53.8469 123.951 46.856 132.177C42.5838 137.204 41.29 141.352 42.451 145.159L39.0277 142.315L35.0468 146.999C36.5651 148.224 38.0129 149.455 40.6417 151.689L51.1572 160.625Z" fill="white"/>
<path d="M91.1166 126.887C96.3274 120.755 97.865 116.553 97.1403 113.313L99.9482 115.568L103.767 111.074C100.725 108.555 98.782 106.903 96.496 104.96C92.9908 101.982 91.7278 100.843 88.7179 98.2846C83.5364 93.881 79.3884 93.8976 69.6465 105.361C60.746 115.833 60.6292 120.063 65.7231 124.261L69.883 119.598C67.4885 117.628 67.4062 116.181 73.6203 108.869C79.9962 101.367 82.034 101.131 85.5392 104.11L88.0918 106.279C85.1819 106.692 81.7336 109.205 76.9435 114.842C68.5609 124.705 68.8763 128.58 73.9436 132.887C78.9346 137.129 82.6693 136.826 91.1166 126.887ZM88.7573 121.865C82.5108 129.215 80.5075 129.873 78.0691 127.801C75.5926 125.696 75.3407 123.908 82.0403 116.025C88.481 108.446 90.4749 108.108 92.0751 109.468L93.0276 110.277C95.2374 112.155 95.2627 114.21 88.7573 121.865Z" fill="white"/>
<path d="M120.324 92.5196C129.839 81.3232 129.59 76.5203 122.808 70.7568L118.551 75.5343C122.095 78.5456 122.312 81.2232 115.936 88.7255C109.431 96.3802 106.753 96.597 101.229 91.902L100.924 91.643C95.3616 86.9156 95.1818 84.2704 101.687 76.6157C108.063 69.1133 110.714 69.0051 114.219 71.984L114.181 71.9516L118.21 66.9799C111.237 61.0544 106.783 61.6633 97.2353 72.8978C87.8494 83.9419 87.8071 89.0875 96.2652 96.2757L97.4082 97.247C105.866 104.435 110.97 103.526 120.324 92.5196Z" fill="white"/>
<path d="M129.397 67.9461C132.178 70.3098 134.045 71.8964 135.765 73.424L140.037 68.397C138.252 66.9456 136.385 65.359 133.642 63.0277L130.937 60.7288L135.759 55.0544C137.727 54.8242 139.867 54.5446 142.105 54.1507L153.76 52.2497L159.23 45.8137L159.218 45.6728C153.448 46.6718 143.212 48.1387 136.59 49.1357C136.523 42.6514 136.547 33.358 136.743 27.4907L136.603 27.5021L131.327 33.7097L131.166 43.9361C131.129 46.5279 131.13 49.1522 131.146 51.5269L126.517 56.9728L117.869 49.6227C115.164 47.3238 113.106 45.5753 111.539 44.1773L107.266 49.2043C108.937 50.5585 110.956 52.2746 113.623 54.5411L129.397 67.9461Z" fill="white"/>
<path d="M172.869 30.6914C182.384 19.495 181.915 16.3413 177.114 12.2615C172.657 8.47314 169.598 8.36609 159.212 18.8883C151.8 26.2972 150.775 26.3447 149.061 24.8876C147.308 23.3981 147.458 21.7547 152.993 15.2425C158.818 8.38752 160.46 8.07734 162.517 9.82582L163.013 10.2468L167.074 5.23688C161.74 0.703778 158.422 0.901405 149.198 11.7551C140.395 22.1137 140.558 25.8596 145.282 29.8746C149.854 33.7601 152.834 33.3416 162.244 23.8914C170.076 15.9874 171.274 15.8905 173.179 17.5094C175.008 19.0637 175.149 20.3643 169.194 27.3716C162.656 35.0644 161.053 35.407 158.424 33.1728L157.852 32.6871L153.824 37.6589C160.187 43.0662 163.192 42.0783 172.869 30.6914Z" fill="white"/>
</g>
<defs>
<clipPath id="clip0_337_9329">
<rect width="183" height="190" fill="white" transform="translate(0 0.950928)"/>
</clipPath>
</defs>
</svg>
