<svg width="152" height="16" viewBox="0 0 152 16" fill="none" xmlns="http://www.w3.org/2000/svg">
<path d="M15.2291 15.0475C20.7226 8.69821 6.18898 5.65381 0 5.42589L0.834469 1.17676H26.0076L24.895 5.42589H14.8814C24.0605 7.72139 23.1565 13.3706 21.8353 15.0475H15.2291Z" fill="#5200FF"/>
<path d="M26.5802 11.6269C26.3433 12.9364 26.1854 13.9136 26.0078 14.7541H30.7446C30.8827 13.8941 31.0603 12.9169 31.2774 11.6269L31.3169 11.3533H44.1666L44.7587 12.4087C45.2323 13.2687 45.6665 14.0895 45.9823 14.7541H51.0941C50.5612 13.7768 50.0086 12.7409 49.4954 11.7246C49.2388 11.2555 48.9823 10.7865 48.706 10.3174C50.9756 9.71151 51.9822 8.51929 52.3967 6.13483C53.0677 2.38224 50.9362 0.877297 45.9034 0.877297H28.4749C28.3762 1.56136 28.238 2.28452 28.0801 3.22266L26.5802 11.6269ZM45.3508 4.70807C47.3244 4.70807 47.8178 5.13805 47.6402 6.13483C47.4626 7.13161 46.8113 7.60069 44.8376 7.60069H31.988L32.5208 4.70807H45.3508Z" fill="#5200FF"/>
<path d="M60.1615 0.877297C58.2273 4.04354 54.0743 12.096 52.3967 14.7541H57.7058L58.7123 12.9364H72.5762L72.9709 14.7541H77.8063C77.0761 12.096 75.0037 4.04354 74.2143 0.877297H60.1615ZM60.8044 9.20335C61.5938 7.77659 61.9559 6.31073 62.6861 4.9426H70.9183C71.1749 6.34982 71.4907 7.85477 71.8064 9.30108H60.7452L60.8044 9.20335Z" fill="#5200FF"/>
<path d="M92.8378 15.0277C100.436 15.0277 102.982 13.7768 103.791 8.87109L99.1139 8.79292C98.8574 10.2783 97.4758 10.9819 93.272 10.9819C89.2655 10.9819 83.3569 11.0459 83.8108 8.48552V7.14507C84.2845 4.56516 89.2655 4.64944 93.272 4.64944C97.535 4.64944 99.706 5.29441 99.4297 6.83844L104.127 6.76027C104.916 2.1868 101.384 0.603681 93.7851 0.603681C86.2063 0.603681 80.1006 0.163529 79.0346 7.50296V8.48552C79.593 15.7463 85.259 15.0277 92.8378 15.0277Z" fill="#5200FF"/>
<path d="M106.089 11.6269C105.852 12.9364 105.694 13.8941 105.516 14.7541H110.253C110.391 13.8745 110.569 12.9169 110.786 11.6269L111.161 9.55516H117.84C118.669 10.591 119.32 11.4119 119.814 12.0569L121.965 14.7541H127.629L127.649 14.715C126.445 13.3077 123.485 9.63334 121.748 7.44433C124.175 5.41168 128.004 2.20634 129.583 0.916387L129.563 0.877297H123.642L120.07 4.04354C119.498 4.53216 118.866 5.09896 118.097 5.74394H111.832L112.286 3.22266C112.464 2.24543 112.582 1.60045 112.72 0.877297H107.983C107.885 1.58091 107.747 2.28452 107.589 3.22266L106.089 11.6269Z" fill="#5200FF"/>
<path d="M130.3 5.95279L129.59 9.93991H136.841L137.552 5.95279H130.3Z" fill="#5200FF"/>
<path d="M151.353 15.0473H140.438L141.081 11.3484H144.965L146.098 4.79527L141.944 5.99411L142.61 2.29525L147.975 0.598633H151.422L149.538 11.3484H151.996L151.353 15.0473Z" fill="#5200FF"/>
</svg>
