<svg width="284" height="84" viewBox="0 0 284 84" fill="none" xmlns="http://www.w3.org/2000/svg">
<g clip-path="url(#clip0_1318_1818)">
<g filter="url(#filter0_b_1318_1818)">
<path fill-rule="evenodd" clip-rule="evenodd" d="M114 -86C123.643 -86.5333 142.929 -91.28 142.929 -106C143.439 -99.3333 149.968 -86 172 -86H114ZM5 -85.9995C2.23858 -85.9995 0 -83.7609 0 -80.9995V79.0005C0 81.7619 2.23858 84.0005 5.00001 84.0005H279C281.761 84.0005 284 81.7619 284 79.0005V-80.9995C284 -83.7609 281.761 -85.9995 279 -85.9995H5Z" fill="#1E2025"/>
<path d="M74.248 31.392V30.08C75.944 30.08 78.68 30.08 80.232 30.08C83.992 30.08 84.968 28.928 84.968 26.352V26.288C84.968 23.712 83.992 22.64 80.232 22.64H72.568C72.584 23.248 72.584 23.888 72.584 24.752V31.392C72.584 32.56 72.584 33.232 72.568 34H74.264C74.248 33.216 74.248 32.576 74.248 31.392ZM80.232 24.144C82.648 24.144 83.24 24.672 83.24 26.32V26.352C83.24 28 82.648 28.56 80.232 28.56H74.248V24.144H80.232ZM92.2814 34.192C96.9054 34.192 98.1214 33.136 98.1214 29.6V29.12C98.1214 25.584 96.9054 24.528 92.2814 24.528C87.6574 24.528 86.4414 25.584 86.4414 29.12V29.6C86.4414 33.136 87.6574 34.192 92.2814 34.192ZM92.2814 32.704C88.7614 32.704 88.0734 32.032 88.0734 29.44V29.28C88.0734 26.688 88.7614 26.016 92.2814 26.016C95.8014 26.016 96.4894 26.688 96.4894 29.28V29.44C96.4894 32.032 95.8014 32.704 92.2814 32.704ZM100.409 31.44C100.409 32.704 100.409 33.328 100.393 34H102.025C102.009 33.328 102.009 32.736 102.009 31.44V29.296C102.009 26.608 102.761 26.016 105.513 26.016C108.313 26.016 108.633 26.4 108.633 28.208V28.528L110.169 28.496C110.185 28.256 110.185 28.016 110.185 27.824C110.185 25.168 109.465 24.528 105.897 24.528C103.913 24.528 102.633 25.04 101.913 26.08L101.881 24.72H100.393C100.409 25.344 100.409 25.92 100.409 27.104V31.44ZM112.827 28.24C112.827 29.024 112.811 29.936 112.811 30.64C112.811 33.392 113.659 34.08 117.435 34.08C118.139 34.08 118.731 34.048 119.227 34L119.211 32.544C118.603 32.576 118.235 32.592 117.515 32.592C115.067 32.592 114.427 32.352 114.427 30.416V26.176H119.211V24.72H114.427C114.427 23.92 114.427 23.28 114.443 22.896L112.811 22.928C112.827 23.664 112.827 24.192 112.827 24.72C112.315 24.72 111.803 24.736 111.147 24.72V26.176H112.827V28.24ZM121.826 28.608C121.826 29.888 121.826 32.736 121.81 34H123.442C123.426 33.296 123.426 32.384 123.426 31.44V26.176H125.89V24.72H123.426V24.576C123.426 23.632 123.698 23.408 124.418 23.376C125.01 23.344 125.698 23.312 126.114 23.312L126.066 21.936C125.73 21.952 124.866 21.968 124.098 22.016C122.45 22.112 121.81 22.624 121.81 24.416C121.81 24.512 121.81 24.608 121.81 24.72H120.29L120.226 26.176H121.81C121.826 26.976 121.826 27.856 121.826 28.608ZM132.469 34.192C137.093 34.192 138.309 33.136 138.309 29.6V29.12C138.309 25.584 137.093 24.528 132.469 24.528C127.845 24.528 126.629 25.584 126.629 29.12V29.6C126.629 33.136 127.845 34.192 132.469 34.192ZM132.469 32.704C128.949 32.704 128.261 32.032 128.261 29.44V29.28C128.261 26.688 128.949 26.016 132.469 26.016C135.989 26.016 136.677 26.688 136.677 29.28V29.44C136.677 32.032 135.989 32.704 132.469 32.704ZM140.629 31.488C140.629 32.56 140.629 33.296 140.613 34H142.245C142.229 33.296 142.229 32.56 142.229 31.504V24.736C142.229 23.584 142.229 22.72 142.245 22.032H140.613C140.629 22.72 140.629 23.584 140.629 24.72V31.488ZM145.191 22.288V23.776H146.823V22.288H145.191ZM145.207 31.488C145.207 32.56 145.207 33.296 145.191 34H146.823C146.807 33.296 146.807 32.56 146.807 31.504V27.424C146.807 26.272 146.807 25.408 146.823 24.72H145.191C145.207 25.408 145.207 26.272 145.207 27.408V31.488ZM154.969 34.192C159.593 34.192 160.809 33.136 160.809 29.6V29.12C160.809 25.584 159.593 24.528 154.969 24.528C150.345 24.528 149.129 25.584 149.129 29.12V29.6C149.129 33.136 150.345 34.192 154.969 34.192ZM154.969 32.704C151.449 32.704 150.761 32.032 150.761 29.44V29.28C150.761 26.688 151.449 26.016 154.969 26.016C158.489 26.016 159.177 26.688 159.177 29.28V29.44C159.177 32.032 158.489 32.704 154.969 32.704Z" fill="white"/>
<path d="M82.4219 45.375H81.2031V53.2656H82.4219V49.7969H84.5156V48.7812H82.4219V45.375ZM71.5469 52.4219L72.0469 53.4062C76.1641 52.2891 78.6094 49.7812 78.625 46.2812H72.1719V47.2969H77.3047C77.0469 49.6484 74.9609 51.5 71.5469 52.4219ZM73.625 59.0781H82.4219V53.9062H73.625V59.0781ZM74.8438 58.0781V54.9219H81.2031V58.0781H74.8438ZM96.25 45.375H95.0312V53.5312H96.25V49.9531H98.3438V48.9062H96.25V45.375ZM85.375 52.4219L85.875 53.375C89.9766 52.2891 92.4297 49.7812 92.4375 46.2656H86V47.2812H91.1328C90.8828 49.6406 88.7812 51.5 85.375 52.4219ZM87.1562 55.1719H95.0312V59.2656H96.25V54.1719H87.1562V55.1719ZM105.547 45.625C102.445 45.625 100.625 46.4766 100.625 48.0156C100.625 49.5938 102.445 50.4453 105.547 50.4531C108.633 50.4453 110.445 49.5938 110.453 48.0156C110.445 46.4766 108.633 45.625 105.547 45.625ZM99.2188 52.3906H111.875V51.3906H99.2188V52.3906ZM100.75 54.5312H109.047V55.7969H100.781V59.1094H110.672V58.1406H102V56.7031H110.25V53.5938H100.75V54.5312ZM101.906 48.0156C101.891 47.1016 103.242 46.5547 105.547 46.5469C107.852 46.5547 109.195 47.1016 109.203 48.0156C109.195 48.9844 107.852 49.5156 105.547 49.5156C103.242 49.5156 101.891 48.9844 101.906 48.0156ZM129.781 56.4688H123.984V53.4688H128.219V46.3594H127.016V48.875H119.797V46.3594H118.562V53.4688H122.781V56.4688H117.062V57.4844H129.781V56.4688ZM119.797 52.4688V49.875H127.016V52.4688H119.797ZM134.625 46.4531C132.57 46.4609 131.133 48.3438 131.141 51.2969C131.133 54.2578 132.57 56.1328 134.625 56.125C135.969 56.1328 137.047 55.3125 137.625 53.9062H141.188V59.2969H142.406V45.375H141.188V48.4844H137.539C136.938 47.2031 135.898 46.4609 134.625 46.4531ZM132.312 51.2969C132.32 49.0391 133.258 47.5547 134.625 47.5469C135.984 47.5547 136.938 49.0391 136.938 51.2969C136.938 53.5547 135.984 55.0391 134.625 55.0312C133.258 55.0391 132.32 53.5547 132.312 51.2969ZM137.891 49.5156H141.188V52.8906H137.938C138.039 52.4062 138.094 51.8672 138.094 51.2969C138.094 50.6484 138.023 50.0547 137.891 49.5156ZM157.375 51.1875H144.719V52.1875H150.438V53.5938H146.25V54.5312H154.547V55.8438H146.281V59.1094H156.172V58.1406H147.5V56.75H155.75V53.5938H151.641V52.1875H157.375V51.1875ZM145.406 49.5625L145.812 50.5C148.086 50.2656 150.219 49.3828 151.047 47.9766C151.883 49.3828 154.023 50.2656 156.297 50.5L156.703 49.5625C154.258 49.3438 151.938 48.2812 151.758 46.8438H156.25V45.875H145.875V46.8438H150.344C150.148 48.2891 147.836 49.3438 145.406 49.5625ZM169.531 46.6719V45.875H168.266V46.6719C168.266 48.6641 165.727 50.3203 163.219 50.6719L163.719 51.6719C165.883 51.3125 168.016 50.1328 168.906 48.4141C169.797 50.1172 171.938 51.3125 174.094 51.6719L174.594 50.6719C172.086 50.3203 169.539 48.6328 169.531 46.6719ZM162.562 54.2344H168.266V59.2656H169.469V54.2344H175.219V53.2031H162.562V54.2344ZM185.109 54.7031V53.9375H183.922V54.7031C183.906 56.0312 182.852 57.5156 181.094 58.1719L181.719 59.0781C183.047 58.5781 184 57.6094 184.5 56.4922C184.914 57.6562 185.773 58.6719 187.125 59.1875C188.406 58.6484 189.258 57.5781 189.688 56.4531C190.172 57.6172 191.141 58.5859 192.531 59.0781L193.141 58.1719C191.359 57.5547 190.305 56.1328 190.312 54.7031V53.9375H189.109V54.7031C189.117 55.7734 188.414 57.1641 187.086 57.9844C185.766 57.2344 185.102 55.9297 185.109 54.7031ZM180.734 49.4531C180.727 51.3594 182.266 52.6719 184.375 52.6719C186.484 52.6719 188.008 51.3594 188.016 49.4531C188.008 47.5156 186.484 46.1953 184.375 46.2031C182.266 46.1953 180.727 47.5156 180.734 49.4531ZM181.938 49.4531C181.922 48.1562 182.945 47.2344 184.375 47.25C185.789 47.2344 186.812 48.1562 186.812 49.4531C186.812 50.7422 185.789 51.6484 184.375 51.6562C182.945 51.6484 181.922 50.7422 181.938 49.4531ZM190.656 53.3281H191.875V45.3906H190.656V53.3281ZM205.469 49.5938H197.172V45.8906H195.953V50.5781H205.469V49.5938ZM194.219 53.4688H206.938V52.4688H194.219V53.4688ZM195.875 58.9219H205.547V57.9062H197.094V54.8906H195.875V58.9219ZM216.781 47.9531V47.3594H219.906V46.3594H212.406V47.3594H215.578V47.9531C215.562 49.9453 214.109 51.7344 212.031 52.4688L212.688 53.4219C214.32 52.8281 215.594 51.6016 216.188 50.0234C216.781 51.4609 217.992 52.5938 219.578 53.1562L220.203 52.2031C218.148 51.4922 216.789 49.8047 216.781 47.9531ZM213.844 55.4844H221.719V59.2656H222.938V54.4844H213.844V55.4844ZM221.719 53.75H222.938V50.0938H225.031V49.0469H222.938V45.375H221.719V53.75ZM229.734 46.0312C227.617 46.0234 226.117 47.3516 226.125 49.2344C226.117 51.1406 227.617 52.4531 229.734 52.4531C231.617 52.4531 233.047 51.3594 233.289 49.7188H236.188V52.8281H237.422V45.375H236.188V48.7031H233.281C233.016 47.1094 231.594 46.0234 229.734 46.0312ZM227.297 49.2344C227.297 47.9531 228.305 47.0625 229.734 47.0781C231.133 47.0625 232.141 47.9531 232.141 49.2344C232.141 50.5 231.133 51.4141 229.734 51.4219C228.305 51.4141 227.297 50.5 227.297 49.2344ZM228.469 59.0781H237.422V53.5312H236.188V55.2969H229.703V53.5312H228.469V59.0781ZM229.703 58.0781V56.2812H236.188V58.0781H229.703ZM252.391 51.25H239.734V52.25H245.438V53.625H241.266V54.5781H249.562V55.8125H241.297V59.1094H251.188V58.1406H242.516V56.7344H250.766V53.625H246.656V52.25H252.391V51.25ZM241.375 50.0781H250.75V45.8438H241.375V50.0781ZM242.594 49.0938V46.8281H249.531V49.0938H242.594Z" fill="#535559"/>
<path d="M36.1475 28.8867H24.2031" stroke="#9EA1AB" stroke-width="1.5" stroke-linecap="round" stroke-linejoin="round"/>
<path d="M24.2031 35.0527H36.1475" stroke="#9EA1AB" stroke-width="1.5" stroke-linecap="round" stroke-linejoin="round"/>
<path d="M31.3698 41.2188H24.2031" stroke="#9EA1AB" stroke-width="1.5" stroke-linecap="round" stroke-linejoin="round"/>
<path d="M44.1014 44.8501C41.9431 42.4002 35.8259 42.9592 35.8281 47.1734C35.8308 52.2226 44.3735 52.4699 44.3734 47.1734C44.3734 43.0815 44.3734 32.5221 44.3734 27.7539C44.3734 30.8861 45.2134 37.1518 51.7337 37.1518" stroke="#9EA1AB" stroke-width="1.5" stroke-linecap="round" stroke-linejoin="round"/>
</g>
</g>
<defs>
<filter id="filter0_b_1318_1818" x="-80" y="-186" width="444" height="350" filterUnits="userSpaceOnUse" color-interpolation-filters="sRGB">
<feFlood flood-opacity="0" result="BackgroundImageFix"/>
<feGaussianBlur in="BackgroundImageFix" stdDeviation="40"/>
<feComposite in2="SourceAlpha" operator="in" result="effect1_backgroundBlur_1318_1818"/>
<feBlend mode="normal" in="SourceGraphic" in2="effect1_backgroundBlur_1318_1818" result="shape"/>
</filter>
<clipPath id="clip0_1318_1818">
<rect width="284" height="84" fill="white"/>
</clipPath>
</defs>
</svg>
