<svg width="284" height="106" viewBox="0 0 284 106" fill="none" xmlns="http://www.w3.org/2000/svg">
<g clip-path="url(#clip0_1318_1775)">
<g filter="url(#filter0_b_1318_1775)">
<path fill-rule="evenodd" clip-rule="evenodd" d="M114 20C123.643 19.4667 142.929 14.72 142.929 0C143.439 6.66667 149.968 20 172 20H114ZM5 20.0005C2.23858 20.0005 0 22.2391 0 25.0005V185C0 187.762 2.23858 190 5.00001 190H279C281.761 190 284 187.762 284 185V25.0005C284 22.2391 281.761 20.0005 279 20.0005H5Z" fill="#1E2025"/>
<path d="M0 104L284 104.485" stroke="url(#paint0_linear_1318_1775)"/>
<path d="M79.944 59C81.048 56.728 84.456 49.816 85.592 47.64H83.848L81.064 53.32C80.36 54.76 79.64 56.248 79.096 57.4H77.752C77.208 56.248 76.52 54.792 75.832 53.336L73.128 47.64H71.256C72.344 49.816 75.688 56.744 76.76 59H79.944ZM91.2345 59.192C95.8585 59.192 97.0745 58.136 97.0745 54.6V54.12C97.0745 50.584 95.8585 49.528 91.2345 49.528C86.6105 49.528 85.3945 50.584 85.3945 54.12V54.6C85.3945 58.136 86.6105 59.192 91.2345 59.192ZM91.2345 57.704C87.7145 57.704 87.0265 57.032 87.0265 54.44V54.28C87.0265 51.688 87.7145 51.016 91.2345 51.016C94.7545 51.016 95.4425 51.688 95.4425 54.28V54.44C95.4425 57.032 94.7545 57.704 91.2345 57.704ZM104.514 59.192C109.074 59.192 110.162 58.152 110.162 55.4L108.578 55.352C108.578 57.016 107.906 57.704 104.514 57.704C101.058 57.704 100.37 57.032 100.37 54.44V54.28C100.37 51.688 101.058 51.016 104.514 51.016C107.906 51.016 108.546 51.736 108.546 53.368L110.13 53.32C110.13 50.488 109.09 49.528 104.514 49.528C100.018 49.528 98.7383 50.584 98.7383 54.12V54.6C98.7383 58.136 100.034 59.192 104.514 59.192ZM117.114 59.192C119.594 59.192 121.002 58.696 121.706 57.912L121.722 59H123.162C123.146 57.736 123.146 56.92 123.146 55.96C123.146 54.616 123.162 54.008 123.162 52.744C123.162 50.552 122.346 49.528 117.61 49.528C113.306 49.528 112.33 50.44 112.362 52.376L113.978 52.424C113.962 51.32 114.346 50.952 117.61 50.952C120.986 50.952 121.546 51.448 121.546 53.048V54.184C120.794 53.592 119.418 53.24 117.114 53.24C112.906 53.24 111.993 54.12 111.993 56.248C111.993 58.328 112.858 59.192 117.114 59.192ZM117.578 57.8C114.314 57.8 113.642 57.4 113.642 56.248C113.642 55.064 114.074 54.568 117.578 54.568C121.018 54.568 121.578 55.048 121.578 55.768V56.264C121.578 57.304 121.018 57.8 117.578 57.8ZM126.051 56.488C126.051 57.56 126.051 58.296 126.035 59H127.667C127.651 58.296 127.651 57.56 127.651 56.504V49.736C127.651 48.584 127.651 47.72 127.667 47.032H126.035C126.051 47.72 126.051 48.584 126.051 49.72V56.488ZM142.95 59.224C148.15 59.224 149.014 58.392 149.014 55.992C149.014 53.688 148.182 52.84 142.598 52.44C138.262 52.136 137.814 51.736 137.814 50.52C137.814 49.384 138.374 48.92 142.07 48.92C146.134 48.92 146.822 49.32 146.822 50.568V50.904L148.422 50.856V50.568C148.422 48.264 147.398 47.416 142.086 47.416C137.03 47.416 136.134 48.312 136.134 50.664C136.134 52.984 136.966 53.64 142.486 54.072C146.774 54.408 147.334 54.84 147.334 56.024C147.334 57.272 146.838 57.704 142.95 57.704C138.438 57.704 137.622 57.4 137.622 55.896V55.512L136.022 55.56V55.88C136.022 58.568 137.174 59.224 142.95 59.224ZM156.595 59.192C161.267 59.192 162.147 58.264 162.147 56.04L160.563 55.976C160.563 57.176 160.131 57.768 156.611 57.768C153.203 57.768 152.435 57.144 152.355 54.984H162.147C162.147 54.712 162.163 54.376 162.147 54.12C162.099 50.584 161.043 49.528 156.483 49.528C151.923 49.528 150.707 50.584 150.707 54.12V54.6C150.707 58.136 151.923 59.192 156.595 59.192ZM156.483 50.92C159.763 50.92 160.387 51.56 160.451 53.608H152.355C152.467 51.496 153.267 50.92 156.483 50.92ZM169.16 59.192C171.64 59.192 173.048 58.696 173.752 57.912L173.768 59H175.208C175.192 57.736 175.192 56.92 175.192 55.96C175.192 54.616 175.208 54.008 175.208 52.744C175.208 50.552 174.392 49.528 169.656 49.528C165.352 49.528 164.376 50.44 164.408 52.376L166.024 52.424C166.008 51.32 166.392 50.952 169.656 50.952C173.032 50.952 173.592 51.448 173.592 53.048V54.184C172.84 53.592 171.464 53.24 169.16 53.24C164.952 53.24 164.04 54.12 164.04 56.248C164.04 58.328 164.904 59.192 169.16 59.192ZM169.624 57.8C166.36 57.8 165.688 57.4 165.688 56.248C165.688 55.064 166.12 54.568 169.624 54.568C173.064 54.568 173.624 55.048 173.624 55.768V56.264C173.624 57.304 173.064 57.8 169.624 57.8ZM178.065 56.44C178.065 57.704 178.065 58.328 178.049 59H179.681C179.665 58.328 179.665 57.736 179.665 56.44V54.296C179.665 51.608 180.417 51.016 183.169 51.016C185.969 51.016 186.289 51.4 186.289 53.208V53.528L187.825 53.496C187.841 53.256 187.841 53.016 187.841 52.824C187.841 50.168 187.121 49.528 183.553 49.528C181.569 49.528 180.289 50.04 179.569 51.08L179.537 49.72H178.049C178.065 50.344 178.065 50.92 178.065 52.104V56.44ZM195.124 59.192C199.684 59.192 200.772 58.152 200.772 55.4L199.188 55.352C199.188 57.016 198.516 57.704 195.124 57.704C191.668 57.704 190.98 57.032 190.98 54.44V54.28C190.98 51.688 191.668 51.016 195.124 51.016C198.516 51.016 199.156 51.736 199.156 53.368L200.74 53.32C200.74 50.488 199.7 49.528 195.124 49.528C190.628 49.528 189.348 50.584 189.348 54.12V54.6C189.348 58.136 190.644 59.192 195.124 59.192ZM203.003 56.472C203.003 57.64 203.003 58.216 202.987 59H204.619C204.603 58.2 204.603 57.512 204.603 56.44V54.2C204.603 51.768 205.355 51.016 208.491 51.016C211.739 51.016 212.347 51.832 212.347 53.96V56.472C212.347 57.608 212.347 58.184 212.331 59H213.963C213.947 58.088 213.947 57.336 213.947 56.504V55.48C213.947 54.52 213.963 54.136 213.963 53.48C213.963 50.664 213.147 49.528 208.923 49.528C206.699 49.528 205.323 50.024 204.555 51.016C204.587 49.928 204.635 47.304 204.635 47.032H202.987C203.003 47.72 203.003 48.568 203.003 49.72V56.472ZM216.847 47.288V48.776H218.479V47.288H216.847ZM216.863 56.488C216.863 57.56 216.863 58.296 216.847 59H218.479C218.463 58.296 218.463 57.56 218.463 56.504V52.424C218.463 51.272 218.463 50.408 218.479 49.72H216.847C216.863 50.408 216.863 51.272 216.863 52.408V56.488ZM221.409 56.44C221.409 57.704 221.409 58.328 221.393 59H223.025C223.009 58.328 223.009 57.736 223.009 56.44V54.2C223.009 51.768 223.761 51.016 226.897 51.016C230.145 51.016 230.753 51.832 230.753 53.96V56.456C230.753 57.816 230.753 58.28 230.737 59H232.369C232.353 58.248 232.353 57.608 232.353 56.456V55.48C232.353 54.52 232.369 54.136 232.369 53.48C232.369 50.664 231.553 49.528 227.329 49.528C225.057 49.528 223.665 50.04 222.913 51.08L222.881 49.72H221.393C221.409 50.344 221.409 50.92 221.409 52.104V56.44ZM240.229 58.072C242.533 58.072 243.925 57.56 244.693 56.648L244.677 57.56C244.645 59.208 244.037 59.976 240.229 59.976C236.981 59.976 236.421 59.528 236.421 58.584L234.869 58.648C234.869 60.76 235.941 61.432 240.229 61.432C245.093 61.432 246.277 60.488 246.277 57.768C246.277 56.52 246.261 55.56 246.261 54.2V51.8C246.261 51.016 246.261 50.408 246.277 49.72H244.789L244.773 50.952C244.005 50.024 242.597 49.528 240.213 49.528C236.181 49.528 234.613 50.312 234.613 53.72V53.88C234.613 57.288 236.261 58.072 240.229 58.072ZM236.245 53.88V53.72C236.245 51.672 237.157 50.984 240.501 50.984C243.925 50.984 244.645 51.656 244.661 53.72C244.661 55.768 243.861 56.616 240.517 56.616C236.997 56.616 236.245 55.928 236.245 53.88Z" fill="white"/>
<path d="M84.2812 81.4688H78.4844V78.4688H82.7188V71.3594H81.5156V73.875H74.2969V71.3594H73.0625V78.4688H77.2812V81.4688H71.5625V82.4844H84.2812V81.4688ZM74.2969 77.4688V74.875H81.5156V77.4688H74.2969ZM92.5781 71.0625H86.4375V72.0469H91.2812C91.2344 72.5391 91.1328 73 90.9531 73.4375L85.7344 73.6719L85.9375 74.6562L90.4688 74.3281C89.6328 75.5312 88.125 76.4688 85.7969 77.0625L86.25 78.0312C90.5625 76.8906 92.5703 74.5469 92.5781 71.0625ZM87.9062 79.1875H95.6875V80.6094H87.9375V84.0781H97.375V83.0938H89.1406V81.5312H96.9062V78.2031H87.9062V79.1875ZM92.625 74.75H95.6719V77.5781H96.9062V70.375H95.6719V73.7344H92.625V74.75ZM110.672 70.375H109.438V84.2969H110.672V70.375ZM99.7344 76.2969C99.7422 79.2578 101.211 81.1328 103.281 81.125C105.344 81.1328 106.836 79.2578 106.828 76.2969C106.836 73.3438 105.344 71.4609 103.281 71.4531C101.211 71.4609 99.7422 73.3438 99.7344 76.2969ZM100.922 76.2969C100.922 74.0391 101.891 72.5547 103.281 72.5469C104.68 72.5547 105.641 74.0391 105.641 76.2969C105.641 78.5547 104.68 80.0391 103.281 80.0312C101.891 80.0391 100.922 78.5547 100.922 76.2969ZM128.547 70.375H127.312V77.5938H128.547V70.375ZM117.297 76.0781L117.453 77.0938C119.906 77.1016 123.172 76.9922 125.953 76.5781L125.891 75.6719C125.219 75.75 124.516 75.8203 123.797 75.875V72.3125H125.203V71.3281H117.688V72.3125H119.078V76.0625C118.453 76.0703 117.852 76.0781 117.297 76.0781ZM119.453 79.25H127.328V80.6562H119.5V84.1094H129.078V83.1094H120.703V81.5781H128.547V78.2656H119.453V79.25ZM120.266 76.0391V72.3125H122.609V75.9453C121.82 75.9922 121.031 76.0156 120.266 76.0391ZM143.609 81.4531H140.453V77.6719C141.602 77.0547 142.297 76.0703 142.297 74.8281C142.297 72.6797 140.188 71.2656 137.219 71.25C134.25 71.2656 132.141 72.6797 132.141 74.8281C132.141 76.0938 132.859 77.0938 134.047 77.7109V81.4531H130.891V82.4844H143.609V81.4531ZM133.328 74.8281C133.32 73.2734 134.938 72.25 137.219 72.2656C139.477 72.25 141.109 73.2734 141.109 74.8281C141.109 76.3828 139.477 77.4219 137.219 77.4219C134.938 77.4219 133.32 76.3828 133.328 74.8281ZM135.25 81.4531V78.1562C135.844 78.3125 136.508 78.3906 137.219 78.3906C137.945 78.3906 138.617 78.3047 139.219 78.1484V81.4531H135.25ZM155.578 70.3906H154.359V80.7969H155.578V76H157.672V74.9688H155.578V70.3906ZM144.75 73.0938H153.031V72.0938H149.5V70.3906H148.281V72.0938H144.75V73.0938ZM145.547 76.4531C145.539 78.0156 146.883 79.0234 148.891 79.0156C150.875 79.0234 152.219 78.0156 152.234 76.4531C152.219 74.875 150.875 73.8594 148.891 73.8594C146.883 73.8594 145.539 74.875 145.547 76.4531ZM146.719 76.4531C146.711 75.4609 147.578 74.8203 148.891 74.8281C150.188 74.8203 151.062 75.4609 151.078 76.4531C151.062 77.4297 150.188 78.0625 148.891 78.0469C147.578 78.0625 146.711 77.4297 146.719 76.4531ZM146.891 83.9688H156.219V82.9375H148.094V79.9688H146.891V83.9688ZM169.484 72.4219V71.3594H168.203V72.4219C168.195 74.8125 165.5 76.9141 163.094 77.375L163.656 78.4062C165.758 77.9141 167.953 76.4297 168.859 74.3906C169.758 76.4297 171.961 77.9219 174.062 78.4062L174.625 77.375C172.211 76.9219 169.492 74.8047 169.484 72.4219ZM162.562 82.375H175.281V81.3594H162.562V82.375ZM182.516 72.0312H177.125V73.0469H181.312C181.266 73.8125 181.148 74.5469 180.945 75.2656L176.453 75.5469L176.641 76.6406L180.602 76.2344C179.898 77.875 178.625 79.3359 176.484 80.5L177.188 81.375C179.422 80.1484 180.781 78.6016 181.562 76.8906H184.188V83.5625H185.359V70.75H184.188V75.875H181.961C182.359 74.6484 182.508 73.3438 182.516 72.0312ZM187.109 84.2656H188.281V70.375H187.109V84.2656ZM201.672 70.375H200.438V84.2656H201.672V70.375ZM190.5 80.625L191.188 81.5781C192.797 80.8203 194.141 79.2188 194.766 77.2812C195.414 79.1172 196.766 80.6172 198.375 81.3281L199.062 80.375C196.969 79.4844 195.344 77.2344 195.344 74.9062V73.7969H198.578V72.7969H195.344V70.6406H194.125V72.7969H190.875V73.7969H194.141V74.9062C194.141 77.3438 192.562 79.6875 190.5 80.625ZM216.703 76.9844H210.5V74.1719H209.297V76.9844H204.062V78H216.703V76.9844ZM205.406 80.6094H213.844V84.2656H215.094V79.5938H205.406V80.6094ZM205.562 72.1406H213.875V72.1875C213.875 73.2344 213.875 74.3516 213.516 75.9062L214.75 76.0312C215.086 74.4453 215.086 73.2578 215.094 72.1875V71.1406H205.562V72.1406Z" fill="#535559"/>
<path d="M41.9371 62.5394C43.2568 62.6916 44.5905 62.4146 45.7404 61.7494C46.8903 61.0842 47.7953 60.0662 48.3213 58.8462C48.8472 57.6263 48.9661 56.2694 48.6603 54.9766C48.3545 53.6838 47.6404 52.5239 46.6236 51.6688C45.6069 50.8138 44.3417 50.3091 43.0156 50.2295C41.6895 50.1499 40.3731 50.4997 39.2614 51.227C38.1497 51.9544 37.302 53.0205 36.8438 54.2675C36.3856 55.5145 36.3414 56.8759 36.7177 58.1499" stroke="#9EA1AB" stroke-width="1.5" stroke-linecap="round" stroke-linejoin="round"/>
<path d="M36.4694 57.7418L42.4525 62.7721L31.0821 74.387C29.9843 75.5084 28.2077 75.5937 27.0075 74.5828C25.775 73.5446 25.5834 71.7181 26.5736 70.4468L36.4694 57.7418Z" stroke="#9EA1AB" stroke-width="1.5" stroke-linecap="round" stroke-linejoin="round"/>
<path d="M27.8867 68.582L32.6137 72.8926" stroke="#9EA1AB" stroke-width="1.5" stroke-linecap="round"/>
</g>
<g filter="url(#filter1_b_1318_1775)">
<path fill-rule="evenodd" clip-rule="evenodd" d="M114 20C123.643 19.4667 142.929 14.72 142.929 0C143.439 6.66667 149.968 20 172 20H114ZM5 20.0005C2.23858 20.0005 0 22.2391 0 25.0005V185C0 187.762 2.23858 190 5.00001 190H279C281.761 190 284 187.762 284 185V25.0005C284 22.2391 281.761 20.0005 279 20.0005H5Z" fill="#1E2025"/>
<path d="M0 104L284 104.485" stroke="url(#paint1_linear_1318_1775)"/>
<path d="M79.944 59C81.048 56.728 84.456 49.816 85.592 47.64H83.848L81.064 53.32C80.36 54.76 79.64 56.248 79.096 57.4H77.752C77.208 56.248 76.52 54.792 75.832 53.336L73.128 47.64H71.256C72.344 49.816 75.688 56.744 76.76 59H79.944ZM91.2345 59.192C95.8585 59.192 97.0745 58.136 97.0745 54.6V54.12C97.0745 50.584 95.8585 49.528 91.2345 49.528C86.6105 49.528 85.3945 50.584 85.3945 54.12V54.6C85.3945 58.136 86.6105 59.192 91.2345 59.192ZM91.2345 57.704C87.7145 57.704 87.0265 57.032 87.0265 54.44V54.28C87.0265 51.688 87.7145 51.016 91.2345 51.016C94.7545 51.016 95.4425 51.688 95.4425 54.28V54.44C95.4425 57.032 94.7545 57.704 91.2345 57.704ZM104.514 59.192C109.074 59.192 110.162 58.152 110.162 55.4L108.578 55.352C108.578 57.016 107.906 57.704 104.514 57.704C101.058 57.704 100.37 57.032 100.37 54.44V54.28C100.37 51.688 101.058 51.016 104.514 51.016C107.906 51.016 108.546 51.736 108.546 53.368L110.13 53.32C110.13 50.488 109.09 49.528 104.514 49.528C100.018 49.528 98.7383 50.584 98.7383 54.12V54.6C98.7383 58.136 100.034 59.192 104.514 59.192ZM117.114 59.192C119.594 59.192 121.002 58.696 121.706 57.912L121.722 59H123.162C123.146 57.736 123.146 56.92 123.146 55.96C123.146 54.616 123.162 54.008 123.162 52.744C123.162 50.552 122.346 49.528 117.61 49.528C113.306 49.528 112.33 50.44 112.362 52.376L113.978 52.424C113.962 51.32 114.346 50.952 117.61 50.952C120.986 50.952 121.546 51.448 121.546 53.048V54.184C120.794 53.592 119.418 53.24 117.114 53.24C112.906 53.24 111.993 54.12 111.993 56.248C111.993 58.328 112.858 59.192 117.114 59.192ZM117.578 57.8C114.314 57.8 113.642 57.4 113.642 56.248C113.642 55.064 114.074 54.568 117.578 54.568C121.018 54.568 121.578 55.048 121.578 55.768V56.264C121.578 57.304 121.018 57.8 117.578 57.8ZM126.051 56.488C126.051 57.56 126.051 58.296 126.035 59H127.667C127.651 58.296 127.651 57.56 127.651 56.504V49.736C127.651 48.584 127.651 47.72 127.667 47.032H126.035C126.051 47.72 126.051 48.584 126.051 49.72V56.488ZM142.95 59.224C148.15 59.224 149.014 58.392 149.014 55.992C149.014 53.688 148.182 52.84 142.598 52.44C138.262 52.136 137.814 51.736 137.814 50.52C137.814 49.384 138.374 48.92 142.07 48.92C146.134 48.92 146.822 49.32 146.822 50.568V50.904L148.422 50.856V50.568C148.422 48.264 147.398 47.416 142.086 47.416C137.03 47.416 136.134 48.312 136.134 50.664C136.134 52.984 136.966 53.64 142.486 54.072C146.774 54.408 147.334 54.84 147.334 56.024C147.334 57.272 146.838 57.704 142.95 57.704C138.438 57.704 137.622 57.4 137.622 55.896V55.512L136.022 55.56V55.88C136.022 58.568 137.174 59.224 142.95 59.224ZM156.595 59.192C161.267 59.192 162.147 58.264 162.147 56.04L160.563 55.976C160.563 57.176 160.131 57.768 156.611 57.768C153.203 57.768 152.435 57.144 152.355 54.984H162.147C162.147 54.712 162.163 54.376 162.147 54.12C162.099 50.584 161.043 49.528 156.483 49.528C151.923 49.528 150.707 50.584 150.707 54.12V54.6C150.707 58.136 151.923 59.192 156.595 59.192ZM156.483 50.92C159.763 50.92 160.387 51.56 160.451 53.608H152.355C152.467 51.496 153.267 50.92 156.483 50.92ZM169.16 59.192C171.64 59.192 173.048 58.696 173.752 57.912L173.768 59H175.208C175.192 57.736 175.192 56.92 175.192 55.96C175.192 54.616 175.208 54.008 175.208 52.744C175.208 50.552 174.392 49.528 169.656 49.528C165.352 49.528 164.376 50.44 164.408 52.376L166.024 52.424C166.008 51.32 166.392 50.952 169.656 50.952C173.032 50.952 173.592 51.448 173.592 53.048V54.184C172.84 53.592 171.464 53.24 169.16 53.24C164.952 53.24 164.04 54.12 164.04 56.248C164.04 58.328 164.904 59.192 169.16 59.192ZM169.624 57.8C166.36 57.8 165.688 57.4 165.688 56.248C165.688 55.064 166.12 54.568 169.624 54.568C173.064 54.568 173.624 55.048 173.624 55.768V56.264C173.624 57.304 173.064 57.8 169.624 57.8ZM178.065 56.44C178.065 57.704 178.065 58.328 178.049 59H179.681C179.665 58.328 179.665 57.736 179.665 56.44V54.296C179.665 51.608 180.417 51.016 183.169 51.016C185.969 51.016 186.289 51.4 186.289 53.208V53.528L187.825 53.496C187.841 53.256 187.841 53.016 187.841 52.824C187.841 50.168 187.121 49.528 183.553 49.528C181.569 49.528 180.289 50.04 179.569 51.08L179.537 49.72H178.049C178.065 50.344 178.065 50.92 178.065 52.104V56.44ZM195.124 59.192C199.684 59.192 200.772 58.152 200.772 55.4L199.188 55.352C199.188 57.016 198.516 57.704 195.124 57.704C191.668 57.704 190.98 57.032 190.98 54.44V54.28C190.98 51.688 191.668 51.016 195.124 51.016C198.516 51.016 199.156 51.736 199.156 53.368L200.74 53.32C200.74 50.488 199.7 49.528 195.124 49.528C190.628 49.528 189.348 50.584 189.348 54.12V54.6C189.348 58.136 190.644 59.192 195.124 59.192ZM203.003 56.472C203.003 57.64 203.003 58.216 202.987 59H204.619C204.603 58.2 204.603 57.512 204.603 56.44V54.2C204.603 51.768 205.355 51.016 208.491 51.016C211.739 51.016 212.347 51.832 212.347 53.96V56.472C212.347 57.608 212.347 58.184 212.331 59H213.963C213.947 58.088 213.947 57.336 213.947 56.504V55.48C213.947 54.52 213.963 54.136 213.963 53.48C213.963 50.664 213.147 49.528 208.923 49.528C206.699 49.528 205.323 50.024 204.555 51.016C204.587 49.928 204.635 47.304 204.635 47.032H202.987C203.003 47.72 203.003 48.568 203.003 49.72V56.472ZM216.847 47.288V48.776H218.479V47.288H216.847ZM216.863 56.488C216.863 57.56 216.863 58.296 216.847 59H218.479C218.463 58.296 218.463 57.56 218.463 56.504V52.424C218.463 51.272 218.463 50.408 218.479 49.72H216.847C216.863 50.408 216.863 51.272 216.863 52.408V56.488ZM221.409 56.44C221.409 57.704 221.409 58.328 221.393 59H223.025C223.009 58.328 223.009 57.736 223.009 56.44V54.2C223.009 51.768 223.761 51.016 226.897 51.016C230.145 51.016 230.753 51.832 230.753 53.96V56.456C230.753 57.816 230.753 58.28 230.737 59H232.369C232.353 58.248 232.353 57.608 232.353 56.456V55.48C232.353 54.52 232.369 54.136 232.369 53.48C232.369 50.664 231.553 49.528 227.329 49.528C225.057 49.528 223.665 50.04 222.913 51.08L222.881 49.72H221.393C221.409 50.344 221.409 50.92 221.409 52.104V56.44ZM240.229 58.072C242.533 58.072 243.925 57.56 244.693 56.648L244.677 57.56C244.645 59.208 244.037 59.976 240.229 59.976C236.981 59.976 236.421 59.528 236.421 58.584L234.869 58.648C234.869 60.76 235.941 61.432 240.229 61.432C245.093 61.432 246.277 60.488 246.277 57.768C246.277 56.52 246.261 55.56 246.261 54.2V51.8C246.261 51.016 246.261 50.408 246.277 49.72H244.789L244.773 50.952C244.005 50.024 242.597 49.528 240.213 49.528C236.181 49.528 234.613 50.312 234.613 53.72V53.88C234.613 57.288 236.261 58.072 240.229 58.072ZM236.245 53.88V53.72C236.245 51.672 237.157 50.984 240.501 50.984C243.925 50.984 244.645 51.656 244.661 53.72C244.661 55.768 243.861 56.616 240.517 56.616C236.997 56.616 236.245 55.928 236.245 53.88Z" fill="white"/>
<path d="M84.2812 81.4688H78.4844V78.4688H82.7188V71.3594H81.5156V73.875H74.2969V71.3594H73.0625V78.4688H77.2812V81.4688H71.5625V82.4844H84.2812V81.4688ZM74.2969 77.4688V74.875H81.5156V77.4688H74.2969ZM92.5781 71.0625H86.4375V72.0469H91.2812C91.2344 72.5391 91.1328 73 90.9531 73.4375L85.7344 73.6719L85.9375 74.6562L90.4688 74.3281C89.6328 75.5312 88.125 76.4688 85.7969 77.0625L86.25 78.0312C90.5625 76.8906 92.5703 74.5469 92.5781 71.0625ZM87.9062 79.1875H95.6875V80.6094H87.9375V84.0781H97.375V83.0938H89.1406V81.5312H96.9062V78.2031H87.9062V79.1875ZM92.625 74.75H95.6719V77.5781H96.9062V70.375H95.6719V73.7344H92.625V74.75ZM110.672 70.375H109.438V84.2969H110.672V70.375ZM99.7344 76.2969C99.7422 79.2578 101.211 81.1328 103.281 81.125C105.344 81.1328 106.836 79.2578 106.828 76.2969C106.836 73.3438 105.344 71.4609 103.281 71.4531C101.211 71.4609 99.7422 73.3438 99.7344 76.2969ZM100.922 76.2969C100.922 74.0391 101.891 72.5547 103.281 72.5469C104.68 72.5547 105.641 74.0391 105.641 76.2969C105.641 78.5547 104.68 80.0391 103.281 80.0312C101.891 80.0391 100.922 78.5547 100.922 76.2969ZM128.547 70.375H127.312V77.5938H128.547V70.375ZM117.297 76.0781L117.453 77.0938C119.906 77.1016 123.172 76.9922 125.953 76.5781L125.891 75.6719C125.219 75.75 124.516 75.8203 123.797 75.875V72.3125H125.203V71.3281H117.688V72.3125H119.078V76.0625C118.453 76.0703 117.852 76.0781 117.297 76.0781ZM119.453 79.25H127.328V80.6562H119.5V84.1094H129.078V83.1094H120.703V81.5781H128.547V78.2656H119.453V79.25ZM120.266 76.0391V72.3125H122.609V75.9453C121.82 75.9922 121.031 76.0156 120.266 76.0391ZM143.609 81.4531H140.453V77.6719C141.602 77.0547 142.297 76.0703 142.297 74.8281C142.297 72.6797 140.188 71.2656 137.219 71.25C134.25 71.2656 132.141 72.6797 132.141 74.8281C132.141 76.0938 132.859 77.0938 134.047 77.7109V81.4531H130.891V82.4844H143.609V81.4531ZM133.328 74.8281C133.32 73.2734 134.938 72.25 137.219 72.2656C139.477 72.25 141.109 73.2734 141.109 74.8281C141.109 76.3828 139.477 77.4219 137.219 77.4219C134.938 77.4219 133.32 76.3828 133.328 74.8281ZM135.25 81.4531V78.1562C135.844 78.3125 136.508 78.3906 137.219 78.3906C137.945 78.3906 138.617 78.3047 139.219 78.1484V81.4531H135.25ZM155.578 70.3906H154.359V80.7969H155.578V76H157.672V74.9688H155.578V70.3906ZM144.75 73.0938H153.031V72.0938H149.5V70.3906H148.281V72.0938H144.75V73.0938ZM145.547 76.4531C145.539 78.0156 146.883 79.0234 148.891 79.0156C150.875 79.0234 152.219 78.0156 152.234 76.4531C152.219 74.875 150.875 73.8594 148.891 73.8594C146.883 73.8594 145.539 74.875 145.547 76.4531ZM146.719 76.4531C146.711 75.4609 147.578 74.8203 148.891 74.8281C150.188 74.8203 151.062 75.4609 151.078 76.4531C151.062 77.4297 150.188 78.0625 148.891 78.0469C147.578 78.0625 146.711 77.4297 146.719 76.4531ZM146.891 83.9688H156.219V82.9375H148.094V79.9688H146.891V83.9688ZM169.484 72.4219V71.3594H168.203V72.4219C168.195 74.8125 165.5 76.9141 163.094 77.375L163.656 78.4062C165.758 77.9141 167.953 76.4297 168.859 74.3906C169.758 76.4297 171.961 77.9219 174.062 78.4062L174.625 77.375C172.211 76.9219 169.492 74.8047 169.484 72.4219ZM162.562 82.375H175.281V81.3594H162.562V82.375ZM182.516 72.0312H177.125V73.0469H181.312C181.266 73.8125 181.148 74.5469 180.945 75.2656L176.453 75.5469L176.641 76.6406L180.602 76.2344C179.898 77.875 178.625 79.3359 176.484 80.5L177.188 81.375C179.422 80.1484 180.781 78.6016 181.562 76.8906H184.188V83.5625H185.359V70.75H184.188V75.875H181.961C182.359 74.6484 182.508 73.3438 182.516 72.0312ZM187.109 84.2656H188.281V70.375H187.109V84.2656ZM201.672 70.375H200.438V84.2656H201.672V70.375ZM190.5 80.625L191.188 81.5781C192.797 80.8203 194.141 79.2188 194.766 77.2812C195.414 79.1172 196.766 80.6172 198.375 81.3281L199.062 80.375C196.969 79.4844 195.344 77.2344 195.344 74.9062V73.7969H198.578V72.7969H195.344V70.6406H194.125V72.7969H190.875V73.7969H194.141V74.9062C194.141 77.3438 192.562 79.6875 190.5 80.625ZM216.703 76.9844H210.5V74.1719H209.297V76.9844H204.062V78H216.703V76.9844ZM205.406 80.6094H213.844V84.2656H215.094V79.5938H205.406V80.6094ZM205.562 72.1406H213.875V72.1875C213.875 73.2344 213.875 74.3516 213.516 75.9062L214.75 76.0312C215.086 74.4453 215.086 73.2578 215.094 72.1875V71.1406H205.562V72.1406Z" fill="#535559"/>
<path d="M41.9371 62.5394C43.2568 62.6916 44.5905 62.4146 45.7404 61.7494C46.8903 61.0842 47.7953 60.0662 48.3213 58.8462C48.8472 57.6263 48.9661 56.2694 48.6603 54.9766C48.3545 53.6838 47.6404 52.5239 46.6236 51.6688C45.6069 50.8138 44.3417 50.3091 43.0156 50.2295C41.6895 50.1499 40.3731 50.4997 39.2614 51.227C38.1497 51.9544 37.302 53.0205 36.8438 54.2675C36.3856 55.5145 36.3414 56.8759 36.7177 58.1499" stroke="#9EA1AB" stroke-width="1.5" stroke-linecap="round" stroke-linejoin="round"/>
<path d="M36.4694 57.7418L42.4525 62.7721L31.0821 74.387C29.9843 75.5084 28.2077 75.5937 27.0075 74.5828C25.775 73.5446 25.5834 71.7181 26.5736 70.4468L36.4694 57.7418Z" stroke="#9EA1AB" stroke-width="1.5" stroke-linecap="round" stroke-linejoin="round"/>
<path d="M27.8867 68.582L32.6137 72.8926" stroke="#9EA1AB" stroke-width="1.5" stroke-linecap="round"/>
</g>
</g>
<defs>
<filter id="filter0_b_1318_1775" x="-80" y="-80" width="444" height="350" filterUnits="userSpaceOnUse" color-interpolation-filters="sRGB">
<feFlood flood-opacity="0" result="BackgroundImageFix"/>
<feGaussianBlur in="BackgroundImageFix" stdDeviation="40"/>
<feComposite in2="SourceAlpha" operator="in" result="effect1_backgroundBlur_1318_1775"/>
<feBlend mode="normal" in="SourceGraphic" in2="effect1_backgroundBlur_1318_1775" result="shape"/>
</filter>
<filter id="filter1_b_1318_1775" x="-80" y="-80" width="444" height="350" filterUnits="userSpaceOnUse" color-interpolation-filters="sRGB">
<feFlood flood-opacity="0" result="BackgroundImageFix"/>
<feGaussianBlur in="BackgroundImageFix" stdDeviation="40"/>
<feComposite in2="SourceAlpha" operator="in" result="effect1_backgroundBlur_1318_1775"/>
<feBlend mode="normal" in="SourceGraphic" in2="effect1_backgroundBlur_1318_1775" result="shape"/>
</filter>
<linearGradient id="paint0_linear_1318_1775" x1="53" y1="104.243" x2="2.50001" y2="104.244" gradientUnits="userSpaceOnUse">
<stop stop-color="#535559"/>
<stop offset="1" stop-color="#535559" stop-opacity="0"/>
</linearGradient>
<linearGradient id="paint1_linear_1318_1775" x1="53" y1="104.243" x2="2.50001" y2="104.244" gradientUnits="userSpaceOnUse">
<stop stop-color="#535559"/>
<stop offset="1" stop-color="#535559" stop-opacity="0"/>
</linearGradient>
<clipPath id="clip0_1318_1775">
<rect width="284" height="106" fill="white"/>
</clipPath>
</defs>
</svg>
