<svg width="111" height="17" viewBox="0 0 111 17" fill="none" xmlns="http://www.w3.org/2000/svg">
<path d="M0 14.0023H2.04922C2.30054 12.4246 2.76451 9.76218 2.9965 8.38167C3.40248 6.01508 3.78912 3.58933 4.05977 1.93271H5.20038C5.66435 3.53016 6.28298 5.60093 6.88228 7.63225L8.79618 14.0023H11.232L15.3691 7.63225C16.6837 5.60093 17.9983 3.54988 19.0423 1.93271H20.0862C19.7382 3.84571 19.1969 6.74478 18.9456 8.18446C18.675 9.76218 18.211 12.4443 17.921 14.0023H19.9702C20.1249 13.0162 20.2602 12.2471 20.5115 10.7483L21.9421 2.50464C22.1161 1.49884 22.2128 0.946635 22.3868 0H18.037L13.4939 7.06033C12.3533 8.83527 11.232 10.5905 10.3428 12.0302H10.1301C9.74346 10.5905 9.22149 8.83527 8.71885 7.0406L6.74696 0H2.41653C2.28121 0.966358 2.16521 1.53828 1.99122 2.58353L0.560635 10.8469C0.309316 12.2865 0.17399 13.0557 0 14.0023Z" fill="white"/>
<path d="M30.7289 14.3573C32.6815 11.4385 36.7799 5.24594 38.6358 2.5638H36.4899L33.2614 7.33643C32.3915 8.59861 31.5409 9.88051 30.8063 11.0046H29.743C29.2597 9.86079 28.6797 8.55917 28.1384 7.27726L26.1278 2.5638H23.982C25.1999 5.26566 27.3651 10.413 28.3511 12.8387H29.569L29.1243 13.4698C28.2157 14.7517 27.7711 14.9884 26.6305 14.9884C25.8959 14.9884 25.2966 14.9687 24.6973 14.9292L24.3299 16.7042C25.0259 16.7436 25.9152 16.7831 26.3792 16.7831C28.3511 16.7831 29.5303 16.152 30.7289 14.3573Z" fill="white"/>
<path d="M48.5046 10.7877L48.7753 9.17054C50.9018 9.17054 54.3816 9.17054 56.2762 9.17054C60.8193 9.17054 61.9792 7.75058 62.5205 4.57541C63.0618 1.40023 61.8826 0 57.3395 0H48.3306C48.2146 0.74942 48.0793 1.53828 47.9053 2.60325L46.4941 10.7877C46.2428 12.2274 46.0881 13.0557 45.9141 14.0023H47.9633C48.118 13.036 48.2533 12.2471 48.5046 10.7877ZM57.2815 1.85383C60.2007 1.85383 60.7806 2.54408 60.4326 4.57541C60.0847 6.60673 59.2534 7.29698 56.3342 7.29698H49.1039L50.0319 1.85383H57.2815Z" fill="white"/>
<path d="M69.0951 14.239C72.0916 14.239 73.9089 13.6276 74.9142 12.6613L74.7015 14.0023H76.4414C76.6927 12.4443 76.8667 11.4385 77.0794 10.2552C77.35 8.59861 77.5047 7.84919 77.7753 6.29118C78.2393 3.58933 77.2727 2.32715 71.5503 2.32715C66.35 2.32715 65.1707 3.45128 64.8034 5.83759L66.756 5.89675C66.9686 4.53596 67.5099 4.08237 71.4537 4.08237C75.5328 4.08237 76.0934 4.69374 75.7648 6.66589L75.5135 8.06613C74.7402 7.33643 73.1549 6.90255 70.3711 6.90255C65.2867 6.90255 63.9914 7.98724 63.5275 10.6102C63.1022 13.174 63.9528 14.239 69.0951 14.239ZM69.9458 12.5232C66.002 12.5232 65.2867 12.0302 65.5187 10.6102C65.77 9.15081 66.408 8.53944 70.6417 8.53944C74.7982 8.53944 75.3781 9.13109 75.2235 10.0186L75.1075 10.6299C74.8948 11.9118 74.1022 12.5232 69.9458 12.5232Z" fill="white"/>
<path d="M85.5964 17C91.4734 17 92.904 15.8364 93.484 12.4838C93.7547 10.9455 93.948 9.76218 94.238 8.08585L94.7406 5.12761C94.9146 4.16125 95.0306 3.41183 95.2046 2.5638H93.4067L93.0974 4.24014C92.3241 2.99768 90.6228 2.32715 87.723 2.32715C82.8513 2.32715 80.9954 3.2935 80.2607 7.4942L80.2221 7.69142C79.5068 11.8921 81.614 12.8585 86.4084 12.8585C89.0376 12.8585 90.7195 12.2471 91.8021 11.1624L91.6088 12.2274C91.2221 14.2587 90.3135 15.2053 85.7124 15.2053C81.788 15.2053 81.208 14.6531 81.4013 13.4896L79.5261 13.5684C79.0621 16.1717 80.4154 17 85.5964 17ZM82.194 7.69142L82.2326 7.4942C82.6773 4.96984 83.9145 4.12181 87.955 4.12181C92.1114 4.12181 92.846 4.96984 92.4014 7.51392C91.9567 10.058 90.8162 11.0638 86.7757 11.0638C82.5226 11.0638 81.7687 10.2158 82.194 7.69142Z" fill="white"/>
<path d="M103.326 14.239C108.971 14.239 109.957 13.0951 110.44 10.3538L108.526 10.2749C108.275 11.7541 107.637 12.4838 103.384 12.4838C99.2662 12.4838 98.4735 11.7146 98.8215 9.0522H110.653C110.711 8.71694 110.808 8.30278 110.846 7.98724C111.484 3.76682 110.266 2.32715 104.757 2.32715C99.2468 2.32715 97.7776 3.62877 97.0236 7.98724L96.927 8.57889C96.231 12.819 97.6809 14.239 103.326 14.239ZM104.679 4.04292C108.642 4.04292 109.261 4.83179 108.894 7.35615H99.1115C99.7108 4.7529 100.793 4.04292 104.679 4.04292Z" fill="white"/>
</svg>
