<svg width="21" height="24" viewBox="0 0 21 24" fill="none" xmlns="http://www.w3.org/2000/svg">
<path d="M19.0646 10.1822L19.0673 10.1838C19.6004 10.4874 20 11.1797 20 12.0222C20 12.8418 19.6026 13.5128 19.052 13.8265L19.0493 13.828L3.40248 22.8071L3.40247 22.8071L3.39682 22.8104C3.17898 22.9373 2.92679 23 2.67662 23C2.41675 23 2.12128 22.914 1.8472 22.7276L1.84506 22.7262C1.34082 22.3851 1 21.7544 1 20.9841V3.00899C1 2.23874 1.34082 1.60805 1.84506 1.26697C2.33955 0.932476 2.90865 0.913259 3.41908 1.20393C3.41941 1.20412 3.41975 1.20431 3.42008 1.2045L19.0646 10.1822Z" stroke="white" stroke-width="2"/>
</svg>
