<svg width="51" height="18" viewBox="0 0 51 18" fill="none" xmlns="http://www.w3.org/2000/svg">
<path d="M2.81094 11.7398V10.0998C4.93094 10.0998 8.35094 10.0998 10.2909 10.0998C14.9909 10.0998 16.2109 8.65981 16.2109 5.43981V5.35981C16.2109 2.13981 14.9909 0.799805 10.2909 0.799805H0.710938C0.730938 1.5598 0.730938 2.3598 0.730938 3.43981V11.7398C0.730938 13.1998 0.730938 14.0398 0.710938 14.9998H2.83094C2.81094 14.0198 2.81094 13.2198 2.81094 11.7398ZM10.2909 2.6798C13.3109 2.6798 14.0509 3.33981 14.0509 5.39981V5.43981C14.0509 7.4998 13.3109 8.19981 10.2909 8.19981H2.81094V2.6798H10.2909Z" fill="white"/>
<path d="M25.3527 15.2398C31.1327 15.2398 32.6527 13.9198 32.6527 9.49981V8.89981C32.6527 4.4798 31.1327 3.15981 25.3527 3.15981C19.5727 3.15981 18.0527 4.4798 18.0527 8.89981V9.49981C18.0527 13.9198 19.5727 15.2398 25.3527 15.2398ZM25.3527 13.3798C20.9527 13.3798 20.0927 12.5398 20.0927 9.2998V9.0998C20.0927 5.85981 20.9527 5.0198 25.3527 5.0198C29.7527 5.0198 30.6127 5.85981 30.6127 9.0998V9.2998C30.6127 12.5398 29.7527 13.3798 25.3527 13.3798Z" fill="white"/>
<path d="M35.5123 14.9998C35.5123 16.1998 35.5123 17.1998 35.4923 17.7998H37.5523C37.5323 16.9798 37.5323 15.5398 37.5323 13.4398C38.5323 14.6598 40.2523 15.2398 43.0523 15.2398C48.5323 15.2398 50.0723 13.9198 50.0723 9.49981V8.89981C50.0723 4.4798 48.5323 3.15981 43.1723 3.15981C40.2123 3.15981 38.4123 3.79981 37.4323 5.0998V3.39981H35.4923C35.5123 4.2398 35.5123 4.9598 35.5123 5.8798V14.9998ZM37.5123 9.27981V9.11981C37.5123 5.95981 38.4123 5.0198 42.7723 5.0198C47.1523 5.0198 48.0323 5.85981 48.0323 9.0998V9.2998C48.0323 12.5398 47.1523 13.3798 42.6723 13.3798C38.4123 13.3798 37.5123 12.4598 37.5123 9.27981Z" fill="white"/>
</svg>
