<svg width="89" height="14" viewBox="0 0 89 14" fill="none" xmlns="http://www.w3.org/2000/svg">
<path d="M2.248 10.392V9.08C3.944 9.08 6.68 9.08 8.232 9.08C11.992 9.08 12.968 7.928 12.968 5.352V5.288C12.968 2.712 11.992 1.64 8.232 1.64H0.568C0.584 2.248 0.584 2.888 0.584 3.752V10.392C0.584 11.56 0.584 12.232 0.568 13H2.264C2.248 12.216 2.248 11.576 2.248 10.392ZM8.232 3.144C10.648 3.144 11.24 3.672 11.24 5.32V5.352C11.24 7 10.648 7.56 8.232 7.56H2.248V3.144H8.232ZM20.2814 13.192C24.9054 13.192 26.1214 12.136 26.1214 8.6V8.12C26.1214 4.584 24.9054 3.528 20.2814 3.528C15.6574 3.528 14.4414 4.584 14.4414 8.12V8.6C14.4414 12.136 15.6574 13.192 20.2814 13.192ZM20.2814 11.704C16.7614 11.704 16.0734 11.032 16.0734 8.44V8.28C16.0734 5.688 16.7614 5.016 20.2814 5.016C23.8014 5.016 24.4894 5.688 24.4894 8.28V8.44C24.4894 11.032 23.8014 11.704 20.2814 11.704ZM28.4091 10.44C28.4091 11.704 28.4091 12.328 28.3931 13H30.0251C30.0091 12.328 30.0091 11.736 30.0091 10.44V8.296C30.0091 5.608 30.7611 5.016 33.5131 5.016C36.3131 5.016 36.6331 5.4 36.6331 7.208V7.528L38.1691 7.496C38.1851 7.256 38.1851 7.016 38.1851 6.824C38.1851 4.168 37.4651 3.528 33.8971 3.528C31.9131 3.528 30.6331 4.04 29.9131 5.08L29.8811 3.72H28.3931C28.4091 4.344 28.4091 4.92 28.4091 6.104V10.44ZM40.8274 7.24C40.8274 8.024 40.8114 8.936 40.8114 9.64C40.8114 12.392 41.6594 13.08 45.4354 13.08C46.1394 13.08 46.7314 13.048 47.2274 13L47.2114 11.544C46.6034 11.576 46.2354 11.592 45.5154 11.592C43.0674 11.592 42.4274 11.352 42.4274 9.416V5.176H47.2114V3.72H42.4274C42.4274 2.92 42.4274 2.28 42.4434 1.896L40.8114 1.928C40.8274 2.664 40.8274 3.192 40.8274 3.72C40.3154 3.72 39.8034 3.736 39.1474 3.72V5.176H40.8274V7.24ZM49.8263 7.608C49.8263 8.888 49.8263 11.736 49.8103 13H51.4423C51.4263 12.296 51.4263 11.384 51.4263 10.44V5.176H53.8903V3.72H51.4263V3.576C51.4263 2.632 51.6983 2.408 52.4183 2.376C53.0103 2.344 53.6983 2.312 54.1143 2.312L54.0663 0.936C53.7303 0.952 52.8663 0.967999 52.0983 1.016C50.4503 1.112 49.8103 1.624 49.8103 3.416C49.8103 3.512 49.8103 3.608 49.8103 3.72H48.2903L48.2263 5.176H49.8103C49.8263 5.976 49.8263 6.856 49.8263 7.608ZM60.4689 13.192C65.0929 13.192 66.3089 12.136 66.3089 8.6V8.12C66.3089 4.584 65.0929 3.528 60.4689 3.528C55.8449 3.528 54.6289 4.584 54.6289 8.12V8.6C54.6289 12.136 55.8449 13.192 60.4689 13.192ZM60.4689 11.704C56.9489 11.704 56.2609 11.032 56.2609 8.44V8.28C56.2609 5.688 56.9489 5.016 60.4689 5.016C63.9889 5.016 64.6769 5.688 64.6769 8.28V8.44C64.6769 11.032 63.9889 11.704 60.4689 11.704ZM68.6286 10.488C68.6286 11.56 68.6286 12.296 68.6126 13H70.2446C70.2286 12.296 70.2286 11.56 70.2286 10.504V3.736C70.2286 2.584 70.2286 1.72 70.2446 1.032H68.6126C68.6286 1.72 68.6286 2.584 68.6286 3.72V10.488ZM73.1908 1.288V2.776H74.8228V1.288H73.1908ZM73.2068 10.488C73.2068 11.56 73.2068 12.296 73.1908 13H74.8228C74.8068 12.296 74.8068 11.56 74.8068 10.504V6.424C74.8068 5.272 74.8068 4.408 74.8228 3.72H73.1908C73.2068 4.408 73.2068 5.272 73.2068 6.408V10.488ZM82.9689 13.192C87.5929 13.192 88.8089 12.136 88.8089 8.6V8.12C88.8089 4.584 87.5929 3.528 82.9689 3.528C78.3449 3.528 77.1289 4.584 77.1289 8.12V8.6C77.1289 12.136 78.3449 13.192 82.9689 13.192ZM82.9689 11.704C79.4489 11.704 78.7609 11.032 78.7609 8.44V8.28C78.7609 5.688 79.4489 5.016 82.9689 5.016C86.4889 5.016 87.1769 5.688 87.1769 8.28V8.44C87.1769 11.032 86.4889 11.704 82.9689 11.704Z" fill="white"/>
</svg>
