<svg width="52" height="52" viewBox="0 0 52 52" fill="none" xmlns="http://www.w3.org/2000/svg">
<circle cx="26" cy="26" r="25" stroke="white" stroke-width="2"/>
<path d="M34.3921 24.6056L34.3949 24.6073C34.7375 24.8146 35.0455 25.3321 35.0455 26.0182C35.0455 26.6818 34.7415 27.1833 34.3829 27.4004L34.3801 27.4021L22.0523 34.9187L22.0523 34.9186L22.0466 34.9222C21.913 35.0049 21.7599 35.045 21.6089 35.045C21.4644 35.045 21.2808 34.9937 21.098 34.8615L21.0959 34.86C20.76 34.6187 20.5 34.1425 20.5 33.5204V18.473C20.5 17.8509 20.76 17.3747 21.0959 17.1334C21.4103 16.9074 21.7475 16.8975 22.0657 17.0899C22.066 17.0901 22.0664 17.0903 22.0667 17.0905L34.3921 24.6056Z" stroke="white" stroke-width="2"/>
</svg>
