<svg width="189" height="23" viewBox="0 0 189 23" fill="none" xmlns="http://www.w3.org/2000/svg">
<path d="M5.20332 17.5018L5.54278 15.5782C8.73939 15.6065 13.6616 15.6065 16.151 15.6065C23.0817 15.6065 24.8356 13.5697 25.6842 8.76067C26.5046 3.95162 24.6659 1.94313 17.7352 1.94313L4.12836 1.94313C3.93034 3.13125 3.70403 4.37595 3.42114 6.12984L1.44094 17.4736C1.07319 19.482 0.846882 20.6985 0.592285 22.028H4.41124C4.63755 20.6702 4.83557 19.5103 5.20332 17.5018ZM17.5371 5.2246C21.441 5.2246 22.233 6.15813 21.7804 8.76067C21.3278 11.3632 20.1963 12.2685 16.2924 12.2685H6.10856L7.35325 5.2246L17.5371 5.2246Z" fill="#0D0E11"/>
<path d="M27.4859 17.5018C27.1181 19.6235 26.9201 20.7833 26.6655 22.028H30.3996C30.5693 20.7833 30.7673 19.6801 31.1634 17.5018L31.7574 14.0506C32.5495 9.55276 33.8791 8.56266 38.5184 8.56266C43.0729 8.56266 43.5255 9.21329 43.0163 12.127L42.9031 12.6645L46.4675 12.6079C46.5807 11.9573 46.6655 11.5047 46.7787 10.9955C47.5708 6.44101 46.4675 5.2246 40.3289 5.2246C36.5948 5.2246 34.1903 6.15813 32.6344 8.08175L33.0304 5.56407H29.5792C29.4095 6.66732 29.2115 7.74229 28.872 9.6942L27.4859 17.5018Z" fill="#0D0E11"/>
<path d="M58.0039 22.3675C66.4339 22.3675 68.5556 20.5004 69.6588 14.2204L69.8003 13.3717C70.9035 7.09165 68.7253 5.2246 60.3236 5.2246C51.8936 5.2246 49.772 7.09165 48.6687 13.3717L48.5273 14.2204C47.424 20.5004 49.6022 22.3675 58.0039 22.3675ZM58.202 19.086C52.4311 19.086 51.5824 18.011 52.2896 13.9092L52.3179 13.6829C53.0534 9.55275 54.2981 8.50608 60.0973 8.50608C65.8682 8.50608 66.7734 9.55275 66.0096 13.6829L65.9813 13.9092C65.2741 18.011 64.0011 19.086 58.202 19.086Z" fill="#0D0E11"/>
<path d="M80.7994 22.3675C84.873 22.3675 87.3624 21.4057 88.9466 19.5386L88.5505 22.028H92.03C92.2563 20.6419 92.426 19.6801 92.7938 17.5018L94.8872 5.56407C95.2549 3.52729 95.5095 2.05628 95.7641 0.868164L91.9734 0.868164C91.8037 2.05628 91.2945 5.08316 90.7853 7.96859C89.7103 6.15813 87.3624 5.2246 83.2888 5.2246C75.6792 5.2246 73.5576 7.03507 72.4543 13.3717L72.3129 14.2204C71.2096 20.5004 73.303 22.3675 80.7994 22.3675ZM82.0441 19.0294C76.3016 19.0294 75.368 17.9828 76.0753 13.9092L76.1035 13.6829C76.839 9.58104 78.1686 8.56266 84.0243 8.56266C89.5689 8.56266 90.5307 9.6942 89.8235 13.6829L89.7669 13.9092C89.0597 17.8696 87.7019 19.0294 82.0441 19.0294Z" fill="#0D0E11"/>
<path d="M98.3673 11.7876C98.0278 13.6546 97.8864 14.4184 97.6601 15.6914C96.8114 20.4156 98.339 22.3675 105.496 22.3675C109.287 22.3675 111.748 21.3774 113.332 19.482L112.936 22.028H116.387C116.557 20.8965 116.755 19.8498 117.094 17.8979L118.48 10.0902C118.848 7.94031 119.046 6.80876 119.301 5.56407H115.567C115.397 6.80876 115.199 7.91202 114.803 10.0902L114.152 13.8243C113.445 17.8413 112.031 19.0294 106.995 19.0294C101.705 19.0294 100.97 17.7847 101.592 14.1921L102.328 10.0337C102.724 7.74229 102.865 6.89363 103.148 5.56407H99.414C99.216 6.9502 99.0179 8.13833 98.6785 10.0337L98.3673 11.7876Z" fill="#0D0E11"/>
<path d="M130.824 22.3675C139.14 22.3675 141.007 20.5004 141.913 15.4651L138.292 15.3802C137.839 18.011 136.566 19.086 130.993 19.086C125.307 19.086 124.459 18.011 125.166 13.9092L125.194 13.6829C125.93 9.55275 127.174 8.50608 132.86 8.50608C138.433 8.50608 139.254 9.60933 138.801 12.2119V12.1836L142.45 12.0987C143.384 6.92192 141.375 5.2246 133.058 5.2246C124.855 5.2246 122.648 7.09165 121.545 13.3717L121.403 14.2204C120.3 20.5004 122.648 22.3675 130.824 22.3675Z" fill="#0D0E11"/>
<path d="M154.281 22.3675C162.768 22.3675 164.323 20.7267 165.059 16.5683L161.438 16.4552C161.099 18.3788 160.25 19.284 154.451 19.284C148.991 19.284 147.916 18.3222 148.34 14.871H165.342C165.427 14.4467 165.54 13.9375 165.625 13.3717C166.587 7.28967 164.663 5.2246 156.431 5.2246C148.171 5.2246 145.964 7.09165 144.861 13.3717L144.719 14.2204C143.644 20.3024 145.879 22.3675 154.281 22.3675ZM156.261 8.05346C161.608 8.05346 162.456 9.04356 162.004 12.2402H148.821C149.613 8.93041 151.056 8.05346 156.261 8.05346Z" fill="#0D0E11"/>
<path d="M168.514 17.5018C168.147 19.6235 167.949 20.7833 167.694 22.028H171.428C171.598 20.7833 171.796 19.6801 172.192 17.5018L172.786 14.0506C173.578 9.55276 174.908 8.56266 179.547 8.56266C184.101 8.56266 184.554 9.21329 184.045 12.127L183.932 12.6645L187.496 12.6079C187.609 11.9573 187.694 11.5047 187.807 10.9955C188.599 6.44101 187.496 5.2246 181.357 5.2246C177.623 5.2246 175.219 6.15813 173.663 8.08175L174.059 5.56407H170.608C170.438 6.66732 170.24 7.74229 169.9 9.6942L168.514 17.5018Z" fill="#0D0E11"/>
</svg>
