<svg width="420" height="420" viewBox="0 0 420 420" fill="none" xmlns="http://www.w3.org/2000/svg">
<circle cx="210" cy="210" r="25" stroke="white" stroke-width="2"/>
<path d="M218.328 208.623L218.33 208.625C218.692 208.837 219 209.351 219 210.019C219 210.663 218.696 211.162 218.318 211.384L218.315 211.385L205.649 218.868L205.649 218.868L205.643 218.871C205.5 218.957 205.333 219 205.167 219C205.004 219 204.806 218.944 204.614 218.81L204.611 218.808C204.26 218.564 204 218.092 204 217.487V202.507C204 201.902 204.26 201.431 204.611 201.186C204.948 200.952 205.319 200.94 205.662 201.142C205.663 201.142 205.663 201.142 205.663 201.142L218.328 208.623Z" stroke="white" stroke-width="2"/>
</svg>
