<svg width="104" height="13" viewBox="0 0 104 13" fill="none" xmlns="http://www.w3.org/2000/svg">
<path opacity="0.25" d="M2.248 9.392V8.08C3.944 8.08 6.68 8.08 8.232 8.08C11.992 8.08 12.968 6.928 12.968 4.352V4.288C12.968 1.712 11.992 0.639999 8.232 0.639999H0.568C0.584 1.248 0.584 1.888 0.584 2.752V9.392C0.584 10.56 0.584 11.232 0.568 12H2.264C2.248 11.216 2.248 10.576 2.248 9.392ZM8.232 2.144C10.648 2.144 11.24 2.672 11.24 4.32V4.352C11.24 6 10.648 6.56 8.232 6.56H2.248V2.144H8.232ZM15.0654 9.44C15.0654 10.704 15.0654 11.328 15.0494 12H16.6814C16.6654 11.328 16.6654 10.736 16.6654 9.44V7.296C16.6654 4.608 17.4174 4.016 20.1694 4.016C22.9694 4.016 23.2894 4.4 23.2894 6.208V6.528L24.8254 6.496C24.8414 6.256 24.8414 6.016 24.8414 5.824C24.8414 3.168 24.1214 2.528 20.5534 2.528C18.5694 2.528 17.2894 3.04 16.5694 4.08L16.5374 2.72H15.0494C15.0654 3.344 15.0654 3.92 15.0654 5.104V9.44ZM32.1876 12.192C36.8116 12.192 38.0276 11.136 38.0276 7.6V7.12C38.0276 3.584 36.8116 2.528 32.1876 2.528C27.5636 2.528 26.3476 3.584 26.3476 7.12V7.6C26.3476 11.136 27.5636 12.192 32.1876 12.192ZM32.1876 10.704C28.6676 10.704 27.9796 10.032 27.9796 7.44V7.28C27.9796 4.688 28.6676 4.016 32.1876 4.016C35.7076 4.016 36.3956 4.688 36.3956 7.28V7.44C36.3956 10.032 35.7076 10.704 32.1876 10.704ZM45.2114 12.192C47.6274 12.192 49.0674 11.664 49.8354 10.592L49.8674 12H51.3554C51.3394 11.216 51.3394 10.672 51.3394 9.44V2.72C51.3394 1.536 51.3394 0.719999 51.3554 0.0319996H49.6914C49.7074 0.688 49.7234 2.352 49.7234 3.968C48.9234 2.992 47.5474 2.528 45.3074 2.528C40.9234 2.528 39.6914 3.584 39.6914 7.12V7.6C39.6914 11.136 40.9234 12.192 45.2114 12.192ZM45.5314 10.704C42.0274 10.704 41.3234 10.032 41.3234 7.44V7.28C41.3234 4.688 42.0274 4.016 45.6114 4.016C49.0194 4.016 49.7394 4.752 49.7394 7.296V7.424C49.7394 9.952 49.0194 10.704 45.5314 10.704ZM54.2209 6.24C54.2209 7.2 54.2049 7.584 54.2049 8.24C54.2049 11.056 55.0209 12.192 59.2289 12.192C61.4689 12.192 62.8289 11.68 63.5809 10.64L63.6129 12H65.1009C65.0849 11.376 65.0849 10.8 65.0849 9.616V5.28C65.0849 4.016 65.0849 3.392 65.1009 2.72H63.4689C63.4849 3.392 63.4849 3.984 63.4849 5.28V7.52C63.4849 9.952 62.7329 10.704 59.6609 10.704C56.4289 10.704 55.8209 9.888 55.8209 7.76V5.264C55.8209 3.904 55.8209 3.44 55.8369 2.72H54.2049C54.2209 3.472 54.2209 4.112 54.2209 5.264V6.24ZM73.1549 12.192C77.7149 12.192 78.8029 11.152 78.8029 8.4L77.2189 8.352C77.2189 10.016 76.5469 10.704 73.1549 10.704C69.6989 10.704 69.0109 10.032 69.0109 7.44V7.28C69.0109 4.688 69.6989 4.016 73.1549 4.016C76.5469 4.016 77.1869 4.736 77.1869 6.368L78.7709 6.32C78.7709 3.488 77.7309 2.528 73.1549 2.528C68.6589 2.528 67.3789 3.584 67.3789 7.12V7.6C67.3789 11.136 68.6749 12.192 73.1549 12.192ZM86.2981 12.192C90.9701 12.192 91.8501 11.264 91.8501 9.04L90.2661 8.976C90.2661 10.176 89.8341 10.768 86.3141 10.768C82.9061 10.768 82.1381 10.144 82.0581 7.984H91.8501C91.8501 7.712 91.8661 7.376 91.8501 7.12C91.8021 3.584 90.7461 2.528 86.1861 2.528C81.6261 2.528 80.4101 3.584 80.4101 7.12V7.6C80.4101 11.136 81.6261 12.192 86.2981 12.192ZM86.1861 3.92C89.4661 3.92 90.0901 4.56 90.1541 6.608H82.0581C82.1701 4.496 82.9701 3.92 86.1861 3.92ZM94.1435 9.44C94.1435 10.704 94.1435 11.328 94.1275 12H95.7595C95.7435 11.328 95.7435 10.736 95.7435 9.44V7.296C95.7435 4.608 96.4955 4.016 99.2475 4.016C102.048 4.016 102.368 4.4 102.368 6.208V6.528L103.904 6.496C103.92 6.256 103.92 6.016 103.92 5.824C103.92 3.168 103.2 2.528 99.6315 2.528C97.6475 2.528 96.3675 3.04 95.6475 4.08L95.6155 2.72H94.1275C94.1435 3.344 94.1435 3.92 94.1435 5.104V9.44Z" fill="white"/>
</svg>
