<svg width="133" height="43" viewBox="0 0 133 43" fill="none" xmlns="http://www.w3.org/2000/svg">
<path d="M41.2704 28.7645C41.2704 31.0947 41.2704 32.1237 41.2404 33.6368H44.4262C44.3961 32.0026 44.3961 31.4276 44.3961 28.7342V15.025H50.0764C51.2786 15.025 53.2622 15.025 55.6666 15.0553V12.15H30V15.0553C32.4044 15.025 34.388 15.025 37.694 15.025H41.2704V28.7645Z" fill="#43FF8E"/>
<path d="M59.507 11.4842V14.2987H62.5725V11.4842H59.507ZM59.537 28.8855C59.537 30.9132 59.537 32.3053 59.507 33.6368H62.5725C62.5425 32.3053 62.5425 30.9132 62.5425 28.9158V21.1987C62.5425 19.0197 62.5425 17.3855 62.5725 16.0842H59.507C59.537 17.3855 59.537 19.0197 59.537 21.1684V28.8855Z" fill="#43FF8E"/>
<path d="M69.0382 22.7421C69.0382 24.225 69.0082 25.95 69.0082 27.2816C69.0082 32.4868 70.6011 33.7882 77.6939 33.7882C79.0163 33.7882 80.1283 33.7276 81.06 33.6368L81.03 30.8829C79.8879 30.9434 79.1967 30.9737 77.8442 30.9737C73.2459 30.9737 72.0437 30.5197 72.0437 26.8579V18.8382H81.03V16.0842H72.0437C72.0437 14.5711 72.0437 13.3605 72.0737 12.6342L69.0082 12.6947C69.0382 14.0868 69.0382 15.0855 69.0382 16.0842C68.0765 16.0842 67.1147 16.1145 65.8825 16.0842V18.8382H69.0382V22.7421Z" fill="#43FF8E"/>
<path d="M85.1303 28.8855C85.1303 30.9132 85.1303 32.3053 85.1003 33.6368H88.1658C88.1358 32.3053 88.1358 30.9132 88.1358 28.9158V16.1145C88.1358 13.9355 88.1358 12.3013 88.1658 11H85.1003C85.1303 12.3013 85.1303 13.9355 85.1303 16.0842V28.8855Z" fill="#43FF8E"/>
<path d="M103.558 34C112.334 34 113.987 32.2447 113.987 28.0382L111.011 27.9171C111.011 30.1868 110.2 31.3066 103.588 31.3066C97.1862 31.3066 95.7436 30.1263 95.5933 26.0408H113.987C113.987 25.5263 114.017 24.8908 113.987 24.4066C113.896 17.7184 111.913 15.7211 103.347 15.7211C94.7818 15.7211 92.4977 17.7184 92.4977 24.4066V25.3145C92.4977 32.0026 94.7818 34 103.558 34ZM103.347 18.3539C109.509 18.3539 110.681 19.5645 110.801 23.4382H95.5933C95.8037 19.4434 97.3064 18.3539 103.347 18.3539Z" fill="#43FF8E"/>
</svg>
