<svg width="229" height="78" viewBox="0 0 229 78" fill="none" xmlns="http://www.w3.org/2000/svg">
<path d="M7.28418 19.107L8.30531 16.9165C12.1168 17.973 17.9996 19.5477 20.9749 20.3442C29.2583 22.5615 32.0061 20.6883 34.5589 15.2121C37.0779 9.72695 35.5228 6.7382 27.2395 4.5209L10.977 0.167751C10.3603 1.52441 9.69156 2.93963 8.79236 4.94533L2.79654 17.8695C1.71445 20.1523 1.05482 21.5337 0.325171 23.0413L4.88948 24.2631C5.59436 22.7127 6.20209 21.3898 7.28418 19.107ZM25.953 8.37947C30.6187 9.6284 31.2667 10.9975 29.8932 13.9632C28.5196 16.9289 26.8776 17.6488 22.2119 16.3999L10.0404 13.1418L13.7815 5.1214L25.953 8.37947Z" fill="#0D0E11"/>
<path d="M33.9156 26.2357C32.7973 28.6538 32.1896 29.9766 31.4871 31.3828L35.95 32.5774C36.5511 31.1441 37.1407 29.8889 38.3109 27.4122L40.125 23.4775C42.5107 18.3552 44.4165 17.5972 49.9613 19.0814C55.4046 20.5385 55.7374 21.4609 54.1967 24.7804L53.8895 25.3866L58.1676 26.4593C58.511 25.7179 58.7572 25.2041 59.0554 24.6317C61.4591 19.4418 60.5297 17.635 53.193 15.6711C48.7301 14.4765 45.5577 14.8229 43.0827 16.6242L44.3615 13.7419L40.2367 12.6377C39.6809 13.902 39.1003 15.1234 38.0702 17.3477L33.9156 26.2357Z" fill="#0D0E11"/>
<path d="M68.8333 41.8145C78.9086 44.5114 82.0416 42.9587 85.3693 35.806L85.8099 34.8369C89.1376 27.6841 87.1316 24.7558 77.0901 22.0679C67.0148 19.371 63.8818 20.9236 60.5541 28.0764L60.1135 29.0454C56.7858 36.1982 58.7918 39.1265 68.8333 41.8145ZM70.1198 37.9559C63.2226 36.1096 62.5522 34.5534 64.7097 29.8772L64.816 29.6158C67.0163 24.9149 68.8388 24.0621 75.7698 25.9174C82.667 27.7637 83.414 29.3042 81.1798 33.9961L81.0736 34.2575C78.9161 38.9337 77.0508 39.8112 70.1198 37.9559Z" fill="#0D0E11"/>
<path d="M96.0778 49.1073C100.946 50.4105 104.229 50.0574 106.72 48.3328L105.45 51.1813L109.609 52.2945C110.323 50.7102 110.833 49.615 111.97 47.1293L118.291 33.5314C119.382 31.2147 120.157 29.5381 120.841 28.1995L116.311 26.9868C115.728 28.3525 114.151 31.8072 112.619 35.0929C111.914 32.5852 109.406 30.7183 104.537 29.4151C95.4427 26.9805 92.3277 28.4656 88.9819 35.686L88.5414 36.655C85.2136 43.8078 87.1182 46.709 96.0778 49.1073ZM98.6334 45.516C91.77 43.6788 90.9891 42.1292 93.1376 37.4868L93.2438 37.2254C95.4352 32.5583 97.35 31.7665 104.349 33.6399C110.975 35.4137 111.763 37.0738 109.642 41.6147L109.501 41.8671C107.389 46.3742 105.395 47.326 98.6334 45.516Z" fill="#0D0E11"/>
<path d="M120.459 42.0829C119.456 44.2057 119.043 45.0733 118.365 46.5223C115.839 51.8971 117.041 54.7186 125.594 57.0083C130.125 58.2211 133.383 57.8251 135.883 56.0667L134.595 58.9828L138.72 60.087C139.285 58.7889 139.856 57.6013 140.886 55.377L145.041 46.489C146.168 44.0371 146.767 42.7481 147.469 41.3419L143.006 40.1473C142.405 41.5806 141.816 42.8358 140.646 45.3125L138.673 49.5672C136.543 54.1419 134.472 55.1094 128.454 53.4985C122.132 51.8061 121.651 50.0831 123.544 45.9884L125.754 41.2537C126.96 38.6418 127.401 37.6728 128.164 36.1742L123.701 34.9796C123.021 36.5729 122.404 37.9296 121.392 40.0862L120.459 42.0829Z" fill="#0D0E11"/>
<path d="M155.865 65.1112C165.805 67.772 168.634 66.1379 171.327 60.4094L167.026 59.1495C165.644 62.149 163.778 63.0265 157.118 61.2436C150.322 59.4245 149.652 57.8683 151.809 53.1921L151.915 52.9307C154.116 48.2298 155.938 47.377 162.734 49.1961C169.395 50.979 170.022 52.56 168.649 55.5257L168.658 55.4919L173.046 56.558C175.818 50.6695 173.961 47.9983 164.021 45.3376C154.216 42.713 150.981 44.2385 147.654 51.3913L147.213 52.3603C143.885 59.5131 146.094 62.4957 155.865 65.1112Z" fill="#0D0E11"/>
<path d="M183.901 72.6158C194.044 75.3309 196.428 73.8677 198.638 69.133L194.346 67.8393C193.325 70.0298 192.021 70.8402 185.09 68.9849C178.565 67.2382 177.588 65.7448 179.199 61.7557L199.519 67.1949C199.756 66.7149 200.054 66.1426 200.336 65.4935C203.432 58.5321 201.793 55.4486 191.955 52.815C182.082 50.1723 178.848 51.6979 175.52 58.8507L175.08 59.8197C171.849 66.7449 173.859 69.9279 183.901 72.6158ZM190.847 56.1417C197.237 57.8522 197.934 59.307 196.371 62.9827L180.615 58.7653C182.621 55.063 184.626 54.4764 190.847 56.1417Z" fill="#0D0E11"/>
<path d="M202.469 71.3542C201.35 73.7723 200.743 75.0951 200.04 76.5013L204.503 77.6959C205.104 76.2626 205.694 75.0073 206.864 72.5307L208.678 68.596C211.064 63.4737 212.97 62.7157 218.514 64.1999C223.958 65.657 224.291 66.5794 222.75 69.8989L222.443 70.5051L226.721 71.5778C227.064 70.8364 227.31 70.3226 227.608 69.7502C230.012 64.5602 229.083 62.7535 221.746 60.7896C217.283 59.595 214.111 59.9414 211.636 61.7427L212.915 58.8603L208.79 57.7562C208.234 59.0205 207.653 60.2419 206.623 62.4662L202.469 71.3542Z" fill="#0D0E11"/>
</svg>
