<svg width="192" height="52" viewBox="0 0 192 52" fill="none" xmlns="http://www.w3.org/2000/svg">
<rect width="192" height="52" rx="26" fill="#1E2025"/>
<path d="M75.04 17.67C72.855 21.028 66.415 30.872 64.276 34H67.726L69.842 30.711H81.227L82.17 34H85.39C84.401 30.872 81.48 21.028 80.537 17.67H75.04ZM72.74 26.203C74.005 24.225 75.27 22.201 76.328 20.522H78.421C78.881 22.224 79.433 24.271 79.985 26.272L80.514 28.112H71.498L72.74 26.203ZM94.8904 34.276C101.652 34.276 103.17 32.758 103.906 28.664L100.962 28.595C100.594 30.734 99.5594 31.608 95.0284 31.608C90.4054 31.608 89.7154 30.734 90.2904 27.399L90.3134 27.215C90.9114 23.857 91.9234 23.006 96.5464 23.006C101.077 23.006 101.744 23.903 101.376 26.019V25.996L104.343 25.927C105.102 21.718 103.469 20.338 96.7074 20.338C90.0374 20.338 88.2434 21.856 87.3464 26.962L87.2314 27.652C86.3344 32.758 88.2434 34.276 94.8904 34.276ZM108.212 25.49C107.982 26.824 107.729 28.158 107.545 29.216C106.855 33.149 108.235 34.115 113.824 34.115C114.767 34.115 115.48 34.069 116.354 34L116.768 31.401C115.871 31.47 115.342 31.493 114.353 31.493C110.926 31.493 110.19 31.148 110.65 28.503L111.593 23.213H118.217L118.677 20.614H112.053C112.26 19.487 112.421 18.613 112.536 17.992L109.5 18.038C109.339 19.073 109.224 19.832 109.063 20.614C108.327 20.614 107.499 20.614 106.648 20.614L106.188 23.213H108.626L108.212 25.49ZM122.11 16.957L121.696 19.257H124.732L125.123 16.957H122.11ZM119.81 30.136C119.511 31.815 119.327 32.942 119.097 34H122.133C122.294 32.942 122.501 31.815 122.777 30.159L123.789 24.432C124.065 22.799 124.295 21.58 124.479 20.614H121.466C121.328 21.58 121.098 22.822 120.822 24.432L119.81 30.136ZM135.722 34C137.861 30.734 142.461 23.742 144.577 20.614H141.15L137.424 26.364C136.343 28.02 135.285 29.699 134.388 31.148H132.755C132.364 29.699 131.881 27.997 131.398 26.341L129.719 20.614H126.545C127.534 23.742 129.719 31.079 130.57 34H135.722ZM151.787 34.276C158.687 34.276 159.952 32.942 160.55 29.561L157.606 29.469C157.33 31.033 156.64 31.769 151.925 31.769C147.486 31.769 146.612 30.987 146.957 28.181H160.78C160.849 27.836 160.941 27.422 161.01 26.962C161.792 22.017 160.228 20.338 153.535 20.338C146.819 20.338 145.025 21.856 144.128 26.962L144.013 27.652C143.139 32.597 144.956 34.276 151.787 34.276ZM153.397 22.638C157.744 22.638 158.434 23.443 158.066 26.042H147.348C147.992 23.351 149.165 22.638 153.397 22.638Z" fill="#535559"/>
<circle cx="27" cy="26" r="17" fill="#9EA1AB"/>
<circle cx="27" cy="26" r="6" fill="#535559"/>
<circle cx="27" cy="26" r="8.35" stroke="#535559" stroke-width="1.3"/>
</svg>
