<svg width="87" height="13" viewBox="0 0 87 13" fill="none" xmlns="http://www.w3.org/2000/svg">
<path d="M7.616 12.224C12.976 12.224 14.256 11.088 14.256 7.856L12.656 7.808C12.624 10.016 11.936 10.672 7.68 10.672C3.424 10.672 2.608 9.808 2.608 6.416V6.224C2.608 2.944 3.424 1.968 7.68 1.968C11.936 1.968 12.656 2.624 12.656 4.832L14.256 4.784C14.256 1.552 12.96 0.415999 7.616 0.415999C2.304 0.415999 0.928 1.712 0.928 6.064V6.576C0.928 10.928 2.304 12.224 7.616 12.224ZM21.8283 12.192C26.4523 12.192 27.6683 11.136 27.6683 7.6V7.12C27.6683 3.584 26.4523 2.528 21.8283 2.528C17.2043 2.528 15.9883 3.584 15.9883 7.12V7.6C15.9883 11.136 17.2043 12.192 21.8283 12.192ZM21.8283 10.704C18.3083 10.704 17.6203 10.032 17.6203 7.44V7.28C17.6203 4.688 18.3083 4.016 21.8283 4.016C25.3483 4.016 26.0363 4.688 26.0363 7.28V7.44C26.0363 10.032 25.3483 10.704 21.8283 10.704ZM29.956 9.44C29.956 10.704 29.956 11.328 29.94 12H31.572C31.556 11.328 31.556 10.736 31.556 9.44V7.2C31.556 4.768 32.308 4.016 35.444 4.016C38.692 4.016 39.3 4.832 39.3 6.96V9.456C39.3 10.816 39.3 11.28 39.284 12H40.916C40.9 11.248 40.9 10.608 40.9 9.456V8.48C40.9 7.52 40.916 7.136 40.916 6.48C40.916 3.664 40.1 2.528 35.876 2.528C33.604 2.528 32.212 3.04 31.46 4.08L31.428 2.72H29.94C29.956 3.344 29.956 3.92 29.956 5.104V9.44ZM44.2961 6.24C44.2961 7.024 44.2801 7.936 44.2801 8.64C44.2801 11.392 45.1281 12.08 48.9041 12.08C49.6081 12.08 50.2001 12.048 50.6961 12L50.6801 10.544C50.0721 10.576 49.7041 10.592 48.9841 10.592C46.5361 10.592 45.8961 10.352 45.8961 8.416V4.176H50.6801V2.72H45.8961C45.8961 1.92 45.8961 1.28 45.9121 0.896L44.2801 0.927999C44.2961 1.664 44.2961 2.192 44.2961 2.72C43.7841 2.72 43.2721 2.736 42.6161 2.72V4.176H44.2961V6.24ZM57.551 12.192C60.031 12.192 61.439 11.696 62.143 10.912L62.159 12H63.599C63.583 10.736 63.583 9.92 63.583 8.96C63.583 7.616 63.599 7.008 63.599 5.744C63.599 3.552 62.783 2.528 58.047 2.528C53.743 2.528 52.767 3.44 52.799 5.376L54.415 5.424C54.399 4.32 54.783 3.952 58.047 3.952C61.423 3.952 61.983 4.448 61.983 6.048V7.184C61.231 6.592 59.855 6.24 57.551 6.24C53.343 6.24 52.431 7.12 52.431 9.248C52.431 11.328 53.295 12.192 57.551 12.192ZM58.015 10.8C54.751 10.8 54.079 10.4 54.079 9.248C54.079 8.064 54.511 7.568 58.015 7.568C61.455 7.568 62.015 8.048 62.015 8.768V9.264C62.015 10.304 61.455 10.8 58.015 10.8ZM71.608 12.192C76.168 12.192 77.256 11.152 77.256 8.4L75.672 8.352C75.672 10.016 75 10.704 71.608 10.704C68.152 10.704 67.464 10.032 67.464 7.44V7.28C67.464 4.688 68.152 4.016 71.608 4.016C75 4.016 75.64 4.736 75.64 6.368L77.224 6.32C77.224 3.488 76.184 2.528 71.608 2.528C67.112 2.528 65.832 3.584 65.832 7.12V7.6C65.832 11.136 67.128 12.192 71.608 12.192ZM79.9993 6.24C79.9993 7.024 79.9833 7.936 79.9833 8.64C79.9833 11.392 80.8313 12.08 84.6073 12.08C85.3113 12.08 85.9033 12.048 86.3993 12L86.3833 10.544C85.7753 10.576 85.4073 10.592 84.6873 10.592C82.2393 10.592 81.5993 10.352 81.5993 8.416V4.176H86.3833V2.72H81.5993C81.5993 1.92 81.5993 1.28 81.6153 0.896L79.9833 0.927999C79.9993 1.664 79.9993 2.192 79.9993 2.72C79.4873 2.72 78.9753 2.736 78.3193 2.72V4.176H79.9993V6.24Z" fill="#9EA1AB"/>
</svg>
