<svg width="123" height="15" viewBox="0 0 123 15" fill="none" xmlns="http://www.w3.org/2000/svg">
<path d="M0.584 9.456C0.584 10.528 0.584 11.12 0.568 12H6.728C12.2 12 13.576 10.736 13.576 6.416V6.224C13.576 1.904 12.2 0.639999 6.744 0.639999H0.568C0.584 1.408 0.584 1.904 0.584 2.768V9.456ZM6.744 2.144C11.08 2.144 11.896 2.992 11.896 6.224V6.416C11.896 9.648 11.08 10.496 6.728 10.496H2.248V2.144H6.744ZM21.22 12.192C25.892 12.192 26.772 11.264 26.772 9.04L25.188 8.976C25.188 10.176 24.756 10.768 21.236 10.768C17.828 10.768 17.06 10.144 16.98 7.984H26.772C26.772 7.712 26.788 7.376 26.772 7.12C26.724 3.584 25.668 2.528 21.108 2.528C16.548 2.528 15.332 3.584 15.332 7.12V7.6C15.332 11.136 16.548 12.192 21.22 12.192ZM21.108 3.92C24.388 3.92 25.012 4.56 25.076 6.608H16.98C17.092 4.496 17.892 3.92 21.108 3.92ZM33.8654 12.192C38.5214 12.192 39.1134 11.456 39.1134 9.536C39.1134 7.632 38.5374 6.928 33.7374 6.528C30.2974 6.24 30.0574 5.952 30.0574 5.152C30.0574 4.304 30.5534 3.968 33.5614 3.968C36.6174 3.968 37.0974 4.336 37.0974 5.312V5.552L38.7454 5.504C38.7454 3.28 37.9614 2.528 33.6254 2.528C29.3534 2.528 28.5214 3.312 28.5214 5.264C28.5214 7.152 29.2254 7.76 33.4814 8.112C37.1934 8.416 37.4814 8.72 37.4814 9.616C37.4814 10.48 37.1454 10.848 33.9294 10.848C30.5214 10.848 30.0254 10.48 30.0254 9.184V8.928L28.4094 8.976C28.4094 11.664 29.2414 12.192 33.8654 12.192ZM46.483 12.192C51.043 12.192 52.131 11.152 52.131 8.4L50.547 8.352C50.547 10.016 49.875 10.704 46.483 10.704C43.027 10.704 42.339 10.032 42.339 7.44V7.28C42.339 4.688 43.027 4.016 46.483 4.016C49.875 4.016 50.515 4.736 50.515 6.368L52.099 6.32C52.099 3.488 51.059 2.528 46.483 2.528C41.987 2.528 40.707 3.584 40.707 7.12V7.6C40.707 11.136 42.003 12.192 46.483 12.192ZM54.3623 9.44C54.3623 10.704 54.3623 11.328 54.3463 12H55.9783C55.9623 11.328 55.9623 10.736 55.9623 9.44V7.296C55.9623 4.608 56.7143 4.016 59.4663 4.016C62.2663 4.016 62.5863 4.4 62.5863 6.208V6.528L64.1223 6.496C64.1383 6.256 64.1383 6.016 64.1383 5.824C64.1383 3.168 63.4183 2.528 59.8503 2.528C57.8663 2.528 56.5863 3.04 55.8663 4.08L55.8343 2.72H54.3463C54.3623 3.344 54.3623 3.92 54.3623 5.104V9.44ZM66.2845 0.287999V1.776H67.9165V0.287999H66.2845ZM66.3005 9.488C66.3005 10.56 66.3005 11.296 66.2845 12H67.9165C67.9005 11.296 67.9005 10.56 67.9005 9.504V5.424C67.9005 4.272 67.9005 3.408 67.9165 2.72H66.2845C66.3005 3.408 66.3005 4.272 66.3005 5.408V9.488ZM70.8466 12C70.8466 12.96 70.8466 13.76 70.8306 14.24H72.4786C72.4626 13.584 72.4626 12.432 72.4626 10.752C73.2626 11.728 74.6386 12.192 76.8786 12.192C81.2626 12.192 82.4946 11.136 82.4946 7.6V7.12C82.4946 3.584 81.2626 2.528 76.9746 2.528C74.6066 2.528 73.1666 3.04 72.3826 4.08V2.72H70.8306C70.8466 3.392 70.8466 3.968 70.8466 4.704V12ZM72.4466 7.424V7.296C72.4466 4.768 73.1666 4.016 76.6546 4.016C80.1586 4.016 80.8626 4.688 80.8626 7.28V7.44C80.8626 10.032 80.1586 10.704 76.5746 10.704C73.1666 10.704 72.4466 9.968 72.4466 7.424ZM85.2961 6.24C85.2961 7.024 85.2801 7.936 85.2801 8.64C85.2801 11.392 86.1281 12.08 89.9041 12.08C90.6081 12.08 91.2001 12.048 91.6961 12L91.6801 10.544C91.0721 10.576 90.7041 10.592 89.9841 10.592C87.5361 10.592 86.8961 10.352 86.8961 8.416V4.176H91.6801V2.72H86.8961C86.8961 1.92 86.8961 1.28 86.9121 0.896L85.2801 0.927999C85.2961 1.664 85.2961 2.192 85.2961 2.72C84.7841 2.72 84.2721 2.736 83.6161 2.72V4.176H85.2961V6.24ZM93.847 0.287999V1.776H95.479V0.287999H93.847ZM93.863 9.488C93.863 10.56 93.863 11.296 93.847 12H95.479C95.463 11.296 95.463 10.56 95.463 9.504V5.424C95.463 4.272 95.463 3.408 95.479 2.72H93.847C93.863 3.408 93.863 4.272 93.863 5.408V9.488ZM103.625 12.192C108.249 12.192 109.465 11.136 109.465 7.6V7.12C109.465 3.584 108.249 2.528 103.625 2.528C99.0011 2.528 97.7851 3.584 97.7851 7.12V7.6C97.7851 11.136 99.0011 12.192 103.625 12.192ZM103.625 10.704C100.105 10.704 99.4171 10.032 99.4171 7.44V7.28C99.4171 4.688 100.105 4.016 103.625 4.016C107.145 4.016 107.833 4.688 107.833 7.28V7.44C107.833 10.032 107.145 10.704 103.625 10.704ZM111.753 9.44C111.753 10.704 111.753 11.328 111.737 12H113.369C113.353 11.328 113.353 10.736 113.353 9.44V7.2C113.353 4.768 114.105 4.016 117.241 4.016C120.489 4.016 121.097 4.832 121.097 6.96V9.456C121.097 10.816 121.097 11.28 121.081 12H122.713C122.697 11.248 122.697 10.608 122.697 9.456V8.48C122.697 7.52 122.713 7.136 122.713 6.48C122.713 3.664 121.897 2.528 117.673 2.528C115.401 2.528 114.009 3.04 113.257 4.08L113.225 2.72H111.737C111.753 3.344 111.753 3.92 111.753 5.104V9.44Z" fill="#9EA1AB"/>
</svg>
