<svg width="242" height="65" viewBox="0 0 242 65" fill="none" xmlns="http://www.w3.org/2000/svg">
<path d="M1.485 9.585C1.485 10.74 1.485 11.25 1.47 12H3.06C3.045 11.19 3.045 10.905 3.045 9.57V3.3C3.045 2.505 3.045 2.07 3.06 1.35H1.47C1.485 2.07 1.485 2.505 1.485 3.3V9.585ZM6.32637 6.945C6.32637 8.145 6.32637 10.815 6.31137 12H7.84137C7.82637 11.34 7.82637 10.485 7.82637 9.6V4.665H10.1364V3.3H7.82637V3.165C7.82637 2.28 8.08137 2.07 8.75637 2.04C9.31137 2.01 9.95637 1.98 10.3464 1.98L10.3014 0.69C9.98637 0.705 9.17637 0.719999 8.45637 0.765C6.91137 0.855 6.31137 1.335 6.31137 3.015C6.31137 3.105 6.31137 3.195 6.31137 3.3H4.88637L4.82637 4.665H6.31137C6.32637 5.415 6.32637 6.24 6.32637 6.945ZM22.8529 12.27C23.9779 10.05 26.3329 5.34 27.4129 3.3H25.7929L23.9329 6.93C23.4379 7.89 22.9429 8.865 22.5229 9.72H21.6829C21.1579 8.85 20.5429 7.86 19.9429 6.885L17.7529 3.3H16.0429C17.3479 5.355 19.7179 9.27 20.8129 11.115H21.8029L21.5329 11.595C20.9929 12.555 20.6479 12.75 19.7629 12.75C19.1929 12.75 18.7279 12.735 18.2479 12.705L18.2029 14.055C18.7579 14.085 19.4479 14.115 19.8079 14.115C21.3379 14.115 22.1629 13.635 22.8529 12.27ZM33.5011 12.18C37.8361 12.18 38.9761 11.19 38.9761 7.875V7.425C38.9761 4.11 37.8361 3.12 33.5011 3.12C29.1661 3.12 28.0261 4.11 28.0261 7.425V7.875C28.0261 11.19 29.1661 12.18 33.5011 12.18ZM33.5011 10.785C30.2011 10.785 29.5561 10.155 29.5561 7.725V7.575C29.5561 5.145 30.2011 4.515 33.5011 4.515C36.8011 4.515 37.4461 5.145 37.4461 7.575V7.725C37.4461 10.155 36.8011 10.785 33.5011 10.785ZM41.0909 6.6C41.0909 7.5 41.0759 7.86 41.0759 8.475C41.0759 11.115 41.8409 12.18 45.7859 12.18C47.8859 12.18 49.1609 11.7 49.8659 10.725L49.8959 12H51.2909C51.2759 11.415 51.2759 10.875 51.2759 9.765V5.7C51.2759 4.515 51.2759 3.93 51.2909 3.3H49.7609C49.7759 3.93 49.7759 4.485 49.7759 5.7V7.8C49.7759 10.08 49.0709 10.785 46.1909 10.785C43.1609 10.785 42.5909 10.02 42.5909 8.025V5.685C42.5909 4.41 42.5909 3.975 42.6059 3.3H41.0759C41.0909 4.005 41.0909 4.605 41.0909 5.685V6.6ZM64.0175 12.18C66.3425 12.18 67.6625 11.715 68.3225 10.98L68.3375 12H69.6875C69.6725 10.815 69.6725 10.05 69.6725 9.15C69.6725 7.89 69.6875 7.32 69.6875 6.135C69.6875 4.08 68.9225 3.12 64.4825 3.12C60.4475 3.12 59.5325 3.975 59.5625 5.79L61.0775 5.835C61.0625 4.8 61.4225 4.455 64.4825 4.455C67.6475 4.455 68.1725 4.92 68.1725 6.42V7.485C67.4675 6.93 66.1775 6.6 64.0175 6.6C60.0725 6.6 59.2175 7.425 59.2175 9.42C59.2175 11.37 60.0275 12.18 64.0175 12.18ZM64.4525 10.875C61.3925 10.875 60.7625 10.5 60.7625 9.42C60.7625 8.31 61.1675 7.845 64.4525 7.845C67.6775 7.845 68.2025 8.295 68.2025 8.97V9.435C68.2025 10.41 67.6775 10.875 64.4525 10.875ZM72.366 9.6C72.366 10.785 72.366 11.37 72.351 12H73.881C73.866 11.37 73.866 10.815 73.866 9.6V7.59C73.866 5.07 74.571 4.515 77.151 4.515C79.776 4.515 80.076 4.875 80.076 6.57V6.87L81.516 6.84C81.531 6.615 81.531 6.39 81.531 6.21C81.531 3.72 80.856 3.12 77.511 3.12C75.651 3.12 74.451 3.6 73.776 4.575L73.746 3.3H72.351C72.366 3.885 72.366 4.425 72.366 5.535V9.6ZM88.4631 12.18C92.8431 12.18 93.6681 11.31 93.6681 9.225L92.1831 9.165C92.1831 10.29 91.7781 10.845 88.4781 10.845C85.2831 10.845 84.5631 10.26 84.4881 8.235H93.6681C93.6681 7.98 93.6831 7.665 93.6681 7.425C93.6231 4.11 92.6331 3.12 88.3581 3.12C84.0831 3.12 82.9431 4.11 82.9431 7.425V7.875C82.9431 11.19 84.0831 12.18 88.4631 12.18ZM88.3581 4.425C91.4331 4.425 92.0181 5.025 92.0781 6.945H84.4881C84.5931 4.965 85.3431 4.425 88.3581 4.425ZM101.399 9.6C101.399 10.785 101.399 11.37 101.384 12H102.914C102.899 11.37 102.899 10.815 102.899 9.6V7.5C102.899 5.22 103.604 4.515 106.544 4.515C109.589 4.515 110.159 5.28 110.159 7.275V9.615C110.159 10.89 110.159 11.325 110.144 12H111.674C111.659 11.295 111.659 10.695 111.659 9.615V8.7C111.659 7.8 111.674 7.44 111.674 6.825C111.674 4.185 110.909 3.12 106.949 3.12C104.819 3.12 103.514 3.6 102.809 4.575L102.779 3.3H101.384C101.399 3.885 101.399 4.425 101.399 5.535V9.6ZM119.253 12.18C123.588 12.18 124.728 11.19 124.728 7.875V7.425C124.728 4.11 123.588 3.12 119.253 3.12C114.918 3.12 113.778 4.11 113.778 7.425V7.875C113.778 11.19 114.918 12.18 119.253 12.18ZM119.253 10.785C115.953 10.785 115.308 10.155 115.308 7.725V7.575C115.308 5.145 115.953 4.515 119.253 4.515C122.553 4.515 123.198 5.145 123.198 7.575V7.725C123.198 10.155 122.553 10.785 119.253 10.785ZM127.353 6.6C127.353 7.335 127.338 8.19 127.338 8.85C127.338 11.43 128.133 12.075 131.673 12.075C132.333 12.075 132.888 12.045 133.353 12L133.338 10.635C132.768 10.665 132.423 10.68 131.748 10.68C129.453 10.68 128.853 10.455 128.853 8.64V4.665H133.338V3.3H128.853C128.853 2.55 128.853 1.95 128.868 1.59L127.338 1.62C127.353 2.31 127.353 2.805 127.353 3.3C126.873 3.3 126.393 3.315 125.778 3.3V4.665H127.353V6.6ZM145.765 12.18C150.04 12.18 151.06 11.205 151.06 8.625L149.575 8.58C149.575 10.14 148.945 10.785 145.765 10.785C142.525 10.785 141.88 10.155 141.88 7.725V7.575C141.88 5.145 142.525 4.515 145.765 4.515C148.945 4.515 149.545 5.19 149.545 6.72L151.03 6.675C151.03 4.02 150.055 3.12 145.765 3.12C141.55 3.12 140.35 4.11 140.35 7.425V7.875C140.35 11.19 141.565 12.18 145.765 12.18ZM153.122 6.6C153.122 7.5 153.107 7.86 153.107 8.475C153.107 11.115 153.872 12.18 157.817 12.18C159.917 12.18 161.192 11.7 161.897 10.725L161.927 12H163.322C163.307 11.415 163.307 10.875 163.307 9.765V5.7C163.307 4.515 163.307 3.93 163.322 3.3H161.792C161.807 3.93 161.807 4.485 161.807 5.7V7.8C161.807 10.08 161.102 10.785 158.222 10.785C155.192 10.785 154.622 10.02 154.622 8.025V5.685C154.622 4.41 154.622 3.975 154.637 3.3H153.107C153.122 4.005 153.122 4.605 153.122 5.685V6.6ZM166.043 9.6C166.043 10.785 166.043 11.37 166.028 12H167.558C167.543 11.37 167.543 10.815 167.543 9.6V7.59C167.543 5.07 168.248 4.515 170.828 4.515C173.453 4.515 173.753 4.875 173.753 6.57V6.87L175.193 6.84C175.208 6.615 175.208 6.39 175.208 6.21C175.208 3.72 174.533 3.12 171.188 3.12C169.328 3.12 168.128 3.6 167.453 4.575L167.423 3.3H166.028C166.043 3.885 166.043 4.425 166.043 5.535V9.6ZM177.205 9.6C177.205 10.785 177.205 11.37 177.19 12H178.72C178.705 11.37 178.705 10.815 178.705 9.6V7.59C178.705 5.07 179.41 4.515 181.99 4.515C184.615 4.515 184.915 4.875 184.915 6.57V6.87L186.355 6.84C186.37 6.615 186.37 6.39 186.37 6.21C186.37 3.72 185.695 3.12 182.35 3.12C180.49 3.12 179.29 3.6 178.615 4.575L178.585 3.3H177.19C177.205 3.885 177.205 4.425 177.205 5.535V9.6ZM193.302 12.18C197.682 12.18 198.507 11.31 198.507 9.225L197.022 9.165C197.022 10.29 196.617 10.845 193.317 10.845C190.122 10.845 189.402 10.26 189.327 8.235H198.507C198.507 7.98 198.522 7.665 198.507 7.425C198.462 4.11 197.472 3.12 193.197 3.12C188.922 3.12 187.782 4.11 187.782 7.425V7.875C187.782 11.19 188.922 12.18 193.302 12.18ZM193.197 4.425C196.272 4.425 196.857 5.025 196.917 6.945H189.327C189.432 4.965 190.182 4.425 193.197 4.425ZM200.657 9.6C200.657 10.785 200.657 11.37 200.642 12H202.172C202.157 11.37 202.157 10.815 202.157 9.6V7.5C202.157 5.22 202.862 4.515 205.802 4.515C208.847 4.515 209.417 5.28 209.417 7.275V9.615C209.417 10.89 209.417 11.325 209.402 12H210.932C210.917 11.295 210.917 10.695 210.917 9.615V8.7C210.917 7.8 210.932 7.44 210.932 6.825C210.932 4.185 210.167 3.12 206.207 3.12C204.077 3.12 202.772 3.6 202.067 4.575L202.037 3.3H200.642C200.657 3.885 200.657 4.425 200.657 5.535V9.6ZM214.101 6.6C214.101 7.335 214.086 8.19 214.086 8.85C214.086 11.43 214.881 12.075 218.421 12.075C219.081 12.075 219.636 12.045 220.101 12L220.086 10.635C219.516 10.665 219.171 10.68 218.496 10.68C216.201 10.68 215.601 10.455 215.601 8.64V4.665H220.086V3.3H215.601C215.601 2.55 215.601 1.95 215.616 1.59L214.086 1.62C214.101 2.31 214.101 2.805 214.101 3.3C213.621 3.3 213.141 3.315 212.526 3.3V4.665H214.101V6.6ZM222.132 9.645C222.132 10.65 222.132 11.34 222.117 12H223.647C223.632 11.34 223.632 10.65 223.632 9.66V3.315C223.632 2.235 223.632 1.425 223.647 0.78H222.117C222.132 1.425 222.132 2.235 222.132 3.3V9.645ZM231.959 12.27C233.084 10.05 235.439 5.34 236.519 3.3H234.899L233.039 6.93C232.544 7.89 232.049 8.865 231.629 9.72H230.789C230.264 8.85 229.649 7.86 229.049 6.885L226.859 3.3H225.149C226.454 5.355 228.824 9.27 229.919 11.115H230.909L230.639 11.595C230.099 12.555 229.754 12.75 228.869 12.75C228.299 12.75 227.834 12.735 227.354 12.705L227.309 14.055C227.864 14.085 228.554 14.115 228.914 14.115C230.444 14.115 231.269 13.635 231.959 12.27ZM1.395 34.645C1.395 35.65 1.395 36.34 1.38 37H2.91C2.895 36.34 2.895 35.65 2.895 34.66V28.315C2.895 27.235 2.895 26.425 2.91 25.78H1.38C1.395 26.425 1.395 27.235 1.395 28.3V34.645ZM10.547 37.18C14.882 37.18 16.022 36.19 16.022 32.875V32.425C16.022 29.11 14.882 28.12 10.547 28.12C6.21199 28.12 5.07199 29.11 5.07199 32.425V32.875C5.07199 36.19 6.21199 37.18 10.547 37.18ZM10.547 35.785C7.24699 35.785 6.60199 35.155 6.60199 32.725V32.575C6.60199 30.145 7.24699 29.515 10.547 29.515C13.847 29.515 14.492 30.145 14.492 32.575V32.725C14.492 35.155 13.847 35.785 10.547 35.785ZM23.0568 37.18C27.3918 37.18 28.5318 36.19 28.5318 32.875V32.425C28.5318 29.11 27.3918 28.12 23.0568 28.12C18.7218 28.12 17.5818 29.11 17.5818 32.425V32.875C17.5818 36.19 18.7218 37.18 23.0568 37.18ZM23.0568 35.785C19.7568 35.785 19.1118 35.155 19.1118 32.725V32.575C19.1118 30.145 19.7568 29.515 23.0568 29.515C26.3568 29.515 27.0018 30.145 27.0018 32.575V32.725C27.0018 35.155 26.3568 35.785 23.0568 35.785ZM30.7065 34.645C30.7065 35.65 30.7065 36.34 30.6915 37H32.2215C32.2065 36.34 32.2065 35.65 32.2065 34.66V33.325H34.5015C34.9665 33.7 35.4915 34.15 36.0765 34.6L39.0915 37H41.1765L41.2065 36.97C39.7365 35.815 37.2615 33.79 35.6865 32.53C37.2015 31.285 39.4815 29.455 40.9815 28.33L40.9515 28.3H38.9565L36.3315 30.385C35.6715 30.91 35.0115 31.45 34.4565 31.915H32.2065V28.315C32.2065 27.235 32.2065 26.41 32.2215 25.78H30.6915C30.7065 26.425 30.7065 27.235 30.7065 28.3V34.645ZM42.923 26.02V27.415H44.453V26.02H42.923ZM42.938 34.645C42.938 35.65 42.938 36.34 42.923 37H44.453C44.438 36.34 44.438 35.65 44.438 34.66V30.835C44.438 29.755 44.438 28.945 44.453 28.3H42.923C42.938 28.945 42.938 29.755 42.938 30.82V34.645ZM47.2 34.6C47.2 35.785 47.2 36.37 47.185 37H48.715C48.7 36.37 48.7 35.815 48.7 34.6V32.5C48.7 30.22 49.405 29.515 52.345 29.515C55.39 29.515 55.96 30.28 55.96 32.275V34.615C55.96 35.89 55.96 36.325 55.945 37H57.475C57.46 36.295 57.46 35.695 57.46 34.615V33.7C57.46 32.8 57.475 32.44 57.475 31.825C57.475 29.185 56.71 28.12 52.75 28.12C50.62 28.12 49.315 28.6 48.61 29.575L48.58 28.3H47.185C47.2 28.885 47.2 29.425 47.2 30.535V34.6ZM64.8438 36.13C67.0038 36.13 68.3088 35.65 69.0288 34.795L69.0138 35.65C68.9838 37.195 68.4138 37.915 64.8438 37.915C61.7988 37.915 61.2738 37.495 61.2738 36.61L59.8188 36.67C59.8188 38.65 60.8238 39.28 64.8438 39.28C69.4038 39.28 70.5138 38.395 70.5138 35.845C70.5138 34.675 70.4988 33.775 70.4988 32.5V30.25C70.4988 29.515 70.4988 28.945 70.5138 28.3H69.1188L69.1038 29.455C68.3838 28.585 67.0638 28.12 64.8288 28.12C61.0488 28.12 59.5788 28.855 59.5788 32.05V32.2C59.5788 35.395 61.1238 36.13 64.8438 36.13ZM61.1088 32.2V32.05C61.1088 30.13 61.9638 29.485 65.0988 29.485C68.3088 29.485 68.9838 30.115 68.9988 32.05C68.9988 33.97 68.2488 34.765 65.1138 34.765C61.8138 34.765 61.1088 34.12 61.1088 32.2ZM79.2463 31.945C79.2463 33.145 79.2463 35.815 79.2313 37H80.7613C80.7463 36.34 80.7463 35.485 80.7463 34.6V29.665H83.0563V28.3H80.7463V28.165C80.7463 27.28 81.0013 27.07 81.6763 27.04C82.2313 27.01 82.8763 26.98 83.2663 26.98L83.2213 25.69C82.9063 25.705 82.0963 25.72 81.3763 25.765C79.8313 25.855 79.2313 26.335 79.2313 28.015C79.2313 28.105 79.2313 28.195 79.2313 28.3H77.8063L77.7463 29.665H79.2313C79.2463 30.415 79.2463 31.24 79.2463 31.945ZM89.2238 37.18C93.5588 37.18 94.6988 36.19 94.6988 32.875V32.425C94.6988 29.11 93.5588 28.12 89.2238 28.12C84.8888 28.12 83.7488 29.11 83.7488 32.425V32.875C83.7488 36.19 84.8888 37.18 89.2238 37.18ZM89.2238 35.785C85.9238 35.785 85.2788 35.155 85.2788 32.725V32.575C85.2788 30.145 85.9238 29.515 89.2238 29.515C92.5238 29.515 93.1688 30.145 93.1688 32.575V32.725C93.1688 35.155 92.5238 35.785 89.2238 35.785ZM96.8435 34.6C96.8435 35.785 96.8435 36.37 96.8285 37H98.3585C98.3435 36.37 98.3435 35.815 98.3435 34.6V32.59C98.3435 30.07 99.0485 29.515 101.629 29.515C104.254 29.515 104.554 29.875 104.554 31.57V31.87L105.994 31.84C106.009 31.615 106.009 31.39 106.009 31.21C106.009 28.72 105.334 28.12 101.989 28.12C100.129 28.12 98.9285 28.6 98.2535 29.575L98.2235 28.3H96.8285C96.8435 28.885 96.8435 29.425 96.8435 30.535V34.6ZM118.012 37.18C120.337 37.18 121.657 36.715 122.317 35.98L122.332 37H123.682C123.667 35.815 123.667 35.05 123.667 34.15C123.667 32.89 123.682 32.32 123.682 31.135C123.682 29.08 122.917 28.12 118.477 28.12C114.442 28.12 113.527 28.975 113.557 30.79L115.072 30.835C115.057 29.8 115.417 29.455 118.477 29.455C121.642 29.455 122.167 29.92 122.167 31.42V32.485C121.462 31.93 120.172 31.6 118.012 31.6C114.067 31.6 113.212 32.425 113.212 34.42C113.212 36.37 114.022 37.18 118.012 37.18ZM118.447 35.875C115.387 35.875 114.757 35.5 114.757 34.42C114.757 33.31 115.162 32.845 118.447 32.845C121.672 32.845 122.197 33.295 122.197 33.97V34.435C122.197 35.41 121.672 35.875 118.447 35.875ZM136.441 37.18C140.806 37.18 141.361 36.49 141.361 34.69C141.361 32.905 140.821 32.245 136.321 31.87C133.096 31.6 132.871 31.33 132.871 30.58C132.871 29.785 133.336 29.47 136.156 29.47C139.021 29.47 139.471 29.815 139.471 30.73V30.955L141.016 30.91C141.016 28.825 140.281 28.12 136.216 28.12C132.211 28.12 131.431 28.855 131.431 30.685C131.431 32.455 132.091 33.025 136.081 33.355C139.561 33.64 139.831 33.925 139.831 34.765C139.831 35.575 139.516 35.92 136.501 35.92C133.306 35.92 132.841 35.575 132.841 34.36V34.12L131.326 34.165C131.326 36.685 132.106 37.18 136.441 37.18ZM148.33 37.18C152.665 37.18 153.805 36.19 153.805 32.875V32.425C153.805 29.11 152.665 28.12 148.33 28.12C143.995 28.12 142.855 29.11 142.855 32.425V32.875C142.855 36.19 143.995 37.18 148.33 37.18ZM148.33 35.785C145.03 35.785 144.385 35.155 144.385 32.725V32.575C144.385 30.145 145.03 29.515 148.33 29.515C151.63 29.515 152.275 30.145 152.275 32.575V32.725C152.275 35.155 151.63 35.785 148.33 35.785ZM155.95 34.6C155.95 35.785 155.95 36.37 155.935 37H157.465C157.45 36.37 157.45 35.815 157.45 34.6V32.5C157.45 30.22 158.155 29.515 161.095 29.515C164.14 29.515 164.71 30.28 164.71 32.275V34.615C164.71 35.89 164.71 36.325 164.695 37H166.225C166.21 36.295 166.21 35.695 166.21 34.615V33.7C166.21 32.8 166.225 32.44 166.225 31.825C166.225 29.185 165.46 28.12 161.5 28.12C159.37 28.12 158.065 28.6 157.36 29.575L157.33 28.3H155.935C155.95 28.885 155.95 29.425 155.95 30.535V34.6ZM173.594 36.13C175.754 36.13 177.059 35.65 177.779 34.795L177.764 35.65C177.734 37.195 177.164 37.915 173.594 37.915C170.549 37.915 170.024 37.495 170.024 36.61L168.569 36.67C168.569 38.65 169.574 39.28 173.594 39.28C178.154 39.28 179.264 38.395 179.264 35.845C179.264 34.675 179.249 33.775 179.249 32.5V30.25C179.249 29.515 179.249 28.945 179.264 28.3H177.869L177.854 29.455C177.134 28.585 175.814 28.12 173.579 28.12C169.799 28.12 168.329 28.855 168.329 32.05V32.2C168.329 35.395 169.874 36.13 173.594 36.13ZM169.859 32.2V32.05C169.859 30.13 170.714 29.485 173.849 29.485C177.059 29.485 177.734 30.115 177.749 32.05C177.749 33.97 176.999 34.765 173.864 34.765C170.564 34.765 169.859 34.12 169.859 32.2ZM181.665 35.17V37.015C181.755 37 182.055 37 182.34 37C182.295 37.195 182.235 37.39 182.175 37.585L181.845 38.815H183.015L183.555 37V35.17H181.665ZM5.865 62.18C10.23 62.18 10.785 61.49 10.785 59.69C10.785 57.905 10.245 57.245 5.745 56.87C2.52 56.6 2.295 56.33 2.295 55.58C2.295 54.785 2.76 54.47 5.58 54.47C8.445 54.47 8.895 54.815 8.895 55.73V55.955L10.44 55.91C10.44 53.825 9.705 53.12 5.64 53.12C1.635 53.12 0.855 53.855 0.855 55.685C0.855 57.455 1.515 58.025 5.505 58.355C8.985 58.64 9.255 58.925 9.255 59.765C9.255 60.575 8.94 60.92 5.925 60.92C2.73 60.92 2.265 60.575 2.265 59.36V59.12L0.75 59.165C0.75 61.685 1.53 62.18 5.865 62.18ZM18.819 57.725C19.194 56.75 19.584 55.775 19.929 54.89H20.364C20.679 55.79 21.024 56.795 21.354 57.77L22.809 62H25.239C26.049 59.87 27.819 55.34 28.704 53.3H27.099L25.644 57.11C25.209 58.265 24.759 59.465 24.369 60.5H23.814C23.514 59.54 23.139 58.43 22.764 57.335L21.384 53.3H19.044L17.544 57.275C17.139 58.355 16.704 59.495 16.344 60.5H15.759C15.414 59.48 15.009 58.28 14.634 57.17L13.329 53.3H11.619C12.399 55.31 14.034 59.87 14.754 62H17.184L18.819 57.725ZM30.2081 51.02V52.415H31.7381V51.02H30.2081ZM30.2231 59.645C30.2231 60.65 30.2231 61.34 30.2081 62H31.7381C31.7231 61.34 31.7231 60.65 31.7231 59.66V55.835C31.7231 54.755 31.7231 53.945 31.7381 53.3H30.2081C30.2231 53.945 30.2231 54.755 30.2231 55.82V59.645ZM34.9651 56.6C34.9651 57.335 34.9501 58.19 34.9501 58.85C34.9501 61.43 35.7451 62.075 39.2851 62.075C39.9451 62.075 40.5001 62.045 40.9651 62L40.9501 60.635C40.3801 60.665 40.0351 60.68 39.3601 60.68C37.0651 60.68 36.4651 60.455 36.4651 58.64V54.665H40.9501V53.3H36.4651C36.4651 52.55 36.4651 51.95 36.4801 51.59L34.9501 51.62C34.9651 52.31 34.9651 52.805 34.9651 53.3C34.4851 53.3 34.0051 53.315 33.3901 53.3V54.665H34.9651V56.6ZM47.7966 62.18C52.0716 62.18 53.0916 61.205 53.0916 58.625L51.6066 58.58C51.6066 60.14 50.9766 60.785 47.7966 60.785C44.5566 60.785 43.9116 60.155 43.9116 57.725V57.575C43.9116 55.145 44.5566 54.515 47.7966 54.515C50.9766 54.515 51.5766 55.19 51.5766 56.72L53.0616 56.675C53.0616 54.02 52.0866 53.12 47.7966 53.12C43.5816 53.12 42.3816 54.11 42.3816 57.425V57.875C42.3816 61.19 43.5966 62.18 47.7966 62.18ZM55.1834 59.63C55.1834 60.725 55.1834 61.265 55.1684 62H56.6984C56.6834 61.25 56.6834 60.605 56.6834 59.6V57.5C56.6834 55.22 57.3884 54.515 60.3284 54.515C63.3734 54.515 63.9434 55.28 63.9434 57.275V59.63C63.9434 60.695 63.9434 61.235 63.9284 62H65.4584C65.4434 61.145 65.4434 60.44 65.4434 59.66V58.7C65.4434 57.8 65.4584 57.44 65.4584 56.825C65.4584 54.185 64.6934 53.12 60.7334 53.12C58.6484 53.12 57.3584 53.585 56.6384 54.515C56.6684 53.495 56.7134 51.035 56.7134 50.78H55.1684C55.1834 51.425 55.1834 52.22 55.1834 53.3V59.63ZM74.2083 56.6C74.2083 57.335 74.1933 58.19 74.1933 58.85C74.1933 61.43 74.9883 62.075 78.5283 62.075C79.1883 62.075 79.7433 62.045 80.2083 62L80.1933 60.635C79.6233 60.665 79.2783 60.68 78.6033 60.68C76.3083 60.68 75.7083 60.455 75.7083 58.64V54.665H80.1933V53.3H75.7083C75.7083 52.55 75.7083 51.95 75.7233 51.59L74.1933 51.62C74.2083 52.31 74.2083 52.805 74.2083 53.3C73.7283 53.3 73.2483 53.315 72.6333 53.3V54.665H74.2083V56.6ZM87.0997 62.18C91.4347 62.18 92.5747 61.19 92.5747 57.875V57.425C92.5747 54.11 91.4347 53.12 87.0997 53.12C82.7647 53.12 81.6247 54.11 81.6247 57.425V57.875C81.6247 61.19 82.7647 62.18 87.0997 62.18ZM87.0997 60.785C83.7997 60.785 83.1547 60.155 83.1547 57.725V57.575C83.1547 55.145 83.7997 54.515 87.0997 54.515C90.3997 54.515 91.0447 55.145 91.0447 57.575V57.725C91.0447 60.155 90.3997 60.785 87.0997 60.785ZM104.801 62.18C109.166 62.18 109.721 61.49 109.721 59.69C109.721 57.905 109.181 57.245 104.681 56.87C101.456 56.6 101.231 56.33 101.231 55.58C101.231 54.785 101.696 54.47 104.516 54.47C107.381 54.47 107.831 54.815 107.831 55.73V55.955L109.376 55.91C109.376 53.825 108.641 53.12 104.576 53.12C100.571 53.12 99.7905 53.855 99.7905 55.685C99.7905 57.455 100.451 58.025 104.441 58.355C107.921 58.64 108.191 58.925 108.191 59.765C108.191 60.575 107.876 60.92 104.861 60.92C101.666 60.92 101.201 60.575 101.201 59.36V59.12L99.6855 59.165C99.6855 61.685 100.466 62.18 104.801 62.18ZM111.83 59.645C111.83 60.65 111.83 61.34 111.815 62H113.345C113.33 61.34 113.33 60.65 113.33 59.66V53.315C113.33 52.235 113.33 51.425 113.345 50.78H111.815C111.83 51.425 111.83 52.235 111.83 53.3V59.645ZM121.027 62.18C125.407 62.18 126.232 61.31 126.232 59.225L124.747 59.165C124.747 60.29 124.342 60.845 121.042 60.845C117.847 60.845 117.127 60.26 117.052 58.235H126.232C126.232 57.98 126.247 57.665 126.232 57.425C126.187 54.11 125.197 53.12 120.922 53.12C116.647 53.12 115.507 54.11 115.507 57.425V57.875C115.507 61.19 116.647 62.18 121.027 62.18ZM120.922 54.425C123.997 54.425 124.582 55.025 124.642 56.945H117.052C117.157 54.965 117.907 54.425 120.922 54.425ZM133.317 62.18C137.697 62.18 138.522 61.31 138.522 59.225L137.037 59.165C137.037 60.29 136.632 60.845 133.332 60.845C130.137 60.845 129.417 60.26 129.342 58.235H138.522C138.522 57.98 138.537 57.665 138.522 57.425C138.477 54.11 137.487 53.12 133.212 53.12C128.937 53.12 127.797 54.11 127.797 57.425V57.875C127.797 61.19 128.937 62.18 133.317 62.18ZM133.212 54.425C136.287 54.425 136.872 55.025 136.932 56.945H129.342C129.447 54.965 130.197 54.425 133.212 54.425ZM140.672 62C140.672 62.9 140.672 63.65 140.657 64.1H142.202C142.187 63.485 142.187 62.405 142.187 60.83C142.937 61.745 144.227 62.18 146.327 62.18C150.437 62.18 151.592 61.19 151.592 57.875V57.425C151.592 54.11 150.437 53.12 146.417 53.12C144.197 53.12 142.847 53.6 142.112 54.575V53.3H140.657C140.672 53.93 140.672 54.47 140.672 55.16V62ZM142.172 57.71V57.59C142.172 55.22 142.847 54.515 146.117 54.515C149.402 54.515 150.062 55.145 150.062 57.575V57.725C150.062 60.155 149.402 60.785 146.042 60.785C142.847 60.785 142.172 60.095 142.172 57.71ZM163.744 62.18C166.069 62.18 167.389 61.715 168.049 60.98L168.064 62H169.414C169.399 60.815 169.399 60.05 169.399 59.15C169.399 57.89 169.414 57.32 169.414 56.135C169.414 54.08 168.649 53.12 164.209 53.12C160.174 53.12 159.259 53.975 159.289 55.79L160.804 55.835C160.789 54.8 161.149 54.455 164.209 54.455C167.374 54.455 167.899 54.92 167.899 56.42V57.485C167.194 56.93 165.904 56.6 163.744 56.6C159.799 56.6 158.944 57.425 158.944 59.42C158.944 61.37 159.754 62.18 163.744 62.18ZM164.179 60.875C161.119 60.875 160.489 60.5 160.489 59.42C160.489 58.31 160.894 57.845 164.179 57.845C167.404 57.845 167.929 58.295 167.929 58.97V59.435C167.929 60.41 167.404 60.875 164.179 60.875ZM176.923 62.18C181.198 62.18 182.218 61.205 182.218 58.625L180.733 58.58C180.733 60.14 180.103 60.785 176.923 60.785C173.683 60.785 173.038 60.155 173.038 57.725V57.575C173.038 55.145 173.683 54.515 176.923 54.515C180.103 54.515 180.703 55.19 180.703 56.72L182.188 56.675C182.188 54.02 181.213 53.12 176.923 53.12C172.708 53.12 171.508 54.11 171.508 57.425V57.875C171.508 61.19 172.723 62.18 176.923 62.18ZM189.139 62.18C193.414 62.18 194.434 61.205 194.434 58.625L192.949 58.58C192.949 60.14 192.319 60.785 189.139 60.785C185.899 60.785 185.254 60.155 185.254 57.725V57.575C185.254 55.145 185.899 54.515 189.139 54.515C192.319 54.515 192.919 55.19 192.919 56.72L194.404 56.675C194.404 54.02 193.429 53.12 189.139 53.12C184.924 53.12 183.724 54.11 183.724 57.425V57.875C183.724 61.19 184.939 62.18 189.139 62.18ZM201.416 62.18C205.751 62.18 206.891 61.19 206.891 57.875V57.425C206.891 54.11 205.751 53.12 201.416 53.12C197.081 53.12 195.941 54.11 195.941 57.425V57.875C195.941 61.19 197.081 62.18 201.416 62.18ZM201.416 60.785C198.116 60.785 197.471 60.155 197.471 57.725V57.575C197.471 55.145 198.116 54.515 201.416 54.515C204.716 54.515 205.361 55.145 205.361 57.575V57.725C205.361 60.155 204.716 60.785 201.416 60.785ZM209.006 56.6C209.006 57.5 208.991 57.86 208.991 58.475C208.991 61.115 209.756 62.18 213.701 62.18C215.801 62.18 217.076 61.7 217.781 60.725L217.811 62H219.206C219.191 61.415 219.191 60.875 219.191 59.765V55.7C219.191 54.515 219.191 53.93 219.206 53.3H217.676C217.691 53.93 217.691 54.485 217.691 55.7V57.8C217.691 60.08 216.986 60.785 214.106 60.785C211.076 60.785 210.506 60.02 210.506 58.025V55.685C210.506 54.41 210.506 53.975 210.521 53.3H208.991C209.006 54.005 209.006 54.605 209.006 55.685V56.6ZM221.927 59.6C221.927 60.785 221.927 61.37 221.912 62H223.442C223.427 61.37 223.427 60.815 223.427 59.6V57.5C223.427 55.22 224.132 54.515 227.072 54.515C230.117 54.515 230.687 55.28 230.687 57.275V59.615C230.687 60.89 230.687 61.325 230.672 62H232.202C232.187 61.295 232.187 60.695 232.187 59.615V58.7C232.187 57.8 232.202 57.44 232.202 56.825C232.202 54.185 231.437 53.12 227.477 53.12C225.347 53.12 224.042 53.6 223.337 54.575L223.307 53.3H221.912C221.927 53.885 221.927 54.425 221.927 55.535V59.6ZM235.37 56.6C235.37 57.335 235.355 58.19 235.355 58.85C235.355 61.43 236.15 62.075 239.69 62.075C240.35 62.075 240.905 62.045 241.37 62L241.355 60.635C240.785 60.665 240.44 60.68 239.765 60.68C237.47 60.68 236.87 60.455 236.87 58.64V54.665H241.355V53.3H236.87C236.87 52.55 236.87 51.95 236.885 51.59L235.355 51.62C235.37 52.31 235.37 52.805 235.37 53.3C234.89 53.3 234.41 53.315 233.795 53.3V54.665H235.37V56.6Z" fill="#535559"/>
</svg>
