<svg width="166" height="39" viewBox="0 0 166 39" fill="none" xmlns="http://www.w3.org/2000/svg">
<rect x="0.5" y="0.5" width="165" height="38" rx="19" stroke="#535559"/>
<path d="M49.895 25L50.285 23.86H40.625V20.29H49.61L50 19.15H40.625V16H49.895L50.285 14.86H39.275V25H49.895ZM62.6335 25V14.08H61.2985V18.16C60.5185 17.35 58.8235 16.75 57.2485 16.75H56.7535C53.8435 16.75 51.7285 18.055 51.7285 20.605V21.22C51.7285 23.77 53.8435 25.075 56.7535 25.075H57.2485C58.9585 25.075 60.5185 24.385 61.2985 23.545V25H62.6335ZM61.2985 22.105C60.4885 23.29 58.9285 23.935 57.2485 23.935H56.7535C54.2635 23.935 53.0785 23.02 53.0785 21.13V20.695C53.0785 18.925 54.1885 17.89 56.7535 17.89H57.2485C58.9285 17.89 60.4585 18.565 61.2985 19.6V22.105ZM66.9731 15.145V13.645H65.3381V15.145H66.9731ZM66.8981 17.05H64.3481V18.19H65.5631V25H66.8981V17.05ZM70.9672 22.63C70.9672 24.25 71.5072 25.045 73.5322 25.045C74.7922 25.045 75.6472 24.925 76.6522 24.685L76.9522 23.5C75.9622 23.785 75.0472 23.935 73.9822 23.935C72.9772 23.935 72.3022 23.65 72.3022 22.915V18.595H76.5622V17.455H72.3022V14.845H70.9672V17.455H68.7172V18.595H70.9672V22.63ZM88.8733 21.415C92.5033 21.415 93.7333 20.17 93.7333 18.385V17.995C93.7333 16.285 92.5033 14.86 88.8733 14.86H82.6783V25H84.0283V16H88.9933C91.3333 16 92.3983 16.675 92.3983 18.04V18.34C92.3983 19.705 91.3333 20.275 88.9933 20.275H84.5833L84.9733 21.415H88.8733ZM101.02 17.89C101.89 17.89 102.82 18.01 103.69 18.31L104.05 17.215C103 16.87 102.055 16.75 101.02 16.75H100.645C99.0696 16.75 97.5246 17.44 96.6696 18.46V16.825H95.3346V25H96.6696V19.975C97.5396 18.76 98.9646 17.89 100.645 17.89H101.02ZM109.928 16.75C106.898 16.75 104.858 18.13 104.858 20.68V21.145C104.858 23.695 106.898 25.075 109.928 25.075H111.098C114.128 25.075 116.168 23.695 116.168 21.145V20.68C116.168 18.13 114.128 16.75 111.098 16.75H109.928ZM114.833 21.145C114.833 22.915 113.633 23.935 111.143 23.935H109.883C107.393 23.935 106.193 22.915 106.193 21.145V20.68C106.193 18.91 107.393 17.89 109.883 17.89H111.143C113.633 17.89 114.833 18.91 114.833 20.68V21.145ZM125.385 19.045V17.905H121.14V16.825C121.14 15.385 121.53 14.995 122.925 14.98C123.795 14.965 124.815 15.13 125.7 15.445L126.03 14.395C124.905 14.035 124.11 13.855 122.925 13.855C120.45 13.855 119.805 14.86 119.805 16.615V17.905H117.54V19.045H119.805V25H121.14V19.045H125.385ZM129.302 15.145V13.645H127.667V15.145H129.302ZM129.227 17.05H126.677V18.19H127.892V25H129.227V17.05ZM130.881 14.32V15.46H132.066V25H133.431V14.32H130.881ZM141.64 17.89C143.56 17.89 144.82 18.55 144.82 19.93V20.425H137.41L137.8 21.565H146.155V20.29C146.155 17.74 144.565 16.75 141.535 16.75H140.32C137.29 16.75 135.4 18.055 135.4 20.605V21.22C135.4 23.77 137.29 25.075 140.32 25.075H141.22C143.005 25.075 144.82 24.805 146.26 24.37L145.9 23.245C144.565 23.68 142.72 23.935 141.22 23.935H140.275C137.785 23.935 136.735 22.99 136.735 21.22V20.605C136.735 18.835 137.785 17.89 140.275 17.89H141.64Z" fill="#9EA1AB"/>
<path d="M16.6966 22.1034L26.0929 12.7071C26.4835 12.3166 27.1166 12.3166 27.5072 12.7071L29.2929 14.4929C29.6835 14.8834 29.6835 15.5166 29.2929 15.9071L19.8966 25.3034C19.761 25.439 19.5893 25.5328 19.4019 25.5735L16.3601 26.2348C16.0044 26.3121 15.688 25.9956 15.7653 25.64L16.4265 22.5981C16.4673 22.4107 16.561 22.239 16.6966 22.1034Z" stroke="#9EA1AB"/>
<path d="M24.6672 14.1348L27.8672 17.3348" stroke="#9EA1AB"/>
</svg>
