<svg width="1920" height="980" viewBox="0 0 1920 980" fill="none" xmlns="http://www.w3.org/2000/svg">
<g clip-path="url(#clip0_1287_1708)">
<g opacity="0.15">
<path d="M1595.68 498.634C1566.74 500.054 1541.54 466.002 1539.4 422.581C1541.54 466.002 1519.81 502.357 1490.87 503.777C1519.81 502.357 1545 536.409 1547.14 579.83C1545 536.409 1566.74 500.054 1595.68 498.634Z" fill="#E965FF"/>
<path d="M1574.97 791.343C1559.05 782.524 1553.29 762.467 1562.11 746.546L1678.17 536.993C1686.99 521.072 1707.04 515.315 1722.97 524.135L1932.54 640.216C1948.47 649.036 1954.23 669.092 1945.41 685.013L1829.34 894.566C1820.53 910.487 1800.47 916.244 1784.55 907.425L1574.97 791.343Z" fill="#141517" stroke="url(#paint0_linear_1287_1708)" stroke-width="3.12643"/>
<path d="M1692.02 845.943C1635.53 810.179 1596.58 800.143 1568.5 772.525L1710.95 730.897L1721.53 741.48C1722.85 742.794 1724.34 743.919 1725.96 744.822L1743.71 754.685L1692.02 845.943Z" fill="url(#paint1_linear_1287_1708)"/>
<path d="M1817.58 587.14C1881.74 622.672 1907.4 633.939 1936.3 657.017L1782.95 709.687L1763.45 675.921L1817.58 587.14Z" fill="url(#paint2_linear_1287_1708)"/>
<path d="M1705.28 736.551C1700.77 734.057 1699.14 728.385 1701.64 723.882L1732.98 667.303C1735.47 662.8 1741.14 661.172 1745.64 663.666L1802.23 695.008C1806.73 697.503 1808.36 703.175 1805.87 707.677L1774.53 764.257C1772.04 768.759 1766.37 770.387 1761.86 767.893L1705.28 736.551Z" fill="url(#paint3_linear_1287_1708)"/>
<path d="M1329.66 653.19L767.82 847.616L752.627 752.164L1319.64 555.947L1329.66 653.19Z" fill="url(#paint4_linear_1287_1708)" stroke="url(#paint5_linear_1287_1708)" stroke-width="2.57571"/>
<path d="M1183.8 597.736L621.96 792.163L606.768 696.711L1173.78 500.494L1183.8 597.736Z" fill="url(#paint6_linear_1287_1708)" stroke="url(#paint7_linear_1287_1708)" stroke-width="2.57571"/>
<path d="M848.97 786.311L848.03 780.281C844.325 781.615 837.023 784.142 832.093 785.848L821.442 789.534L817.824 766.876C817.343 764.282 817.041 762.355 816.802 760.458L810.523 762.631C810.855 764.495 811.157 766.422 811.591 769.033L814.924 789.81C815.462 793.323 815.812 795.389 816.134 797.674L848.97 786.311Z" fill="white"/>
<path d="M848.677 747.813L849.449 752.755L855.588 750.63L854.769 745.704L848.677 747.813ZM853.246 776.08C853.816 779.685 854.232 782.094 854.507 784.395L860.646 782.27C860.232 780.018 859.862 777.593 859.262 774.05L857.301 761.758C856.717 758.262 856.329 755.635 856.026 753.552L849.933 755.661C850.33 757.711 850.733 760.384 851.302 763.834L853.246 776.08Z" fill="white"/>
<path d="M867.041 771.723C867.644 775.421 867.978 777.441 868.267 779.633L874.407 777.509C873.978 775.365 873.676 773.438 873.088 769.63L872.034 763.119C870.942 756.048 872.515 753.368 879.259 751.034C885.258 748.958 887.106 749.933 887.926 755.015L889.415 764.137C889.97 767.851 890.253 769.42 890.592 771.907L896.685 769.799C896.168 766.8 895.863 764.562 895.366 761.921L894.358 755.393C893.22 748.338 894.933 745.61 901.583 743.308C907.583 741.232 909.477 742.192 910.298 747.273L911.723 756.364C912.342 760.109 912.624 761.679 912.917 764.182L919.056 762.057C918.556 759.105 918.204 756.883 917.77 754.272L917.319 751.615C916.615 747.17 916.308 744.776 915.91 742.57C914.818 735.499 911.452 733.747 902.336 736.901C896.429 738.945 893.411 741.813 892.305 745.842C890.4 742.594 886.801 742.277 880.197 744.563C874.43 746.558 871.41 749.27 870.13 753.099L869.367 748.935L863.693 750.899C864.041 752.81 864.327 754.69 864.879 758.094L867.041 771.723Z" fill="white"/>
<path d="M920.758 722.869L921.53 727.811L927.67 725.686L926.851 720.76L920.758 722.869ZM925.327 751.136C925.897 754.741 926.314 757.15 926.589 759.451L932.728 757.326C932.314 755.073 931.944 752.649 931.343 749.106L929.383 736.814C928.799 733.318 928.411 730.691 928.107 728.608L922.015 730.717C922.411 732.767 922.815 735.44 923.383 738.89L925.327 751.136Z" fill="white"/>
<path d="M939.186 735.818C939.654 738.677 940.076 741.552 940.444 743.821C941.8 752.259 945.266 753.248 956.568 749.337C958.475 748.677 959.885 748.085 961.604 747.334L960.623 741.787C958.857 742.554 957.804 742.971 955.804 743.663C948.874 746.061 947.144 745.878 946.224 740.206L944.43 728.846L957.825 724.211L956.937 718.632L943.542 723.267C943.172 720.842 942.886 718.962 942.684 717.625L936.577 719.843C936.976 722.049 937.274 723.665 937.496 725.359C936.007 725.874 934.333 726.454 932.612 727.049L933.5 732.628L938.43 730.922L939.186 735.818Z" fill="white"/>
<path d="M965.888 737.1C966.458 740.705 966.874 743.114 967.149 745.415L973.288 743.29C972.874 741.037 972.504 738.613 971.903 735.07L968.637 714.635C968.099 711.122 967.649 708.465 967.392 706.366L961.252 708.491C961.619 710.604 962.053 713.215 962.621 716.664L965.888 737.1Z" fill="white"/>
<path d="M997.52 735.53C1011.47 730.701 1013.1 727.118 1011.94 719.86L1005.92 721.734C1006.46 725.091 1005.58 727.063 996.046 730.362C987.069 733.468 984.755 732.498 983.489 726.581L1011.44 716.908C1011.34 716.162 1011.24 715.26 1011.05 714.281C1009.18 703.732 1004.84 701.43 991.304 706.114C977.723 710.813 975.157 715.139 976.916 726.095L977.166 727.571C978.858 738.185 983.707 740.31 997.52 735.53ZM992.634 710.862C1001.42 707.82 1003.38 708.966 1004.46 714.481L982.783 721.981C982.203 716.087 984.076 713.824 992.634 710.862Z" fill="white"/>
<path d="M1034.69 722.667C1048.36 717.935 1049.4 715.651 1048.39 709.435C1047.47 703.607 1044.65 701.771 1031.35 705.175C1021.52 707.637 1020.67 706.837 1020.26 704.585C1019.88 702.581 1021.06 701.182 1029.06 698.413C1037.39 695.532 1038.79 696.139 1039.2 698.812L1039.27 699.465L1045.31 697.217C1044.17 690.318 1041.03 688.906 1027.78 693.493C1015.12 697.871 1013.57 700.597 1014.54 706.72C1015.48 712.594 1018.27 714.182 1030.45 711.008C1040.94 708.367 1041.88 709.135 1042.31 711.59C1042.71 713.796 1041.93 715.004 1033.42 717.949C1024.03 721.2 1022.63 720.64 1022.08 717.237L1021.93 716.507L1016.03 718.706C1017.37 726.942 1020.78 727.48 1034.69 722.667Z" fill="white"/>
<path d="M1070.57 710.25C1084.24 705.518 1085.28 703.234 1084.27 697.018C1083.35 691.19 1080.53 689.354 1067.23 692.758C1057.4 695.22 1056.56 694.42 1056.14 692.168C1055.76 690.164 1056.94 688.765 1064.94 685.996C1073.27 683.115 1074.68 683.722 1075.08 686.395L1075.15 687.048L1081.19 684.8C1080.06 677.901 1076.91 676.489 1063.66 681.076C1051.01 685.453 1049.45 688.18 1050.42 694.303C1051.36 700.177 1054.15 701.765 1066.33 698.591C1076.82 695.95 1077.76 696.718 1078.2 699.173C1078.59 701.379 1077.81 702.586 1069.3 705.532C1059.91 708.783 1058.52 708.223 1057.96 704.82L1057.82 704.09L1051.91 706.289C1053.25 714.525 1056.66 715.063 1070.57 710.25Z" fill="white"/>
<path d="M1107.56 677.552C1108.03 680.411 1108.45 683.286 1108.82 685.555C1110.17 693.994 1113.64 694.982 1124.94 691.071C1126.85 690.411 1128.26 689.819 1129.98 689.068L1129 683.521C1127.23 684.288 1126.18 684.705 1124.18 685.397C1117.25 687.795 1115.52 687.612 1114.6 681.94L1112.8 670.58L1126.2 665.945L1125.31 660.366L1111.91 665.001C1111.54 662.577 1111.26 660.696 1111.06 659.359L1104.95 661.577C1105.35 663.783 1105.65 665.399 1105.87 667.093C1104.38 667.608 1102.71 668.188 1100.98 668.783L1101.87 674.362L1106.8 672.656L1107.56 677.552Z" fill="white"/>
<path d="M1134.2 679.271C1134.8 682.969 1135.14 684.989 1135.43 687.181L1141.57 685.056C1141.14 682.913 1140.84 680.986 1140.25 677.178L1139.26 671.164C1138.01 663.317 1139.63 660.932 1147.26 658.292C1154.75 655.701 1155.86 656.513 1156.68 661.595L1156.8 662.543L1162.63 660.422C1162.44 659.288 1162.33 658.495 1162.22 657.593C1160.93 649.653 1158.43 648.28 1148.34 651.772C1142.2 653.897 1138.77 656.8 1137.31 660.849L1136.53 656.483L1130.85 658.447C1131.2 660.358 1131.49 662.238 1132.04 665.642L1134.2 679.271Z" fill="white"/>
<path d="M1183.67 671.11C1191.12 668.535 1194.76 665.661 1196.18 662.406L1196.83 665.933L1202.32 664.034C1201.65 660.149 1201.25 657.632 1200.8 654.663C1200.06 650.126 1199.84 648.431 1199.22 644.53C1198.15 637.817 1194.57 635.771 1180.57 640.616C1167.78 645.042 1165.66 648.538 1166.81 655.017L1172.67 653.145C1172.14 650.099 1172.93 648.783 1181.86 645.692C1191.02 642.522 1192.64 643.422 1193.37 647.959L1193.91 651.316C1191.56 650.097 1187.5 650.408 1180.57 652.806C1168.53 656.975 1166.48 660.547 1167.5 667.121C1168.59 673.57 1171.54 675.311 1183.67 671.11ZM1184.93 665.414C1175.96 668.52 1174.11 668.012 1173.6 664.857C1173.06 661.656 1173.98 659.933 1183.6 656.602C1192.86 653.399 1194.53 654.174 1194.84 656.256L1195.05 657.484C1195.52 660.343 1194.23 662.195 1184.93 665.414Z" fill="white"/>
<path d="M1226.25 656.377C1239.92 651.645 1241.93 647.512 1240.56 638.716L1234.56 640.636C1235.31 645.221 1233.83 647.713 1224.66 650.883C1215.31 654.119 1213.31 652.834 1212.14 645.685L1212.06 645.297C1210.92 638.086 1212.37 635.657 1221.72 632.422C1230.88 629.251 1232.85 630.599 1233.59 635.136L1233.57 635.09L1239.53 632.874C1238.12 623.829 1233.85 622.18 1220.17 626.912C1206.69 631.58 1204.12 635.906 1205.88 646.862L1206.13 648.338C1207.89 659.294 1212.81 661.028 1226.25 656.377Z" fill="white"/>
<path d="M1247.04 639.807C1247.61 643.412 1248.02 645.82 1248.3 648.121L1254.44 645.997C1254.02 643.744 1253.65 641.32 1253.05 637.777L1252.52 634.265L1259.45 631.866C1261.04 632.72 1262.86 633.603 1264.72 634.469L1274.44 639.076L1282.02 636.453L1282.08 636.327C1277.29 634.077 1268.97 630.031 1263.63 627.398C1267.55 621.562 1273.35 613.043 1276.87 608.021L1276.75 607.96L1268.98 610.648L1262.84 619.545C1261.23 621.82 1259.64 624.142 1258.23 626.244L1251.58 628.546L1249.79 617.342C1249.25 613.829 1248.8 611.172 1248.54 609.073L1242.4 611.198C1242.77 613.311 1243.2 615.922 1243.77 619.371L1247.04 639.807Z" fill="white"/>
<path d="M661.597 737.004C662.101 740.267 662.403 742.194 662.79 744.821L682.325 738.061C698.603 732.428 701.207 727.308 699.113 714.176L698.995 713.383C696.861 700.891 691.458 697.916 675.226 703.533L657.18 709.778C657.578 711.984 657.83 713.616 658.248 716.18L661.597 737.004ZM676.938 709.087C688.752 704.999 691.245 706.637 692.718 715.712L692.786 716.209C694.211 725.301 692.519 728.387 680.659 732.491L668.101 736.837L664.334 713.449L676.938 709.087Z" fill="white"/>
<path d="M702.328 692.539L703.1 697.481L709.239 695.357L708.421 690.431L702.328 692.539ZM706.897 720.806C707.467 724.412 707.884 726.82 708.159 729.121L714.298 726.997C713.883 724.744 713.514 722.32 712.913 718.777L710.953 706.484C710.369 702.988 709.981 700.361 709.677 698.279L703.584 700.387C703.981 702.438 704.385 705.111 704.953 708.561L706.897 720.806Z" fill="white"/>
<path d="M737.228 719.687C750.902 714.955 751.934 712.67 750.93 706.454C750.008 700.627 747.186 698.79 733.886 702.195C724.061 704.657 723.212 703.857 722.797 701.604C722.417 699.6 723.599 698.201 731.599 695.433C739.924 692.552 741.332 693.159 741.736 695.832L741.805 696.485L747.85 694.237C746.714 687.337 743.569 685.925 730.314 690.512C717.663 694.89 716.106 697.617 717.078 703.74C718.016 709.614 720.805 711.201 732.987 708.028C743.478 705.387 744.421 706.154 744.853 708.609C745.252 710.816 744.472 712.023 735.96 714.969C726.565 718.22 725.174 717.659 724.622 714.256L724.473 713.526L718.568 715.726C719.906 723.962 723.321 724.499 737.228 719.687Z" fill="white"/>
<path d="M774.179 706.9C787.853 702.168 789.861 698.035 788.485 689.239L782.484 691.159C783.236 695.744 781.754 698.236 772.592 701.406C763.243 704.642 761.237 703.357 760.066 696.208L759.984 695.82C758.844 688.609 760.295 686.18 769.644 682.945C778.806 679.774 780.782 681.122 781.519 685.659L781.503 685.613L787.454 683.397C786.044 674.352 781.777 672.703 768.103 677.435C754.615 682.103 752.049 686.429 753.807 697.385L754.057 698.861C755.816 709.817 760.738 711.551 774.179 706.9Z" fill="white"/>
<path d="M812.607 693.602C826.467 688.805 828.893 684.528 827.135 673.572L826.885 672.096C825.127 661.14 820.483 659.309 806.67 664.089C792.81 668.885 790.383 673.163 792.142 684.119L792.392 685.595C794.15 696.551 798.793 698.382 812.607 693.602ZM811.066 688.092C801.578 691.376 799.571 690.091 798.401 682.943L798.319 682.554C797.179 675.343 798.63 672.914 808.164 669.614C817.652 666.331 819.736 667.537 820.83 674.764L820.912 675.153C822.082 682.301 820.601 684.793 811.066 688.092Z" fill="white"/>
<path d="M853.966 678.664C856.007 670.561 860.417 653.199 862.508 645.391L855.578 647.789L852.066 662.027C851.039 666.133 850.074 670.27 849.274 673.829L845.971 674.971C844.167 672.314 842 669.209 839.864 666.198L832.462 655.788L826.044 658.01C830.232 663.645 839.784 676.956 843.548 682.269L853.966 678.664Z" fill="white"/>
<path d="M886.645 667.981C900.598 663.152 902.223 659.568 901.067 652.311L895.049 654.185C895.585 657.542 894.705 659.513 885.17 662.813C876.194 665.919 873.879 664.949 872.614 659.032L900.567 649.359C900.465 648.613 900.361 647.711 900.179 646.732C898.301 636.182 893.963 633.881 880.429 638.564C866.848 643.264 864.282 647.59 866.04 658.546L866.29 660.022C867.983 670.636 872.832 672.761 886.645 667.981ZM881.759 643.313C890.549 640.271 892.508 641.417 893.582 646.931L871.908 654.432C871.328 648.538 873.201 646.275 881.759 643.313Z" fill="white"/>
<path d="M907.279 651.88C907.881 655.579 908.215 657.599 908.505 659.791L914.644 657.666C914.215 655.523 913.913 653.596 913.325 649.788L912.339 643.774C911.083 635.926 912.706 633.542 920.333 630.902C927.822 628.311 928.936 629.123 929.756 634.205L929.876 635.153L935.704 633.032C935.52 631.898 935.402 631.105 935.298 630.203C934.01 622.262 931.504 620.89 921.411 624.382C915.272 626.507 911.85 629.41 910.386 633.459L909.605 629.093L903.931 631.057C904.279 632.968 904.565 634.848 905.117 638.251L907.279 651.88Z" fill="white"/>
<path d="M980.494 635.191C982.796 626.789 987.546 609.206 989.776 601.349L983.032 603.683L979.326 617.207C978.413 620.44 977.563 623.704 976.818 626.67L974.306 627.539C972.43 625.428 970.334 623.132 968.317 620.913L959.87 611.699L953.266 613.984C958.354 619.36 967.18 629.068 971.704 634.17L975.053 633.011L974.604 634.573C973.618 638.196 972.788 639.108 969.997 640.074C968.183 640.702 966.586 641.202 964.693 641.753L965.44 647.225C967.365 646.767 969.722 646.055 971.071 645.589C976.699 643.641 978.865 641.172 980.494 635.191Z" fill="white"/>
<path d="M1013.77 623.988C1027.63 619.191 1030.06 614.914 1028.3 603.958L1028.05 602.482C1026.29 591.526 1021.65 589.695 1007.84 594.475C993.976 599.271 991.549 603.549 993.308 614.505L993.558 615.981C995.316 626.937 999.959 628.768 1013.77 623.988ZM1012.23 618.478C1002.74 621.762 1000.74 620.477 999.567 613.328L999.484 612.94C998.344 605.729 999.796 603.3 1009.33 600C1018.82 596.717 1020.9 597.923 1022 605.15L1022.08 605.538C1023.25 612.687 1021.77 615.179 1012.23 618.478Z" fill="white"/>
<path d="M1033.47 597.69C1033.97 600.954 1034.17 602.291 1034.52 604.513C1035.82 612.765 1039.44 615.106 1051.21 611.034C1057.44 608.877 1060.92 605.849 1062.45 601.83L1063.24 606.243L1068.92 604.279C1068.55 602.322 1068.28 600.488 1067.73 597.084L1065.57 583.455C1064.95 579.71 1064.63 577.737 1064.34 575.545L1058.2 577.669C1058.63 579.813 1058.94 581.74 1059.52 585.548L1060.58 592.059C1061.7 599.068 1060.05 601.826 1051.77 604.691C1043.07 607.701 1041.16 606.072 1040.14 599.81L1038.98 592.553C1038.33 588.559 1038.08 587.083 1037.79 584.735L1031.65 586.86C1032.11 589.252 1032.46 591.319 1032.98 594.629L1033.47 597.69Z" fill="white"/>
<path d="M1075.24 593.756C1075.84 597.454 1076.18 599.474 1076.47 601.666L1082.61 599.542C1082.18 597.398 1081.88 595.471 1081.29 591.664L1080.3 585.65C1079.05 577.802 1080.67 575.417 1088.3 572.778C1095.79 570.186 1096.9 570.999 1097.72 576.08L1097.84 577.029L1103.67 574.908C1103.48 573.773 1103.37 572.981 1103.26 572.079C1101.97 564.138 1099.47 562.765 1089.38 566.258C1083.24 568.382 1079.81 571.286 1078.35 575.335L1077.57 570.969L1071.89 572.932C1072.24 574.843 1072.53 576.724 1073.08 580.127L1075.24 593.756Z" fill="white"/>
<path d="M225.288 868.866C244.605 770.931 340.105 707.292 438.617 726.731C537.128 746.169 601.309 841.316 581.993 939.251L579.01 954.371L400.658 919.178L222.305 883.986L225.288 868.866Z" fill="#0D0E11" stroke="url(#paint8_linear_1287_1708)" stroke-width="2.00027"/>
<path d="M248.975 871.333C257.124 830.022 281.344 793.64 316.31 770.191C351.275 746.742 394.12 738.147 435.42 746.296C476.719 754.446 513.091 778.672 536.532 813.646C559.974 848.619 568.566 891.476 560.417 932.787L404.696 902.06L248.975 871.333Z" fill="url(#paint9_linear_1287_1708)"/>
<path d="M518.295 924.48C524.306 894.005 517.968 862.39 500.675 836.59C483.382 810.789 456.55 792.918 426.083 786.906C395.616 780.894 364.009 787.235 338.215 804.533C312.421 821.831 294.553 848.67 288.542 879.146L403.419 901.813L518.295 924.48Z" fill="url(#paint10_linear_1287_1708)"/>
<path d="M460.733 913.789C463.772 898.382 460.568 882.398 451.825 869.355C443.083 856.311 429.518 847.276 414.115 844.237C398.713 841.198 382.733 844.403 369.693 853.149C356.653 861.894 347.62 875.462 344.581 890.869L402.657 902.329L460.733 913.789Z" fill="url(#paint11_linear_1287_1708)"/>
<path d="M576.785 849.805L559.074 856.619L499.297 879.614" stroke="#5200FF" stroke-width="1.33351"/>
<rect width="48.3803" height="15.1208" rx="2.00027" transform="matrix(0.936506 -0.350547 0.350386 0.936645 476.707 879.832)" fill="#5200FF"/>
<path d="M190.727 710.516C134.694 706.814 15.498 725.509 -30.3565 736.961L-17.3199 789.099C181.864 725.206 227.704 775.559 224.534 808.784L289.402 778.873C273.873 720.798 251.442 714.526 190.727 710.516Z" fill="#5200FF"/>
<path fill-rule="evenodd" clip-rule="evenodd" d="M-35.4641 733.896L-31.3733 732.874C-8.2358 727.096 33.197 719.534 75.8184 713.88C118.373 708.235 162.541 704.432 191.009 706.313C221.174 708.305 243.049 710.867 259.224 720.834C275.744 731.014 285.619 748.396 293.477 777.787L294.395 781.219L219.646 815.686L220.342 808.387C221.031 801.165 219.08 792.909 212.853 785.402C206.606 777.873 195.836 770.843 178.497 766.622C143.678 758.146 83.3298 761.246 -16.0287 793.118L-20.3129 794.492L-35.4641 733.896ZM-25.2341 740.059L-14.3162 783.724C83.0068 752.964 143.921 749.527 180.491 758.43C199.114 762.964 211.658 770.759 219.34 780.018C225.175 787.052 228.076 794.784 228.748 802.204L284.394 776.545C276.919 750.093 268.002 736.147 254.803 728.013C240.701 719.324 221.003 716.744 190.453 714.726C162.888 712.905 119.441 716.599 76.9266 722.239C36.9187 727.546 -1.88474 734.524 -25.2341 740.059Z" fill="url(#paint12_linear_1287_1708)"/>
<path d="M267.754 657.17L-16.6979 788.331L-30.6489 736.859L256.422 604.489L267.754 657.17Z" fill="#5200FF"/>
<path fill-rule="evenodd" clip-rule="evenodd" d="M-35.6459 734.521L259.439 598.456L272.588 659.583L-19.4581 794.246L-35.6459 734.521ZM-25.6456 739.194L-13.9315 782.414L262.926 654.754L253.411 610.52L-25.6456 739.194Z" fill="url(#paint13_linear_1287_1708)"/>
<path d="M401.144 654.136C386.748 649.713 380.454 628.616 387.086 607.016C380.454 628.616 363.406 642.541 349.01 638.119C363.406 642.541 369.7 663.639 363.067 685.238C369.7 663.639 386.748 649.713 401.144 654.136Z" fill="#43FF8E"/>
<path d="M142.628 493.631C118.475 502.185 88.4927 479.739 75.6654 443.499C88.4927 479.739 79.3102 516.055 55.1568 524.609C79.3102 516.055 109.292 538.502 122.12 574.741C109.292 538.502 118.475 502.185 142.628 493.631Z" fill="#5200FF"/>
<circle cx="96.6736" cy="96.6736" r="96.6736" transform="matrix(0.937695 -0.34749 0.347317 0.937737 1262.95 609.957)" fill="#0D0E11"/>
<path d="M1347.36 756.632C1314.28 741.438 1303.65 716.799 1297.6 702.495L1361.95 678.272L1362.96 680.537C1365.26 685.738 1369.38 689.917 1374.55 692.292L1376.95 693.394L1347.36 756.632Z" fill="url(#paint14_linear_1287_1708)"/>
<path d="M1428.54 579.891C1461.62 595.084 1472.25 619.723 1478.3 634.027L1409.89 660.23L1398.98 644.242L1428.54 579.891Z" fill="url(#paint15_linear_1287_1708)"/>
<circle cx="101.229" cy="101.229" r="99.405" transform="matrix(0.937695 -0.34749 0.347317 0.937737 1257.05 607.746)" stroke="url(#paint16_linear_1287_1708)" stroke-width="3.64771"/>
<circle cx="27.9252" cy="27.9252" r="27.9252" transform="matrix(0.937695 -0.34749 0.347317 0.937737 1351.89 651.312)" fill="url(#paint17_linear_1287_1708)"/>
</g>
</g>
<defs>
<linearGradient id="paint0_linear_1287_1708" x1="1697.47" y1="519.784" x2="1809.99" y2="911.79" gradientUnits="userSpaceOnUse">
<stop offset="0.104167" stop-color="#E965FF"/>
<stop offset="0.489583" stop-color="#5200FF"/>
<stop offset="0.890625" stop-color="#43FF8E"/>
</linearGradient>
<linearGradient id="paint1_linear_1287_1708" x1="1694.61" y1="841.263" x2="1638.67" y2="739.078" gradientUnits="userSpaceOnUse">
<stop stop-color="#1E2025"/>
<stop offset="1" stop-color="#1E2025" stop-opacity="0"/>
</linearGradient>
<linearGradient id="paint2_linear_1287_1708" x1="1807.74" y1="595.961" x2="1863.67" y2="698.146" gradientUnits="userSpaceOnUse">
<stop stop-color="#2E3138"/>
<stop offset="1" stop-color="#1E2025" stop-opacity="0"/>
</linearGradient>
<linearGradient id="paint3_linear_1287_1708" x1="1738.56" y1="662.861" x2="1768.94" y2="768.702" gradientUnits="userSpaceOnUse">
<stop offset="0.31669" stop-color="#E965FF"/>
<stop offset="1" stop-color="#E965FF" stop-opacity="0"/>
</linearGradient>
<linearGradient id="paint4_linear_1287_1708" x1="1028.18" y1="656.81" x2="1349.93" y2="595.854" gradientUnits="userSpaceOnUse">
<stop offset="0.64073" stop-color="#5200FF"/>
<stop offset="1" stop-color="#43FF8E"/>
</linearGradient>
<linearGradient id="paint5_linear_1287_1708" x1="1312.78" y1="608.889" x2="482.389" y2="900.616" gradientUnits="userSpaceOnUse">
<stop stop-color="#43FF8E"/>
<stop offset="0.526042" stop-color="#5200FF"/>
</linearGradient>
<linearGradient id="paint6_linear_1287_1708" x1="539.933" y1="695.53" x2="1225.01" y2="533.209" gradientUnits="userSpaceOnUse">
<stop stop-color="#E965FF"/>
<stop offset="0.223958" stop-color="#5200FF"/>
</linearGradient>
<linearGradient id="paint7_linear_1287_1708" x1="1252.19" y1="523.928" x2="643.286" y2="737.844" gradientUnits="userSpaceOnUse">
<stop offset="0.520833" stop-color="#5200FF"/>
<stop offset="1" stop-color="#E965FF"/>
</linearGradient>
<linearGradient id="paint8_linear_1287_1708" x1="315.607" y1="738.579" x2="574.014" y2="985.136" gradientUnits="userSpaceOnUse">
<stop stop-color="#43FF8E"/>
<stop offset="0.364583" stop-color="#E965FF"/>
<stop offset="0.692708" stop-color="#5703FF"/>
</linearGradient>
<linearGradient id="paint9_linear_1287_1708" x1="253.989" y1="845.913" x2="565.436" y2="907.344" gradientUnits="userSpaceOnUse">
<stop stop-color="#0D0E11"/>
<stop offset="1" stop-color="#292B32"/>
</linearGradient>
<linearGradient id="paint10_linear_1287_1708" x1="521.994" y1="905.728" x2="292.238" y2="860.411" gradientUnits="userSpaceOnUse">
<stop stop-color="#0D0E11"/>
<stop offset="0.609375" stop-color="#292B32"/>
</linearGradient>
<linearGradient id="paint11_linear_1287_1708" x1="414.115" y1="844.237" x2="391.19" y2="960.419" gradientUnits="userSpaceOnUse">
<stop offset="0.078125" stop-color="#5200FF"/>
<stop offset="0.463542" stop-color="#0D0E11"/>
</linearGradient>
<linearGradient id="paint12_linear_1287_1708" x1="116.042" y1="737.14" x2="257.478" y2="793.822" gradientUnits="userSpaceOnUse">
<stop stop-color="#5200FF"/>
<stop offset="0.885209" stop-color="#E965FF"/>
</linearGradient>
<linearGradient id="paint13_linear_1287_1708" x1="248.159" y1="621.004" x2="-9.55211" y2="756.135" gradientUnits="userSpaceOnUse">
<stop stop-color="#43FF8E"/>
<stop offset="1" stop-color="#5200FF"/>
</linearGradient>
<linearGradient id="paint14_linear_1287_1708" x1="1357.97" y1="733.519" x2="1326.47" y2="685.03" gradientUnits="userSpaceOnUse">
<stop stop-color="#1E2025"/>
<stop offset="1" stop-color="#1E2025" stop-opacity="0"/>
</linearGradient>
<linearGradient id="paint15_linear_1287_1708" x1="1417.92" y1="603.003" x2="1449.43" y2="651.492" gradientUnits="userSpaceOnUse">
<stop stop-color="#2E3138"/>
<stop offset="1" stop-color="#1E2025" stop-opacity="0"/>
</linearGradient>
<linearGradient id="paint16_linear_1287_1708" x1="101.229" y1="0" x2="101.229" y2="202.458" gradientUnits="userSpaceOnUse">
<stop stop-color="#43FF8E"/>
<stop offset="0.489583" stop-color="#5200FF"/>
<stop offset="1" stop-color="#E965FF"/>
</linearGradient>
<linearGradient id="paint17_linear_1287_1708" x1="27.9252" y1="0" x2="27.9252" y2="55.8504" gradientUnits="userSpaceOnUse">
<stop stop-color="#43FF8E"/>
<stop offset="1" stop-color="#43FF8E" stop-opacity="0"/>
</linearGradient>
<clipPath id="clip0_1287_1708">
<rect width="1920" height="715" fill="white" transform="translate(0 263)"/>
</clipPath>
</defs>
</svg>
