<svg width="57" height="16" viewBox="0 0 57 16" fill="none" xmlns="http://www.w3.org/2000/svg">
<path d="M0.980938 11.7795C0.980938 13.3195 0.980938 14.0195 0.960938 14.9995H3.08094C3.06094 13.9395 3.06094 13.5395 3.06094 11.7595V9.55953H10.5809L12.4609 12.2195C13.1009 13.1195 13.7009 14.0595 14.2809 14.9995H16.7209C15.8609 13.7795 15.1009 12.6595 14.4209 11.6195C13.8809 10.7995 13.3409 10.0395 12.8609 9.35953C15.6809 8.87953 16.5409 7.51953 16.5409 5.01953V4.93953C16.5409 1.87953 15.3209 0.799531 10.6209 0.799531H0.960938C0.980938 1.73953 0.980938 2.33953 0.980938 3.39953V11.7795ZM10.6209 2.65953C13.6409 2.65953 14.3809 3.25953 14.3809 5.01953V5.05953C14.3809 6.89953 13.6409 7.69953 10.6209 7.69953H3.06094V2.65953H10.6209Z" fill="#E965FF"/>
<path d="M26.8375 15.2795C30.8175 15.2795 32.5775 14.8795 33.6375 14.2195L34.9975 14.9995H38.1975L38.2175 14.9595C37.3175 14.4395 36.2175 13.7795 35.0175 13.0995C35.3775 12.4395 35.4975 11.6195 35.4975 10.6395C35.4975 9.87953 35.4575 9.43953 35.4375 9.13953L33.5775 9.19953C33.5775 9.47953 33.6175 9.87953 33.6175 10.5795C33.6175 11.1995 33.5375 11.6995 33.3175 12.1195C30.9575 10.7395 28.4775 9.29953 26.7975 8.31953L26.9575 8.29953C32.2775 7.69953 33.5775 6.73953 33.5775 4.25953V4.15953C33.5775 1.59953 32.4175 0.519531 26.8175 0.519531C21.2175 0.519531 19.9575 1.63953 19.9575 4.31953V4.39953C19.9575 5.65953 20.4175 6.31953 22.0375 7.39953C19.4575 7.99953 18.5175 9.13953 18.5175 11.1595V11.2395C18.5175 14.1395 19.8375 15.2795 26.8375 15.2795ZM22.0175 4.19953V4.11953C22.0175 2.93953 22.5175 2.35953 26.8175 2.35953C31.1175 2.35953 31.5775 2.95953 31.5775 4.21953V4.31953C31.5775 5.73953 30.6975 6.23953 26.6175 6.67953L24.5375 6.89953C22.4375 5.59953 22.0175 5.05953 22.0175 4.19953ZM20.5775 11.2195V11.1795C20.5775 9.67953 21.1175 9.09953 23.9775 8.65953L31.6575 13.0795C30.6575 13.3195 29.1175 13.4395 26.8375 13.4395C21.3775 13.4395 20.5775 12.7795 20.5775 11.2195Z" fill="#E965FF"/>
<path d="M40.1606 11.7795C40.1606 13.3195 40.1606 14.0195 40.1406 14.9995H50.2006C54.9006 14.9995 56.1206 13.9795 56.1206 11.2795V11.1995C56.1206 9.41953 55.4606 8.33953 53.1806 7.79953C55.3006 7.21953 55.8806 6.13953 55.8806 4.51953V4.43953C55.8806 1.99953 54.7206 0.799531 50.0806 0.799531H40.1406C40.1606 1.73953 40.1606 2.33953 40.1606 3.39953V11.7795ZM50.1006 2.67953C52.9806 2.67953 53.7206 3.23953 53.7206 4.71953V4.79953C53.7206 6.25953 52.9206 6.87953 50.0206 6.87953H42.2406V2.67953H50.1006ZM50.2006 8.75953C53.0606 8.75953 53.9606 9.29953 53.9606 10.9195V10.9595C53.9606 12.6395 53.2206 13.1195 50.2006 13.1195H42.2406V8.75953H50.2006Z" fill="#E965FF"/>
</svg>
