<svg width="57" height="16" viewBox="0 0 57 16" fill="none" xmlns="http://www.w3.org/2000/svg">
<path d="M0.979961 11.7795C0.979961 13.3195 0.979961 14.0195 0.959961 14.9995H3.07996C3.05996 13.9395 3.05996 13.5395 3.05996 11.7595V9.55953H10.58L12.46 12.2195C13.1 13.1195 13.7 14.0595 14.28 14.9995H16.72C15.86 13.7795 15.1 12.6595 14.42 11.6195C13.88 10.7995 13.34 10.0395 12.86 9.35953C15.68 8.87953 16.54 7.51953 16.54 5.01953V4.93953C16.54 1.87953 15.32 0.799531 10.62 0.799531H0.959961C0.979961 1.73953 0.979961 2.33953 0.979961 3.39953V11.7795ZM10.62 2.65953C13.64 2.65953 14.38 3.25953 14.38 5.01953V5.05953C14.38 6.89953 13.64 7.69953 10.62 7.69953H3.05996V2.65953H10.62Z" fill="#43FF8E"/>
<path d="M26.8365 15.2795C30.8165 15.2795 32.5765 14.8795 33.6365 14.2195L34.9965 14.9995H38.1965L38.2165 14.9595C37.3165 14.4395 36.2165 13.7795 35.0165 13.0995C35.3765 12.4395 35.4965 11.6195 35.4965 10.6395C35.4965 9.87953 35.4565 9.43953 35.4365 9.13953L33.5765 9.19953C33.5765 9.47953 33.6165 9.87953 33.6165 10.5795C33.6165 11.1995 33.5365 11.6995 33.3165 12.1195C30.9565 10.7395 28.4765 9.29953 26.7965 8.31953L26.9565 8.29953C32.2765 7.69953 33.5765 6.73953 33.5765 4.25953V4.15953C33.5765 1.59953 32.4165 0.519531 26.8165 0.519531C21.2165 0.519531 19.9565 1.63953 19.9565 4.31953V4.39953C19.9565 5.65953 20.4165 6.31953 22.0365 7.39953C19.4565 7.99953 18.5165 9.13953 18.5165 11.1595V11.2395C18.5165 14.1395 19.8365 15.2795 26.8365 15.2795ZM22.0165 4.19953V4.11953C22.0165 2.93953 22.5165 2.35953 26.8165 2.35953C31.1165 2.35953 31.5765 2.95953 31.5765 4.21953V4.31953C31.5765 5.73953 30.6965 6.23953 26.6165 6.67953L24.5365 6.89953C22.4365 5.59953 22.0165 5.05953 22.0165 4.19953ZM20.5765 11.2195V11.1795C20.5765 9.67953 21.1165 9.09953 23.9765 8.65953L31.6565 13.0795C30.6565 13.3195 29.1165 13.4395 26.8365 13.4395C21.3765 13.4395 20.5765 12.7795 20.5765 11.2195Z" fill="#43FF8E"/>
<path d="M40.1596 11.7795C40.1596 13.3195 40.1596 14.0195 40.1396 14.9995H50.1996C54.8997 14.9995 56.1196 13.9795 56.1196 11.2795V11.1995C56.1196 9.41953 55.4596 8.33953 53.1796 7.79953C55.2996 7.21953 55.8797 6.13953 55.8797 4.51953V4.43953C55.8797 1.99953 54.7197 0.799531 50.0797 0.799531H40.1396C40.1596 1.73953 40.1596 2.33953 40.1596 3.39953V11.7795ZM50.0997 2.67953C52.9797 2.67953 53.7197 3.23953 53.7197 4.71953V4.79953C53.7197 6.25953 52.9197 6.87953 50.0196 6.87953H42.2397V2.67953H50.0997ZM50.1996 8.75953C53.0597 8.75953 53.9596 9.29953 53.9596 10.9195V10.9595C53.9596 12.6395 53.2197 13.1195 50.1996 13.1195H42.2397V8.75953H50.1996Z" fill="#43FF8E"/>
</svg>
