<svg width="559" height="68" viewBox="0 0 559 68" fill="none" xmlns="http://www.w3.org/2000/svg">
<rect y="0.208984" width="559" height="67" rx="33.5" fill="#E965FF"/>
<path d="M71.1484 38.5059C70.8494 40.2309 70.7114 41.1049 70.4814 42.2089H73.5864C73.7704 41.0359 73.8854 40.4149 74.2304 38.4829L74.5984 36.4589H82.9934L84.4194 39.1039C84.9714 40.1389 85.4544 41.1969 85.9144 42.2089H89.3184C88.6054 40.8519 87.9614 39.5869 87.3864 38.3909C86.9724 37.5629 86.5584 36.7579 86.1444 36.0219C89.3184 35.4469 90.5604 34.0899 91.0664 31.1689C91.7334 27.6039 90.0084 25.8789 84.5114 25.8789H73.3564C73.1954 26.8909 73.0804 27.6269 72.8504 28.8229L71.1484 38.5059ZM84.3274 28.5469C87.5474 28.5469 88.2604 29.2139 87.9154 31.0539C87.5704 32.9629 86.6044 33.8139 83.4074 33.8139H75.0584L75.9784 28.5469H84.3274Z" fill="#0D0E11"/>
<path d="M100.069 42.4849C106.969 42.4849 108.234 41.1509 108.832 37.7699L105.888 37.6779C105.612 39.2419 104.922 39.9779 100.207 39.9779C95.7678 39.9779 94.8938 39.1959 95.2388 36.3899H109.062C109.131 36.0449 109.223 35.6309 109.292 35.1709C110.074 30.2259 108.51 28.5469 101.817 28.5469C95.1008 28.5469 93.3068 30.0649 92.4098 35.1709L92.2948 35.8609C91.4208 40.8059 93.2378 42.4849 100.069 42.4849ZM101.679 30.8469C106.026 30.8469 106.716 31.6519 106.348 34.2509H95.6298C96.2738 31.5599 97.4468 30.8469 101.679 30.8469Z" fill="#0D0E11"/>
<path d="M118.219 42.4849C121.347 42.4849 123.348 41.7949 124.636 40.4149C124.245 42.6919 123.923 44.4859 123.739 45.4289H126.775C126.867 44.7389 127.074 43.5889 127.327 42.2089L129.167 31.7439C129.351 30.6399 129.512 29.7889 129.719 28.8229H126.821L126.43 30.9389C125.602 29.3519 123.67 28.5469 120.243 28.5469C114.056 28.5469 112.331 30.0189 111.434 35.1709L111.319 35.8609C110.422 40.9669 112.124 42.4849 118.219 42.4849ZM119.231 39.7709C114.562 39.7709 113.803 38.9199 114.378 35.6079L114.401 35.4239C114.999 32.0889 116.08 31.2609 120.841 31.2609C125.349 31.2609 126.131 32.1809 125.556 35.4239L125.51 35.6079C124.958 38.8279 123.831 39.7709 119.231 39.7709Z" fill="#0D0E11"/>
<path d="M132.503 33.8829C132.227 35.4009 132.112 36.0219 131.928 37.0569C131.238 40.8979 132.48 42.4849 138.299 42.4849C141.381 42.4849 143.382 41.6799 144.67 40.1389L144.348 42.2089H147.154C147.292 41.2889 147.453 40.4379 147.729 38.8509L148.856 32.5029C149.155 30.7549 149.316 29.8349 149.523 28.8229H146.487C146.349 29.8349 146.188 30.7319 145.866 32.5029L145.337 35.5389C144.762 38.8049 143.612 39.7709 139.518 39.7709C135.217 39.7709 134.619 38.7589 135.125 35.8379L135.723 32.4569C136.045 30.5939 136.16 29.9039 136.39 28.8229H133.354C133.193 29.9499 133.032 30.9159 132.756 32.4569L132.503 33.8829Z" fill="#0D0E11"/>
<path d="M159.006 42.4849C165.906 42.4849 167.171 41.1509 167.769 37.7699L164.825 37.6779C164.549 39.2419 163.859 39.9779 159.144 39.9779C154.705 39.9779 153.831 39.1959 154.176 36.3899H167.999C168.068 36.0449 168.16 35.6309 168.229 35.1709C169.011 30.2259 167.447 28.5469 160.754 28.5469C154.038 28.5469 152.244 30.0649 151.347 35.1709L151.232 35.8609C150.358 40.8059 152.175 42.4849 159.006 42.4849ZM160.616 30.8469C164.963 30.8469 165.653 31.6519 165.285 34.2509H154.567C155.211 31.5599 156.384 30.8469 160.616 30.8469Z" fill="#0D0E11"/>
<path d="M177.387 42.4849C184.149 42.4849 184.954 41.6339 185.46 38.7359C185.943 36.0219 184.977 34.7799 178.583 34.2509C173.868 33.8369 173.615 33.3539 173.776 32.2959C173.914 31.3529 174.65 30.9159 178.606 30.9159C182.723 30.9159 183.252 31.3989 183.022 32.6409L182.953 32.9399L185.966 32.8709C186.518 29.6509 185.345 28.5469 178.79 28.5469C172.534 28.5469 171.43 29.5129 170.924 32.3649C170.441 35.1019 171.43 36.2289 177.295 36.6889C182.332 37.1259 182.631 37.6089 182.447 38.7589C182.286 39.7939 181.757 40.2079 177.548 40.2079C172.902 40.2079 172.373 39.7479 172.649 38.1609L172.695 37.8159L169.751 37.8849C169.084 41.7259 170.51 42.4849 177.387 42.4849Z" fill="#0D0E11"/>
<path d="M190.025 33.6989C189.795 35.0329 189.542 36.3669 189.358 37.4249C188.668 41.3579 190.048 42.3239 195.637 42.3239C196.58 42.3239 197.293 42.2779 198.167 42.2089L198.581 39.6099C197.684 39.6789 197.155 39.7019 196.166 39.7019C192.739 39.7019 192.003 39.3569 192.463 36.7119L193.406 31.4219H200.03L200.49 28.8229H193.866C194.073 27.6959 194.234 26.8219 194.349 26.2009L191.313 26.2469C191.152 27.2819 191.037 28.0409 190.876 28.8229C190.14 28.8229 189.312 28.8229 188.461 28.8229L188.001 31.4219H190.439L190.025 33.6989Z" fill="#0D0E11"/>
<path d="M216.225 42.4849C219.905 42.4849 221.952 41.7719 223.079 40.5529L222.826 42.2089H225.54C225.839 40.3919 226.046 39.2189 226.299 37.8389C226.667 35.7229 226.828 34.9409 227.15 33.1239C227.702 29.9959 226.437 28.5469 219.514 28.5469C213.189 28.5469 211.717 29.7659 211.234 32.8019L214.109 32.8709C214.339 31.4449 214.891 30.9849 219.307 30.9849C223.838 30.9849 224.413 31.6289 224.045 33.7449L223.769 35.3089C222.918 34.4119 221.078 33.9289 217.651 33.9289C211.694 33.9289 210.245 35.1939 209.693 38.2529C209.187 41.2659 210.222 42.4849 216.225 42.4849ZM217.651 40.1619C213.212 40.1619 212.476 39.6559 212.729 38.1839C212.982 36.6889 213.649 36.0679 218.41 36.0679C222.987 36.0679 223.608 36.6659 223.424 37.6319L223.332 38.2069C223.102 39.5409 222.251 40.1619 217.651 40.1619Z" fill="#0D0E11"/>
<path d="M237.991 42.2089C237.738 43.5889 237.531 44.7389 237.393 45.4289H240.452C240.59 44.4629 240.912 42.5999 241.349 40.2309C242.2 41.7259 244.109 42.4849 247.421 42.4849C253.631 42.4849 255.333 41.0129 256.253 35.8609L256.368 35.1709C257.242 30.0649 255.563 28.5469 249.468 28.5469C246.179 28.5469 244.155 29.3059 242.867 30.8009L243.212 28.8229H240.337C240.176 29.7889 240.015 30.6399 239.831 31.7439L237.991 42.2089ZM242.131 35.6079L242.177 35.4239C242.729 32.2039 243.833 31.2609 248.456 31.2609C253.102 31.2609 253.884 32.0889 253.309 35.4239L253.263 35.6079C252.665 38.9199 251.607 39.7709 246.846 39.7709C242.338 39.7709 241.556 38.8509 242.131 35.6079Z" fill="#0D0E11"/>
<path d="M264.741 42.4849C268.421 42.4849 270.468 41.7719 271.595 40.5529L271.342 42.2089H274.056C274.355 40.3919 274.562 39.2189 274.815 37.8389C275.183 35.7229 275.344 34.9409 275.666 33.1239C276.218 29.9959 274.953 28.5469 268.03 28.5469C261.705 28.5469 260.233 29.7659 259.75 32.8019L262.625 32.8709C262.855 31.4449 263.407 30.9849 267.823 30.9849C272.354 30.9849 272.929 31.6289 272.561 33.7449L272.285 35.3089C271.434 34.4119 269.594 33.9289 266.167 33.9289C260.21 33.9289 258.761 35.1939 258.209 38.2529C257.703 41.2659 258.738 42.4849 264.741 42.4849ZM266.167 40.1619C261.728 40.1619 260.992 39.6559 261.245 38.1839C261.498 36.6889 262.165 36.0679 266.926 36.0679C271.503 36.0679 272.124 36.6659 271.94 37.6319L271.848 38.2069C271.618 39.5409 270.767 40.1619 266.167 40.1619Z" fill="#0D0E11"/>
<path d="M285.267 42.4849C292.029 42.4849 292.834 41.6339 293.34 38.7359C293.823 36.0219 292.857 34.7799 286.463 34.2509C281.748 33.8369 281.495 33.3539 281.656 32.2959C281.794 31.3529 282.53 30.9159 286.486 30.9159C290.603 30.9159 291.132 31.3989 290.902 32.6409L290.833 32.9399L293.846 32.8709C294.398 29.6509 293.225 28.5469 286.67 28.5469C280.414 28.5469 279.31 29.5129 278.804 32.3649C278.321 35.1019 279.31 36.2289 285.175 36.6889C290.212 37.1259 290.511 37.6089 290.327 38.7589C290.166 39.7939 289.637 40.2079 285.428 40.2079C280.782 40.2079 280.253 39.7479 280.529 38.1609L280.575 37.8159L277.631 37.8849C276.964 41.7259 278.39 42.4849 285.267 42.4849Z" fill="#0D0E11"/>
<path d="M303.011 42.4849C309.773 42.4849 310.578 41.6339 311.084 38.7359C311.567 36.0219 310.601 34.7799 304.207 34.2509C299.492 33.8369 299.239 33.3539 299.4 32.2959C299.538 31.3529 300.274 30.9159 304.23 30.9159C308.347 30.9159 308.876 31.3989 308.646 32.6409L308.577 32.9399L311.59 32.8709C312.142 29.6509 310.969 28.5469 304.414 28.5469C298.158 28.5469 297.054 29.5129 296.548 32.3649C296.065 35.1019 297.054 36.2289 302.919 36.6889C307.956 37.1259 308.255 37.6089 308.071 38.7589C307.91 39.7939 307.381 40.2079 303.172 40.2079C298.526 40.2079 297.997 39.7479 298.273 38.1609L298.319 37.8159L295.375 37.8849C294.708 41.7259 296.134 42.4849 303.011 42.4849Z" fill="#0D0E11"/>
<path d="M324.278 36.0679C325.037 34.6649 325.819 33.2389 326.555 31.9279H327.268C327.475 33.2619 327.705 34.7339 327.912 36.1139L328.878 42.2089H333.547C335.341 38.9429 339.251 31.9509 341.137 28.8229H337.802L334.72 34.5959C333.869 36.2059 333.018 37.8619 332.236 39.3569H331.27C331.063 37.9769 330.81 36.4129 330.58 34.8949L329.568 28.8229H325.221L322.001 34.8489C321.196 36.3669 320.345 37.9309 319.586 39.3569H318.597C318.39 37.9079 318.16 36.2749 317.907 34.7109L317.01 28.8229H313.767C314.411 31.9049 315.676 38.9429 316.205 42.2089H320.874L324.278 36.0679Z" fill="#0D0E11"/>
<path d="M348.485 42.4849C355.339 42.4849 357.064 40.9669 357.961 35.8609L358.076 35.1709C358.973 30.0649 357.202 28.5469 350.371 28.5469C343.517 28.5469 341.792 30.0649 340.895 35.1709L340.78 35.8609C339.883 40.9669 341.654 42.4849 348.485 42.4849ZM348.646 39.8169C343.954 39.8169 343.264 38.9429 343.839 35.6079L343.862 35.4239C344.46 32.0659 345.472 31.2149 350.187 31.2149C354.879 31.2149 355.615 32.0659 354.994 35.4239L354.971 35.6079C354.396 38.9429 353.361 39.8169 348.646 39.8169Z" fill="#0D0E11"/>
<path d="M360.441 38.5289C360.142 40.2539 359.981 41.1969 359.774 42.2089H362.81C362.948 41.1969 363.109 40.2999 363.431 38.5289L363.914 35.7229C364.558 32.0659 365.639 31.2609 369.411 31.2609C373.114 31.2609 373.482 31.7899 373.068 34.1589L372.976 34.5959L375.874 34.5499C375.966 34.0209 376.035 33.6529 376.127 33.2389C376.771 29.5359 375.874 28.5469 370.883 28.5469C367.847 28.5469 365.892 29.3059 364.627 30.8699L364.949 28.8229H362.143C362.005 29.7199 361.844 30.5939 361.568 32.1809L360.441 38.5289Z" fill="#0D0E11"/>
<path d="M384.449 42.4849C387.761 42.4849 389.785 41.7029 391.073 40.1849L390.751 42.2089H393.58C393.764 41.0819 393.902 40.2999 394.201 38.5289L395.903 28.8229C396.202 27.1669 396.409 25.9709 396.616 25.0049H393.534C393.396 25.9709 392.982 28.4319 392.568 30.7779C391.694 29.3059 389.785 28.5469 386.473 28.5469C380.286 28.5469 378.561 30.0189 377.664 35.1709L377.549 35.8609C376.652 40.9669 378.354 42.4849 384.449 42.4849ZM385.461 39.7709C380.792 39.7709 380.033 38.9199 380.608 35.6079L380.631 35.4239C381.229 32.0889 382.31 31.2609 387.071 31.2609C391.579 31.2609 392.361 32.1809 391.786 35.4239L391.74 35.6079C391.165 38.8279 390.061 39.7709 385.461 39.7709Z" fill="#0D0E11"/>
<path d="M406.666 38.5289C406.367 40.2539 406.206 41.1969 405.999 42.2089H409.035C409.173 41.1969 409.334 40.2999 409.656 38.5289L410.139 35.7229C410.783 32.0659 411.864 31.2609 415.636 31.2609C419.339 31.2609 419.707 31.7899 419.293 34.1589L419.201 34.5959L422.099 34.5499C422.191 34.0209 422.26 33.6529 422.352 33.2389C422.996 29.5359 422.099 28.5469 417.108 28.5469C414.072 28.5469 412.117 29.3059 410.852 30.8699L411.174 28.8229H408.368C408.23 29.7199 408.069 30.5939 407.793 32.1809L406.666 38.5289Z" fill="#0D0E11"/>
<path d="M431.547 42.4849C438.447 42.4849 439.712 41.1509 440.31 37.7699L437.366 37.6779C437.09 39.2419 436.4 39.9779 431.685 39.9779C427.246 39.9779 426.372 39.1959 426.717 36.3899H440.54C440.609 36.0449 440.701 35.6309 440.77 35.1709C441.552 30.2259 439.988 28.5469 433.295 28.5469C426.579 28.5469 424.785 30.0649 423.888 35.1709L423.773 35.8609C422.899 40.8059 424.716 42.4849 431.547 42.4849ZM433.157 30.8469C437.504 30.8469 438.194 31.6519 437.826 34.2509H427.108C427.752 31.5599 428.925 30.8469 433.157 30.8469Z" fill="#0D0E11"/>
<path d="M449.928 42.4849C456.69 42.4849 457.495 41.6339 458.001 38.7359C458.484 36.0219 457.518 34.7799 451.124 34.2509C446.409 33.8369 446.156 33.3539 446.317 32.2959C446.455 31.3529 447.191 30.9159 451.147 30.9159C455.264 30.9159 455.793 31.3989 455.563 32.6409L455.494 32.9399L458.507 32.8709C459.059 29.6509 457.886 28.5469 451.331 28.5469C445.075 28.5469 443.971 29.5129 443.465 32.3649C442.982 35.1019 443.971 36.2289 449.836 36.6889C454.873 37.1259 455.172 37.6089 454.988 38.7589C454.827 39.7939 454.298 40.2079 450.089 40.2079C445.443 40.2079 444.914 39.7479 445.19 38.1609L445.236 37.8159L442.292 37.8849C441.625 41.7259 443.051 42.4849 449.928 42.4849Z" fill="#0D0E11"/>
<path d="M468.316 42.4849C475.216 42.4849 476.481 41.1509 477.079 37.7699L474.135 37.6779C473.859 39.2419 473.169 39.9779 468.454 39.9779C464.015 39.9779 463.141 39.1959 463.486 36.3899H477.309C477.378 36.0449 477.47 35.6309 477.539 35.1709C478.321 30.2259 476.757 28.5469 470.064 28.5469C463.348 28.5469 461.554 30.0649 460.657 35.1709L460.542 35.8609C459.668 40.8059 461.485 42.4849 468.316 42.4849ZM469.926 30.8469C474.273 30.8469 474.963 31.6519 474.595 34.2509H463.877C464.521 31.5599 465.694 30.8469 469.926 30.8469Z" fill="#0D0E11"/>
<path d="M481.59 33.6989C481.36 35.0329 481.107 36.3669 480.923 37.4249C480.233 41.3579 481.613 42.3239 487.202 42.3239C488.145 42.3239 488.858 42.2779 489.732 42.2089L490.146 39.6099C489.249 39.6789 488.72 39.7019 487.731 39.7019C484.304 39.7019 483.568 39.3569 484.028 36.7119L484.971 31.4219H491.595L492.055 28.8229H485.431C485.638 27.6959 485.799 26.8219 485.914 26.2009L482.878 26.2469C482.717 27.2819 482.602 28.0409 482.441 28.8229C481.705 28.8229 480.877 28.8229 480.026 28.8229L479.566 31.4219H482.004L481.59 33.6989Z" fill="#0D0E11"/>
</svg>
