<svg width="559" height="68" viewBox="0 0 559 68" fill="none" xmlns="http://www.w3.org/2000/svg">
<rect y="0.208984" width="559" height="67" rx="33.5" fill="#43FF8E"/>
<path d="M71.1484 38.5049C70.8494 40.2299 70.7114 41.1039 70.4814 42.2079H73.5864C73.7704 41.0349 73.8854 40.4139 74.2304 38.4819L74.5984 36.4579H82.9934L84.4194 39.1029C84.9714 40.1379 85.4544 41.1959 85.9144 42.2079H89.3184C88.6054 40.8509 87.9614 39.5859 87.3864 38.3899C86.9724 37.5619 86.5584 36.7569 86.1444 36.0209C89.3184 35.4459 90.5604 34.0889 91.0664 31.1679C91.7334 27.6029 90.0084 25.8779 84.5114 25.8779H73.3564C73.1954 26.8899 73.0804 27.6259 72.8504 28.8219L71.1484 38.5049ZM84.3274 28.5459C87.5474 28.5459 88.2604 29.2129 87.9154 31.0529C87.5704 32.9619 86.6044 33.8129 83.4074 33.8129H75.0584L75.9784 28.5459H84.3274Z" fill="#0D0E11"/>
<path d="M100.069 42.4839C106.969 42.4839 108.234 41.1499 108.832 37.7689L105.888 37.6769C105.612 39.2409 104.922 39.9769 100.207 39.9769C95.7678 39.9769 94.8938 39.1949 95.2388 36.3889H109.062C109.131 36.0439 109.223 35.6299 109.292 35.1699C110.074 30.2249 108.51 28.5459 101.817 28.5459C95.1008 28.5459 93.3068 30.0639 92.4098 35.1699L92.2948 35.8599C91.4208 40.8049 93.2378 42.4839 100.069 42.4839ZM101.679 30.8459C106.026 30.8459 106.716 31.6509 106.348 34.2499H95.6298C96.2738 31.5589 97.4468 30.8459 101.679 30.8459Z" fill="#0D0E11"/>
<path d="M118.219 42.4839C121.347 42.4839 123.348 41.7939 124.636 40.4139C124.245 42.6909 123.923 44.4849 123.739 45.4279H126.775C126.867 44.7379 127.074 43.5879 127.327 42.2079L129.167 31.7429C129.351 30.6389 129.512 29.7879 129.719 28.8219H126.821L126.43 30.9379C125.602 29.3509 123.67 28.5459 120.243 28.5459C114.056 28.5459 112.331 30.0179 111.434 35.1699L111.319 35.8599C110.422 40.9659 112.124 42.4839 118.219 42.4839ZM119.231 39.7699C114.562 39.7699 113.803 38.9189 114.378 35.6069L114.401 35.4229C114.999 32.0879 116.08 31.2599 120.841 31.2599C125.349 31.2599 126.131 32.1799 125.556 35.4229L125.51 35.6069C124.958 38.8269 123.831 39.7699 119.231 39.7699Z" fill="#0D0E11"/>
<path d="M132.503 33.8819C132.227 35.3999 132.112 36.0209 131.928 37.0559C131.238 40.8969 132.48 42.4839 138.299 42.4839C141.381 42.4839 143.382 41.6789 144.67 40.1379L144.348 42.2079H147.154C147.292 41.2879 147.453 40.4369 147.729 38.8499L148.856 32.5019C149.155 30.7539 149.316 29.8339 149.523 28.8219H146.487C146.349 29.8339 146.188 30.7309 145.866 32.5019L145.337 35.5379C144.762 38.8039 143.612 39.7699 139.518 39.7699C135.217 39.7699 134.619 38.7579 135.125 35.8369L135.723 32.4559C136.045 30.5929 136.16 29.9029 136.39 28.8219H133.354C133.193 29.9489 133.032 30.9149 132.756 32.4559L132.503 33.8819Z" fill="#0D0E11"/>
<path d="M159.006 42.4839C165.906 42.4839 167.171 41.1499 167.769 37.7689L164.825 37.6769C164.549 39.2409 163.859 39.9769 159.144 39.9769C154.705 39.9769 153.831 39.1949 154.176 36.3889H167.999C168.068 36.0439 168.16 35.6299 168.229 35.1699C169.011 30.2249 167.447 28.5459 160.754 28.5459C154.038 28.5459 152.244 30.0639 151.347 35.1699L151.232 35.8599C150.358 40.8049 152.175 42.4839 159.006 42.4839ZM160.616 30.8459C164.963 30.8459 165.653 31.6509 165.285 34.2499H154.567C155.211 31.5589 156.384 30.8459 160.616 30.8459Z" fill="#0D0E11"/>
<path d="M177.387 42.4839C184.149 42.4839 184.954 41.6329 185.46 38.7349C185.943 36.0209 184.977 34.7789 178.583 34.2499C173.868 33.8359 173.615 33.3529 173.776 32.2949C173.914 31.3519 174.65 30.9149 178.606 30.9149C182.723 30.9149 183.252 31.3979 183.022 32.6399L182.953 32.9389L185.966 32.8699C186.518 29.6499 185.345 28.5459 178.79 28.5459C172.534 28.5459 171.43 29.5119 170.924 32.3639C170.441 35.1009 171.43 36.2279 177.295 36.6879C182.332 37.1249 182.631 37.6079 182.447 38.7579C182.286 39.7929 181.757 40.2069 177.548 40.2069C172.902 40.2069 172.373 39.7469 172.649 38.1599L172.695 37.8149L169.751 37.8839C169.084 41.7249 170.51 42.4839 177.387 42.4839Z" fill="#0D0E11"/>
<path d="M190.025 33.6979C189.795 35.0319 189.542 36.3659 189.358 37.4239C188.668 41.3569 190.048 42.3229 195.637 42.3229C196.58 42.3229 197.293 42.2769 198.167 42.2079L198.581 39.6089C197.684 39.6779 197.155 39.7009 196.166 39.7009C192.739 39.7009 192.003 39.3559 192.463 36.7109L193.406 31.4209H200.03L200.49 28.8219H193.866C194.073 27.6949 194.234 26.8209 194.349 26.1999L191.313 26.2459C191.152 27.2809 191.037 28.0399 190.876 28.8219C190.14 28.8219 189.312 28.8219 188.461 28.8219L188.001 31.4209H190.439L190.025 33.6979Z" fill="#0D0E11"/>
<path d="M216.225 42.4839C219.905 42.4839 221.952 41.7709 223.079 40.5519L222.826 42.2079H225.54C225.839 40.3909 226.046 39.2179 226.299 37.8379C226.667 35.7219 226.828 34.9399 227.15 33.1229C227.702 29.9949 226.437 28.5459 219.514 28.5459C213.189 28.5459 211.717 29.7649 211.234 32.8009L214.109 32.8699C214.339 31.4439 214.891 30.9839 219.307 30.9839C223.838 30.9839 224.413 31.6279 224.045 33.7439L223.769 35.3079C222.918 34.4109 221.078 33.9279 217.651 33.9279C211.694 33.9279 210.245 35.1929 209.693 38.2519C209.187 41.2649 210.222 42.4839 216.225 42.4839ZM217.651 40.1609C213.212 40.1609 212.476 39.6549 212.729 38.1829C212.982 36.6879 213.649 36.0669 218.41 36.0669C222.987 36.0669 223.608 36.6649 223.424 37.6309L223.332 38.2059C223.102 39.5399 222.251 40.1609 217.651 40.1609Z" fill="#0D0E11"/>
<path d="M237.991 42.2079C237.738 43.5879 237.531 44.7379 237.393 45.4279H240.452C240.59 44.4619 240.912 42.5989 241.349 40.2299C242.2 41.7249 244.109 42.4839 247.421 42.4839C253.631 42.4839 255.333 41.0119 256.253 35.8599L256.368 35.1699C257.242 30.0639 255.563 28.5459 249.468 28.5459C246.179 28.5459 244.155 29.3049 242.867 30.7999L243.212 28.8219H240.337C240.176 29.7879 240.015 30.6389 239.831 31.7429L237.991 42.2079ZM242.131 35.6069L242.177 35.4229C242.729 32.2029 243.833 31.2599 248.456 31.2599C253.102 31.2599 253.884 32.0879 253.309 35.4229L253.263 35.6069C252.665 38.9189 251.607 39.7699 246.846 39.7699C242.338 39.7699 241.556 38.8499 242.131 35.6069Z" fill="#0D0E11"/>
<path d="M264.741 42.4839C268.421 42.4839 270.468 41.7709 271.595 40.5519L271.342 42.2079H274.056C274.355 40.3909 274.562 39.2179 274.815 37.8379C275.183 35.7219 275.344 34.9399 275.666 33.1229C276.218 29.9949 274.953 28.5459 268.03 28.5459C261.705 28.5459 260.233 29.7649 259.75 32.8009L262.625 32.8699C262.855 31.4439 263.407 30.9839 267.823 30.9839C272.354 30.9839 272.929 31.6279 272.561 33.7439L272.285 35.3079C271.434 34.4109 269.594 33.9279 266.167 33.9279C260.21 33.9279 258.761 35.1929 258.209 38.2519C257.703 41.2649 258.738 42.4839 264.741 42.4839ZM266.167 40.1609C261.728 40.1609 260.992 39.6549 261.245 38.1829C261.498 36.6879 262.165 36.0669 266.926 36.0669C271.503 36.0669 272.124 36.6649 271.94 37.6309L271.848 38.2059C271.618 39.5399 270.767 40.1609 266.167 40.1609Z" fill="#0D0E11"/>
<path d="M285.267 42.4839C292.029 42.4839 292.834 41.6329 293.34 38.7349C293.823 36.0209 292.857 34.7789 286.463 34.2499C281.748 33.8359 281.495 33.3529 281.656 32.2949C281.794 31.3519 282.53 30.9149 286.486 30.9149C290.603 30.9149 291.132 31.3979 290.902 32.6399L290.833 32.9389L293.846 32.8699C294.398 29.6499 293.225 28.5459 286.67 28.5459C280.414 28.5459 279.31 29.5119 278.804 32.3639C278.321 35.1009 279.31 36.2279 285.175 36.6879C290.212 37.1249 290.511 37.6079 290.327 38.7579C290.166 39.7929 289.637 40.2069 285.428 40.2069C280.782 40.2069 280.253 39.7469 280.529 38.1599L280.575 37.8149L277.631 37.8839C276.964 41.7249 278.39 42.4839 285.267 42.4839Z" fill="#0D0E11"/>
<path d="M303.011 42.4839C309.773 42.4839 310.578 41.6329 311.084 38.7349C311.567 36.0209 310.601 34.7789 304.207 34.2499C299.492 33.8359 299.239 33.3529 299.4 32.2949C299.538 31.3519 300.274 30.9149 304.23 30.9149C308.347 30.9149 308.876 31.3979 308.646 32.6399L308.577 32.9389L311.59 32.8699C312.142 29.6499 310.969 28.5459 304.414 28.5459C298.158 28.5459 297.054 29.5119 296.548 32.3639C296.065 35.1009 297.054 36.2279 302.919 36.6879C307.956 37.1249 308.255 37.6079 308.071 38.7579C307.91 39.7929 307.381 40.2069 303.172 40.2069C298.526 40.2069 297.997 39.7469 298.273 38.1599L298.319 37.8149L295.375 37.8839C294.708 41.7249 296.134 42.4839 303.011 42.4839Z" fill="#0D0E11"/>
<path d="M324.278 36.0669C325.037 34.6639 325.819 33.2379 326.555 31.9269H327.268C327.475 33.2609 327.705 34.7329 327.912 36.1129L328.878 42.2079H333.547C335.341 38.9419 339.251 31.9499 341.137 28.8219H337.802L334.72 34.5949C333.869 36.2049 333.018 37.8609 332.236 39.3559H331.27C331.063 37.9759 330.81 36.4119 330.58 34.8939L329.568 28.8219H325.221L322.001 34.8479C321.196 36.3659 320.345 37.9299 319.586 39.3559H318.597C318.39 37.9069 318.16 36.2739 317.907 34.7099L317.01 28.8219H313.767C314.411 31.9039 315.676 38.9419 316.205 42.2079H320.874L324.278 36.0669Z" fill="#0D0E11"/>
<path d="M348.485 42.4839C355.339 42.4839 357.064 40.9659 357.961 35.8599L358.076 35.1699C358.973 30.0639 357.202 28.5459 350.371 28.5459C343.517 28.5459 341.792 30.0639 340.895 35.1699L340.78 35.8599C339.883 40.9659 341.654 42.4839 348.485 42.4839ZM348.646 39.8159C343.954 39.8159 343.264 38.9419 343.839 35.6069L343.862 35.4229C344.46 32.0649 345.472 31.2139 350.187 31.2139C354.879 31.2139 355.615 32.0649 354.994 35.4229L354.971 35.6069C354.396 38.9419 353.361 39.8159 348.646 39.8159Z" fill="#0D0E11"/>
<path d="M360.441 38.5279C360.142 40.2529 359.981 41.1959 359.774 42.2079H362.81C362.948 41.1959 363.109 40.2989 363.431 38.5279L363.914 35.7219C364.558 32.0649 365.639 31.2599 369.411 31.2599C373.114 31.2599 373.482 31.7889 373.068 34.1579L372.976 34.5949L375.874 34.5489C375.966 34.0199 376.035 33.6519 376.127 33.2379C376.771 29.5349 375.874 28.5459 370.883 28.5459C367.847 28.5459 365.892 29.3049 364.627 30.8689L364.949 28.8219H362.143C362.005 29.7189 361.844 30.5929 361.568 32.1799L360.441 38.5279Z" fill="#0D0E11"/>
<path d="M384.449 42.4839C387.761 42.4839 389.785 41.7019 391.073 40.1839L390.751 42.2079H393.58C393.764 41.0809 393.902 40.2989 394.201 38.5279L395.903 28.8219C396.202 27.1659 396.409 25.9699 396.616 25.0039H393.534C393.396 25.9699 392.982 28.4309 392.568 30.7769C391.694 29.3049 389.785 28.5459 386.473 28.5459C380.286 28.5459 378.561 30.0179 377.664 35.1699L377.549 35.8599C376.652 40.9659 378.354 42.4839 384.449 42.4839ZM385.461 39.7699C380.792 39.7699 380.033 38.9189 380.608 35.6069L380.631 35.4229C381.229 32.0879 382.31 31.2599 387.071 31.2599C391.579 31.2599 392.361 32.1799 391.786 35.4229L391.74 35.6069C391.165 38.8269 390.061 39.7699 385.461 39.7699Z" fill="#0D0E11"/>
<path d="M406.666 38.5279C406.367 40.2529 406.206 41.1959 405.999 42.2079H409.035C409.173 41.1959 409.334 40.2989 409.656 38.5279L410.139 35.7219C410.783 32.0649 411.864 31.2599 415.636 31.2599C419.339 31.2599 419.707 31.7889 419.293 34.1579L419.201 34.5949L422.099 34.5489C422.191 34.0199 422.26 33.6519 422.352 33.2379C422.996 29.5349 422.099 28.5459 417.108 28.5459C414.072 28.5459 412.117 29.3049 410.852 30.8689L411.174 28.8219H408.368C408.23 29.7189 408.069 30.5929 407.793 32.1799L406.666 38.5279Z" fill="#0D0E11"/>
<path d="M431.547 42.4839C438.447 42.4839 439.712 41.1499 440.31 37.7689L437.366 37.6769C437.09 39.2409 436.4 39.9769 431.685 39.9769C427.246 39.9769 426.372 39.1949 426.717 36.3889H440.54C440.609 36.0439 440.701 35.6299 440.77 35.1699C441.552 30.2249 439.988 28.5459 433.295 28.5459C426.579 28.5459 424.785 30.0639 423.888 35.1699L423.773 35.8599C422.899 40.8049 424.716 42.4839 431.547 42.4839ZM433.157 30.8459C437.504 30.8459 438.194 31.6509 437.826 34.2499H427.108C427.752 31.5589 428.925 30.8459 433.157 30.8459Z" fill="#0D0E11"/>
<path d="M449.928 42.4839C456.69 42.4839 457.495 41.6329 458.001 38.7349C458.484 36.0209 457.518 34.7789 451.124 34.2499C446.409 33.8359 446.156 33.3529 446.317 32.2949C446.455 31.3519 447.191 30.9149 451.147 30.9149C455.264 30.9149 455.793 31.3979 455.563 32.6399L455.494 32.9389L458.507 32.8699C459.059 29.6499 457.886 28.5459 451.331 28.5459C445.075 28.5459 443.971 29.5119 443.465 32.3639C442.982 35.1009 443.971 36.2279 449.836 36.6879C454.873 37.1249 455.172 37.6079 454.988 38.7579C454.827 39.7929 454.298 40.2069 450.089 40.2069C445.443 40.2069 444.914 39.7469 445.19 38.1599L445.236 37.8149L442.292 37.8839C441.625 41.7249 443.051 42.4839 449.928 42.4839Z" fill="#0D0E11"/>
<path d="M468.316 42.4839C475.216 42.4839 476.481 41.1499 477.079 37.7689L474.135 37.6769C473.859 39.2409 473.169 39.9769 468.454 39.9769C464.015 39.9769 463.141 39.1949 463.486 36.3889H477.309C477.378 36.0439 477.47 35.6299 477.539 35.1699C478.321 30.2249 476.757 28.5459 470.064 28.5459C463.348 28.5459 461.554 30.0639 460.657 35.1699L460.542 35.8599C459.668 40.8049 461.485 42.4839 468.316 42.4839ZM469.926 30.8459C474.273 30.8459 474.963 31.6509 474.595 34.2499H463.877C464.521 31.5589 465.694 30.8459 469.926 30.8459Z" fill="#0D0E11"/>
<path d="M481.59 33.6979C481.36 35.0319 481.107 36.3659 480.923 37.4239C480.233 41.3569 481.613 42.3229 487.202 42.3229C488.145 42.3229 488.858 42.2769 489.732 42.2079L490.146 39.6089C489.249 39.6779 488.72 39.7009 487.731 39.7009C484.304 39.7009 483.568 39.3559 484.028 36.7109L484.971 31.4209H491.595L492.055 28.8219H485.431C485.638 27.6949 485.799 26.8209 485.914 26.1999L482.878 26.2459C482.717 27.2809 482.602 28.0399 482.441 28.8219C481.705 28.8219 480.877 28.8219 480.026 28.8219L479.566 31.4209H482.004L481.59 33.6979Z" fill="#0D0E11"/>
</svg>
