<svg width="352" height="21" viewBox="0 0 352 21" fill="none" xmlns="http://www.w3.org/2000/svg">
<path d="M9.82334 17.308C17.4353 17.308 19.2173 15.79 19.1953 11.104L16.3353 11.038C16.2913 13.766 15.4773 14.646 9.88934 14.646C4.34534 14.646 3.35534 13.568 3.35534 9.3V9.08C3.35534 4.922 4.32334 3.734 9.86734 3.734C15.4773 3.734 16.3133 4.592 16.3133 7.342L19.1733 7.276C19.1953 2.568 17.4133 1.072 9.82334 1.072C2.25534 1.072 0.363342 2.876 0.363342 8.838V9.542C0.363342 15.504 2.25534 17.308 9.82334 17.308ZM22.0325 13.304C22.0325 14.998 22.0325 15.9 22.0105 17H24.8925C24.8705 15.812 24.8705 14.866 24.8705 13.26V10.576C24.8705 7.43 25.7945 6.528 29.7985 6.528C33.9565 6.528 34.7045 7.496 34.7045 10.268V13.524C34.7045 15.086 34.7045 15.856 34.6825 17H37.5645C37.5425 15.746 37.5425 14.712 37.5425 13.568V12.16C37.5425 10.686 37.5645 10.092 37.5645 9.124C37.5645 5.45 36.4865 3.932 30.8765 3.932C27.6865 3.932 25.8165 4.658 24.8045 6.11C24.8485 4.614 24.9145 0.94 24.9145 0.543999H22.0105C22.0325 1.49 22.0325 2.634 22.0325 4.196V13.304ZM47.3581 17.264C50.9001 17.264 52.7481 16.582 53.6281 15.416L53.6721 17H56.2681C56.2461 15.262 56.2461 14.14 56.2461 12.82C56.2461 10.796 56.2681 10.048 56.2681 8.31C56.2681 5.318 55.0801 3.932 48.4581 3.932C42.4081 3.932 40.9561 5.098 41.0001 8.002L43.7501 8.068C43.7281 6.704 44.1901 6.264 48.4141 6.264C52.7481 6.264 53.4081 6.88 53.4081 8.904V10.378C52.4401 9.52 50.6141 9.08 47.3581 9.08C41.6601 9.08 40.4501 10.29 40.4501 13.216C40.4501 16.098 41.6161 17.264 47.3581 17.264ZM48.3701 15.042C44.1241 15.042 43.3321 14.558 43.3321 13.15C43.3321 11.72 43.8601 11.126 48.4141 11.126C52.7921 11.126 53.4741 11.698 53.4741 12.622V13.172C53.4741 14.448 52.7921 15.042 48.3701 15.042ZM59.7534 13.48C59.7534 15.13 59.7534 16.032 59.7314 17H62.6354C62.6134 16.032 62.6134 15.174 62.6134 13.48V10.576C62.6134 7.43 63.5374 6.528 67.5414 6.528C71.6774 6.528 72.4254 7.496 72.4254 10.268V13.524C72.4254 15.306 72.4254 15.966 72.4034 17H75.3074C75.2854 15.922 75.2854 14.998 75.2854 13.524V12.16C75.2854 10.686 75.3074 10.092 75.3074 9.124C75.3074 5.45 74.2294 3.932 68.6194 3.932C65.3414 3.932 63.4714 4.702 62.4594 6.198L62.4374 4.196H59.7314C59.7534 5.054 59.7534 5.89 59.7534 7.408V13.48ZM85.497 15.57C88.731 15.57 90.579 14.844 91.569 13.524V14.998C91.525 17.044 90.777 17.946 85.849 17.946C81.713 17.946 81.031 17.418 81.031 16.274L78.325 16.362C78.325 19.42 79.645 20.344 85.893 20.344C92.713 20.344 94.385 19.068 94.385 15.438C94.385 13.722 94.363 12.446 94.363 10.4V7.1C94.363 5.956 94.363 5.054 94.385 4.196H91.679L91.657 6.022C90.667 4.658 88.797 3.932 85.497 3.932C79.931 3.932 77.973 5.01 77.973 9.652V9.85C77.973 14.514 80.041 15.57 85.497 15.57ZM86.245 13.084C81.801 13.084 80.855 12.27 80.855 9.828V9.652C80.855 7.232 81.977 6.418 86.223 6.418C90.623 6.418 91.503 7.254 91.503 9.652C91.503 12.094 90.535 13.084 86.245 13.084ZM105.341 17.264C111.919 17.264 113.217 15.988 113.217 12.754L110.423 12.666C110.423 14.162 109.851 14.866 105.363 14.866C101.095 14.866 100.127 14.118 99.9955 11.434H113.217C113.217 11.104 113.239 10.708 113.217 10.268C113.195 5.384 111.633 3.932 105.209 3.932C98.8075 3.932 97.0915 5.384 97.0915 10.268V10.928C97.0915 15.812 98.8075 17.264 105.341 17.264ZM105.231 6.132C109.367 6.132 110.181 6.902 110.247 9.388H99.9955C100.171 6.814 101.183 6.132 105.231 6.132ZM133.173 17.132C134.801 13.92 138.189 7.188 139.773 4.196H136.693L134.053 9.366C133.437 10.598 132.821 11.852 132.271 12.996H131.061C130.379 11.83 129.587 10.576 128.839 9.322L125.715 4.196H122.481C124.395 7.21 127.651 12.6 129.301 15.416H131.017L130.687 16.01C129.961 17.374 129.455 17.66 128.113 17.66C127.277 17.66 126.507 17.638 125.605 17.594L125.561 20.014C126.463 20.102 127.563 20.146 128.201 20.146C130.863 20.146 132.007 19.42 133.173 17.132ZM148.495 17.264C155.051 17.264 156.723 15.812 156.723 10.928V10.268C156.723 5.384 155.051 3.932 148.495 3.932C141.961 3.932 140.289 5.384 140.289 10.268V10.928C140.289 15.812 141.961 17.264 148.495 17.264ZM148.495 14.712C144.007 14.712 143.171 13.876 143.171 10.686V10.51C143.171 7.298 144.007 6.484 148.495 6.484C153.005 6.484 153.819 7.298 153.819 10.51V10.686C153.819 13.876 153.005 14.712 148.495 14.712ZM159.381 9.036C159.381 10.488 159.359 11.082 159.359 12.072C159.359 15.746 160.437 17.264 166.003 17.264C169.215 17.264 171.085 16.494 172.075 14.998L172.119 17H174.803C174.781 16.12 174.781 15.306 174.781 13.788V7.716C174.781 6.044 174.781 5.164 174.803 4.196H171.921C171.943 5.164 171.943 6.022 171.943 7.716V10.62C171.943 13.744 171.019 14.668 167.081 14.668C162.967 14.668 162.219 13.7 162.219 10.906V7.672C162.219 5.89 162.219 5.23 162.241 4.196H159.359C159.381 5.274 159.381 6.198 159.381 7.672V9.036ZM178.286 13.48C178.286 15.13 178.286 16.032 178.264 17H181.168C181.146 16.032 181.146 15.174 181.146 13.48V10.796C181.146 7.298 182.026 6.528 185.634 6.528C189.176 6.528 189.616 7.034 189.616 9.3V9.718L192.366 9.674C192.388 9.168 192.388 8.816 192.388 8.42C192.388 4.878 191.354 3.932 186.602 3.932C183.698 3.932 181.938 4.68 180.992 6.154L180.97 4.196H178.264C178.286 5.054 178.286 5.89 178.286 7.408V13.48ZM203.052 17C203.052 18.32 203.052 19.42 203.03 20.08H205.956C205.934 19.2 205.934 17.55 205.934 15.218C206.968 16.582 208.794 17.264 211.896 17.264C217.836 17.264 219.442 15.856 219.442 10.928V10.268C219.442 5.34 217.858 3.932 212.006 3.932C208.706 3.932 206.814 4.68 205.802 6.132V4.196H203.03C203.052 5.12 203.052 5.934 203.052 6.99V17ZM205.912 10.686V10.51C205.912 7.43 206.792 6.528 211.214 6.528C215.68 6.528 216.56 7.32 216.56 10.51V10.686C216.56 13.854 215.68 14.668 211.104 14.668C206.792 14.668 205.912 13.788 205.912 10.686ZM228.529 17.264C232.071 17.264 233.919 16.582 234.799 15.416L234.843 17H237.439C237.417 15.262 237.417 14.14 237.417 12.82C237.417 10.796 237.439 10.048 237.439 8.31C237.439 5.318 236.251 3.932 229.629 3.932C223.579 3.932 222.127 5.098 222.171 8.002L224.921 8.068C224.899 6.704 225.361 6.264 229.585 6.264C233.919 6.264 234.579 6.88 234.579 8.904V10.378C233.611 9.52 231.785 9.08 228.529 9.08C222.831 9.08 221.621 10.29 221.621 13.216C221.621 16.098 222.787 17.264 228.529 17.264ZM229.541 15.042C225.295 15.042 224.503 14.558 224.503 13.15C224.503 11.72 225.031 11.126 229.585 11.126C233.963 11.126 234.645 11.698 234.645 12.622V13.172C234.645 14.448 233.963 15.042 229.541 15.042ZM247.788 17.264C254.256 17.264 255.18 16.208 255.18 13.436C255.18 10.862 254.344 9.806 247.854 9.322C243.256 8.948 242.948 8.618 242.948 7.628C242.948 6.616 243.542 6.198 247.304 6.198C251.264 6.198 251.836 6.66 251.836 7.848V8.134L254.674 8.068C254.674 4.988 253.662 3.932 247.392 3.932C241.408 3.932 240.198 5.054 240.198 7.782C240.198 10.422 241.188 11.302 247.04 11.764C251.924 12.138 252.298 12.512 252.298 13.612C252.298 14.668 251.902 15.086 247.854 15.086C243.41 15.086 242.838 14.646 242.838 13.128V12.798L240.022 12.864C240.022 16.538 241.21 17.264 247.788 17.264ZM264.608 17.264C271.076 17.264 272 16.208 272 13.436C272 10.862 271.164 9.806 264.674 9.322C260.076 8.948 259.768 8.618 259.768 7.628C259.768 6.616 260.362 6.198 264.124 6.198C268.084 6.198 268.656 6.66 268.656 7.848V8.134L271.494 8.068C271.494 4.988 270.482 3.932 264.212 3.932C258.228 3.932 257.018 5.054 257.018 7.782C257.018 10.422 258.008 11.302 263.86 11.764C268.744 12.138 269.118 12.512 269.118 13.612C269.118 14.668 268.722 15.086 264.674 15.086C260.23 15.086 259.658 14.646 259.658 13.128V12.798L256.842 12.864C256.842 16.538 258.03 17.264 264.608 17.264ZM284.027 11.126C284.511 9.784 285.017 8.42 285.501 7.166H286.205C286.623 8.442 287.085 9.85 287.503 11.17L289.461 17H293.927C295.093 13.876 297.667 7.188 298.921 4.196H295.863L293.905 9.718C293.355 11.258 292.805 12.842 292.299 14.272H291.375C290.935 12.952 290.451 11.456 289.967 10.004L287.987 4.196H283.829L281.761 9.96C281.233 11.412 280.683 12.908 280.221 14.272H279.253C278.813 12.886 278.307 11.324 277.823 9.828L275.953 4.196H272.741C273.885 7.144 276.283 13.876 277.339 17H281.805L284.027 11.126ZM307.864 17.264C314.42 17.264 316.092 15.812 316.092 10.928V10.268C316.092 5.384 314.42 3.932 307.864 3.932C301.33 3.932 299.658 5.384 299.658 10.268V10.928C299.658 15.812 301.33 17.264 307.864 17.264ZM307.864 14.712C303.376 14.712 302.54 13.876 302.54 10.686V10.51C302.54 7.298 303.376 6.484 307.864 6.484C312.374 6.484 313.188 7.298 313.188 10.51V10.686C313.188 13.876 312.374 14.712 307.864 14.712ZM318.816 13.48C318.816 15.13 318.816 16.032 318.794 17H321.698C321.676 16.032 321.676 15.174 321.676 13.48V10.796C321.676 7.298 322.556 6.528 326.164 6.528C329.706 6.528 330.146 7.034 330.146 9.3V9.718L332.896 9.674C332.918 9.168 332.918 8.816 332.918 8.42C332.918 4.878 331.884 3.932 327.132 3.932C324.228 3.932 322.468 4.68 321.522 6.154L321.5 4.196H318.794C318.816 5.054 318.816 5.89 318.816 7.408V13.48ZM342.066 17.264C345.388 17.264 347.28 16.494 348.292 14.998L348.314 17H351.02C350.998 15.922 350.998 15.174 350.998 13.48V4.196C350.998 2.612 350.998 1.468 351.02 0.543999H348.072C348.094 1.446 348.116 3.734 348.116 5.978C347.082 4.614 345.234 3.932 342.132 3.932C336.214 3.932 334.608 5.34 334.608 10.268V10.928C334.608 15.856 336.214 17.264 342.066 17.264ZM342.858 14.668C338.37 14.668 337.49 13.876 337.49 10.686V10.51C337.49 7.276 338.37 6.484 342.924 6.484C347.258 6.484 348.138 7.364 348.138 10.51V10.686C348.138 13.766 347.258 14.668 342.858 14.668Z" fill="white"/>
</svg>
