<svg width="559" height="68" viewBox="0 0 559 68" fill="none" xmlns="http://www.w3.org/2000/svg">
<rect y="0.208984" width="559" height="67" rx="33.5" fill="#43FF8E"/>
<path d="M221.956 37.501C221.657 39.226 221.519 40.1 221.289 41.204H224.394C224.578 40.031 224.693 39.41 225.038 37.478L225.406 35.454H233.801L235.227 38.099C235.779 39.134 236.262 40.192 236.722 41.204H240.126C239.413 39.847 238.769 38.582 238.194 37.386C237.78 36.558 237.366 35.753 236.952 35.017C240.126 34.442 241.368 33.085 241.874 30.164C242.541 26.599 240.816 24.874 235.319 24.874H224.164C224.003 25.886 223.888 26.622 223.658 27.818L221.956 37.501ZM235.135 27.542C238.355 27.542 239.068 28.209 238.723 30.049C238.378 31.958 237.412 32.809 234.215 32.809H225.866L226.786 27.542H235.135Z" fill="#0D0E11"/>
<path d="M250.876 41.48C257.776 41.48 259.041 40.146 259.639 36.765L256.695 36.673C256.419 38.237 255.729 38.973 251.014 38.973C246.575 38.973 245.701 38.191 246.046 35.385H259.869C259.938 35.04 260.03 34.626 260.099 34.166C260.881 29.221 259.317 27.542 252.624 27.542C245.908 27.542 244.114 29.06 243.217 34.166L243.102 34.856C242.228 39.801 244.045 41.48 250.876 41.48ZM252.486 29.842C256.833 29.842 257.523 30.647 257.155 33.246H246.437C247.081 30.555 248.254 29.842 252.486 29.842Z" fill="#0D0E11"/>
<path d="M269.257 41.48C276.019 41.48 276.824 40.629 277.33 37.731C277.813 35.017 276.847 33.775 270.453 33.246C265.738 32.832 265.485 32.349 265.646 31.291C265.784 30.348 266.52 29.911 270.476 29.911C274.593 29.911 275.122 30.394 274.892 31.636L274.823 31.935L277.836 31.866C278.388 28.646 277.215 27.542 270.66 27.542C264.404 27.542 263.3 28.508 262.794 31.36C262.311 34.097 263.3 35.224 269.165 35.684C274.202 36.121 274.501 36.604 274.317 37.754C274.156 38.789 273.627 39.203 269.418 39.203C264.772 39.203 264.243 38.743 264.519 37.156L264.565 36.811L261.621 36.88C260.954 40.721 262.38 41.48 269.257 41.48Z" fill="#0D0E11"/>
<path d="M287.645 41.48C294.545 41.48 295.81 40.146 296.408 36.765L293.464 36.673C293.188 38.237 292.498 38.973 287.783 38.973C283.344 38.973 282.47 38.191 282.815 35.385H296.638C296.707 35.04 296.799 34.626 296.868 34.166C297.65 29.221 296.086 27.542 289.393 27.542C282.677 27.542 280.883 29.06 279.986 34.166L279.871 34.856C278.997 39.801 280.814 41.48 287.645 41.48ZM289.255 29.842C293.602 29.842 294.292 30.647 293.924 33.246H283.206C283.85 30.555 285.023 29.842 289.255 29.842Z" fill="#0D0E11"/>
<path d="M299.217 37.524C298.918 39.249 298.757 40.192 298.55 41.204H301.586C301.724 40.192 301.885 39.295 302.207 37.524L302.736 34.488C303.334 31.199 304.461 30.256 308.647 30.256C312.994 30.256 313.569 31.268 313.086 34.166L312.465 37.57C312.143 39.433 312.028 40.123 311.798 41.204H314.834C314.995 40.077 315.156 39.111 315.455 37.57L315.708 36.144C315.961 34.603 316.099 33.982 316.283 32.97C316.95 29.129 315.708 27.542 309.866 27.542C306.692 27.542 304.691 28.324 303.403 29.865L303.725 27.818H300.919C300.781 28.715 300.62 29.589 300.344 31.176L299.217 37.524Z" fill="#0D0E11"/>
<path d="M325.763 41.48C329.075 41.48 331.099 40.698 332.387 39.18L332.065 41.204H334.894C335.078 40.077 335.216 39.295 335.515 37.524L337.217 27.818C337.516 26.162 337.723 24.966 337.93 24H334.848C334.71 24.966 334.296 27.427 333.882 29.773C333.008 28.301 331.099 27.542 327.787 27.542C321.6 27.542 319.875 29.014 318.978 34.166L318.863 34.856C317.966 39.962 319.668 41.48 325.763 41.48ZM326.775 38.766C322.106 38.766 321.347 37.915 321.922 34.603L321.945 34.419C322.543 31.084 323.624 30.256 328.385 30.256C332.893 30.256 333.675 31.176 333.1 34.419L333.054 34.603C332.479 37.823 331.375 38.766 326.775 38.766Z" fill="#0D0E11"/>
</svg>
