<svg width="67" height="16" viewBox="0 0 67 16" fill="none" xmlns="http://www.w3.org/2000/svg">
<path d="M0.730938 11.78C0.730938 13.32 0.730938 14.02 0.710938 15H2.83094C2.81094 13.94 2.81094 13.54 2.81094 11.76V9.56004H10.3309L12.2109 12.22C12.8509 13.12 13.4509 14.06 14.0309 15H16.4709C15.6109 13.78 14.8509 12.66 14.1709 11.62C13.6309 10.8 13.0909 10.04 12.6109 9.36004C15.4309 8.88004 16.2909 7.52004 16.2909 5.02004V4.94004C16.2909 1.88004 15.0709 0.800039 10.3709 0.800039H0.710938C0.730938 1.74004 0.730938 2.34004 0.730938 3.40004V11.78ZM10.3709 2.66004C13.3909 2.66004 14.1309 3.26004 14.1309 5.02004V5.06004C14.1309 6.90004 13.3909 7.70004 10.3709 7.70004H2.81094V2.66004H10.3709Z" fill="white"/>
<path d="M25.5675 15.24C31.3475 15.24 32.8675 13.92 32.8675 9.50004V8.90004C32.8675 4.48004 31.3475 3.16004 25.5675 3.16004C19.7875 3.16004 18.2675 4.48004 18.2675 8.90004V9.50004C18.2675 13.92 19.7875 15.24 25.5675 15.24ZM25.5675 13.38C21.1675 13.38 20.3075 12.54 20.3075 9.30004V9.10004C20.3075 5.86004 21.1675 5.02004 25.5675 5.02004C29.9675 5.02004 30.8275 5.86004 30.8275 9.10004V9.30004C30.8275 12.54 29.9675 13.38 25.5675 13.38Z" fill="white"/>
<path d="M42.1672 15.24C47.8672 15.24 49.2272 13.94 49.2272 10.5L47.2472 10.44C47.2472 12.52 46.4072 13.38 42.1672 13.38C37.8472 13.38 36.9872 12.54 36.9872 9.30004V9.10004C36.9872 5.86004 37.8472 5.02004 42.1672 5.02004C46.4072 5.02004 47.2072 5.92004 47.2072 7.96004L49.1872 7.90004C49.1872 4.36004 47.8872 3.16004 42.1672 3.16004C36.5472 3.16004 34.9472 4.48004 34.9472 8.90004V9.50004C34.9472 13.92 36.5672 15.24 42.1672 15.24Z" fill="white"/>
<path d="M52.0563 11.86C52.0563 13.2 52.0563 14.12 52.0363 15H54.0763C54.0563 14.12 54.0563 13.2 54.0563 11.88V10.1H57.1163C57.7363 10.6 58.4363 11.2 59.2163 11.8L63.2363 15H66.0163L66.0563 14.96C64.0963 13.42 60.7962 10.72 58.6963 9.04004C60.7163 7.38004 63.7562 4.94004 65.7562 3.44004L65.7163 3.40004H63.0563L59.5563 6.18004C58.6763 6.88004 57.7963 7.60004 57.0563 8.22004H54.0563V3.42004C54.0563 1.98004 54.0563 0.880039 54.0763 0.0400391H52.0363C52.0563 0.900039 52.0563 1.98004 52.0563 3.40004V11.86Z" fill="white"/>
</svg>
