<svg width="99" height="13" viewBox="0 0 99 13" fill="none" xmlns="http://www.w3.org/2000/svg">
<path d="M7.38451 12.226C12.9529 12.226 14.228 11.1123 14.8252 7.67443L12.727 7.626C12.3396 9.62741 11.6294 10.273 7.52977 10.273C3.46241 10.273 2.88135 9.48214 3.43013 6.35092L3.44627 6.18951C3.99504 3.13899 4.86662 2.26741 8.93398 2.26741C13.0498 2.26741 13.5501 2.89688 13.195 4.91443L15.3094 4.866C15.9066 1.49267 14.6154 0.314425 9.03083 0.314425C3.52697 0.314425 2.07434 1.63793 1.2996 6.01197L1.20276 6.52846C0.41188 10.7734 1.78381 12.226 7.38451 12.226Z" fill="white"/>
<path d="M21.8295 12.1937C26.6393 12.1937 27.8498 11.1285 28.4793 7.5453L28.56 7.06109C29.1895 3.47793 27.9467 2.41267 23.153 2.41267C18.3432 2.41267 17.1327 3.47793 16.5032 7.06109L16.4225 7.5453C15.793 11.1285 17.0358 12.1937 21.8295 12.1937ZM21.9425 10.3214C18.6498 10.3214 18.1656 9.70811 18.5691 7.36776L18.5853 7.23864C19.0049 4.88214 19.7151 4.28495 23.0239 4.28495C26.3165 4.28495 26.833 4.88214 26.3972 7.23864L26.3811 7.36776C25.9776 9.70811 25.2512 10.3214 21.9425 10.3214Z" fill="white"/>
<path d="M30.2196 9.41758C30.0098 10.6281 29.8968 11.2899 29.7515 12H31.882C31.9789 11.2899 32.0919 10.6604 32.3178 9.41758L32.6891 7.28706C33.1087 4.97899 33.8996 4.31723 36.8371 4.31723C39.8876 4.31723 40.2912 5.02741 39.9522 7.06109L39.5164 9.44986C39.2905 10.7572 39.2098 11.2414 39.0484 12H41.1789C41.2919 11.2092 41.4048 10.5313 41.6147 9.44986L41.7922 8.44916C41.9698 7.36776 42.0666 6.93197 42.1957 6.22179C42.6638 3.52635 41.7922 2.41267 37.6926 2.41267C35.4652 2.41267 34.061 2.96144 33.1571 4.04285L33.3831 2.60636H31.414C31.3171 3.23583 31.2041 3.84916 31.0105 4.96285L30.2196 9.41758Z" fill="white"/>
<path d="M45.4264 6.02811C45.265 6.96425 45.0875 7.90039 44.9584 8.64285C44.4742 11.4028 45.4426 12.0807 49.3647 12.0807C50.0264 12.0807 50.5268 12.0485 51.1401 12L51.4306 10.1762C50.8012 10.2246 50.4299 10.2407 49.7359 10.2407C47.331 10.2407 46.8145 9.99864 47.1373 8.1425L47.7991 4.43022H52.4475L52.7703 2.60636H48.1219C48.2671 1.81548 48.3801 1.20214 48.4608 0.766355L46.3303 0.798636C46.2173 1.52495 46.1366 2.05758 46.0236 2.60636C45.5071 2.60636 44.9261 2.60636 44.3289 2.60636L44.0061 4.43022H45.717L45.4264 6.02811Z" fill="white"/>
<path d="M55.1787 0.0400391L54.8882 1.65407H57.0187L57.2931 0.0400391H55.1787ZM53.5647 9.28846C53.3549 10.4667 53.2258 11.2576 53.0644 12H55.1949C55.3079 11.2576 55.4531 10.4667 55.6468 9.3046L56.357 5.28565C56.5507 4.13969 56.7121 3.28425 56.8412 2.60636H54.7268C54.63 3.28425 54.4686 4.15583 54.2749 5.28565L53.5647 9.28846Z" fill="white"/>
<path d="M58.3076 9.41758C58.0977 10.6281 57.9848 11.2899 57.8395 12H59.97C60.0669 11.2899 60.1799 10.6604 60.4058 9.41758L60.777 7.28706C61.1967 4.97899 61.9876 4.31723 64.9251 4.31723C67.9756 4.31723 68.3791 5.02741 68.0402 7.06109L67.6044 9.44986C67.3784 10.7572 67.2977 11.2414 67.1363 12H69.2669C69.3798 11.2092 69.4928 10.5313 69.7027 9.44986L69.8802 8.44916C70.0577 7.36776 70.1546 6.93197 70.2837 6.22179C70.7518 3.52635 69.8802 2.41267 65.7805 2.41267C63.5532 2.41267 62.149 2.96144 61.2451 4.04285L61.4711 2.60636H59.502C59.4051 3.23583 59.2921 3.84916 59.0984 4.96285L58.3076 9.41758Z" fill="white"/>
<path d="M72.8527 6.15723C72.659 7.2225 72.5783 7.65829 72.4492 8.3846C71.965 11.08 72.8365 12.1937 76.92 12.1937C79.0828 12.1937 80.487 11.6288 81.3909 10.5474L81.1649 12H83.1341C83.2309 11.3544 83.3439 10.7572 83.5376 9.64355L84.3285 5.18881C84.5383 3.96215 84.6513 3.31653 84.7965 2.60636H82.666C82.5692 3.31653 82.4562 3.946 82.2302 5.18881L81.859 7.31934C81.4555 9.61127 80.6485 10.2892 77.7755 10.2892C74.7572 10.2892 74.3376 9.57899 74.6927 7.52916L75.1123 5.15653C75.3383 3.84916 75.419 3.36495 75.5804 2.60636H73.4499C73.3369 3.39723 73.2239 4.07513 73.0302 5.15653L72.8527 6.15723Z" fill="white"/>
<path d="M91.4517 12.1937C96.2938 12.1937 97.1815 11.2576 97.6011 8.88495L95.5352 8.82039C95.3415 9.91793 94.8573 10.4344 91.5485 10.4344C88.4334 10.4344 87.8201 9.88565 88.0622 7.91653H97.7625C97.811 7.67443 97.8755 7.3839 97.9239 7.06109C98.4727 3.59092 97.3752 2.41267 92.6783 2.41267C87.9653 2.41267 86.7064 3.47793 86.0769 7.06109L85.9962 7.5453C85.3829 11.0155 86.658 12.1937 91.4517 12.1937ZM92.5815 4.02671C95.632 4.02671 96.1162 4.59162 95.858 6.41548H88.3366C88.7885 4.52706 89.6116 4.02671 92.5815 4.02671Z" fill="white"/>
</svg>
