<svg width="103" height="16" viewBox="0 0 103 16" fill="none" xmlns="http://www.w3.org/2000/svg">
<path d="M6.51635 13.2257C12.0848 13.2257 13.3599 12.112 13.957 8.67413L11.8588 8.6257C11.4714 10.6271 10.7613 11.2727 6.66161 11.2727C2.59424 11.2727 2.01319 10.4818 2.56196 7.35062L2.5781 7.18921C3.12687 4.13869 3.99845 3.26711 8.06582 3.26711C12.1816 3.26711 12.682 3.89658 12.3269 5.91413L14.4413 5.86571C15.0385 2.49237 13.7472 1.31413 8.16266 1.31413C2.6588 1.31413 1.20617 2.63763 0.431435 7.01167L0.334593 7.52816C-0.456284 11.7731 0.915646 13.2257 6.51635 13.2257Z" fill="white"/>
<path d="M20.9613 13.1934C25.7712 13.1934 26.9817 12.1282 27.6112 8.545L27.6919 8.06079C28.3213 4.47764 27.0785 3.41237 22.2848 3.41237C17.475 3.41237 16.2645 4.47764 15.635 8.06079L15.5543 8.545C14.9248 12.1282 16.1676 13.1934 20.9613 13.1934ZM21.0743 11.3211C17.7817 11.3211 17.2975 10.7078 17.701 8.36746L17.7171 8.23834C18.1368 5.88184 18.8469 5.28465 22.1557 5.28465C25.4484 5.28465 25.9648 5.88184 25.5291 8.23834L25.5129 8.36746C25.1094 10.7078 24.3831 11.3211 21.0743 11.3211Z" fill="white"/>
<path d="M29.3514 10.4173C29.1416 11.6278 29.0286 12.2896 28.8833 12.9997H31.0139C31.1107 12.2896 31.2237 11.6601 31.4497 10.4173L31.8209 8.28676C32.2405 5.97869 33.0153 5.31693 35.3556 5.31693C37.4377 5.31693 37.9058 5.81728 37.6153 7.47974L37.0988 10.4657C36.8728 11.6762 36.7921 12.1927 36.6307 12.9997H38.7451C38.9065 12.0152 39.0518 11.2889 39.1809 10.4173L39.5683 8.28676C39.9718 5.97869 40.7949 5.31693 43.103 5.31693C45.1851 5.31693 45.6693 5.81728 45.3788 7.47974L44.8461 10.4496C44.6363 11.6762 44.5556 12.1927 44.3781 12.9997H46.5086C46.67 12.0313 46.7991 11.305 46.9444 10.4496L47.0897 9.57799C47.3479 8.12535 47.5093 7.35062 47.6223 6.6243C48.0419 4.31623 47.1865 3.41237 44.023 3.41237C41.9732 3.41237 40.7304 3.97728 39.9556 5.10711C39.7135 3.89658 38.6321 3.41237 36.3402 3.41237C34.3388 3.41237 33.1121 3.92886 32.3051 4.97799L32.5149 3.60606H30.5458C30.449 4.23553 30.336 4.84886 30.1423 5.96255L29.3514 10.4173Z" fill="white"/>
<path d="M49.1064 12.9997C48.9289 13.9682 48.7836 14.7752 48.6868 15.2594H50.8335C50.9303 14.5815 51.1563 13.2741 51.4629 11.6117C52.0601 12.6608 53.3998 13.1934 55.724 13.1934C60.0819 13.1934 61.2763 12.1604 61.9219 8.545L62.0026 8.06079C62.6159 4.47764 61.4377 3.41237 57.1605 3.41237C54.8524 3.41237 53.4321 3.945 52.5282 4.99413L52.7703 3.60606H50.7528C50.6398 4.28395 50.5268 4.88114 50.3977 5.65588L49.1064 12.9997ZM52.0117 8.36746L52.044 8.23834C52.4314 5.97869 53.2061 5.31693 56.4503 5.31693C59.7107 5.31693 60.2594 5.89799 59.8559 8.23834L59.8236 8.36746C59.404 10.6917 58.6615 11.2889 55.3205 11.2889C52.157 11.2889 51.6082 10.6432 52.0117 8.36746Z" fill="white"/>
<path d="M63.73 10.2882C63.5202 11.4664 63.391 12.2573 63.2296 12.9997H65.3602C65.4731 12.2573 65.6184 11.4664 65.8121 10.3043L66.9903 3.6222C67.2002 2.47623 67.3454 1.60465 67.4907 0.926758H65.3602C65.2472 1.62079 65.1019 2.47623 64.9082 3.60606L63.73 10.2882Z" fill="white"/>
<path d="M73.7023 13.1934C78.5444 13.1934 79.4321 12.2573 79.8518 9.88465L77.7858 9.82009C77.5922 10.9176 77.1079 11.4341 73.7992 11.4341C70.6841 11.4341 70.0707 10.8854 70.3129 8.91623H80.0132C80.0616 8.67413 80.1262 8.3836 80.1746 8.06079C80.7234 4.59062 79.6258 3.41237 74.929 3.41237C70.216 3.41237 68.9571 4.47764 68.3276 8.06079L68.2469 8.545C67.6336 12.0152 68.9086 13.1934 73.7023 13.1934ZM74.8321 5.02641C77.8827 5.02641 78.3669 5.59132 78.1086 7.41518H70.5872C71.0392 5.52676 71.8623 5.02641 74.8321 5.02641Z" fill="white"/>
<path d="M83.0177 7.02781C82.8563 7.96395 82.6788 8.90009 82.5496 9.64255C82.0654 12.4025 83.0338 13.0804 86.9559 13.0804C87.6177 13.0804 88.1181 13.0482 88.7314 12.9997L89.0219 11.1759C88.3924 11.2243 88.0212 11.2404 87.3272 11.2404C84.9223 11.2404 84.4058 10.9983 84.7286 9.1422L85.3903 5.42992H90.0387L90.3616 3.60606H85.7131C85.8584 2.81518 85.9714 2.20185 86.0521 1.76606L83.9216 1.79834C83.8086 2.52465 83.7279 3.05728 83.6149 3.60606C83.0984 3.60606 82.5174 3.60606 81.9202 3.60606L81.5974 5.42992H83.3082L83.0177 7.02781Z" fill="white"/>
<path d="M96.3209 13.1934C101.163 13.1934 102.051 12.2573 102.47 9.88465L100.404 9.82009C100.211 10.9176 99.7265 11.4341 96.4177 11.4341C93.3026 11.4341 92.6893 10.8854 92.9314 8.91623H102.632C102.68 8.67413 102.745 8.3836 102.793 8.06079C103.342 4.59062 102.244 3.41237 97.5476 3.41237C92.8346 3.41237 91.5756 4.47764 90.9461 8.06079L90.8654 8.545C90.2521 12.0152 91.5272 13.1934 96.3209 13.1934ZM97.4507 5.02641C100.501 5.02641 100.985 5.59132 100.727 7.41518H93.2058C93.6577 5.52676 94.4809 5.02641 97.4507 5.02641Z" fill="white"/>
</svg>
