<svg width="1920" height="715" viewBox="0 0 1920 715" fill="none" xmlns="http://www.w3.org/2000/svg">
<g clip-path="url(#clip0_846_1295)">
<g opacity="0.15">
<path d="M1595.68 235.633C1566.74 237.053 1541.54 203.001 1539.4 159.58C1541.54 203.001 1519.81 239.356 1490.87 240.776C1519.81 239.356 1545 273.408 1547.14 316.829C1545 273.408 1566.74 237.053 1595.68 235.633Z" fill="#E965FF"/>
<path d="M1562.1 483.544L1678.16 273.991C1686.98 258.07 1707.04 252.313 1722.96 261.133L1932.54 377.214C1948.46 386.034 1954.22 406.09 1945.4 422.011L1829.34 631.564C1820.52 647.485 1800.47 653.242 1784.54 644.423L1574.97 528.341C1559.04 519.522 1553.28 499.465 1562.1 483.544Z" fill="#141517" stroke="url(#paint0_linear_846_1295)" stroke-width="3.12643"/>
<path d="M1692.01 582.942C1635.53 547.178 1596.58 537.142 1568.49 509.524L1710.94 467.896L1721.53 478.479C1722.84 479.793 1724.33 480.918 1725.96 481.821L1743.7 491.684L1692.01 582.942Z" fill="url(#paint1_linear_846_1295)"/>
<path d="M1817.58 324.137C1881.73 359.669 1907.39 370.936 1936.3 394.014L1782.94 446.684L1763.44 412.918L1817.58 324.137Z" fill="url(#paint2_linear_846_1295)"/>
<path d="M1705.27 473.55C1700.77 471.056 1699.14 465.384 1701.63 460.881L1732.97 404.302C1735.47 399.799 1741.14 398.171 1745.64 400.665L1802.23 432.007C1806.73 434.502 1808.36 440.174 1805.86 444.676L1774.53 501.256C1772.03 505.758 1766.36 507.386 1761.86 504.892L1705.27 473.55Z" fill="url(#paint3_linear_846_1295)"/>
<path d="M1329.67 390.187L767.828 584.613L752.635 489.161L1319.65 292.945L1329.67 390.187Z" fill="url(#paint4_linear_846_1295)" stroke="url(#paint5_linear_846_1295)" stroke-width="2.57571"/>
<path d="M1183.8 334.735L621.96 529.162L606.768 433.71L1173.78 237.493L1183.8 334.735Z" fill="url(#paint6_linear_846_1295)" stroke="url(#paint7_linear_846_1295)" stroke-width="2.57571"/>
<path d="M848.974 523.31L848.034 517.28C844.329 518.614 837.027 521.141 832.097 522.847L821.446 526.533L817.828 503.875C817.347 501.281 817.045 499.354 816.806 497.457L810.527 499.63C810.859 501.494 811.161 503.422 811.595 506.032L814.928 526.809C815.466 530.322 815.816 532.388 816.137 534.673L848.974 523.31Z" fill="white"/>
<path d="M848.681 484.812L849.452 489.754L855.592 487.629L854.773 482.704L848.681 484.812ZM853.25 513.079C853.819 516.684 854.236 519.093 854.511 521.394L860.65 519.269C860.236 517.017 859.866 514.592 859.265 511.049L857.305 498.757C856.721 495.261 856.333 492.634 856.03 490.551L849.937 492.66C850.333 494.71 850.737 497.383 851.305 500.833L853.25 513.079Z" fill="white"/>
<path d="M867.045 508.722C867.648 512.42 867.982 514.44 868.271 516.632L874.41 514.508C873.981 512.364 873.68 510.437 873.092 506.629L872.037 500.118C870.946 493.047 872.518 490.367 879.262 488.033C885.262 485.957 887.11 486.932 887.93 492.014L889.419 501.136C889.974 504.85 890.257 506.419 890.596 508.906L896.689 506.798C896.172 503.799 895.867 501.561 895.37 498.92L894.362 492.393C893.224 485.337 894.936 482.609 901.587 480.308C907.587 478.231 909.481 479.191 910.301 484.272L911.727 493.364C912.346 497.108 912.628 498.678 912.921 501.181L919.06 499.056C918.56 496.104 918.208 493.882 917.774 491.271L917.323 488.614C916.619 484.169 916.312 481.775 915.914 479.569C914.822 472.498 911.456 470.746 902.34 473.9C896.433 475.944 893.415 478.812 892.309 482.841C890.404 479.593 886.805 479.276 880.201 481.562C874.434 483.557 871.414 486.269 870.134 490.098L869.371 485.934L863.697 487.898C864.045 489.809 864.331 491.69 864.883 495.093L867.045 508.722Z" fill="white"/>
<path d="M920.762 459.868L921.534 464.81L927.674 462.685L926.855 457.759L920.762 459.868ZM925.331 488.135C925.901 491.74 926.318 494.149 926.593 496.45L932.732 494.325C932.317 492.072 931.948 489.648 931.347 486.105L929.387 473.813C928.803 470.317 928.415 467.69 928.111 465.607L922.018 467.716C922.415 469.766 922.819 472.439 923.387 475.889L925.331 488.135Z" fill="white"/>
<path d="M939.19 472.817C939.658 475.676 940.08 478.551 940.448 480.82C941.804 489.258 945.27 490.247 956.572 486.336C958.479 485.676 959.889 485.084 961.608 484.333L960.627 478.786C958.861 479.553 957.808 479.97 955.808 480.662C948.878 483.06 947.148 482.877 946.228 477.205L944.434 465.845L957.829 461.21L956.941 455.631L943.546 460.266C943.176 457.842 942.89 455.961 942.688 454.624L936.581 456.842C936.98 459.048 937.278 460.664 937.499 462.358C936.011 462.873 934.337 463.453 932.616 464.048L933.504 469.627L938.434 467.921L939.19 472.817Z" fill="white"/>
<path d="M965.891 474.099C966.461 477.704 966.878 480.113 967.153 482.414L973.292 480.289C972.878 478.036 972.508 475.612 971.907 472.069L968.641 451.634C968.103 448.121 967.653 445.464 967.396 443.366L961.256 445.49C961.623 447.603 962.057 450.214 962.625 453.664L965.891 474.099Z" fill="white"/>
<path d="M997.524 472.529C1011.48 467.7 1013.1 464.117 1011.95 456.859L1005.93 458.733C1006.46 462.09 1005.58 464.062 996.049 467.361C987.073 470.467 984.758 469.497 983.493 463.58L1011.45 453.907C1011.34 453.161 1011.24 452.259 1011.06 451.28C1009.18 440.731 1004.84 438.429 991.308 443.113C977.727 447.812 975.161 452.138 976.919 463.094L977.17 464.57C978.862 475.184 983.711 477.309 997.524 472.529ZM992.638 447.861C1001.43 444.819 1003.39 445.965 1004.46 451.48L982.787 458.98C982.207 453.086 984.08 450.823 992.638 447.861Z" fill="white"/>
<path d="M1034.69 459.666C1048.37 454.934 1049.4 452.65 1048.4 446.434C1047.47 440.606 1044.65 438.77 1031.35 442.174C1021.53 444.636 1020.68 443.836 1020.26 441.584C1019.88 439.58 1021.06 438.181 1029.06 435.412C1037.39 432.531 1038.8 433.138 1039.2 435.811L1039.27 436.464L1045.32 434.216C1044.18 427.317 1041.03 425.905 1027.78 430.492C1015.13 434.87 1013.57 437.596 1014.54 443.719C1015.48 449.593 1018.27 451.181 1030.45 448.007C1040.94 445.366 1041.89 446.134 1042.32 448.589C1042.72 450.795 1041.94 452.003 1033.43 454.948C1024.03 458.199 1022.64 457.639 1022.09 454.236L1021.94 453.506L1016.03 455.705C1017.37 463.941 1020.79 464.479 1034.69 459.666Z" fill="white"/>
<path d="M1070.57 447.249C1084.25 442.517 1085.28 440.233 1084.28 434.017C1083.36 428.189 1080.53 426.353 1067.23 429.757C1057.41 432.219 1056.56 431.419 1056.14 429.167C1055.76 427.163 1056.95 425.764 1064.95 422.995C1073.27 420.114 1074.68 420.721 1075.08 423.394L1075.15 424.047L1081.2 421.799C1080.06 414.9 1076.92 413.488 1063.66 418.075C1051.01 422.452 1049.45 425.179 1050.43 431.302C1051.36 437.176 1054.15 438.764 1066.33 435.59C1076.83 432.949 1077.77 433.717 1078.2 436.172C1078.6 438.378 1077.82 439.585 1069.31 442.531C1059.91 445.782 1058.52 445.222 1057.97 441.819L1057.82 441.089L1051.92 443.288C1053.25 451.524 1056.67 452.062 1070.57 447.249Z" fill="white"/>
<path d="M1107.56 414.551C1108.03 417.41 1108.45 420.285 1108.82 422.554C1110.18 430.993 1113.64 431.981 1124.94 428.07C1126.85 427.41 1128.26 426.818 1129.98 426.067L1129 420.52C1127.23 421.287 1126.18 421.704 1124.18 422.396C1117.25 424.794 1115.52 424.611 1114.6 418.939L1112.81 407.579L1126.2 402.944L1125.31 397.365L1111.92 402C1111.55 399.576 1111.26 397.695 1111.06 396.358L1104.95 398.576C1105.35 400.782 1105.65 402.398 1105.87 404.092C1104.38 404.607 1102.71 405.187 1100.99 405.782L1101.88 411.361L1106.81 409.655L1107.56 414.551Z" fill="white"/>
<path d="M1134.21 416.27C1134.81 419.968 1135.14 421.988 1135.43 424.18L1141.57 422.055C1141.14 419.912 1140.84 417.985 1140.25 414.177L1139.27 408.163C1138.01 400.316 1139.63 397.931 1147.26 395.291C1154.75 392.7 1155.86 393.512 1156.68 398.594L1156.8 399.542L1162.63 397.421C1162.45 396.287 1162.33 395.494 1162.23 394.593C1160.94 386.652 1158.43 385.279 1148.34 388.772C1142.2 390.896 1138.78 393.799 1137.31 397.848L1136.53 393.482L1130.86 395.446C1131.21 397.357 1131.49 399.237 1132.04 402.641L1134.21 416.27Z" fill="white"/>
<path d="M1183.68 408.109C1191.12 405.534 1194.76 402.66 1196.19 399.405L1196.83 402.932L1202.32 401.033C1201.66 397.148 1201.25 394.631 1200.8 391.662C1200.06 387.125 1199.84 385.43 1199.22 381.53C1198.15 374.816 1194.58 372.77 1180.58 377.615C1167.79 382.041 1165.66 385.537 1166.81 392.016L1172.67 390.144C1172.14 387.098 1172.94 385.782 1181.87 382.691C1191.03 379.521 1192.64 380.421 1193.38 384.958L1193.91 388.315C1191.56 387.096 1187.51 387.407 1180.58 389.805C1168.53 393.974 1166.48 397.546 1167.51 404.12C1168.59 410.569 1171.54 412.31 1183.68 408.109ZM1184.94 402.413C1175.96 405.519 1174.12 405.011 1173.6 401.856C1173.07 398.655 1173.98 396.932 1183.61 393.601C1192.86 390.398 1194.54 391.173 1194.84 393.255L1195.06 394.483C1195.53 397.342 1194.24 399.194 1184.94 402.413Z" fill="white"/>
<path d="M1226.25 393.376C1239.93 388.644 1241.94 384.511 1240.56 375.715L1234.56 377.635C1235.31 382.22 1233.83 384.712 1224.67 387.882C1215.32 391.118 1213.31 389.833 1212.14 382.684L1212.06 382.296C1210.92 375.085 1212.37 372.656 1221.72 369.421C1230.88 366.25 1232.86 367.598 1233.59 372.135L1233.58 372.089L1239.53 369.873C1238.12 360.828 1233.85 359.179 1220.18 363.911C1206.69 368.579 1204.12 372.905 1205.88 383.861L1206.13 385.337C1207.89 396.293 1212.81 398.027 1226.25 393.376Z" fill="white"/>
<path d="M1247.04 376.806C1247.61 380.411 1248.03 382.819 1248.3 385.12L1254.44 382.996C1254.03 380.743 1253.66 378.319 1253.06 374.776L1252.52 371.264L1259.45 368.865C1261.05 369.719 1262.86 370.602 1264.72 371.468L1274.44 376.075L1282.02 373.452L1282.08 373.326C1277.3 371.076 1268.97 367.03 1263.63 364.397C1267.55 358.561 1273.35 350.042 1276.88 345.02L1276.75 344.959L1268.98 347.647L1262.84 356.544C1261.24 358.819 1259.64 361.141 1258.24 363.243L1251.58 365.545L1249.79 354.341C1249.25 350.828 1248.8 348.171 1248.55 346.072L1242.41 348.197C1242.77 350.31 1243.21 352.921 1243.78 356.37L1247.04 376.806Z" fill="white"/>
<path d="M661.597 474.004C662.101 477.267 662.403 479.194 662.79 481.821L682.325 475.061C698.603 469.428 701.207 464.308 699.113 451.176L698.995 450.383C696.861 437.891 691.458 434.916 675.226 440.533L657.18 446.778C657.578 448.984 657.83 450.616 658.248 453.18L661.597 474.004ZM676.938 446.087C688.752 441.999 691.245 443.637 692.718 452.712L692.786 453.209C694.211 462.301 692.519 465.387 680.659 469.491L668.101 473.837L664.334 450.449L676.938 446.087Z" fill="white"/>
<path d="M702.328 429.539L703.1 434.481L709.239 432.357L708.421 427.431L702.328 429.539ZM706.897 457.806C707.467 461.412 707.884 463.82 708.159 466.121L714.298 463.997C713.883 461.744 713.514 459.32 712.913 455.777L710.953 443.484C710.369 439.988 709.981 437.361 709.677 435.279L703.584 437.387C703.981 439.438 704.385 442.111 704.953 445.561L706.897 457.806Z" fill="white"/>
<path d="M737.228 456.687C750.902 451.955 751.934 449.67 750.93 443.454C750.008 437.627 747.186 435.79 733.886 439.195C724.061 441.657 723.212 440.857 722.797 438.604C722.417 436.6 723.599 435.201 731.599 432.433C739.924 429.552 741.332 430.159 741.736 432.832L741.805 433.485L747.85 431.237C746.714 424.337 743.569 422.925 730.314 427.512C717.663 431.89 716.106 434.617 717.078 440.74C718.016 446.614 720.805 448.201 732.987 445.028C743.478 442.387 744.421 443.154 744.853 445.609C745.252 447.816 744.472 449.023 735.96 451.969C726.565 455.22 725.174 454.659 724.622 451.256L724.473 450.526L718.568 452.726C719.906 460.962 723.321 461.499 737.228 456.687Z" fill="white"/>
<path d="M774.179 443.9C787.853 439.168 789.861 435.035 788.485 426.239L782.484 428.159C783.236 432.744 781.754 435.236 772.592 438.406C763.243 441.642 761.237 440.357 760.066 433.208L759.984 432.82C758.844 425.609 760.295 423.18 769.644 419.945C778.806 416.774 780.782 418.122 781.519 422.659L781.503 422.613L787.454 420.397C786.044 411.352 781.777 409.703 768.103 414.435C754.615 419.103 752.049 423.429 753.807 434.385L754.057 435.861C755.816 446.817 760.738 448.551 774.179 443.9Z" fill="white"/>
<path d="M812.607 430.602C826.467 425.805 828.893 421.528 827.135 410.572L826.885 409.096C825.127 398.14 820.483 396.309 806.67 401.089C792.81 405.885 790.383 410.163 792.142 421.119L792.392 422.595C794.15 433.551 798.793 435.382 812.607 430.602ZM811.066 425.092C801.578 428.376 799.571 427.091 798.401 419.943L798.319 419.554C797.179 412.343 798.63 409.914 808.164 406.614C817.652 403.331 819.736 404.537 820.83 411.764L820.912 412.153C822.082 419.301 820.601 421.793 811.066 425.092Z" fill="white"/>
<path d="M853.966 415.664C856.007 407.561 860.417 390.199 862.508 382.391L855.578 384.789L852.066 399.027C851.039 403.133 850.074 407.27 849.274 410.829L845.971 411.971C844.167 409.314 842 406.209 839.864 403.198L832.462 392.788L826.044 395.01C830.232 400.645 839.784 413.956 843.548 419.269L853.966 415.664Z" fill="white"/>
<path d="M886.645 404.981C900.598 400.152 902.223 396.568 901.067 389.311L895.049 391.185C895.585 394.542 894.705 396.513 885.17 399.813C876.194 402.919 873.879 401.949 872.614 396.032L900.567 386.359C900.465 385.613 900.361 384.711 900.179 383.732C898.301 373.182 893.963 370.881 880.429 375.564C866.848 380.264 864.282 384.59 866.04 395.546L866.29 397.022C867.983 407.636 872.832 409.761 886.645 404.981ZM881.759 380.313C890.549 377.271 892.508 378.417 893.582 383.931L871.908 391.432C871.328 385.538 873.201 383.275 881.759 380.313Z" fill="white"/>
<path d="M907.279 388.88C907.881 392.579 908.215 394.599 908.505 396.791L914.644 394.666C914.215 392.523 913.913 390.596 913.325 386.788L912.339 380.774C911.083 372.926 912.706 370.542 920.333 367.902C927.822 365.311 928.936 366.123 929.756 371.205L929.876 372.153L935.704 370.032C935.52 368.898 935.402 368.105 935.298 367.203C934.01 359.262 931.504 357.89 921.411 361.382C915.272 363.507 911.85 366.41 910.386 370.459L909.605 366.093L903.931 368.057C904.279 369.968 904.565 371.848 905.117 375.251L907.279 388.88Z" fill="white"/>
<path d="M980.494 372.191C982.796 363.789 987.546 346.206 989.776 338.349L983.032 340.683L979.326 354.207C978.413 357.44 977.563 360.704 976.818 363.67L974.306 364.539C972.43 362.428 970.334 360.132 968.317 357.913L959.87 348.699L953.266 350.984C958.354 356.36 967.18 366.068 971.704 371.17L975.053 370.011L974.604 371.573C973.618 375.196 972.788 376.108 969.997 377.074C968.183 377.702 966.586 378.202 964.693 378.753L965.44 384.225C967.365 383.767 969.722 383.055 971.071 382.589C976.699 380.641 978.865 378.172 980.494 372.191Z" fill="white"/>
<path d="M1013.77 360.988C1027.63 356.191 1030.06 351.914 1028.3 340.958L1028.05 339.482C1026.29 328.526 1021.65 326.695 1007.84 331.475C993.976 336.271 991.549 340.549 993.308 351.505L993.558 352.981C995.316 363.937 999.959 365.768 1013.77 360.988ZM1012.23 355.478C1002.74 358.762 1000.74 357.477 999.567 350.328L999.484 349.94C998.344 342.729 999.796 340.3 1009.33 337C1018.82 333.717 1020.9 334.923 1022 342.15L1022.08 342.538C1023.25 349.687 1021.77 352.179 1012.23 355.478Z" fill="white"/>
<path d="M1033.47 334.69C1033.97 337.954 1034.17 339.291 1034.52 341.513C1035.82 349.765 1039.44 352.106 1051.21 348.034C1057.44 345.877 1060.92 342.849 1062.45 338.83L1063.24 343.243L1068.92 341.279C1068.55 339.322 1068.28 337.488 1067.73 334.084L1065.57 320.455C1064.95 316.71 1064.63 314.737 1064.34 312.545L1058.2 314.669C1058.63 316.813 1058.94 318.74 1059.52 322.548L1060.58 329.059C1061.7 336.068 1060.05 338.826 1051.77 341.691C1043.07 344.701 1041.16 343.072 1040.14 336.81L1038.98 329.553C1038.33 325.559 1038.08 324.083 1037.79 321.735L1031.65 323.86C1032.11 326.252 1032.46 328.319 1032.98 331.629L1033.47 334.69Z" fill="white"/>
<path d="M1075.24 330.756C1075.84 334.454 1076.18 336.474 1076.47 338.666L1082.61 336.542C1082.18 334.398 1081.88 332.471 1081.29 328.664L1080.3 322.65C1079.05 314.802 1080.67 312.417 1088.3 309.778C1095.79 307.186 1096.9 307.999 1097.72 313.08L1097.84 314.029L1103.67 311.908C1103.48 310.773 1103.37 309.981 1103.26 309.079C1101.97 301.138 1099.47 299.765 1089.38 303.258C1083.24 305.382 1079.81 308.286 1078.35 312.335L1077.57 307.969L1071.89 309.932C1072.24 311.843 1072.53 313.724 1073.08 317.127L1075.24 330.756Z" fill="white"/>
<path d="M225.288 605.864C244.605 507.929 340.105 444.291 438.617 463.729C537.128 483.167 601.309 578.314 581.993 676.249L579.01 691.369L400.658 656.176L222.305 620.984L225.288 605.864Z" fill="#0D0E11" stroke="url(#paint8_linear_846_1295)" stroke-width="2.00027"/>
<path d="M248.975 608.332C257.124 567.021 281.344 530.639 316.31 507.19C351.275 483.741 394.12 475.146 435.42 483.295C476.719 491.445 513.091 515.671 536.532 550.645C559.974 585.618 568.566 628.475 560.417 669.786L404.696 639.059L248.975 608.332Z" fill="url(#paint9_linear_846_1295)"/>
<path d="M518.295 661.48C524.306 631.004 517.968 599.389 500.675 573.589C483.382 547.788 456.55 529.917 426.083 523.905C395.616 517.893 364.009 524.234 338.215 541.532C312.421 558.83 294.553 585.669 288.542 616.145L403.419 638.812L518.295 661.48Z" fill="url(#paint10_linear_846_1295)"/>
<path d="M460.733 650.786C463.772 635.379 460.568 619.395 451.825 606.352C443.083 593.309 429.518 584.273 414.115 581.234C398.713 578.195 382.733 581.4 369.693 590.146C356.653 598.891 347.62 612.459 344.581 627.866L402.657 639.326L460.733 650.786Z" fill="url(#paint11_linear_846_1295)"/>
<path d="M576.789 586.804L559.078 593.618L499.301 616.613" stroke="#5200FF" stroke-width="1.33351"/>
<rect width="48.3803" height="15.1208" rx="2.00027" transform="matrix(0.936506 -0.350547 0.350386 0.936645 476.711 616.832)" fill="#5200FF"/>
<path d="M190.727 447.514C134.694 443.812 15.498 462.507 -30.3565 473.959L-17.3199 526.097C181.864 462.204 227.704 512.557 224.534 545.782L289.402 515.871C273.873 457.796 251.442 451.524 190.727 447.514Z" fill="#5200FF"/>
<path fill-rule="evenodd" clip-rule="evenodd" d="M-35.4641 470.894L-31.3733 469.872C-8.2358 464.094 33.197 456.532 75.8184 450.878C118.373 445.233 162.541 441.43 191.009 443.311C221.174 445.303 243.049 447.865 259.224 457.832C275.744 468.013 285.619 485.394 293.477 514.786L294.395 518.217L219.646 552.684L220.342 545.385C221.031 538.163 219.08 529.907 212.853 522.4C206.606 514.871 195.836 507.841 178.497 503.62C143.678 495.144 83.3298 498.244 -16.0287 530.116L-20.3129 531.49L-35.4641 470.894ZM-25.2341 477.057L-14.3162 520.722C83.0068 489.962 143.921 486.525 180.491 495.428C199.114 499.962 211.658 507.757 219.34 517.016C225.175 524.05 228.076 531.782 228.748 539.202L284.394 513.543C276.919 487.091 268.002 473.145 254.803 465.011C240.701 456.322 221.003 453.742 190.453 451.724C162.888 449.903 119.441 453.597 76.9266 459.237C36.9187 464.544 -1.88474 471.522 -25.2341 477.057Z" fill="url(#paint12_linear_846_1295)"/>
<path d="M267.754 394.168L-16.6979 525.329L-30.6489 473.857L256.422 341.487L267.754 394.168Z" fill="#5200FF"/>
<path fill-rule="evenodd" clip-rule="evenodd" d="M-35.6459 471.518L259.439 335.453L272.588 396.58L-19.4581 531.244L-35.6459 471.518ZM-25.6456 476.191L-13.9315 519.411L262.926 391.751L253.411 347.517L-25.6456 476.191Z" fill="url(#paint13_linear_846_1295)"/>
<path d="M401.14 391.136C386.744 386.713 380.45 365.616 387.083 344.016C380.45 365.616 363.402 379.541 349.006 375.119C363.402 379.541 369.696 400.639 363.063 422.238C369.696 400.639 386.744 386.713 401.14 391.136Z" fill="#43FF8E"/>
<path d="M142.628 230.629C118.475 239.182 88.4927 216.736 75.6654 180.496C88.4927 216.736 79.3102 253.053 55.1568 261.606C79.3102 253.053 109.292 275.499 122.12 311.739C109.292 275.499 118.475 239.182 142.628 230.629Z" fill="#5200FF"/>
<circle cx="96.6736" cy="96.6736" r="96.6736" transform="matrix(0.937695 -0.34749 0.347317 0.937737 1262.95 346.96)" fill="#0D0E11"/>
<path d="M1347.35 493.632C1314.27 478.438 1303.64 453.799 1297.59 439.495L1361.95 415.272L1362.95 417.537C1365.26 422.738 1369.38 426.917 1374.55 429.292L1376.95 430.394L1347.35 493.632Z" fill="url(#paint14_linear_846_1295)"/>
<path d="M1428.54 316.89C1461.62 332.083 1472.25 356.722 1478.3 371.026L1409.89 397.229L1398.98 381.242L1428.54 316.89Z" fill="url(#paint15_linear_846_1295)"/>
<circle cx="101.229" cy="101.229" r="99.405" transform="matrix(0.937695 -0.34749 0.347317 0.937737 1257.05 344.747)" stroke="url(#paint16_linear_846_1295)" stroke-width="3.64771"/>
<circle cx="27.9252" cy="27.9252" r="27.9252" transform="matrix(0.937695 -0.34749 0.347317 0.937737 1351.89 388.312)" fill="url(#paint17_linear_846_1295)"/>
</g>
</g>
<defs>
<linearGradient id="paint0_linear_846_1295" x1="1697.47" y1="256.782" x2="1809.99" y2="648.788" gradientUnits="userSpaceOnUse">
<stop offset="0.104167" stop-color="#E965FF"/>
<stop offset="0.489583" stop-color="#5200FF"/>
<stop offset="0.890625" stop-color="#43FF8E"/>
</linearGradient>
<linearGradient id="paint1_linear_846_1295" x1="1694.6" y1="578.262" x2="1638.67" y2="476.077" gradientUnits="userSpaceOnUse">
<stop stop-color="#1E2025"/>
<stop offset="1" stop-color="#1E2025" stop-opacity="0"/>
</linearGradient>
<linearGradient id="paint2_linear_846_1295" x1="1807.73" y1="332.958" x2="1863.67" y2="435.143" gradientUnits="userSpaceOnUse">
<stop stop-color="#2E3138"/>
<stop offset="1" stop-color="#1E2025" stop-opacity="0"/>
</linearGradient>
<linearGradient id="paint3_linear_846_1295" x1="1738.55" y1="399.86" x2="1768.93" y2="505.701" gradientUnits="userSpaceOnUse">
<stop offset="0.31669" stop-color="#E965FF"/>
<stop offset="1" stop-color="#E965FF" stop-opacity="0"/>
</linearGradient>
<linearGradient id="paint4_linear_846_1295" x1="1028.18" y1="393.807" x2="1349.94" y2="332.851" gradientUnits="userSpaceOnUse">
<stop offset="0.64073" stop-color="#5200FF"/>
<stop offset="1" stop-color="#43FF8E"/>
</linearGradient>
<linearGradient id="paint5_linear_846_1295" x1="1312.79" y1="345.886" x2="482.397" y2="637.613" gradientUnits="userSpaceOnUse">
<stop stop-color="#43FF8E"/>
<stop offset="0.526042" stop-color="#5200FF"/>
</linearGradient>
<linearGradient id="paint6_linear_846_1295" x1="539.933" y1="432.529" x2="1225.01" y2="270.208" gradientUnits="userSpaceOnUse">
<stop stop-color="#E965FF"/>
<stop offset="0.223958" stop-color="#5200FF"/>
</linearGradient>
<linearGradient id="paint7_linear_846_1295" x1="1252.19" y1="260.927" x2="643.286" y2="474.843" gradientUnits="userSpaceOnUse">
<stop offset="0.520833" stop-color="#5200FF"/>
<stop offset="1" stop-color="#E965FF"/>
</linearGradient>
<linearGradient id="paint8_linear_846_1295" x1="315.607" y1="475.577" x2="574.014" y2="722.134" gradientUnits="userSpaceOnUse">
<stop stop-color="#43FF8E"/>
<stop offset="0.364583" stop-color="#E965FF"/>
<stop offset="0.692708" stop-color="#5703FF"/>
</linearGradient>
<linearGradient id="paint9_linear_846_1295" x1="253.989" y1="582.912" x2="565.436" y2="644.343" gradientUnits="userSpaceOnUse">
<stop stop-color="#0D0E11"/>
<stop offset="1" stop-color="#292B32"/>
</linearGradient>
<linearGradient id="paint10_linear_846_1295" x1="521.994" y1="642.727" x2="292.238" y2="597.41" gradientUnits="userSpaceOnUse">
<stop stop-color="#0D0E11"/>
<stop offset="0.609375" stop-color="#292B32"/>
</linearGradient>
<linearGradient id="paint11_linear_846_1295" x1="414.115" y1="581.234" x2="391.19" y2="697.416" gradientUnits="userSpaceOnUse">
<stop offset="0.078125" stop-color="#5200FF"/>
<stop offset="0.463542" stop-color="#0D0E11"/>
</linearGradient>
<linearGradient id="paint12_linear_846_1295" x1="116.042" y1="474.138" x2="257.478" y2="530.82" gradientUnits="userSpaceOnUse">
<stop stop-color="#5200FF"/>
<stop offset="0.885209" stop-color="#E965FF"/>
</linearGradient>
<linearGradient id="paint13_linear_846_1295" x1="248.159" y1="358.001" x2="-9.55211" y2="493.132" gradientUnits="userSpaceOnUse">
<stop stop-color="#43FF8E"/>
<stop offset="1" stop-color="#5200FF"/>
</linearGradient>
<linearGradient id="paint14_linear_846_1295" x1="1357.97" y1="470.519" x2="1326.46" y2="422.03" gradientUnits="userSpaceOnUse">
<stop stop-color="#1E2025"/>
<stop offset="1" stop-color="#1E2025" stop-opacity="0"/>
</linearGradient>
<linearGradient id="paint15_linear_846_1295" x1="1417.92" y1="340.002" x2="1449.43" y2="388.491" gradientUnits="userSpaceOnUse">
<stop stop-color="#2E3138"/>
<stop offset="1" stop-color="#1E2025" stop-opacity="0"/>
</linearGradient>
<linearGradient id="paint16_linear_846_1295" x1="101.229" y1="0" x2="101.229" y2="202.458" gradientUnits="userSpaceOnUse">
<stop stop-color="#43FF8E"/>
<stop offset="0.489583" stop-color="#5200FF"/>
<stop offset="1" stop-color="#E965FF"/>
</linearGradient>
<linearGradient id="paint17_linear_846_1295" x1="27.9252" y1="0" x2="27.9252" y2="55.8504" gradientUnits="userSpaceOnUse">
<stop stop-color="#43FF8E"/>
<stop offset="1" stop-color="#43FF8E" stop-opacity="0"/>
</linearGradient>
<clipPath id="clip0_846_1295">
<rect width="1920" height="715" fill="white"/>
</clipPath>
</defs>
</svg>
