<svg width="115" height="42" viewBox="0 0 115 42" fill="none" xmlns="http://www.w3.org/2000/svg">
<path d="M52.032 28H61.072C64.552 28 66.772 26.58 66.772 24.18V23.88C66.772 22.58 65.972 21.32 64.152 20.94V20.88C65.512 20.54 66.272 19.62 66.272 18.28V17.92C66.272 15.6 64.312 14.48 61.072 14.48H52.032V28ZM64.432 18.24C64.432 19.44 63.612 20.12 60.792 20.12H53.832V16H60.792C63.612 16 64.432 16.66 64.432 17.86V18.24ZM64.932 24.26C64.932 25.64 63.772 26.48 60.792 26.48H53.832V21.64H60.792C63.772 21.64 64.932 22.5 64.932 23.84V24.26ZM81.4544 28.1V21.3C81.4544 18.66 80.0544 16.96 75.3744 17C72.9944 17.02 71.1144 17.26 69.2544 17.72L69.7344 19.24C71.4944 18.8 73.4944 18.52 75.4944 18.52C78.6944 18.52 79.6744 19.2 79.6744 21.32V21.92C78.3144 21.46 76.1144 21.2 74.7344 21.2H74.0544C69.7744 21.2 68.6544 22.56 68.6544 24.5V24.82C68.6544 26.72 70.3144 28.1 74.0744 28.1H74.7344C76.4944 28.1 78.4544 27.64 79.6744 26.7V28.1H81.4544ZM74.0544 26.58C71.1544 26.58 70.4344 25.8 70.4344 24.82V24.4C70.4344 23.42 71.1544 22.72 74.0544 22.72H74.7344C76.4144 22.72 78.1944 22.92 79.6744 23.48V25.24C78.3344 26.14 76.4544 26.58 74.7344 26.58H74.0544ZM85.905 22.14C85.905 19.78 87.305 18.52 90.625 18.52H91.485C93.485 18.52 95.425 18.76 97.125 19.24L97.605 17.72C95.745 17.26 93.865 17 91.485 17H90.685C86.645 17 84.125 18.74 84.125 22.14V22.96C84.125 26.36 86.645 28.1 90.685 28.1H91.485C93.865 28.1 95.945 27.84 97.805 27.38L97.325 25.86C95.625 26.34 93.485 26.58 91.485 26.58H90.625C87.305 26.58 85.905 25.32 85.905 22.96V22.14ZM100.196 13.44V28H101.976V13.44H100.196ZM114.896 27.92L105.596 22.2L114.216 17.08V17H111.676L102.796 22.2L112.356 28H114.896V27.92Z" fill="white"/>
<path d="M33.5 41C33.5 35 27 22.6 1 21" stroke="white" stroke-width="2" stroke-linecap="round"/>
<path d="M33.5 1C33.5 7 27 19.4 1 21" stroke="white" stroke-width="2" stroke-linecap="round"/>
</svg>
