<svg width="619" height="215" viewBox="0 0 619 215" fill="none" xmlns="http://www.w3.org/2000/svg">
<g clip-path="url(#clip0_2206_33340)">
<path d="M410.766 110.423L411.066 108.723C413.891 108.748 418.241 108.748 420.441 108.748C426.566 108.748 428.116 106.948 428.866 102.698C429.591 98.4479 427.966 96.6729 421.841 96.6729H409.816C409.641 97.7229 409.441 98.8229 409.191 100.373L407.441 110.398C407.116 112.173 406.916 113.248 406.691 114.423H410.066C410.266 113.223 410.441 112.198 410.766 110.423ZM421.666 99.5729C425.116 99.5729 425.816 100.398 425.416 102.698C425.016 104.998 424.016 105.798 420.566 105.798H411.566L412.666 99.5729H421.666Z" fill="#43FF8E"/>
<path d="M430.459 110.423C430.134 112.298 429.959 113.323 429.734 114.423H433.034C433.184 113.323 433.359 112.348 433.709 110.423L434.234 107.373C434.934 103.398 436.109 102.523 440.209 102.523C444.234 102.523 444.634 103.098 444.184 105.673L444.084 106.148L447.234 106.098C447.334 105.523 447.409 105.123 447.509 104.673C448.209 100.648 447.234 99.5729 441.809 99.5729C438.509 99.5729 436.384 100.398 435.009 102.098L435.359 99.8729H432.309C432.159 100.848 431.984 101.798 431.684 103.523L430.459 110.423Z" fill="#43FF8E"/>
<path d="M457.429 114.723C464.879 114.723 466.754 113.073 467.729 107.523L467.854 106.773C468.829 101.223 466.904 99.5729 459.479 99.5729C452.029 99.5729 450.154 101.223 449.179 106.773L449.054 107.523C448.079 113.073 450.004 114.723 457.429 114.723ZM457.604 111.823C452.504 111.823 451.754 110.873 452.379 107.248L452.404 107.048C453.054 103.398 454.154 102.473 459.279 102.473C464.379 102.473 465.179 103.398 464.504 107.048L464.479 107.248C463.854 110.873 462.729 111.823 457.604 111.823Z" fill="#43FF8E"/>
<path d="M477.574 114.723C481.174 114.723 483.374 113.873 484.774 112.223L484.424 114.423H487.499C487.699 113.198 487.849 112.348 488.174 110.423L490.024 99.8729C490.349 98.0729 490.574 96.7729 490.799 95.7229H487.449C487.299 96.7729 486.849 99.4479 486.399 101.998C485.449 100.398 483.374 99.5729 479.774 99.5729C473.049 99.5729 471.174 101.173 470.199 106.773L470.074 107.523C469.099 113.073 470.949 114.723 477.574 114.723ZM478.674 111.773C473.599 111.773 472.774 110.848 473.399 107.248L473.424 107.048C474.074 103.423 475.249 102.523 480.424 102.523C485.324 102.523 486.174 103.523 485.549 107.048L485.499 107.248C484.874 110.748 483.674 111.773 478.674 111.773Z" fill="#43FF8E"/>
<path d="M493.1 105.373C492.8 107.023 492.675 107.698 492.475 108.823C491.725 112.998 493.075 114.723 499.4 114.723C502.75 114.723 504.925 113.848 506.325 112.173L505.975 114.423H509.025C509.175 113.423 509.35 112.498 509.65 110.773L510.875 103.873C511.2 101.973 511.375 100.973 511.6 99.8729H508.3C508.15 100.973 507.975 101.948 507.625 103.873L507.05 107.173C506.425 110.723 505.175 111.773 500.725 111.773C496.05 111.773 495.4 110.673 495.95 107.498L496.6 103.823C496.95 101.798 497.075 101.048 497.325 99.8729H494.025C493.85 101.098 493.675 102.148 493.375 103.823L493.1 105.373Z" fill="#43FF8E"/>
<path d="M521.783 114.723C529.133 114.723 530.783 113.073 531.583 108.623L528.383 108.548C527.983 110.873 526.858 111.823 521.933 111.823C516.908 111.823 516.158 110.873 516.783 107.248L516.808 107.048C517.458 103.398 518.558 102.473 523.583 102.473C528.508 102.473 529.233 103.448 528.833 105.748V105.723L532.058 105.648C532.883 101.073 531.108 99.5729 523.758 99.5729C516.508 99.5729 514.558 101.223 513.583 106.773L513.458 107.523C512.483 113.073 514.558 114.723 521.783 114.723Z" fill="#43FF8E"/>
<path d="M542.514 114.723C550.014 114.723 551.389 113.273 552.039 109.598L548.839 109.498C548.539 111.198 547.789 111.998 542.664 111.998C537.839 111.998 536.889 111.148 537.264 108.098H552.289C552.364 107.723 552.464 107.273 552.539 106.773C553.389 101.398 551.689 99.5729 544.414 99.5729C537.114 99.5729 535.164 101.223 534.189 106.773L534.064 107.523C533.114 112.898 535.089 114.723 542.514 114.723ZM544.264 102.073C548.989 102.073 549.739 102.948 549.339 105.773H537.689C538.389 102.848 539.664 102.073 544.264 102.073Z" fill="#43FF8E"/>
<path d="M555.092 110.423C554.767 112.298 554.592 113.323 554.367 114.423H557.667C557.817 113.323 557.992 112.348 558.342 110.423L558.867 107.373C559.567 103.398 560.742 102.523 564.842 102.523C568.867 102.523 569.267 103.098 568.817 105.673L568.717 106.148L571.867 106.098C571.967 105.523 572.042 105.123 572.142 104.673C572.842 100.648 571.867 99.5729 566.442 99.5729C563.142 99.5729 561.017 100.398 559.642 102.098L559.992 99.8729H556.942C556.792 100.848 556.617 101.798 556.317 103.523L555.092 110.423Z" fill="#43FF8E"/>
<path d="M110.681 1.00022C50.6583 1.00022 1.99999 48.6818 2 107.5C2 166.318 50.6583 214 110.681 214" stroke="#535559" stroke-width="1.38335"/>
<path d="M110.453 214L619 214L619 1.00021L110.453 1.00024" stroke="url(#paint0_linear_2206_33340)" stroke-width="1.38335"/>
<g clip-path="url(#clip1_2206_33340)">
<ellipse cx="104.338" cy="106.204" rx="80.071" ry="80.21" fill="#0D0E11"/>
<path d="M49.2121 163.064C28.7252 142.577 25.5651 120.271 25.0038 107.923L82.7439 107.642L82.8064 108.642C83.1282 113.792 85.2822 118.657 88.8787 122.357L89.6238 123.123L49.2121 163.064Z" fill="url(#paint1_linear_2206_33340)"/>
<path d="M161.251 51.5034C182.462 72.7151 182.8 95.5732 183.381 108.358L126.992 109.017L126.927 107.468C126.717 102.481 124.849 97.7067 121.618 93.9019L120.325 92.3789L161.251 51.5034Z" fill="url(#paint2_linear_2206_33340)"/>
<circle cx="104.569" cy="106.568" r="79.9013" stroke="url(#paint3_linear_2206_33340)" stroke-width="1.33391"/>
<circle cx="104.97" cy="106.969" r="22.2763" fill="url(#paint4_linear_2206_33340)"/>
</g>
<rect x="133" y="27.4229" width="53" height="20" rx="10" fill="#43FF8E"/>
<path d="M146.484 39.6872V38.8975C147.692 38.9091 149.492 38.9091 150.447 38.9091C153.136 38.9091 153.838 38.0728 153.838 36.0984V36.0519C153.838 34.0775 153.136 33.2993 150.447 33.2993H145.014C145.025 33.7871 145.025 34.2982 145.025 35.0183V39.6756C145.025 40.5002 145.025 40.9997 145.014 41.5455H146.495C146.484 40.9881 146.484 40.5119 146.484 39.6872ZM150.436 34.6466C151.95 34.6466 152.334 35.0066 152.334 36.0752V36.0984C152.334 37.1669 151.95 37.5386 150.436 37.5386H146.484V34.6466H150.436Z" fill="#0D0E11"/>
<path d="M155.228 39.6756C155.228 40.5467 155.228 40.9881 155.218 41.5455H156.699C156.688 40.9532 156.688 40.6396 156.688 39.664V38.6419H160.628L161.528 39.9776C161.88 40.5002 162.209 41.0345 162.516 41.5455H164.207C163.757 40.8603 163.339 40.2215 162.966 39.6176C162.692 39.1878 162.417 38.7929 162.165 38.4097C163.636 38.1077 164.108 37.3063 164.108 35.8661V35.8196C164.108 33.9381 163.339 33.2993 160.705 33.2993H155.218C155.228 33.8104 155.228 34.182 155.228 34.786V39.6756ZM160.672 34.6466C162.209 34.6466 162.593 34.9602 162.593 35.8893V35.9126C162.593 36.8766 162.209 37.3063 160.672 37.3063H156.688V34.6466H160.672Z" fill="#0D0E11"/>
<path d="M169.875 41.7081C173.739 41.7081 174.694 40.7558 174.694 37.6083V37.2366C174.694 34.0891 173.739 33.1367 169.875 33.1367C166.012 33.1367 165.068 34.0891 165.068 37.2366V37.6083C165.068 40.7558 166.012 41.7081 169.875 41.7081ZM169.875 40.3028C167.055 40.3028 166.561 39.7337 166.561 37.4805V37.3644C166.561 35.1692 167.055 34.5421 169.875 34.5421C172.707 34.5421 173.201 35.1112 173.201 37.3644V37.4805C173.201 39.7337 172.707 40.3028 169.875 40.3028Z" fill="#0D0E11"/>
<path d="M226.848 150.448C226.848 151.06 226.848 151.623 226.836 152.163H228.108C228.096 151.611 228.096 151.06 228.096 150.448V149.332C229.428 147.712 231.468 145.263 232.86 143.643H231.444L229.344 146.115C228.66 146.907 228.048 147.675 227.46 148.419C226.908 147.7 226.272 146.919 225.612 146.115L223.584 143.643H222.108C223.5 145.263 225.516 147.712 226.848 149.332V150.448Z" fill="#9EA1AB"/>
<path d="M236.66 152.307C240.128 152.307 241.04 151.516 241.04 148.864V148.504C241.04 145.852 240.128 145.06 236.66 145.06C233.192 145.06 232.28 145.852 232.28 148.504V148.864C232.28 151.516 233.192 152.307 236.66 152.307ZM236.66 151.191C234.02 151.191 233.504 150.688 233.504 148.744V148.624C233.504 146.68 234.02 146.176 236.66 146.176C239.3 146.176 239.816 146.68 239.816 148.624V148.744C239.816 150.688 239.3 151.191 236.66 151.191Z" fill="#9EA1AB"/>
<path d="M242.732 147.844C242.732 148.564 242.72 148.852 242.72 149.344C242.72 151.456 243.332 152.307 246.488 152.307C248.168 152.307 249.188 151.924 249.752 151.143L249.776 152.163H250.892C250.88 151.695 250.88 151.264 250.88 150.376V147.124C250.88 146.176 250.88 145.707 250.892 145.203H249.668C249.68 145.707 249.68 146.151 249.68 147.124V148.804C249.68 150.628 249.116 151.191 246.812 151.191C244.388 151.191 243.932 150.58 243.932 148.984V147.112C243.932 146.092 243.932 145.743 243.944 145.203H242.72C242.732 145.767 242.732 146.248 242.732 147.112V147.844Z" fill="#9EA1AB"/>
<path d="M261.398 152.307C264.818 152.307 265.634 151.528 265.634 149.464L264.446 149.428C264.446 150.676 263.942 151.191 261.398 151.191C258.806 151.191 258.29 150.688 258.29 148.744V148.624C258.29 146.68 258.806 146.176 261.398 146.176C263.942 146.176 264.422 146.716 264.422 147.94L265.61 147.904C265.61 145.78 264.83 145.06 261.398 145.06C258.026 145.06 257.066 145.852 257.066 148.504V148.864C257.066 151.516 258.038 152.307 261.398 152.307Z" fill="#9EA1AB"/>
<path d="M270.847 152.307C272.707 152.307 273.763 151.936 274.291 151.347L274.303 152.163H275.383C275.371 151.215 275.371 150.604 275.371 149.884C275.371 148.876 275.383 148.42 275.383 147.471C275.383 145.828 274.771 145.06 271.219 145.06C267.991 145.06 267.259 145.743 267.283 147.195L268.495 147.232C268.483 146.404 268.771 146.128 271.219 146.128C273.751 146.128 274.171 146.5 274.171 147.7V148.551C273.607 148.108 272.575 147.844 270.847 147.844C267.691 147.844 267.007 148.503 267.007 150.1C267.007 151.66 267.655 152.307 270.847 152.307ZM271.195 151.264C268.747 151.264 268.243 150.964 268.243 150.1C268.243 149.212 268.567 148.839 271.195 148.839C273.775 148.839 274.195 149.2 274.195 149.74V150.112C274.195 150.892 273.775 151.264 271.195 151.264Z" fill="#9EA1AB"/>
<path d="M277.526 150.244C277.526 151.192 277.526 151.66 277.514 152.163H278.738C278.726 151.66 278.726 151.215 278.726 150.244V148.563C278.726 146.739 279.29 146.176 281.642 146.176C284.078 146.176 284.534 146.787 284.534 148.383V150.256C284.534 151.276 284.534 151.623 284.522 152.163H285.746C285.734 151.599 285.734 151.12 285.734 150.256V149.523C285.734 148.804 285.746 148.516 285.746 148.023C285.746 145.911 285.134 145.06 281.966 145.06C280.262 145.06 279.218 145.444 278.654 146.223L278.63 145.203H277.514C277.526 145.671 277.526 146.104 277.526 146.992V150.244Z" fill="#9EA1AB"/>
<path d="M292.338 147.844C292.338 148.564 292.326 148.852 292.326 149.344C292.326 151.456 292.938 152.307 296.094 152.307C297.774 152.307 298.794 151.924 299.358 151.143L299.382 152.163H300.498C300.486 151.695 300.486 151.264 300.486 150.376V147.124C300.486 146.176 300.486 145.707 300.498 145.203H299.274C299.286 145.707 299.286 146.151 299.286 147.124V148.804C299.286 150.628 298.722 151.191 296.418 151.191C293.994 151.191 293.538 150.58 293.538 148.984V147.112C293.538 146.092 293.538 145.743 293.55 145.203H292.326C292.338 145.767 292.338 146.248 292.338 147.112V147.844Z" fill="#9EA1AB"/>
<path d="M302.674 152.163C302.674 152.884 302.674 153.484 302.662 153.844H303.898C303.886 153.352 303.886 152.488 303.886 151.228C304.486 151.96 305.518 152.307 307.198 152.307C310.486 152.307 311.41 151.516 311.41 148.864V148.504C311.41 145.852 310.486 145.06 307.27 145.06C305.494 145.06 304.414 145.444 303.826 146.223V145.203H302.662C302.674 145.707 302.674 146.14 302.674 146.692V152.163ZM303.874 148.732V148.636C303.874 146.74 304.414 146.176 307.03 146.176C309.658 146.176 310.186 146.68 310.186 148.624V148.744C310.186 150.688 309.658 151.191 306.97 151.191C304.414 151.191 303.874 150.64 303.874 148.732Z" fill="#9EA1AB"/>
<path d="M313.151 150.28C313.151 151.084 313.151 151.635 313.139 152.163H314.363C314.351 151.635 314.351 151.084 314.351 150.292V145.215C314.351 144.351 314.351 143.703 314.363 143.188H313.139C313.151 143.703 313.151 144.351 313.151 145.203V150.28Z" fill="#9EA1AB"/>
<path d="M320.473 152.307C323.941 152.307 324.853 151.516 324.853 148.864V148.504C324.853 145.852 323.941 145.06 320.473 145.06C317.005 145.06 316.093 145.852 316.093 148.504V148.864C316.093 151.516 317.005 152.307 320.473 152.307ZM320.473 151.191C317.833 151.191 317.317 150.688 317.317 148.744V148.624C317.317 146.68 317.833 146.176 320.473 146.176C323.113 146.176 323.629 146.68 323.629 148.624V148.744C323.629 150.688 323.113 151.191 320.473 151.191Z" fill="#9EA1AB"/>
<path d="M330.109 152.307C331.969 152.307 333.025 151.936 333.553 151.347L333.565 152.163H334.645C334.633 151.215 334.633 150.604 334.633 149.884C334.633 148.876 334.645 148.42 334.645 147.471C334.645 145.828 334.033 145.06 330.481 145.06C327.253 145.06 326.521 145.743 326.545 147.195L327.757 147.232C327.745 146.404 328.033 146.128 330.481 146.128C333.013 146.128 333.433 146.5 333.433 147.7V148.551C332.869 148.108 331.837 147.844 330.109 147.844C326.953 147.844 326.269 148.503 326.269 150.1C326.269 151.66 326.917 152.307 330.109 152.307ZM330.457 151.264C328.009 151.264 327.505 150.964 327.505 150.1C327.505 149.212 327.829 148.839 330.457 148.839C333.037 148.839 333.457 149.2 333.457 149.74V150.112C333.457 150.892 333.037 151.264 330.457 151.264Z" fill="#9EA1AB"/>
<path d="M340.459 152.307C342.271 152.307 343.351 151.912 343.927 151.108L343.951 152.163H345.067C345.055 151.575 345.055 151.168 345.055 150.244V145.203C345.055 144.315 345.055 143.703 345.067 143.188H343.819C343.831 143.68 343.843 144.928 343.843 146.14C343.243 145.408 342.211 145.06 340.531 145.06C337.243 145.06 336.319 145.852 336.319 148.504V148.864C336.319 151.516 337.243 152.307 340.459 152.307ZM340.699 151.191C338.071 151.191 337.543 150.688 337.543 148.744V148.624C337.543 146.68 338.071 146.176 340.759 146.176C343.315 146.176 343.855 146.728 343.855 148.636V148.732C343.855 150.628 343.315 151.191 340.699 151.191Z" fill="#9EA1AB"/>
<path d="M352.089 147.844C352.089 148.432 352.077 149.115 352.077 149.643C352.077 151.708 352.713 152.223 355.545 152.223C356.073 152.223 356.517 152.2 356.889 152.163L356.877 151.072C356.421 151.096 356.145 151.108 355.605 151.108C353.769 151.108 353.289 150.928 353.289 149.476V146.296H356.877V145.203H353.289C353.289 144.603 353.289 144.124 353.301 143.836L352.077 143.859C352.089 144.411 352.089 144.807 352.089 145.203C351.705 145.203 351.321 145.215 350.829 145.203V146.296H352.089V147.844Z" fill="#9EA1AB"/>
<path d="M358.491 150.268C358.491 151.144 358.491 151.575 358.479 152.163H359.703C359.691 151.563 359.691 151.048 359.691 150.244V148.563C359.691 146.739 360.255 146.176 362.607 146.176C365.043 146.176 365.499 146.787 365.499 148.383V150.268C365.499 151.12 365.499 151.551 365.487 152.163H366.711C366.699 151.479 366.699 150.916 366.699 150.292V149.523C366.699 148.804 366.711 148.516 366.711 148.023C366.711 145.911 366.099 145.06 362.931 145.06C361.263 145.06 360.231 145.431 359.655 146.176C359.679 145.36 359.715 143.392 359.715 143.188H358.479C358.491 143.703 358.491 144.339 358.491 145.203V150.268Z" fill="#9EA1AB"/>
<path d="M372.81 152.307C376.314 152.307 376.974 151.611 376.974 149.944L375.786 149.896C375.786 150.796 375.462 151.24 372.822 151.24C370.266 151.24 369.69 150.772 369.63 149.152H376.974C376.974 148.948 376.986 148.696 376.974 148.504C376.938 145.852 376.146 145.06 372.726 145.06C369.306 145.06 368.394 145.852 368.394 148.504V148.864C368.394 151.516 369.306 152.307 372.81 152.307ZM372.726 146.104C375.186 146.104 375.654 146.583 375.702 148.119H369.63C369.714 146.535 370.314 146.104 372.726 146.104Z" fill="#9EA1AB"/>
<path d="M389.099 152.163C390.239 150.411 393.611 145.276 394.727 143.643H392.927L390.299 147.711C389.651 148.743 388.979 149.8 388.439 150.676H387.335C387.107 149.788 386.819 148.72 386.531 147.676L385.391 143.643H383.711C384.227 145.276 385.739 150.411 386.243 152.163H389.099Z" fill="#9EA1AB"/>
<path d="M397.574 152.307C401.15 152.307 402.05 151.516 402.518 148.852L402.578 148.492C403.046 145.828 402.122 145.036 398.558 145.036C394.982 145.036 394.082 145.828 393.614 148.492L393.554 148.852C393.086 151.516 394.01 152.307 397.574 152.307ZM397.658 150.916C395.21 150.916 394.85 150.46 395.15 148.72L395.162 148.624C395.474 146.872 396.002 146.428 398.462 146.428C400.91 146.428 401.294 146.872 400.97 148.624L400.958 148.72C400.658 150.46 400.118 150.916 397.658 150.916Z" fill="#9EA1AB"/>
<path d="M407.64 152.307C411.168 152.307 411.96 151.516 412.344 149.379L410.808 149.344C410.616 150.46 410.076 150.916 407.712 150.916C405.3 150.916 404.94 150.46 405.24 148.72L405.252 148.624C405.564 146.872 406.092 146.428 408.504 146.428C410.868 146.428 411.216 146.896 411.024 148V147.987L412.572 147.952C412.968 145.756 412.116 145.036 408.588 145.036C405.108 145.036 404.172 145.828 403.704 148.492L403.644 148.852C403.176 151.516 404.172 152.307 407.64 152.307Z" fill="#9EA1AB"/>
<path d="M416.835 152.307C418.755 152.307 419.823 151.935 420.411 151.299L420.279 152.163H421.695C421.851 151.215 421.959 150.604 422.091 149.884C422.283 148.78 422.367 148.372 422.535 147.424C422.823 145.792 422.163 145.036 418.551 145.036C415.251 145.036 414.483 145.672 414.231 147.256L415.731 147.292C415.851 146.548 416.139 146.307 418.443 146.307C420.807 146.307 421.107 146.644 420.915 147.747L420.771 148.563C420.327 148.095 419.367 147.844 417.579 147.844C414.471 147.844 413.715 148.503 413.427 150.1C413.163 151.672 413.703 152.307 416.835 152.307ZM417.579 151.096C415.263 151.096 414.879 150.832 415.011 150.063C415.143 149.283 415.491 148.959 417.975 148.959C420.363 148.959 420.687 149.271 420.591 149.775L420.543 150.076C420.423 150.772 419.979 151.096 417.579 151.096Z" fill="#9EA1AB"/>
<path d="M424.04 150.148C423.884 151.024 423.788 151.611 423.668 152.163H425.252C425.336 151.611 425.444 151.024 425.588 150.16L426.464 145.192C426.62 144.34 426.728 143.691 426.836 143.188H425.252C425.168 143.703 425.06 144.34 424.916 145.18L424.04 150.148Z" fill="#9EA1AB"/>
<path d="M436.733 152.331C440.753 152.331 441.401 151.66 441.737 149.812C442.001 148.155 441.437 147.388 437.465 147.112C434.309 146.908 434.057 146.644 434.189 145.864C434.309 145.132 434.753 144.832 437.357 144.832C440.189 144.832 440.597 145.095 440.441 145.911L440.405 146.151L441.977 146.115L442.001 145.948C442.325 144.172 441.665 143.475 437.501 143.475C433.589 143.475 432.857 144.207 432.545 145.971C432.245 147.688 432.785 148.264 436.805 148.551C439.925 148.792 440.249 149.08 440.117 149.86V149.872C439.973 150.688 439.613 150.964 436.841 150.964C433.685 150.964 433.205 150.76 433.373 149.787L433.421 149.511L431.849 149.548L431.813 149.74C431.441 151.816 432.317 152.331 436.733 152.331Z" fill="#9EA1AB"/>
<path d="M447.099 152.307C450.699 152.307 451.359 151.611 451.671 149.848L450.135 149.799C449.991 150.615 449.631 151 447.171 151C444.855 151 444.399 150.592 444.579 149.128H451.791C451.827 148.948 451.875 148.732 451.911 148.492C452.319 145.912 451.503 145.036 448.011 145.036C444.507 145.036 443.571 145.828 443.103 148.492L443.043 148.852C442.587 151.432 443.535 152.307 447.099 152.307ZM447.939 146.235C450.207 146.235 450.567 146.655 450.375 148.011H444.783C445.119 146.607 445.731 146.235 447.939 146.235Z" fill="#9EA1AB"/>
<path d="M456.269 152.307C458.189 152.307 459.257 151.935 459.845 151.299L459.713 152.163H461.129C461.285 151.215 461.393 150.604 461.525 149.884C461.717 148.78 461.801 148.372 461.969 147.424C462.257 145.792 461.597 145.036 457.985 145.036C454.685 145.036 453.917 145.672 453.665 147.256L455.165 147.292C455.285 146.548 455.573 146.307 457.877 146.307C460.241 146.307 460.541 146.644 460.349 147.747L460.205 148.563C459.761 148.095 458.801 147.844 457.013 147.844C453.905 147.844 453.149 148.503 452.861 150.1C452.597 151.672 453.137 152.307 456.269 152.307ZM457.013 151.096C454.697 151.096 454.313 150.832 454.445 150.063C454.577 149.283 454.925 148.959 457.409 148.959C459.797 148.959 460.121 149.271 460.025 149.775L459.977 150.076C459.857 150.772 459.413 151.096 457.013 151.096Z" fill="#9EA1AB"/>
<path d="M463.426 150.244C463.27 151.144 463.186 151.635 463.078 152.163H464.662C464.734 151.635 464.818 151.168 464.986 150.244L465.238 148.78C465.574 146.872 466.138 146.452 468.106 146.452C470.038 146.452 470.23 146.727 470.014 147.963L469.966 148.192L471.478 148.168C471.526 147.891 471.562 147.7 471.61 147.484C471.946 145.552 471.478 145.036 468.874 145.036C467.29 145.036 466.27 145.431 465.61 146.247L465.778 145.18H464.314C464.242 145.647 464.158 146.104 464.014 146.931L463.426 150.244Z" fill="#9EA1AB"/>
<path d="M476.347 152.307C479.875 152.307 480.667 151.516 481.051 149.379L479.515 149.344C479.323 150.46 478.783 150.916 476.419 150.916C474.007 150.916 473.647 150.46 473.947 148.72L473.959 148.624C474.271 146.872 474.799 146.428 477.211 146.428C479.575 146.428 479.923 146.896 479.731 148V147.987L481.279 147.952C481.675 145.756 480.823 145.036 477.295 145.036C473.815 145.036 472.879 145.828 472.411 148.492L472.351 148.852C471.883 151.516 472.879 152.307 476.347 152.307Z" fill="#9EA1AB"/>
<path d="M482.434 150.148C482.278 151.072 482.194 151.563 482.074 152.163H483.646C483.754 151.516 483.838 151 483.994 150.124L484.258 148.659C484.558 146.943 485.146 146.452 487.33 146.452C489.598 146.452 489.91 146.98 489.646 148.492L489.334 150.268C489.178 151.12 489.106 151.54 488.986 152.163H490.558C490.666 151.479 490.762 150.916 490.882 150.292L491.014 149.523C491.158 148.72 491.23 148.395 491.314 147.867C491.674 145.863 491.026 145.036 487.966 145.036C486.31 145.036 485.302 145.396 484.666 146.104C484.846 145.24 485.206 143.392 485.242 143.188H483.658C483.574 143.703 483.466 144.327 483.31 145.18L482.434 150.148Z" fill="#9EA1AB"/>
<path d="M494.076 143.271L493.86 144.471H495.444L495.648 143.271H494.076ZM492.876 150.148C492.72 151.024 492.624 151.611 492.504 152.163H494.088C494.172 151.611 494.28 151.024 494.424 150.16L494.952 147.171C495.096 146.319 495.216 145.684 495.312 145.18H493.74C493.668 145.684 493.548 146.331 493.404 147.171L492.876 150.148Z" fill="#9EA1AB"/>
<path d="M496.402 150.244C496.246 151.144 496.162 151.635 496.054 152.163H497.638C497.71 151.635 497.794 151.168 497.962 150.244L498.238 148.659C498.55 146.943 499.138 146.452 501.322 146.452C503.59 146.452 503.89 146.98 503.638 148.492L503.314 150.268C503.146 151.24 503.086 151.599 502.966 152.163H504.55C504.634 151.575 504.718 151.072 504.874 150.268L505.006 149.523C505.138 148.72 505.21 148.395 505.306 147.867C505.654 145.863 505.006 145.036 501.958 145.036C500.302 145.036 499.258 145.444 498.586 146.247L498.754 145.18H497.29C497.218 145.647 497.134 146.104 496.99 146.931L496.402 150.244Z" fill="#9EA1AB"/>
<path d="M510.456 151.384C512.124 151.384 513.156 151 513.804 150.304L513.672 151.072C513.456 152.188 512.952 152.68 510.264 152.68C508.008 152.68 507.696 152.391 507.804 151.767L506.316 151.816C506.016 153.484 506.784 153.987 510.192 153.987C513.912 153.987 514.812 153.292 515.16 151.312C515.328 150.376 515.448 149.679 515.64 148.563L515.952 146.763C516.06 146.139 516.144 145.647 516.24 145.18H514.776L514.572 146.247C514.128 145.467 513.12 145.036 511.308 145.036C508.284 145.036 507.228 145.623 506.76 148.155L506.748 148.252C506.304 150.76 507.468 151.384 510.456 151.384ZM510.948 150.028C508.524 150.028 508.092 149.584 508.32 148.252L508.344 148.168C508.584 146.847 509.256 146.391 511.572 146.391C513.972 146.391 514.392 146.847 514.152 148.155V148.18C513.912 149.512 513.288 150.028 510.948 150.028Z" fill="#9EA1AB"/>
<path d="M525.588 150.232C525.432 151.132 525.36 151.575 525.24 152.163H526.872C526.968 151.54 527.016 151.227 527.196 150.22L528.096 145.095H530.28C530.76 145.095 531.576 145.095 532.476 145.108L532.74 143.643H522.372L522.12 145.108C523.02 145.095 524.064 145.095 525.204 145.095H526.5L525.588 150.232Z" fill="#9EA1AB"/>
<path d="M532.344 150.244C532.188 151.144 532.104 151.635 531.996 152.163H533.58C533.652 151.635 533.736 151.168 533.904 150.244L534.156 148.78C534.492 146.872 535.056 146.452 537.024 146.452C538.956 146.452 539.148 146.727 538.932 147.963L538.884 148.192L540.396 148.168C540.444 147.891 540.48 147.7 540.528 147.484C540.864 145.552 540.396 145.036 537.792 145.036C536.208 145.036 535.188 145.431 534.528 146.247L534.696 145.18H533.232C533.16 145.647 533.076 146.104 532.932 146.931L532.344 150.244Z" fill="#9EA1AB"/>
<path d="M544.394 152.307C546.314 152.307 547.382 151.935 547.97 151.299L547.838 152.163H549.254C549.41 151.215 549.518 150.604 549.65 149.884C549.842 148.78 549.926 148.372 550.094 147.424C550.382 145.792 549.722 145.036 546.11 145.036C542.81 145.036 542.042 145.672 541.79 147.256L543.29 147.292C543.41 146.548 543.698 146.307 546.002 146.307C548.366 146.307 548.666 146.644 548.474 147.747L548.33 148.563C547.886 148.095 546.926 147.844 545.138 147.844C542.03 147.844 541.274 148.503 540.986 150.1C540.722 151.672 541.262 152.307 544.394 152.307ZM545.138 151.096C542.822 151.096 542.438 150.832 542.57 150.063C542.702 149.283 543.05 148.959 545.534 148.959C547.922 148.959 548.246 149.271 548.15 149.775L548.102 150.076C547.982 150.772 547.538 151.096 545.138 151.096Z" fill="#9EA1AB"/>
<path d="M555.379 152.307C558.907 152.307 559.699 151.516 560.083 149.379L558.547 149.344C558.355 150.46 557.815 150.916 555.451 150.916C553.039 150.916 552.679 150.46 552.979 148.72L552.991 148.624C553.303 146.872 553.831 146.428 556.243 146.428C558.607 146.428 558.955 146.896 558.763 148V147.987L560.311 147.952C560.707 145.756 559.855 145.036 556.327 145.036C552.847 145.036 551.911 145.828 551.443 148.492L551.383 148.852C550.915 151.516 551.911 152.307 555.379 152.307Z" fill="#9EA1AB"/>
<path d="M561.489 150.148C561.333 151.024 561.237 151.611 561.117 152.163H562.701C562.785 151.611 562.893 151.024 563.037 150.16L563.193 149.308H564.981C565.281 149.632 565.629 149.979 565.989 150.327L567.861 152.163H569.817L569.841 152.139C568.917 151.24 567.321 149.644 566.301 148.612C567.669 147.58 569.685 146.079 570.897 145.203L570.873 145.18H568.869L566.745 146.74C566.193 147.136 565.641 147.543 565.149 147.916H563.433L563.913 145.192C564.069 144.34 564.177 143.691 564.285 143.188H562.701C562.617 143.703 562.509 144.34 562.365 145.18L561.489 150.148Z" fill="#9EA1AB"/>
<path d="M252.518 172.255C252.518 173.059 252.518 173.635 252.506 174.163H253.622L253.646 173.12C254.222 173.924 255.278 174.308 257.042 174.308C260.33 174.308 261.254 173.516 261.254 170.864V170.503C261.254 167.851 260.33 167.059 257.114 167.059C255.386 167.059 254.33 167.42 253.73 168.139C253.73 167.024 253.73 165.68 253.742 165.188H252.506C252.518 165.703 252.518 166.351 252.518 167.215V172.255ZM253.718 170.732V170.635C253.718 168.74 254.258 168.176 256.874 168.176C259.502 168.176 260.03 168.679 260.03 170.623V170.743C260.03 172.687 259.502 173.191 256.814 173.191C254.258 173.191 253.718 172.64 253.718 170.732Z" fill="#9EA1AB"/>
<path d="M267.189 174.379C268.089 172.603 269.973 168.835 270.837 167.203H269.541L268.053 170.108C267.657 170.875 267.261 171.655 266.925 172.339H266.253C265.833 171.643 265.341 170.852 264.861 170.072L263.109 167.203H261.741C262.785 168.847 264.681 171.979 265.557 173.455H266.349L266.133 173.839C265.701 174.607 265.425 174.763 264.717 174.763C264.261 174.763 263.889 174.751 263.505 174.727L263.469 175.808C263.913 175.832 264.465 175.856 264.753 175.856C265.977 175.856 266.637 175.472 267.189 174.379Z" fill="#9EA1AB"/>
<path d="M280.094 174.308C283.586 174.308 284.03 173.756 284.03 172.316C284.03 170.888 283.598 170.359 279.998 170.059C277.418 169.844 277.238 169.627 277.238 169.027C277.238 168.391 277.61 168.139 279.866 168.139C282.158 168.139 282.518 168.416 282.518 169.148V169.328L283.754 169.291C283.754 167.623 283.166 167.059 279.914 167.059C276.71 167.059 276.086 167.647 276.086 169.111C276.086 170.527 276.614 170.983 279.806 171.247C282.59 171.476 282.806 171.704 282.806 172.376C282.806 173.024 282.554 173.3 280.142 173.3C277.586 173.3 277.214 173.024 277.214 172.052V171.859L276.002 171.895C276.002 173.911 276.626 174.308 280.094 174.308Z" fill="#9EA1AB"/>
<path d="M285.706 165.379V166.495H286.93V165.379H285.706ZM285.718 172.28C285.718 173.084 285.718 173.635 285.706 174.163H286.93C286.918 173.635 286.918 173.083 286.918 172.291V169.232C286.918 168.368 286.918 167.719 286.93 167.203H285.706C285.718 167.719 285.718 168.368 285.718 169.219V172.28Z" fill="#9EA1AB"/>
<path d="M292.871 173.468C294.599 173.468 295.643 173.083 296.219 172.399L296.207 173.083C296.183 174.319 295.727 174.895 292.871 174.895C290.435 174.895 290.015 174.559 290.015 173.851L288.851 173.899C288.851 175.484 289.655 175.988 292.871 175.988C296.519 175.988 297.407 175.279 297.407 173.24C297.407 172.303 297.395 171.584 297.395 170.564V168.763C297.395 168.175 297.395 167.719 297.407 167.203H296.291L296.279 168.128C295.703 167.431 294.647 167.059 292.859 167.059C289.835 167.059 288.659 167.648 288.659 170.204V170.323C288.659 172.879 289.895 173.468 292.871 173.468ZM289.883 170.323V170.204C289.883 168.667 290.567 168.151 293.075 168.151C295.643 168.151 296.183 168.656 296.195 170.204C296.195 171.74 295.595 172.376 293.087 172.376C290.447 172.376 289.883 171.86 289.883 170.323Z" fill="#9EA1AB"/>
<path d="M299.58 172.243C299.58 173.191 299.58 173.66 299.568 174.163H300.792C300.78 173.66 300.78 173.215 300.78 172.243V170.564C300.78 168.74 301.344 168.176 303.696 168.176C306.132 168.176 306.588 168.788 306.588 170.384V172.255C306.588 173.275 306.588 173.623 306.576 174.163H307.8C307.788 173.6 307.788 173.119 307.788 172.255V171.524C307.788 170.804 307.8 170.516 307.8 170.024C307.8 167.912 307.188 167.059 304.02 167.059C302.316 167.059 301.272 167.444 300.708 168.224L300.684 167.203H299.568C299.58 167.671 299.58 168.103 299.58 168.991V172.243Z" fill="#9EA1AB"/>
<path d="M309.963 165.379V166.495H311.187V165.379H309.963ZM309.975 172.28C309.975 173.084 309.975 173.635 309.963 174.163H311.187C311.175 173.635 311.175 173.083 311.175 172.291V169.232C311.175 168.368 311.175 167.719 311.187 167.203H309.963C309.975 167.719 309.975 168.368 309.975 169.219V172.28Z" fill="#9EA1AB"/>
<path d="M313.385 172.243C313.385 173.191 313.385 173.66 313.373 174.163H314.597C314.585 173.66 314.585 173.215 314.585 172.243V170.564C314.585 168.74 315.149 168.176 317.501 168.176C319.937 168.176 320.393 168.788 320.393 170.384V172.255C320.393 173.275 320.393 173.623 320.381 174.163H321.605C321.593 173.6 321.593 173.119 321.593 172.255V171.524C321.593 170.804 321.605 170.516 321.605 170.024C321.605 167.912 320.993 167.059 317.825 167.059C316.121 167.059 315.077 167.444 314.513 168.224L314.489 167.203H313.373C313.385 167.671 313.385 168.103 313.385 168.991V172.243Z" fill="#9EA1AB"/>
<path d="M327.5 173.468C329.228 173.468 330.272 173.083 330.848 172.399L330.836 173.083C330.812 174.319 330.356 174.895 327.5 174.895C325.064 174.895 324.644 174.559 324.644 173.851L323.48 173.899C323.48 175.484 324.284 175.988 327.5 175.988C331.148 175.988 332.036 175.279 332.036 173.24C332.036 172.303 332.024 171.584 332.024 170.564V168.763C332.024 168.175 332.024 167.719 332.036 167.203H330.92L330.908 168.128C330.332 167.431 329.276 167.059 327.488 167.059C324.464 167.059 323.288 167.648 323.288 170.204V170.323C323.288 172.879 324.524 173.468 327.5 173.468ZM324.512 170.323V170.204C324.512 168.667 325.196 168.151 327.704 168.151C330.272 168.151 330.812 168.656 330.824 170.204C330.824 171.74 330.224 172.376 327.716 172.376C325.076 172.376 324.512 171.86 324.512 170.323Z" fill="#9EA1AB"/>
<path d="M338.65 169.844C338.65 170.563 338.638 170.851 338.638 171.344C338.638 173.455 339.25 174.308 342.406 174.308C344.086 174.308 345.106 173.924 345.67 173.143L345.694 174.163H346.81C346.798 173.695 346.798 173.264 346.798 172.376V169.123C346.798 168.175 346.798 167.707 346.81 167.203H345.586C345.598 167.707 345.598 168.151 345.598 169.123V170.803C345.598 172.627 345.034 173.191 342.73 173.191C340.306 173.191 339.85 172.58 339.85 170.983V169.111C339.85 168.091 339.85 167.743 339.862 167.203H338.638C338.65 167.767 338.65 168.247 338.65 169.111V169.844Z" fill="#9EA1AB"/>
<path d="M348.987 174.163C348.987 174.883 348.987 175.484 348.975 175.844H350.211C350.199 175.352 350.199 174.487 350.199 173.227C350.799 173.959 351.831 174.308 353.511 174.308C356.799 174.308 357.723 173.516 357.723 170.864V170.503C357.723 167.851 356.799 167.059 353.583 167.059C351.807 167.059 350.727 167.444 350.139 168.224V167.203H348.975C348.987 167.707 348.987 168.139 348.987 168.691V174.163ZM350.187 170.732V170.635C350.187 168.74 350.727 168.176 353.343 168.176C355.971 168.176 356.499 168.679 356.499 170.623V170.743C356.499 172.687 355.971 173.191 353.283 173.191C350.727 173.191 350.187 172.64 350.187 170.732Z" fill="#9EA1AB"/>
<path d="M368.669 170.743C368.969 169.963 369.281 169.184 369.557 168.476H369.905C370.157 169.195 370.433 170 370.697 170.78L371.861 174.163H373.805C374.453 172.459 375.869 168.835 376.577 167.203H375.293L374.129 170.252C373.781 171.176 373.421 172.135 373.109 172.963H372.665C372.425 172.195 372.125 171.308 371.825 170.432L370.721 167.203H368.849L367.649 170.384C367.325 171.248 366.977 172.159 366.689 172.963H366.221C365.945 172.147 365.621 171.188 365.321 170.3L364.277 167.203H362.909C363.533 168.811 364.841 172.459 365.417 174.163H367.361L368.669 170.743Z" fill="#9EA1AB"/>
<path d="M377.78 165.379V166.495H379.004V165.379H377.78ZM377.792 172.28C377.792 173.084 377.792 173.635 377.78 174.163H379.004C378.992 173.635 378.992 173.083 378.992 172.291V169.232C378.992 168.368 378.992 167.719 379.004 167.203H377.78C377.792 167.719 377.792 168.368 377.792 169.219V172.28Z" fill="#9EA1AB"/>
<path d="M381.585 169.844C381.585 170.431 381.574 171.115 381.574 171.643C381.574 173.708 382.21 174.224 385.042 174.224C385.57 174.224 386.014 174.199 386.385 174.163L386.374 173.072C385.918 173.096 385.641 173.108 385.102 173.108C383.266 173.108 382.785 172.927 382.785 171.476V168.295H386.374V167.203H382.785C382.785 166.603 382.786 166.124 382.798 165.836L381.574 165.859C381.585 166.411 381.585 166.807 381.585 167.203C381.201 167.203 380.818 167.215 380.326 167.203V168.295H381.585V169.844Z" fill="#9EA1AB"/>
<path d="M387.987 172.267C387.987 173.143 387.987 173.576 387.975 174.163H389.199C389.187 173.563 389.187 173.047 389.187 172.243V170.564C389.187 168.74 389.751 168.176 392.103 168.176C394.539 168.176 394.995 168.788 394.995 170.384V172.267C394.995 173.119 394.995 173.552 394.983 174.163H396.207C396.195 173.479 396.195 172.915 396.195 172.291V171.524C396.195 170.804 396.207 170.516 396.207 170.024C396.207 167.912 395.595 167.059 392.427 167.059C390.759 167.059 389.727 167.431 389.151 168.176C389.175 167.36 389.211 165.392 389.211 165.188H387.975C387.987 165.703 387.987 166.339 387.987 167.203V172.267Z" fill="#9EA1AB"/>
<path d="M406.363 174.308C408.223 174.308 409.279 173.935 409.807 173.347L409.819 174.163H410.899C410.887 173.215 410.887 172.604 410.887 171.884C410.887 170.876 410.899 170.419 410.899 169.471C410.899 167.827 410.287 167.059 406.735 167.059C403.507 167.059 402.775 167.743 402.799 169.195L404.011 169.232C403.999 168.403 404.287 168.128 406.735 168.128C409.267 168.128 409.687 168.499 409.687 169.699V170.552C409.123 170.108 408.091 169.844 406.363 169.844C403.207 169.844 402.523 170.503 402.523 172.1C402.523 173.66 403.171 174.308 406.363 174.308ZM406.711 173.263C404.263 173.263 403.759 172.964 403.759 172.1C403.759 171.212 404.083 170.839 406.711 170.839C409.291 170.839 409.711 171.199 409.711 171.74V172.111C409.711 172.891 409.291 173.263 406.711 173.263Z" fill="#9EA1AB"/>
<path d="M417.506 174.163C417.506 174.883 417.506 175.484 417.494 175.844H418.73C418.718 175.352 418.718 174.487 418.718 173.227C419.318 173.959 420.35 174.308 422.03 174.308C425.318 174.308 426.242 173.516 426.242 170.864V170.503C426.242 167.851 425.318 167.059 422.102 167.059C420.326 167.059 419.246 167.444 418.658 168.224V167.203H417.494C417.506 167.707 417.506 168.139 417.506 168.691V174.163ZM418.706 170.732V170.635C418.706 168.74 419.246 168.176 421.862 168.176C424.49 168.176 425.018 168.679 425.018 170.623V170.743C425.018 172.687 424.49 173.191 421.802 173.191C419.246 173.191 418.706 172.64 418.706 170.732Z" fill="#9EA1AB"/>
<path d="M427.959 172.243C427.959 173.191 427.959 173.66 427.947 174.163H429.171C429.159 173.66 429.159 173.215 429.159 172.243V170.635C429.159 168.619 429.723 168.176 431.787 168.176C433.887 168.176 434.127 168.463 434.127 169.819V170.059L435.279 170.036C435.291 169.856 435.291 169.675 435.291 169.531C435.291 167.539 434.751 167.059 432.075 167.059C430.587 167.059 429.627 167.444 429.087 168.224L429.063 167.203H427.947C427.959 167.671 427.959 168.103 427.959 168.991V172.243Z" fill="#9EA1AB"/>
<path d="M440.801 174.308C444.269 174.308 445.181 173.516 445.181 170.864V170.503C445.181 167.851 444.269 167.059 440.801 167.059C437.333 167.059 436.421 167.851 436.421 170.503V170.864C436.421 173.516 437.333 174.308 440.801 174.308ZM440.801 173.191C438.161 173.191 437.645 172.687 437.645 170.743V170.623C437.645 168.679 438.161 168.176 440.801 168.176C443.441 168.176 443.957 168.679 443.957 170.623V170.743C443.957 172.687 443.441 173.191 440.801 173.191Z" fill="#9EA1AB"/>
<path d="M450.569 174.308C452.381 174.308 453.461 173.912 454.037 173.108L454.061 174.163H455.177C455.165 173.576 455.165 173.167 455.165 172.243V167.203C455.165 166.315 455.165 165.703 455.177 165.188H453.929C453.941 165.68 453.953 166.927 453.953 168.139C453.353 167.407 452.321 167.059 450.641 167.059C447.353 167.059 446.429 167.851 446.429 170.503V170.864C446.429 173.516 447.353 174.308 450.569 174.308ZM450.809 173.191C448.181 173.191 447.653 172.687 447.653 170.743V170.623C447.653 168.679 448.181 168.176 450.869 168.176C453.425 168.176 453.965 168.727 453.965 170.635V170.732C453.965 172.628 453.425 173.191 450.809 173.191Z" fill="#9EA1AB"/>
<path d="M457.326 169.844C457.326 170.563 457.314 170.851 457.314 171.344C457.314 173.455 457.926 174.308 461.082 174.308C462.762 174.308 463.782 173.924 464.346 173.143L464.37 174.163H465.486C465.474 173.695 465.474 173.264 465.474 172.376V169.123C465.474 168.175 465.474 167.707 465.486 167.203H464.262C464.274 167.707 464.274 168.151 464.274 169.123V170.803C464.274 172.627 463.71 173.191 461.406 173.191C458.982 173.191 458.526 172.58 458.526 170.983V169.111C458.526 168.091 458.526 167.743 458.538 167.203H457.314C457.326 167.767 457.326 168.247 457.326 169.111V169.844Z" fill="#9EA1AB"/>
<path d="M471.526 174.308C474.946 174.308 475.762 173.528 475.762 171.463L474.574 171.427C474.574 172.675 474.07 173.191 471.526 173.191C468.934 173.191 468.418 172.687 468.418 170.743V170.623C468.418 168.679 468.934 168.176 471.526 168.176C474.07 168.176 474.55 168.715 474.55 169.94L475.738 169.903C475.738 167.779 474.958 167.059 471.526 167.059C468.154 167.059 467.194 167.851 467.194 170.503V170.864C467.194 173.516 468.166 174.308 471.526 174.308Z" fill="#9EA1AB"/>
<path d="M481.384 174.308C484.888 174.308 485.548 173.611 485.548 171.943L484.36 171.895C484.36 172.795 484.036 173.24 481.396 173.24C478.84 173.24 478.264 172.771 478.204 171.151H485.548C485.548 170.947 485.56 170.695 485.548 170.503C485.512 167.851 484.72 167.059 481.3 167.059C477.88 167.059 476.968 167.851 476.968 170.503V170.864C476.968 173.516 477.88 174.308 481.384 174.308ZM481.3 168.104C483.76 168.104 484.228 168.583 484.276 170.12H478.204C478.288 168.536 478.888 168.104 481.3 168.104Z" fill="#9EA1AB"/>
<path d="M487.268 172.243C487.268 173.191 487.268 173.66 487.256 174.163H488.48C488.468 173.66 488.468 173.215 488.468 172.243V170.635C488.468 168.619 489.032 168.176 491.096 168.176C493.196 168.176 493.436 168.463 493.436 169.819V170.059L494.588 170.036C494.6 169.856 494.6 169.675 494.6 169.531C494.6 167.539 494.06 167.059 491.384 167.059C489.896 167.059 488.936 167.444 488.396 168.224L488.372 167.203H487.256C487.268 167.671 487.268 168.103 487.268 168.991V172.243Z" fill="#9EA1AB"/>
<path d="M504.202 174.308C506.062 174.308 507.118 173.935 507.646 173.347L507.658 174.163H508.738C508.726 173.215 508.726 172.604 508.726 171.884C508.726 170.876 508.738 170.419 508.738 169.471C508.738 167.827 508.126 167.059 504.574 167.059C501.346 167.059 500.614 167.743 500.638 169.195L501.85 169.232C501.838 168.403 502.126 168.128 504.574 168.128C507.106 168.128 507.526 168.499 507.526 169.699V170.552C506.962 170.108 505.93 169.844 504.202 169.844C501.046 169.844 500.362 170.503 500.362 172.1C500.362 173.66 501.01 174.308 504.202 174.308ZM504.55 173.263C502.102 173.263 501.598 172.964 501.598 172.1C501.598 171.212 501.922 170.839 504.55 170.839C507.13 170.839 507.55 171.199 507.55 171.74V172.111C507.55 172.891 507.13 173.263 504.55 173.263Z" fill="#9EA1AB"/>
<path d="M514.745 174.308C518.165 174.308 518.981 173.528 518.981 171.463L517.793 171.427C517.793 172.675 517.289 173.191 514.745 173.191C512.153 173.191 511.637 172.687 511.637 170.743V170.623C511.637 168.679 512.153 168.176 514.745 168.176C517.289 168.176 517.769 168.715 517.769 169.94L518.957 169.903C518.957 167.779 518.177 167.059 514.745 167.059C511.373 167.059 510.413 167.851 510.413 170.503V170.864C510.413 173.516 511.385 174.308 514.745 174.308Z" fill="#9EA1AB"/>
<path d="M524.519 174.308C527.939 174.308 528.755 173.528 528.755 171.463L527.567 171.427C527.567 172.675 527.063 173.191 524.519 173.191C521.927 173.191 521.411 172.687 521.411 170.743V170.623C521.411 168.679 521.927 168.176 524.519 168.176C527.063 168.176 527.543 168.715 527.543 169.94L528.731 169.903C528.731 167.779 527.951 167.059 524.519 167.059C521.147 167.059 520.187 167.851 520.187 170.503V170.864C520.187 173.516 521.159 174.308 524.519 174.308Z" fill="#9EA1AB"/>
<path d="M534.34 174.308C537.808 174.308 538.72 173.516 538.72 170.864V170.503C538.72 167.851 537.808 167.059 534.34 167.059C530.872 167.059 529.96 167.851 529.96 170.503V170.864C529.96 173.516 530.872 174.308 534.34 174.308ZM534.34 173.191C531.7 173.191 531.184 172.687 531.184 170.743V170.623C531.184 168.679 531.7 168.176 534.34 168.176C536.98 168.176 537.496 168.679 537.496 170.623V170.743C537.496 172.687 536.98 173.191 534.34 173.191Z" fill="#9EA1AB"/>
<path d="M540.412 169.844C540.412 170.563 540.4 170.851 540.4 171.344C540.4 173.455 541.012 174.308 544.168 174.308C545.848 174.308 546.868 173.924 547.432 173.143L547.456 174.163H548.572C548.56 173.695 548.56 173.264 548.56 172.376V169.123C548.56 168.175 548.56 167.707 548.572 167.203H547.348C547.36 167.707 547.36 168.151 547.36 169.123V170.803C547.36 172.627 546.796 173.191 544.492 173.191C542.068 173.191 541.612 172.58 541.612 170.983V169.111C541.612 168.091 541.612 167.743 541.624 167.203H540.4C540.412 167.767 540.412 168.247 540.412 169.111V169.844Z" fill="#9EA1AB"/>
<path d="M550.748 172.243C550.748 173.191 550.748 173.66 550.736 174.163H551.96C551.948 173.66 551.948 173.215 551.948 172.243V170.564C551.948 168.74 552.512 168.176 554.864 168.176C557.3 168.176 557.756 168.788 557.756 170.384V172.255C557.756 173.275 557.756 173.623 557.744 174.163H558.968C558.956 173.6 558.956 173.119 558.956 172.255V171.524C558.956 170.804 558.968 170.516 558.968 170.024C558.968 167.912 558.356 167.059 555.188 167.059C553.484 167.059 552.44 167.444 551.876 168.224L551.852 167.203H550.736C550.748 167.671 550.748 168.103 550.748 168.991V172.243Z" fill="#9EA1AB"/>
<path d="M561.503 169.844C561.503 170.431 561.491 171.115 561.491 171.643C561.491 173.708 562.127 174.224 564.959 174.224C565.487 174.224 565.931 174.199 566.303 174.163L566.291 173.072C565.835 173.096 565.559 173.108 565.019 173.108C563.183 173.108 562.703 172.927 562.703 171.476V168.295H566.291V167.203H562.703C562.703 166.603 562.703 166.124 562.715 165.836L561.491 165.859C561.503 166.411 561.503 166.807 561.503 167.203C561.119 167.203 560.735 167.215 560.243 167.203V168.295H561.503V169.844Z" fill="#9EA1AB"/>
<path d="M567.653 172.699V174.163H569.165V172.699H567.653Z" fill="#9EA1AB"/>
</g>
<defs>
<linearGradient id="paint0_linear_2206_33340" x1="-98.4793" y1="107.5" x2="619" y2="107.5" gradientUnits="userSpaceOnUse">
<stop offset="0.442708" stop-color="#535559"/>
<stop offset="1" stop-color="#535559" stop-opacity="0"/>
</linearGradient>
<linearGradient id="paint1_linear_2206_33340" x1="64.5022" y1="147.774" x2="54.3991" y2="102.872" gradientUnits="userSpaceOnUse">
<stop stop-color="#1E2025"/>
<stop offset="1" stop-color="#1E2025" stop-opacity="0"/>
</linearGradient>
<linearGradient id="paint2_linear_2206_33340" x1="145.607" y1="67.0972" x2="156.067" y2="113.589" gradientUnits="userSpaceOnUse">
<stop stop-color="#2E3138"/>
<stop offset="1" stop-color="#1E2025" stop-opacity="0"/>
</linearGradient>
<linearGradient id="paint3_linear_2206_33340" x1="104.569" y1="26" x2="104.569" y2="187.137" gradientUnits="userSpaceOnUse">
<stop stop-color="#43FF8E"/>
<stop offset="0.489583" stop-color="#5200FF"/>
<stop offset="1" stop-color="#E965FF"/>
</linearGradient>
<linearGradient id="paint4_linear_2206_33340" x1="104.97" y1="92.3885" x2="104.97" y2="129.245" gradientUnits="userSpaceOnUse">
<stop stop-color="#43FF8E"/>
<stop offset="1" stop-color="#313338" stop-opacity="0"/>
</linearGradient>
<clipPath id="clip0_2206_33340">
<rect width="619" height="215" fill="white"/>
</clipPath>
<clipPath id="clip1_2206_33340">
<rect width="161" height="161" fill="white" transform="translate(24 26)"/>
</clipPath>
</defs>
</svg>
