<svg width="619" height="215" viewBox="0 0 619 215" fill="none" xmlns="http://www.w3.org/2000/svg">
<g clip-path="url(#clip0_2206_33372)">
<path d="M63.6498 115.423C66.0248 111.773 73.0498 101.073 75.3748 97.6727H71.6248L66.1498 106.148C64.7998 108.298 63.3998 110.498 62.2748 112.323H59.9748C59.4998 110.473 58.8998 108.248 58.2998 106.073L55.9248 97.6727H52.4248C53.4998 101.073 56.6498 111.773 57.6998 115.423H63.6498Z" fill="#E965FF"/>
<path d="M81.308 115.723C88.758 115.723 90.633 114.073 91.608 108.523L91.733 107.773C92.708 102.223 90.783 100.573 83.358 100.573C75.908 100.573 74.033 102.223 73.058 107.773L72.933 108.523C71.958 114.073 73.883 115.723 81.308 115.723ZM81.483 112.823C76.383 112.823 75.633 111.873 76.258 108.248L76.283 108.048C76.933 104.398 78.033 103.473 83.158 103.473C88.258 103.473 89.058 104.398 88.383 108.048L88.358 108.248C87.733 111.873 86.608 112.823 81.483 112.823Z" fill="#E965FF"/>
<path d="M102.279 115.723C109.629 115.723 111.279 114.073 112.079 109.623L108.879 109.548C108.479 111.873 107.354 112.823 102.429 112.823C97.4035 112.823 96.6535 111.873 97.2785 108.248L97.3035 108.048C97.9535 104.398 99.0535 103.473 104.079 103.473C109.004 103.473 109.729 104.448 109.329 106.748V106.723L112.554 106.648C113.379 102.073 111.604 100.573 104.254 100.573C97.0035 100.573 95.0535 102.223 94.0785 107.773L93.9535 108.523C92.9785 114.073 95.0535 115.723 102.279 115.723Z" fill="#E965FF"/>
<path d="M121.434 115.723C125.434 115.723 127.659 114.948 128.884 113.623L128.609 115.423H131.559C131.884 113.448 132.109 112.173 132.384 110.673C132.784 108.373 132.959 107.523 133.309 105.548C133.909 102.148 132.534 100.573 125.009 100.573C118.134 100.573 116.534 101.898 116.009 105.198L119.134 105.273C119.384 103.723 119.984 103.223 124.784 103.223C129.709 103.223 130.334 103.923 129.934 106.223L129.634 107.923C128.709 106.948 126.709 106.423 122.984 106.423C116.509 106.423 114.934 107.798 114.334 111.123C113.784 114.398 114.909 115.723 121.434 115.723ZM122.984 113.198C118.159 113.198 117.359 112.648 117.634 111.048C117.909 109.423 118.634 108.748 123.809 108.748C128.784 108.748 129.459 109.398 129.259 110.448L129.159 111.073C128.909 112.523 127.984 113.198 122.984 113.198Z" fill="#E965FF"/>
<path d="M136.445 111.223C136.12 113.048 135.92 114.273 135.67 115.423H138.97C139.145 114.273 139.37 113.048 139.67 111.248L141.495 100.898C141.82 99.1227 142.045 97.7727 142.27 96.7227H138.97C138.795 97.7977 138.57 99.1227 138.27 100.873L136.445 111.223Z" fill="#E965FF"/>
<path d="M1 0.999973L499.178 0.999995C505.445 0.999995 511.463 3.45134 515.946 7.8301L600.419 90.3301C610.061 99.7464 610.061 115.254 600.419 124.67L515.946 207.17C511.463 211.549 505.445 214 499.178 214L0.999991 214" stroke="url(#paint0_linear_2206_33372)" stroke-width="1.38335"/>
<g clip-path="url(#clip1_2206_33372)">
<path d="M414.715 116.623C409.376 111.284 409.376 102.628 414.715 97.2892L485.289 26.7145C490.628 21.3756 499.284 21.3756 504.623 26.7145L575.198 97.2892C580.537 102.628 580.537 111.284 575.198 116.623L504.623 187.198C499.284 192.537 490.628 192.537 485.289 187.198L414.715 116.623Z" fill="#141517" stroke="url(#paint1_linear_2206_33372)" stroke-width="1.42067"/>
<path d="M454.116 155.261C434.459 133.151 419.117 124.126 410.543 108.948L471.335 108.634L478.871 116.531L486.173 123.833L454.116 155.261Z" fill="url(#paint2_linear_2206_33372)"/>
<path d="M535.681 59.7021C558.437 82.4578 567.898 90.3182 577.294 103.553L506.228 107.202L502.092 90.5977L535.681 59.7021Z" fill="url(#paint3_linear_2206_33372)"/>
<path d="M472.041 109.722C470.481 108.162 470.481 105.633 472.041 104.074L491.641 84.4735C493.201 82.9138 495.73 82.9138 497.289 84.4735L516.889 104.074C518.449 105.633 518.449 108.162 516.889 109.722L497.289 129.322C495.73 130.882 493.201 130.882 491.641 129.322L472.041 109.722Z" fill="url(#paint4_linear_2206_33372)"/>
</g>
<g clip-path="url(#clip2_2206_33372)">
<path d="M0.999986 0.999973L499.178 0.999995C505.445 0.999995 511.463 3.45134 515.946 7.8301L600.419 90.3301C610.061 99.7464 610.061 115.254 600.419 124.67L515.946 207.17C511.463 211.549 505.445 214 499.178 214L0.999977 214" stroke="url(#paint5_linear_2206_33372)" stroke-width="1.38335"/>
<line x1="285" y1="106.25" x2="137" y2="106.25" stroke="url(#paint6_linear_2206_33372)" stroke-width="0.5"/>
<path d="M341.899 106.326C351.286 106.326 352.178 80.6589 352.178 49C352.178 80.6589 352.583 106.326 362.457 106.326C352.466 106.326 352.178 131.994 352.178 163.652C352.178 131.994 351.167 106.326 341.899 106.326Z" fill="#E965FF"/>
<path d="M306.95 106.67C314.167 106.67 315.173 100.214 315.173 92.2522C315.173 100.214 316.029 106.67 323.396 106.67C316.029 106.67 315.173 113.125 315.173 121.087C315.173 113.125 314.167 106.67 306.95 106.67Z" fill="#E965FF"/>
<path d="M361.087 106.67C368.304 106.67 369.31 91.9148 369.31 73.7157C369.31 91.9148 370.166 106.67 377.533 106.67C370.166 106.67 369.31 121.425 369.31 139.624C369.31 121.425 368.304 106.67 361.087 106.67Z" fill="#E965FF"/>
<path d="M271.316 106.326C289.059 106.326 291.532 102.484 291.532 97.7443C291.532 102.484 293.636 106.326 311.747 106.326C293.636 106.326 291.532 110.168 291.532 114.908C291.532 110.168 289.059 106.326 271.316 106.326Z" fill="#E965FF"/>
<path d="M375.477 106.326C388.709 106.326 390.553 96.9507 390.553 85.3867C390.553 96.9507 392.123 106.326 405.629 106.326C392.123 106.326 390.553 115.702 390.553 127.266C390.553 115.702 388.709 106.326 375.477 106.326Z" fill="#E965FF"/>
<path d="M322.026 106.326C331.65 106.326 332.991 94.4916 332.991 79.8944C332.991 94.4916 334.132 106.326 343.955 106.326C334.132 106.326 332.991 118.161 332.991 132.758C332.991 118.161 331.65 106.326 322.026 106.326Z" fill="#E965FF"/>
<rect width="139" height="115" transform="matrix(-1 0 0 1 407 49)" fill="url(#paint7_linear_2206_33372)"/>
</g>
<path d="M53.8601 155.447C53.8601 156.059 53.8601 156.623 53.8481 157.163H55.1201C55.1081 156.611 55.1081 156.059 55.1081 155.447V154.331C56.4401 152.711 58.4801 150.263 59.8721 148.643H58.4561L56.3561 151.115C55.6721 151.907 55.0601 152.675 54.4721 153.419C53.9201 152.699 53.2841 151.919 52.6241 151.115L50.5961 148.643H49.1201C50.5121 150.263 52.5281 152.711 53.8601 154.331V155.447Z" fill="#9EA1AB"/>
<path d="M63.6721 157.307C67.1401 157.307 68.0521 156.515 68.0521 153.863V153.503C68.0521 150.851 67.1401 150.059 63.6721 150.059C60.2041 150.059 59.2921 150.851 59.2921 153.503V153.863C59.2921 156.515 60.2041 157.307 63.6721 157.307ZM63.6721 156.191C61.0321 156.191 60.5161 155.687 60.5161 153.743V153.623C60.5161 151.679 61.0321 151.175 63.6721 151.175C66.3121 151.175 66.8281 151.679 66.8281 153.623V153.743C66.8281 155.687 66.3121 156.191 63.6721 156.191Z" fill="#9EA1AB"/>
<path d="M69.7439 152.843C69.7439 153.563 69.7319 153.851 69.7319 154.343C69.7319 156.455 70.3439 157.307 73.4999 157.307C75.1799 157.307 76.1999 156.923 76.7639 156.143L76.7879 157.163H77.9039C77.8919 156.695 77.8919 156.263 77.8919 155.375V152.123C77.8919 151.175 77.8919 150.707 77.9039 150.203H76.6799C76.6919 150.707 76.6919 151.151 76.6919 152.123V153.803C76.6919 155.627 76.1279 156.191 73.8239 156.191C71.3999 156.191 70.9439 155.579 70.9439 153.983V152.111C70.9439 151.091 70.9439 150.743 70.9559 150.203H69.7319C69.7439 150.767 69.7439 151.247 69.7439 152.111V152.843Z" fill="#9EA1AB"/>
<path d="M88.4092 157.307C91.8292 157.307 92.6452 156.527 92.6452 154.463L91.4572 154.427C91.4572 155.675 90.9532 156.191 88.4092 156.191C85.8172 156.191 85.3012 155.687 85.3012 153.743V153.623C85.3012 151.679 85.8172 151.175 88.4092 151.175C90.9532 151.175 91.4332 151.715 91.4332 152.939L92.6212 152.903C92.6212 150.779 91.8412 150.059 88.4092 150.059C85.0372 150.059 84.0772 150.851 84.0772 153.503V153.863C84.0772 156.515 85.0492 157.307 88.4092 157.307Z" fill="#9EA1AB"/>
<path d="M97.8587 157.307C99.7187 157.307 100.775 156.935 101.303 156.347L101.315 157.163H102.395C102.383 156.215 102.383 155.603 102.383 154.883C102.383 153.875 102.395 153.419 102.395 152.471C102.395 150.827 101.783 150.059 98.2307 150.059C95.0027 150.059 94.2707 150.743 94.2947 152.195L95.5067 152.231C95.4947 151.403 95.7827 151.127 98.2307 151.127C100.763 151.127 101.183 151.499 101.183 152.699V153.551C100.619 153.107 99.5867 152.843 97.8587 152.843C94.7027 152.843 94.0187 153.503 94.0187 155.099C94.0187 156.659 94.6667 157.307 97.8587 157.307ZM98.2067 156.263C95.7587 156.263 95.2547 155.963 95.2547 155.099C95.2547 154.211 95.5787 153.839 98.2067 153.839C100.787 153.839 101.207 154.199 101.207 154.739V155.111C101.207 155.891 100.787 156.263 98.2067 156.263Z" fill="#9EA1AB"/>
<path d="M104.537 155.243C104.537 156.191 104.537 156.659 104.525 157.163H105.749C105.737 156.659 105.737 156.215 105.737 155.243V153.563C105.737 151.739 106.301 151.175 108.653 151.175C111.089 151.175 111.545 151.787 111.545 153.383V155.255C111.545 156.275 111.545 156.623 111.533 157.163H112.757C112.745 156.599 112.745 156.119 112.745 155.255V154.523C112.745 153.803 112.757 153.515 112.757 153.023C112.757 150.911 112.145 150.059 108.977 150.059C107.273 150.059 106.229 150.443 105.665 151.223L105.641 150.203H104.525C104.537 150.671 104.537 151.103 104.537 151.991V155.243Z" fill="#9EA1AB"/>
<path d="M122.973 157.307C126.465 157.307 126.909 156.755 126.909 155.315C126.909 153.887 126.477 153.359 122.877 153.059C120.297 152.843 120.117 152.627 120.117 152.027C120.117 151.391 120.489 151.139 122.745 151.139C125.037 151.139 125.397 151.415 125.397 152.147V152.327L126.633 152.291C126.633 150.623 126.045 150.059 122.793 150.059C119.589 150.059 118.965 150.647 118.965 152.111C118.965 153.527 119.493 153.983 122.685 154.247C125.469 154.475 125.685 154.703 125.685 155.375C125.685 156.023 125.433 156.299 123.021 156.299C120.465 156.299 120.093 156.023 120.093 155.051V154.859L118.881 154.895C118.881 156.911 119.505 157.307 122.973 157.307Z" fill="#9EA1AB"/>
<path d="M132.521 157.307C136.025 157.307 136.685 156.611 136.685 154.943L135.497 154.895C135.497 155.795 135.173 156.239 132.533 156.239C129.977 156.239 129.401 155.771 129.341 154.151H136.685C136.685 153.947 136.697 153.695 136.685 153.503C136.649 150.851 135.857 150.059 132.437 150.059C129.017 150.059 128.105 150.851 128.105 153.503V153.863C128.105 156.515 129.017 157.307 132.521 157.307ZM132.437 151.103C134.897 151.103 135.365 151.583 135.413 153.119H129.341C129.425 151.535 130.025 151.103 132.437 151.103Z" fill="#9EA1AB"/>
<path d="M141.945 157.307C143.805 157.307 144.861 156.935 145.389 156.347L145.401 157.163H146.481C146.469 156.215 146.469 155.603 146.469 154.883C146.469 153.875 146.481 153.419 146.481 152.471C146.481 150.827 145.869 150.059 142.317 150.059C139.089 150.059 138.357 150.743 138.381 152.195L139.593 152.231C139.581 151.403 139.869 151.127 142.317 151.127C144.849 151.127 145.269 151.499 145.269 152.699V153.551C144.705 153.107 143.673 152.843 141.945 152.843C138.789 152.843 138.105 153.503 138.105 155.099C138.105 156.659 138.753 157.307 141.945 157.307ZM142.293 156.263C139.845 156.263 139.341 155.963 139.341 155.099C139.341 154.211 139.665 153.839 142.293 153.839C144.873 153.839 145.293 154.199 145.293 154.739V155.111C145.293 155.891 144.873 156.263 142.293 156.263Z" fill="#9EA1AB"/>
<path d="M148.623 155.243C148.623 156.191 148.623 156.659 148.611 157.163H149.835C149.823 156.659 149.823 156.215 149.823 155.243V153.635C149.823 151.619 150.387 151.175 152.451 151.175C154.551 151.175 154.791 151.463 154.791 152.819V153.059L155.943 153.035C155.955 152.855 155.955 152.675 155.955 152.531C155.955 150.539 155.415 150.059 152.739 150.059C151.251 150.059 150.291 150.443 149.751 151.223L149.727 150.203H148.611C148.623 150.671 148.623 151.103 148.623 151.991V155.243Z" fill="#9EA1AB"/>
<path d="M161.417 157.307C164.837 157.307 165.653 156.527 165.653 154.463L164.465 154.427C164.465 155.675 163.961 156.191 161.417 156.191C158.825 156.191 158.309 155.687 158.309 153.743V153.623C158.309 151.679 158.825 151.175 161.417 151.175C163.961 151.175 164.441 151.715 164.441 152.939L165.629 152.903C165.629 150.779 164.849 150.059 161.417 150.059C158.045 150.059 157.085 150.851 157.085 153.503V153.863C157.085 156.515 158.057 157.307 161.417 157.307Z" fill="#9EA1AB"/>
<path d="M167.326 155.267C167.326 156.143 167.326 156.575 167.314 157.163H168.538C168.526 156.563 168.526 156.047 168.526 155.243V153.563C168.526 151.739 169.09 151.175 171.442 151.175C173.878 151.175 174.334 151.787 174.334 153.383V155.267C174.334 156.119 174.334 156.551 174.322 157.163H175.546C175.534 156.479 175.534 155.915 175.534 155.291V154.523C175.534 153.803 175.546 153.515 175.546 153.023C175.546 150.911 174.934 150.059 171.766 150.059C170.098 150.059 169.066 150.431 168.49 151.175C168.514 150.359 168.55 148.391 168.55 148.187H167.314C167.326 148.703 167.326 149.339 167.326 150.203V155.267Z" fill="#9EA1AB"/>
<path d="M182.51 153.119C182.51 154.079 182.51 156.215 182.498 157.163H183.722C183.71 156.635 183.71 155.951 183.71 155.243V151.295H185.558V150.203H183.71V150.095C183.71 149.387 183.914 149.219 184.454 149.195C184.898 149.171 185.414 149.147 185.726 149.147L185.69 148.115C185.438 148.127 184.79 148.139 184.214 148.175C182.978 148.247 182.498 148.631 182.498 149.975C182.498 150.047 182.498 150.119 182.498 150.203H181.358L181.31 151.295H182.498C182.51 151.895 182.51 152.555 182.51 153.119Z" fill="#9EA1AB"/>
<path d="M190.492 157.307C193.96 157.307 194.872 156.515 194.872 153.863V153.503C194.872 150.851 193.96 150.059 190.492 150.059C187.024 150.059 186.112 150.851 186.112 153.503V153.863C186.112 156.515 187.024 157.307 190.492 157.307ZM190.492 156.191C187.852 156.191 187.336 155.687 187.336 153.743V153.623C187.336 151.679 187.852 151.175 190.492 151.175C193.132 151.175 193.648 151.679 193.648 153.623V153.743C193.648 155.687 193.132 156.191 190.492 156.191Z" fill="#9EA1AB"/>
<path d="M196.588 155.243C196.588 156.191 196.588 156.659 196.576 157.163H197.8C197.788 156.659 197.788 156.215 197.788 155.243V153.635C197.788 151.619 198.352 151.175 200.416 151.175C202.516 151.175 202.756 151.463 202.756 152.819V153.059L203.908 153.035C203.92 152.855 203.92 152.675 203.92 152.531C203.92 150.539 203.38 150.059 200.704 150.059C199.216 150.059 198.256 150.443 197.716 151.223L197.692 150.203H196.576C196.588 150.671 196.588 151.103 196.588 151.991V155.243Z" fill="#9EA1AB"/>
<path d="M210.007 155.279C210.007 156.083 210.007 156.635 209.995 157.163H211.219C211.207 156.635 211.207 156.083 211.207 155.291V150.215C211.207 149.351 211.207 148.703 211.219 148.187H209.995C210.007 148.703 210.007 149.351 210.007 150.203V155.279Z" fill="#9EA1AB"/>
<path d="M213.428 148.379V149.495H214.652V148.379H213.428ZM213.44 155.279C213.44 156.083 213.44 156.635 213.428 157.163H214.652C214.64 156.635 214.64 156.083 214.64 155.291V152.231C214.64 151.367 214.64 150.719 214.652 150.203H213.428C213.44 150.719 213.44 151.367 213.44 152.219V155.279Z" fill="#9EA1AB"/>
<path d="M216.85 155.243C216.85 156.191 216.85 156.659 216.838 157.163H218.062C218.05 156.659 218.05 156.215 218.05 155.243V153.563C218.05 151.739 218.614 151.175 220.51 151.175C222.166 151.175 222.646 151.583 222.646 152.819V155.279C222.646 156.203 222.646 156.575 222.634 157.163H223.858C223.846 156.431 223.846 155.903 223.846 155.243V153.563C223.846 151.739 224.434 151.175 226.318 151.175C227.974 151.175 228.454 151.583 228.454 152.819V155.267C228.454 156.203 228.454 156.575 228.442 157.163H229.666C229.654 156.431 229.654 155.903 229.654 155.267V154.643C229.654 153.563 229.666 152.951 229.666 152.459C229.666 150.707 229.054 150.059 226.678 150.059C225.166 150.059 224.23 150.467 223.726 151.307C223.426 150.407 222.622 150.059 220.87 150.059C219.406 150.059 218.482 150.443 217.978 151.235L217.954 150.203H216.838C216.85 150.671 216.85 151.103 216.85 151.991V155.243Z" fill="#9EA1AB"/>
<path d="M231.827 148.379V149.495H233.051V148.379H231.827ZM231.839 155.279C231.839 156.083 231.839 156.635 231.827 157.163H233.051C233.039 156.635 233.039 156.083 233.039 155.291V152.231C233.039 151.367 233.039 150.719 233.051 150.203H231.827C231.839 150.719 231.839 151.367 231.839 152.219V155.279Z" fill="#9EA1AB"/>
<path d="M235.632 152.843C235.632 153.431 235.62 154.115 235.62 154.643C235.62 156.707 236.256 157.223 239.088 157.223C239.616 157.223 240.06 157.199 240.432 157.163L240.42 156.071C239.964 156.095 239.688 156.107 239.148 156.107C237.312 156.107 236.832 155.927 236.832 154.475V151.295H240.42V150.203H236.832C236.832 149.603 236.832 149.123 236.844 148.835L235.62 148.859C235.632 149.411 235.632 149.807 235.632 150.203C235.248 150.203 234.864 150.215 234.372 150.203V151.295H235.632V152.843Z" fill="#9EA1AB"/>
<path d="M242.058 155.279C242.058 156.083 242.058 156.635 242.046 157.163H243.27C243.258 156.635 243.258 156.083 243.258 155.291V150.215C243.258 149.351 243.258 148.703 243.27 148.187H242.046C242.058 148.703 242.058 149.351 242.058 150.203V155.279Z" fill="#9EA1AB"/>
<path d="M249.415 157.307C252.919 157.307 253.579 156.611 253.579 154.943L252.391 154.895C252.391 155.795 252.067 156.239 249.427 156.239C246.871 156.239 246.295 155.771 246.235 154.151H253.579C253.579 153.947 253.591 153.695 253.579 153.503C253.543 150.851 252.751 150.059 249.331 150.059C245.911 150.059 244.999 150.851 244.999 153.503V153.863C244.999 156.515 245.911 157.307 249.415 157.307ZM249.331 151.103C251.791 151.103 252.259 151.583 252.307 153.119H246.235C246.319 151.535 246.919 151.103 249.331 151.103Z" fill="#9EA1AB"/>
<path d="M258.899 157.307C262.391 157.307 262.835 156.755 262.835 155.315C262.835 153.887 262.403 153.359 258.803 153.059C256.223 152.843 256.043 152.627 256.043 152.027C256.043 151.391 256.415 151.139 258.671 151.139C260.963 151.139 261.323 151.415 261.323 152.147V152.327L262.559 152.291C262.559 150.623 261.971 150.059 258.719 150.059C255.515 150.059 254.891 150.647 254.891 152.111C254.891 153.527 255.419 153.983 258.611 154.247C261.395 154.475 261.611 154.703 261.611 155.375C261.611 156.023 261.359 156.299 258.947 156.299C256.391 156.299 256.019 156.023 256.019 155.051V154.859L254.807 154.895C254.807 156.911 255.431 157.307 258.899 157.307Z" fill="#9EA1AB"/>
<path d="M268.098 157.307C271.59 157.307 272.034 156.755 272.034 155.315C272.034 153.887 271.602 153.359 268.002 153.059C265.422 152.843 265.242 152.627 265.242 152.027C265.242 151.391 265.614 151.139 267.87 151.139C270.162 151.139 270.522 151.415 270.522 152.147V152.327L271.758 152.291C271.758 150.623 271.17 150.059 267.918 150.059C264.714 150.059 264.09 150.647 264.09 152.111C264.09 153.527 264.618 153.983 267.81 154.247C270.594 154.475 270.81 154.703 270.81 155.375C270.81 156.023 270.558 156.299 268.146 156.299C265.59 156.299 265.218 156.023 265.218 155.051V154.859L264.006 154.895C264.006 156.911 264.63 157.307 268.098 157.307Z" fill="#9EA1AB"/>
<path d="M282.026 157.307C285.446 157.307 286.262 156.527 286.262 154.463L285.074 154.427C285.074 155.675 284.57 156.191 282.026 156.191C279.434 156.191 278.918 155.687 278.918 153.743V153.623C278.918 151.679 279.434 151.175 282.026 151.175C284.57 151.175 285.05 151.715 285.05 152.939L286.238 152.903C286.238 150.779 285.458 150.059 282.026 150.059C278.654 150.059 277.694 150.851 277.694 153.503V153.863C277.694 156.515 278.666 157.307 282.026 157.307Z" fill="#9EA1AB"/>
<path d="M287.936 155.267C287.936 156.143 287.936 156.575 287.924 157.163H289.148C289.136 156.563 289.136 156.047 289.136 155.243V153.563C289.136 151.739 289.7 151.175 292.052 151.175C294.488 151.175 294.944 151.787 294.944 153.383V155.267C294.944 156.119 294.944 156.551 294.932 157.163H296.156C296.144 156.479 296.144 155.915 296.144 155.291V154.523C296.144 153.803 296.156 153.515 296.156 153.023C296.156 150.911 295.544 150.059 292.376 150.059C290.708 150.059 289.676 150.431 289.1 151.175C289.124 150.359 289.16 148.391 289.16 148.187H287.924C287.936 148.703 287.936 149.339 287.936 150.203V155.267Z" fill="#9EA1AB"/>
<path d="M301.847 157.307C303.707 157.307 304.763 156.935 305.291 156.347L305.303 157.163H306.383C306.371 156.215 306.371 155.603 306.371 154.883C306.371 153.875 306.383 153.419 306.383 152.471C306.383 150.827 305.771 150.059 302.219 150.059C298.991 150.059 298.259 150.743 298.283 152.195L299.495 152.231C299.483 151.403 299.771 151.127 302.219 151.127C304.751 151.127 305.171 151.499 305.171 152.699V153.551C304.607 153.107 303.575 152.843 301.847 152.843C298.691 152.843 298.007 153.503 298.007 155.099C298.007 156.659 298.655 157.307 301.847 157.307ZM302.195 156.263C299.747 156.263 299.243 155.963 299.243 155.099C299.243 154.211 299.567 153.839 302.195 153.839C304.775 153.839 305.195 154.199 305.195 154.739V155.111C305.195 155.891 304.775 156.263 302.195 156.263Z" fill="#9EA1AB"/>
<path d="M308.526 155.243C308.526 156.191 308.526 156.659 308.514 157.163H309.738C309.726 156.659 309.726 156.215 309.726 155.243V153.563C309.726 151.739 310.29 151.175 312.642 151.175C315.078 151.175 315.534 151.787 315.534 153.383V155.255C315.534 156.275 315.534 156.623 315.522 157.163H316.746C316.734 156.599 316.734 156.119 316.734 155.255V154.523C316.734 153.803 316.746 153.515 316.746 153.023C316.746 150.911 316.134 150.059 312.966 150.059C311.262 150.059 310.218 150.443 309.654 151.223L309.63 150.203H308.514C308.526 150.671 308.526 151.103 308.526 151.991V155.243Z" fill="#9EA1AB"/>
<path d="M322.761 157.307C326.181 157.307 326.997 156.527 326.997 154.463L325.809 154.427C325.809 155.675 325.305 156.191 322.761 156.191C320.169 156.191 319.653 155.687 319.653 153.743V153.623C319.653 151.679 320.169 151.175 322.761 151.175C325.305 151.175 325.785 151.715 325.785 152.939L326.973 152.903C326.973 150.779 326.193 150.059 322.761 150.059C319.389 150.059 318.429 150.851 318.429 153.503V153.863C318.429 156.515 319.401 157.307 322.761 157.307Z" fill="#9EA1AB"/>
<path d="M332.618 157.307C336.122 157.307 336.782 156.611 336.782 154.943L335.594 154.895C335.594 155.795 335.27 156.239 332.63 156.239C330.074 156.239 329.498 155.771 329.438 154.151H336.782C336.782 153.947 336.794 153.695 336.782 153.503C336.746 150.851 335.954 150.059 332.534 150.059C329.114 150.059 328.202 150.851 328.202 153.503V153.863C328.202 156.515 329.114 157.307 332.618 157.307ZM332.534 151.103C334.994 151.103 335.462 151.583 335.51 153.119H329.438C329.522 151.535 330.122 151.103 332.534 151.103Z" fill="#9EA1AB"/>
<path d="M53.6321 179.307C55.4921 179.307 56.5481 178.935 57.0761 178.347L57.0881 179.163H58.1681C58.1561 178.215 58.1561 177.603 58.1561 176.883C58.1561 175.875 58.1681 175.419 58.1681 174.471C58.1681 172.827 57.5561 172.059 54.0041 172.059C50.7761 172.059 50.0441 172.743 50.0681 174.195L51.2801 174.231C51.2681 173.403 51.5561 173.127 54.0041 173.127C56.5361 173.127 56.9561 173.499 56.9561 174.699V175.551C56.3921 175.107 55.3601 174.843 53.6321 174.843C50.4761 174.843 49.7921 175.503 49.7921 177.099C49.7921 178.659 50.4401 179.307 53.6321 179.307ZM53.9801 178.263C51.5321 178.263 51.0281 177.963 51.0281 177.099C51.0281 176.211 51.3521 175.839 53.9801 175.839C56.5601 175.839 56.9801 176.199 56.9801 176.739V177.111C56.9801 177.891 56.5601 178.263 53.9801 178.263Z" fill="#9EA1AB"/>
<path d="M60.3109 177.243C60.3109 178.191 60.3109 178.659 60.2989 179.163H61.5229C61.5109 178.659 61.5109 178.215 61.5109 177.243V175.563C61.5109 173.739 62.0749 173.175 64.4269 173.175C66.8629 173.175 67.3189 173.787 67.3189 175.383V177.255C67.3189 178.275 67.3189 178.623 67.3069 179.163H68.5309C68.5189 178.599 68.5189 178.119 68.5189 177.255V176.523C68.5189 175.803 68.5309 175.515 68.5309 175.023C68.5309 172.911 67.9189 172.059 64.7509 172.059C63.0469 172.059 62.0029 172.443 61.4389 173.223L61.4149 172.203H60.2989C60.3109 172.671 60.3109 173.103 60.3109 173.991V177.243Z" fill="#9EA1AB"/>
<path d="M74.354 179.307C76.166 179.307 77.246 178.911 77.822 178.107L77.846 179.163H78.962C78.95 178.575 78.95 178.167 78.95 177.243V172.203C78.95 171.315 78.95 170.703 78.962 170.187H77.714C77.726 170.679 77.738 171.927 77.738 173.139C77.138 172.407 76.106 172.059 74.426 172.059C71.138 172.059 70.214 172.851 70.214 175.503V175.863C70.214 178.515 71.138 179.307 74.354 179.307ZM74.594 178.191C71.966 178.191 71.438 177.687 71.438 175.743V175.623C71.438 173.679 71.966 173.175 74.654 173.175C77.21 173.175 77.75 173.727 77.75 175.635V175.731C77.75 177.627 77.21 178.191 74.594 178.191Z" fill="#9EA1AB"/>
<path d="M85.5999 177.243C85.5999 178.191 85.5999 178.659 85.5879 179.163H86.8119C86.7999 178.659 86.7999 178.215 86.7999 177.243V175.563C86.7999 173.739 87.3639 173.175 89.2599 173.175C90.9159 173.175 91.3959 173.583 91.3959 174.819V177.279C91.3959 178.203 91.3959 178.575 91.3839 179.163H92.6079C92.5959 178.431 92.5959 177.903 92.5959 177.243V175.563C92.5959 173.739 93.1839 173.175 95.0679 173.175C96.7239 173.175 97.2039 173.583 97.2039 174.819V177.267C97.2039 178.203 97.2039 178.575 97.1919 179.163H98.4159C98.4039 178.431 98.4039 177.903 98.4039 177.267V176.643C98.4039 175.563 98.4159 174.951 98.4159 174.459C98.4159 172.707 97.8039 172.059 95.4279 172.059C93.9159 172.059 92.9799 172.467 92.4759 173.307C92.1759 172.407 91.3719 172.059 89.6199 172.059C88.1559 172.059 87.2319 172.443 86.7279 173.235L86.7039 172.203H85.5879C85.5999 172.671 85.5999 173.103 85.5999 173.991V177.243Z" fill="#9EA1AB"/>
<path d="M104.105 179.307C105.965 179.307 107.021 178.935 107.549 178.347L107.561 179.163H108.641C108.629 178.215 108.629 177.603 108.629 176.883C108.629 175.875 108.641 175.419 108.641 174.471C108.641 172.827 108.029 172.059 104.477 172.059C101.249 172.059 100.517 172.743 100.541 174.195L101.753 174.231C101.741 173.403 102.029 173.127 104.477 173.127C107.009 173.127 107.429 173.499 107.429 174.699V175.551C106.865 175.107 105.833 174.843 104.105 174.843C100.949 174.843 100.265 175.503 100.265 177.099C100.265 178.659 100.913 179.307 104.105 179.307ZM104.453 178.263C102.005 178.263 101.501 177.963 101.501 177.099C101.501 176.211 101.825 175.839 104.453 175.839C107.033 175.839 107.453 176.199 107.453 176.739V177.111C107.453 177.891 107.033 178.263 104.453 178.263Z" fill="#9EA1AB"/>
<path d="M110.808 177.279C110.808 178.083 110.808 178.635 110.796 179.163H112.02C112.008 178.635 112.008 178.083 112.008 177.291V176.223H113.844C114.216 176.523 114.636 176.883 115.104 177.243L117.516 179.163H119.184L119.208 179.139C118.032 178.215 116.052 176.595 114.792 175.587C116.004 174.591 117.828 173.127 119.028 172.227L119.004 172.203H117.408L115.308 173.871C114.78 174.291 114.252 174.723 113.808 175.095H112.008V172.215C112.008 171.351 112.008 170.691 112.02 170.187H110.796C110.808 170.703 110.808 171.351 110.808 172.203V177.279Z" fill="#9EA1AB"/>
<path d="M124.036 179.307C127.54 179.307 128.2 178.611 128.2 176.943L127.012 176.895C127.012 177.795 126.688 178.239 124.048 178.239C121.492 178.239 120.916 177.771 120.856 176.151H128.2C128.2 175.947 128.212 175.695 128.2 175.503C128.164 172.851 127.372 172.059 123.952 172.059C120.532 172.059 119.62 172.851 119.62 175.503V175.863C119.62 178.515 120.532 179.307 124.036 179.307ZM123.952 173.103C126.412 173.103 126.88 173.583 126.928 175.119H120.856C120.94 173.535 121.54 173.103 123.952 173.103Z" fill="#9EA1AB"/>
<path d="M138.837 179.379C139.737 177.603 141.621 173.835 142.485 172.203H141.189L139.701 175.107C139.305 175.875 138.909 176.655 138.573 177.339H137.901C137.481 176.643 136.989 175.851 136.509 175.071L134.757 172.203H133.389C134.433 173.847 136.329 176.979 137.205 178.455H137.997L137.781 178.839C137.349 179.607 137.073 179.763 136.365 179.763C135.909 179.763 135.537 179.751 135.153 179.727L135.117 180.807C135.561 180.831 136.113 180.855 136.401 180.855C137.625 180.855 138.285 180.471 138.837 179.379Z" fill="#9EA1AB"/>
<path d="M147.356 179.307C150.824 179.307 151.736 178.515 151.736 175.863V175.503C151.736 172.851 150.824 172.059 147.356 172.059C143.888 172.059 142.976 172.851 142.976 175.503V175.863C142.976 178.515 143.888 179.307 147.356 179.307ZM147.356 178.191C144.716 178.191 144.2 177.687 144.2 175.743V175.623C144.2 173.679 144.716 173.175 147.356 173.175C149.996 173.175 150.512 173.679 150.512 175.623V175.743C150.512 177.687 149.996 178.191 147.356 178.191Z" fill="#9EA1AB"/>
<path d="M153.427 174.843C153.427 175.563 153.415 175.851 153.415 176.343C153.415 178.455 154.027 179.307 157.183 179.307C158.863 179.307 159.883 178.923 160.447 178.143L160.471 179.163H161.587C161.575 178.695 161.575 178.263 161.575 177.375V174.123C161.575 173.175 161.575 172.707 161.587 172.203H160.363C160.375 172.707 160.375 173.151 160.375 174.123V175.803C160.375 177.627 159.811 178.191 157.507 178.191C155.083 178.191 154.627 177.579 154.627 175.983V174.111C154.627 173.091 154.627 172.743 154.639 172.203H153.415C153.427 172.767 153.427 173.247 153.427 174.111V174.843Z" fill="#9EA1AB"/>
<path d="M163.764 177.243C163.764 178.191 163.764 178.659 163.752 179.163H164.976C164.964 178.659 164.964 178.215 164.964 177.243V175.635C164.964 173.619 165.528 173.175 167.592 173.175C169.692 173.175 169.932 173.463 169.932 174.819V175.059L171.084 175.035C171.096 174.855 171.096 174.675 171.096 174.531C171.096 172.539 170.556 172.059 167.88 172.059C166.392 172.059 165.432 172.443 164.892 173.223L164.868 172.203H163.752C163.764 172.671 163.764 173.103 163.764 173.991V177.243Z" fill="#9EA1AB"/>
<path d="M181.071 179.307C184.539 179.307 185.451 178.515 185.451 175.863V175.503C185.451 172.851 184.539 172.059 181.071 172.059C177.603 172.059 176.691 172.851 176.691 175.503V175.863C176.691 178.515 177.603 179.307 181.071 179.307ZM181.071 178.191C178.431 178.191 177.915 177.687 177.915 175.743V175.623C177.915 173.679 178.431 173.175 181.071 173.175C183.711 173.175 184.227 173.679 184.227 175.623V175.743C184.227 177.687 183.711 178.191 181.071 178.191Z" fill="#9EA1AB"/>
<path d="M191.813 175.743C192.113 174.963 192.425 174.183 192.701 173.475H193.049C193.301 174.195 193.577 174.999 193.841 175.779L195.005 179.163H196.949C197.597 177.459 199.013 173.835 199.721 172.203H198.437L197.273 175.251C196.925 176.175 196.565 177.135 196.253 177.963H195.809C195.569 177.195 195.269 176.307 194.969 175.431L193.865 172.203H191.993L190.793 175.383C190.469 176.247 190.121 177.159 189.833 177.963H189.365C189.089 177.147 188.765 176.187 188.465 175.299L187.421 172.203H186.053C186.677 173.811 187.985 177.459 188.561 179.163H190.505L191.813 175.743Z" fill="#9EA1AB"/>
<path d="M200.912 177.243C200.912 178.191 200.912 178.659 200.9 179.163H202.124C202.112 178.659 202.112 178.215 202.112 177.243V175.563C202.112 173.739 202.676 173.175 205.028 173.175C207.464 173.175 207.92 173.787 207.92 175.383V177.255C207.92 178.275 207.92 178.623 207.908 179.163H209.132C209.12 178.599 209.12 178.119 209.12 177.255V176.523C209.12 175.803 209.132 175.515 209.132 175.023C209.132 172.911 208.52 172.059 205.352 172.059C203.648 172.059 202.604 172.443 202.04 173.223L202.016 172.203H200.9C200.912 172.671 200.912 173.103 200.912 173.991V177.243Z" fill="#9EA1AB"/>
<path d="M215.748 177.243C215.748 178.191 215.748 178.659 215.736 179.163H216.96C216.948 178.659 216.948 178.215 216.948 177.243V175.563C216.948 173.739 217.512 173.175 219.408 173.175C221.064 173.175 221.544 173.583 221.544 174.819V177.279C221.544 178.203 221.544 178.575 221.532 179.163H222.756C222.744 178.431 222.744 177.903 222.744 177.243V175.563C222.744 173.739 223.332 173.175 225.216 173.175C226.872 173.175 227.352 173.583 227.352 174.819V177.267C227.352 178.203 227.352 178.575 227.34 179.163H228.564C228.552 178.431 228.552 177.903 228.552 177.267V176.643C228.552 175.563 228.564 174.951 228.564 174.459C228.564 172.707 227.952 172.059 225.576 172.059C224.064 172.059 223.128 172.467 222.624 173.307C222.324 172.407 221.52 172.059 219.768 172.059C218.304 172.059 217.38 172.443 216.876 173.235L216.852 172.203H215.736C215.748 172.671 215.748 173.103 215.748 173.991V177.243Z" fill="#9EA1AB"/>
<path d="M230.689 174.843C230.689 175.563 230.677 175.851 230.677 176.343C230.677 178.455 231.289 179.307 234.445 179.307C236.125 179.307 237.145 178.923 237.709 178.143L237.733 179.163H238.849C238.837 178.695 238.837 178.263 238.837 177.375V174.123C238.837 173.175 238.837 172.707 238.849 172.203H237.625C237.637 172.707 237.637 173.151 237.637 174.123V175.803C237.637 177.627 237.073 178.191 234.769 178.191C232.345 178.191 231.889 177.579 231.889 175.983V174.111C231.889 173.091 231.889 172.743 231.901 172.203H230.677C230.689 172.767 230.689 173.247 230.689 174.111V174.843Z" fill="#9EA1AB"/>
<path d="M244.626 179.307C248.118 179.307 248.562 178.755 248.562 177.315C248.562 175.887 248.13 175.359 244.53 175.059C241.95 174.843 241.77 174.627 241.77 174.027C241.77 173.391 242.142 173.139 244.398 173.139C246.69 173.139 247.05 173.415 247.05 174.147V174.327L248.286 174.291C248.286 172.623 247.698 172.059 244.446 172.059C241.242 172.059 240.618 172.647 240.618 174.111C240.618 175.527 241.146 175.983 244.338 176.247C247.122 176.475 247.338 176.703 247.338 177.375C247.338 178.023 247.086 178.299 244.674 178.299C242.118 178.299 241.746 178.023 241.746 177.051V176.859L240.534 176.895C240.534 178.911 241.158 179.307 244.626 179.307Z" fill="#9EA1AB"/>
<path d="M250.237 170.379V171.495H251.461V170.379H250.237ZM250.249 177.279C250.249 178.083 250.249 178.635 250.237 179.163H251.461C251.449 178.635 251.449 178.083 251.449 177.291V174.231C251.449 173.367 251.449 172.719 251.461 172.203H250.237C250.249 172.719 250.249 173.367 250.249 174.219V177.279Z" fill="#9EA1AB"/>
<path d="M257.523 179.307C260.943 179.307 261.759 178.527 261.759 176.463L260.571 176.427C260.571 177.675 260.067 178.191 257.523 178.191C254.931 178.191 254.415 177.687 254.415 175.743V175.623C254.415 173.679 254.931 173.175 257.523 173.175C260.067 173.175 260.547 173.715 260.547 174.939L261.735 174.903C261.735 172.779 260.955 172.059 257.523 172.059C254.151 172.059 253.191 172.851 253.191 175.503V175.863C253.191 178.515 254.163 179.307 257.523 179.307Z" fill="#9EA1AB"/>
<path d="M263.444 170.379V171.495H264.668V170.379H263.444ZM263.456 177.279C263.456 178.083 263.456 178.635 263.444 179.163H264.668C264.656 178.635 264.656 178.083 264.656 177.291V174.231C264.656 173.367 264.656 172.719 264.668 172.203H263.444C263.456 172.719 263.456 173.367 263.456 174.219V177.279Z" fill="#9EA1AB"/>
<path d="M270.406 179.307C272.266 179.307 273.322 178.935 273.85 178.347L273.862 179.163H274.942C274.93 178.215 274.93 177.603 274.93 176.883C274.93 175.875 274.942 175.419 274.942 174.471C274.942 172.827 274.33 172.059 270.778 172.059C267.55 172.059 266.818 172.743 266.842 174.195L268.054 174.231C268.042 173.403 268.33 173.127 270.778 173.127C273.31 173.127 273.73 173.499 273.73 174.699V175.551C273.166 175.107 272.134 174.843 270.406 174.843C267.25 174.843 266.566 175.503 266.566 177.099C266.566 178.659 267.214 179.307 270.406 179.307ZM270.754 178.263C268.306 178.263 267.802 177.963 267.802 177.099C267.802 176.211 268.126 175.839 270.754 175.839C273.334 175.839 273.754 176.199 273.754 176.739V177.111C273.754 177.891 273.334 178.263 270.754 178.263Z" fill="#9EA1AB"/>
<path d="M277.084 177.243C277.084 178.191 277.084 178.659 277.072 179.163H278.296C278.284 178.659 278.284 178.215 278.284 177.243V175.563C278.284 173.739 278.848 173.175 281.2 173.175C283.636 173.175 284.092 173.787 284.092 175.383V177.255C284.092 178.275 284.092 178.623 284.08 179.163H285.304C285.292 178.599 285.292 178.119 285.292 177.255V176.523C285.292 175.803 285.304 175.515 285.304 175.023C285.304 172.911 284.692 172.059 281.524 172.059C279.82 172.059 278.776 172.443 278.212 173.223L278.188 172.203H277.072C277.084 172.671 277.084 173.103 277.084 173.991V177.243Z" fill="#9EA1AB"/>
<path d="M291.92 179.163C291.92 179.883 291.92 180.483 291.908 180.843H293.144C293.132 180.351 293.132 179.487 293.132 178.227C293.732 178.959 294.764 179.307 296.444 179.307C299.732 179.307 300.656 178.515 300.656 175.863V175.503C300.656 172.851 299.732 172.059 296.516 172.059C294.74 172.059 293.66 172.443 293.072 173.223V172.203H291.908C291.92 172.707 291.92 173.139 291.92 173.691V179.163ZM293.12 175.731V175.635C293.12 173.739 293.66 173.175 296.276 173.175C298.904 173.175 299.432 173.679 299.432 175.623V175.743C299.432 177.687 298.904 178.191 296.216 178.191C293.66 178.191 293.12 177.639 293.12 175.731Z" fill="#9EA1AB"/>
<path d="M302.373 177.243C302.373 178.191 302.373 178.659 302.361 179.163H303.585C303.573 178.659 303.573 178.215 303.573 177.243V175.635C303.573 173.619 304.137 173.175 306.201 173.175C308.301 173.175 308.541 173.463 308.541 174.819V175.059L309.693 175.035C309.705 174.855 309.705 174.675 309.705 174.531C309.705 172.539 309.165 172.059 306.489 172.059C305.001 172.059 304.041 172.443 303.501 173.223L303.477 172.203H302.361C302.373 172.671 302.373 173.103 302.373 173.991V177.243Z" fill="#9EA1AB"/>
<path d="M315.215 179.307C318.683 179.307 319.595 178.515 319.595 175.863V175.503C319.595 172.851 318.683 172.059 315.215 172.059C311.747 172.059 310.835 172.851 310.835 175.503V175.863C310.835 178.515 311.747 179.307 315.215 179.307ZM315.215 178.191C312.575 178.191 312.059 177.687 312.059 175.743V175.623C312.059 173.679 312.575 173.175 315.215 173.175C317.855 173.175 318.371 173.679 318.371 175.623V175.743C318.371 177.687 317.855 178.191 315.215 178.191Z" fill="#9EA1AB"/>
<path d="M321.659 175.119C321.659 176.079 321.659 178.215 321.647 179.163H322.871C322.859 178.635 322.859 177.951 322.859 177.243V173.295H324.707V172.203H322.859V172.095C322.859 171.387 323.063 171.219 323.603 171.195C324.047 171.171 324.563 171.147 324.875 171.147L324.839 170.115C324.587 170.127 323.939 170.139 323.363 170.175C322.127 170.247 321.647 170.631 321.647 171.975C321.647 172.047 321.647 172.119 321.647 172.203H320.507L320.459 173.295H321.647C321.659 173.895 321.659 174.555 321.659 175.119Z" fill="#9EA1AB"/>
<path d="M325.975 170.379V171.495H327.199V170.379H325.975ZM325.987 177.279C325.987 178.083 325.987 178.635 325.975 179.163H327.199C327.187 178.635 327.187 178.083 327.187 177.291V174.231C327.187 173.367 327.187 172.719 327.199 172.203H325.975C325.987 172.719 325.987 173.367 325.987 174.219V177.279Z" fill="#9EA1AB"/>
<path d="M329.421 177.279C329.421 178.083 329.421 178.635 329.409 179.163H330.633C330.621 178.635 330.621 178.083 330.621 177.291V172.215C330.621 171.351 330.621 170.703 330.633 170.187H329.409C329.421 170.703 329.421 171.351 329.421 172.203V177.279Z" fill="#9EA1AB"/>
<path d="M336.778 179.307C340.282 179.307 340.942 178.611 340.942 176.943L339.754 176.895C339.754 177.795 339.43 178.239 336.79 178.239C334.234 178.239 333.658 177.771 333.598 176.151H340.942C340.942 175.947 340.954 175.695 340.942 175.503C340.906 172.851 340.114 172.059 336.694 172.059C333.274 172.059 332.362 172.851 332.362 175.503V175.863C332.362 178.515 333.274 179.307 336.778 179.307ZM336.694 173.103C339.154 173.103 339.622 173.583 339.67 175.119H333.598C333.682 173.535 334.282 173.103 336.694 173.103Z" fill="#9EA1AB"/>
<path d="M342.41 177.699V179.163H343.922V177.699H342.41Z" fill="#9EA1AB"/>
</g>
<defs>
<linearGradient id="paint0_linear_2206_33372" x1="618" y1="107.5" x2="-26.3326" y2="107.5" gradientUnits="userSpaceOnUse">
<stop stop-color="#535559"/>
<stop offset="0.591886" stop-color="#535559" stop-opacity="0.408114"/>
<stop offset="1" stop-color="#535559" stop-opacity="0"/>
</linearGradient>
<linearGradient id="paint1_linear_2206_33372" x1="494.956" y1="22" x2="494.956" y2="191.912" gradientUnits="userSpaceOnUse">
<stop offset="0.104167" stop-color="#E965FF"/>
<stop offset="0.489583" stop-color="#5200FF"/>
<stop offset="0.890625" stop-color="#43FF8E"/>
</linearGradient>
<linearGradient id="paint2_linear_2206_33372" x1="455.791" y1="153.587" x2="444.474" y2="103.29" gradientUnits="userSpaceOnUse">
<stop stop-color="#1E2025"/>
<stop offset="1" stop-color="#1E2025" stop-opacity="0"/>
</linearGradient>
<linearGradient id="paint3_linear_2206_33372" x1="530.459" y1="62.231" x2="541.681" y2="112.107" gradientUnits="userSpaceOnUse">
<stop stop-color="#2E3138"/>
<stop offset="1" stop-color="#1E2025" stop-opacity="0"/>
</linearGradient>
<linearGradient id="paint4_linear_2206_33372" x1="494.465" y1="90.9444" x2="494.465" y2="130.492" gradientUnits="userSpaceOnUse">
<stop stop-color="#E965FF"/>
<stop offset="1" stop-color="#313338" stop-opacity="0"/>
</linearGradient>
<linearGradient id="paint5_linear_2206_33372" x1="618" y1="107.5" x2="-26.3326" y2="107.5" gradientUnits="userSpaceOnUse">
<stop stop-color="#E965FF"/>
<stop offset="0.591886" stop-color="#E965FF" stop-opacity="0.408114"/>
<stop offset="1" stop-color="#E965FF" stop-opacity="0"/>
</linearGradient>
<linearGradient id="paint6_linear_2206_33372" x1="238.438" y1="105.5" x2="145.328" y2="106.882" gradientUnits="userSpaceOnUse">
<stop stop-color="#E965FF"/>
<stop offset="1" stop-color="#E965FF" stop-opacity="0"/>
</linearGradient>
<linearGradient id="paint7_linear_2206_33372" x1="13.7689" y1="56.4671" x2="134.083" y2="56.4671" gradientUnits="userSpaceOnUse">
<stop stop-color="#121315"/>
<stop offset="1" stop-color="#121315" stop-opacity="0"/>
</linearGradient>
<clipPath id="clip0_2206_33372">
<rect width="619" height="215" fill="white"/>
</clipPath>
<clipPath id="clip1_2206_33372">
<rect width="170" height="170" fill="white" transform="translate(410 22)"/>
</clipPath>
<clipPath id="clip2_2206_33372">
<rect width="618" height="215" fill="white" transform="translate(-9)"/>
</clipPath>
</defs>
</svg>
