<svg width="609" height="215" viewBox="0 0 609 215" fill="none" xmlns="http://www.w3.org/2000/svg">
<g clip-path="url(#clip0_2206_33381)">
<path d="M0.999986 0.999973L499.178 0.999995C505.445 0.999995 511.463 3.45134 515.946 7.8301L600.419 90.3301C610.061 99.7464 610.061 115.254 600.419 124.67L515.946 207.17C511.463 211.549 505.445 214 499.178 214L0.999977 214" stroke="url(#paint0_linear_2206_33381)" stroke-width="1.38335"/>
<line x1="285" y1="106.25" x2="137" y2="106.25" stroke="url(#paint1_linear_2206_33381)" stroke-width="0.5"/>
<path d="M341.899 106.326C351.286 106.326 352.178 80.6589 352.178 49C352.178 80.6589 352.583 106.326 362.457 106.326C352.466 106.326 352.178 131.994 352.178 163.652C352.178 131.994 351.167 106.326 341.899 106.326Z" fill="#E965FF"/>
<path d="M306.95 106.67C314.167 106.67 315.173 100.214 315.173 92.2522C315.173 100.214 316.029 106.67 323.396 106.67C316.029 106.67 315.173 113.125 315.173 121.087C315.173 113.125 314.167 106.67 306.95 106.67Z" fill="#E965FF"/>
<path d="M361.087 106.67C368.304 106.67 369.31 91.9148 369.31 73.7157C369.31 91.9148 370.166 106.67 377.533 106.67C370.166 106.67 369.31 121.425 369.31 139.624C369.31 121.425 368.304 106.67 361.087 106.67Z" fill="#E965FF"/>
<path d="M271.316 106.326C289.059 106.326 291.532 102.484 291.532 97.7443C291.532 102.484 293.636 106.326 311.747 106.326C293.636 106.326 291.532 110.168 291.532 114.908C291.532 110.168 289.059 106.326 271.316 106.326Z" fill="#E965FF"/>
<path d="M375.477 106.326C388.709 106.326 390.553 96.9507 390.553 85.3867C390.553 96.9507 392.123 106.326 405.629 106.326C392.123 106.326 390.553 115.702 390.553 127.266C390.553 115.702 388.709 106.326 375.477 106.326Z" fill="#E965FF"/>
<path d="M322.026 106.326C331.65 106.326 332.991 94.4916 332.991 79.8944C332.991 94.4916 334.132 106.326 343.955 106.326C334.132 106.326 332.991 118.161 332.991 132.758C332.991 118.161 331.65 106.326 322.026 106.326Z" fill="#E965FF"/>
<rect width="139" height="115" transform="matrix(-1 0 0 1 407 49)" fill="url(#paint2_linear_2206_33381)"/>
</g>
<defs>
<linearGradient id="paint0_linear_2206_33381" x1="618" y1="107.5" x2="-26.3326" y2="107.5" gradientUnits="userSpaceOnUse">
<stop stop-color="#E965FF"/>
<stop offset="0.591886" stop-color="#E965FF" stop-opacity="0.408114"/>
<stop offset="1" stop-color="#E965FF" stop-opacity="0"/>
</linearGradient>
<linearGradient id="paint1_linear_2206_33381" x1="238.438" y1="105.5" x2="145.328" y2="106.882" gradientUnits="userSpaceOnUse">
<stop stop-color="#E965FF"/>
<stop offset="1" stop-color="#E965FF" stop-opacity="0"/>
</linearGradient>
<linearGradient id="paint2_linear_2206_33381" x1="13.7689" y1="56.4671" x2="134.083" y2="56.4671" gradientUnits="userSpaceOnUse">
<stop stop-color="#121315"/>
<stop offset="1" stop-color="#121315" stop-opacity="0"/>
</linearGradient>
<clipPath id="clip0_2206_33381">
<rect width="618" height="215" fill="white" transform="translate(-9)"/>
</clipPath>
</defs>
</svg>
