<svg width="215" height="215" viewBox="0 0 215 215" fill="none" xmlns="http://www.w3.org/2000/svg">
<g filter="url(#filter0_b_1297_1707)">
<circle cx="107.5" cy="107.5" r="107.5" fill="#1E2025" fill-opacity="0.5"/>
</g>
<path fill-rule="evenodd" clip-rule="evenodd" d="M112.133 90.0945C112.133 90.521 112.479 90.8667 112.905 90.8667C113.332 90.8667 113.677 90.521 113.677 90.0945C113.677 89.668 113.332 89.3223 112.905 89.3223C112.479 89.3223 112.133 89.668 112.133 90.0945Z" stroke="white" stroke-width="1.16848" stroke-linecap="round" stroke-linejoin="round"/>
<path d="M117.725 93.9561C117.725 94.2788 117.987 94.5403 118.31 94.5403C118.632 94.5403 118.894 94.2788 118.894 93.9561H117.725ZM96.6875 100.134L97.2717 100.135V100.134H96.6875ZM97.4444 104.175C97.6376 104.433 98.0037 104.486 98.2621 104.293C98.5205 104.1 98.5734 103.734 98.3801 103.475L97.4444 104.175ZM118.895 93.9563C118.895 93.6336 118.633 93.372 118.31 93.372C117.988 93.372 117.726 93.6336 117.726 93.9563H118.895ZM102.866 106.312L102.866 105.728L102.866 105.728L102.866 106.312ZM98.3818 103.477C98.1892 103.218 97.8232 103.164 97.5643 103.356C97.3054 103.549 97.2517 103.915 97.4443 104.174L98.3818 103.477ZM118.703 94.3891C118.942 94.1724 118.96 93.8029 118.743 93.5639C118.527 93.3248 118.157 93.3067 117.918 93.5234L118.703 94.3891ZM111.052 100.537L110.659 100.104L110.655 100.108L111.052 100.537ZM109.877 100.942L109.829 101.524L109.829 101.524L109.877 100.942ZM108.784 100.35L109.246 99.9917L109.245 99.9914L108.784 100.35ZM105.682 96.364L106.143 96.0052L106.142 96.0041L105.682 96.364ZM104.433 95.7715L104.421 95.1874L104.421 95.1874L104.433 95.7715ZM103.21 96.415L102.736 96.0743L102.735 96.0752L103.21 96.415ZM97.4378 103.485C97.2501 103.748 97.3108 104.113 97.5733 104.301C97.8358 104.488 98.2007 104.427 98.3883 104.165L97.4378 103.485ZM118.894 93.9561V90.8672H117.725V93.9561H118.894ZM118.894 90.8672C118.894 87.1327 115.866 84.1052 112.132 84.1052V85.2737C115.221 85.2737 117.725 87.778 117.725 90.8672H118.894ZM112.132 84.1052H102.865V85.2737H112.132V84.1052ZM102.865 84.1052C99.1307 84.1052 96.1033 87.1327 96.1033 90.8672H97.2717C97.2717 87.778 99.776 85.2737 102.865 85.2737V84.1052ZM96.1033 90.8672V100.134H97.2717V90.8672H96.1033ZM96.1033 100.133C96.1013 101.59 96.5719 103.008 97.4444 104.175L98.3801 103.475C97.659 102.511 97.2701 101.339 97.2717 100.135L96.1033 100.133ZM117.726 93.9563V100.134H118.895V93.9563H117.726ZM117.726 100.134C117.726 103.223 115.222 105.728 112.133 105.728V106.896C115.867 106.896 118.895 103.869 118.895 100.134H117.726ZM112.133 105.728H102.866V106.896H112.133V105.728ZM102.866 105.728C101.099 105.729 99.4362 104.894 98.3818 103.477L97.4443 104.174C98.7194 105.888 100.73 106.897 102.866 106.896L102.866 105.728ZM117.918 93.5234L110.659 100.104L111.444 100.97L118.703 94.3891L117.918 93.5234ZM110.655 100.108C110.458 100.29 110.193 100.382 109.925 100.359L109.829 101.524C110.423 101.573 111.01 101.371 111.448 100.966L110.655 100.108ZM109.925 100.359C109.657 100.337 109.411 100.204 109.246 99.9917L108.323 100.709C108.689 101.179 109.235 101.475 109.829 101.524L109.925 100.359ZM109.245 99.9914L106.143 96.0052L105.221 96.7229L108.323 100.709L109.245 99.9914ZM106.142 96.0041C105.729 95.4762 105.091 95.1736 104.421 95.1874L104.445 96.3556C104.748 96.3494 105.035 96.4859 105.221 96.724L106.142 96.0041ZM104.421 95.1874C103.751 95.2012 103.127 95.5298 102.736 96.0743L103.685 96.7557C103.861 96.5101 104.143 96.3619 104.445 96.3556L104.421 95.1874ZM102.735 96.0752L97.4378 103.485L98.3883 104.165L103.686 96.7548L102.735 96.0752Z" fill="white"/>
<path d="M54.223 129.027C54.223 126.55 54.9708 125.872 57.3312 125.872C58.6398 125.872 60.3692 126.106 61.561 126.363L61.8532 125.463C60.6379 125.206 58.8619 124.973 57.2494 124.973C53.8374 124.973 53.1597 126.679 53.1597 129.027C53.1597 131.376 53.8257 133.14 57.1909 133.117C58.9553 133.105 60.6146 132.895 61.9583 132.579L61.6779 131.668C60.5094 131.995 58.9437 132.217 57.3312 132.217C55.0994 132.217 54.223 131.352 54.223 129.027ZM64.4315 128.793C65.0858 127.987 66.2193 127.461 67.528 127.461H67.9136C69.9116 127.461 70.7179 128.268 70.7179 129.646V133H71.7695V129.576C71.7695 127.59 70.1804 126.573 67.9136 126.573H67.528C66.3011 126.573 65.0391 127.041 64.4315 127.672V124.493H63.3915V133H64.4315V128.793ZM80.7752 133.058V129.086C80.7752 127.543 79.9573 126.55 77.223 126.573C75.8325 126.585 74.7342 126.725 73.6475 126.994L73.9279 127.882C74.9562 127.625 76.1247 127.461 77.2931 127.461C79.1627 127.461 79.7353 127.859 79.7353 129.097V129.448C78.9407 129.179 77.6554 129.027 76.8491 129.027H76.4518C73.9513 129.027 73.2969 129.822 73.2969 130.955V131.142C73.2969 132.252 74.2668 133.058 76.4635 133.058H76.8491C77.8774 133.058 79.0225 132.79 79.7353 132.24V133.058H80.7752ZM76.4518 132.17C74.7575 132.17 74.3369 131.715 74.3369 131.142V130.897C74.3369 130.324 74.7575 129.915 76.4518 129.915H76.8491C77.8306 129.915 78.8706 130.032 79.7353 130.359V131.387C78.9524 131.913 77.854 132.17 76.8491 132.17H76.4518ZM82.7445 126.632V133H83.7844V129.086C84.4621 128.139 85.5722 127.461 86.8809 127.461H87.2665C89.2646 127.461 90.0708 128.268 90.0708 129.646V133H91.1225V129.576C91.1225 127.59 89.5333 126.573 87.2665 126.573H86.8809C85.654 126.573 84.4504 127.111 83.7844 127.905V126.632H82.7445ZM100.072 131.948C100.072 133.245 99.1719 134.028 96.5078 134.028C95.1056 134.028 93.9839 133.841 93.0023 133.549L93.2243 134.531C94.1474 134.776 95.4211 134.916 96.5078 134.916C99.6743 134.916 101.112 133.865 101.112 132.112V126.632H100.072V127.613C99.464 126.982 98.1436 126.515 96.9167 126.515H96.5311C94.2643 126.515 92.6167 127.356 92.6167 129.343V129.763C92.6167 131.75 94.2643 132.474 96.5311 132.474H96.9167C98.2488 132.474 99.464 131.855 100.072 131.201V131.948ZM100.072 130.079C99.4407 131.002 98.2254 131.586 96.9167 131.586H96.5311C94.5915 131.586 93.6684 131.224 93.6684 129.752V129.354C93.6684 127.976 94.533 127.403 96.5311 127.403H96.9167C98.2254 127.403 99.4173 127.929 100.072 128.735V130.079ZM107.553 127.461C109.049 127.461 110.031 127.976 110.031 129.051V129.436H104.258L104.562 130.324H111.071V129.331C111.071 127.345 109.832 126.573 107.472 126.573H106.525C104.165 126.573 102.693 127.59 102.693 129.576V130.055C102.693 132.042 104.165 133.058 106.525 133.058H107.226C108.617 133.058 110.031 132.848 111.152 132.509L110.872 131.633C109.832 131.972 108.395 132.17 107.226 132.17H106.49C104.55 132.17 103.733 131.434 103.733 130.055V129.576C103.733 128.198 104.55 127.461 106.49 127.461H107.553ZM120.73 130.207C123.558 130.207 124.516 129.237 124.516 127.847V127.543C124.516 126.211 123.558 125.101 120.73 125.101H115.905V133H116.956V125.989H120.824C122.647 125.989 123.476 126.515 123.476 127.578V127.812C123.476 128.875 122.647 129.319 120.824 129.319H117.389L117.692 130.207H120.73ZM127.112 128.793C127.766 127.987 128.899 127.461 130.208 127.461H130.594C132.592 127.461 133.398 128.268 133.398 129.646V133H134.45V129.576C134.45 127.59 132.861 126.573 130.594 126.573H130.208C128.981 126.573 127.719 127.041 127.112 127.672V124.493H126.072V133H127.112V128.793ZM139.973 126.573C137.613 126.573 136.024 127.648 136.024 129.635V129.997C136.024 131.983 137.613 133.058 139.973 133.058H140.885C143.245 133.058 144.834 131.983 144.834 129.997V129.635C144.834 127.648 143.245 126.573 140.885 126.573H139.973ZM143.794 129.997C143.794 131.376 142.859 132.17 140.92 132.17H139.938C137.999 132.17 137.064 131.376 137.064 129.997V129.635C137.064 128.256 137.999 127.461 139.938 127.461H140.92C142.859 127.461 143.794 128.256 143.794 129.635V129.997ZM147.656 131.154C147.656 132.416 148.076 133.035 149.654 133.035C150.635 133.035 151.301 132.942 152.084 132.755L152.318 131.832C151.547 132.054 150.834 132.17 150.004 132.17C149.221 132.17 148.696 131.948 148.696 131.376V128.011H152.014V127.123H148.696V125.089H147.656V127.123H145.903V128.011H147.656V131.154ZM157.044 126.573C154.684 126.573 153.095 127.648 153.095 129.635V129.997C153.095 131.983 154.684 133.058 157.044 133.058H157.955C160.316 133.058 161.905 131.983 161.905 129.997V129.635C161.905 127.648 160.316 126.573 157.955 126.573H157.044ZM160.865 129.997C160.865 131.376 159.93 132.17 157.991 132.17H157.009C155.069 132.17 154.135 131.376 154.135 129.997V129.635C154.135 128.256 155.069 127.461 157.009 127.461H157.991C159.93 127.461 160.865 128.256 160.865 129.635V129.997Z" fill="white"/>
<defs>
<filter id="filter0_b_1297_1707" x="-35.0543" y="-35.0543" width="285.109" height="285.109" filterUnits="userSpaceOnUse" color-interpolation-filters="sRGB">
<feFlood flood-opacity="0" result="BackgroundImageFix"/>
<feGaussianBlur in="BackgroundImageFix" stdDeviation="17.5272"/>
<feComposite in2="SourceAlpha" operator="in" result="effect1_backgroundBlur_1297_1707"/>
<feBlend mode="normal" in="SourceGraphic" in2="effect1_backgroundBlur_1297_1707" result="shape"/>
</filter>
</defs>
</svg>
