<svg width="484" height="21" viewBox="0 0 484 21" fill="none" xmlns="http://www.w3.org/2000/svg">
<path d="M9.9192 17.308C17.2892 17.308 18.4992 16.032 18.4992 12.688C18.4992 9.52001 17.3552 8.24401 9.8092 7.73801C3.9572 7.36401 3.3852 6.88001 3.3852 5.45001C3.3852 4.10801 4.0892 3.55801 8.8632 3.55801C14.0332 3.55801 14.8912 4.04201 14.8912 5.53801V5.97801L17.7512 5.91201V5.60401C17.7512 2.34801 16.4972 1.07201 8.8632 1.07201C1.6912 1.07201 0.415203 2.41401 0.415203 5.64801C0.415203 8.90401 1.5812 9.87201 9.0612 10.4C14.8472 10.818 15.5512 11.368 15.5512 12.776V12.798C15.5512 14.294 14.9792 14.8 9.8972 14.8C4.1112 14.8 3.1652 14.426 3.1652 12.644V12.138L0.283203 12.204V12.556C0.283203 16.362 1.8232 17.308 9.9192 17.308Z" fill="white"/>
<path d="M21.3764 0.698006V2.89801H24.2804V0.698006H21.3764ZM21.3984 13.304C21.3984 14.91 21.3984 15.988 21.3764 17H24.2804C24.2584 15.988 24.2584 14.91 24.2584 13.326V7.84801C24.2584 6.28601 24.2584 5.12001 24.2804 4.19601H21.3764C21.3984 5.12001 21.3984 6.30801 21.3984 7.84801V13.304Z" fill="white"/>
<path d="M34.6611 15.57C37.8951 15.57 39.7431 14.844 40.7331 13.524V14.998C40.6891 17.044 39.9411 17.946 35.0131 17.946C30.8771 17.946 30.1951 17.418 30.1951 16.274L27.4891 16.362C27.4891 19.42 28.8091 20.344 35.0571 20.344C41.8771 20.344 43.5491 19.068 43.5491 15.438C43.5491 13.722 43.5271 12.446 43.5271 10.4V7.10001C43.5271 5.95601 43.5271 5.05401 43.5491 4.19601H40.8431L40.8211 6.02201C39.8311 4.65801 37.9611 3.93201 34.6611 3.93201C29.0951 3.93201 27.1371 5.01001 27.1371 9.65201V9.85001C27.1371 14.514 29.2051 15.57 34.6611 15.57ZM35.4091 13.084C30.9651 13.084 30.0191 12.27 30.0191 9.82801V9.65201C30.0191 7.23201 31.1411 6.41801 35.3871 6.41801C39.7871 6.41801 40.6671 7.25401 40.6671 9.65201C40.6671 12.094 39.6991 13.084 35.4091 13.084Z" fill="white"/>
<path d="M47.1356 13.48C47.1356 15.13 47.1356 16.032 47.1136 17H50.0176C49.9956 16.032 49.9956 15.174 49.9956 13.48V10.576C49.9956 7.43001 50.9196 6.52801 54.9236 6.52801C59.0596 6.52801 59.8076 7.49601 59.8076 10.268V13.524C59.8076 15.306 59.8076 15.966 59.7856 17H62.6896C62.6676 15.922 62.6676 14.998 62.6676 13.524V12.16C62.6676 10.686 62.6896 10.092 62.6896 9.12401C62.6896 5.45001 61.6116 3.93201 56.0016 3.93201C52.7236 3.93201 50.8536 4.70201 49.8416 6.19801L49.8196 4.19601H47.1136C47.1356 5.05401 47.1356 5.89001 47.1356 7.40801V13.48Z" fill="white"/>
<path d="M74.4837 9.03601C74.4837 10.488 74.4617 11.082 74.4617 12.072C74.4617 15.746 75.5397 17.264 81.1057 17.264C84.3177 17.264 86.1877 16.494 87.1777 14.998L87.2217 17H89.9057C89.8837 16.12 89.8837 15.306 89.8837 13.788V7.71601C89.8837 6.04401 89.8837 5.16401 89.9057 4.19601H87.0237C87.0457 5.16401 87.0457 6.02201 87.0457 7.71601V10.62C87.0457 13.744 86.1217 14.668 82.1837 14.668C78.0697 14.668 77.3217 13.7 77.3217 10.906V7.67201C77.3217 5.89001 77.3217 5.23001 77.3437 4.19601H74.4617C74.4837 5.274 74.4837 6.19801 74.4837 7.67201V9.03601Z" fill="white"/>
<path d="M93.4989 17C93.4989 18.32 93.4989 19.42 93.4769 20.08H96.4029C96.3809 19.2 96.3809 17.55 96.3809 15.218C97.4149 16.582 99.2409 17.264 102.343 17.264C108.283 17.264 109.889 15.856 109.889 10.928V10.268C109.889 5.34001 108.305 3.93201 102.453 3.93201C99.1529 3.93201 97.2609 4.68001 96.2489 6.13201V4.19601H93.4769C93.4989 5.12001 93.4989 5.93401 93.4989 6.99001V17ZM96.3589 10.686V10.51C96.3589 7.43001 97.2389 6.52801 101.661 6.52801C106.127 6.52801 107.007 7.32001 107.007 10.51V10.686C107.007 13.854 106.127 14.668 101.551 14.668C97.2389 14.668 96.3589 13.788 96.3589 10.686Z" fill="white"/>
<path d="M130.656 11.126C131.14 9.78401 131.646 8.42001 132.13 7.16601H132.834C133.252 8.44201 133.714 9.85001 134.132 11.17L136.09 17H140.556C141.722 13.876 144.296 7.18801 145.55 4.19601H142.492L140.534 9.71801C139.984 11.258 139.434 12.842 138.928 14.272H138.004C137.564 12.952 137.08 11.456 136.596 10.004L134.616 4.19601H130.458L128.39 9.96001C127.862 11.412 127.312 12.908 126.85 14.272H125.882C125.442 12.886 124.936 11.324 124.452 9.82801L122.582 4.19601H119.37C120.514 7.14401 122.912 13.876 123.968 17H128.434L130.656 11.126Z" fill="white"/>
<path d="M147.511 0.698006V2.89801H150.415V0.698006H147.511ZM147.533 13.304C147.533 14.91 147.533 15.988 147.511 17H150.415C150.393 15.988 150.393 14.91 150.393 13.326V7.84801C150.393 6.28601 150.393 5.12001 150.415 4.19601H147.511C147.533 5.12001 147.533 6.30801 147.533 7.84801V13.304Z" fill="white"/>
<path d="M154.856 8.86001C154.856 10.136 154.834 11.412 154.834 12.424C154.834 16.186 156.088 17.11 161.5 17.11C162.402 17.11 163.26 17.066 164.074 17L164.052 14.514C163.172 14.58 162.71 14.602 161.742 14.602C158.464 14.602 157.716 14.272 157.716 11.742V6.68201H164.052V4.19601H157.716C157.716 3.09601 157.716 2.26001 157.738 1.68801L154.834 1.73201C154.856 2.72201 154.856 3.42601 154.856 4.19601C154.152 4.19601 153.36 4.19601 152.546 4.19601V6.68201H154.856V8.86001Z" fill="white"/>
<path d="M166.697 13.304C166.697 14.998 166.697 15.9 166.675 17H169.557C169.535 15.812 169.535 14.866 169.535 13.26V10.576C169.535 7.43001 170.459 6.52801 174.463 6.52801C178.621 6.52801 179.369 7.49601 179.369 10.268V13.524C179.369 15.086 179.369 15.856 179.347 17H182.229C182.207 15.746 182.207 14.712 182.207 13.568V12.16C182.207 10.686 182.229 10.092 182.229 9.12401C182.229 5.45001 181.151 3.93201 175.541 3.93201C172.351 3.93201 170.481 4.65801 169.469 6.11001C169.513 4.61401 169.579 0.940006 169.579 0.544006H166.675C166.697 1.49001 166.697 2.63401 166.697 4.19601V13.304Z" fill="white"/>
<path d="M203.109 17.132C204.737 13.92 208.125 7.18801 209.709 4.19601H206.629L203.989 9.36601C203.373 10.598 202.757 11.852 202.207 12.996H200.997C200.315 11.83 199.523 10.576 198.775 9.32201L195.651 4.19601H192.417C194.331 7.21001 197.587 12.6 199.237 15.416H200.953L200.623 16.01C199.897 17.374 199.391 17.66 198.049 17.66C197.213 17.66 196.443 17.638 195.541 17.594L195.497 20.014C196.399 20.102 197.499 20.146 198.137 20.146C200.799 20.146 201.943 19.42 203.109 17.132Z" fill="white"/>
<path d="M218.54 17.264C225.096 17.264 226.768 15.812 226.768 10.928V10.268C226.768 5.38401 225.096 3.93201 218.54 3.93201C212.006 3.93201 210.334 5.38401 210.334 10.268V10.928C210.334 15.812 212.006 17.264 218.54 17.264ZM218.54 14.712C214.052 14.712 213.216 13.876 213.216 10.686V10.51C213.216 7.29801 214.052 6.48401 218.54 6.48401C223.05 6.48401 223.864 7.29801 223.864 10.51V10.686C223.864 13.876 223.05 14.712 218.54 14.712Z" fill="white"/>
<path d="M229.536 9.03601C229.536 10.488 229.514 11.082 229.514 12.072C229.514 15.746 230.592 17.264 236.158 17.264C239.37 17.264 241.24 16.494 242.23 14.998L242.274 17H244.958C244.936 16.12 244.936 15.306 244.936 13.788V7.71601C244.936 6.04401 244.936 5.16401 244.958 4.19601H242.076C242.098 5.16401 242.098 6.02201 242.098 7.71601V10.62C242.098 13.744 241.174 14.668 237.236 14.668C233.122 14.668 232.374 13.7 232.374 10.906V7.67201C232.374 5.89001 232.374 5.23001 232.396 4.19601H229.514C229.536 5.274 229.536 6.19801 229.536 7.67201V9.03601Z" fill="white"/>
<path d="M248.552 13.48C248.552 15.13 248.552 16.032 248.53 17H251.434C251.412 16.032 251.412 15.174 251.412 13.48V10.796C251.412 7.29801 252.292 6.52801 255.9 6.52801C259.442 6.52801 259.882 7.03401 259.882 9.30001V9.71801L262.632 9.67401C262.654 9.16801 262.654 8.81601 262.654 8.42001C262.654 4.87801 261.62 3.93201 256.868 3.93201C253.964 3.93201 252.204 4.68001 251.258 6.15401L251.236 4.19601H248.53C248.552 5.05401 248.552 5.89001 248.552 7.40801V13.48Z" fill="white"/>
<path d="M273.714 13.458C273.714 15.108 273.714 15.944 273.692 17H289.972V14.448C287.882 14.47 282.756 14.47 279.852 14.47H276.64V10.268H280.556C282.976 10.268 284.846 10.268 288.63 10.29V7.80401H276.64V3.91001H279.104C281.854 3.91001 285.99 3.91001 289.532 3.93201V1.38001H273.692C273.714 2.34801 273.714 3.05201 273.714 4.19601V13.458Z" fill="white"/>
<path d="M292.745 13.48C292.745 15.13 292.745 16.032 292.723 17H295.627C295.605 16.032 295.605 15.174 295.605 13.48V10.576C295.605 7.43001 296.507 6.52801 299.697 6.52801C302.535 6.52801 303.305 7.21001 303.305 9.47601V13.546C303.305 15.196 303.305 15.9 303.283 17H306.165C306.143 15.658 306.143 14.668 306.143 13.48V10.576C306.143 7.43001 307.111 6.52801 310.257 6.52801C313.095 6.52801 313.865 7.21001 313.865 9.47601V13.524C313.865 15.196 313.865 15.9 313.843 17H316.747C316.725 15.68 316.725 14.69 316.725 13.524V12.336C316.725 10.356 316.747 9.30001 316.747 8.31001C316.747 5.16401 315.669 3.93201 311.357 3.93201C308.519 3.93201 306.869 4.72401 305.989 6.28601C305.461 4.61401 304.053 3.93201 300.885 3.93201C298.069 3.93201 296.375 4.68001 295.451 6.24201L295.429 4.19601H292.723C292.745 5.05401 292.745 5.89001 292.745 7.40801V13.48Z" fill="white"/>
<path d="M326.646 17.264C330.188 17.264 332.036 16.582 332.916 15.416L332.96 17H335.556C335.534 15.262 335.534 14.14 335.534 12.82C335.534 10.796 335.556 10.048 335.556 8.31001C335.556 5.31801 334.368 3.93201 327.746 3.93201C321.696 3.93201 320.244 5.09801 320.288 8.00201L323.038 8.06801C323.016 6.70401 323.478 6.26401 327.702 6.26401C332.036 6.26401 332.696 6.88001 332.696 8.90401V10.378C331.728 9.52001 329.902 9.08001 326.646 9.08001C320.948 9.08001 319.738 10.29 319.738 13.216C319.738 16.098 320.904 17.264 326.646 17.264ZM327.658 15.042C323.412 15.042 322.62 14.558 322.62 13.15C322.62 11.72 323.148 11.126 327.702 11.126C332.08 11.126 332.762 11.698 332.762 12.622V13.172C332.762 14.448 332.08 15.042 327.658 15.042Z" fill="white"/>
<path d="M339.173 0.698006V2.89801H342.077V0.698006H339.173ZM339.195 13.304C339.195 14.91 339.195 15.988 339.173 17H342.077C342.055 15.988 342.055 14.91 342.055 13.326V7.84801C342.055 6.28601 342.055 5.12001 342.077 4.19601H339.173C339.195 5.12001 339.195 6.30801 339.195 7.84801V13.304Z" fill="white"/>
<path d="M345.748 13.304C345.748 14.91 345.748 15.988 345.726 17H348.63C348.608 15.988 348.608 14.91 348.608 13.326V4.21801C348.608 2.65601 348.608 1.46801 348.63 0.544006H345.726C345.748 1.49001 345.748 2.65601 345.748 4.19601V13.304Z" fill="white"/>
<path d="M366.929 17.264C370.471 17.264 372.319 16.582 373.199 15.416L373.243 17H375.839C375.817 15.262 375.817 14.14 375.817 12.82C375.817 10.796 375.839 10.048 375.839 8.31001C375.839 5.31801 374.651 3.93201 368.029 3.93201C361.979 3.93201 360.527 5.09801 360.571 8.00201L363.321 8.06801C363.299 6.70401 363.761 6.26401 367.985 6.26401C372.319 6.26401 372.979 6.88001 372.979 8.90401V10.378C372.011 9.52001 370.185 9.08001 366.929 9.08001C361.231 9.08001 360.021 10.29 360.021 13.216C360.021 16.098 361.187 17.264 366.929 17.264ZM367.941 15.042C363.695 15.042 362.903 14.558 362.903 13.15C362.903 11.72 363.431 11.126 367.985 11.126C372.363 11.126 373.045 11.698 373.045 12.622V13.172C373.045 14.448 372.363 15.042 367.941 15.042Z" fill="white"/>
<path d="M386.122 17.264C389.444 17.264 391.336 16.494 392.348 14.998L392.37 17H395.076C395.054 15.922 395.054 15.174 395.054 13.48V4.19601C395.054 2.61201 395.054 1.46801 395.076 0.544006H392.128C392.15 1.44601 392.172 3.73401 392.172 5.97801C391.138 4.61401 389.29 3.93201 386.188 3.93201C380.27 3.93201 378.664 5.34001 378.664 10.268V10.928C378.664 15.856 380.27 17.264 386.122 17.264ZM386.914 14.668C382.426 14.668 381.546 13.876 381.546 10.686V10.51C381.546 7.27601 382.426 6.48401 386.98 6.48401C391.314 6.48401 392.194 7.36401 392.194 10.51V10.686C392.194 13.766 391.314 14.668 386.914 14.668Z" fill="white"/>
<path d="M405.351 17.264C408.673 17.264 410.565 16.494 411.577 14.998L411.599 17H414.305C414.283 15.922 414.283 15.174 414.283 13.48V4.19601C414.283 2.61201 414.283 1.46801 414.305 0.544006H411.357C411.379 1.44601 411.401 3.73401 411.401 5.97801C410.367 4.61401 408.519 3.93201 405.417 3.93201C399.499 3.93201 397.893 5.34001 397.893 10.268V10.928C397.893 15.856 399.499 17.264 405.351 17.264ZM406.143 14.668C401.655 14.668 400.775 13.876 400.775 10.686V10.51C400.775 7.27601 401.655 6.48401 406.209 6.48401C410.543 6.48401 411.423 7.36401 411.423 10.51V10.686C411.423 13.766 410.543 14.668 406.143 14.668Z" fill="white"/>
<path d="M417.891 13.48C417.891 15.13 417.892 16.032 417.87 17H420.773C420.751 16.032 420.751 15.174 420.751 13.48V10.796C420.751 7.29801 421.632 6.52801 425.24 6.52801C428.781 6.52801 429.221 7.03401 429.221 9.30001V9.71801L431.971 9.67401C431.993 9.16801 431.993 8.81601 431.993 8.42001C431.993 4.87801 430.96 3.93201 426.207 3.93201C423.303 3.93201 421.544 4.68001 420.598 6.15401L420.576 4.19601H417.87C417.892 5.05401 417.891 5.89001 417.891 7.40801V13.48Z" fill="white"/>
<path d="M442.043 17.264C448.621 17.264 449.919 15.988 449.919 12.754L447.125 12.666C447.125 14.162 446.553 14.866 442.065 14.866C437.797 14.866 436.829 14.118 436.697 11.434H449.919C449.919 11.104 449.941 10.708 449.919 10.268C449.897 5.38401 448.335 3.93201 441.911 3.93201C435.509 3.93201 433.793 5.38401 433.793 10.268V10.928C433.793 15.812 435.509 17.264 442.043 17.264ZM441.933 6.13201C446.069 6.13201 446.883 6.90201 446.949 9.38801H436.697C436.873 6.81401 437.885 6.13201 441.933 6.13201Z" fill="white"/>
<path d="M459.625 17.264C466.093 17.264 467.017 16.208 467.017 13.436C467.017 10.862 466.181 9.80601 459.691 9.32201C455.093 8.94801 454.785 8.61801 454.785 7.62801C454.785 6.61601 455.379 6.19801 459.141 6.19801C463.101 6.19801 463.673 6.66001 463.673 7.84801V8.13401L466.511 8.06801C466.511 4.98801 465.499 3.93201 459.229 3.93201C453.245 3.93201 452.035 5.05401 452.035 7.78201C452.035 10.422 453.025 11.302 458.877 11.764C463.761 12.138 464.135 12.512 464.135 13.612C464.135 14.668 463.739 15.086 459.691 15.086C455.247 15.086 454.675 14.646 454.675 13.128V12.798L451.859 12.864C451.859 16.538 453.047 17.264 459.625 17.264Z" fill="white"/>
<path d="M476.554 17.264C483.022 17.264 483.946 16.208 483.946 13.436C483.946 10.862 483.11 9.80601 476.62 9.32201C472.022 8.94801 471.714 8.61801 471.714 7.62801C471.714 6.61601 472.308 6.19801 476.07 6.19801C480.03 6.19801 480.602 6.66001 480.602 7.84801V8.13401L483.44 8.06801C483.44 4.98801 482.428 3.93201 476.158 3.93201C470.174 3.93201 468.964 5.05401 468.964 7.78201C468.964 10.422 469.954 11.302 475.806 11.764C480.69 12.138 481.064 12.512 481.064 13.612C481.064 14.668 480.668 15.086 476.62 15.086C472.176 15.086 471.604 14.646 471.604 13.128V12.798L468.788 12.864C468.788 16.538 469.976 17.264 476.554 17.264Z" fill="white"/>
</svg>
