<svg width="505" height="16" viewBox="0 0 505 16" fill="none" xmlns="http://www.w3.org/2000/svg">
<path d="M9.06702 6.948C9.86602 5.35 10.665 3.735 11.328 2.426H11.838C12.008 3.752 12.212 5.384 12.416 6.999L13.181 13H16.156C17.465 10.586 21.511 3.242 22.871 0.929999H20.848L17.635 6.948C16.785 8.529 15.952 10.093 15.306 11.3H14.507C14.354 10.076 14.167 8.495 13.98 6.897L13.215 0.929999H10.24L7.29902 6.914C6.51702 8.495 5.75202 10.076 5.17402 11.3H4.39202C4.17102 10.093 3.91602 8.529 3.64402 6.948L2.60702 0.929999H0.771023C1.28102 3.242 2.67502 10.586 3.08302 13H6.05802L9.06702 6.948ZM26.6999 13.204C29.3349 13.204 30.9329 12.677 31.8169 11.844L31.6299 13H33.1599C33.3809 11.657 33.5339 10.79 33.7209 9.77C33.9589 8.342 34.0949 7.696 34.3329 6.353C34.7409 4.024 33.8909 2.936 28.8589 2.936C24.2859 2.936 23.2489 3.905 22.9259 5.962L24.6429 6.013C24.8299 4.84 25.3059 4.449 28.7739 4.449C32.3609 4.449 32.8539 4.976 32.5649 6.676L32.3439 7.883C31.6639 7.254 30.2699 6.88 27.8219 6.88C23.3509 6.88 22.2119 7.815 21.8039 10.076C21.4299 12.286 22.1779 13.204 26.6999 13.204ZM27.4479 11.725C23.9799 11.725 23.3509 11.3 23.5549 10.076C23.7759 8.818 24.3369 8.291 28.0599 8.291C31.7149 8.291 32.2249 8.801 32.0889 9.566L31.9869 10.093C31.7999 11.198 31.1029 11.725 27.4479 11.725ZM36.6714 10.28C36.4334 11.623 36.3144 12.286 36.1784 13H37.9124C38.0144 12.286 38.1334 11.657 38.3714 10.28L38.7964 7.9C39.2554 5.316 40.1904 4.517 43.5224 4.517C46.9734 4.517 47.4664 5.384 47.0754 7.645L46.5994 10.297C46.3444 11.742 46.2594 12.235 46.1064 13H47.8404C47.9594 12.201 48.0784 11.521 48.2994 10.297L48.4864 9.26C48.6564 8.24 48.7584 7.832 48.8774 7.135C49.4044 4.143 48.4524 2.936 43.9644 2.936C41.7544 2.936 40.2584 3.48 39.2724 4.585L39.4934 3.14H37.9124C37.8104 3.803 37.7084 4.415 37.4874 5.673L36.6714 10.28ZM52.5028 6.88C52.3668 7.713 52.1798 8.682 52.0438 9.43C51.5338 12.354 52.4688 13.085 56.4808 13.085C57.2288 13.085 57.6878 13.051 58.2318 13L58.4868 11.453C57.8408 11.487 57.4328 11.504 56.6678 11.504C54.0668 11.504 53.4378 11.249 53.7948 9.192L54.5938 4.687H59.6768L59.9488 3.14H54.8828C55.0188 2.29 55.1378 1.61 55.2228 1.202L53.4888 1.236C53.3528 2.018 53.2678 2.579 53.1658 3.14C52.6218 3.14 52.0778 3.157 51.3808 3.14L51.1088 4.687H52.8938L52.5028 6.88ZM68.4403 6.88C68.3043 7.713 68.1173 8.682 67.9813 9.43C67.4713 12.354 68.4063 13.085 72.4183 13.085C73.1663 13.085 73.6253 13.051 74.1693 13L74.4243 11.453C73.7783 11.487 73.3703 11.504 72.6053 11.504C70.0043 11.504 69.3753 11.249 69.7323 9.192L70.5313 4.687H75.6143L75.8863 3.14H70.8203C70.9563 2.29 71.0753 1.61 71.1603 1.202L69.4263 1.236C69.2903 2.018 69.2053 2.579 69.1033 3.14C68.5593 3.14 68.0153 3.157 67.3183 3.14L67.0463 4.687H68.8313L68.4403 6.88ZM82.1496 13.204C87.0626 13.204 88.3546 12.082 89.0176 8.325L89.1026 7.815C89.7656 4.058 88.4736 2.936 83.5606 2.936C78.6476 2.936 77.3556 4.058 76.6926 7.815L76.6076 8.325C75.9446 12.082 77.2366 13.204 82.1496 13.204ZM82.2176 11.623C78.4776 11.623 77.8826 10.909 78.3586 8.155L78.3926 7.985C78.8856 5.231 79.7356 4.517 83.4756 4.517C87.2156 4.517 87.8276 5.231 87.3346 7.985L87.3006 8.155C86.8246 10.909 85.9576 11.623 82.2176 11.623Z" fill="#535559"/>
<path d="M98.4532 7.271C98.2152 8.631 97.6882 11.657 97.4332 13H99.1672C99.2862 12.252 99.4562 11.283 99.6262 10.28L100.612 4.687H103.23L103.502 3.14H100.884L100.918 2.987C101.088 1.984 101.428 1.746 102.193 1.712C102.822 1.678 103.57 1.644 104.012 1.644L104.216 0.182C103.859 0.199 102.941 0.215999 102.108 0.267C100.34 0.368999 99.5582 0.913 99.2352 2.817C99.2182 2.919 99.2012 3.021 99.1842 3.14H97.5522L97.2122 4.687H98.9122C98.7592 5.537 98.5892 6.472 98.4532 7.271ZM105.758 0.555999L105.486 2.137H107.22L107.492 0.555999H105.758ZM104.058 10.331C103.854 11.47 103.718 12.252 103.565 13H105.299C105.418 12.252 105.554 11.47 105.758 10.348L106.506 6.013C106.727 4.789 106.897 3.871 107.033 3.14H105.299C105.197 3.871 105.027 4.789 104.823 5.996L104.058 10.331ZM108.888 10.28C108.65 11.623 108.531 12.286 108.395 13H110.129C110.231 12.286 110.35 11.657 110.588 10.28L111.013 7.9C111.472 5.316 112.407 4.517 115.739 4.517C119.19 4.517 119.683 5.384 119.292 7.645L118.816 10.297C118.561 11.742 118.476 12.235 118.323 13H120.057C120.176 12.201 120.295 11.521 120.516 10.297L120.703 9.26C120.873 8.24 120.975 7.832 121.094 7.135C121.621 4.143 120.669 2.936 116.181 2.936C113.971 2.936 112.475 3.48 111.489 4.585L111.71 3.14H110.129C110.027 3.803 109.925 4.415 109.704 5.673L108.888 10.28ZM128.477 13.204C130.908 13.204 132.472 12.66 133.475 11.555L133.254 13H134.835C134.971 12.167 135.073 11.589 135.294 10.28L136.552 3.14C136.773 1.882 136.926 1.015 137.079 0.284H135.311C135.192 0.981 134.886 2.817 134.597 4.551C133.9 3.463 132.438 2.936 129.99 2.936C125.332 2.936 124.023 4.058 123.36 7.815L123.275 8.325C122.612 12.082 123.921 13.204 128.477 13.204ZM128.885 11.623C125.162 11.623 124.55 10.909 125.026 8.155L125.06 7.985C125.553 5.231 126.42 4.517 130.228 4.517C133.849 4.517 134.478 5.299 134.002 8.002L133.968 8.138C133.509 10.824 132.591 11.623 128.885 11.623ZM145.853 6.88C145.717 7.713 145.53 8.682 145.394 9.43C144.884 12.354 145.819 13.085 149.831 13.085C150.579 13.085 151.038 13.051 151.582 13L151.837 11.453C151.191 11.487 150.783 11.504 150.018 11.504C147.417 11.504 146.788 11.249 147.145 9.192L147.944 4.687H153.027L153.299 3.14H148.233C148.369 2.29 148.488 1.61 148.573 1.202L146.839 1.236C146.703 2.018 146.618 2.579 146.516 3.14C145.972 3.14 145.428 3.157 144.731 3.14L144.459 4.687H146.244L145.853 6.88ZM154.327 10.314C154.106 11.555 154.004 12.167 153.834 13H155.568C155.704 12.15 155.823 11.419 156.027 10.28L156.452 7.9C156.911 5.316 157.846 4.517 161.178 4.517C164.629 4.517 165.122 5.384 164.731 7.645L164.255 10.314C164.034 11.521 163.932 12.133 163.762 13H165.496C165.649 12.031 165.785 11.232 165.955 10.348L166.142 9.26C166.312 8.24 166.414 7.832 166.533 7.135C167.06 4.143 166.108 2.936 161.62 2.936C159.376 2.936 157.948 3.412 157.03 4.347C157.268 3.106 157.778 0.573 157.829 0.284H156.078C155.959 1.015 155.806 1.916 155.585 3.14L154.327 10.314ZM174.34 13.204C179.304 13.204 180.171 12.218 180.596 9.855L178.913 9.787C178.692 11.062 178.131 11.691 174.391 11.691C170.77 11.691 170.073 11.028 170.379 8.733H180.783C180.834 8.444 180.919 8.087 180.953 7.815C181.514 4.177 180.443 2.936 175.598 2.936C170.753 2.936 169.461 4.058 168.798 7.815L168.713 8.325C168.101 11.98 169.376 13.204 174.34 13.204ZM175.53 4.415C179.015 4.415 179.559 5.095 179.236 7.271H170.634C171.161 5.027 172.113 4.415 175.53 4.415ZM189.307 10.297C189.103 11.436 188.967 12.252 188.814 13H190.395L190.701 11.436C191.347 12.626 192.826 13.204 195.393 13.204C200.051 13.204 201.36 12.082 202.023 8.325L202.108 7.815C202.771 4.058 201.462 2.936 196.906 2.936C194.594 2.936 193.064 3.429 192.061 4.432C192.367 2.681 192.673 0.946999 192.809 0.284H191.058C190.939 1.015 190.786 1.933 190.565 3.157L189.307 10.297ZM191.381 8.138L191.415 8.002C191.874 5.316 192.792 4.517 196.498 4.517C200.221 4.517 200.833 5.231 200.357 7.985L200.323 8.155C199.83 10.909 198.963 11.623 195.155 11.623C191.534 11.623 190.905 10.841 191.381 8.138ZM209.436 13.204C214.4 13.204 215.267 12.218 215.692 9.855L214.009 9.787C213.788 11.062 213.227 11.691 209.487 11.691C205.866 11.691 205.169 11.028 205.475 8.733H215.879C215.93 8.444 216.015 8.087 216.049 7.815C216.61 4.177 215.539 2.936 210.694 2.936C205.849 2.936 204.557 4.058 203.894 7.815L203.809 8.325C203.197 11.98 204.472 13.204 209.436 13.204ZM210.626 4.415C214.111 4.415 214.655 5.095 214.332 7.271H205.73C206.257 5.027 207.209 4.415 210.626 4.415ZM222.872 13.204C227.819 13.204 228.329 12.609 228.686 10.569C229.043 8.546 228.278 7.696 223.552 7.254C219.965 6.914 219.795 6.489 219.914 5.605C220.016 4.823 220.662 4.466 223.858 4.466C227.105 4.466 227.547 4.857 227.36 5.894L227.309 6.149L229.077 6.098C229.485 3.735 228.567 2.936 223.96 2.936C219.421 2.936 218.656 3.599 218.282 5.673C217.942 7.679 218.707 8.461 222.991 8.835C226.884 9.175 227.105 9.6 226.952 10.552C226.816 11.419 226.374 11.776 222.957 11.776C219.336 11.776 218.877 11.385 219.115 10.008L219.166 9.736L217.432 9.787C216.939 12.643 217.959 13.204 222.872 13.204ZM232.231 6.88C232.095 7.713 231.908 8.682 231.772 9.43C231.262 12.354 232.197 13.085 236.209 13.085C236.957 13.085 237.416 13.051 237.96 13L238.215 11.453C237.569 11.487 237.161 11.504 236.396 11.504C233.795 11.504 233.166 11.249 233.523 9.192L234.322 4.687H239.405L239.677 3.14H234.611C234.747 2.29 234.866 1.61 234.951 1.202L233.217 1.236C233.081 2.018 232.996 2.579 232.894 3.14C232.35 3.14 231.806 3.157 231.109 3.14L230.837 4.687H232.622L232.231 6.88ZM253.15 13C254.748 10.586 258.182 5.452 259.763 3.14H257.791L254.816 7.594C253.932 8.903 253.082 10.212 252.385 11.3H251.195C250.889 10.229 250.481 8.886 250.073 7.577L248.713 3.14H246.877C247.625 5.452 249.308 10.909 249.937 13H253.15ZM265.099 13.204C270.012 13.204 271.304 12.082 271.967 8.325L272.052 7.815C272.715 4.058 271.423 2.936 266.51 2.936C261.597 2.936 260.305 4.058 259.642 7.815L259.557 8.325C258.894 12.082 260.186 13.204 265.099 13.204ZM265.167 11.623C261.427 11.623 260.832 10.909 261.308 8.155L261.342 7.985C261.835 5.231 262.685 4.517 266.425 4.517C270.165 4.517 270.777 5.231 270.284 7.985L270.25 8.155C269.774 10.909 268.907 11.623 265.167 11.623ZM279.259 13.204C284.104 13.204 285.209 12.099 285.736 9.175L284.053 9.124C283.747 10.892 282.897 11.623 279.293 11.623C275.621 11.623 275.026 10.909 275.502 8.155L275.536 7.985C276.029 5.231 276.879 4.517 280.551 4.517C284.155 4.517 284.699 5.282 284.393 7.016L286.093 6.965C286.62 3.956 285.464 2.936 280.602 2.936C275.825 2.936 274.499 4.058 273.836 7.815L273.751 8.325C273.088 12.082 274.499 13.204 279.259 13.204ZM292.408 13.204C295.043 13.204 296.641 12.677 297.525 11.844L297.338 13H298.868C299.089 11.657 299.242 10.79 299.429 9.77C299.667 8.342 299.803 7.696 300.041 6.353C300.449 4.024 299.599 2.936 294.567 2.936C289.994 2.936 288.957 3.905 288.634 5.962L290.351 6.013C290.538 4.84 291.014 4.449 294.482 4.449C298.069 4.449 298.562 4.976 298.273 6.676L298.052 7.883C297.372 7.254 295.978 6.88 293.53 6.88C289.059 6.88 287.92 7.815 287.512 10.076C287.138 12.286 287.886 13.204 292.408 13.204ZM293.156 11.725C289.688 11.725 289.059 11.3 289.263 10.076C289.484 8.818 290.045 8.291 293.768 8.291C297.423 8.291 297.933 8.801 297.797 9.566L297.695 10.093C297.508 11.198 296.811 11.725 293.156 11.725ZM302.413 10.331C302.209 11.47 302.073 12.252 301.92 13H303.654C303.773 12.252 303.909 11.47 304.113 10.348L305.371 3.157C305.592 1.933 305.745 1.015 305.898 0.284H304.164C304.045 1.015 303.892 1.933 303.671 3.14L302.413 10.331ZM312.072 13.204C317.019 13.204 317.529 12.609 317.886 10.569C318.243 8.546 317.478 7.696 312.752 7.254C309.165 6.914 308.995 6.489 309.114 5.605C309.216 4.823 309.862 4.466 313.058 4.466C316.305 4.466 316.747 4.857 316.56 5.894L316.509 6.149L318.277 6.098C318.685 3.735 317.767 2.936 313.16 2.936C308.621 2.936 307.856 3.599 307.482 5.673C307.142 7.679 307.907 8.461 312.191 8.835C316.084 9.175 316.305 9.6 316.152 10.552C316.016 11.419 315.574 11.776 312.157 11.776C308.536 11.776 308.077 11.385 308.315 10.008L308.366 9.736L306.632 9.787C306.139 12.643 307.159 13.204 312.072 13.204ZM327.638 7.271C327.4 8.631 326.873 11.657 326.618 13H328.352C328.471 12.252 328.641 11.283 328.811 10.28L329.797 4.687H332.415L332.687 3.14H330.069L330.103 2.987C330.273 1.984 330.613 1.746 331.378 1.712C332.007 1.678 332.755 1.644 333.197 1.644L333.401 0.182C333.044 0.199 332.126 0.215999 331.293 0.267C329.525 0.368999 328.743 0.913 328.42 2.817C328.403 2.919 328.386 3.021 328.369 3.14H326.737L326.397 4.687H328.097C327.944 5.537 327.774 6.472 327.638 7.271ZM338.113 13.204C343.026 13.204 344.318 12.082 344.981 8.325L345.066 7.815C345.729 4.058 344.437 2.936 339.524 2.936C334.611 2.936 333.319 4.058 332.656 7.815L332.571 8.325C331.908 12.082 333.2 13.204 338.113 13.204ZM338.181 11.623C334.441 11.623 333.846 10.909 334.322 8.155L334.356 7.985C334.849 5.231 335.699 4.517 339.439 4.517C343.179 4.517 343.791 5.231 343.298 7.985L343.264 8.155C342.788 10.909 341.921 11.623 338.181 11.623ZM347.071 10.28C346.833 11.623 346.714 12.286 346.578 13H348.312C348.414 12.286 348.533 11.657 348.771 10.28L349.179 8.002C349.672 5.146 350.59 4.517 353.514 4.517C356.489 4.517 356.761 4.925 356.421 6.846L356.353 7.186L358.002 7.152C358.053 6.897 358.104 6.642 358.138 6.438C358.631 3.616 357.985 2.936 354.194 2.936C352.086 2.936 350.641 3.48 349.672 4.585L349.893 3.14H348.312C348.21 3.803 348.108 4.415 347.887 5.673L347.071 10.28ZM371.826 13.306C373.543 10.79 377.147 5.452 378.779 3.14H376.892L374.053 7.254C373.288 8.342 372.54 9.447 371.894 10.416H370.959C370.534 9.43 370.024 8.308 369.548 7.203L367.78 3.14H365.893C366.964 5.469 368.868 9.906 369.735 11.997H370.806L370.415 12.541C369.616 13.646 369.225 13.85 368.222 13.85C367.576 13.85 367.049 13.833 366.522 13.799L366.199 15.329C366.811 15.363 367.593 15.397 368.001 15.397C369.735 15.397 370.772 14.853 371.826 13.306ZM384.115 13.204C389.028 13.204 390.32 12.082 390.983 8.325L391.068 7.815C391.731 4.058 390.439 2.936 385.526 2.936C380.613 2.936 379.321 4.058 378.658 7.815L378.573 8.325C377.91 12.082 379.202 13.204 384.115 13.204ZM384.183 11.623C380.443 11.623 379.848 10.909 380.324 8.155L380.358 7.985C380.851 5.231 381.701 4.517 385.441 4.517C389.181 4.517 389.793 5.231 389.3 7.985L389.266 8.155C388.79 10.909 387.923 11.623 384.183 11.623ZM393.652 6.88C393.465 7.9 393.38 8.308 393.261 9.005C392.734 11.997 393.669 13.204 398.14 13.204C400.316 13.204 401.795 12.66 402.764 11.572L402.543 13H404.124C404.226 12.337 404.328 11.725 404.549 10.467L405.365 5.86C405.603 4.517 405.722 3.854 405.858 3.14H404.124C404.022 3.854 403.903 4.483 403.665 5.86L403.24 8.24C402.798 10.824 401.846 11.623 398.582 11.623C395.148 11.623 394.655 10.756 395.063 8.495L395.522 5.843C395.777 4.398 395.862 3.905 396.015 3.14H394.281C394.162 3.939 394.043 4.619 393.822 5.843L393.652 6.88ZM407.683 10.28C407.445 11.623 407.326 12.286 407.19 13H408.924C409.026 12.286 409.145 11.657 409.383 10.28L409.791 8.002C410.284 5.146 411.202 4.517 414.126 4.517C417.101 4.517 417.373 4.925 417.033 6.846L416.965 7.186L418.614 7.152C418.665 6.897 418.716 6.642 418.75 6.438C419.243 3.616 418.597 2.936 414.806 2.936C412.698 2.936 411.253 3.48 410.284 4.585L410.505 3.14H408.924C408.822 3.803 408.72 4.415 408.499 5.673L407.683 10.28ZM427.798 6.88C427.662 7.713 427.475 8.682 427.339 9.43C426.829 12.354 427.764 13.085 431.776 13.085C432.524 13.085 432.983 13.051 433.527 13L433.782 11.453C433.136 11.487 432.728 11.504 431.963 11.504C429.362 11.504 428.733 11.249 429.09 9.192L429.889 4.687H434.972L435.244 3.14H430.178C430.314 2.29 430.433 1.61 430.518 1.202L428.784 1.236C428.648 2.018 428.563 2.579 428.461 3.14C427.917 3.14 427.373 3.157 426.676 3.14L426.404 4.687H428.189L427.798 6.88ZM436.271 10.28C436.033 11.623 435.914 12.286 435.778 13H437.512C437.614 12.286 437.733 11.657 437.971 10.28L438.379 8.002C438.872 5.146 439.79 4.517 442.714 4.517C445.689 4.517 445.961 4.925 445.621 6.846L445.553 7.186L447.202 7.152C447.253 6.897 447.304 6.642 447.338 6.438C447.831 3.616 447.185 2.936 443.394 2.936C441.286 2.936 439.841 3.48 438.872 4.585L439.093 3.14H437.512C437.41 3.803 437.308 4.415 437.087 5.673L436.271 10.28ZM453.177 13.204C455.812 13.204 457.41 12.677 458.294 11.844L458.107 13H459.637C459.858 11.657 460.011 10.79 460.198 9.77C460.436 8.342 460.572 7.696 460.81 6.353C461.218 4.024 460.368 2.936 455.336 2.936C450.763 2.936 449.726 3.905 449.403 5.962L451.12 6.013C451.307 4.84 451.783 4.449 455.251 4.449C458.838 4.449 459.331 4.976 459.042 6.676L458.821 7.883C458.141 7.254 456.747 6.88 454.299 6.88C449.828 6.88 448.689 7.815 448.281 10.076C447.907 12.286 448.655 13.204 453.177 13.204ZM453.925 11.725C450.457 11.725 449.828 11.3 450.032 10.076C450.253 8.818 450.814 8.291 454.537 8.291C458.192 8.291 458.702 8.801 458.566 9.566L458.464 10.093C458.277 11.198 457.58 11.725 453.925 11.725ZM468.351 13.204C473.196 13.204 474.301 12.099 474.828 9.175L473.145 9.124C472.839 10.892 471.989 11.623 468.385 11.623C464.713 11.623 464.118 10.909 464.594 8.155L464.628 7.985C465.121 5.231 465.971 4.517 469.643 4.517C473.247 4.517 473.791 5.282 473.485 7.016L475.185 6.965C475.712 3.956 474.556 2.936 469.694 2.936C464.917 2.936 463.591 4.058 462.928 7.815L462.843 8.325C462.18 12.082 463.591 13.204 468.351 13.204ZM477.029 10.331C476.825 11.47 476.689 12.252 476.536 13H478.27C478.389 12.252 478.525 11.47 478.729 10.348L479.001 8.835H481.602C482.044 9.26 482.605 9.77 483.166 10.28L486.141 13H488.419L488.453 12.966C487.025 11.657 484.594 9.447 483.081 8.036C485.07 6.608 488.096 4.449 489.932 3.174L489.898 3.14H487.603L484.254 5.503C483.404 6.098 482.554 6.71 481.823 7.237H479.273L479.987 3.157C480.208 1.933 480.361 0.997999 480.514 0.284H478.78C478.661 1.015 478.508 1.933 478.287 3.14L477.029 10.331ZM497.215 9.77C502.23 9.77 503.471 8.648 504.049 5.401L504.1 5.061C504.678 1.814 503.403 0.691999 498.201 0.691999C492.829 0.691999 491.741 1.712 491.214 4.721L492.88 4.772C493.152 3.038 494.002 2.273 498.116 2.273C502.128 2.273 502.74 2.987 502.349 5.231C501.941 7.475 501.091 8.189 497.249 8.189C496.79 8.189 496.297 8.189 495.702 8.172L495.396 9.753C495.957 9.77 496.705 9.77 497.215 9.77ZM495.243 10.926L494.869 13H497.011L497.385 10.926H495.243Z" fill="#9EA1AB"/>
</svg>
