<svg width="40" height="40" viewBox="0 0 40 40" fill="none" xmlns="http://www.w3.org/2000/svg">
<circle cx="20" cy="20" r="10.2478" stroke="#FF4F4F" stroke-width="1.50441"/>
<path d="M20.6918 22.0156H19.3793L19.27 13.8906H20.8012L20.6918 22.0156ZM19.0356 24.8823C19.0304 24.7052 19.072 24.5411 19.1606 24.3901C19.2543 24.2338 19.3767 24.1114 19.5278 24.0229C19.684 23.9291 19.8533 23.8823 20.0356 23.8823C20.2127 23.8823 20.3767 23.9265 20.5278 24.0151C20.684 24.1036 20.8064 24.2234 20.895 24.3744C20.9887 24.5255 21.0356 24.6896 21.0356 24.8666C21.0356 25.1479 20.9392 25.3901 20.7465 25.5932C20.5538 25.7911 20.3168 25.8927 20.0356 25.8979C19.8533 25.8979 19.684 25.851 19.5278 25.7573C19.3767 25.6635 19.2543 25.5411 19.1606 25.3901C19.072 25.2338 19.0304 25.0646 19.0356 24.8823Z" fill="#FF4F4F"/>
</svg>
