<svg width="192" height="28" viewBox="0 0 192 28" fill="none" xmlns="http://www.w3.org/2000/svg">
<path d="M12.0832 23.4196C22.4332 23.4196 24.8032 21.3496 25.9132 14.9596L22.0132 14.8696C21.2932 18.5896 19.9732 19.7896 12.3532 19.7896C4.79325 19.7896 3.71325 18.3196 4.73325 12.4996L4.76325 12.1996C5.78325 6.52957 7.40325 4.90957 14.9632 4.90957C22.6132 4.90957 23.5432 6.07957 22.8832 9.82957L26.8132 9.73957C27.9232 3.46957 25.5233 1.27957 15.1432 1.27957C4.91325 1.27957 2.21325 3.73957 0.773247 11.8696L0.593247 12.8296C-0.876753 20.7196 1.67325 23.4196 12.0832 23.4196Z" fill="white"/>
<path d="M38.9321 23.3596C47.8721 23.3596 50.1221 21.3796 51.2921 14.7196L51.4421 13.8196C52.6121 7.15957 50.3021 5.17957 41.3921 5.17957C32.4521 5.17957 30.2021 7.15957 29.0321 13.8196L28.8821 14.7196C27.7121 21.3796 30.0221 23.3596 38.9321 23.3596ZM39.1421 19.8796C33.0221 19.8796 32.1221 18.7396 32.8721 14.3896L32.9021 14.1496C33.6821 9.76957 35.0021 8.65957 41.1521 8.65957C47.2721 8.65957 48.2321 9.76957 47.4221 14.1496L47.3921 14.3896C46.6421 18.7396 45.2921 19.8796 39.1421 19.8796Z" fill="white"/>
<path d="M54.5267 18.1996C54.1367 20.4496 53.9267 21.6796 53.6567 22.9996H57.6167C57.7967 21.6796 58.0067 20.5096 58.4267 18.1996L59.1167 14.2396C59.8967 9.94957 61.3367 8.71957 65.6867 8.71957C69.5567 8.71957 70.4267 9.64957 69.8867 12.7396L68.9267 18.2896C68.5067 20.5396 68.3567 21.4996 68.0567 22.9996H71.9867C72.2867 21.1696 72.5567 19.8196 72.7967 18.1996L73.5167 14.2396C74.2667 9.94957 75.7967 8.71957 80.0867 8.71957C83.9567 8.71957 84.8567 9.64957 84.3167 12.7396L83.3267 18.2596C82.9367 20.5396 82.7867 21.4996 82.4567 22.9996H86.4167C86.7167 21.1996 86.9567 19.8496 87.2267 18.2596L87.4967 16.6396C87.9767 13.9396 88.2767 12.4996 88.4867 11.1496C89.2667 6.85957 87.6767 5.17957 81.7967 5.17957C77.9867 5.17957 75.6767 6.22957 74.2367 8.32957C73.7867 6.07957 71.7767 5.17957 67.5167 5.17957C63.7967 5.17957 61.5167 6.13957 60.0167 8.08957L60.4067 5.53957H56.7467C56.5667 6.70957 56.3567 7.84957 55.9967 9.91957L54.5267 18.1996Z" fill="white"/>
<path d="M91.2453 22.9996C90.9153 24.7996 90.6453 26.2996 90.4653 27.1996H94.4553C94.6353 25.9396 95.0553 23.5096 95.6253 20.4196C96.7353 22.3696 99.2253 23.3596 103.545 23.3596C111.645 23.3596 113.865 21.4396 115.065 14.7196L115.215 13.8196C116.355 7.15957 114.165 5.17957 106.215 5.17957C101.925 5.17957 99.2853 6.16957 97.6053 8.11957L98.0553 5.53957H94.3053C94.0953 6.79957 93.8853 7.90957 93.6453 9.34957L91.2453 22.9996ZM96.6453 14.3896L96.7053 14.1496C97.4253 9.94957 98.8653 8.71957 104.895 8.71957C110.955 8.71957 111.975 9.79957 111.225 14.1496L111.165 14.3896C110.385 18.7096 109.005 19.8196 102.795 19.8196C96.9153 19.8196 95.8953 18.6196 96.6453 14.3896Z" fill="white"/>
<path d="M118.426 17.9596C118.036 20.1496 117.796 21.6196 117.496 22.9996H121.456C121.666 21.6196 121.936 20.1496 122.296 17.9896L124.486 5.56957C124.876 3.43957 125.146 1.81957 125.416 0.55957H121.456C121.246 1.84957 120.976 3.43957 120.616 5.53957L118.426 17.9596Z" fill="white"/>
<path d="M136.962 23.3596C145.962 23.3596 147.612 21.6196 148.392 17.2096L144.552 17.0896C144.192 19.1296 143.292 20.0896 137.142 20.0896C131.352 20.0896 130.212 19.0696 130.662 15.4096H148.692C148.782 14.9596 148.902 14.4196 148.992 13.8196C150.012 7.36957 147.972 5.17957 139.242 5.17957C130.482 5.17957 128.142 7.15957 126.972 13.8196L126.822 14.7196C125.682 21.1696 128.052 23.3596 136.962 23.3596ZM139.062 8.17957C144.732 8.17957 145.632 9.22957 145.152 12.6196H131.172C132.012 9.10957 133.542 8.17957 139.062 8.17957Z" fill="white"/>
<path d="M154.276 11.8996C153.976 13.6396 153.646 15.3796 153.406 16.7596C152.506 21.8896 154.306 23.1496 161.596 23.1496C162.826 23.1496 163.756 23.0896 164.896 22.9996L165.436 19.6096C164.266 19.6996 163.576 19.7296 162.286 19.7296C157.816 19.7296 156.856 19.2796 157.456 15.8296L158.686 8.92957H167.326L167.926 5.53957H159.286C159.556 4.06957 159.766 2.92957 159.916 2.11957L155.956 2.17957C155.746 3.52957 155.596 4.51957 155.386 5.53957C154.426 5.53957 153.346 5.53957 152.236 5.53957L151.636 8.92957H154.816L154.276 11.8996Z" fill="white"/>
<path d="M179.003 23.3596C188.003 23.3596 189.653 21.6196 190.433 17.2096L186.593 17.0896C186.233 19.1296 185.333 20.0896 179.183 20.0896C173.393 20.0896 172.253 19.0696 172.703 15.4096H190.733C190.823 14.9596 190.943 14.4196 191.033 13.8196C192.053 7.36957 190.013 5.17957 181.283 5.17957C172.523 5.17957 170.183 7.15957 169.013 13.8196L168.863 14.7196C167.723 21.1696 170.093 23.3596 179.003 23.3596ZM181.103 8.17957C186.773 8.17957 187.673 9.22957 187.193 12.6196H173.213C174.053 9.10957 175.583 8.17957 181.103 8.17957Z" fill="white"/>
</svg>
