<svg width="164" height="164" viewBox="0 0 164 164" fill="none" xmlns="http://www.w3.org/2000/svg">
<g clip-path="url(#clip0_839_4606)">
<g filter="url(#filter0_b_839_4606)">
<rect width="164.049" height="164.049" rx="18" fill="#1E2025" fill-opacity="0.5"/>
</g>
<path fill-rule="evenodd" clip-rule="evenodd" d="M73.6534 61.3106C73.9727 61.6299 74.4844 61.636 74.7962 61.3242C75.1081 61.0123 75.102 60.5007 74.7827 60.1813C74.4633 59.862 73.9517 59.8559 73.6398 60.1678C73.328 60.4796 73.3341 60.9913 73.6534 61.3106Z" stroke="white" stroke-width="0.741828" stroke-linecap="round" stroke-linejoin="round"/>
<path d="M80.7993 59.9474C80.9441 60.0923 81.179 60.0923 81.3238 59.9474C81.4687 59.8026 81.4687 59.5677 81.3238 59.4229L80.7993 59.9474ZM78.7488 57.3724L79.0111 57.1101L78.7488 57.3724ZM62.939 73.1822L62.6767 73.4444L62.939 73.1822ZM69.8773 80.1205L70.1399 79.8585L70.1396 79.8582L69.8773 80.1205ZM73.4794 82.3552C73.6818 82.3868 73.8715 82.2483 73.9031 82.0459C73.9346 81.8434 73.7961 81.6538 73.5937 81.6222L73.4794 82.3552ZM81.3245 59.4223C81.1796 59.2775 80.9448 59.2775 80.7999 59.4223C80.6551 59.5672 80.6551 59.802 80.7999 59.9469L81.3245 59.4223ZM79.0206 80.2283L78.7583 79.9661L78.7581 79.9662L79.0206 80.2283ZM73.5953 81.6218C73.3929 81.5897 73.2029 81.7278 73.1709 81.9301C73.1388 82.1324 73.2769 82.3224 73.4792 82.3545L73.5953 81.6218ZM81.4329 59.6984C81.4405 59.4937 81.2807 59.3215 81.076 59.3139C80.8713 59.3063 80.6992 59.4661 80.6915 59.6708L81.4329 59.6984ZM80.682 69.9195L80.3113 69.9057L80.3112 69.9091L80.682 69.9195ZM80.126 71.0813L80.3653 71.3647L80.3653 71.3647L80.126 71.0813ZM78.8843 71.4373L78.9347 71.0699L78.9344 71.0698L78.8843 71.4373ZM73.631 70.7214L73.6811 70.3539L73.6802 70.3538L73.631 70.7214ZM72.2746 71.1905L72.0068 70.9338L72.0068 70.9338L72.2746 71.1905ZM71.8623 72.5664L71.497 72.6306L71.4971 72.6313L71.8623 72.5664ZM73.1721 82.0531C73.2079 82.2547 73.4005 82.3892 73.6022 82.3533C73.8038 82.3175 73.9383 82.1249 73.9024 81.9232L73.1721 82.0531ZM81.3238 59.4229L79.0111 57.1101L78.4865 57.6347L80.7993 59.9474L81.3238 59.4229ZM79.0111 57.1101C76.3175 54.4166 71.9893 54.3563 69.3439 57.0017L69.8684 57.5262C72.2125 55.1822 76.0708 55.219 78.4865 57.6347L79.0111 57.1101ZM69.3439 57.0017L62.5683 63.7773L63.0928 64.3018L69.8684 57.5262L69.3439 57.0017ZM62.5683 63.7773C59.9229 66.4227 59.9832 70.7509 62.6767 73.4444L63.2013 72.9199C60.7856 70.5042 60.7488 66.6459 63.0928 64.3018L62.5683 63.7773ZM62.6767 73.4444L69.615 80.3827L70.1396 79.8582L63.2013 72.9199L62.6767 73.4444ZM69.6147 80.3824C70.6647 81.4352 72.0205 82.1277 73.4794 82.3552L73.5937 81.6222C72.2919 81.4193 71.0797 80.8007 70.1399 79.8585L69.6147 80.3824ZM80.7999 59.9469L85.4255 64.5724L85.95 64.0478L81.3245 59.4223L80.7999 59.9469ZM85.4255 64.5724C87.8411 66.9881 87.8779 70.8464 85.5339 73.1905L86.0585 73.715C88.7039 71.0696 88.6436 66.7414 85.95 64.0478L85.4255 64.5724ZM85.5339 73.1905L78.7583 79.9661L79.2829 80.4906L86.0585 73.715L85.5339 73.1905ZM78.7581 79.9662C77.4177 81.3084 75.504 81.9241 73.5953 81.6218L73.4792 82.3545C75.6183 82.6933 77.7716 82.0038 79.283 80.4904L78.7581 79.9662ZM80.6915 59.6708L80.3113 69.9057L81.0526 69.9333L81.4329 59.6984L80.6915 59.6708ZM80.3112 69.9091C80.3015 70.2568 80.1467 70.5784 79.8867 70.7979L80.3653 71.3647C80.7887 71.0072 81.0372 70.486 81.0528 69.9299L80.3112 69.9091ZM79.8867 70.7979C79.6267 71.0175 79.282 71.1175 78.9347 71.0699L78.834 71.8048C79.3859 71.8805 79.942 71.7221 80.3653 71.3647L79.8867 70.7979ZM78.9344 71.0698L73.6811 70.3539L73.5809 71.0889L78.8342 71.8049L78.9344 71.0698ZM73.6802 70.3538C73.0591 70.2707 72.4382 70.4839 72.0068 70.9338L72.5424 71.4472C72.807 71.1711 73.1911 71.0368 73.5818 71.0891L73.6802 70.3538ZM72.0068 70.9338C71.5756 71.3837 71.3885 72.0133 71.497 72.6306L72.2276 72.5022C72.1593 72.1133 72.2777 71.7233 72.5424 71.4472L72.0068 70.9338ZM71.4971 72.6313L73.1721 82.0531L73.9024 81.9232L72.2275 72.5015L71.4971 72.6313Z" fill="white"/>
<path d="M61.0846 130.163C59.3727 128.451 59.4212 127.466 61.0523 125.834C61.9568 124.93 63.3134 123.896 64.3147 123.25L63.8948 122.427C62.8773 123.089 61.4884 124.155 60.374 125.269C58.0161 127.627 58.7267 129.274 60.3498 130.898C61.9729 132.521 63.6525 133.28 65.962 130.938C67.1733 129.711 68.1746 128.419 68.8852 127.272L68.0616 126.836C67.4802 127.869 66.5515 129.105 65.4372 130.219C63.8948 131.762 62.6916 131.77 61.0846 130.163ZM67.9781 122.946C67.8731 121.937 68.293 120.79 69.1974 119.886L69.4639 119.619C70.8447 118.239 71.9591 118.239 72.912 119.191L75.2295 121.509L75.9563 120.782L73.5903 118.416C72.2175 117.043 70.4168 117.439 68.8502 119.006L68.5837 119.272C67.7358 120.12 67.1867 121.315 67.2028 122.171L65.0064 119.975L64.2877 120.693L70.1664 126.572L70.8851 125.853L67.9781 122.946ZM82.2204 114.599L79.4748 111.853C78.4089 110.787 77.1572 110.666 75.2838 112.572C74.3309 113.541 73.6688 114.397 73.1035 115.334L73.911 115.754C74.444 114.865 75.1385 113.945 75.946 113.137C77.238 111.845 77.9082 111.724 78.7642 112.58L79.0065 112.822C78.2716 113.186 77.2784 113.969 76.7212 114.526L76.4466 114.801C74.7185 116.529 74.8154 117.53 75.5987 118.313L75.7279 118.443C76.4951 119.21 77.7225 119.097 79.2406 117.579L79.5071 117.312C80.2177 116.602 80.8234 115.624 80.9364 114.752L81.5017 115.318L82.2204 114.599ZM78.6188 116.973C77.4479 118.144 76.8423 118.12 76.4466 117.724L76.277 117.554C75.8814 117.159 75.8894 116.585 77.0603 115.414L77.3349 115.14C78.0132 114.462 78.8126 113.824 79.6363 113.452L80.3469 114.163C80.1693 115.067 79.5879 116.004 78.8934 116.698L78.6188 116.973ZM79.1399 108.797L83.5409 113.198L84.2596 112.479L81.5544 109.774C81.3687 108.651 81.6675 107.416 82.5719 106.511L82.8384 106.245C84.2192 104.864 85.3336 104.864 86.2865 105.817L88.604 108.134L89.3308 107.408L86.9648 105.042C85.592 103.669 83.7912 104.065 82.2247 105.631L81.9582 105.898C81.1103 106.746 80.65 107.949 80.7388 108.958L79.8586 108.078L79.1399 108.797ZM94.7887 100.496C95.685 101.393 95.6042 102.555 93.7631 104.397C92.7941 105.366 91.8897 106.012 91.0095 106.488L91.8412 107.013C92.6487 106.545 93.6258 105.761 94.3768 105.01C96.5652 102.822 96.8317 101.102 95.6204 99.8907L91.8331 96.1034L91.1145 96.8221L91.7928 97.5004C90.9368 97.4843 89.7013 98.0738 88.8534 98.9217L88.5869 99.1882C87.0204 100.755 86.4632 102.475 87.8359 103.848L88.1266 104.138C89.4994 105.511 91.1387 104.873 92.7053 103.306L92.9717 103.04C93.8923 102.119 94.3041 100.852 94.2718 99.9795L94.7887 100.496ZM93.4966 99.2043C93.6985 100.278 93.2625 101.522 92.358 102.426L92.0916 102.693C90.7511 104.033 89.8628 104.421 88.8453 103.403L88.5708 103.129C87.6179 102.176 87.8198 101.183 89.2006 99.8019L89.4671 99.5354C90.3715 98.631 91.5586 98.1707 92.568 98.2757L93.4966 99.2043ZM96.8584 92.2249C97.892 91.1913 98.9256 90.8683 99.6685 91.6112L99.935 91.8777L95.9459 95.8668L96.7695 96.2706L101.267 91.7727L100.581 91.0863C99.2082 89.7135 97.8193 90.0365 96.1881 91.6677L95.534 92.3218C93.9028 93.953 93.5879 95.673 94.9607 97.0458L95.2918 97.3769C96.6646 98.7496 98.3846 98.4347 100.016 96.8035L100.5 96.319C101.461 95.3581 102.293 94.2356 102.834 93.2262L102.035 92.8144C101.55 93.7673 100.694 94.8978 99.8865 95.7053L99.3778 96.214C98.0373 97.5545 96.9633 97.611 96.0105 96.6582L95.6794 96.3271C94.7265 95.3742 94.783 94.3002 96.1235 92.9597L96.8584 92.2249ZM107.862 85.0162C109.817 83.062 109.809 81.7296 108.848 80.7686L108.638 80.5587C107.717 79.6381 106.288 79.5332 104.334 81.4873L100.999 84.8224L106.457 90.2812L107.184 89.5544L102.339 84.7093L105.012 82.0364C106.272 80.7767 107.208 80.5668 107.943 81.3016L108.105 81.4631C108.839 82.198 108.573 83.0781 107.313 84.3379L104.939 86.712L105.763 87.1157L107.862 85.0162ZM111.295 79.6291C111.19 78.6197 111.61 77.473 112.515 76.5686L112.781 76.3021C114.162 74.9213 115.276 74.9213 116.229 75.8742L118.547 78.1917L119.274 77.465L116.908 75.0989C115.535 73.7262 113.734 74.1218 112.167 75.6884L111.901 75.9549C111.053 76.8028 110.504 77.9979 110.52 78.8539L108.324 76.6574L107.605 77.3761L113.484 83.2549L114.202 82.5362L111.295 79.6291ZM118.649 69.2064C117.018 70.8375 116.663 72.6787 118.036 74.0515L118.286 74.3018C119.659 75.6746 121.5 75.3193 123.131 73.6881L123.761 73.0582C125.392 71.427 125.748 69.5859 124.375 68.2131L124.124 67.9628C122.752 66.59 120.911 66.9453 119.279 68.5765L118.649 69.2064ZM123.656 68.9318C124.609 69.8847 124.512 71.0798 123.172 72.4203L122.493 73.0986C121.153 74.4391 119.958 74.536 119.005 73.5831L118.754 73.3328C117.802 72.3799 117.898 71.1848 119.239 69.8443L119.917 69.166C121.258 67.8255 122.453 67.7286 123.406 68.6815L123.656 68.9318ZM127.124 67.0627C127.996 67.9348 128.715 68.0721 129.805 66.9819C130.483 66.3036 130.879 65.7787 131.291 65.1085L130.814 64.309C130.435 64.9954 130.023 65.5688 129.45 66.1421C128.909 66.6831 128.392 66.8931 127.996 66.4974L125.671 64.1718L127.964 61.8784L127.35 61.2647L125.057 63.558L123.652 62.153L122.933 62.8717L124.338 64.2767L123.127 65.488L123.741 66.1017L124.952 64.8904L127.124 67.0627ZM130.447 57.4091C128.816 59.0402 128.46 60.8814 129.833 62.2542L130.083 62.5045C131.456 63.8773 133.297 63.522 134.928 61.8908L135.558 61.2609C137.19 59.6297 137.545 57.7886 136.172 56.4158L135.922 56.1655C134.549 54.7927 132.708 55.148 131.077 56.7792L130.447 57.4091ZM135.453 57.1345C136.406 58.0874 136.309 59.2825 134.969 60.623L134.291 61.3013C132.95 62.6418 131.755 62.7387 130.802 61.7858L130.552 61.5355C129.599 60.5826 129.696 59.3875 131.036 58.047L131.715 57.3687C133.055 56.0282 134.25 55.9313 135.203 56.8842L135.453 57.1345Z" fill="white"/>
</g>
<defs>
<filter id="filter0_b_839_4606" x="-22.2548" y="-22.2548" width="208.559" height="208.559" filterUnits="userSpaceOnUse" color-interpolation-filters="sRGB">
<feFlood flood-opacity="0" result="BackgroundImageFix"/>
<feGaussianBlur in="BackgroundImageFix" stdDeviation="11.1274"/>
<feComposite in2="SourceAlpha" operator="in" result="effect1_backgroundBlur_839_4606"/>
<feBlend mode="normal" in="SourceGraphic" in2="effect1_backgroundBlur_839_4606" result="shape"/>
</filter>
<clipPath id="clip0_839_4606">
<rect width="164" height="164" fill="white"/>
</clipPath>
</defs>
</svg>
