<svg width="351" height="83" viewBox="0 0 351 83" fill="none" xmlns="http://www.w3.org/2000/svg">
<path d="M27.5893 22.9895C30.0074 17.9605 32.5355 12.8211 34.6789 8.45526H36.3826C36.9322 12.8211 37.5368 18.0158 38.1413 22.9895L40.3946 41.3368H51.9359C56.1678 33.2684 68.8632 9.61579 73.095 2.1H64.7963L55.1785 21C52.7603 25.8632 50.3421 30.671 48.4186 34.4842H45.8905C45.4508 30.6158 44.9012 25.8079 44.3516 20.9447L41.9335 2.1H30.5021L21.4339 20.8895C19.0707 25.7526 16.7624 30.6158 14.8938 34.4842H12.5306C11.981 30.7263 11.2665 25.9737 10.607 21.2211L7.63926 2.1H0C1.5938 9.61579 5.77066 33.2684 7.03471 41.3368H18.576L27.5893 22.9895Z" fill="white"/>
<path d="M88.5097 42C104.997 42 108.02 38.7947 109.449 30.671L102.414 30.45C101.755 34.2079 100.106 35.9763 88.8394 35.9763C78.2324 35.9763 76.1439 34.0974 76.9683 27.3553H109.998C110.163 26.5263 110.383 25.5316 110.548 24.4263C112.417 12.5447 108.679 8.51052 92.6865 8.51052C76.6386 8.51052 72.3518 12.1579 70.2084 24.4263L69.9336 26.0842C67.8452 37.9658 72.1869 42 88.5097 42ZM92.3568 14.0368C102.744 14.0368 104.393 15.971 103.513 22.2158H77.9026C79.4415 15.75 82.2444 14.0368 92.3568 14.0368Z" fill="white"/>
<path d="M116.382 32.0526C115.667 36.0868 115.228 38.7947 114.678 41.3368H121.933C122.317 38.7947 122.812 36.0868 123.472 32.1079L127.484 9.22895C128.198 5.30526 128.693 2.32105 129.187 0H121.933C121.548 2.37631 121.053 5.30526 120.394 9.17368L116.382 32.0526Z" fill="white"/>
<path d="M150.063 42C166.221 42 169.848 38.3526 171.607 28.5158L164.572 28.35C163.693 33.4895 161.22 35.5895 150.393 35.5895C139.346 35.5895 137.698 33.4895 139.072 25.4763L139.127 25.0342C140.556 16.9658 142.974 14.9211 154.02 14.9211C164.847 14.9211 166.441 17.0763 165.562 22.1605V22.1053L172.651 21.9395C174.465 11.8263 170.563 8.51052 154.405 8.51052C138.467 8.51052 134.18 12.1579 132.037 24.4263L131.762 26.0842C129.619 38.3526 134.18 42 150.063 42Z" fill="white"/>
<path d="M195.471 42C211.849 42 215.971 38.3526 218.114 26.0842L218.389 24.4263C220.532 12.1579 216.301 8.51052 199.978 8.51052C183.6 8.51052 179.478 12.1579 177.335 24.4263L177.06 26.0842C174.917 38.3526 179.149 42 195.471 42ZM195.856 35.5895C184.644 35.5895 182.996 33.4895 184.37 25.4763L184.425 25.0342C185.853 16.9658 188.272 14.9211 199.538 14.9211C210.75 14.9211 212.508 16.9658 211.025 25.0342L210.97 25.4763C209.596 33.4895 207.122 35.5895 195.856 35.5895Z" fill="white"/>
<path d="M224.04 32.4947C223.325 36.6395 222.941 38.9053 222.446 41.3368H229.701C230.03 38.9053 230.415 36.75 231.185 32.4947L232.449 25.2C233.877 17.2974 236.515 15.0316 244.484 15.0316C251.574 15.0316 253.168 16.7447 252.179 22.4368L250.42 32.6605C249.651 36.8053 249.376 38.5737 248.826 41.3368H256.026C256.575 37.9658 257.07 35.4789 257.51 32.4947L258.829 25.2C260.203 17.2974 263.006 15.0316 270.865 15.0316C277.954 15.0316 279.603 16.7447 278.614 22.4368L276.8 32.6053C276.086 36.8053 275.811 38.5737 275.206 41.3368H282.461C283.011 38.021 283.45 35.5342 283.945 32.6053L284.439 29.6211C285.319 24.6474 285.868 21.9947 286.253 19.5079C287.682 11.6053 284.769 8.51052 273.997 8.51052C267.018 8.51052 262.786 10.4447 260.148 14.3132C259.323 10.1684 255.641 8.51052 247.837 8.51052C241.022 8.51052 236.845 10.2789 234.097 13.8711L234.812 9.17368H228.107C227.777 11.3289 227.392 13.4289 226.733 17.2421L224.04 32.4947Z" fill="white"/>
<path d="M310.652 42C327.14 42 330.163 38.7947 331.591 30.671L324.557 30.45C323.897 34.2079 322.248 35.9763 310.982 35.9763C300.375 35.9763 298.286 34.0974 299.111 27.3553H332.141C332.306 26.5263 332.526 25.5316 332.691 24.4263C334.559 12.5447 330.822 8.51052 314.829 8.51052C298.781 8.51052 294.494 12.1579 292.351 24.4263L292.076 26.0842C289.988 37.9658 294.329 42 310.652 42ZM314.499 14.0368C324.886 14.0368 326.535 15.971 325.656 22.2158H300.045C301.584 15.75 304.387 14.0368 314.499 14.0368Z" fill="white"/>
<path d="M342.701 2.1C342.591 3.09474 339.624 25.5868 338.854 30.2289H345.064C345.889 25.5868 350.78 3.09474 351 2.1H342.701ZM337.205 33.2684L335.776 41.3368H344.185L345.669 33.2684H337.205Z" fill="white"/>
<path d="M10.7672 80.2857C17.7935 80.2857 19.4715 78.7683 19.4715 74.4511L17.374 74.387C17.3321 77.3363 16.4302 78.2126 10.8511 78.2126C5.27197 78.2126 4.20228 77.0585 4.20228 72.5276V72.2711C4.20228 67.8898 5.27197 66.5861 10.8511 66.5861C16.4302 66.5861 17.374 67.4623 17.374 70.4117L19.4715 70.3476C19.4715 66.0304 17.7726 64.5129 10.7672 64.5129C3.80378 64.5129 2 66.2441 2 72.0574V72.7413C2 78.5546 3.80378 80.2857 10.7672 80.2857Z" fill="#535559"/>
<path d="M22.5602 76.5669C22.5602 78.2553 22.5602 79.0889 22.5393 79.9865H24.6786C24.6576 79.0889 24.6576 78.2981 24.6576 76.5669V73.703C24.6576 70.1125 25.6434 69.3217 29.251 69.3217C32.9215 69.3217 33.3409 69.8346 33.3409 72.2497V72.6772L35.3545 72.6344C35.3754 72.3138 35.3754 71.9933 35.3754 71.7368C35.3754 68.189 34.4316 67.3341 29.7544 67.3341C27.1536 67.3341 25.4756 68.018 24.5318 69.4072L24.4899 67.5906H22.5393C22.5602 68.4241 22.5602 69.1935 22.5602 70.775V76.5669Z" fill="#535559"/>
<path d="M45.0684 80.243C51.1929 80.243 52.3465 79.0034 52.3465 76.0326L50.27 75.9471C50.27 77.5501 49.7037 78.3408 45.0894 78.3408C40.6219 78.3408 39.6152 77.5073 39.5103 74.622H52.3465C52.3465 74.2587 52.3674 73.8099 52.3465 73.4679C52.2835 68.7447 50.8992 67.3341 44.9216 67.3341C38.944 67.3341 37.35 68.7447 37.35 73.4679V74.1091C37.35 78.8324 38.944 80.243 45.0684 80.243ZM44.9216 69.1935C49.2213 69.1935 50.0393 70.0484 50.1232 72.784H39.5103C39.6571 69.9629 40.7058 69.1935 44.9216 69.1935Z" fill="#535559"/>
<path d="M61.5402 80.243C64.7912 80.243 66.6369 79.5804 67.5598 78.5332L67.5807 79.9865H69.4684C69.4474 78.2981 69.4474 77.2081 69.4474 75.9258C69.4474 74.1305 69.4684 73.3183 69.4684 71.6299C69.4684 68.7019 68.3987 67.3341 62.1904 67.3341C56.5483 67.3341 55.2689 68.5523 55.3109 71.1384L57.4293 71.2025C57.4083 69.7278 57.9117 69.2362 62.1904 69.2362C66.6159 69.2362 67.35 69.8988 67.35 72.036V73.5534C66.3642 72.7627 64.5605 72.2925 61.5402 72.2925C56.024 72.2925 54.8285 73.4679 54.8285 76.3105C54.8285 79.0889 55.9611 80.243 61.5402 80.243ZM62.1484 78.3836C57.8697 78.3836 56.9888 77.8493 56.9888 76.3105C56.9888 74.7289 57.5551 74.0664 62.1484 74.0664C66.6579 74.0664 67.392 74.7075 67.392 75.6693V76.3318C67.392 77.721 66.6579 78.3836 62.1484 78.3836Z" fill="#535559"/>
<path d="M73.8848 72.2925C73.8848 73.3397 73.8638 74.5579 73.8638 75.4983C73.8638 79.1744 74.9754 80.0934 79.9253 80.0934C80.8482 80.0934 81.6242 80.0506 82.2744 79.9865L82.2535 78.0416C81.4564 78.0844 80.974 78.1057 80.0302 78.1057C76.8212 78.1057 75.9822 77.7852 75.9822 75.1991V69.5354H82.2535V67.5906H75.9822C75.9822 66.5219 75.9822 65.667 76.0032 65.1541L73.8638 65.1969C73.8848 66.18 73.8848 66.8853 73.8848 67.5906C73.2136 67.5906 72.5424 67.6119 71.6825 67.5906V69.5354H73.8848V72.2925Z" fill="#535559"/>
<path d="M91.9735 80.243C98.0979 80.243 99.2515 79.0034 99.2515 76.0326L97.1751 75.9471C97.1751 77.5501 96.6088 78.3408 91.9945 78.3408C87.527 78.3408 86.5202 77.5073 86.4153 74.622H99.2515C99.2515 74.2587 99.2725 73.8099 99.2515 73.4679C99.1886 68.7447 97.8043 67.3341 91.8267 67.3341C85.8491 67.3341 84.255 68.7447 84.255 73.4679V74.1091C84.255 78.8324 85.849 80.243 91.9735 80.243ZM91.8267 69.1935C96.1264 69.1935 96.9444 70.0484 97.0283 72.784H86.4153C86.5622 69.9629 87.6109 69.1935 91.8267 69.1935Z" fill="#535559"/>
<path d="M117.843 80.3712C119.416 77.2081 122.709 70.4972 124.219 67.5906H121.954L119.353 72.7627C118.661 74.1305 117.969 75.5197 117.382 76.7379H116.207C115.473 75.4983 114.613 74.0877 113.774 72.6985L110.712 67.5906H108.321C110.146 70.5186 113.46 76.0967 114.991 78.7255H116.375L115.997 79.4094C115.242 80.7773 114.76 81.0551 113.522 81.0551C112.725 81.0551 112.075 81.0337 111.404 80.991L111.341 82.9145C112.117 82.9573 113.082 83 113.585 83C115.725 83 116.878 82.3161 117.843 80.3712Z" fill="#535559"/>
<path d="M132.732 80.243C138.794 80.243 140.388 78.8324 140.388 74.1091V73.4679C140.388 68.7447 138.794 67.3341 132.732 67.3341C126.671 67.3341 125.077 68.7447 125.077 73.4679V74.1091C125.077 78.8324 126.671 80.243 132.732 80.243ZM132.732 78.2553C128.118 78.2553 127.216 77.3577 127.216 73.8954V73.6817C127.216 70.2193 128.118 69.3217 132.732 69.3217C137.347 69.3217 138.249 70.2193 138.249 73.6817V73.8954C138.249 77.3577 137.347 78.2553 132.732 78.2553Z" fill="#535559"/>
<path d="M143.345 72.2925C143.345 73.5748 143.324 74.0877 143.324 74.964C143.324 78.7255 144.394 80.243 149.91 80.243C152.846 80.243 154.629 79.5591 155.615 78.1699L155.657 79.9865H157.607C157.586 79.153 157.586 78.3836 157.586 76.802V71.0101C157.586 69.3217 157.586 68.4882 157.607 67.5906H155.468C155.489 68.4882 155.489 69.279 155.489 71.0101V74.0023C155.489 77.2508 154.503 78.2553 150.476 78.2553C146.239 78.2553 145.442 77.1654 145.442 74.3228V70.9888C145.442 69.1721 145.442 68.5523 145.463 67.5906H143.324C143.345 68.595 143.345 69.4499 143.345 70.9888V72.2925Z" fill="#535559"/>
<path d="M161.412 76.5669C161.412 78.2553 161.412 79.0889 161.391 79.9865H163.53C163.509 79.0889 163.509 78.2981 163.509 76.5669V73.703C163.509 70.1125 164.495 69.3217 168.102 69.3217C171.773 69.3217 172.192 69.8346 172.192 72.2497V72.6772L174.206 72.6344C174.227 72.3138 174.227 71.9933 174.227 71.7368C174.227 68.189 173.283 67.3341 168.606 67.3341C166.005 67.3341 164.327 68.018 163.383 69.4072L163.341 67.5906H161.391C161.412 68.4241 161.412 69.1935 161.412 70.775V76.5669Z" fill="#535559"/>
<path d="M191.661 80.243C197.722 80.243 199.316 78.8324 199.316 74.1091V73.4679C199.316 68.7447 197.722 67.3341 191.661 67.3341C185.599 67.3341 184.005 68.7447 184.005 73.4679V74.1091C184.005 78.8324 185.599 80.243 191.661 80.243ZM191.661 78.2553C187.046 78.2553 186.144 77.3577 186.144 73.8954V73.6817C186.144 70.2193 187.046 69.3217 191.661 69.3217C196.275 69.3217 197.177 70.2193 197.177 73.6817V73.8954C197.177 77.3577 196.275 78.2553 191.661 78.2553Z" fill="#535559"/>
<path d="M210.437 73.8954C210.961 72.5062 211.507 71.117 211.989 69.856H212.597C213.038 71.1384 213.52 72.5703 213.982 73.9595L216.016 79.9865H219.414C220.547 76.9516 223.022 70.4972 224.259 67.5906H222.015L219.98 73.0191C219.372 74.6648 218.743 76.3746 218.198 77.8493H217.421C217.002 76.4814 216.478 74.8999 215.953 73.3397L214.024 67.5906H210.752L208.654 73.2542C208.088 74.793 207.48 76.4173 206.976 77.8493H206.158C205.676 76.3959 205.11 74.6862 204.585 73.1046L202.761 67.5906H200.37C201.46 70.4544 203.746 76.9516 204.753 79.9865H208.151L210.437 73.8954Z" fill="#535559"/>
<path d="M226.341 76.5669C226.341 78.2553 226.341 79.0889 226.32 79.9865H228.46C228.439 79.0889 228.439 78.2981 228.439 76.5669V73.5748C228.439 70.3262 229.424 69.3217 233.535 69.3217C237.793 69.3217 238.59 70.4117 238.59 73.2542V76.5883C238.59 78.4049 238.59 79.0247 238.569 79.9865H240.709C240.688 78.982 240.688 78.1271 240.688 76.5883V75.2846C240.688 74.0022 240.709 73.4893 240.709 72.613C240.709 68.8515 239.639 67.3341 234.102 67.3341C231.123 67.3341 229.299 68.018 228.313 69.4072L228.271 67.5906H226.32C226.341 68.4241 226.341 69.1935 226.341 70.775V76.5669Z" fill="#535559"/>
<path d="M258.564 80.243C264.668 80.243 265.444 79.2598 265.444 76.6952C265.444 74.1519 264.689 73.2115 258.397 72.6772C253.887 72.2925 253.573 71.9078 253.573 70.8391C253.573 69.7064 254.223 69.2576 258.166 69.2576C262.172 69.2576 262.801 69.7492 262.801 71.0529V71.3735L264.962 71.3093C264.962 68.3386 263.934 67.3341 258.25 67.3341C252.65 67.3341 251.559 68.3813 251.559 70.9888C251.559 73.5107 252.482 74.3228 258.061 74.793C262.927 75.1991 263.305 75.6052 263.305 76.802C263.305 77.9561 262.864 78.4477 258.648 78.4477C254.181 78.4477 253.531 77.9561 253.531 76.225V75.883L251.412 75.9471C251.412 79.5377 252.503 80.243 258.564 80.243Z" fill="#535559"/>
<path d="M269.022 72.2925C269.022 73.3397 269.001 74.5579 269.001 75.4983C269.001 79.1744 270.113 80.0934 275.063 80.0934C275.986 80.0934 276.762 80.0506 277.412 79.9865L277.391 78.0416C276.594 78.0844 276.111 78.1057 275.168 78.1057C271.959 78.1057 271.12 77.7852 271.12 75.1991V69.5354H277.391V67.5906H271.12C271.12 66.5219 271.12 65.667 271.141 65.1541L269.001 65.1969C269.022 66.18 269.022 66.8853 269.022 67.5906C268.351 67.5906 267.68 67.6119 266.82 67.5906V69.5354H269.022V72.2925Z" fill="#535559"/>
<path d="M280.168 72.2925C280.168 73.5748 280.147 74.0877 280.147 74.964C280.147 78.7255 281.217 80.243 286.733 80.243C289.67 80.243 291.453 79.5591 292.438 78.1699L292.48 79.9865H294.431C294.41 79.153 294.41 78.3836 294.41 76.802V71.0101C294.41 69.3217 294.41 68.4882 294.431 67.5906H292.291C292.312 68.4882 292.312 69.279 292.312 71.0101V74.0023C292.312 77.2508 291.327 78.2553 287.3 78.2553C283.063 78.2553 282.266 77.1654 282.266 74.3228V70.9888C282.266 69.1721 282.266 68.5523 282.287 67.5906H280.147C280.168 68.595 280.168 69.4499 280.168 70.9888V72.2925Z" fill="#535559"/>
<path d="M304.653 80.243C307.82 80.243 309.708 79.5377 310.715 78.1057L310.757 79.9865H312.707C312.686 78.9393 312.686 78.2126 312.686 76.5669V67.5906C312.686 66.009 312.686 64.919 312.707 64H310.526C310.547 64.8763 310.568 67.099 310.568 69.2576C309.519 67.9539 307.715 67.3341 304.779 67.3341C299.032 67.3341 297.417 68.7447 297.417 73.4679V74.1091C297.417 78.8324 299.032 80.243 304.653 80.243ZM305.073 78.2553C300.479 78.2553 299.556 77.3577 299.556 73.8954V73.6817C299.556 70.2193 300.479 69.3217 305.177 69.3217C309.645 69.3217 310.589 70.3048 310.589 73.703V73.874C310.589 77.2508 309.645 78.2553 305.073 78.2553Z" fill="#535559"/>
<path d="M316.526 64.342V66.3296H318.666V64.342H316.526ZM316.547 76.631C316.547 78.063 316.547 79.0461 316.526 79.9865H318.666C318.645 79.0461 318.645 78.063 318.645 76.6524V71.2025C318.645 69.6637 318.645 68.5096 318.666 67.5906H316.526C316.547 68.5096 316.547 69.6637 316.547 71.1811V76.631Z" fill="#535559"/>
<path d="M329.344 80.243C335.406 80.243 337 78.8324 337 74.1091V73.4679C337 68.7447 335.406 67.3341 329.344 67.3341C323.283 67.3341 321.689 68.7447 321.689 73.4679V74.1091C321.689 78.8324 323.283 80.243 329.344 80.243ZM329.344 78.2553C324.73 78.2553 323.828 77.3577 323.828 73.8954V73.6817C323.828 70.2193 324.73 69.3217 329.344 69.3217C333.959 69.3217 334.861 70.2193 334.861 73.6817V73.8954C334.861 77.3577 333.959 78.2553 329.344 78.2553Z" fill="#535559"/>
</svg>
