<svg width="217" height="217" viewBox="0 0 217 217" fill="none" xmlns="http://www.w3.org/2000/svg">
<g clip-path="url(#clip0_2233_36028)">
<path d="M6.04216 120.848C-0.77707 114.028 -0.777069 102.972 6.04216 96.153L96.175 6.02019C102.994 -0.799042 114.05 -0.799042 120.87 6.02019L211.002 96.153C217.822 102.972 217.822 114.028 211.002 120.848L120.87 210.98C114.05 217.8 102.994 217.8 96.175 210.98L6.04216 120.848Z" fill="#141517" stroke="url(#paint0_linear_2233_36028)" stroke-width="1.81055"/>
<path d="M56.6899 169.727C31.6378 141.548 12.0855 130.047 1.15909 110.704L78.6339 110.303L88.2379 120.367L97.5443 129.673L56.6899 169.727Z" fill="url(#paint1_linear_2233_36028)"/>
<path d="M160.639 47.9432C189.639 76.9439 201.697 86.9615 213.672 103.828L123.102 108.479L117.832 87.3178L160.639 47.9432Z" fill="url(#paint2_linear_2233_36028)"/>
<path d="M79.5343 111.691C77.5465 109.703 77.5465 106.48 79.5343 104.492L104.513 79.5133C106.501 77.5255 109.724 77.5255 111.712 79.5133L136.691 104.492C138.679 106.48 138.679 109.703 136.691 111.691L111.712 136.67C109.724 138.658 106.501 138.658 104.513 136.67L79.5343 111.691Z" fill="url(#paint3_linear_2233_36028)"/>
<path d="M75.8779 149.849H74.8422C74.8519 150.22 74.8519 150.65 74.8519 151.129V153.913C74.8519 155.516 74.3927 155.975 71.8913 155.975C69.3899 155.975 68.9307 155.516 68.9307 153.913V151.119C68.9307 150.65 68.9307 150.22 68.9405 149.849H67.9047C67.9145 150.181 67.9145 150.591 67.9145 151.109V151.891C67.9145 152.438 67.9047 153.112 67.9047 154.031C67.9047 156.131 68.6962 156.923 71.8913 156.923C75.0864 156.923 75.8779 156.131 75.8779 154.031C75.8779 153.112 75.8681 152.438 75.8681 151.891V151.138C75.8681 150.601 75.8681 150.181 75.8779 149.849ZM77.6474 156.786C77.6474 157.372 77.6474 157.861 77.6376 158.154H78.644C78.6342 157.753 78.6342 157.05 78.6342 156.024C79.1228 156.62 79.9631 156.903 81.331 156.903C84.0083 156.903 84.7607 156.258 84.7607 154.099V153.806C84.7607 151.647 84.0083 151.002 81.3897 151.002C79.9435 151.002 79.0642 151.314 78.5854 151.949V151.119H77.6376C77.6474 151.529 77.6474 151.881 77.6474 152.331V156.786ZM78.6245 153.992V153.913C78.6245 152.37 79.0642 151.91 81.1942 151.91C83.3341 151.91 83.764 152.321 83.764 153.904V154.001C83.764 155.584 83.3341 155.995 81.1454 155.995C79.0642 155.995 78.6245 155.545 78.6245 153.992ZM86.1784 155.252C86.1784 155.907 86.1784 156.356 86.1686 156.786H87.1652C87.1555 156.356 87.1555 155.907 87.1555 155.262V151.129C87.1555 150.425 87.1555 149.898 87.1652 149.477H86.1686C86.1784 149.898 86.1784 150.425 86.1784 151.119V155.252ZM92.14 156.903C94.9638 156.903 95.7064 156.258 95.7064 154.099V153.806C95.7064 151.647 94.9638 151.002 92.14 151.002C89.3162 151.002 88.5736 151.647 88.5736 153.806V154.099C88.5736 156.258 89.3162 156.903 92.14 156.903ZM92.14 155.995C89.9904 155.995 89.5702 155.584 89.5702 154.001V153.904C89.5702 152.321 89.9904 151.91 92.14 151.91C94.2896 151.91 94.7098 152.321 94.7098 153.904V154.001C94.7098 155.584 94.2896 155.995 92.14 155.995ZM99.986 156.903C101.5 156.903 102.36 156.6 102.79 156.122L102.8 156.786H103.679C103.67 156.014 103.67 155.516 103.67 154.93C103.67 154.109 103.679 153.738 103.679 152.966C103.679 151.627 103.181 151.002 100.289 151.002C97.6604 151.002 97.0644 151.559 97.084 152.741L98.0708 152.77C98.0611 152.096 98.2956 151.871 100.289 151.871C102.351 151.871 102.693 152.174 102.693 153.151V153.845C102.233 153.484 101.393 153.269 99.986 153.269C97.4162 153.269 96.8592 153.806 96.8592 155.106C96.8592 156.376 97.3869 156.903 99.986 156.903ZM100.269 156.053C98.276 156.053 97.8656 155.809 97.8656 155.106C97.8656 154.382 98.1295 154.08 100.269 154.08C102.37 154.08 102.712 154.373 102.712 154.812V155.115C102.712 155.75 102.37 156.053 100.269 156.053ZM108.414 156.903C109.889 156.903 110.769 156.581 111.238 155.926L111.257 156.786H112.166C112.156 156.307 112.156 155.975 112.156 155.223V151.119C112.156 150.396 112.156 149.898 112.166 149.477H111.15C111.16 149.878 111.169 150.894 111.169 151.881C110.681 151.285 109.841 151.002 108.473 151.002C105.795 151.002 105.043 151.647 105.043 153.806V154.099C105.043 156.258 105.795 156.903 108.414 156.903ZM108.609 155.995C106.47 155.995 106.04 155.584 106.04 154.001V153.904C106.04 152.321 106.47 151.91 108.658 151.91C110.74 151.91 111.179 152.36 111.179 153.913V153.992C111.179 155.535 110.74 155.995 108.609 155.995ZM118.665 155.193V154.392C119.701 154.392 121.372 154.392 122.32 154.392C124.616 154.392 125.212 153.689 125.212 152.116V152.077C125.212 150.503 124.616 149.849 122.32 149.849H117.639C117.649 150.22 117.649 150.611 117.649 151.138V155.193C117.649 155.907 117.649 156.317 117.639 156.786H118.675C118.665 156.307 118.665 155.917 118.665 155.193ZM122.32 150.767C123.795 150.767 124.157 151.09 124.157 152.096V152.116C124.157 153.122 123.795 153.464 122.32 153.464H118.665V150.767H122.32ZM126.493 155.242C126.493 155.956 126.493 156.307 126.483 156.786H127.48C127.47 156.298 127.47 155.877 127.47 155.223V153.855C127.47 152.37 127.929 151.91 129.844 151.91C131.828 151.91 132.199 152.409 132.199 153.708V155.242C132.199 155.936 132.199 156.288 132.189 156.786H133.186C133.176 156.229 133.176 155.77 133.176 155.262V154.637C133.176 154.05 133.186 153.816 133.186 153.415C133.186 151.695 132.688 151.002 130.108 151.002C128.75 151.002 127.91 151.305 127.441 151.91C127.46 151.246 127.49 149.644 127.49 149.477H126.483C126.493 149.898 126.493 150.415 126.493 151.119V155.242ZM138.123 156.903C140.947 156.903 141.689 156.258 141.689 154.099V153.806C141.689 151.647 140.947 151.002 138.123 151.002C135.299 151.002 134.556 151.647 134.556 153.806V154.099C134.556 156.258 135.299 156.903 138.123 156.903ZM138.123 155.995C135.973 155.995 135.553 155.584 135.553 154.001V153.904C135.553 152.321 135.973 151.91 138.123 151.91C140.273 151.91 140.693 152.321 140.693 153.904V154.001C140.693 155.584 140.273 155.995 138.123 155.995ZM143.399 153.269C143.399 153.747 143.389 154.304 143.389 154.734C143.389 156.415 143.907 156.835 146.213 156.835C146.643 156.835 147.005 156.815 147.307 156.786L147.298 155.897C146.926 155.917 146.702 155.926 146.262 155.926C144.767 155.926 144.376 155.78 144.376 154.597V152.008H147.298V151.119H144.376C144.376 150.63 144.376 150.24 144.386 150.005L143.389 150.025C143.399 150.474 143.399 150.797 143.399 151.119C143.086 151.119 142.774 151.129 142.373 151.119V152.008H143.399V153.269ZM151.797 156.903C154.62 156.903 155.363 156.258 155.363 154.099V153.806C155.363 151.647 154.62 151.002 151.797 151.002C148.973 151.002 148.23 151.647 148.23 153.806V154.099C148.23 156.258 148.973 156.903 151.797 156.903ZM151.797 155.995C149.647 155.995 149.227 155.584 149.227 154.001V153.904C149.227 152.321 149.647 151.91 151.797 151.91C153.946 151.91 154.366 152.321 154.366 153.904V154.001C154.366 155.584 153.946 155.995 151.797 155.995Z" fill="#9EA1AB"/>
<path d="M112.417 109.282C112.417 111.528 110.596 113.349 108.349 113.349C106.103 113.349 104.282 111.528 104.282 109.282C104.282 107.035 106.103 105.214 108.349 105.214C110.596 105.214 112.417 107.035 112.417 109.282Z" stroke="#9EA1AB" stroke-width="1.11573"/>
<path d="M108.62 107.868V110.859" stroke="#9EA1AB" stroke-width="1.11573" stroke-linecap="round"/>
<path d="M110.114 109.364L107.123 109.364" stroke="#9EA1AB" stroke-width="1.11573" stroke-linecap="round"/>
<path d="M105.407 100.725C105.583 100.532 105.832 100.423 106.093 100.423H110.61C110.871 100.423 111.12 100.532 111.296 100.725L112.189 101.701C112.576 102.124 113.124 102.365 113.698 102.365H116.122C116.882 102.365 117.507 102.99 117.507 103.75V115.406C117.507 116.166 116.882 116.79 116.122 116.79H100.581C99.8207 116.79 99.1963 116.166 99.1963 115.406V103.75C99.1963 102.99 99.8207 102.365 100.581 102.365H103.005C103.579 102.365 104.126 102.124 104.514 101.701L105.407 100.725Z" stroke="#9EA1AB" stroke-width="1.11573"/>
</g>
<defs>
<linearGradient id="paint0_linear_2233_36028" x1="108.522" y1="0.000488281" x2="108.522" y2="217" gradientUnits="userSpaceOnUse">
<stop offset="0.104167" stop-color="#E965FF"/>
<stop offset="0.489583" stop-color="#5200FF"/>
<stop offset="0.890625" stop-color="#43FF8E"/>
</linearGradient>
<linearGradient id="paint1_linear_2233_36028" x1="58.824" y1="167.593" x2="44.4015" y2="103.493" gradientUnits="userSpaceOnUse">
<stop stop-color="#1E2025"/>
<stop offset="1" stop-color="#1E2025" stop-opacity="0"/>
</linearGradient>
<linearGradient id="paint2_linear_2233_36028" x1="153.983" y1="51.1662" x2="168.285" y2="114.729" gradientUnits="userSpaceOnUse">
<stop stop-color="#2E3138"/>
<stop offset="1" stop-color="#1E2025" stop-opacity="0"/>
</linearGradient>
<linearGradient id="paint3_linear_2233_36028" x1="108.112" y1="87.76" x2="108.113" y2="138.161" gradientUnits="userSpaceOnUse">
<stop stop-color="#313338"/>
<stop offset="1" stop-color="#313338" stop-opacity="0"/>
</linearGradient>
<clipPath id="clip0_2233_36028">
<rect width="217" height="217" fill="white"/>
</clipPath>
</defs>
</svg>
