<svg width="352" height="70" viewBox="0 0 352 70" fill="none" xmlns="http://www.w3.org/2000/svg">
<rect width="352" height="70" rx="35" fill="#5200FF"/>
<path d="M94.0832 46.4196C104.433 46.4196 106.803 44.3496 107.913 37.9596L104.013 37.8696C103.293 41.5896 101.973 42.7896 94.3532 42.7896C86.7932 42.7896 85.7132 41.3196 86.7332 35.4996L86.7632 35.1996C87.7832 29.5296 89.4032 27.9096 96.9632 27.9096C104.613 27.9096 105.543 29.0796 104.883 32.8296L108.813 32.7396C109.923 26.4696 107.523 24.2796 97.1432 24.2796C86.9132 24.2796 84.2132 26.7396 82.7732 34.8696L82.5932 35.8296C81.1232 43.7196 83.6732 46.4196 94.0832 46.4196Z" fill="white"/>
<path d="M120.932 46.3596C129.872 46.3596 132.122 44.3796 133.292 37.7196L133.442 36.8196C134.612 30.1596 132.302 28.1796 123.392 28.1796C114.452 28.1796 112.202 30.1596 111.032 36.8196L110.882 37.7196C109.712 44.3796 112.022 46.3596 120.932 46.3596ZM121.142 42.8796C115.022 42.8796 114.122 41.7396 114.872 37.3896L114.902 37.1496C115.682 32.7696 117.002 31.6596 123.152 31.6596C129.272 31.6596 130.232 32.7696 129.422 37.1496L129.392 37.3896C128.642 41.7396 127.292 42.8796 121.142 42.8796Z" fill="white"/>
<path d="M136.527 41.1996C136.137 43.4496 135.927 44.6796 135.657 45.9996H139.617C139.797 44.6796 140.007 43.5096 140.427 41.1996L141.117 37.2396C141.897 32.9496 143.337 31.7196 147.687 31.7196C151.557 31.7196 152.427 32.6496 151.887 35.7396L150.927 41.2896C150.507 43.5396 150.357 44.4996 150.057 45.9996H153.987C154.287 44.1696 154.557 42.8196 154.797 41.1996L155.517 37.2396C156.267 32.9496 157.797 31.7196 162.087 31.7196C165.957 31.7196 166.857 32.6496 166.317 35.7396L165.327 41.2596C164.937 43.5396 164.787 44.4996 164.457 45.9996H168.417C168.717 44.1996 168.957 42.8496 169.227 41.2596L169.497 39.6396C169.977 36.9396 170.277 35.4996 170.487 34.1496C171.267 29.8596 169.677 28.1796 163.797 28.1796C159.987 28.1796 157.677 29.2296 156.237 31.3296C155.787 29.0796 153.777 28.1796 149.517 28.1796C145.797 28.1796 143.517 29.1396 142.017 31.0896L142.407 28.5396H138.747C138.567 29.7096 138.357 30.8496 137.997 32.9196L136.527 41.1996Z" fill="white"/>
<path d="M173.245 45.9996C172.915 47.7996 172.645 49.2996 172.465 50.1996H176.455C176.635 48.9396 177.055 46.5096 177.625 43.4196C178.735 45.3696 181.225 46.3596 185.545 46.3596C193.645 46.3596 195.865 44.4396 197.065 37.7196L197.215 36.8196C198.355 30.1596 196.165 28.1796 188.215 28.1796C183.925 28.1796 181.285 29.1696 179.605 31.1196L180.055 28.5396H176.305C176.095 29.7996 175.885 30.9096 175.645 32.3496L173.245 45.9996ZM178.645 37.3896L178.705 37.1496C179.425 32.9496 180.865 31.7196 186.895 31.7196C192.955 31.7196 193.975 32.7996 193.225 37.1496L193.165 37.3896C192.385 41.7096 191.005 42.8196 184.795 42.8196C178.915 42.8196 177.895 41.6196 178.645 37.3896Z" fill="white"/>
<path d="M200.426 40.9596C200.036 43.1496 199.796 44.6196 199.496 45.9996H203.456C203.666 44.6196 203.936 43.1496 204.296 40.9896L206.486 28.5696C206.876 26.4396 207.146 24.8196 207.416 23.5596H203.456C203.246 24.8496 202.976 26.4396 202.616 28.5396L200.426 40.9596Z" fill="white"/>
<path d="M218.962 46.3596C227.962 46.3596 229.612 44.6196 230.392 40.2096L226.552 40.0896C226.192 42.1296 225.292 43.0896 219.142 43.0896C213.352 43.0896 212.212 42.0696 212.662 38.4096H230.692C230.782 37.9596 230.902 37.4196 230.992 36.8196C232.012 30.3696 229.972 28.1796 221.242 28.1796C212.482 28.1796 210.142 30.1596 208.972 36.8196L208.822 37.7196C207.682 44.1696 210.052 46.3596 218.962 46.3596ZM221.062 31.1796C226.732 31.1796 227.632 32.2296 227.152 35.6196H213.172C214.012 32.1096 215.542 31.1796 221.062 31.1796Z" fill="white"/>
<path d="M236.276 34.8996C235.976 36.6396 235.646 38.3796 235.406 39.7596C234.506 44.8896 236.306 46.1496 243.596 46.1496C244.826 46.1496 245.756 46.0896 246.896 45.9996L247.436 42.6096C246.266 42.6996 245.576 42.7296 244.286 42.7296C239.816 42.7296 238.856 42.2796 239.456 38.8296L240.686 31.9296H249.326L249.926 28.5396H241.286C241.556 27.0696 241.766 25.9296 241.916 25.1196L237.956 25.1796C237.746 26.5296 237.596 27.5196 237.386 28.5396C236.426 28.5396 235.346 28.5396 234.236 28.5396L233.636 31.9296H236.816L236.276 34.8996Z" fill="white"/>
<path d="M261.003 46.3596C270.003 46.3596 271.653 44.6196 272.433 40.2096L268.593 40.0896C268.233 42.1296 267.333 43.0896 261.183 43.0896C255.393 43.0896 254.253 42.0696 254.703 38.4096H272.733C272.823 37.9596 272.943 37.4196 273.033 36.8196C274.053 30.3696 272.013 28.1796 263.283 28.1796C254.523 28.1796 252.183 30.1596 251.013 36.8196L250.863 37.7196C249.723 44.1696 252.093 46.3596 261.003 46.3596ZM263.103 31.1796C268.773 31.1796 269.673 32.2296 269.193 35.6196H255.213C256.053 32.1096 257.583 31.1796 263.103 31.1796Z" fill="white"/>
</svg>
