<svg width="217" height="217" viewBox="0 0 217 217" fill="none" xmlns="http://www.w3.org/2000/svg">
<g clip-path="url(#clip0_169_7704)">
<circle cx="107.5" cy="107.5" r="107.5" fill="#0D0E11"/>
<path d="M33.9489 182.855C6.35956 155.266 2.1039 125.226 1.34803 108.597L79.1056 108.219L79.1898 109.566C79.6232 116.501 82.5239 123.052 87.3673 128.035L88.3707 129.067L33.9489 182.855Z" fill="url(#paint0_linear_169_7704)"/>
<path d="M184.831 32.6198C213.396 61.1853 213.851 91.9679 214.633 109.185L138.695 110.072L138.607 107.987C138.325 101.271 135.809 94.8409 131.458 89.7172L129.717 87.6661L184.831 32.6198Z" fill="url(#paint1_linear_169_7704)"/>
<circle cx="108.5" cy="108.5" r="107.602" stroke="url(#paint2_linear_169_7704)" stroke-width="1.79636"/>
<circle cx="109.038" cy="107.312" r="29.9992" fill="url(#paint3_linear_169_7704)"/>
<path d="M67.39 148.471H66.1702C66.1817 148.941 66.1817 149.486 66.1817 150.093V153.624C66.1817 155.655 65.6409 156.238 62.695 156.238C59.7491 156.238 59.2083 155.655 59.2083 153.624V150.081C59.2083 149.486 59.2083 148.941 59.2198 148.471H58C58.0115 148.892 58.0115 149.412 58.0115 150.069V151.06C58.0115 151.753 58 152.608 58 153.773C58 156.436 58.9321 157.439 62.695 157.439C66.4579 157.439 67.39 156.436 67.39 153.773C67.39 152.608 67.3785 151.753 67.3785 151.06V150.106C67.3785 149.425 67.3785 148.892 67.39 148.471Z" fill="#9EA1AB"/>
<path d="M69.4739 157.266C69.4739 158.009 69.4739 158.628 69.4624 159H70.6477C70.6362 158.492 70.6362 157.6 70.6362 156.3C71.2115 157.055 72.2012 157.414 73.8122 157.414C76.9652 157.414 77.8513 156.597 77.8513 153.859V153.488C77.8513 150.75 76.9652 149.932 73.8812 149.932C72.1782 149.932 71.1425 150.329 70.5786 151.134V150.081H69.4624C69.4739 150.601 69.4739 151.047 69.4739 151.617V157.266ZM70.6247 153.723V153.624C70.6247 151.667 71.1425 151.084 73.6511 151.084C76.1712 151.084 76.6775 151.605 76.6775 153.611V153.735C76.6775 155.742 76.1712 156.262 73.5936 156.262C71.1425 156.262 70.6247 155.693 70.6247 153.723Z" fill="#9EA1AB"/>
<path d="M79.5209 155.321C79.5209 156.151 79.5209 156.721 79.5094 157.266H80.6832C80.6717 156.721 80.6717 156.151 80.6717 155.333V150.093C80.6717 149.202 80.6717 148.533 80.6832 148H79.5094C79.5209 148.533 79.5209 149.202 79.5209 150.081V155.321Z" fill="#9EA1AB"/>
<path d="M86.542 157.414C89.8676 157.414 90.7421 156.597 90.7421 153.859V153.488C90.7421 150.75 89.8676 149.932 86.542 149.932C83.2163 149.932 82.3418 150.75 82.3418 153.488V153.859C82.3418 156.597 83.2163 157.414 86.542 157.414ZM86.542 156.262C84.0103 156.262 83.5155 155.742 83.5155 153.735V153.611C83.5155 151.605 84.0103 151.084 86.542 151.084C89.0736 151.084 89.5684 151.605 89.5684 153.611V153.735C89.5684 155.742 89.0736 156.262 86.542 156.262Z" fill="#9EA1AB"/>
<path d="M95.7822 157.414C97.5658 157.414 98.5785 157.03 99.0848 156.423L99.0963 157.266H100.132C100.12 156.287 100.12 155.655 100.12 154.912C100.12 153.872 100.132 153.401 100.132 152.422C100.132 150.725 99.5451 149.932 96.1389 149.932C93.0434 149.932 92.3415 150.639 92.3645 152.137L93.5267 152.175C93.5152 151.32 93.7914 151.035 96.1389 151.035C98.567 151.035 98.9697 151.419 98.9697 152.658V153.537C98.4289 153.079 97.4392 152.806 95.7822 152.806C92.7557 152.806 92.0998 153.488 92.0998 155.135C92.0998 156.745 92.7212 157.414 95.7822 157.414ZM96.1159 156.337C93.7684 156.337 93.2851 156.027 93.2851 155.135C93.2851 154.218 93.5958 153.834 96.1159 153.834C98.59 153.834 98.9927 154.206 98.9927 154.764V155.148C98.9927 155.953 98.59 156.337 96.1159 156.337Z" fill="#9EA1AB"/>
<path d="M105.708 157.414C107.446 157.414 108.481 157.006 109.034 156.176L109.057 157.266H110.127C110.115 156.659 110.115 156.238 110.115 155.284V150.081C110.115 149.164 110.115 148.533 110.127 148H108.93C108.942 148.508 108.953 149.796 108.953 151.047C108.378 150.292 107.388 149.932 105.777 149.932C102.624 149.932 101.738 150.75 101.738 153.488V153.859C101.738 156.597 102.624 157.414 105.708 157.414ZM105.938 156.262C103.418 156.262 102.912 155.742 102.912 153.735V153.611C102.912 151.605 103.418 151.084 105.996 151.084C108.447 151.084 108.965 151.654 108.965 153.624V153.723C108.965 155.68 108.447 156.262 105.938 156.262Z" fill="#9EA1AB"/>
<path d="M117.781 155.247V154.231C119.001 154.231 120.969 154.231 122.085 154.231C124.789 154.231 125.491 153.339 125.491 151.345V151.295C125.491 149.301 124.789 148.471 122.085 148.471H116.573C116.584 148.941 116.584 149.437 116.584 150.106V155.247C116.584 156.151 116.584 156.671 116.573 157.266H117.793C117.781 156.659 117.781 156.163 117.781 155.247ZM122.085 149.635C123.822 149.635 124.248 150.044 124.248 151.32V151.345C124.248 152.62 123.822 153.054 122.085 153.054H117.781V149.635H122.085Z" fill="#9EA1AB"/>
<path d="M127 155.309C127 156.213 127 156.659 126.988 157.266H128.162C128.15 156.646 128.15 156.114 128.15 155.284V153.55C128.15 151.667 128.691 151.084 130.947 151.084C133.283 151.084 133.72 151.716 133.72 153.364V155.309C133.72 156.188 133.72 156.634 133.708 157.266H134.882C134.871 156.56 134.871 155.977 134.871 155.333V154.541C134.871 153.797 134.882 153.5 134.882 152.992C134.882 150.812 134.295 149.932 131.257 149.932C129.658 149.932 128.668 150.316 128.116 151.084C128.139 150.242 128.173 148.211 128.173 148H126.988C127 148.533 127 149.189 127 150.081V155.309Z" fill="#9EA1AB"/>
<path d="M140.696 157.414C144.022 157.414 144.896 156.597 144.896 153.859V153.488C144.896 150.75 144.022 149.932 140.696 149.932C137.371 149.932 136.496 150.75 136.496 153.488V153.859C136.496 156.597 137.371 157.414 140.696 157.414ZM140.696 156.262C138.165 156.262 137.67 155.742 137.67 153.735V153.611C137.67 151.605 138.165 151.084 140.696 151.084C143.228 151.084 143.723 151.605 143.723 153.611V153.735C143.723 155.742 143.228 156.262 140.696 156.262Z" fill="#9EA1AB"/>
<path d="M146.91 152.806C146.91 153.413 146.899 154.119 146.899 154.664C146.899 156.795 147.508 157.328 150.224 157.328C150.73 157.328 151.156 157.303 151.513 157.266L151.501 156.139C151.064 156.163 150.8 156.176 150.282 156.176C148.521 156.176 148.061 155.99 148.061 154.491V151.208H151.501V150.081H148.061C148.061 149.462 148.061 148.966 148.072 148.669L146.899 148.694C146.91 149.264 146.91 149.672 146.91 150.081C146.542 150.081 146.174 150.093 145.702 150.081V151.208H146.91V152.806Z" fill="#9EA1AB"/>
<path d="M156.8 157.414C160.125 157.414 161 156.597 161 153.859V153.488C161 150.75 160.125 149.932 156.8 149.932C153.474 149.932 152.6 150.75 152.6 153.488V153.859C152.6 156.597 153.474 157.414 156.8 157.414ZM156.8 156.262C154.268 156.262 153.773 155.742 153.773 153.735V153.611C153.773 151.605 154.268 151.084 156.8 151.084C159.331 151.084 159.826 151.605 159.826 153.611V153.735C159.826 155.742 159.331 156.262 156.8 156.262Z" fill="#9EA1AB"/>
<path d="M112.314 107.559C112.314 109.792 110.503 111.603 108.27 111.603C106.036 111.603 104.226 109.792 104.226 107.559C104.226 105.325 106.036 103.515 108.27 103.515C110.503 103.515 112.314 105.325 112.314 107.559Z" stroke="#9EA1AB" stroke-width="1.09181"/>
<path d="M108.336 105.961V108.888" stroke="#9EA1AB" stroke-width="1.09181" stroke-linecap="round"/>
<path d="M109.805 107.43L106.878 107.43" stroke="#9EA1AB" stroke-width="1.09181" stroke-linecap="round"/>
<path d="M105.353 99.0525C105.526 98.8641 105.769 98.7568 106.025 98.7568H110.525C110.78 98.7568 111.024 98.8641 111.196 99.0525L112.094 100.034C112.474 100.448 113.009 100.684 113.571 100.684H115.985C116.744 100.684 117.367 101.307 117.367 102.066V113.632C117.367 114.39 116.744 115.014 115.985 115.014H100.564C99.8056 115.014 99.1826 114.39 99.1826 113.632V102.066C99.1826 101.307 99.8056 100.684 100.564 100.684H102.978C103.54 100.684 104.076 100.448 104.455 100.034L105.353 99.0525Z" stroke="#9EA1AB" stroke-width="1.09181"/>
</g>
<defs>
<linearGradient id="paint0_linear_169_7704" x1="54.5399" y1="162.264" x2="40.9342" y2="101.794" gradientUnits="userSpaceOnUse">
<stop stop-color="#1E2025"/>
<stop offset="1" stop-color="#1E2025" stop-opacity="0"/>
</linearGradient>
<linearGradient id="paint1_linear_169_7704" x1="163.763" y1="53.6197" x2="177.85" y2="116.229" gradientUnits="userSpaceOnUse">
<stop stop-color="#2E3138"/>
<stop offset="1" stop-color="#1E2025" stop-opacity="0"/>
</linearGradient>
<linearGradient id="paint2_linear_169_7704" x1="108.5" y1="0" x2="108.5" y2="217" gradientUnits="userSpaceOnUse">
<stop stop-color="#43FF8E"/>
<stop offset="0.489583" stop-color="#5200FF"/>
<stop offset="1" stop-color="#E965FF"/>
</linearGradient>
<linearGradient id="paint3_linear_169_7704" x1="109.038" y1="87.6767" x2="109.038" y2="137.311" gradientUnits="userSpaceOnUse">
<stop stop-color="#313338"/>
<stop offset="1" stop-color="#313338" stop-opacity="0"/>
</linearGradient>
<clipPath id="clip0_169_7704">
<rect width="217" height="217" fill="white"/>
</clipPath>
</defs>
</svg>
