<svg width="483" height="21" viewBox="0 0 483 21" fill="none" xmlns="http://www.w3.org/2000/svg">
<path d="M13.0502 9.69594C13.6882 7.69394 14.3262 5.64795 14.8762 3.90995H15.5582C16.0862 5.64795 16.7022 7.71594 17.2962 9.69594L19.4742 16.9999H24.0942C25.2162 13.7879 28.6482 4.37195 29.8142 1.37994H26.7122L24.1822 8.90394C23.5662 10.8399 22.9282 12.7539 22.4222 14.2719H21.4102C20.9702 12.7319 20.3982 10.8179 19.8262 8.88195L17.5602 1.37994H12.9842L10.6522 8.85995C10.0582 10.7959 9.4642 12.7319 9.0022 14.2719H8.0562C7.5722 12.7759 6.9562 10.8839 6.3402 8.99195L3.8322 1.37994H0.554199C1.7202 4.37195 5.0642 13.7879 6.1202 16.9999H10.7402L13.0502 9.69594Z" fill="white"/>
<path d="M31.8935 13.3039C31.8935 14.9979 31.8935 15.8999 31.8715 16.9999H34.7535C34.7315 15.8119 34.7315 14.8659 34.7315 13.2599V10.5759C34.7315 7.42995 35.6555 6.52795 39.6595 6.52795C43.8175 6.52795 44.5655 7.49595 44.5655 10.2679V13.5239C44.5655 15.0859 44.5655 15.8559 44.5435 16.9999H47.4255C47.4035 15.7459 47.4035 14.7119 47.4035 13.5679V12.1599C47.4035 10.6859 47.4255 10.0919 47.4255 9.12395C47.4255 5.44994 46.3475 3.93194 40.7375 3.93194C37.5475 3.93194 35.6775 4.65794 34.6655 6.10995C34.7095 4.61395 34.7755 0.939945 34.7755 0.543945H31.8715C31.8935 1.48994 31.8935 2.63394 31.8935 4.19594V13.3039Z" fill="white"/>
<path d="M57.3292 17.2639C60.8712 17.2639 62.7192 16.5819 63.5992 15.4159L63.6432 16.9999H66.2392C66.2171 15.2619 66.2172 14.1399 66.2172 12.8199C66.2172 10.7959 66.2392 10.0479 66.2392 8.30995C66.2392 5.31795 65.0512 3.93194 58.4292 3.93194C52.3792 3.93194 50.9272 5.09795 50.9712 8.00195L53.7212 8.06795C53.6992 6.70395 54.1612 6.26394 58.3852 6.26394C62.7192 6.26394 63.3792 6.87995 63.3792 8.90394V10.3779C62.4112 9.51995 60.5852 9.07995 57.3292 9.07995C51.6311 9.07995 50.4212 10.2899 50.4212 13.2159C50.4212 16.0979 51.5872 17.2639 57.3292 17.2639ZM58.3412 15.0419C54.0952 15.0419 53.3032 14.5579 53.3032 13.1499C53.3032 11.7199 53.8312 11.1259 58.3852 11.1259C62.7632 11.1259 63.4452 11.6979 63.4452 12.6219V13.1719C63.4452 14.4479 62.7632 15.0419 58.3412 15.0419Z" fill="white"/>
<path d="M70.6484 8.85995C70.6484 10.1359 70.6264 11.4119 70.6264 12.4239C70.6264 16.1859 71.8804 17.1099 77.2924 17.1099C78.1944 17.1099 79.0524 17.0659 79.8664 16.9999L79.8444 14.5139C78.9644 14.5799 78.5024 14.6019 77.5344 14.6019C74.2564 14.6019 73.5084 14.2719 73.5084 11.7419V6.68195H79.8444V4.19594H73.5084C73.5084 3.09594 73.5084 2.25995 73.5304 1.68794L70.6264 1.73195C70.6484 2.72194 70.6484 3.42594 70.6484 4.19594C69.9444 4.19594 69.1524 4.19594 68.3384 4.19594V6.68195H70.6484V8.85995Z" fill="white"/>
<path d="M97.4697 17.2639C100.792 17.2639 102.684 16.4939 103.696 14.9979L103.718 16.9999H106.424C106.402 15.9219 106.402 15.1739 106.402 13.4799V4.19594C106.402 2.61194 106.402 1.46795 106.424 0.543945H103.476C103.498 1.44595 103.52 3.73394 103.52 5.97794C102.486 4.61395 100.638 3.93194 97.5357 3.93194C91.6177 3.93194 90.0117 5.33995 90.0117 10.2679V10.9279C90.0117 15.8559 91.6177 17.2639 97.4697 17.2639ZM98.2617 14.6679C93.7737 14.6679 92.8937 13.8759 92.8937 10.6859V10.5099C92.8937 7.27595 93.7737 6.48394 98.3277 6.48394C102.662 6.48394 103.542 7.36395 103.542 10.5099V10.6859C103.542 13.7659 102.662 14.6679 98.2617 14.6679Z" fill="white"/>
<path d="M117.446 17.2639C124.002 17.2639 125.674 15.8119 125.674 10.9279V10.2679C125.674 5.38395 124.002 3.93194 117.446 3.93194C110.912 3.93194 109.24 5.38395 109.24 10.2679V10.9279C109.24 15.8119 110.912 17.2639 117.446 17.2639ZM117.446 14.7119C112.958 14.7119 112.122 13.8759 112.122 10.6859V10.5099C112.122 7.29795 112.958 6.48394 117.446 6.48394C121.956 6.48394 122.77 7.29795 122.77 10.5099V10.6859C122.77 13.8759 121.956 14.7119 117.446 14.7119Z" fill="white"/>
<path d="M145.843 17.1319C147.471 13.9199 150.859 7.18794 152.443 4.19594H149.363L146.723 9.36595C146.107 10.5979 145.491 11.8519 144.941 12.9959H143.731C143.049 11.8299 142.257 10.5759 141.509 9.32195L138.385 4.19594H135.151C137.065 7.20994 140.321 12.5999 141.971 15.4159H143.687L143.357 16.0099C142.631 17.3739 142.125 17.6599 140.783 17.6599C139.947 17.6599 139.177 17.6379 138.275 17.5939L138.231 20.0139C139.133 20.1019 140.233 20.1459 140.871 20.1459C143.533 20.1459 144.677 19.4199 145.843 17.1319Z" fill="white"/>
<path d="M161.274 17.2639C167.83 17.2639 169.502 15.8119 169.502 10.9279V10.2679C169.502 5.38395 167.83 3.93194 161.274 3.93194C154.74 3.93194 153.068 5.38395 153.068 10.2679V10.9279C153.068 15.8119 154.74 17.2639 161.274 17.2639ZM161.274 14.7119C156.786 14.7119 155.95 13.8759 155.95 10.6859V10.5099C155.95 7.29795 156.786 6.48394 161.274 6.48394C165.784 6.48394 166.598 7.29795 166.598 10.5099V10.6859C166.598 13.8759 165.784 14.7119 161.274 14.7119Z" fill="white"/>
<path d="M172.27 9.03594C172.27 10.4879 172.248 11.0819 172.248 12.0719C172.248 15.7459 173.326 17.2639 178.892 17.2639C182.104 17.2639 183.974 16.4939 184.964 14.9979L185.008 16.9999H187.692C187.67 16.1199 187.67 15.3059 187.67 13.7879V7.71595C187.67 6.04395 187.67 5.16394 187.692 4.19594H184.81C184.832 5.16394 184.832 6.02195 184.832 7.71595V10.6199C184.832 13.7439 183.908 14.6679 179.97 14.6679C175.856 14.6679 175.108 13.6999 175.108 10.9059V7.67194C175.108 5.88995 175.108 5.22994 175.13 4.19594H172.248C172.27 5.27394 172.27 6.19794 172.27 7.67194V9.03594Z" fill="white"/>
<path d="M199.6 13.4799C199.6 15.1299 199.6 16.0319 199.578 16.9999H202.482C202.46 16.0319 202.46 15.1739 202.46 13.4799V10.5759C202.46 7.42995 203.362 6.52795 206.552 6.52795C209.39 6.52795 210.16 7.20995 210.16 9.47595V13.5459C210.16 15.1959 210.16 15.8999 210.138 16.9999H213.02C212.998 15.6579 212.998 14.6679 212.998 13.4799V10.5759C212.998 7.42995 213.966 6.52795 217.112 6.52795C219.95 6.52795 220.72 7.20995 220.72 9.47595V13.5239C220.72 15.1959 220.72 15.8999 220.698 16.9999H223.602C223.58 15.6799 223.58 14.6899 223.58 13.5239V12.3359C223.58 10.3559 223.602 9.29994 223.602 8.30995C223.602 5.16394 222.524 3.93194 218.212 3.93194C215.374 3.93194 213.724 4.72394 212.844 6.28594C212.316 4.61395 210.908 3.93194 207.74 3.93194C204.924 3.93194 203.23 4.67995 202.306 6.24195L202.284 4.19594H199.578C199.6 5.05394 199.6 5.88995 199.6 7.40795V13.4799Z" fill="white"/>
<path d="M233.501 17.2639C237.043 17.2639 238.891 16.5819 239.771 15.4159L239.815 16.9999H242.411C242.389 15.2619 242.389 14.1399 242.389 12.8199C242.389 10.7959 242.411 10.0479 242.411 8.30995C242.411 5.31795 241.223 3.93194 234.601 3.93194C228.551 3.93194 227.099 5.09795 227.143 8.00195L229.893 8.06795C229.871 6.70395 230.333 6.26394 234.557 6.26394C238.891 6.26394 239.551 6.87995 239.551 8.90394V10.3779C238.583 9.51995 236.757 9.07995 233.501 9.07995C227.803 9.07995 226.593 10.2899 226.593 13.2159C226.593 16.0979 227.759 17.2639 233.501 17.2639ZM234.513 15.0419C230.267 15.0419 229.475 14.5579 229.475 13.1499C229.475 11.7199 230.003 11.1259 234.557 11.1259C238.935 11.1259 239.617 11.6979 239.617 12.6219V13.1719C239.617 14.4479 238.935 15.0419 234.513 15.0419Z" fill="white"/>
<path d="M246.028 0.697945V2.89794H248.932V0.697945H246.028ZM246.05 13.3039C246.05 14.9099 246.05 15.9879 246.028 16.9999H248.932C248.91 15.9879 248.91 14.9099 248.91 13.3259V7.84795C248.91 6.28594 248.91 5.11994 248.932 4.19594H246.028C246.05 5.11994 246.05 6.30794 246.05 7.84795V13.3039Z" fill="white"/>
<path d="M252.559 13.4799C252.559 15.1299 252.559 16.0319 252.537 16.9999H255.441C255.419 16.0319 255.419 15.1739 255.419 13.4799V10.5759C255.419 7.42995 256.343 6.52795 260.347 6.52795C264.483 6.52795 265.231 7.49595 265.231 10.2679V13.5239C265.231 15.3059 265.231 15.9659 265.209 16.9999H268.113C268.091 15.9219 268.091 14.9979 268.091 13.5239V12.1599C268.091 10.6859 268.113 10.0919 268.113 9.12395C268.113 5.44994 267.035 3.93194 261.425 3.93194C258.147 3.93194 256.277 4.70194 255.265 6.19794L255.243 4.19594H252.537C252.559 5.05394 252.559 5.88995 252.559 7.40795V13.4799Z" fill="white"/>
<path d="M271.703 13.3039C271.703 14.9099 271.703 15.9879 271.681 16.9999H274.585C274.563 15.9879 274.563 14.9099 274.563 13.3259V4.21795C274.563 2.65595 274.563 1.46795 274.585 0.543945H271.681C271.703 1.48994 271.703 2.65594 271.703 4.19594V13.3039Z" fill="white"/>
<path d="M287.231 17.1319C288.859 13.9199 292.247 7.18794 293.831 4.19594H290.751L288.111 9.36595C287.495 10.5979 286.879 11.8519 286.329 12.9959H285.119C284.437 11.8299 283.645 10.5759 282.897 9.32195L279.773 4.19594H276.539C278.453 7.20994 281.709 12.5999 283.359 15.4159H285.075L284.745 16.0099C284.019 17.3739 283.513 17.6599 282.171 17.6599C281.335 17.6599 280.565 17.6379 279.663 17.5939L279.619 20.0139C280.521 20.1019 281.621 20.1459 282.259 20.1459C284.921 20.1459 286.065 19.4199 287.231 17.1319Z" fill="white"/>
<path d="M313.693 11.1259C314.177 9.78395 314.683 8.41995 315.167 7.16595H315.871C316.289 8.44195 316.751 9.84995 317.169 11.1699L319.127 16.9999H323.593C324.759 13.8759 327.333 7.18794 328.587 4.19594H325.529L323.571 9.71795C323.021 11.2579 322.471 12.8419 321.965 14.2719H321.041C320.601 12.9519 320.117 11.4559 319.633 10.0039L317.653 4.19594H313.495L311.427 9.95994C310.899 11.4119 310.349 12.9079 309.887 14.2719H308.919C308.479 12.8859 307.973 11.3239 307.489 9.82795L305.619 4.19594H302.407C303.551 7.14394 305.949 13.8759 307.005 16.9999H311.471L313.693 11.1259Z" fill="white"/>
<path d="M336.647 17.2639C340.189 17.2639 342.038 16.5819 342.918 15.4159L342.962 16.9999H345.557C345.535 15.2619 345.535 14.1399 345.535 12.8199C345.535 10.7959 345.557 10.0479 345.557 8.30995C345.557 5.31795 344.37 3.93194 337.747 3.93194C331.698 3.93194 330.245 5.09795 330.289 8.00195L333.039 8.06795C333.017 6.70395 333.479 6.26394 337.703 6.26394C342.038 6.26394 342.698 6.87995 342.698 8.90394V10.3779C341.73 9.51995 339.904 9.07995 336.647 9.07995C330.949 9.07995 329.74 10.2899 329.74 13.2159C329.74 16.0979 330.905 17.2639 336.647 17.2639ZM337.66 15.0419C333.414 15.0419 332.621 14.5579 332.621 13.1499C332.621 11.7199 333.15 11.1259 337.703 11.1259C342.081 11.1259 342.764 11.6979 342.764 12.6219V13.1719C342.764 14.4479 342.082 15.0419 337.66 15.0419Z" fill="white"/>
<path d="M349.153 13.4799C349.153 15.1299 349.153 16.0319 349.131 16.9999H352.035C352.013 16.0319 352.013 15.1739 352.013 13.4799V10.5759C352.013 7.42995 352.937 6.52795 356.941 6.52795C361.077 6.52795 361.825 7.49595 361.825 10.2679V13.5239C361.825 15.3059 361.825 15.9659 361.803 16.9999H364.707C364.685 15.9219 364.685 14.9979 364.685 13.5239V12.1599C364.685 10.6859 364.707 10.0919 364.707 9.12395C364.707 5.44994 363.629 3.93194 358.019 3.93194C354.741 3.93194 352.871 4.70194 351.859 6.19794L351.837 4.19594H349.131C349.153 5.05394 349.153 5.88995 349.153 7.40795V13.4799Z" fill="white"/>
<path d="M369.066 8.85995C369.066 10.1359 369.044 11.4119 369.044 12.4239C369.044 16.1859 370.298 17.1099 375.71 17.1099C376.612 17.1099 377.47 17.0659 378.284 16.9999L378.262 14.5139C377.382 14.5799 376.92 14.6019 375.952 14.6019C372.674 14.6019 371.926 14.2719 371.926 11.7419V6.68195H378.262V4.19594H371.926C371.926 3.09594 371.926 2.25995 371.948 1.68794L369.044 1.73195C369.066 2.72194 369.066 3.42594 369.066 4.19594C368.362 4.19594 367.57 4.19594 366.756 4.19594V6.68195H369.066V8.85995Z" fill="white"/>
<path d="M390.014 8.85995C390.014 10.1359 389.992 11.4119 389.992 12.4239C389.992 16.1859 391.246 17.1099 396.658 17.1099C397.56 17.1099 398.418 17.0659 399.232 16.9999L399.21 14.5139C398.33 14.5799 397.868 14.6019 396.9 14.6019C393.622 14.6019 392.874 14.2719 392.874 11.7419V6.68195H399.21V4.19594H392.874C392.874 3.09594 392.874 2.25995 392.896 1.68794L389.992 1.73195C390.014 2.72194 390.014 3.42594 390.014 4.19594C389.31 4.19594 388.518 4.19594 387.704 4.19594V6.68195H390.014V8.85995Z" fill="white"/>
<path d="M409.268 17.2639C415.824 17.2639 417.496 15.8119 417.496 10.9279V10.2679C417.496 5.38395 415.824 3.93194 409.268 3.93194C402.734 3.93194 401.062 5.38395 401.062 10.2679V10.9279C401.062 15.8119 402.734 17.2639 409.268 17.2639ZM409.268 14.7119C404.78 14.7119 403.944 13.8759 403.944 10.6859V10.5099C403.944 7.29795 404.78 6.48394 409.268 6.48394C413.778 6.48394 414.592 7.29795 414.592 10.5099V10.6859C414.592 13.8759 413.778 14.7119 409.268 14.7119Z" fill="white"/>
<path d="M435.333 17.2639C438.655 17.2639 440.547 16.4939 441.559 14.9979L441.581 16.9999H444.287C444.265 15.9219 444.265 15.1739 444.265 13.4799V4.19594C444.265 2.61194 444.265 1.46795 444.287 0.543945H441.339C441.361 1.44595 441.383 3.73394 441.383 5.97794C440.349 4.61395 438.501 3.93194 435.399 3.93194C429.481 3.93194 427.875 5.33995 427.875 10.2679V10.9279C427.875 15.8559 429.481 17.2639 435.333 17.2639ZM436.125 14.6679C431.637 14.6679 430.757 13.8759 430.757 10.6859V10.5099C430.757 7.27595 431.637 6.48394 436.191 6.48394C440.525 6.48394 441.405 7.36395 441.405 10.5099V10.6859C441.405 13.7659 440.525 14.6679 436.125 14.6679Z" fill="white"/>
<path d="M455.309 17.2639C461.865 17.2639 463.537 15.8119 463.537 10.9279V10.2679C463.537 5.38395 461.865 3.93194 455.309 3.93194C448.775 3.93194 447.103 5.38395 447.103 10.2679V10.9279C447.103 15.8119 448.775 17.2639 455.309 17.2639ZM455.309 14.7119C450.821 14.7119 449.985 13.8759 449.985 10.6859V10.5099C449.985 7.29795 450.821 6.48394 455.309 6.48394C459.819 6.48394 460.633 7.29795 460.633 10.5099V10.6859C460.633 13.8759 459.819 14.7119 455.309 14.7119Z" fill="white"/>
<path d="M474.534 12.5119C481.046 12.5119 482.674 11.1039 482.674 7.01194V6.57195C482.674 2.47995 481.024 1.07194 474.182 1.07194C467.076 1.07194 465.58 2.39195 465.58 6.32995L468.462 6.39595C468.418 4.43795 469.21 3.60194 474.182 3.60194C478.912 3.60194 479.748 4.39395 479.748 6.79195C479.748 9.21195 478.912 9.98195 474.49 9.98195C473.808 9.98195 473.17 9.98195 472.334 9.95994L472.29 12.4899C473.038 12.5119 473.786 12.5119 474.534 12.5119ZM472.334 13.7879V16.9999H475.7V13.7879H472.334Z" fill="white"/>
</svg>
