<svg width="1920" height="715" viewBox="0 0 1920 715" fill="none" xmlns="http://www.w3.org/2000/svg">
<g clip-path="url(#clip0_1238_1822)">
<g opacity="0.15">
<path d="M1595.68 235.634C1566.74 237.054 1541.54 203.002 1539.4 159.581C1541.54 203.002 1519.81 239.357 1490.87 240.777C1519.81 239.357 1545 273.409 1547.14 316.83C1545 273.409 1566.74 237.054 1595.68 235.634Z" fill="#E965FF"/>
<path d="M1562.1 483.546L1678.16 273.993C1686.98 258.072 1707.04 252.315 1722.96 261.134L1932.54 377.216C1948.46 386.036 1954.22 406.092 1945.4 422.013L1829.34 631.566C1820.52 647.487 1800.47 653.244 1784.54 644.425L1574.97 528.343C1559.04 519.524 1553.28 499.467 1562.1 483.546Z" fill="#141517" stroke="url(#paint0_linear_1238_1822)" stroke-width="3.12643"/>
<path d="M1692.01 582.943C1635.53 547.179 1596.58 537.143 1568.5 509.525L1710.95 467.897L1721.53 478.48C1722.84 479.794 1724.33 480.919 1725.96 481.822L1743.71 491.685L1692.01 582.943Z" fill="url(#paint1_linear_1238_1822)"/>
<path d="M1817.58 324.138C1881.73 359.67 1907.4 370.937 1936.3 394.015L1782.95 446.685L1763.45 412.919L1817.58 324.138Z" fill="url(#paint2_linear_1238_1822)"/>
<path d="M1705.27 473.553C1700.77 471.059 1699.14 465.387 1701.63 460.884L1732.97 404.305C1735.47 399.802 1741.14 398.174 1745.64 400.668L1802.23 432.01C1806.73 434.505 1808.36 440.177 1805.86 444.679L1774.53 501.259C1772.03 505.761 1766.36 507.389 1761.86 504.895L1705.27 473.553Z" fill="url(#paint3_linear_1238_1822)"/>
<path d="M1329.66 390.19L767.822 584.616L752.629 489.164L1319.64 292.947L1329.66 390.19Z" fill="url(#paint4_linear_1238_1822)" stroke="url(#paint5_linear_1238_1822)" stroke-width="2.57571"/>
<path d="M1183.8 334.738L621.956 529.165L606.764 433.713L1173.78 237.496L1183.8 334.738Z" fill="url(#paint6_linear_1238_1822)" stroke="url(#paint7_linear_1238_1822)" stroke-width="2.57571"/>
<path d="M848.97 523.313L848.03 517.283C844.325 518.617 837.023 521.144 832.093 522.85L821.442 526.536L817.824 503.878C817.343 501.284 817.041 499.357 816.802 497.46L810.523 499.633C810.855 501.497 811.157 503.424 811.591 506.035L814.924 526.812C815.462 530.325 815.812 532.391 816.134 534.676L848.97 523.313Z" fill="white"/>
<path d="M848.677 484.815L849.449 489.757L855.588 487.632L854.769 482.706L848.677 484.815ZM853.246 513.082C853.816 516.687 854.232 519.096 854.507 521.397L860.646 519.272C860.232 517.02 859.862 514.595 859.262 511.052L857.301 498.76C856.717 495.264 856.329 492.637 856.026 490.554L849.933 492.663C850.33 494.713 850.733 497.386 851.302 500.836L853.246 513.082Z" fill="white"/>
<path d="M867.041 508.725C867.644 512.423 867.978 514.443 868.267 516.635L874.407 514.51C873.978 512.367 873.676 510.44 873.088 506.632L872.034 500.121C870.942 493.05 872.515 490.37 879.259 488.036C885.258 485.96 887.106 486.935 887.926 492.017L889.415 501.139C889.97 504.853 890.253 506.422 890.592 508.909L896.685 506.801C896.168 503.802 895.863 501.564 895.366 498.923L894.358 492.395C893.22 485.34 894.933 482.612 901.583 480.31C907.583 478.234 909.477 479.194 910.298 484.275L911.723 493.366C912.342 497.111 912.624 498.681 912.917 501.184L919.056 499.059C918.556 496.107 918.204 493.885 917.77 491.274L917.319 488.617C916.615 484.172 916.308 481.778 915.91 479.572C914.818 472.501 911.452 470.749 902.336 473.903C896.429 475.947 893.411 478.815 892.305 482.844C890.4 479.596 886.801 479.279 880.197 481.565C874.43 483.56 871.41 486.272 870.13 490.101L869.367 485.937L863.693 487.901C864.041 489.812 864.327 491.692 864.879 495.096L867.041 508.725Z" fill="white"/>
<path d="M920.758 459.871L921.53 464.813L927.67 462.688L926.851 457.762L920.758 459.871ZM925.327 488.138C925.897 491.743 926.314 494.152 926.589 496.453L932.728 494.328C932.314 492.075 931.944 489.651 931.343 486.108L929.383 473.816C928.799 470.319 928.411 467.693 928.107 465.61L922.015 467.719C922.411 469.769 922.815 472.442 923.383 475.892L925.327 488.138Z" fill="white"/>
<path d="M939.186 472.82C939.654 475.679 940.076 478.554 940.444 480.823C941.8 489.261 945.266 490.25 956.568 486.339C958.475 485.679 959.885 485.087 961.604 484.335L960.623 478.789C958.857 479.556 957.804 479.973 955.804 480.665C948.874 483.063 947.144 482.88 946.224 477.208L944.43 465.848L957.825 461.213L956.937 455.634L943.542 460.269C943.172 457.844 942.886 455.964 942.684 454.627L936.577 456.845C936.976 459.051 937.274 460.667 937.496 462.361C936.007 462.876 934.333 463.456 932.612 464.051L933.5 469.63L938.43 467.924L939.186 472.82Z" fill="white"/>
<path d="M965.888 474.102C966.458 477.707 966.874 480.116 967.149 482.417L973.288 480.292C972.874 478.039 972.504 475.615 971.903 472.072L968.637 451.637C968.099 448.124 967.649 445.467 967.392 443.368L961.252 445.493C961.619 447.606 962.053 450.217 962.621 453.666L965.888 474.102Z" fill="white"/>
<path d="M997.52 472.532C1011.47 467.703 1013.1 464.12 1011.94 456.862L1005.92 458.736C1006.46 462.093 1005.58 464.065 996.046 467.364C987.069 470.47 984.755 469.5 983.489 463.583L1011.44 453.91C1011.34 453.164 1011.24 452.262 1011.05 451.283C1009.18 440.734 1004.84 438.432 991.304 443.116C977.723 447.815 975.157 452.141 976.916 463.097L977.166 464.573C978.858 475.187 983.707 477.312 997.52 472.532ZM992.634 447.864C1001.42 444.822 1003.38 445.968 1004.46 451.482L982.783 458.983C982.203 453.089 984.076 450.826 992.634 447.864Z" fill="white"/>
<path d="M1034.69 459.669C1048.36 454.937 1049.4 452.653 1048.39 446.437C1047.47 440.609 1044.65 438.773 1031.35 442.177C1021.52 444.639 1020.67 443.839 1020.26 441.587C1019.88 439.583 1021.06 438.184 1029.06 435.415C1037.39 432.534 1038.79 433.141 1039.2 435.814L1039.27 436.467L1045.31 434.219C1044.17 427.32 1041.03 425.908 1027.78 430.495C1015.12 434.872 1013.57 437.599 1014.54 443.722C1015.48 449.596 1018.27 451.184 1030.45 448.01C1040.94 445.369 1041.88 446.137 1042.31 448.592C1042.71 450.798 1041.93 452.005 1033.42 454.951C1024.03 458.202 1022.63 457.642 1022.08 454.239L1021.93 453.509L1016.03 455.708C1017.37 463.944 1020.78 464.482 1034.69 459.669Z" fill="white"/>
<path d="M1070.57 447.252C1084.24 442.52 1085.28 440.236 1084.27 434.02C1083.35 428.192 1080.53 426.356 1067.23 429.76C1057.4 432.222 1056.56 431.422 1056.14 429.17C1055.76 427.166 1056.94 425.767 1064.94 422.998C1073.27 420.117 1074.68 420.724 1075.08 423.397L1075.15 424.05L1081.19 421.802C1080.06 414.903 1076.91 413.49 1063.66 418.078C1051.01 422.455 1049.45 425.182 1050.42 431.305C1051.36 437.179 1054.15 438.767 1066.33 435.593C1076.82 432.952 1077.76 433.72 1078.2 436.175C1078.59 438.381 1077.81 439.588 1069.3 442.534C1059.91 445.785 1058.52 445.225 1057.96 441.822L1057.82 441.091L1051.91 443.291C1053.25 451.527 1056.66 452.065 1070.57 447.252Z" fill="white"/>
<path d="M1107.56 414.554C1108.03 417.413 1108.45 420.288 1108.82 422.557C1110.17 430.995 1113.64 431.984 1124.94 428.073C1126.85 427.413 1128.26 426.821 1129.98 426.07L1129 420.523C1127.23 421.29 1126.18 421.707 1124.18 422.399C1117.25 424.797 1115.52 424.614 1114.6 418.942L1112.8 407.582L1126.2 402.947L1125.31 397.368L1111.91 402.003C1111.54 399.579 1111.26 397.698 1111.06 396.361L1104.95 398.579C1105.35 400.785 1105.65 402.401 1105.87 404.095C1104.38 404.61 1102.71 405.19 1100.98 405.785L1101.87 411.364L1106.8 409.658L1107.56 414.554Z" fill="white"/>
<path d="M1134.2 416.273C1134.8 419.971 1135.14 421.991 1135.43 424.183L1141.57 422.058C1141.14 419.915 1140.84 417.988 1140.25 414.18L1139.26 408.166C1138.01 400.319 1139.63 397.934 1147.26 395.294C1154.75 392.703 1155.86 393.515 1156.68 398.597L1156.8 399.545L1162.63 397.424C1162.44 396.29 1162.33 395.497 1162.22 394.595C1160.93 386.655 1158.43 385.282 1148.34 388.774C1142.2 390.899 1138.77 393.802 1137.31 397.851L1136.53 393.485L1130.85 395.449C1131.2 397.36 1131.49 399.24 1132.04 402.644L1134.2 416.273Z" fill="white"/>
<path d="M1183.67 408.112C1191.12 405.537 1194.76 402.663 1196.18 399.408L1196.83 402.935L1202.32 401.036C1201.65 397.151 1201.25 394.634 1200.8 391.665C1200.06 387.128 1199.84 385.433 1199.22 381.532C1198.15 374.819 1194.57 372.773 1180.57 377.618C1167.78 382.044 1165.66 385.54 1166.81 392.019L1172.67 390.147C1172.14 387.101 1172.93 385.784 1181.86 382.694C1191.02 379.523 1192.64 380.424 1193.37 384.961L1193.91 388.318C1191.56 387.099 1187.5 387.41 1180.57 389.808C1168.53 393.977 1166.48 397.549 1167.5 404.123C1168.59 410.572 1171.54 412.313 1183.67 408.112ZM1184.93 402.416C1175.96 405.522 1174.11 405.014 1173.6 401.859C1173.06 398.658 1173.98 396.935 1183.6 393.603C1192.86 390.401 1194.53 391.176 1194.84 393.258L1195.05 394.486C1195.52 397.345 1194.23 399.197 1184.93 402.416Z" fill="white"/>
<path d="M1226.25 393.379C1239.92 388.647 1241.93 384.514 1240.56 375.718L1234.56 377.638C1235.31 382.223 1233.83 384.715 1224.66 387.885C1215.31 391.121 1213.31 389.835 1212.14 382.687L1212.06 382.299C1210.92 375.088 1212.37 372.659 1221.72 369.424C1230.88 366.253 1232.85 367.6 1233.59 372.138L1233.57 372.092L1239.53 369.876C1238.12 360.831 1233.85 359.182 1220.17 363.914C1206.69 368.582 1204.12 372.908 1205.88 383.864L1206.13 385.34C1207.89 396.295 1212.81 398.03 1226.25 393.379Z" fill="white"/>
<path d="M1247.04 376.809C1247.61 380.414 1248.02 382.822 1248.3 385.123L1254.44 382.999C1254.02 380.746 1253.65 378.322 1253.05 374.779L1252.52 371.267L1259.45 368.868C1261.04 369.722 1262.86 370.605 1264.72 371.471L1274.44 376.078L1282.02 373.455L1282.08 373.329C1277.29 371.079 1268.97 367.032 1263.63 364.4C1267.55 358.564 1273.35 350.044 1276.87 345.023L1276.75 344.962L1268.98 347.65L1262.84 356.547C1261.23 358.822 1259.64 361.144 1258.23 363.246L1251.58 365.548L1249.79 354.343C1249.25 350.831 1248.8 348.174 1248.54 346.075L1242.4 348.2C1242.77 350.313 1243.2 352.923 1243.77 356.373L1247.04 376.809Z" fill="white"/>
<path d="M661.597 474.006C662.101 477.269 662.403 479.196 662.79 481.823L682.325 475.063C698.603 469.43 701.207 464.31 699.113 451.178L698.995 450.385C696.861 437.893 691.458 434.918 675.226 440.535L657.18 446.78C657.578 448.986 657.83 450.618 658.248 453.182L661.597 474.006ZM676.938 446.089C688.752 442.001 691.245 443.639 692.718 452.714L692.786 453.211C694.211 462.303 692.519 465.389 680.659 469.493L668.101 473.839L664.334 450.451L676.938 446.089Z" fill="white"/>
<path d="M702.328 429.541L703.1 434.483L709.239 432.359L708.421 427.433L702.328 429.541ZM706.897 457.808C707.467 461.414 707.884 463.822 708.159 466.123L714.298 463.999C713.883 461.746 713.514 459.322 712.913 455.779L710.953 443.486C710.369 439.99 709.981 437.363 709.677 435.281L703.584 437.389C703.981 439.44 704.385 442.113 704.953 445.563L706.897 457.808Z" fill="white"/>
<path d="M737.228 456.689C750.902 451.957 751.934 449.672 750.93 443.456C750.008 437.629 747.186 435.792 733.886 439.197C724.061 441.659 723.212 440.859 722.797 438.606C722.417 436.602 723.599 435.203 731.599 432.435C739.924 429.554 741.332 430.161 741.736 432.834L741.805 433.487L747.85 431.239C746.714 424.339 743.569 422.927 730.314 427.514C717.663 431.892 716.106 434.619 717.078 440.742C718.016 446.616 720.805 448.203 732.987 445.03C743.478 442.389 744.421 443.156 744.853 445.611C745.252 447.817 744.472 449.025 735.96 451.97C726.565 455.222 725.174 454.661 724.622 451.258L724.473 450.528L718.568 452.728C719.906 460.964 723.321 461.501 737.228 456.689Z" fill="white"/>
<path d="M774.179 443.902C787.853 439.17 789.861 435.037 788.485 426.241L782.484 428.161C783.236 432.746 781.754 435.238 772.592 438.408C763.243 441.644 761.237 440.358 760.066 433.21L759.984 432.822C758.844 425.611 760.295 423.182 769.644 419.947C778.806 416.776 780.782 418.123 781.519 422.661L781.503 422.615L787.454 420.399C786.044 411.354 781.777 409.705 768.103 414.437C754.615 419.105 752.049 423.431 753.807 434.387L754.057 435.863C755.816 446.818 760.738 448.553 774.179 443.902Z" fill="white"/>
<path d="M812.607 430.604C826.467 425.807 828.893 421.53 827.135 410.574L826.885 409.098C825.127 398.142 820.483 396.311 806.67 401.091C792.81 405.887 790.383 410.165 792.142 421.121L792.392 422.597C794.15 433.553 798.793 435.384 812.607 430.604ZM811.066 425.094C801.578 428.378 799.571 427.093 798.401 419.944L798.319 419.556C797.179 412.345 798.63 409.916 808.164 406.616C817.652 403.333 819.736 404.539 820.83 411.766L820.912 412.154C822.082 419.303 820.601 421.795 811.066 425.094Z" fill="white"/>
<path d="M853.966 415.666C856.007 407.563 860.417 390.201 862.508 382.393L855.578 384.791L852.066 399.029C851.039 403.135 850.074 407.272 849.274 410.831L845.971 411.973C844.167 409.316 842 406.211 839.864 403.2L832.462 392.79L826.044 395.012C830.232 400.647 839.784 413.958 843.548 419.271L853.966 415.666Z" fill="white"/>
<path d="M886.645 404.982C900.598 400.154 902.223 396.57 901.067 389.313L895.049 391.187C895.585 394.544 894.705 396.515 885.17 399.815C876.194 402.921 873.879 401.951 872.614 396.034L900.567 386.361C900.465 385.615 900.361 384.713 900.179 383.734C898.301 373.184 893.963 370.883 880.429 375.566C866.848 380.266 864.282 384.592 866.04 395.548L866.29 397.024C867.983 407.638 872.832 409.763 886.645 404.982ZM881.759 380.315C890.549 377.273 892.508 378.419 893.582 383.933L871.908 391.434C871.328 385.54 873.201 383.277 881.759 380.315Z" fill="white"/>
<path d="M907.279 388.882C907.881 392.581 908.215 394.601 908.505 396.793L914.644 394.668C914.215 392.525 913.913 390.598 913.325 386.79L912.339 380.776C911.083 372.928 912.706 370.544 920.333 367.904C927.822 365.313 928.936 366.125 929.756 371.207L929.876 372.155L935.704 370.034C935.52 368.9 935.402 368.107 935.298 367.205C934.01 359.264 931.504 357.892 921.411 361.384C915.272 363.509 911.85 366.412 910.386 370.461L909.605 366.095L903.931 368.059C904.279 369.97 904.565 371.85 905.117 375.253L907.279 388.882Z" fill="white"/>
<path d="M980.494 372.193C982.796 363.791 987.546 346.208 989.776 338.351L983.032 340.685L979.326 354.209C978.413 357.442 977.563 360.706 976.818 363.672L974.306 364.541C972.43 362.43 970.334 360.134 968.317 357.915L959.87 348.7L953.266 350.986C958.354 356.362 967.18 366.07 971.704 371.172L975.053 370.013L974.604 371.575C973.618 375.198 972.788 376.11 969.997 377.076C968.183 377.704 966.586 378.204 964.693 378.755L965.44 384.227C967.365 383.769 969.722 383.057 971.071 382.591C976.699 380.643 978.865 378.174 980.494 372.193Z" fill="white"/>
<path d="M1013.77 360.989C1027.63 356.193 1030.06 351.916 1028.3 340.96L1028.05 339.484C1026.29 328.528 1021.65 326.697 1007.84 331.477C993.976 336.273 991.549 340.551 993.308 351.507L993.558 352.983C995.316 363.938 999.959 365.77 1013.77 360.989ZM1012.23 355.48C1002.74 358.764 1000.74 357.479 999.567 350.33L999.484 349.942C998.344 342.731 999.796 340.302 1009.33 337.002C1018.82 333.719 1020.9 334.925 1022 342.152L1022.08 342.54C1023.25 349.689 1021.77 352.181 1012.23 355.48Z" fill="white"/>
<path d="M1033.47 334.692C1033.97 337.956 1034.17 339.292 1034.52 341.515C1035.82 349.767 1039.44 352.108 1051.21 348.036C1057.44 345.879 1060.92 342.851 1062.45 338.832L1063.24 343.245L1068.92 341.281C1068.55 339.324 1068.28 337.489 1067.73 334.086L1065.57 320.457C1064.95 316.712 1064.63 314.739 1064.34 312.547L1058.2 314.671C1058.63 316.815 1058.94 318.742 1059.52 322.55L1060.58 329.061C1061.7 336.069 1060.05 338.828 1051.77 341.693C1043.07 344.703 1041.16 343.074 1040.14 336.812L1038.98 329.555C1038.33 325.561 1038.08 324.085 1037.79 321.737L1031.65 323.862C1032.11 326.254 1032.46 328.321 1032.98 331.631L1033.47 334.692Z" fill="white"/>
<path d="M1075.24 330.758C1075.84 334.456 1076.18 336.476 1076.47 338.668L1082.61 336.544C1082.18 334.4 1081.88 332.473 1081.29 328.666L1080.3 322.652C1079.05 314.804 1080.67 312.419 1088.3 309.78C1095.79 307.188 1096.9 308.001 1097.72 313.082L1097.84 314.031L1103.67 311.91C1103.48 310.775 1103.37 309.983 1103.26 309.081C1101.97 301.14 1099.47 299.767 1089.38 303.26C1083.24 305.384 1079.81 308.288 1078.35 312.336L1077.57 307.971L1071.89 309.934C1072.24 311.845 1072.53 313.726 1073.08 317.129L1075.24 330.758Z" fill="white"/>
<path d="M225.286 605.866C244.603 507.931 340.104 444.292 438.615 463.731C537.126 483.169 601.307 578.316 581.991 676.251L579.008 691.371L400.656 656.178L222.303 620.986L225.286 605.866Z" fill="#0D0E11" stroke="url(#paint8_linear_1238_1822)" stroke-width="2.00027"/>
<path d="M248.975 608.335C257.124 567.024 281.344 530.642 316.31 507.193C351.275 483.744 394.12 475.149 435.42 483.298C476.719 491.448 513.091 515.674 536.532 550.648C559.974 585.621 568.566 628.478 560.417 669.789L404.696 639.062L248.975 608.335Z" fill="url(#paint9_linear_1238_1822)"/>
<path d="M518.293 661.482C524.304 631.007 517.966 599.392 500.673 573.592C483.38 547.791 456.548 529.919 426.081 523.908C395.614 517.896 364.007 524.237 338.213 541.535C312.419 558.833 294.552 585.672 288.54 616.148L403.417 638.815L518.293 661.482Z" fill="url(#paint10_linear_1238_1822)"/>
<path d="M460.733 650.787C463.772 635.38 460.568 619.396 451.825 606.353C443.083 593.31 429.518 584.274 414.115 581.235C398.713 578.196 382.733 581.401 369.693 590.147C356.653 598.892 347.62 612.46 344.581 627.867L402.657 639.327L460.733 650.787Z" fill="url(#paint11_linear_1238_1822)"/>
<path d="M576.785 586.805L559.074 593.619L499.297 616.614" stroke="#5200FF" stroke-width="1.33351"/>
<rect width="48.3803" height="15.1208" rx="2.00027" transform="matrix(0.936506 -0.350547 0.350386 0.936645 476.707 616.834)" fill="#5200FF"/>
<path d="M190.727 447.514C134.694 443.812 15.498 462.507 -30.3565 473.959L-17.3199 526.097C181.864 462.204 227.704 512.557 224.534 545.782L289.402 515.871C273.873 457.796 251.442 451.524 190.727 447.514Z" fill="#5200FF"/>
<path fill-rule="evenodd" clip-rule="evenodd" d="M-35.4641 470.894L-31.3733 469.872C-8.2358 464.094 33.197 456.532 75.8184 450.878C118.373 445.233 162.541 441.43 191.009 443.311C221.174 445.303 243.049 447.865 259.224 457.832C275.744 468.013 285.619 485.394 293.477 514.786L294.395 518.217L219.646 552.684L220.342 545.385C221.031 538.163 219.08 529.907 212.853 522.4C206.606 514.871 195.836 507.841 178.497 503.62C143.678 495.144 83.3298 498.244 -16.0287 530.116L-20.3129 531.49L-35.4641 470.894ZM-25.2341 477.057L-14.3162 520.722C83.0068 489.962 143.921 486.525 180.491 495.428C199.114 499.962 211.658 507.757 219.34 517.016C225.175 524.05 228.076 531.782 228.748 539.202L284.394 513.543C276.919 487.091 268.002 473.145 254.803 465.011C240.701 456.322 221.003 453.742 190.453 451.724C162.888 449.903 119.441 453.597 76.9266 459.237C36.9187 464.544 -1.88474 471.522 -25.2341 477.057Z" fill="url(#paint12_linear_1238_1822)"/>
<path d="M267.756 394.168L-16.6959 525.329L-30.647 473.857L256.424 341.487L267.756 394.168Z" fill="#5200FF"/>
<path fill-rule="evenodd" clip-rule="evenodd" d="M-35.6459 471.517L259.439 335.452L272.588 396.579L-19.4581 531.243L-35.6459 471.517ZM-25.6456 476.19L-13.9315 519.41L262.926 391.75L253.411 347.516L-25.6456 476.19Z" fill="url(#paint13_linear_1238_1822)"/>
<path d="M401.144 391.136C386.748 386.713 380.454 365.616 387.086 344.016C380.454 365.616 363.406 379.541 349.01 375.119C363.406 379.541 369.7 400.639 363.067 422.238C369.7 400.639 386.748 386.713 401.144 391.136Z" fill="#43FF8E"/>
<path d="M142.628 230.629C118.475 239.183 88.4927 216.737 75.6654 180.497C88.4927 216.737 79.3102 253.053 55.1568 261.607C79.3102 253.053 109.292 275.5 122.12 311.74C109.292 275.5 118.475 239.183 142.628 230.629Z" fill="#5200FF"/>
<circle cx="96.6736" cy="96.6736" r="96.6736" transform="matrix(0.937695 -0.34749 0.347317 0.937737 1262.95 346.961)" fill="#0D0E11"/>
<path d="M1347.35 493.632C1314.28 478.438 1303.65 453.799 1297.6 439.495L1361.95 415.272L1362.95 417.537C1365.26 422.738 1369.38 426.917 1374.55 429.292L1376.95 430.394L1347.35 493.632Z" fill="url(#paint14_linear_1238_1822)"/>
<path d="M1428.54 316.891C1461.62 332.084 1472.25 356.723 1478.3 371.027L1409.89 397.23L1398.98 381.242L1428.54 316.891Z" fill="url(#paint15_linear_1238_1822)"/>
<circle cx="101.229" cy="101.229" r="99.405" transform="matrix(0.937695 -0.34749 0.347317 0.937737 1257.05 344.748)" stroke="url(#paint16_linear_1238_1822)" stroke-width="3.64771"/>
<circle cx="27.9252" cy="27.9252" r="27.9252" transform="matrix(0.937695 -0.34749 0.347317 0.937737 1351.89 388.312)" fill="url(#paint17_linear_1238_1822)"/>
</g>
</g>
<defs>
<linearGradient id="paint0_linear_1238_1822" x1="1697.47" y1="256.784" x2="1809.99" y2="648.79" gradientUnits="userSpaceOnUse">
<stop offset="0.104167" stop-color="#E965FF"/>
<stop offset="0.489583" stop-color="#5200FF"/>
<stop offset="0.890625" stop-color="#43FF8E"/>
</linearGradient>
<linearGradient id="paint1_linear_1238_1822" x1="1694.61" y1="578.263" x2="1638.67" y2="476.078" gradientUnits="userSpaceOnUse">
<stop stop-color="#1E2025"/>
<stop offset="1" stop-color="#1E2025" stop-opacity="0"/>
</linearGradient>
<linearGradient id="paint2_linear_1238_1822" x1="1807.73" y1="332.959" x2="1863.67" y2="435.144" gradientUnits="userSpaceOnUse">
<stop stop-color="#2E3138"/>
<stop offset="1" stop-color="#1E2025" stop-opacity="0"/>
</linearGradient>
<linearGradient id="paint3_linear_1238_1822" x1="1738.55" y1="399.863" x2="1768.93" y2="505.704" gradientUnits="userSpaceOnUse">
<stop offset="0.31669" stop-color="#E965FF"/>
<stop offset="1" stop-color="#E965FF" stop-opacity="0"/>
</linearGradient>
<linearGradient id="paint4_linear_1238_1822" x1="1028.18" y1="393.81" x2="1349.93" y2="332.854" gradientUnits="userSpaceOnUse">
<stop offset="0.64073" stop-color="#5200FF"/>
<stop offset="1" stop-color="#43FF8E"/>
</linearGradient>
<linearGradient id="paint5_linear_1238_1822" x1="1312.78" y1="345.889" x2="482.391" y2="637.616" gradientUnits="userSpaceOnUse">
<stop stop-color="#43FF8E"/>
<stop offset="0.526042" stop-color="#5200FF"/>
</linearGradient>
<linearGradient id="paint6_linear_1238_1822" x1="539.929" y1="432.532" x2="1225.01" y2="270.211" gradientUnits="userSpaceOnUse">
<stop stop-color="#E965FF"/>
<stop offset="0.223958" stop-color="#5200FF"/>
</linearGradient>
<linearGradient id="paint7_linear_1238_1822" x1="1252.18" y1="260.93" x2="643.282" y2="474.846" gradientUnits="userSpaceOnUse">
<stop offset="0.520833" stop-color="#5200FF"/>
<stop offset="1" stop-color="#E965FF"/>
</linearGradient>
<linearGradient id="paint8_linear_1238_1822" x1="315.605" y1="475.579" x2="574.012" y2="722.136" gradientUnits="userSpaceOnUse">
<stop stop-color="#43FF8E"/>
<stop offset="0.364583" stop-color="#E965FF"/>
<stop offset="0.692708" stop-color="#5703FF"/>
</linearGradient>
<linearGradient id="paint9_linear_1238_1822" x1="253.989" y1="582.915" x2="565.436" y2="644.345" gradientUnits="userSpaceOnUse">
<stop stop-color="#0D0E11"/>
<stop offset="1" stop-color="#292B32"/>
</linearGradient>
<linearGradient id="paint10_linear_1238_1822" x1="521.992" y1="642.73" x2="292.236" y2="597.413" gradientUnits="userSpaceOnUse">
<stop stop-color="#0D0E11"/>
<stop offset="0.609375" stop-color="#292B32"/>
</linearGradient>
<linearGradient id="paint11_linear_1238_1822" x1="414.115" y1="581.235" x2="391.19" y2="697.417" gradientUnits="userSpaceOnUse">
<stop offset="0.078125" stop-color="#5200FF"/>
<stop offset="0.463542" stop-color="#0D0E11"/>
</linearGradient>
<linearGradient id="paint12_linear_1238_1822" x1="116.042" y1="474.138" x2="257.478" y2="530.82" gradientUnits="userSpaceOnUse">
<stop stop-color="#5200FF"/>
<stop offset="0.885209" stop-color="#E965FF"/>
</linearGradient>
<linearGradient id="paint13_linear_1238_1822" x1="248.159" y1="358" x2="-9.55211" y2="493.131" gradientUnits="userSpaceOnUse">
<stop stop-color="#43FF8E"/>
<stop offset="1" stop-color="#5200FF"/>
</linearGradient>
<linearGradient id="paint14_linear_1238_1822" x1="1357.97" y1="470.519" x2="1326.47" y2="422.03" gradientUnits="userSpaceOnUse">
<stop stop-color="#1E2025"/>
<stop offset="1" stop-color="#1E2025" stop-opacity="0"/>
</linearGradient>
<linearGradient id="paint15_linear_1238_1822" x1="1417.92" y1="340.003" x2="1449.43" y2="388.492" gradientUnits="userSpaceOnUse">
<stop stop-color="#2E3138"/>
<stop offset="1" stop-color="#1E2025" stop-opacity="0"/>
</linearGradient>
<linearGradient id="paint16_linear_1238_1822" x1="101.229" y1="0" x2="101.229" y2="202.458" gradientUnits="userSpaceOnUse">
<stop stop-color="#43FF8E"/>
<stop offset="0.489583" stop-color="#5200FF"/>
<stop offset="1" stop-color="#E965FF"/>
</linearGradient>
<linearGradient id="paint17_linear_1238_1822" x1="27.9252" y1="0" x2="27.9252" y2="55.8504" gradientUnits="userSpaceOnUse">
<stop stop-color="#43FF8E"/>
<stop offset="1" stop-color="#43FF8E" stop-opacity="0"/>
</linearGradient>
<clipPath id="clip0_1238_1822">
<rect width="1920" height="715" fill="white"/>
</clipPath>
</defs>
</svg>
