<svg width="306" height="14" viewBox="0 0 306 14" fill="none" xmlns="http://www.w3.org/2000/svg">
<path d="M0 11.6356H1.60615C1.591 10.7956 1.591 10.5 1.591 9.11556V6.65778H10.4551V9.13111C10.4551 10.3289 10.4551 10.8578 10.44 11.6356H12.0462C12.031 10.7956 12.031 10.5 12.031 9.11556V2.61333C12.031 1.78889 12.031 1.33778 12.0462 0.591111H10.44C10.4551 1.33778 10.4551 1.78889 10.4551 2.61333V5.19556H1.591V2.61333C1.591 1.78889 1.591 1.33778 1.60615 0.591111H0C0.0151524 1.33778 0.0151524 1.78889 0.0151524 2.61333V9.13111C0.0151524 10.3289 0.0151524 10.8578 0 11.6356Z" fill="#535559"/>
<path d="M19.3831 11.8222C21.7317 11.8222 23.0651 11.34 23.7318 10.5778L23.747 11.6356H25.1107C25.0956 10.4067 25.0956 9.61333 25.0956 8.68C25.0956 7.37333 25.1107 6.78222 25.1107 5.55333C25.1107 3.42222 24.3379 2.42667 19.8528 2.42667C15.7768 2.42667 14.8525 3.31333 14.8828 5.19556L16.4132 5.24222C16.3981 4.16889 16.7617 3.81111 19.8528 3.81111C23.05 3.81111 23.5803 4.29333 23.5803 5.84889V6.95333C22.8682 6.37778 21.565 6.03556 19.3831 6.03556C15.398 6.03556 14.5343 6.89111 14.5343 8.96C14.5343 10.9822 15.3526 11.8222 19.3831 11.8222ZM19.8225 10.4689C16.7314 10.4689 16.095 10.08 16.095 8.96C16.095 7.80889 16.5042 7.32667 19.8225 7.32667C23.0803 7.32667 23.6106 7.79333 23.6106 8.49333V8.97556C23.6106 9.98667 23.0803 10.4689 19.8225 10.4689Z" fill="#535559"/>
<path d="M33.3995 11.6356C34.4451 9.42667 36.7028 4.72889 37.7483 2.61333H36.0967L34.142 6.68889C33.5662 7.88667 33.0056 9.08444 32.551 10.08H31.5055C31.0509 9.1 30.4751 7.87111 29.9145 6.67333L28.0053 2.61333H26.2628C27.2931 4.72889 29.6417 9.72222 30.5357 11.6356H33.3995Z" fill="#535559"/>
<path d="M43.9438 11.8222C48.3683 11.8222 49.2017 10.92 49.2017 8.75778L47.7016 8.69556C47.7016 9.86222 47.2925 10.4378 43.959 10.4378C40.7315 10.4378 40.0042 9.83111 39.9284 7.73111H49.2017C49.2017 7.46667 49.2169 7.14 49.2017 6.89111C49.1562 3.45333 48.1562 2.42667 43.8378 2.42667C39.5193 2.42667 38.3677 3.45333 38.3677 6.89111V7.35778C38.3677 10.7956 39.5193 11.8222 43.9438 11.8222ZM43.8378 3.78C46.944 3.78 47.5349 4.40222 47.5956 6.39333H39.9284C40.0345 4.34 40.7921 3.78 43.8378 3.78Z" fill="#535559"/>
<path d="M61.4813 11.8222C63.8299 11.8222 65.1633 11.34 65.83 10.5778L65.8452 11.6356H67.2089C67.1937 10.4067 67.1937 9.61333 67.1937 8.68C67.1937 7.37333 67.2089 6.78222 67.2089 5.55333C67.2089 3.42222 66.4361 2.42667 61.951 2.42667C57.875 2.42667 56.9507 3.31333 56.981 5.19556L58.5114 5.24222C58.4963 4.16889 58.8599 3.81111 61.951 3.81111C65.1482 3.81111 65.6785 4.29333 65.6785 5.84889V6.95333C64.9663 6.37778 63.6632 6.03556 61.4813 6.03556C57.4962 6.03556 56.6325 6.89111 56.6325 8.96C56.6325 10.9822 57.4508 11.8222 61.4813 11.8222ZM61.9207 10.4689C58.8296 10.4689 58.1932 10.08 58.1932 8.96C58.1932 7.80889 58.6023 7.32667 61.9207 7.32667C65.1785 7.32667 65.7088 7.79333 65.7088 8.49333V8.97556C65.7088 9.98667 65.1785 10.4689 61.9207 10.4689Z" fill="#535559"/>
<path d="M69.9146 9.14667C69.9146 10.3756 69.9146 10.9822 69.8994 11.6356H71.4449C71.4298 10.9822 71.4298 10.4067 71.4298 9.14667V6.96889C71.4298 4.60444 72.1419 3.87333 75.1118 3.87333C78.1878 3.87333 78.7635 4.66667 78.7635 6.73556V9.16222C78.7635 10.4844 78.7635 10.9356 78.7484 11.6356H80.2939C80.2788 10.9044 80.2788 10.2822 80.2788 9.16222V8.21333C80.2788 7.28 80.2939 6.90667 80.2939 6.26889C80.2939 3.53111 79.5212 2.42667 75.5209 2.42667C73.3693 2.42667 72.051 2.92444 71.3389 3.93556L71.3086 2.61333H69.8994C69.9146 3.22 69.9146 3.78 69.9146 4.93111V9.14667Z" fill="#535559"/>
<path d="M93.1178 11.8222C95.4664 11.8222 96.7999 11.34 97.4666 10.5778L97.4817 11.6356H98.8454C98.8303 10.4067 98.8303 9.61333 98.8303 8.68C98.8303 7.37333 98.8454 6.78222 98.8454 5.55333C98.8454 3.42222 98.0727 2.42667 93.5875 2.42667C89.5116 2.42667 88.5873 3.31333 88.6176 5.19556L90.148 5.24222C90.1328 4.16889 90.4965 3.81111 93.5875 3.81111C96.7847 3.81111 97.315 4.29333 97.315 5.84889V6.95333C96.6029 6.37778 95.2998 6.03556 93.1178 6.03556C89.1328 6.03556 88.2691 6.89111 88.2691 8.96C88.2691 10.9822 89.0873 11.8222 93.1178 11.8222ZM93.5573 10.4689C90.4662 10.4689 89.8298 10.08 89.8298 8.96C89.8298 7.80889 90.2389 7.32667 93.5573 7.32667C96.815 7.32667 97.3453 7.79333 97.3453 8.49333V8.97556C97.3453 9.98667 96.815 10.4689 93.5573 10.4689Z" fill="#535559"/>
<path d="M106.43 11.8222C110.749 11.8222 111.779 10.8111 111.779 8.13556L110.279 8.08889C110.279 9.70667 109.642 10.3756 106.43 10.3756C103.157 10.3756 102.506 9.72222 102.506 7.20222V7.04667C102.506 4.52667 103.157 3.87333 106.43 3.87333C109.642 3.87333 110.249 4.57333 110.249 6.16L111.749 6.11333C111.749 3.36 110.764 2.42667 106.43 2.42667C102.172 2.42667 100.96 3.45333 100.96 6.89111V7.35778C100.96 10.7956 102.187 11.8222 106.43 11.8222Z" fill="#535559"/>
<path d="M118.771 11.8222C123.089 11.8222 124.12 10.8111 124.12 8.13556L122.62 8.08889C122.62 9.70667 121.983 10.3756 118.771 10.3756C115.498 10.3756 114.847 9.72222 114.847 7.20222V7.04667C114.847 4.52667 115.498 3.87333 118.771 3.87333C121.983 3.87333 122.589 4.57333 122.589 6.16L124.09 6.11333C124.09 3.36 123.105 2.42667 118.771 2.42667C114.513 2.42667 113.301 3.45333 113.301 6.89111V7.35778C113.301 10.7956 114.528 11.8222 118.771 11.8222Z" fill="#535559"/>
<path d="M131.173 11.8222C135.552 11.8222 136.703 10.7956 136.703 7.35778V6.89111C136.703 3.45333 135.552 2.42667 131.173 2.42667C126.794 2.42667 125.642 3.45333 125.642 6.89111V7.35778C125.642 10.7956 126.794 11.8222 131.173 11.8222ZM131.173 10.3756C127.839 10.3756 127.188 9.72222 127.188 7.20222V7.04667C127.188 4.52667 127.839 3.87333 131.173 3.87333C134.506 3.87333 135.158 4.52667 135.158 7.04667V7.20222C135.158 9.72222 134.506 10.3756 131.173 10.3756Z" fill="#535559"/>
<path d="M138.839 6.03556C138.839 6.96889 138.824 7.34222 138.824 7.98C138.824 10.7178 139.597 11.8222 143.582 11.8222C145.703 11.8222 146.991 11.3244 147.704 10.3133L147.734 11.6356H149.143C149.128 11.0289 149.128 10.4689 149.128 9.31778V5.10222C149.128 3.87333 149.128 3.26667 149.143 2.61333H147.598C147.613 3.26667 147.613 3.84222 147.613 5.10222V7.28C147.613 9.64444 146.901 10.3756 143.991 10.3756C140.93 10.3756 140.355 9.58222 140.355 7.51333V5.08667C140.355 3.76444 140.355 3.31333 140.37 2.61333H138.824C138.839 3.34444 138.839 3.96667 138.839 5.08667V6.03556Z" fill="#535559"/>
<path d="M151.891 9.14667C151.891 10.3756 151.891 10.9822 151.876 11.6356H153.422C153.407 10.9822 153.407 10.4067 153.407 9.14667V6.96889C153.407 4.60444 154.119 3.87333 157.089 3.87333C160.165 3.87333 160.74 4.66667 160.74 6.73556V9.16222C160.74 10.4844 160.74 10.9356 160.725 11.6356H162.271C162.256 10.9044 162.256 10.2822 162.256 9.16222V8.21333C162.256 7.28 162.271 6.90667 162.271 6.26889C162.271 3.53111 161.498 2.42667 157.498 2.42667C155.346 2.42667 154.028 2.92444 153.316 3.93556L153.285 2.61333H151.876C151.891 3.22 151.891 3.78 151.891 4.93111V9.14667Z" fill="#535559"/>
<path d="M165.472 6.03556C165.472 6.79778 165.457 7.68445 165.457 8.36889C165.457 11.0444 166.26 11.7133 169.836 11.7133C170.502 11.7133 171.063 11.6822 171.533 11.6356L171.518 10.22C170.942 10.2511 170.593 10.2667 169.911 10.2667C167.593 10.2667 166.987 10.0333 166.987 8.15111V4.02889H171.518V2.61333H166.987C166.987 1.83556 166.987 1.21333 167.002 0.84L165.457 0.871111C165.472 1.58667 165.472 2.1 165.472 2.61333C164.987 2.61333 164.502 2.62889 163.881 2.61333V4.02889H165.472V6.03556Z" fill="#535559"/>
<path d="M178.918 8.68C183.388 8.68 184.54 7.65333 184.54 4.68222V4.37111C184.54 1.4 183.404 0.373333 178.767 0.373333C173.979 0.373333 172.994 1.30667 172.994 4.06L174.494 4.10667C174.464 2.52 175.1 1.82 178.767 1.82C182.343 1.82 182.994 2.47333 182.994 4.52667C182.994 6.58 182.343 7.23333 178.918 7.23333C178.509 7.23333 178.07 7.23333 177.54 7.21778L177.509 8.66444C178.009 8.68 178.464 8.68 178.918 8.68ZM177.555 9.73778V11.6356H179.464V9.73778H177.555Z" fill="#535559"/>
<path d="M202.877 11.6356V10.1422C201.665 10.1578 199.286 10.1578 197.771 10.1578H194.074V2.66C194.074 1.82 194.074 1.19778 194.089 0.591111H192.483C192.498 1.19778 192.498 1.80444 192.498 2.64444V9.16222C192.498 10.2822 192.498 10.9044 192.483 11.6356H202.877Z" fill="#5200FF"/>
<path d="M209.361 11.8222C213.74 11.8222 214.892 10.7956 214.892 7.35778V6.89111C214.892 3.45333 213.74 2.42667 209.361 2.42667C204.982 2.42667 203.831 3.45333 203.831 6.89111V7.35778C203.831 10.7956 204.982 11.8222 209.361 11.8222ZM209.361 10.3756C206.028 10.3756 205.376 9.72222 205.376 7.20222V7.04667C205.376 4.52667 206.028 3.87333 209.361 3.87333C212.695 3.87333 213.346 4.52667 213.346 7.04667V7.20222C213.346 9.72222 212.695 10.3756 209.361 10.3756Z" fill="#5200FF"/>
<path d="M221.786 10.7333C223.968 10.7333 225.286 10.2356 226.014 9.34889L225.998 10.2356C225.968 11.8378 225.392 12.5844 221.786 12.5844C218.71 12.5844 218.18 12.1489 218.18 11.2311L216.71 11.2933C216.71 13.3467 217.725 14 221.786 14C226.392 14 227.514 13.0822 227.514 10.4378C227.514 9.22445 227.498 8.29111 227.498 6.96889V4.63556C227.498 3.87333 227.498 3.28222 227.514 2.61333H226.104L226.089 3.81111C225.362 2.90889 224.029 2.42667 221.771 2.42667C217.952 2.42667 216.468 3.18889 216.468 6.50222V6.65778C216.468 9.97111 218.028 10.7333 221.786 10.7333ZM218.013 6.65778V6.50222C218.013 4.51111 218.877 3.84222 222.044 3.84222C225.286 3.84222 225.968 4.49556 225.983 6.50222C225.983 8.49333 225.226 9.31778 222.059 9.31778C218.725 9.31778 218.013 8.64889 218.013 6.65778Z" fill="#5200FF"/>
<path d="M235.911 0.248889V1.69556H237.456V0.248889H235.911ZM235.926 9.19333C235.926 10.2356 235.926 10.9511 235.911 11.6356H237.456C237.441 10.9511 237.441 10.2356 237.441 9.20889V5.24222C237.441 4.12222 237.441 3.28222 237.456 2.61333H235.911C235.926 3.28222 235.926 4.12222 235.926 5.22667V9.19333Z" fill="#5200FF"/>
<path d="M240.231 9.14667C240.231 10.3756 240.231 10.9822 240.216 11.6356H241.761C241.746 10.9822 241.746 10.4067 241.746 9.14667V6.96889C241.746 4.60444 242.458 3.87333 245.428 3.87333C248.504 3.87333 249.08 4.66667 249.08 6.73556V9.16222C249.08 10.4844 249.08 10.9356 249.065 11.6356H250.61C250.595 10.9044 250.595 10.2822 250.595 9.16222V8.21333C250.595 7.28 250.61 6.90667 250.61 6.26889C250.61 3.53111 249.838 2.42667 245.837 2.42667C243.686 2.42667 242.367 2.92444 241.655 3.93556L241.625 2.61333H240.216C240.231 3.22 240.231 3.78 240.231 4.93111V9.14667Z" fill="#5200FF"/>
<path d="M258.964 9.17778C258.964 10.3133 258.964 10.8733 258.949 11.6356H260.495C260.479 10.8578 260.48 10.1889 260.48 9.14667V6.96889C260.48 4.60444 261.192 3.87333 264.162 3.87333C267.237 3.87333 267.813 4.66667 267.813 6.73556V9.17778C267.813 10.2822 267.813 10.8422 267.798 11.6356H269.344C269.328 10.7489 269.329 10.0178 269.329 9.20889V8.21333C269.329 7.28 269.344 6.90667 269.344 6.26889C269.344 3.53111 268.571 2.42667 264.571 2.42667C262.465 2.42667 261.161 2.90889 260.434 3.87333C260.464 2.81556 260.51 0.264445 260.51 0H258.949C258.964 0.668889 258.964 1.49333 258.964 2.61333V9.17778Z" fill="#5200FF"/>
<path d="M277.045 11.8222C281.469 11.8222 282.303 10.92 282.303 8.75778L280.803 8.69556C280.803 9.86222 280.394 10.4378 277.06 10.4378C273.833 10.4378 273.105 9.83111 273.03 7.73111H282.303C282.303 7.46667 282.318 7.14 282.303 6.89111C282.257 3.45333 281.257 2.42667 276.939 2.42667C272.62 2.42667 271.469 3.45333 271.469 6.89111V7.35778C271.469 10.7956 272.62 11.8222 277.045 11.8222ZM276.939 3.78C280.045 3.78 280.636 4.40222 280.697 6.39333H273.03C273.136 4.34 273.893 3.78 276.939 3.78Z" fill="#5200FF"/>
<path d="M284.475 9.14667C284.475 10.3756 284.475 10.9822 284.46 11.6356H286.005C285.99 10.9822 285.99 10.4067 285.99 9.14667V7.06222C285.99 4.44889 286.702 3.87333 289.308 3.87333C291.96 3.87333 292.263 4.24667 292.263 6.00444V6.31556L293.718 6.28444C293.733 6.05111 293.733 5.81778 293.733 5.63111C293.733 3.04889 293.051 2.42667 289.672 2.42667C287.793 2.42667 286.581 2.92444 285.899 3.93556L285.869 2.61333H284.46C284.475 3.22 284.475 3.78 284.475 4.93111V9.14667Z" fill="#5200FF"/>
<path d="M300.735 11.8222C305.16 11.8222 305.993 10.92 305.993 8.75778L304.493 8.69556C304.493 9.86222 304.084 10.4378 300.751 10.4378C297.523 10.4378 296.796 9.83111 296.72 7.73111H305.993C305.993 7.46667 306.008 7.14 305.993 6.89111C305.948 3.45333 304.948 2.42667 300.629 2.42667C296.311 2.42667 295.159 3.45333 295.159 6.89111V7.35778C295.159 10.7956 296.311 11.8222 300.735 11.8222ZM300.629 3.78C303.736 3.78 304.327 4.40222 304.387 6.39333H296.72C296.826 4.34 297.584 3.78 300.629 3.78Z" fill="#5200FF"/>
</svg>
