<svg width="108" height="13" viewBox="0 0 108 13" fill="none" xmlns="http://www.w3.org/2000/svg">
<path d="M2.248 9.392V8.08C3.944 8.08 6.68 8.08 8.232 8.08C11.992 8.08 12.968 6.928 12.968 4.352V4.288C12.968 1.712 11.992 0.639999 8.232 0.639999H0.568C0.584 1.248 0.584 1.888 0.584 2.752V9.392C0.584 10.56 0.584 11.232 0.568 12H2.264C2.248 11.216 2.248 10.576 2.248 9.392ZM8.232 2.144C10.648 2.144 11.24 2.672 11.24 4.32V4.352C11.24 6 10.648 6.56 8.232 6.56H2.248V2.144H8.232ZM19.7854 12.192C22.2654 12.192 23.6734 11.696 24.3774 10.912L24.3934 12H25.8334C25.8174 10.736 25.8174 9.92 25.8174 8.96C25.8174 7.616 25.8334 7.008 25.8334 5.744C25.8334 3.552 25.0174 2.528 20.2814 2.528C15.9774 2.528 15.0014 3.44 15.0334 5.376L16.6494 5.424C16.6334 4.32 17.0174 3.952 20.2814 3.952C23.6574 3.952 24.2174 4.448 24.2174 6.048V7.184C23.4654 6.592 22.0894 6.24 19.7854 6.24C15.5774 6.24 14.6654 7.12 14.6654 9.248C14.6654 11.328 15.5294 12.192 19.7854 12.192ZM20.2494 10.8C16.9854 10.8 16.3134 10.4 16.3134 9.248C16.3134 8.064 16.7454 7.568 20.2494 7.568C23.6894 7.568 24.2494 8.048 24.2494 8.768V9.264C24.2494 10.304 23.6894 10.8 20.2494 10.8ZM33.4904 12.192C38.1464 12.192 38.7384 11.456 38.7384 9.536C38.7384 7.632 38.1624 6.928 33.3624 6.528C29.9224 6.24 29.6824 5.952 29.6824 5.152C29.6824 4.304 30.1784 3.968 33.1864 3.968C36.2424 3.968 36.7224 4.336 36.7224 5.312V5.552L38.3704 5.504C38.3704 3.28 37.5864 2.528 33.2504 2.528C28.9784 2.528 28.1464 3.312 28.1464 5.264C28.1464 7.152 28.8504 7.76 33.1064 8.112C36.8184 8.416 37.1064 8.72 37.1064 9.616C37.1064 10.48 36.7704 10.848 33.5544 10.848C30.1464 10.848 29.6504 10.48 29.6504 9.184V8.928L28.0344 8.976C28.0344 11.664 28.8664 12.192 33.4904 12.192ZM45.756 12.192C50.412 12.192 51.004 11.456 51.004 9.536C51.004 7.632 50.428 6.928 45.628 6.528C42.188 6.24 41.948 5.952 41.948 5.152C41.948 4.304 42.444 3.968 45.452 3.968C48.508 3.968 48.988 4.336 48.988 5.312V5.552L50.636 5.504C50.636 3.28 49.852 2.528 45.516 2.528C41.244 2.528 40.412 3.312 40.412 5.264C40.412 7.152 41.116 7.76 45.372 8.112C49.084 8.416 49.372 8.72 49.372 9.616C49.372 10.48 49.036 10.848 45.82 10.848C42.412 10.848 41.916 10.48 41.916 9.184V8.928L40.3 8.976C40.3 11.664 41.132 12.192 45.756 12.192ZM59.5736 7.44C59.9736 6.4 60.3896 5.36 60.7576 4.416H61.2216C61.5576 5.376 61.9256 6.448 62.2776 7.488L63.8296 12H66.4216C67.2856 9.728 69.1736 4.896 70.1176 2.72H68.4056L66.8536 6.784C66.3896 8.016 65.9096 9.296 65.4936 10.4H64.9016C64.5816 9.376 64.1816 8.192 63.7816 7.024L62.3096 2.72H59.8136L58.2136 6.96C57.7816 8.112 57.3176 9.328 56.9336 10.4H56.3096C55.9416 9.312 55.5096 8.032 55.1096 6.848L53.7176 2.72H51.8936C52.7256 4.864 54.4696 9.728 55.2376 12H57.8296L59.5736 7.44ZM76.7658 12.192C81.3898 12.192 82.6058 11.136 82.6058 7.6V7.12C82.6058 3.584 81.3898 2.528 76.7658 2.528C72.1418 2.528 70.9258 3.584 70.9258 7.12V7.6C70.9258 11.136 72.1418 12.192 76.7658 12.192ZM76.7658 10.704C73.2458 10.704 72.5578 10.032 72.5578 7.44V7.28C72.5578 4.688 73.2458 4.016 76.7658 4.016C80.2858 4.016 80.9738 4.688 80.9738 7.28V7.44C80.9738 10.032 80.2858 10.704 76.7658 10.704ZM84.8935 9.44C84.8935 10.704 84.8935 11.328 84.8775 12H86.5095C86.4935 11.328 86.4935 10.736 86.4935 9.44V7.296C86.4935 4.608 87.2455 4.016 89.9975 4.016C92.7975 4.016 93.1175 4.4 93.1175 6.208V6.528L94.6535 6.496C94.6695 6.256 94.6695 6.016 94.6695 5.824C94.6695 3.168 93.9495 2.528 90.3815 2.528C88.3975 2.528 87.1175 3.04 86.3975 4.08L86.3655 2.72H84.8775C84.8935 3.344 84.8935 3.92 84.8935 5.104V9.44ZM101.696 12.192C104.112 12.192 105.552 11.664 106.32 10.592L106.352 12H107.84C107.824 11.216 107.824 10.672 107.824 9.44V2.72C107.824 1.536 107.824 0.719999 107.84 0.0319996H106.176C106.192 0.688 106.208 2.352 106.208 3.968C105.408 2.992 104.032 2.528 101.792 2.528C97.4078 2.528 96.1758 3.584 96.1758 7.12V7.6C96.1758 11.136 97.4078 12.192 101.696 12.192ZM102.016 10.704C98.5118 10.704 97.8078 10.032 97.8078 7.44V7.28C97.8078 4.688 98.5118 4.016 102.096 4.016C105.504 4.016 106.224 4.752 106.224 7.296V7.424C106.224 9.952 105.504 10.704 102.016 10.704Z" fill="#9EA1AB"/>
</svg>
