<svg width="64" height="10" viewBox="0 0 64 10" fill="none" xmlns="http://www.w3.org/2000/svg">
<path d="M0.4505 7.631C0.4505 8.632 0.4505 9.087 0.4375 9.724H1.8155C1.8025 9.035 1.8025 8.775 1.8025 7.618V6.188H6.6905L7.9125 7.917C8.3285 8.502 8.7185 9.113 9.0955 9.724H10.6815C10.1225 8.931 9.6285 8.203 9.1865 7.527C8.8355 6.994 8.4845 6.5 8.1725 6.058C10.0055 5.746 10.5645 4.862 10.5645 3.237V3.185C10.5645 1.196 9.7715 0.494 6.7165 0.494H0.4375C0.4505 1.105 0.4505 1.495 0.4505 2.184V7.631ZM6.7165 1.703C8.6795 1.703 9.1605 2.093 9.1605 3.237V3.263C9.1605 4.459 8.6795 4.979 6.7165 4.979H1.8025V1.703H6.7165Z" fill="white"/>
<path d="M16.6333 9.88C20.4293 9.88 21.1443 9.126 21.1443 7.319L19.8573 7.267C19.8573 8.242 19.5063 8.723 16.6463 8.723C13.8773 8.723 13.2533 8.216 13.1883 6.461H21.1443C21.1443 6.24 21.1573 5.967 21.1443 5.759C21.1053 2.886 20.2473 2.028 16.5423 2.028C12.8373 2.028 11.8493 2.886 11.8493 5.759V6.149C11.8493 9.022 12.8373 9.88 16.6333 9.88ZM16.5423 3.159C19.2073 3.159 19.7143 3.679 19.7663 5.343H13.1883C13.2793 3.627 13.9293 3.159 16.5423 3.159Z" fill="white"/>
<path d="M26.9076 9.88C30.6906 9.88 31.1716 9.282 31.1716 7.722C31.1716 6.175 30.7036 5.603 26.8036 5.278C24.0086 5.044 23.8136 4.81 23.8136 4.16C23.8136 3.471 24.2166 3.198 26.6606 3.198C29.1436 3.198 29.5336 3.497 29.5336 4.29V4.485L30.8726 4.446C30.8726 2.639 30.2356 2.028 26.7126 2.028C23.2416 2.028 22.5656 2.665 22.5656 4.251C22.5656 5.785 23.1376 6.279 26.5956 6.565C29.6116 6.812 29.8456 7.059 29.8456 7.787C29.8456 8.489 29.5726 8.788 26.9596 8.788C24.1906 8.788 23.7876 8.489 23.7876 7.436V7.228L22.4746 7.267C22.4746 9.451 23.1506 9.88 26.9076 9.88Z" fill="white"/>
<path d="M37.2505 9.88C41.0465 9.88 41.7615 9.126 41.7615 7.319L40.4745 7.267C40.4745 8.242 40.1235 8.723 37.2635 8.723C34.4945 8.723 33.8705 8.216 33.8055 6.461H41.7615C41.7615 6.24 41.7745 5.967 41.7615 5.759C41.7225 2.886 40.8645 2.028 37.1595 2.028C33.4545 2.028 32.4665 2.886 32.4665 5.759V6.149C32.4665 9.022 33.4545 9.88 37.2505 9.88ZM37.1595 3.159C39.8245 3.159 40.3315 3.679 40.3835 5.343H33.8055C33.8965 3.627 34.5465 3.159 37.1595 3.159Z" fill="white"/>
<path d="M43.6248 7.644C43.6248 8.671 43.6248 9.178 43.6118 9.724H44.9378C44.9248 9.178 44.9248 8.697 44.9248 7.644V5.824C44.9248 3.848 45.5358 3.237 48.0838 3.237C50.7228 3.237 51.2168 3.9 51.2168 5.629V7.657C51.2168 8.762 51.2168 9.139 51.2038 9.724H52.5298C52.5168 9.113 52.5168 8.593 52.5168 7.657V6.864C52.5168 6.084 52.5298 5.772 52.5298 5.239C52.5298 2.951 51.8668 2.028 48.4348 2.028C46.5888 2.028 45.4578 2.444 44.8468 3.289L44.8208 2.184H43.6118C43.6248 2.691 43.6248 3.159 43.6248 4.121V7.644Z" fill="white"/>
<path d="M58.8382 9.88C60.8012 9.88 61.9712 9.451 62.5952 8.58L62.6212 9.724H63.8302C63.8172 9.087 63.8172 8.645 63.8172 7.644V2.184C63.8172 1.222 63.8172 0.559 63.8302 0H62.4782C62.4912 0.533 62.5042 1.885 62.5042 3.198C61.8542 2.405 60.7362 2.028 58.9162 2.028C55.3542 2.028 54.3532 2.886 54.3532 5.759V6.149C54.3532 9.022 55.3542 9.88 58.8382 9.88ZM59.0982 8.671C56.2512 8.671 55.6792 8.125 55.6792 6.019V5.889C55.6792 3.783 56.2512 3.237 59.1632 3.237C61.9322 3.237 62.5172 3.835 62.5172 5.902V6.006C62.5172 8.06 61.9322 8.671 59.0982 8.671Z" fill="white"/>
</svg>
