<svg width="232" height="232" viewBox="0 0 232 232" fill="none" xmlns="http://www.w3.org/2000/svg">
<g filter="url(#filter0_b_838_4595)">
<rect y="116" width="164.049" height="164.049" rx="18" transform="rotate(-45 0 116)" fill="#1E2025" fill-opacity="0.5"/>
</g>
<path fill-rule="evenodd" clip-rule="evenodd" d="M121.702 93.7376C121.702 94.1892 122.059 94.5553 122.5 94.5553C122.941 94.5553 123.299 94.1892 123.299 93.7376C123.299 93.286 122.941 92.9199 122.5 92.9199C122.059 92.9199 121.702 93.286 121.702 93.7376Z" stroke="white" stroke-width="0.741828" stroke-linecap="round" stroke-linejoin="round"/>
<path d="M127.718 97.8259C127.718 98.0308 127.884 98.1968 128.089 98.1968C128.294 98.1968 128.46 98.0308 128.46 97.8259H127.718ZM105.731 104.367L106.102 104.368V104.367H105.731ZM106.698 108.495C106.819 108.66 107.051 108.696 107.216 108.575C107.382 108.455 107.418 108.223 107.297 108.057L106.698 108.495ZM128.461 97.8259C128.461 97.621 128.295 97.455 128.09 97.455C127.885 97.455 127.719 97.621 127.719 97.8259H128.461ZM112.12 110.909L112.12 110.538L112.12 110.538L112.12 110.909ZM107.298 108.058C107.178 107.892 106.946 107.855 106.78 107.976C106.615 108.096 106.578 108.328 106.698 108.494L107.298 108.058ZM128.343 98.0977C128.493 97.9583 128.502 97.7236 128.362 97.5735C128.223 97.4234 127.988 97.4147 127.838 97.554L128.343 98.0977ZM120.584 104.794L120.332 104.522L120.329 104.525L120.584 104.794ZM119.37 105.223L119.338 105.592L119.338 105.592L119.37 105.223ZM118.24 104.596L118.535 104.372L118.535 104.372L118.24 104.596ZM115.031 100.375L115.327 100.151L115.326 100.15L115.031 100.375ZM113.741 99.748L113.733 99.3772L113.733 99.3772L113.741 99.748ZM112.476 100.429L112.172 100.216L112.172 100.217L112.476 100.429ZM106.694 108.064C106.577 108.232 106.618 108.463 106.786 108.58C106.954 108.697 107.185 108.656 107.303 108.488L106.694 108.064ZM128.46 97.8259V94.5552H127.718V97.8259H128.46ZM128.46 94.5552C128.46 90.7459 125.442 87.6428 121.701 87.6428V88.3846C125.016 88.3846 127.718 91.1389 127.718 94.5552H128.46ZM121.701 87.6428H112.119V88.3846H121.701V87.6428ZM112.119 87.6428C108.378 87.6428 105.36 90.7459 105.36 94.5552H106.102C106.102 91.1389 108.804 88.3846 112.119 88.3846V87.6428ZM105.36 94.5552V104.367H106.102V94.5552H105.36ZM105.36 104.367C105.358 105.854 105.827 107.302 106.698 108.495L107.297 108.057C106.52 106.993 106.1 105.699 106.102 104.368L105.36 104.367ZM127.719 97.8259V104.367H128.461V97.8259H127.719ZM127.719 104.367C127.719 107.784 125.017 110.538 121.702 110.538V111.28C125.443 111.28 128.461 108.177 128.461 104.367H127.719ZM121.702 110.538H112.12V111.28H121.702V110.538ZM112.12 110.538C110.223 110.539 108.434 109.621 107.298 108.058L106.698 108.494C107.971 110.246 109.981 111.281 112.12 111.28L112.12 110.538ZM127.838 97.554L120.332 104.522L120.837 105.066L128.343 98.0977L127.838 97.554ZM120.329 104.525C120.077 104.764 119.74 104.882 119.401 104.853L119.338 105.592C119.891 105.639 120.435 105.446 120.839 105.064L120.329 104.525ZM119.401 104.853C119.062 104.824 118.747 104.651 118.535 104.372L117.944 104.821C118.281 105.264 118.786 105.546 119.338 105.592L119.401 104.853ZM118.535 104.372L115.327 100.151L114.736 100.6L117.945 104.821L118.535 104.372ZM115.326 100.15C114.946 99.6523 114.356 99.364 113.733 99.3772L113.748 100.119C114.131 100.111 114.497 100.287 114.737 100.601L115.326 100.15ZM113.733 99.3772C113.11 99.3903 112.532 99.7032 112.172 100.216L112.78 100.642C113.007 100.319 113.366 100.127 113.748 100.119L113.733 99.3772ZM112.172 100.217L106.694 108.064L107.303 108.488L112.78 100.642L112.172 100.217Z" fill="white"/>
<path d="M64.4654 133.882C64.4654 131.461 65.1962 130.798 67.5031 130.798C68.7821 130.798 70.4723 131.027 71.6371 131.278L71.9226 130.399C70.7349 130.148 68.9991 129.919 67.4231 129.919C64.0885 129.919 63.4261 131.586 63.4261 133.882C63.4261 136.177 64.0771 137.902 67.366 137.879C69.0905 137.867 70.7121 137.662 72.0254 137.354L71.7513 136.463C70.6093 136.783 69.079 137 67.5031 137C65.3219 137 64.4654 136.154 64.4654 133.882ZM74.4425 133.653C75.082 132.865 76.1898 132.352 77.4688 132.352H77.8457C79.7985 132.352 80.5865 133.14 80.5865 134.487V137.765H81.6143V134.419C81.6143 132.477 80.0611 131.484 77.8457 131.484H77.4688C76.2697 131.484 75.0363 131.94 74.4425 132.557V129.451H73.4261V137.765H74.4425V133.653ZM90.4159 137.822V133.939C90.4159 132.432 89.6165 131.461 86.9442 131.484C85.5852 131.495 84.5117 131.632 83.4497 131.895L83.7238 132.763C84.7287 132.511 85.8707 132.352 87.0127 132.352C88.8399 132.352 89.3995 132.74 89.3995 133.95V134.293C88.6229 134.03 87.3667 133.882 86.5788 133.882H86.1905C83.7466 133.882 83.1071 134.658 83.1071 135.766V135.949C83.1071 137.034 84.0549 137.822 86.2019 137.822H86.5788C87.5837 137.822 88.7029 137.559 89.3995 137.022V137.822H90.4159ZM86.1905 136.954C84.5346 136.954 84.1235 136.508 84.1235 135.949V135.709C84.1235 135.149 84.5346 134.75 86.1905 134.75H86.5788C87.538 134.75 88.5544 134.864 89.3995 135.184V136.189C88.6344 136.703 87.5609 136.954 86.5788 136.954H86.1905ZM92.3405 131.541V137.765H93.3569V133.939C94.0192 133.014 95.1041 132.352 96.3832 132.352H96.76C98.7129 132.352 99.5008 133.14 99.5008 134.487V137.765H100.529V134.419C100.529 132.477 98.9755 131.484 96.76 131.484H96.3832C95.1841 131.484 94.0078 132.009 93.3569 132.786V131.541H92.3405ZM109.275 136.737C109.275 138.004 108.396 138.77 105.792 138.77C104.422 138.77 103.325 138.587 102.366 138.301L102.583 139.261C103.485 139.5 104.73 139.638 105.792 139.638C108.887 139.638 110.291 138.61 110.291 136.897V131.541H109.275V132.5C108.681 131.883 107.391 131.427 106.192 131.427H105.815C103.599 131.427 101.989 132.249 101.989 134.19V134.601C101.989 136.543 103.599 137.251 105.815 137.251H106.192C107.494 137.251 108.681 136.645 109.275 136.006V136.737ZM109.275 134.91C108.658 135.812 107.471 136.383 106.192 136.383H105.815C103.919 136.383 103.017 136.029 103.017 134.59V134.202C103.017 132.854 103.862 132.294 105.815 132.294H106.192C107.471 132.294 108.636 132.808 109.275 133.596V134.91ZM116.587 132.352C118.049 132.352 119.008 132.854 119.008 133.905V134.282H113.367L113.664 135.149H120.025V134.179C120.025 132.237 118.814 131.484 116.507 131.484H115.582C113.276 131.484 111.837 132.477 111.837 134.419V134.887C111.837 136.828 113.276 137.822 115.582 137.822H116.268C117.627 137.822 119.008 137.616 120.105 137.285L119.831 136.429C118.814 136.76 117.41 136.954 116.268 136.954H115.548C113.652 136.954 112.853 136.234 112.853 134.887V134.419C112.853 133.071 113.652 132.352 115.548 132.352H116.587ZM129.466 135.035C132.229 135.035 133.166 134.087 133.166 132.728V132.432C133.166 131.13 132.229 130.045 129.466 130.045H124.749V137.765H125.777V130.913H129.557C131.339 130.913 132.149 131.427 132.149 132.466V132.694C132.149 133.733 131.339 134.167 129.557 134.167H126.2L126.496 135.035H129.466ZM135.702 133.653C136.342 132.865 137.45 132.352 138.729 132.352H139.105C141.058 132.352 141.846 133.14 141.846 134.487V137.765H142.874V134.419C142.874 132.477 141.321 131.484 139.105 131.484H138.729C137.53 131.484 136.296 131.94 135.702 132.557V129.451H134.686V137.765H135.702V133.653ZM148.273 131.484C145.966 131.484 144.413 132.534 144.413 134.476V134.83C144.413 136.771 145.966 137.822 148.273 137.822H149.163C151.47 137.822 153.023 136.771 153.023 134.83V134.476C153.023 132.534 151.47 131.484 149.163 131.484H148.273ZM152.007 134.83C152.007 136.177 151.093 136.954 149.198 136.954H148.238C146.343 136.954 145.429 136.177 145.429 134.83V134.476C145.429 133.128 146.343 132.352 148.238 132.352H149.198C151.093 132.352 152.007 133.128 152.007 134.476V134.83ZM155.781 135.96C155.781 137.194 156.192 137.799 157.734 137.799C158.693 137.799 159.344 137.708 160.109 137.525L160.337 136.623C159.584 136.84 158.887 136.954 158.076 136.954C157.311 136.954 156.797 136.737 156.797 136.177V132.888H160.04V132.02H156.797V130.033H155.781V132.02H154.068V132.888H155.781V135.96ZM164.956 131.484C162.65 131.484 161.096 132.534 161.096 134.476V134.83C161.096 136.771 162.65 137.822 164.956 137.822H165.847C168.154 137.822 169.707 136.771 169.707 134.83V134.476C169.707 132.534 168.154 131.484 165.847 131.484H164.956ZM168.691 134.83C168.691 136.177 167.777 136.954 165.881 136.954H164.922C163.026 136.954 162.113 136.177 162.113 134.83V134.476C162.113 133.128 163.026 132.352 164.922 132.352H165.881C167.777 132.352 168.691 133.128 168.691 134.476V134.83Z" fill="white"/>
<defs>
<filter id="filter0_b_838_4595" x="-14.7988" y="-14.7988" width="261.598" height="261.598" filterUnits="userSpaceOnUse" color-interpolation-filters="sRGB">
<feFlood flood-opacity="0" result="BackgroundImageFix"/>
<feGaussianBlur in="BackgroundImageFix" stdDeviation="11.1274"/>
<feComposite in2="SourceAlpha" operator="in" result="effect1_backgroundBlur_838_4595"/>
<feBlend mode="normal" in="SourceGraphic" in2="effect1_backgroundBlur_838_4595" result="shape"/>
</filter>
</defs>
</svg>
