<svg width="50" height="12" viewBox="0 0 50 12" fill="none" xmlns="http://www.w3.org/2000/svg">
<path d="M7.059 9.802C7.956 7.956 10.725 2.34 11.648 0.572H10.231L7.969 5.187C7.397 6.357 6.812 7.566 6.37 8.502H5.278C4.836 7.566 4.277 6.383 3.718 5.2L1.521 0.572H0C0.884 2.34 3.601 7.969 4.472 9.802H7.059Z" fill="white"/>
<path d="M16.2715 9.958C20.0675 9.958 20.7825 9.204 20.7825 7.397L19.4955 7.345C19.4955 8.32 19.1445 8.801 16.2845 8.801C13.5155 8.801 12.8915 8.294 12.8265 6.539H20.7825C20.7825 6.318 20.7955 6.045 20.7825 5.837C20.7435 2.964 19.8855 2.106 16.1805 2.106C12.4755 2.106 11.4875 2.964 11.4875 5.837V6.227C11.4875 9.1 12.4755 9.958 16.2715 9.958ZM16.1805 3.237C18.8455 3.237 19.3525 3.757 19.4045 5.421H12.8265C12.9175 3.705 13.5675 3.237 16.1805 3.237Z" fill="white"/>
<path d="M22.6459 7.722C22.6459 8.749 22.6459 9.256 22.6329 9.802H23.9589C23.9459 9.256 23.9459 8.775 23.9459 7.722V5.98C23.9459 3.796 24.5569 3.315 26.7929 3.315C29.0679 3.315 29.3279 3.627 29.3279 5.096V5.356L30.5759 5.33C30.5889 5.135 30.5889 4.94 30.5889 4.784C30.5889 2.626 30.0039 2.106 27.1049 2.106C25.4929 2.106 24.4529 2.522 23.8679 3.367L23.8419 2.262H22.6329C22.6459 2.769 22.6459 3.237 22.6459 4.199V7.722Z" fill="white"/>
<path d="M32.3327 0.285999V1.495H33.6587V0.285999H32.3327ZM32.3457 7.761C32.3457 8.632 32.3457 9.23 32.3327 9.802H33.6587C33.6457 9.23 33.6457 8.632 33.6457 7.774V4.459C33.6457 3.523 33.6457 2.821 33.6587 2.262H32.3327C32.3457 2.821 32.3457 3.523 32.3457 4.446V7.761Z" fill="white"/>
<path d="M36.4165 5.421C36.4165 6.461 36.4165 8.775 36.4035 9.802H37.7295C37.7165 9.23 37.7165 8.489 37.7165 7.722V3.445H39.7185V2.262H37.7165V2.145C37.7165 1.378 37.9375 1.196 38.5225 1.17C39.0035 1.144 39.5625 1.118 39.9005 1.118L39.8615 0C39.5885 0.0129998 38.8865 0.0259998 38.2625 0.0650001C36.9235 0.143 36.4035 0.559 36.4035 2.015C36.4035 2.093 36.4035 2.171 36.4035 2.262H35.1685L35.1165 3.445H36.4035C36.4165 4.095 36.4165 4.81 36.4165 5.421Z" fill="white"/>
<path d="M45.9025 10.036C46.8775 8.112 48.9185 4.03 49.8545 2.262H48.4505L46.8385 5.408C46.4095 6.24 45.9805 7.085 45.6165 7.826H44.8885C44.4335 7.072 43.9005 6.214 43.3805 5.369L41.4825 2.262H40.0005C41.1315 4.043 43.1855 7.436 44.1345 9.035H44.9925L44.7585 9.451C44.2905 10.283 43.9915 10.452 43.2245 10.452C42.7305 10.452 42.3275 10.439 41.9115 10.413L41.8725 11.583C42.3535 11.609 42.9515 11.635 43.2635 11.635C44.5895 11.635 45.3045 11.219 45.9025 10.036Z" fill="white"/>
</svg>
