<svg width="478" height="95" viewBox="0 0 478 95" fill="none" xmlns="http://www.w3.org/2000/svg">
<path d="M47.8913 45.3104C65.1672 25.3996 19.4627 15.8526 0 15.1379L2.62418 1.81299H81.7871L78.2881 15.1379H46.7979C75.664 22.3364 72.8211 40.0519 68.6661 45.3104H47.8913Z" fill="#5200FF"/>
<path d="M83.5861 34.5837C82.8413 38.6901 82.3447 41.7547 81.7861 44.3902H96.682C97.1164 41.6934 97.675 38.6289 98.3577 34.5837L98.4819 33.7256H138.891L140.753 37.0353C142.242 39.7321 143.608 42.3063 144.601 44.3902H160.676C159 41.3256 157.262 38.0772 155.648 34.8901C154.842 33.4192 154.035 31.9482 153.166 30.4772C160.303 28.5772 163.469 24.8385 164.772 17.361C166.882 5.59324 160.179 0.873867 144.352 0.873867H89.5444C89.234 3.01904 88.7996 5.28679 88.3031 8.22874L83.5861 34.5837ZM142.615 12.8868C148.821 12.8868 150.373 14.2352 149.814 17.361C149.256 20.4869 147.207 21.9578 141.001 21.9578H100.592L102.268 12.8868H142.615Z" fill="#5200FF"/>
<path d="M189.191 0.873867C183.108 10.8029 170.048 36.0547 164.772 44.3902H181.468L184.633 38.6901H228.231L229.473 44.3902H244.679C242.382 36.0547 235.865 10.8029 233.383 0.873867H189.191ZM191.212 26.9836C193.695 22.5094 194.833 17.9126 197.13 13.6223H223.018C223.825 18.0352 224.818 22.7546 225.811 27.2901H191.026L191.212 26.9836Z" fill="#5200FF"/>
<path d="M291.949 45.2482C315.844 45.2482 323.851 41.3256 326.395 25.9417L311.686 25.6966C310.879 30.3546 306.534 32.5611 293.314 32.5611C280.715 32.5611 262.134 32.7616 263.561 24.7326V20.529C265.051 12.4387 280.715 12.703 293.314 12.703C306.72 12.703 313.548 14.7256 312.679 19.5675L327.45 19.3223C329.933 4.98035 318.823 0.0158313 294.928 0.0158313C271.095 0.0158313 251.894 -1.36445 248.541 21.6514V24.7326C250.297 47.5017 268.115 45.2482 291.949 45.2482Z" fill="#5200FF"/>
<path d="M333.619 34.5837C332.875 38.6901 332.378 41.6934 331.819 44.3902H346.715C347.15 41.6321 347.708 38.6289 348.391 34.5837L349.57 28.0869H370.574C373.181 31.3353 375.229 33.9095 376.781 35.9321L383.546 44.3902H401.359L401.421 44.2676C397.635 39.8547 388.325 28.332 382.863 21.4675C390.497 15.0933 402.538 5.04163 407.503 0.996451L407.441 0.873867H388.821L377.587 10.8029C375.787 12.3352 373.801 14.1126 371.381 16.1352H351.681L353.108 8.22874C353.667 5.16421 354.039 3.14162 354.473 0.873867H339.578C339.267 3.08033 338.833 5.28679 338.336 8.22874L333.619 34.5837Z" fill="#5200FF"/>
<path d="M409.759 16.7902L407.525 29.2934H430.327L432.562 16.7902H409.759Z" fill="#5200FF"/>
<path d="M475.977 45.3098H441.65L443.674 33.7105H455.887L459.45 13.1603L446.387 16.9197L448.483 5.32045L465.354 0H476.194L470.268 33.7105H478L475.977 45.3098Z" fill="#5200FF"/>
<path d="M42.771 89.6507C42.771 90.8236 42.771 91.5166 42.751 92.4585H50.8159C57.8202 92.4585 59.5612 91.0191 59.5612 86.2922V86.0078C59.5612 81.2809 57.8202 79.8415 50.8359 79.8415H42.751C42.771 80.6412 42.771 81.2276 42.771 82.1517V89.6507ZM50.8359 81.9384C55.939 81.9384 56.8396 82.7914 56.8396 86.0611V86.2388C56.8396 89.5086 55.939 90.3616 50.8159 90.3616H45.4326V81.9384H50.8359Z" fill="#535559"/>
<path d="M62.2718 79.2907V81.0677H64.9134V79.2907H62.2718ZM62.2918 89.473C62.2918 90.7703 62.2918 91.641 62.2718 92.4585H64.9134C64.8934 91.641 64.8934 90.7703 64.8934 89.4908V85.066C64.8934 83.8043 64.8934 82.8625 64.9134 82.1161H62.2718C62.2918 82.8625 62.2918 83.8221 62.2918 85.066V89.473Z" fill="#535559"/>
<path d="M74.4563 92.6717C80.3399 92.6717 81.1804 91.8187 81.1804 89.5797C81.1804 87.5005 80.4199 86.6476 74.5163 86.2566C70.3338 85.9545 70.0536 85.688 70.0536 84.8883C70.0536 84.0709 70.5939 83.7332 74.016 83.7332C77.6182 83.7332 78.1385 84.1064 78.1385 85.066V85.297L80.7201 85.2437C80.7201 82.7559 79.7996 81.9029 74.0961 81.9029C68.6527 81.9029 67.5521 82.8092 67.5521 85.0127C67.5521 87.1451 68.4526 87.8559 73.7759 88.2291C78.2186 88.5312 78.5588 88.8333 78.5588 89.7218C78.5588 90.5748 78.1986 90.9124 74.5163 90.9124C70.4739 90.9124 69.9535 90.557 69.9535 89.3309V89.0643L67.392 89.1176C67.392 92.0853 68.4726 92.6717 74.4563 92.6717Z" fill="#535559"/>
<path d="M90.2966 92.6717C96.1802 92.6717 97.581 91.4989 97.581 88.3357L95.0195 88.2824C95.0195 89.9351 94.259 90.6103 90.3166 90.6103C86.2941 90.6103 85.5337 89.9351 85.5337 87.3584V87.2162C85.5337 84.6217 86.2941 83.9642 90.3166 83.9642C94.259 83.9642 94.9795 84.6573 94.9795 86.2922V86.2744L97.541 86.2211C97.541 82.9691 96.2002 81.9029 90.2966 81.9029C84.493 81.9029 82.9121 83.0757 82.9121 87.0207V87.5538C82.9121 91.4989 84.5131 92.6717 90.2966 92.6717Z" fill="#535559"/>
<path d="M106.871 92.6717C112.835 92.6717 114.356 91.4989 114.356 87.5538V87.0207C114.356 83.0757 112.835 81.9029 106.871 81.9029C100.927 81.9029 99.4065 83.0757 99.4065 87.0207V87.5538C99.4065 91.4989 100.927 92.6717 106.871 92.6717ZM106.871 90.6103C102.789 90.6103 102.028 89.9351 102.028 87.3584V87.2162C102.028 84.6217 102.789 83.9642 106.871 83.9642C110.974 83.9642 111.714 84.6217 111.714 87.2162V87.3584C111.714 89.9351 110.974 90.6103 106.871 90.6103Z" fill="#535559"/>
<path d="M124.97 92.4585C126.331 89.9351 129.273 84.5329 130.634 82.1161H127.812L125.451 86.5587C124.77 87.8382 124.11 89.1354 123.549 90.2549H122.109C121.548 89.1354 120.868 87.8204 120.207 86.5409L117.866 82.1161H114.924C116.265 84.5329 119.307 90.2016 120.488 92.4585H124.97Z" fill="#535559"/>
<path d="M138.708 92.6717C144.692 92.6717 145.872 91.641 145.872 89.0288L143.331 88.9577C143.331 90.1661 142.81 90.7347 138.728 90.7347C134.846 90.7347 133.965 90.1305 133.845 87.9626H145.872C145.872 87.696 145.892 87.3761 145.872 87.0207C145.852 83.0757 144.431 81.9029 138.588 81.9029C132.764 81.9029 131.203 83.0757 131.203 87.0207V87.5538C131.203 91.4989 132.764 92.6717 138.708 92.6717ZM138.608 83.6799C142.37 83.6799 143.111 84.3019 143.171 86.3099H133.845C134.005 84.2308 134.926 83.6799 138.608 83.6799Z" fill="#535559"/>
<path d="M148.457 89.6152C148.457 90.948 148.457 91.6766 148.437 92.4585H151.078C151.058 91.6766 151.058 90.9835 151.058 89.6152V87.4472C151.058 84.6217 151.859 83.9998 155.141 83.9998C158.363 83.9998 158.763 84.4085 158.763 86.2388V86.5765L161.265 86.5409C161.285 86.1322 161.285 85.8479 161.285 85.528C161.285 82.667 160.344 81.9029 156.021 81.9029C153.38 81.9029 151.779 82.5071 150.918 83.6977L150.898 82.1161H148.437C148.457 82.8092 148.457 83.4844 148.457 84.7106V89.6152Z" fill="#535559"/>
<path d="M179.391 92.5651C180.871 89.9706 183.953 84.5329 185.394 82.1161H182.593L180.191 86.2922C179.631 87.2873 179.07 88.3002 178.57 89.2243H177.469C176.849 88.2824 176.129 87.2695 175.448 86.2566L172.606 82.1161H169.665C171.406 84.5507 174.368 88.9044 175.868 91.179H177.429L177.129 91.6588C176.469 92.7605 176.009 92.9916 174.788 92.9916C174.027 92.9916 173.327 92.9738 172.506 92.9382L172.466 94.893C173.287 94.9641 174.287 94.9996 174.868 94.9996C177.289 94.9996 178.33 94.4132 179.391 92.5651Z" fill="#535559"/>
<path d="M193.428 92.6717C199.392 92.6717 200.912 91.4989 200.912 87.5538V87.0207C200.912 83.0757 199.392 81.9029 193.428 81.9029C187.484 81.9029 185.963 83.0757 185.963 87.0207V87.5538C185.963 91.4989 187.484 92.6717 193.428 92.6717ZM193.428 90.6103C189.345 90.6103 188.585 89.9351 188.585 87.3584V87.2162C188.585 84.6217 189.345 83.9642 193.428 83.9642C197.53 83.9642 198.271 84.6217 198.271 87.2162V87.3584C198.271 89.9351 197.53 90.6103 193.428 90.6103Z" fill="#535559"/>
<path d="M203.43 86.0256C203.43 87.1984 203.41 87.6782 203.41 88.4779C203.41 91.4455 204.391 92.6717 209.454 92.6717C212.376 92.6717 214.077 92.0497 214.977 90.8414L215.017 92.4585H217.459C217.439 91.7476 217.439 91.0901 217.439 89.864V84.9594C217.439 83.6088 217.439 82.898 217.459 82.1161H214.837C214.857 82.898 214.857 83.5911 214.857 84.9594V87.3051C214.857 89.8284 214.017 90.5748 210.435 90.5748C206.692 90.5748 206.012 89.7929 206.012 87.5361V84.9238C206.012 83.4844 206.012 82.9513 206.032 82.1161H203.41C203.43 82.9869 203.43 83.7332 203.43 84.9238V86.0256Z" fill="#535559"/>
<path d="M220.728 89.6152C220.728 90.948 220.728 91.6766 220.708 92.4585H223.349C223.329 91.6766 223.329 90.9835 223.329 89.6152V87.4472C223.329 84.6217 224.13 83.9998 227.412 83.9998C230.634 83.9998 231.034 84.4085 231.034 86.2388V86.5765L233.535 86.5409C233.555 86.1322 233.555 85.8479 233.555 85.528C233.555 82.667 232.615 81.9029 228.292 81.9029C225.651 81.9029 224.05 82.5071 223.189 83.6977L223.169 82.1161H220.708C220.728 82.8092 220.728 83.4844 220.728 84.7106V89.6152Z" fill="#535559"/>
<path d="M243.496 89.473C243.496 90.7703 243.496 91.641 243.476 92.4585H246.118C246.098 91.641 246.098 90.7703 246.098 89.4908V82.1339C246.098 80.8722 246.098 79.9126 246.118 79.1663H243.476C243.496 79.9304 243.496 80.8722 243.496 82.1161V89.473Z" fill="#535559"/>
<path d="M249.437 79.2907V81.0677H252.079V79.2907H249.437ZM249.457 89.473C249.457 90.7703 249.457 91.641 249.437 92.4585H252.079C252.059 91.641 252.059 90.7703 252.059 89.4908V85.066C252.059 83.8043 252.059 82.8625 252.079 82.1161H249.437C249.457 82.8625 249.457 83.8221 249.457 85.066V89.473Z" fill="#535559"/>
<path d="M255.378 89.6152C255.378 90.948 255.378 91.6766 255.358 92.4585H257.999C257.979 91.6766 257.979 90.9835 257.979 89.6152V87.2695C257.979 84.7284 258.8 83.9998 261.701 83.9998C264.283 83.9998 264.983 84.5507 264.983 86.381V89.6685C264.983 91.0013 264.984 91.5699 264.963 92.4585H267.585C267.565 91.3745 267.565 90.5748 267.565 89.6152V87.2695C267.565 84.7284 268.446 83.9998 271.307 83.9998C273.889 83.9998 274.589 84.5507 274.589 86.381V89.6507C274.589 91.0013 274.589 91.5699 274.569 92.4585H277.211C277.191 91.3922 277.191 90.5926 277.191 89.6507V88.6911C277.191 87.0918 277.211 86.2388 277.211 85.4392C277.211 82.898 276.23 81.9029 272.308 81.9029C269.726 81.9029 268.225 82.5426 267.425 83.8043C266.945 82.4538 265.664 81.9029 262.782 81.9029C260.221 81.9029 258.68 82.5071 257.839 83.7688L257.819 82.1161H255.358C255.378 82.8092 255.378 83.4844 255.378 84.7106V89.6152Z" fill="#535559"/>
<path d="M280.452 79.2907V81.0677H283.094V79.2907H280.452ZM280.472 89.473C280.472 90.7703 280.472 91.641 280.452 92.4585H283.094C283.074 91.641 283.074 90.7703 283.074 89.4908V85.066C283.074 83.8043 283.074 82.8625 283.094 82.1161H280.452C280.472 82.8625 280.472 83.8221 280.472 85.066V89.473Z" fill="#535559"/>
<path d="M287.133 85.8834C287.133 86.9141 287.113 87.9448 287.113 88.7622C287.113 91.8009 288.254 92.5473 293.177 92.5473C293.997 92.5473 294.778 92.5118 295.518 92.4585L295.498 90.4504C294.698 90.5037 294.277 90.5215 293.397 90.5215C290.415 90.5215 289.735 90.2549 289.735 88.2113V84.1242H295.498V82.1161H289.735C289.735 81.2276 289.735 80.5523 289.755 80.0903L287.113 80.1259C287.133 80.9255 287.133 81.4942 287.133 82.1161C286.493 82.1161 285.772 82.1161 285.032 82.1161V84.1242H287.133V85.8834Z" fill="#535559"/>
<path d="M297.924 89.473C297.924 90.7703 297.924 91.641 297.904 92.4585H300.546C300.526 91.641 300.526 90.7703 300.526 89.4908V82.1339C300.526 80.8722 300.526 79.9126 300.546 79.1663H297.904C297.924 79.9304 297.924 80.8722 297.924 82.1161V89.473Z" fill="#535559"/>
<path d="M310.649 92.6717C316.633 92.6717 317.813 91.641 317.813 89.0288L315.272 88.9577C315.272 90.1661 314.751 90.7347 310.669 90.7347C306.787 90.7347 305.906 90.1305 305.786 87.9626H317.813C317.813 87.696 317.833 87.3761 317.813 87.0207C317.793 83.0757 316.372 81.9029 310.529 81.9029C304.705 81.9029 303.144 83.0757 303.144 87.0207V87.5538C303.144 91.4989 304.705 92.6717 310.649 92.6717ZM310.549 83.6799C314.311 83.6799 315.052 84.3019 315.112 86.3099H305.786C305.946 84.2308 306.867 83.6799 310.549 83.6799Z" fill="#535559"/>
<path d="M326.642 92.6717C332.525 92.6717 333.366 91.8187 333.366 89.5797C333.366 87.5005 332.605 86.6476 326.702 86.2566C322.519 85.9545 322.239 85.688 322.239 84.8883C322.239 84.0709 322.779 83.7332 326.201 83.7332C329.804 83.7332 330.324 84.1064 330.324 85.066V85.297L332.906 85.2437C332.906 82.7559 331.985 81.9029 326.281 81.9029C320.838 81.9029 319.737 82.8092 319.737 85.0127C319.737 87.1451 320.638 87.8559 325.961 88.2291C330.404 88.5312 330.744 88.8333 330.744 89.7218C330.744 90.5748 330.384 90.9124 326.702 90.9124C322.659 90.9124 322.139 90.557 322.139 89.3309V89.0643L319.577 89.1176C319.577 92.0853 320.658 92.6717 326.642 92.6717Z" fill="#535559"/>
<path d="M342.042 92.6717C347.925 92.6717 348.766 91.8187 348.766 89.5797C348.766 87.5005 348.005 86.6476 342.102 86.2566C337.919 85.9545 337.639 85.688 337.639 84.8883C337.639 84.0709 338.179 83.7332 341.601 83.7332C345.204 83.7332 345.724 84.1064 345.724 85.066V85.297L348.306 85.2437C348.306 82.7559 347.385 81.9029 341.681 81.9029C336.238 81.9029 335.137 82.8092 335.137 85.0127C335.137 87.1451 336.038 87.8559 341.361 88.2291C345.804 88.5312 346.144 88.8333 346.144 89.7218C346.144 90.5748 345.784 90.9124 342.102 90.9124C338.059 90.9124 337.539 90.557 337.539 89.3309V89.0643L334.977 89.1176C334.977 92.0853 336.058 92.6717 342.042 92.6717Z" fill="#535559"/>
<path d="M359.502 85.8834C359.502 86.9141 359.482 87.9448 359.482 88.7622C359.482 91.8009 360.622 92.5473 365.545 92.5473C366.366 92.5473 367.146 92.5118 367.887 92.4585L367.867 90.4504C367.066 90.5037 366.646 90.5215 365.765 90.5215C362.784 90.5215 362.103 90.2549 362.103 88.2113V84.1242H367.867V82.1161H362.103C362.103 81.2276 362.103 80.5523 362.123 80.0903L359.482 80.1259C359.502 80.9255 359.502 81.4942 359.502 82.1161C358.861 82.1161 358.141 82.1161 357.4 82.1161V84.1242H359.502V85.8834Z" fill="#535559"/>
<path d="M370.253 89.6152C370.253 90.948 370.253 91.6766 370.233 92.4585H372.874C372.854 91.6766 372.854 90.9835 372.854 89.6152V87.4472C372.854 84.6217 373.655 83.9998 376.937 83.9998C380.159 83.9998 380.559 84.4085 380.559 86.2388V86.5765L383.06 86.5409C383.08 86.1322 383.08 85.8479 383.08 85.528C383.08 82.667 382.14 81.9029 377.817 81.9029C375.176 81.9029 373.575 82.5071 372.714 83.6977L372.694 82.1161H370.233C370.253 82.8092 370.253 83.4844 370.253 84.7106V89.6152Z" fill="#535559"/>
<path d="M390.908 92.6717C394.13 92.6717 395.811 92.1208 396.612 91.179L396.652 92.4585H399.013C398.993 91.0546 398.993 90.1483 398.993 89.0821C398.993 87.4472 399.013 86.843 399.013 85.4392C399.013 83.0224 397.933 81.9029 391.909 81.9029C386.406 81.9029 385.085 82.8447 385.125 85.1904L387.626 85.2437C387.606 84.1419 388.027 83.7865 391.869 83.7865C395.811 83.7865 396.412 84.2841 396.412 85.919V87.1096C395.531 86.4165 393.87 86.0611 390.908 86.0611C385.725 86.0611 384.625 87.0385 384.625 89.402C384.625 91.7299 385.685 92.6717 390.908 92.6717ZM391.829 90.8769C387.967 90.8769 387.246 90.4859 387.246 89.3486C387.246 88.1936 387.726 87.7138 391.869 87.7138C395.851 87.7138 396.472 88.1758 396.472 88.9222V89.3664C396.472 90.3971 395.851 90.8769 391.829 90.8769Z" fill="#535559"/>
<path d="M408.968 92.6717C414.852 92.6717 416.252 91.4989 416.252 88.3357L413.691 88.2824C413.691 89.9351 412.93 90.6103 408.988 90.6103C404.965 90.6103 404.205 89.9351 404.205 87.3584V87.2162C404.205 84.6217 404.965 83.9642 408.988 83.9642C412.93 83.9642 413.651 84.6573 413.651 86.2922V86.2744L416.212 86.2211C416.212 82.9691 414.872 81.9029 408.968 81.9029C403.164 81.9029 401.583 83.0757 401.583 87.0207V87.5538C401.583 91.4989 403.184 92.6717 408.968 92.6717Z" fill="#535559"/>
<path d="M418.818 89.473C418.818 90.7703 418.818 91.641 418.798 92.4585H421.44C421.42 91.641 421.42 90.7703 421.42 89.4908V88.2291H424.402C424.982 88.7089 425.622 89.2243 426.323 89.7396L429.925 92.4585H433.307L433.347 92.4229C431.546 91.0901 428.444 88.6556 426.423 87.0918C428.384 85.5813 431.226 83.4489 433.067 82.1517L433.027 82.1161H429.765L426.603 84.4263C425.803 85.0127 425.002 85.6169 424.282 86.1678H421.42V82.1339C421.42 80.8722 421.42 79.9126 421.44 79.1663H418.798C418.818 79.9304 418.818 80.8722 418.818 82.1161V89.473Z" fill="#535559"/>
</svg>
