<svg width="514" height="16" viewBox="0 0 514 16" fill="none" xmlns="http://www.w3.org/2000/svg">
<path d="M8.88538 6.948C9.68438 5.35 10.4834 3.735 11.1464 2.426H11.6564C11.8264 3.752 12.0304 5.384 12.2344 6.999L12.9994 13H15.9744C17.2834 10.586 21.3294 3.242 22.6894 0.929999H20.6664L17.4534 6.948C16.6034 8.529 15.7704 10.093 15.1244 11.3H14.3254C14.1724 10.076 13.9854 8.495 13.7984 6.897L13.0334 0.929999H10.0584L7.11738 6.914C6.33538 8.495 5.57038 10.076 4.99238 11.3H4.21038C3.98938 10.093 3.73438 8.529 3.46238 6.948L2.42538 0.929999H0.589383C1.09938 3.242 2.49338 10.586 2.90138 13H5.87638L8.88538 6.948ZM26.5182 13.204C29.1532 13.204 30.7512 12.677 31.6352 11.844L31.4482 13H32.9782C33.1992 11.657 33.3522 10.79 33.5392 9.77C33.7772 8.342 33.9132 7.696 34.1512 6.353C34.5592 4.024 33.7092 2.936 28.6772 2.936C24.1042 2.936 23.0672 3.905 22.7442 5.962L24.4612 6.013C24.6482 4.84 25.1242 4.449 28.5922 4.449C32.1792 4.449 32.6722 4.976 32.3832 6.676L32.1622 7.883C31.4822 7.254 30.0882 6.88 27.6402 6.88C23.1692 6.88 22.0302 7.815 21.6222 10.076C21.2482 12.286 21.9962 13.204 26.5182 13.204ZM27.2662 11.725C23.7982 11.725 23.1692 11.3 23.3732 10.076C23.5942 8.818 24.1552 8.291 27.8782 8.291C31.5332 8.291 32.0432 8.801 31.9072 9.566L31.8052 10.093C31.6182 11.198 30.9212 11.725 27.2662 11.725ZM36.4898 10.28C36.2518 11.623 36.1328 12.286 35.9968 13H37.7308C37.8328 12.286 37.9518 11.657 38.1898 10.28L38.6148 7.9C39.0738 5.316 40.0088 4.517 43.3408 4.517C46.7918 4.517 47.2848 5.384 46.8938 7.645L46.4178 10.297C46.1628 11.742 46.0778 12.235 45.9248 13H47.6588C47.7778 12.201 47.8968 11.521 48.1178 10.297L48.3048 9.26C48.4748 8.24 48.5768 7.832 48.6958 7.135C49.2228 4.143 48.2708 2.936 43.7828 2.936C41.5728 2.936 40.0768 3.48 39.0908 4.585L39.3118 3.14H37.7308C37.6288 3.803 37.5268 4.415 37.3058 5.673L36.4898 10.28ZM52.3212 6.88C52.1852 7.713 51.9982 8.682 51.8622 9.43C51.3522 12.354 52.2872 13.085 56.2992 13.085C57.0472 13.085 57.5062 13.051 58.0502 13L58.3052 11.453C57.6592 11.487 57.2512 11.504 56.4862 11.504C53.8852 11.504 53.2562 11.249 53.6132 9.192L54.4122 4.687H59.4952L59.7672 3.14H54.7012C54.8372 2.29 54.9562 1.61 55.0412 1.202L53.3072 1.236C53.1712 2.018 53.0862 2.579 52.9842 3.14C52.4402 3.14 51.8962 3.157 51.1992 3.14L50.9272 4.687H52.7122L52.3212 6.88ZM68.2587 6.88C68.1227 7.713 67.9357 8.682 67.7997 9.43C67.2897 12.354 68.2247 13.085 72.2367 13.085C72.9847 13.085 73.4437 13.051 73.9877 13L74.2427 11.453C73.5967 11.487 73.1887 11.504 72.4237 11.504C69.8227 11.504 69.1937 11.249 69.5507 9.192L70.3497 4.687H75.4327L75.7047 3.14H70.6387C70.7747 2.29 70.8937 1.61 70.9787 1.202L69.2447 1.236C69.1087 2.018 69.0237 2.579 68.9217 3.14C68.3777 3.14 67.8337 3.157 67.1367 3.14L66.8647 4.687H68.6497L68.2587 6.88ZM81.968 13.204C86.881 13.204 88.173 12.082 88.836 8.325L88.921 7.815C89.584 4.058 88.292 2.936 83.379 2.936C78.466 2.936 77.174 4.058 76.511 7.815L76.426 8.325C75.763 12.082 77.055 13.204 81.968 13.204ZM82.036 11.623C78.296 11.623 77.701 10.909 78.177 8.155L78.211 7.985C78.704 5.231 79.554 4.517 83.294 4.517C87.034 4.517 87.646 5.231 87.153 7.985L87.119 8.155C86.643 10.909 85.776 11.623 82.036 11.623ZM101.791 15.584C106.959 15.584 108.217 14.581 108.727 11.691C108.965 10.365 109.135 9.345 109.39 7.9L109.832 5.35C109.985 4.517 110.087 3.871 110.24 3.14H108.659L108.387 4.585C107.707 3.514 106.211 2.936 103.661 2.936C99.3765 2.936 97.7445 3.769 97.0985 7.39L97.0645 7.56C96.4355 11.181 98.2885 12.014 102.505 12.014C104.817 12.014 106.296 11.487 107.248 10.552L107.078 11.47C106.738 13.221 105.939 14.037 101.893 14.037C98.4415 14.037 97.9315 13.561 98.1015 12.558L96.4525 12.626C96.0445 14.87 97.2345 15.584 101.791 15.584ZM98.7985 7.56L98.8325 7.39C99.2235 5.214 100.312 4.483 103.865 4.483C107.52 4.483 108.166 5.214 107.775 7.407C107.384 9.6 106.381 10.467 102.828 10.467C99.0875 10.467 98.4245 9.736 98.7985 7.56ZM117.381 13.204C122.345 13.204 123.212 12.218 123.637 9.855L121.954 9.787C121.733 11.062 121.172 11.691 117.432 11.691C113.811 11.691 113.114 11.028 113.42 8.733H123.824C123.875 8.444 123.96 8.087 123.994 7.815C124.555 4.177 123.484 2.936 118.639 2.936C113.794 2.936 112.502 4.058 111.839 7.815L111.754 8.325C111.142 11.98 112.417 13.204 117.381 13.204ZM118.571 4.415C122.056 4.415 122.6 5.095 122.277 7.271H113.675C114.202 5.027 115.154 4.415 118.571 4.415ZM127.128 6.88C126.992 7.713 126.805 8.682 126.669 9.43C126.159 12.354 127.094 13.085 131.106 13.085C131.854 13.085 132.313 13.051 132.857 13L133.112 11.453C132.466 11.487 132.058 11.504 131.293 11.504C128.692 11.504 128.063 11.249 128.42 9.192L129.219 4.687H134.302L134.574 3.14H129.508C129.644 2.29 129.763 1.61 129.848 1.202L128.114 1.236C127.978 2.018 127.893 2.579 127.791 3.14C127.247 3.14 126.703 3.157 126.006 3.14L125.734 4.687H127.519L127.128 6.88ZM146.431 13.204C149.066 13.204 150.664 12.677 151.548 11.844L151.361 13H152.891C153.112 11.657 153.265 10.79 153.452 9.77C153.69 8.342 153.826 7.696 154.064 6.353C154.472 4.024 153.622 2.936 148.59 2.936C144.017 2.936 142.98 3.905 142.657 5.962L144.374 6.013C144.561 4.84 145.037 4.449 148.505 4.449C152.092 4.449 152.585 4.976 152.296 6.676L152.075 7.883C151.395 7.254 150.001 6.88 147.553 6.88C143.082 6.88 141.943 7.815 141.535 10.076C141.161 12.286 141.909 13.204 146.431 13.204ZM147.179 11.725C143.711 11.725 143.082 11.3 143.286 10.076C143.507 8.818 144.068 8.291 147.791 8.291C151.446 8.291 151.956 8.801 151.82 9.566L151.718 10.093C151.531 11.198 150.834 11.725 147.179 11.725ZM167.93 13.204C172.775 13.204 173.88 12.099 174.407 9.175L172.724 9.124C172.418 10.892 171.568 11.623 167.964 11.623C164.292 11.623 163.697 10.909 164.173 8.155L164.207 7.985C164.7 5.231 165.55 4.517 169.222 4.517C172.826 4.517 173.37 5.282 173.064 7.016L174.764 6.965C175.291 3.956 174.135 2.936 169.273 2.936C164.496 2.936 163.17 4.058 162.507 7.815L162.422 8.325C161.759 12.082 163.17 13.204 167.93 13.204ZM176.574 10.314C176.353 11.555 176.251 12.167 176.081 13H177.815C177.951 12.15 178.07 11.419 178.274 10.28L178.699 7.9C179.158 5.316 180.093 4.517 183.425 4.517C186.876 4.517 187.369 5.384 186.978 7.645L186.502 10.314C186.281 11.521 186.179 12.133 186.009 13H187.743C187.896 12.031 188.032 11.232 188.202 10.348L188.389 9.26C188.559 8.24 188.661 7.832 188.78 7.135C189.307 4.143 188.355 2.936 183.867 2.936C181.623 2.936 180.195 3.412 179.277 4.347C179.515 3.106 180.025 0.573 180.076 0.284H178.325C178.206 1.015 178.053 1.916 177.832 3.14L176.574 10.314ZM195.771 13.204C198.406 13.204 200.004 12.677 200.888 11.844L200.701 13H202.231C202.452 11.657 202.605 10.79 202.792 9.77C203.03 8.342 203.166 7.696 203.404 6.353C203.812 4.024 202.962 2.936 197.93 2.936C193.357 2.936 192.32 3.905 191.997 5.962L193.714 6.013C193.901 4.84 194.377 4.449 197.845 4.449C201.432 4.449 201.925 4.976 201.636 6.676L201.415 7.883C200.735 7.254 199.341 6.88 196.893 6.88C192.422 6.88 191.283 7.815 190.875 10.076C190.501 12.286 191.249 13.204 195.771 13.204ZM196.519 11.725C193.051 11.725 192.422 11.3 192.626 10.076C192.847 8.818 193.408 8.291 197.131 8.291C200.786 8.291 201.296 8.801 201.16 9.566L201.058 10.093C200.871 11.198 200.174 11.725 196.519 11.725ZM205.743 10.28C205.505 11.623 205.386 12.286 205.25 13H206.984C207.086 12.286 207.205 11.657 207.443 10.28L207.868 7.9C208.327 5.316 209.262 4.517 212.594 4.517C216.045 4.517 216.538 5.384 216.147 7.645L215.671 10.297C215.416 11.742 215.331 12.235 215.178 13H216.912C217.031 12.201 217.15 11.521 217.371 10.297L217.558 9.26C217.728 8.24 217.83 7.832 217.949 7.135C218.476 4.143 217.524 2.936 213.036 2.936C210.826 2.936 209.33 3.48 208.344 4.585L208.565 3.14H206.984C206.882 3.803 206.78 4.415 206.559 5.673L205.743 10.28ZM225.637 13.204C230.482 13.204 231.587 12.099 232.114 9.175L230.431 9.124C230.125 10.892 229.275 11.623 225.671 11.623C221.999 11.623 221.404 10.909 221.88 8.155L221.914 7.985C222.407 5.231 223.257 4.517 226.929 4.517C230.533 4.517 231.077 5.282 230.771 7.016L232.471 6.965C232.998 3.956 231.842 2.936 226.98 2.936C222.203 2.936 220.877 4.058 220.214 7.815L220.129 8.325C219.466 12.082 220.877 13.204 225.637 13.204ZM239.602 13.204C244.566 13.204 245.433 12.218 245.858 9.855L244.175 9.787C243.954 11.062 243.393 11.691 239.653 11.691C236.032 11.691 235.335 11.028 235.641 8.733H246.045C246.096 8.444 246.181 8.087 246.215 7.815C246.776 4.177 245.705 2.936 240.86 2.936C236.015 2.936 234.723 4.058 234.06 7.815L233.975 8.325C233.363 11.98 234.638 13.204 239.602 13.204ZM240.792 4.415C244.277 4.415 244.821 5.095 244.498 7.271H235.896C236.423 5.027 237.375 4.415 240.792 4.415ZM255.674 6.88C255.538 7.713 255.351 8.682 255.215 9.43C254.705 12.354 255.64 13.085 259.652 13.085C260.4 13.085 260.859 13.051 261.403 13L261.658 11.453C261.012 11.487 260.604 11.504 259.839 11.504C257.238 11.504 256.609 11.249 256.966 9.192L257.765 4.687H262.848L263.12 3.14H258.054C258.19 2.29 258.309 1.61 258.394 1.202L256.66 1.236C256.524 2.018 256.439 2.579 256.337 3.14C255.793 3.14 255.249 3.157 254.552 3.14L254.28 4.687H256.065L255.674 6.88ZM269.383 13.204C274.296 13.204 275.588 12.082 276.251 8.325L276.336 7.815C276.999 4.058 275.707 2.936 270.794 2.936C265.881 2.936 264.589 4.058 263.926 7.815L263.841 8.325C263.178 12.082 264.47 13.204 269.383 13.204ZM269.451 11.623C265.711 11.623 265.116 10.909 265.592 8.155L265.626 7.985C266.119 5.231 266.969 4.517 270.709 4.517C274.449 4.517 275.061 5.231 274.568 7.985L274.534 8.155C274.058 10.909 273.191 11.623 269.451 11.623Z" fill="#535559"/>
<path d="M284.701 10.297C284.497 11.436 284.361 12.252 284.208 13H285.789L286.095 11.436C286.741 12.626 288.22 13.204 290.787 13.204C295.445 13.204 296.754 12.082 297.417 8.325L297.502 7.815C298.165 4.058 296.856 2.936 292.3 2.936C289.988 2.936 288.458 3.429 287.455 4.432C287.761 2.681 288.067 0.946999 288.203 0.284H286.452C286.333 1.015 286.18 1.933 285.959 3.157L284.701 10.297ZM286.775 8.138L286.809 8.002C287.268 5.316 288.186 4.517 291.892 4.517C295.615 4.517 296.227 5.231 295.751 7.985L295.717 8.155C295.224 10.909 294.357 11.623 290.549 11.623C286.928 11.623 286.299 10.841 286.775 8.138ZM304.829 13.204C309.793 13.204 310.66 12.218 311.085 9.855L309.402 9.787C309.181 11.062 308.62 11.691 304.88 11.691C301.259 11.691 300.562 11.028 300.868 8.733H311.272C311.323 8.444 311.408 8.087 311.442 7.815C312.003 4.177 310.932 2.936 306.087 2.936C301.242 2.936 299.95 4.058 299.287 7.815L299.202 8.325C298.59 11.98 299.865 13.204 304.829 13.204ZM306.019 4.415C309.504 4.415 310.048 5.095 309.725 7.271H301.123C301.65 5.027 302.602 4.415 306.019 4.415ZM324.998 13.204C329.911 13.204 331.203 12.082 331.866 8.325L331.951 7.815C332.614 4.058 331.322 2.936 326.409 2.936C321.496 2.936 320.204 4.058 319.541 7.815L319.456 8.325C318.793 12.082 320.085 13.204 324.998 13.204ZM325.066 11.623C321.326 11.623 320.731 10.909 321.207 8.155L321.241 7.985C321.734 5.231 322.584 4.517 326.324 4.517C330.064 4.517 330.676 5.231 330.183 7.985L330.149 8.155C329.673 10.909 328.806 11.623 325.066 11.623ZM333.957 10.28C333.719 11.623 333.6 12.286 333.464 13H335.198C335.3 12.286 335.419 11.657 335.657 10.28L336.082 7.9C336.541 5.316 337.476 4.517 340.808 4.517C344.259 4.517 344.752 5.384 344.361 7.645L343.885 10.297C343.63 11.742 343.545 12.235 343.392 13H345.126C345.245 12.201 345.364 11.521 345.585 10.297L345.772 9.26C345.942 8.24 346.044 7.832 346.163 7.135C346.69 4.143 345.738 2.936 341.25 2.936C339.04 2.936 337.544 3.48 336.558 4.585L336.779 3.14H335.198C335.096 3.803 334.994 4.415 334.773 5.673L333.957 10.28ZM356.113 6.88C355.977 7.713 355.79 8.682 355.654 9.43C355.144 12.354 356.079 13.085 360.091 13.085C360.839 13.085 361.298 13.051 361.842 13L362.097 11.453C361.451 11.487 361.043 11.504 360.278 11.504C357.677 11.504 357.048 11.249 357.405 9.192L358.204 4.687H363.287L363.559 3.14H358.493C358.629 2.29 358.748 1.61 358.833 1.202L357.099 1.236C356.963 2.018 356.878 2.579 356.776 3.14C356.232 3.14 355.688 3.157 354.991 3.14L354.719 4.687H356.504L356.113 6.88ZM364.586 10.314C364.365 11.555 364.263 12.167 364.093 13H365.827C365.963 12.15 366.082 11.419 366.286 10.28L366.711 7.9C367.17 5.316 368.105 4.517 371.437 4.517C374.888 4.517 375.381 5.384 374.99 7.645L374.514 10.314C374.293 11.521 374.191 12.133 374.021 13H375.755C375.908 12.031 376.044 11.232 376.214 10.348L376.401 9.26C376.571 8.24 376.673 7.832 376.792 7.135C377.319 4.143 376.367 2.936 371.879 2.936C369.635 2.936 368.207 3.412 367.289 4.347C367.527 3.106 368.037 0.573 368.088 0.284H366.337C366.218 1.015 366.065 1.916 365.844 3.14L364.586 10.314ZM384.6 13.204C389.564 13.204 390.431 12.218 390.856 9.855L389.173 9.787C388.952 11.062 388.391 11.691 384.651 11.691C381.03 11.691 380.333 11.028 380.639 8.733H391.043C391.094 8.444 391.179 8.087 391.213 7.815C391.774 4.177 390.703 2.936 385.858 2.936C381.013 2.936 379.721 4.058 379.058 7.815L378.973 8.325C378.361 11.98 379.636 13.204 384.6 13.204ZM385.79 4.415C389.275 4.415 389.819 5.095 389.496 7.271H380.894C381.421 5.027 382.373 4.415 385.79 4.415ZM407.013 13C408.611 10.586 413.524 3.242 415.139 0.929999H413.167L409.155 6.965C408.135 8.495 407.098 10.076 406.299 11.3H404.854C404.497 10.076 404.038 8.529 403.579 6.982L401.777 0.929999H399.907C400.655 3.242 402.916 10.603 403.63 13H407.013ZM419.179 13.204C424.092 13.204 425.384 12.082 426.047 8.325L426.132 7.815C426.795 4.058 425.503 2.936 420.59 2.936C415.677 2.936 414.385 4.058 413.722 7.815L413.637 8.325C412.974 12.082 414.266 13.204 419.179 13.204ZM419.247 11.623C415.507 11.623 414.912 10.909 415.388 8.155L415.422 7.985C415.915 5.231 416.765 4.517 420.505 4.517C424.245 4.517 424.857 5.231 424.364 7.985L424.33 8.155C423.854 10.909 422.987 11.623 419.247 11.623ZM433.339 13.204C438.184 13.204 439.289 12.099 439.816 9.175L438.133 9.124C437.827 10.892 436.977 11.623 433.373 11.623C429.701 11.623 429.106 10.909 429.582 8.155L429.616 7.985C430.109 5.231 430.959 4.517 434.631 4.517C438.235 4.517 438.779 5.282 438.473 7.016L440.173 6.965C440.7 3.956 439.544 2.936 434.682 2.936C429.905 2.936 428.579 4.058 427.916 7.815L427.831 8.325C427.168 12.082 428.579 13.204 433.339 13.204ZM446.488 13.204C449.123 13.204 450.721 12.677 451.605 11.844L451.418 13H452.948C453.169 11.657 453.322 10.79 453.509 9.77C453.747 8.342 453.883 7.696 454.121 6.353C454.529 4.024 453.679 2.936 448.647 2.936C444.074 2.936 443.037 3.905 442.714 5.962L444.431 6.013C444.618 4.84 445.094 4.449 448.562 4.449C452.149 4.449 452.642 4.976 452.353 6.676L452.132 7.883C451.452 7.254 450.058 6.88 447.61 6.88C443.139 6.88 442 7.815 441.592 10.076C441.218 12.286 441.966 13.204 446.488 13.204ZM447.236 11.725C443.768 11.725 443.139 11.3 443.343 10.076C443.564 8.818 444.125 8.291 447.848 8.291C451.503 8.291 452.013 8.801 451.877 9.566L451.775 10.093C451.588 11.198 450.891 11.725 447.236 11.725ZM456.494 10.331C456.29 11.47 456.154 12.252 456.001 13H457.735C457.854 12.252 457.99 11.47 458.194 10.348L459.452 3.157C459.673 1.933 459.826 1.015 459.979 0.284H458.245C458.126 1.015 457.973 1.933 457.752 3.14L456.494 10.331ZM467.683 10.331C467.479 11.47 467.343 12.252 467.19 13H468.924C469.043 12.252 469.179 11.47 469.383 10.348L470.641 3.157C470.862 1.933 471.015 1.015 471.168 0.284H469.434C469.315 1.015 469.162 1.933 468.941 3.14L467.683 10.331ZM474.247 0.555999L473.975 2.137H475.709L475.981 0.555999H474.247ZM472.547 10.331C472.343 11.47 472.207 12.252 472.054 13H473.788C473.907 12.252 474.043 11.47 474.247 10.348L474.995 6.013C475.216 4.789 475.386 3.871 475.522 3.14H473.788C473.686 3.871 473.516 4.789 473.312 5.996L472.547 10.331ZM482.205 13.204C487.152 13.204 487.662 12.609 488.019 10.569C488.376 8.546 487.611 7.696 482.885 7.254C479.298 6.914 479.128 6.489 479.247 5.605C479.349 4.823 479.995 4.466 483.191 4.466C486.438 4.466 486.88 4.857 486.693 5.894L486.642 6.149L488.41 6.098C488.818 3.735 487.9 2.936 483.293 2.936C478.754 2.936 477.989 3.599 477.615 5.673C477.275 7.679 478.04 8.461 482.324 8.835C486.217 9.175 486.438 9.6 486.285 10.552C486.149 11.419 485.707 11.776 482.29 11.776C478.669 11.776 478.21 11.385 478.448 10.008L478.499 9.736L476.765 9.787C476.272 12.643 477.292 13.204 482.205 13.204ZM491.565 6.88C491.429 7.713 491.242 8.682 491.106 9.43C490.596 12.354 491.531 13.085 495.543 13.085C496.291 13.085 496.75 13.051 497.294 13L497.549 11.453C496.903 11.487 496.495 11.504 495.73 11.504C493.129 11.504 492.5 11.249 492.857 9.192L493.656 4.687H498.739L499.011 3.14H493.945C494.081 2.29 494.2 1.61 494.285 1.202L492.551 1.236C492.415 2.018 492.33 2.579 492.228 3.14C491.684 3.14 491.14 3.157 490.443 3.14L490.171 4.687H491.956L491.565 6.88ZM506.397 9.77C511.412 9.77 512.653 8.648 513.231 5.401L513.282 5.061C513.86 1.814 512.585 0.691999 507.383 0.691999C502.011 0.691999 500.923 1.712 500.396 4.721L502.062 4.772C502.334 3.038 503.184 2.273 507.298 2.273C511.31 2.273 511.922 2.987 511.531 5.231C511.123 7.475 510.273 8.189 506.431 8.189C505.972 8.189 505.479 8.189 504.884 8.172L504.578 9.753C505.139 9.77 505.887 9.77 506.397 9.77ZM504.425 10.926L504.051 13H506.193L506.567 10.926H504.425Z" fill="#9EA1AB"/>
</svg>
