<svg width="40" height="40" viewBox="0 0 40 40" fill="none" xmlns="http://www.w3.org/2000/svg">
<path d="M23.177 29.6748C21.9949 29.9813 20.769 30.1272 19.4993 30.1272C14.7271 30.1272 10.4511 27.8944 7.53236 24.3627C5.48921 21.8963 5.48921 18.0873 7.53236 15.6355C7.76586 15.3436 8.02855 15.0663 8.29124 14.7891" stroke="#535559" stroke-width="1.5" stroke-linecap="round" stroke-linejoin="round"/>
<path d="M31.4638 24.3667C30.2963 25.7677 28.9099 26.9645 27.3776 27.8985L11.6016 12.1079C13.922 10.6777 16.6073 9.875 19.4969 9.875C24.2691 9.875 28.5451 12.1079 31.4638 15.6396C33.507 18.0914 33.507 21.915 31.4638 24.3667Z" stroke="#535559" stroke-width="1.5" stroke-linecap="round" stroke-linejoin="round"/>
<path d="M23.9967 19.9949C23.9967 21.2354 23.4859 22.3591 22.6832 23.1764L16.3203 16.8135C17.123 15.9962 18.2613 15.5 19.5018 15.5C21.9973 15.5 23.9967 17.4994 23.9967 19.9949Z" stroke="#535559" stroke-width="1.5" stroke-linecap="round" stroke-linejoin="round"/>
<path d="M6 6.5L11.6041 12.104L16.3179 16.8179L22.6808 23.1808L27.3946 27.8946L32.9987 33.4987" stroke="#535559" stroke-width="1.5" stroke-linecap="round" stroke-linejoin="round"/>
</svg>
