<svg width="166" height="16" viewBox="0 0 166 16" fill="none" xmlns="http://www.w3.org/2000/svg">
<g clip-path="url(#clip0_864_4615)">
<path d="M-257.982 10.674C-257.982 12.06 -257.982 12.672 -258 13.572H-256.092C-256.11 12.6 -256.11 12.258 -256.11 10.656V3.132C-256.11 2.178 -256.11 1.656 -256.092 0.791999H-258C-257.982 1.656 -257.982 2.178 -257.982 3.132V10.674Z" fill="#9EA1AB"/>
<path d="M-252.172 7.506C-252.172 8.946 -252.172 12.15 -252.19 13.572H-250.354C-250.372 12.78 -250.372 11.754 -250.372 10.692V4.77H-247.6V3.132H-250.372V2.97C-250.372 1.908 -250.066 1.656 -249.256 1.62C-248.59 1.584 -247.816 1.548 -247.348 1.548L-247.402 0C-247.78 0.0179998 -248.752 0.0359993 -249.616 0.0899997C-251.47 0.197999 -252.19 0.774 -252.19 2.79C-252.19 2.898 -252.19 3.006 -252.19 3.132H-253.9L-253.972 4.77H-252.19C-252.172 5.67 -252.172 6.66 -252.172 7.506Z" fill="#9EA1AB"/>
<path d="M-232.341 13.896C-230.991 11.232 -228.165 5.58 -226.869 3.132H-228.813L-231.045 7.488C-231.639 8.64 -232.233 9.81 -232.737 10.836H-233.745C-234.375 9.792 -235.113 8.604 -235.833 7.434L-238.461 3.132H-240.513C-238.947 5.598 -236.103 10.296 -234.789 12.51H-233.601L-233.925 13.086C-234.573 14.238 -234.987 14.472 -236.049 14.472C-236.733 14.472 -237.291 14.454 -237.867 14.418L-237.921 16.038C-237.255 16.074 -236.427 16.11 -235.995 16.11C-234.159 16.11 -233.169 15.534 -232.341 13.896Z" fill="#9EA1AB"/>
<path d="M-219.563 13.788C-214.361 13.788 -212.993 12.6 -212.993 8.622V8.082C-212.993 4.104 -214.361 2.916 -219.563 2.916C-224.765 2.916 -226.133 4.104 -226.133 8.082V8.622C-226.133 12.6 -224.765 13.788 -219.563 13.788ZM-219.563 12.114C-223.523 12.114 -224.297 11.358 -224.297 8.442V8.262C-224.297 5.346 -223.523 4.59 -219.563 4.59C-215.603 4.59 -214.829 5.346 -214.829 8.262V8.442C-214.829 11.358 -215.603 12.114 -219.563 12.114Z" fill="#9EA1AB"/>
<path d="M-210.455 7.092C-210.455 8.172 -210.473 8.604 -210.473 9.342C-210.473 12.51 -209.555 13.788 -204.821 13.788C-202.301 13.788 -200.771 13.212 -199.925 12.042L-199.889 13.572H-198.215C-198.233 12.87 -198.233 12.222 -198.233 10.89V6.012C-198.233 4.59 -198.233 3.888 -198.215 3.132H-200.051C-200.033 3.888 -200.033 4.554 -200.033 6.012V8.532C-200.033 11.268 -200.879 12.114 -204.335 12.114C-207.971 12.114 -208.655 11.196 -208.655 8.802V5.994C-208.655 4.464 -208.655 3.942 -208.637 3.132H-210.473C-210.455 3.978 -210.455 4.698 -210.455 5.994V7.092Z" fill="#9EA1AB"/>
<path d="M-182.943 13.788C-180.153 13.788 -178.569 13.23 -177.777 12.348L-177.759 13.572H-176.139C-176.157 12.15 -176.157 11.232 -176.157 10.152C-176.157 8.64 -176.139 7.956 -176.139 6.534C-176.139 4.068 -177.057 2.916 -182.385 2.916C-187.227 2.916 -188.325 3.942 -188.289 6.12L-186.471 6.174C-186.489 4.932 -186.057 4.518 -182.385 4.518C-178.587 4.518 -177.957 5.076 -177.957 6.876V8.154C-178.803 7.488 -180.351 7.092 -182.943 7.092C-187.677 7.092 -188.703 8.082 -188.703 10.476C-188.703 12.816 -187.731 13.788 -182.943 13.788ZM-182.421 12.222C-186.093 12.222 -186.849 11.772 -186.849 10.476C-186.849 9.144 -186.363 8.586 -182.421 8.586C-178.551 8.586 -177.921 9.126 -177.921 9.936V10.494C-177.921 11.664 -178.551 12.222 -182.421 12.222Z" fill="#9EA1AB"/>
<path d="M-172.925 10.692C-172.925 12.114 -172.925 12.816 -172.943 13.572H-171.107C-171.125 12.816 -171.125 12.15 -171.125 10.692V8.28C-171.125 5.256 -170.279 4.59 -167.183 4.59C-164.033 4.59 -163.673 5.022 -163.673 7.056V7.416L-161.945 7.38C-161.927 7.11 -161.927 6.84 -161.927 6.624C-161.927 3.636 -162.737 2.916 -166.751 2.916C-168.983 2.916 -170.423 3.492 -171.233 4.662L-171.269 3.132H-172.943C-172.925 3.834 -172.925 4.482 -172.925 5.814V10.692Z" fill="#9EA1AB"/>
<path d="M-153.608 13.788C-148.352 13.788 -147.362 12.744 -147.362 10.242L-149.144 10.17C-149.144 11.52 -149.63 12.186 -153.59 12.186C-157.424 12.186 -158.288 11.484 -158.378 9.054H-147.362C-147.362 8.748 -147.344 8.37 -147.362 8.082C-147.416 4.104 -148.604 2.916 -153.734 2.916C-158.864 2.916 -160.232 4.104 -160.232 8.082V8.622C-160.232 12.6 -158.864 13.788 -153.608 13.788ZM-153.734 4.482C-150.044 4.482 -149.342 5.202 -149.27 7.506H-158.378C-158.252 5.13 -157.352 4.482 -153.734 4.482Z" fill="#9EA1AB"/>
<path d="M-132.775 13.788C-129.985 13.788 -128.401 13.23 -127.609 12.348L-127.591 13.572H-125.971C-125.989 12.15 -125.989 11.232 -125.989 10.152C-125.989 8.64 -125.971 7.956 -125.971 6.534C-125.971 4.068 -126.889 2.916 -132.217 2.916C-137.059 2.916 -138.157 3.942 -138.121 6.12L-136.303 6.174C-136.321 4.932 -135.889 4.518 -132.217 4.518C-128.419 4.518 -127.789 5.076 -127.789 6.876V8.154C-128.635 7.488 -130.183 7.092 -132.775 7.092C-137.509 7.092 -138.535 8.082 -138.535 10.476C-138.535 12.816 -137.563 13.788 -132.775 13.788ZM-132.253 12.222C-135.925 12.222 -136.681 11.772 -136.681 10.476C-136.681 9.144 -136.195 8.586 -132.253 8.586C-128.383 8.586 -127.753 9.126 -127.753 9.936V10.494C-127.753 11.664 -128.383 12.222 -132.253 12.222Z" fill="#9EA1AB"/>
<path d="M-116.06 10.692C-116.06 12.114 -116.06 12.816 -116.078 13.572H-114.242C-114.26 12.816 -114.26 12.15 -114.26 10.692V8.172C-114.26 5.436 -113.414 4.59 -109.886 4.59C-106.232 4.59 -105.548 5.508 -105.548 7.902V10.71C-105.548 12.24 -105.548 12.762 -105.566 13.572H-103.73C-103.748 12.726 -103.748 12.006 -103.748 10.71V9.612C-103.748 8.532 -103.73 8.1 -103.73 7.362C-103.73 4.194 -104.648 2.916 -109.4 2.916C-111.956 2.916 -113.522 3.492 -114.368 4.662L-114.404 3.132H-116.078C-116.06 3.834 -116.06 4.482 -116.06 5.814V10.692Z" fill="#9EA1AB"/>
<path d="M-94.581 13.788C-89.325 13.788 -88.335 12.744 -88.335 10.242L-90.117 10.17C-90.117 11.52 -90.603 12.186 -94.563 12.186C-98.397 12.186 -99.261 11.484 -99.351 9.054H-88.335C-88.335 8.748 -88.317 8.37 -88.335 8.082C-88.389 4.104 -89.577 2.916 -94.707 2.916C-99.837 2.916 -101.205 4.104 -101.205 8.082V8.622C-101.205 12.6 -99.837 13.788 -94.581 13.788ZM-94.707 4.482C-91.017 4.482 -90.315 5.202 -90.243 7.506H-99.351C-99.225 5.13 -98.325 4.482 -94.707 4.482Z" fill="#9EA1AB"/>
<path d="M-78.7847 8.442C-78.3347 7.272 -77.8667 6.102 -77.4527 5.04H-76.9307C-76.5527 6.12 -76.1387 7.326 -75.7427 8.496L-73.9967 13.572H-71.0807C-70.1087 11.016 -67.9847 5.58 -66.9227 3.132H-68.8487L-70.5947 7.704C-71.1167 9.09 -71.6567 10.53 -72.1247 11.772H-72.7907C-73.1507 10.62 -73.6007 9.288 -74.0507 7.974L-75.7067 3.132H-78.5147L-80.3147 7.902C-80.8007 9.198 -81.3227 10.566 -81.7547 11.772H-82.4567C-82.8707 10.548 -83.3567 9.108 -83.8067 7.776L-85.3727 3.132H-87.4247C-86.4887 5.544 -84.5267 11.016 -83.6627 13.572H-80.7467L-78.7847 8.442Z" fill="#9EA1AB"/>
<path d="M-58.4745 7.092C-58.4745 8.172 -58.4925 8.604 -58.4925 9.342C-58.4925 12.51 -57.5745 13.788 -52.8405 13.788C-50.3205 13.788 -48.7905 13.212 -47.9445 12.042L-47.9085 13.572H-46.2345C-46.2525 12.87 -46.2525 12.222 -46.2525 10.89V6.012C-46.2525 4.59 -46.2525 3.888 -46.2345 3.132H-48.0705C-48.0525 3.888 -48.0525 4.554 -48.0525 6.012V8.532C-48.0525 11.268 -48.8985 12.114 -52.3545 12.114C-55.9905 12.114 -56.6745 11.196 -56.6745 8.802V5.994C-56.6745 4.464 -56.6745 3.942 -56.6565 3.132H-58.4925C-58.4745 3.978 -58.4745 4.698 -58.4745 5.994V7.092Z" fill="#9EA1AB"/>
<path d="M-37.5698 13.788C-32.3318 13.788 -31.6658 12.96 -31.6658 10.8C-31.6658 8.658 -32.3138 7.866 -37.7138 7.416C-41.5838 7.092 -41.8538 6.768 -41.8538 5.868C-41.8538 4.914 -41.2958 4.536 -37.9118 4.536C-34.4738 4.536 -33.9338 4.95 -33.9338 6.048V6.318L-32.0798 6.264C-32.0798 3.762 -32.9618 2.916 -37.8398 2.916C-42.6458 2.916 -43.5818 3.798 -43.5818 5.994C-43.5818 8.118 -42.7898 8.802 -38.0018 9.198C-33.8258 9.54 -33.5018 9.882 -33.5018 10.89C-33.5018 11.862 -33.8798 12.276 -37.4978 12.276C-41.3318 12.276 -41.8898 11.862 -41.8898 10.404V10.116L-43.7078 10.17C-43.7078 13.194 -42.7718 13.788 -37.5698 13.788Z" fill="#9EA1AB"/>
<path d="M-23.2489 13.788C-17.9929 13.788 -17.0029 12.744 -17.0029 10.242L-18.7849 10.17C-18.7849 11.52 -19.2709 12.186 -23.2309 12.186C-27.0649 12.186 -27.9289 11.484 -28.0189 9.054H-17.0029C-17.0029 8.748 -16.9849 8.37 -17.0029 8.082C-17.0569 4.104 -18.2449 2.916 -23.3749 2.916C-28.5049 2.916 -29.8729 4.104 -29.8729 8.082V8.622C-29.8729 12.6 -28.5049 13.788 -23.2489 13.788ZM-23.3749 4.482C-19.6849 4.482 -18.9829 5.202 -18.9109 7.506H-28.0189C-27.8929 5.13 -26.9929 4.482 -23.3749 4.482Z" fill="#9EA1AB"/>
<path d="M-14.4229 10.692C-14.4229 12.114 -14.4229 12.816 -14.4409 13.572H-12.6049C-12.6229 12.816 -12.6229 12.15 -12.6229 10.692V8.28C-12.6229 5.256 -11.7769 4.59 -8.68088 4.59C-5.53088 4.59 -5.17088 5.022 -5.17088 7.056V7.416L-3.44287 7.38C-3.42487 7.11 -3.4249 6.84 -3.4249 6.624C-3.4249 3.636 -4.23489 2.916 -8.24889 2.916C-10.4809 2.916 -11.9209 3.492 -12.7309 4.662L-12.7669 3.132H-14.4409C-14.4229 3.834 -14.4229 4.482 -14.4229 5.814V10.692Z" fill="#9EA1AB"/>
<path d="M-2.84775 11.376V13.59C-2.73975 13.572 -2.37975 13.572 -2.03775 13.572C-2.09175 13.806 -2.16375 14.04 -2.23575 14.274L-2.63174 15.75H-1.22775L-0.579742 13.572V11.376H-2.84775Z" fill="#9EA1AB"/>
<path d="M16.2088 13.824C22.0588 13.824 23.0308 12.888 23.0308 10.188C23.0308 7.596 22.0947 6.642 15.8127 6.192C10.9347 5.85 10.4308 5.4 10.4308 4.032C10.4308 2.754 11.0608 2.232 15.2188 2.232C19.7908 2.232 20.5648 2.682 20.5648 4.086V4.464L22.3647 4.41V4.086C22.3647 1.494 21.2128 0.539999 15.2368 0.539999C9.54876 0.539999 8.54077 1.548 8.54077 4.194C8.54077 6.804 9.47677 7.542 15.6868 8.028C20.5108 8.406 21.1407 8.892 21.1407 10.224C21.1407 11.628 20.5828 12.114 16.2088 12.114C11.1328 12.114 10.2148 11.772 10.2148 10.08V9.648L8.41476 9.702V10.062C8.41476 13.086 9.71077 13.824 16.2088 13.824Z" fill="#5200FF"/>
<path d="M25.6557 0.395999V2.07H27.4917V0.395999H25.6557ZM25.6737 10.746C25.6737 11.952 25.6737 12.78 25.6557 13.572H27.4917C27.4737 12.78 27.4737 11.952 27.4737 10.764V6.174C27.4737 4.878 27.4737 3.906 27.4917 3.132H25.6557C25.6737 3.906 25.6737 4.878 25.6737 6.156V10.746Z" fill="#5200FF"/>
<path d="M36.4041 12.528C38.9961 12.528 40.5621 11.952 41.4261 10.926L41.4081 11.952C41.372 13.806 40.6881 14.67 36.4041 14.67C32.7501 14.67 32.1201 14.166 32.1201 13.104L30.3741 13.176C30.3741 15.552 31.5801 16.308 36.4041 16.308C41.8761 16.308 43.2081 15.246 43.2081 12.186C43.2081 10.782 43.1901 9.702 43.1901 8.172V5.472C43.1901 4.59 43.1901 3.906 43.2081 3.132H41.5341L41.5161 4.518C40.6521 3.474 39.068 2.916 36.386 2.916C31.85 2.916 30.0861 3.798 30.0861 7.632V7.812C30.0861 11.646 31.9401 12.528 36.4041 12.528ZM31.9221 7.812V7.632C31.9221 5.328 32.9481 4.554 36.7101 4.554C40.5621 4.554 41.372 5.31 41.39 7.632C41.39 9.936 40.4901 10.89 36.7281 10.89C32.7681 10.89 31.9221 10.116 31.9221 7.812Z" fill="#5200FF"/>
<path d="M46.4677 10.692C46.4677 12.114 46.4677 12.816 46.4497 13.572H48.2857C48.2677 12.816 48.2677 12.15 48.2677 10.692V8.172C48.2677 5.436 49.1138 4.59 52.6418 4.59C56.2958 4.59 56.9797 5.508 56.9797 7.902V10.71C56.9797 12.24 56.9797 12.762 56.9617 13.572H58.7977C58.7797 12.726 58.7798 12.006 58.7798 10.71V9.612C58.7798 8.532 58.7977 8.1 58.7977 7.362C58.7977 4.194 57.8797 2.916 53.1277 2.916C50.5717 2.916 49.0057 3.492 48.1597 4.662L48.1237 3.132H46.4497C46.4677 3.834 46.4677 4.482 46.4677 5.814V10.692Z" fill="#5200FF"/>
<path d="M68.6856 7.092C68.6856 8.172 68.6677 8.604 68.6677 9.342C68.6677 12.51 69.5856 13.788 74.3196 13.788C76.8396 13.788 78.3696 13.212 79.2156 12.042L79.2516 13.572H80.9257C80.9077 12.87 80.9077 12.222 80.9077 10.89V6.012C80.9077 4.59 80.9077 3.888 80.9257 3.132H79.0897C79.1077 3.888 79.1076 4.554 79.1076 6.012V8.532C79.1076 11.268 78.2617 12.114 74.8057 12.114C71.1697 12.114 70.4857 11.196 70.4857 8.802V5.994C70.4857 4.464 70.4857 3.942 70.5037 3.132H68.6677C68.6857 3.978 68.6856 4.698 68.6856 5.994V7.092Z" fill="#5200FF"/>
<path d="M84.1904 13.572C84.1904 14.652 84.1904 15.552 84.1724 16.092H86.0264C86.0084 15.354 86.0084 14.058 86.0084 12.168C86.9084 13.266 88.4564 13.788 90.9764 13.788C95.9084 13.788 97.2944 12.6 97.2944 8.622V8.082C97.2944 4.104 95.9084 2.916 91.0844 2.916C88.4204 2.916 86.8004 3.492 85.9184 4.662V3.132H84.1724C84.1904 3.888 84.1904 4.536 84.1904 5.364V13.572ZM85.9904 8.424V8.28C85.9904 5.436 86.8004 4.59 90.7244 4.59C94.6664 4.59 95.4584 5.346 95.4584 8.262V8.442C95.4584 11.358 94.6664 12.114 90.6344 12.114C86.8004 12.114 85.9904 11.286 85.9904 8.424Z" fill="#5200FF"/>
<path d="M106.567 10.728C106.567 12.042 106.567 12.69 106.549 13.572H108.385C108.367 12.672 108.367 11.898 108.367 10.692V8.172C108.367 5.436 109.213 4.59 112.741 4.59C116.395 4.59 117.079 5.508 117.079 7.902V10.728C117.079 12.006 117.079 12.654 117.061 13.572H118.897C118.879 12.546 118.879 11.7 118.879 10.764V9.612C118.879 8.532 118.897 8.1 118.897 7.362C118.897 4.194 117.979 2.916 113.227 2.916C110.725 2.916 109.177 3.474 108.313 4.59C108.349 3.366 108.403 0.414 108.403 0.107999H106.549C106.567 0.881999 106.567 1.836 106.567 3.132V10.728Z" fill="#5200FF"/>
<path d="M128.046 13.788C133.302 13.788 134.292 12.744 134.292 10.242L132.51 10.17C132.51 11.52 132.024 12.186 128.064 12.186C124.23 12.186 123.366 11.484 123.276 9.054H134.292C134.292 8.748 134.31 8.37 134.292 8.082C134.238 4.104 133.05 2.916 127.92 2.916C122.79 2.916 121.422 4.104 121.422 8.082V8.622C121.422 12.6 122.79 13.788 128.046 13.788ZM127.92 4.482C131.61 4.482 132.312 5.202 132.384 7.506H123.276C123.402 5.13 124.302 4.482 127.92 4.482Z" fill="#5200FF"/>
<path d="M136.872 10.692C136.872 12.114 136.872 12.816 136.854 13.572H138.69C138.672 12.816 138.672 12.15 138.672 10.692V8.28C138.672 5.256 139.518 4.59 142.614 4.59C145.764 4.59 146.124 5.022 146.124 7.056V7.416L147.852 7.38C147.87 7.11 147.87 6.84 147.87 6.624C147.87 3.636 147.06 2.916 143.046 2.916C140.814 2.916 139.374 3.492 138.564 4.662L138.528 3.132H136.854C136.872 3.834 136.872 4.482 136.872 5.814V10.692Z" fill="#5200FF"/>
<path d="M156.189 13.788C161.445 13.788 162.435 12.744 162.435 10.242L160.653 10.17C160.653 11.52 160.167 12.186 156.207 12.186C152.373 12.186 151.509 11.484 151.419 9.054H162.435C162.435 8.748 162.453 8.37 162.435 8.082C162.381 4.104 161.193 2.916 156.063 2.916C150.933 2.916 149.565 4.104 149.565 8.082V8.622C149.565 12.6 150.933 13.788 156.189 13.788ZM156.063 4.482C159.753 4.482 160.455 5.202 160.527 7.506H151.419C151.545 5.13 152.445 4.482 156.063 4.482Z" fill="#5200FF"/>
</g>
<defs>
<clipPath id="clip0_864_4615">
<rect width="166" height="16" fill="white"/>
</clipPath>
</defs>
</svg>
