<svg width="40" height="40" viewBox="0 0 40 40" fill="none" xmlns="http://www.w3.org/2000/svg">
<path d="M31.4676 15.6916C33.5108 18.1268 33.5108 21.8732 31.4676 24.3084C28.5487 27.781 24.2724 30 19.5 30C14.7276 30 10.4659 27.7954 7.53243 24.3084C5.48919 21.8732 5.48919 18.1268 7.53243 15.6916C10.4513 12.219 14.7276 10 19.5 10C24.2724 10 28.5341 12.2046 31.4676 15.6916Z" stroke="#535559" stroke-width="1.5" stroke-linecap="round" stroke-linejoin="round"/>
<path d="M31.4676 15.6916C33.5108 18.1268 33.5108 21.8732 31.4676 24.3084C28.5487 27.781 24.2724 30 19.5 30C14.7276 30 10.4659 27.7954 7.53243 24.3084C5.48919 21.8732 5.48919 18.1268 7.53243 15.6916C10.4513 12.219 14.7276 10 19.5 10C24.2724 10 28.5341 12.2046 31.4676 15.6916Z" stroke="#535559" stroke-width="1.5" stroke-linecap="round" stroke-linejoin="round"/>
<path d="M19.499 24.4386C21.9816 24.4386 23.9941 22.4516 23.9941 20.0005C23.9941 17.5495 21.9816 15.5625 19.499 15.5625C17.0164 15.5625 15.0039 17.5495 15.0039 20.0005C15.0039 22.4516 17.0164 24.4386 19.499 24.4386Z" stroke="#535559" stroke-width="1.5" stroke-linecap="round" stroke-linejoin="round"/>
</svg>
