<svg width="618" height="215" viewBox="0 0 618 215" fill="none" xmlns="http://www.w3.org/2000/svg">
<g clip-path="url(#clip0_2206_33485)">
<path d="M109.681 1.00022C49.6583 1.00022 0.999993 48.6818 0.999995 107.5C0.999998 166.318 49.6583 214 109.681 214" stroke="url(#paint0_linear_2206_33485)" stroke-width="1.38335"/>
<path d="M109.453 214L618 214L618 1.00021L109.453 1.00024" stroke="url(#paint1_linear_2206_33485)" stroke-width="1.38335"/>
<line x1="310" y1="107.656" x2="399" y2="107.656" stroke="url(#paint2_linear_2206_33485)" stroke-width="0.5"/>
<path d="M253.101 107.749C243.714 107.749 242.822 82.0817 242.822 50.4229C242.822 82.0817 242.417 107.749 232.543 107.749C242.534 107.749 242.822 133.416 242.822 165.075C242.822 133.416 243.833 107.749 253.101 107.749Z" fill="#43FF8E"/>
<path d="M288.05 108.092C280.833 108.092 279.827 101.637 279.827 93.675C279.827 101.637 278.971 108.092 271.604 108.092C278.971 108.092 279.827 114.548 279.827 122.51C279.827 114.548 280.833 108.092 288.05 108.092Z" fill="#43FF8E"/>
<path d="M233.913 108.092C226.696 108.092 225.69 93.3376 225.69 75.1384C225.69 93.3376 224.834 108.092 217.467 108.092C224.834 108.092 225.69 122.847 225.69 141.046C225.69 122.847 226.696 108.092 233.913 108.092Z" fill="#43FF8E"/>
<path d="M323.684 107.749C305.941 107.749 303.468 103.907 303.468 99.1672C303.468 103.907 301.364 107.749 283.253 107.749C301.364 107.749 303.468 111.591 303.468 116.331C303.468 111.591 305.941 107.749 323.684 107.749Z" fill="#43FF8E"/>
<path d="M219.523 107.749C206.291 107.749 204.447 98.3736 204.447 86.8096C204.447 98.3736 202.877 107.749 189.371 107.749C202.877 107.749 204.447 117.125 204.447 128.689C204.447 117.125 206.291 107.749 219.523 107.749Z" fill="#43FF8E"/>
<path d="M272.974 107.749C263.35 107.749 262.009 95.9144 262.009 81.3171C262.009 95.9144 260.868 107.749 251.045 107.749C260.868 107.749 262.009 119.584 262.009 134.181C262.009 119.584 263.35 107.749 272.974 107.749Z" fill="#43FF8E"/>
<rect x="188" y="50.4229" width="139" height="115" fill="url(#paint3_linear_2206_33485)"/>
</g>
<defs>
<linearGradient id="paint0_linear_2206_33485" x1="0.999995" y1="107.5" x2="109.681" y2="107.5" gradientUnits="userSpaceOnUse">
<stop stop-color="#43FF8E"/>
<stop offset="1" stop-color="#43FF8E" stop-opacity="0.7"/>
</linearGradient>
<linearGradient id="paint1_linear_2206_33485" x1="-99.4793" y1="107.5" x2="618" y2="107.5" gradientUnits="userSpaceOnUse">
<stop stop-color="#43FF8E"/>
<stop offset="1" stop-color="#43FF8E" stop-opacity="0"/>
</linearGradient>
<linearGradient id="paint2_linear_2206_33485" x1="338" y1="108.406" x2="394" y2="107.906" gradientUnits="userSpaceOnUse">
<stop stop-color="#43FF8E"/>
<stop offset="1" stop-color="#43FF8E" stop-opacity="0"/>
</linearGradient>
<linearGradient id="paint3_linear_2206_33485" x1="201.769" y1="106.89" x2="322.083" y2="106.89" gradientUnits="userSpaceOnUse">
<stop stop-color="#121315"/>
<stop offset="1" stop-color="#121315" stop-opacity="0"/>
</linearGradient>
<clipPath id="clip0_2206_33485">
<rect width="618" height="215" fill="white"/>
</clipPath>
</defs>
</svg>
