<svg width="352" height="70" viewBox="0 0 352 70" fill="none" xmlns="http://www.w3.org/2000/svg">
<rect width="352" height="70" rx="35" fill="#5200FF"/>
<path d="M147.067 46.4196C157.117 46.4196 158.737 44.7396 159.577 40.1196C160.237 35.9796 158.827 34.0596 148.897 33.3696C141.007 32.8596 140.377 32.1996 140.707 30.2496C141.007 28.4196 142.117 27.6696 148.627 27.6696C155.707 27.6696 156.727 28.3296 156.337 30.3696L156.247 30.9696L160.177 30.8796L160.237 30.4596C161.047 26.0196 159.397 24.2796 148.987 24.2796C139.207 24.2796 137.377 26.1096 136.597 30.5196C135.847 34.8096 137.197 36.2496 147.247 36.9696C155.047 37.5696 155.857 38.2896 155.527 40.2396V40.2696C155.167 42.3096 154.267 42.9996 147.337 42.9996C139.447 42.9996 138.247 42.4896 138.667 40.0596L138.787 39.3696L134.857 39.4596L134.767 39.9396C133.837 45.1296 136.027 46.4196 147.067 46.4196Z" fill="white"/>
<path d="M163.38 40.9596C162.99 43.1496 162.75 44.6196 162.45 45.9996H166.41C166.62 44.6196 166.89 43.1496 167.25 40.9896L167.64 38.8596H172.11C172.86 39.6696 173.73 40.5396 174.63 41.4096L179.31 45.9996H184.2L184.26 45.9396C181.95 43.6896 177.96 39.6996 175.41 37.1196C178.83 34.5396 183.87 30.7896 186.9 28.5996L186.84 28.5396H181.83L176.52 32.4396C175.14 33.4296 173.76 34.4496 172.53 35.3796H168.24L169.44 28.5696C169.83 26.4396 170.1 24.8196 170.37 23.5596H166.41C166.2 24.8496 165.93 26.4396 165.57 28.5396L163.38 40.9596Z" fill="white"/>
<path d="M191.077 23.7696L190.537 26.7696H194.497L195.007 23.7696H191.077ZM188.077 40.9596C187.687 43.1496 187.447 44.6196 187.147 45.9996H191.107C191.317 44.6196 191.587 43.1496 191.947 40.9896L193.267 33.5196C193.627 31.3896 193.927 29.7996 194.167 28.5396H190.237C190.057 29.7996 189.757 31.4196 189.397 33.5196L188.077 40.9596Z" fill="white"/>
<path d="M196.053 45.9996C195.723 47.7996 195.453 49.2996 195.273 50.1996H199.263C199.443 48.9396 199.863 46.5096 200.433 43.4196C201.543 45.3696 204.033 46.3596 208.353 46.3596C216.453 46.3596 218.673 44.4396 219.873 37.7196L220.023 36.8196C221.163 30.1596 218.973 28.1796 211.023 28.1796C206.733 28.1796 204.093 29.1696 202.413 31.1196L202.863 28.5396H199.113C198.903 29.7996 198.693 30.9096 198.453 32.3496L196.053 45.9996ZM201.453 37.3896L201.513 37.1496C202.233 32.9496 203.673 31.7196 209.703 31.7196C215.763 31.7196 216.783 32.7996 216.033 37.1496L215.973 37.3896C215.193 41.7096 213.813 42.8196 207.603 42.8196C201.723 42.8196 200.703 41.6196 201.453 37.3896Z" fill="white"/>
</svg>
