<svg width="351" height="16" viewBox="0 0 351 16" fill="none" xmlns="http://www.w3.org/2000/svg">
<path d="M0.0179836 10.5948C0.0179836 11.78 0.0179836 12.4804 0 13.4321H7.24736C13.5416 13.4321 15.1062 11.9776 15.1062 7.2009V6.91358C15.1062 2.13692 13.5416 0.682379 7.26534 0.682379H0C0.0179836 1.49046 0.0179836 2.08305 0.0179836 3.01683V10.5948ZM7.26534 2.80135C11.8511 2.80135 12.6604 3.6633 12.6604 6.96745V7.14703C12.6604 10.4512 11.8511 11.3131 7.24736 11.3131H2.40979V2.80135H7.26534Z" fill="white"/>
<path d="M17.5419 0.125701V1.92144H19.9158V0.125701H17.5419ZM17.5599 10.4153C17.5599 11.7262 17.5599 12.6061 17.5419 13.4321H19.9158C19.8978 12.6061 19.8978 11.7262 19.8978 10.4332V5.96184C19.8978 4.68687 19.8978 3.73513 19.9158 2.98092H17.5419C17.5599 3.73513 17.5599 4.70483 17.5599 5.96184V10.4153Z" fill="white"/>
<path d="M28.4912 13.6476C33.7784 13.6476 34.5337 12.7856 34.5337 10.523C34.5337 8.422 33.8503 7.56004 28.5452 7.16498C24.7866 6.85971 24.5349 6.59035 24.5349 5.78227C24.5349 4.95623 25.0204 4.61504 28.0956 4.61504C31.3326 4.61504 31.8002 4.99214 31.8002 5.96184V6.19529L34.1201 6.14141C34.1201 3.62739 33.2928 2.76543 28.1675 2.76543C23.276 2.76543 22.2869 3.68126 22.2869 5.90797C22.2869 8.06285 23.0962 8.78115 27.8798 9.15825C31.8721 9.46352 32.1778 9.7688 32.1778 10.6667C32.1778 11.5286 31.8541 11.8698 28.5452 11.8698C24.9125 11.8698 24.4449 11.5107 24.4449 10.2716V10.0022L22.143 10.0561C22.143 13.055 23.1142 13.6476 28.4912 13.6476Z" fill="white"/>
<path d="M42.7257 13.6476C48.0129 13.6476 49.2717 12.4624 49.2717 9.26599L46.9698 9.21212C46.9698 10.8822 46.2865 11.5645 42.7437 11.5645C39.129 11.5645 38.4457 10.8822 38.4457 8.27834V8.13468C38.4457 5.51291 39.129 4.84849 42.7437 4.84849C46.2865 4.84849 46.9339 5.54882 46.9339 7.2009V7.18294L49.2358 7.12907C49.2358 3.84287 48.0309 2.76543 42.7257 2.76543C37.5105 2.76543 36.0898 3.95062 36.0898 7.93715V8.47587C36.0898 12.4624 37.5285 13.6476 42.7257 13.6476Z" fill="white"/>
<path d="M57.62 13.6476C62.9791 13.6476 64.3459 12.4624 64.3459 8.47587V7.93715C64.3459 3.95062 62.9791 2.76543 57.62 2.76543C52.2789 2.76543 50.9122 3.95062 50.9122 7.93715V8.47587C50.9122 12.4624 52.2789 13.6476 57.62 13.6476ZM57.62 11.5645C53.9514 11.5645 53.268 10.8822 53.268 8.27834V8.13468C53.268 5.51291 53.9514 4.84849 57.62 4.84849C61.3066 4.84849 61.972 5.51291 61.972 8.13468V8.27834C61.972 10.8822 61.3066 11.5645 57.62 11.5645Z" fill="white"/>
<path d="M73.8844 13.4321C75.1073 10.8822 77.7509 5.42312 78.9738 2.98092H76.4381L74.316 7.47026C73.7046 8.76319 73.1111 10.0741 72.6076 11.2054H71.3128C70.8092 10.0741 70.1978 8.74523 69.6044 7.4523L67.5003 2.98092H64.8567C66.0616 5.42312 68.7951 11.1515 69.8561 13.4321H73.8844Z" fill="white"/>
<path d="M86.2294 13.6476C91.6065 13.6476 92.6675 12.6061 92.6675 9.96633L90.3836 9.8945C90.3836 11.1156 89.916 11.6902 86.2474 11.6902C82.7586 11.6902 81.9673 11.0797 81.8594 8.88889H92.6675C92.6675 8.61953 92.6855 8.2963 92.6675 7.93715C92.6495 3.95062 91.3727 2.76543 86.1215 2.76543C80.8883 2.76543 79.4856 3.95062 79.4856 7.93715V8.47587C79.4856 12.4624 80.8883 13.6476 86.2294 13.6476ZM86.1395 4.56117C89.5204 4.56117 90.1858 5.18967 90.2397 7.21885H81.8594C82.0033 5.11785 82.8305 4.56117 86.1395 4.56117Z" fill="white"/>
<path d="M94.9901 10.5589C94.9901 11.9057 94.9901 12.642 94.9721 13.4321H97.3459C97.3279 12.642 97.3279 11.9416 97.3279 10.5589V8.36813C97.3279 5.51291 98.0472 4.8844 100.997 4.8844C103.892 4.8844 104.252 5.29742 104.252 7.14703V7.48822L106.5 7.4523C106.517 7.03928 106.517 6.75196 106.517 6.42873C106.517 3.5376 105.672 2.76543 101.788 2.76543C99.414 2.76543 97.9753 3.37598 97.202 4.57912L97.184 2.98092H94.9721C94.9901 3.68126 94.9901 4.36364 94.9901 5.60269V10.5589Z" fill="white"/>
<path d="M122.788 13.5398C124.119 10.9181 126.888 5.42312 128.183 2.98092H125.665L123.507 7.2009C123.004 8.20651 122.5 9.23008 122.051 10.1639H121.062C120.504 9.21212 119.857 8.18855 119.245 7.16498L116.692 2.98092H114.048C115.613 5.44108 118.274 9.84063 119.623 12.1392H121.026L120.756 12.624C120.162 13.7374 119.749 13.9708 118.652 13.9708C117.968 13.9708 117.339 13.9529 116.602 13.9169L116.566 15.8923C117.303 15.9641 118.202 16 118.724 16C120.9 16 121.835 15.4074 122.788 13.5398Z" fill="white"/>
<path d="M135.402 13.6476C140.761 13.6476 142.128 12.4624 142.128 8.47587V7.93715C142.128 3.95062 140.761 2.76543 135.402 2.76543C130.061 2.76543 128.694 3.95062 128.694 7.93715V8.47587C128.694 12.4624 130.061 13.6476 135.402 13.6476ZM135.402 11.5645C131.734 11.5645 131.05 10.8822 131.05 8.27834V8.13468C131.05 5.51291 131.734 4.84849 135.402 4.84849C139.089 4.84849 139.754 5.51291 139.754 8.13468V8.27834C139.754 10.8822 139.089 11.5645 135.402 11.5645Z" fill="white"/>
<path d="M144.391 6.93154C144.391 8.11672 144.373 8.60157 144.373 9.40965C144.373 12.4085 145.254 13.6476 149.804 13.6476C152.429 13.6476 153.958 13.0191 154.767 11.798L154.803 13.4321H156.997C156.979 12.7138 156.979 12.0494 156.979 10.8103V5.8541C156.979 4.48934 156.979 3.77104 156.997 2.98092H154.641C154.659 3.77104 154.659 4.47138 154.659 5.8541V8.22447C154.659 10.7744 153.904 11.5286 150.685 11.5286C147.322 11.5286 146.711 10.7385 146.711 8.45791V5.81818C146.711 4.36364 146.711 3.82492 146.729 2.98092H144.373C144.391 3.86083 144.391 4.61504 144.391 5.81818V6.93154Z" fill="white"/>
<path d="M159.934 10.5589C159.934 11.9057 159.934 12.642 159.916 13.4321H162.29C162.272 12.642 162.272 11.9416 162.272 10.5589V8.36813C162.272 5.51291 162.992 4.8844 165.941 4.8844C168.836 4.8844 169.196 5.29742 169.196 7.14703V7.48822L171.444 7.4523C171.462 7.03928 171.462 6.75196 171.462 6.42873C171.462 3.5376 170.617 2.76543 166.732 2.76543C164.358 2.76543 162.92 3.37598 162.146 4.57912L162.128 2.98092H159.916C159.934 3.68126 159.934 4.36364 159.934 5.60269V10.5589Z" fill="white"/>
<path d="M180.395 10.4153C180.395 11.7262 180.395 12.6061 180.377 13.4321H182.751C182.733 12.6061 182.733 11.7262 182.733 10.4332V2.99888C182.733 1.72391 182.733 0.754209 182.751 0H180.377C180.395 0.772166 180.395 1.72391 180.395 2.98092V10.4153Z" fill="white"/>
<path d="M185.733 0.125701V1.92144H188.107V0.125701H185.733ZM185.751 10.4153C185.751 11.7262 185.751 12.6061 185.733 13.4321H188.107C188.089 12.6061 188.089 11.7262 188.089 10.4332V5.96184C188.089 4.68687 188.089 3.73513 188.107 2.98092H185.733C185.751 3.73513 185.751 4.70483 185.751 5.96184V10.4153Z" fill="white"/>
<path d="M191.072 10.5589C191.072 11.9057 191.072 12.642 191.054 13.4321H193.428C193.41 12.642 193.41 11.9416 193.41 10.5589V8.18855C193.41 5.62065 194.147 4.8844 196.755 4.8844C199.075 4.8844 199.704 5.44108 199.704 7.29069V10.6128C199.704 11.9596 199.704 12.5342 199.686 13.4321H202.042C202.024 12.3367 202.024 11.5286 202.024 10.5589V8.18855C202.024 5.62065 202.815 4.8844 205.387 4.8844C207.707 4.8844 208.336 5.44108 208.336 7.29069V10.5948C208.336 11.9596 208.336 12.5342 208.318 13.4321H210.692C210.674 12.3547 210.674 11.5466 210.674 10.5948V9.62514C210.674 8.00898 210.692 7.14703 210.692 6.33894C210.692 3.77104 209.811 2.76543 206.286 2.76543C203.966 2.76543 202.617 3.4119 201.898 4.68687C201.466 3.32211 200.315 2.76543 197.726 2.76543C195.424 2.76543 194.039 3.37598 193.284 4.65095L193.266 2.98092H191.054C191.072 3.68126 191.072 4.36364 191.072 5.60269V10.5589Z" fill="white"/>
<path d="M213.604 0.125701V1.92144H215.978V0.125701H213.604ZM213.622 10.4153C213.622 11.7262 213.622 12.6061 213.604 13.4321H215.978C215.96 12.6061 215.96 11.7262 215.96 10.4332V5.96184C215.96 4.68687 215.96 3.73513 215.978 2.98092H213.604C213.622 3.73513 213.622 4.70483 213.622 5.96184V10.4153Z" fill="white"/>
<path d="M219.608 6.78788C219.608 7.82941 219.59 8.87093 219.59 9.69697C219.59 12.7677 220.615 13.5219 225.039 13.5219C225.777 13.5219 226.478 13.486 227.143 13.4321L227.125 11.4029C226.406 11.4568 226.028 11.4747 225.237 11.4747C222.558 11.4747 221.946 11.2054 221.946 9.14029V5.0101H227.125V2.98092H221.946C221.946 2.08305 221.946 1.40067 221.964 0.933782L219.59 0.969698C219.608 1.77778 219.608 2.35241 219.608 2.98092C219.033 2.98092 218.385 2.98092 217.72 2.98092V5.0101H219.608V6.78788Z" fill="white"/>
<path d="M229.305 10.4153C229.305 11.7262 229.305 12.6061 229.287 13.4321H231.661C231.643 12.6061 231.643 11.7262 231.643 10.4332V2.99888C231.643 1.72391 231.643 0.754209 231.661 0H229.287C229.305 0.772166 229.305 1.72391 229.305 2.98092V10.4153Z" fill="white"/>
<path d="M240.74 13.6476C246.117 13.6476 247.178 12.6061 247.178 9.96633L244.894 9.8945C244.894 11.1156 244.427 11.6902 240.758 11.6902C237.269 11.6902 236.478 11.0797 236.37 8.88889H247.178C247.178 8.61953 247.196 8.2963 247.178 7.93715C247.16 3.95062 245.883 2.76543 240.632 2.76543C235.399 2.76543 233.996 3.95062 233.996 7.93715V8.47587C233.996 12.4624 235.399 13.6476 240.74 13.6476ZM240.65 4.56117C244.031 4.56117 244.696 5.18967 244.75 7.21885H236.37C236.514 5.11785 237.341 4.56117 240.65 4.56117Z" fill="white"/>
<path d="M255.112 13.6476C260.399 13.6476 261.154 12.7856 261.154 10.523C261.154 8.422 260.471 7.56004 255.166 7.16498C251.407 6.85971 251.155 6.59035 251.155 5.78227C251.155 4.95623 251.641 4.61504 254.716 4.61504C257.953 4.61504 258.421 4.99214 258.421 5.96184V6.19529L260.74 6.14141C260.74 3.62739 259.913 2.76543 254.788 2.76543C249.896 2.76543 248.907 3.68126 248.907 5.90797C248.907 8.06285 249.717 8.78115 254.5 9.15825C258.493 9.46352 258.798 9.7688 258.798 10.6667C258.798 11.5286 258.475 11.8698 255.166 11.8698C251.533 11.8698 251.065 11.5107 251.065 10.2716V10.0022L248.763 10.0561C248.763 13.055 249.735 13.6476 255.112 13.6476Z" fill="white"/>
<path d="M268.951 13.6476C274.238 13.6476 274.993 12.7856 274.993 10.523C274.993 8.422 274.31 7.56004 269.004 7.16498C265.246 6.85971 264.994 6.59035 264.994 5.78227C264.994 4.95623 265.48 4.61504 268.555 4.61504C271.792 4.61504 272.259 4.99214 272.259 5.96184V6.19529L274.579 6.14141C274.579 3.62739 273.752 2.76543 268.627 2.76543C263.735 2.76543 262.746 3.68126 262.746 5.90797C262.746 8.06285 263.555 8.78115 268.339 9.15825C272.331 9.46352 272.637 9.7688 272.637 10.6667C272.637 11.5286 272.313 11.8698 269.004 11.8698C265.372 11.8698 264.904 11.5107 264.904 10.2716V10.0022L262.602 10.0561C262.602 13.055 263.573 13.6476 268.951 13.6476Z" fill="white"/>
<path d="M284.64 6.78788C284.64 7.82941 284.622 8.87093 284.622 9.69697C284.622 12.7677 285.647 13.5219 290.071 13.5219C290.809 13.5219 291.51 13.486 292.176 13.4321L292.158 11.4029C291.438 11.4568 291.061 11.4747 290.269 11.4747C287.59 11.4747 286.978 11.2054 286.978 9.14029V5.0101H292.158V2.98092H286.978C286.978 2.08305 286.978 1.40067 286.996 0.933782L284.622 0.969698C284.64 1.77778 284.64 2.35241 284.64 2.98092C284.065 2.98092 283.418 2.98092 282.752 2.98092V5.0101H284.64V6.78788Z" fill="white"/>
<path d="M294.302 10.5589C294.302 11.9057 294.302 12.642 294.284 13.4321H296.657C296.639 12.642 296.639 11.9416 296.639 10.5589V8.36813C296.639 5.51291 297.359 4.8844 300.308 4.8844C303.203 4.8844 303.563 5.29742 303.563 7.14703V7.48822L305.811 7.4523C305.829 7.03928 305.829 6.75196 305.829 6.42873C305.829 3.5376 304.984 2.76543 301.099 2.76543C298.725 2.76543 297.287 3.37598 296.513 4.57912L296.495 2.98092H294.284C294.302 3.68126 294.302 4.36364 294.302 5.60269V10.5589Z" fill="white"/>
<path d="M312.863 13.6476C315.759 13.6476 317.269 13.0909 317.989 12.1392L318.025 13.4321H320.147C320.129 12.0135 320.129 11.0976 320.129 10.0202C320.129 8.36813 320.147 7.75758 320.147 6.33894C320.147 3.89674 319.176 2.76543 313.763 2.76543C308.817 2.76543 307.63 3.71717 307.666 6.08754L309.914 6.14141C309.896 5.02806 310.274 4.66891 313.727 4.66891C317.269 4.66891 317.809 5.17172 317.809 6.82379V8.02694C317.018 7.3266 315.525 6.96745 312.863 6.96745C308.206 6.96745 307.217 7.95511 307.217 10.3434C307.217 12.6958 308.17 13.6476 312.863 13.6476ZM313.691 11.8339C310.22 11.8339 309.572 11.4388 309.572 10.2896C309.572 9.12233 310.004 8.63749 313.727 8.63749C317.305 8.63749 317.863 9.10438 317.863 9.85859V10.3075C317.863 11.349 317.305 11.8339 313.691 11.8339Z" fill="white"/>
<path d="M329.092 13.6476C334.379 13.6476 335.638 12.4624 335.638 9.26599L333.336 9.21212C333.336 10.8822 332.653 11.5645 329.11 11.5645C325.495 11.5645 324.812 10.8822 324.812 8.27834V8.13468C324.812 5.51291 325.495 4.84849 329.11 4.84849C332.653 4.84849 333.3 5.54882 333.3 7.2009V7.18294L335.602 7.12907C335.602 3.84287 334.397 2.76543 329.092 2.76543C323.877 2.76543 322.456 3.95062 322.456 7.93715V8.47587C322.456 12.4624 323.895 13.6476 329.092 13.6476Z" fill="white"/>
<path d="M337.944 10.4153C337.944 11.7262 337.944 12.6061 337.926 13.4321H340.3C340.282 12.6061 340.282 11.7262 340.282 10.4332V9.15825H342.961C343.483 9.6431 344.058 10.1639 344.688 10.6846L347.925 13.4321H350.964L351 13.3962C349.381 12.0494 346.594 9.58923 344.778 8.00898C346.54 6.4826 349.094 4.32772 350.748 3.01683L350.712 2.98092H347.781L344.94 5.31538C344.22 5.90797 343.501 6.51852 342.853 7.0752H340.282V2.99888C340.282 1.72391 340.282 0.754209 340.3 0H337.926C337.944 0.772166 337.944 1.72391 337.944 2.98092V10.4153Z" fill="white"/>
</svg>
