<svg width="462" height="80" viewBox="0 0 462 80" fill="none" xmlns="http://www.w3.org/2000/svg">
<path d="M1.572 21.276L4.236 6.228C4.56 4.284 4.776 3.168 5.028 1.44H18.384C30.66 1.44 33.648 4.716 32.1 14.004L32.028 14.436C30.3 24.156 27.204 27 14.892 27H0.528C0.924 25.02 1.14 23.688 1.572 21.276ZM18.348 4.824H8.196L4.92 23.616H15C24.792 23.616 26.952 21.708 28.248 14.436L28.32 14.004C29.58 6.732 28.104 4.824 18.348 4.824ZM39.831 0.647998H43.503L42.927 3.996H39.255L39.831 0.647998ZM36.231 21.348L37.851 12.168C38.283 9.612 38.643 7.668 38.859 6.12H42.531C42.243 7.668 41.883 9.612 41.415 12.204L39.831 21.384C39.399 23.76 39.111 25.416 38.859 27H35.187C35.511 25.416 35.799 23.76 36.231 21.348ZM56.6838 27.432C46.2798 27.432 44.1198 26.244 45.1638 20.196L48.8358 20.088L48.7278 20.664C48.2238 23.58 49.1958 24.408 56.8638 24.408C64.0998 24.408 65.0358 23.652 65.3238 21.816C65.6478 19.8 65.1798 18.9 56.9358 18.18C47.8638 17.388 46.2438 15.732 46.9638 11.484C47.7558 7.092 49.3758 5.688 58.9878 5.688C68.7438 5.688 70.6878 7.38 69.8238 12.384L66.0798 12.492L66.1878 11.952C66.5838 9.756 65.6478 8.928 58.7718 8.928C52.0038 8.928 50.6358 9.684 50.4198 11.34C50.1678 13.212 50.5278 14.112 58.1238 14.832C68.1318 15.768 69.7518 17.568 68.9958 21.852C68.2398 26.172 67.1598 27.432 56.6838 27.432ZM85.1086 27.432C75.0286 27.432 72.0406 25.056 73.4446 17.1L73.6246 16.02C75.0286 8.064 77.8366 5.688 87.9526 5.688C98.2486 5.688 100.697 7.848 99.5806 14.22L95.9806 14.328C96.6286 10.656 95.4766 9.036 87.8446 9.036C80.0686 9.036 78.2686 10.548 77.2246 16.38L77.1526 16.74C76.1446 22.572 77.4046 24.084 85.1806 24.084C92.8126 24.084 94.6126 22.536 95.2606 18.792L98.8246 18.9C97.7086 25.092 95.3686 27.432 85.1086 27.432ZM114.501 27.432C104.097 27.432 101.361 25.056 102.765 17.1L102.945 16.02C104.349 8.064 107.085 5.688 117.489 5.688C127.893 5.688 130.629 8.064 129.225 16.02L129.045 17.1C127.641 25.056 124.905 27.432 114.501 27.432ZM114.645 24.084C122.565 24.084 124.401 22.572 125.409 16.74L125.481 16.38C126.525 10.548 125.229 9.036 117.309 9.036C109.389 9.036 107.589 10.548 106.545 16.38L106.473 16.74C105.465 22.572 106.725 24.084 114.645 24.084ZM145.728 27H138.924C137.592 22.572 134.028 11.016 132.444 6.12H136.332L139.212 15.516C140.076 18.288 140.94 21.132 141.588 23.4H144.108C145.584 21.096 147.384 18.324 149.256 15.552L155.556 6.12H159.732C156.384 11.016 149.112 21.888 145.728 27ZM171.212 27.432C160.7 27.432 158 24.84 159.296 17.1L159.476 16.02C160.88 8.064 163.616 5.688 173.876 5.688C184.136 5.688 186.404 8.316 185.216 16.02C185.144 16.596 184.964 17.352 184.856 17.964H162.824C162.176 22.824 163.652 24.228 171.32 24.228C179.24 24.228 180.428 22.896 180.896 20.196L184.46 20.34C183.56 25.344 181.724 27.432 171.212 27.432ZM173.732 8.82C166.496 8.82 164.48 10.116 163.364 14.868H181.58C182.264 10.26 181.112 8.82 173.732 8.82ZM189.44 21.24L191.168 11.484C191.636 8.82 191.852 7.524 192.068 6.12H195.416L194.948 9.18C197 6.84 200.06 5.688 204.524 5.688C212.552 5.688 213.92 7.128 212.876 13.104C212.804 13.536 212.696 14.076 212.588 14.616L209.096 14.688L209.24 13.968C209.96 9.9 209.384 9.036 203.084 9.036C196.892 9.036 194.948 10.368 193.904 16.416L193.04 21.24C192.536 24.156 192.284 25.488 192.068 27H188.396C188.684 25.488 188.936 24.084 189.44 21.24ZM241.864 27.648C239.632 30.924 237.436 32.076 233.764 32.076C232.9 32.076 231.244 32.004 229.948 31.932L230.632 28.692C231.748 28.764 232.864 28.8 234.232 28.8C236.356 28.8 237.184 28.368 238.876 26.028L239.704 24.876H237.436C235.6 20.448 231.568 11.052 229.3 6.12H233.296L237.04 14.724C238.048 17.064 239.128 19.44 240.028 21.528H242.008C243.376 19.476 244.96 17.136 246.58 14.832L252.592 6.12H256.588C253.132 11.016 245.5 22.32 241.864 27.648ZM267.888 27.432C257.484 27.432 254.748 25.056 256.152 17.1L256.332 16.02C257.736 8.064 260.472 5.688 270.876 5.688C281.28 5.688 284.016 8.064 282.612 16.02L282.432 17.1C281.028 25.056 278.292 27.432 267.888 27.432ZM268.032 24.084C275.952 24.084 277.788 22.572 278.796 16.74L278.868 16.38C279.912 10.548 278.616 9.036 270.696 9.036C262.776 9.036 260.976 10.548 259.932 16.38L259.86 16.74C258.852 22.572 260.112 24.084 268.032 24.084ZM288.082 14.04L288.442 11.844C288.91 9.252 289.162 7.812 289.414 6.12H293.086C292.762 7.74 292.582 8.784 292.042 11.844L291.07 17.46C290.206 22.248 291.25 24.084 298.522 24.084C305.434 24.084 307.45 22.392 308.386 16.92L309.286 11.88C309.79 8.964 310.042 7.632 310.258 6.12H313.93C313.642 7.632 313.39 9.036 312.886 11.88L311.158 21.636C310.69 24.3 310.474 25.596 310.258 27H306.91L307.378 23.976C305.326 26.28 302.194 27.432 297.586 27.432C288.118 27.432 286.138 24.876 287.254 18.54C287.506 17.064 287.686 16.2 288.082 14.04ZM317.796 21.24L319.524 11.484C319.992 8.82 320.208 7.524 320.424 6.12H323.772L323.304 9.18C325.356 6.84 328.416 5.688 332.88 5.688C340.908 5.688 342.276 7.128 341.232 13.104C341.16 13.536 341.052 14.076 340.944 14.616L337.452 14.688L337.596 13.968C338.316 9.9 337.74 9.036 331.44 9.036C325.248 9.036 323.304 10.368 322.26 16.416L321.396 21.24C320.892 24.156 320.64 25.488 320.424 27H316.752C317.04 25.488 317.292 24.084 317.796 21.24ZM1.356 68.348L4.02 53.12C4.488 50.564 4.812 48.62 5.064 47.072H8.736C8.412 48.62 8.088 50.564 7.62 53.156L4.956 68.384C4.524 70.76 4.236 72.416 3.984 74H0.312C0.636 72.416 0.924 70.76 1.356 68.348ZM15.2568 47.648H18.9288L18.3528 50.996H14.6808L15.2568 47.648ZM11.6568 68.348L13.2768 59.168C13.7088 56.612 14.0688 54.668 14.2848 53.12H17.9568C17.6688 54.668 17.3088 56.612 16.8408 59.204L15.2568 68.384C14.8248 70.76 14.5368 72.416 14.2848 74H10.6128C10.9368 72.416 11.2248 70.76 11.6568 68.348ZM21.8856 68.24L23.6136 58.484C24.0816 55.82 24.2976 54.524 24.5136 53.12H27.8616L27.4296 55.928C29.2296 53.768 32.0016 52.688 36.2136 52.688C41.3976 52.688 43.9176 53.696 44.4936 56.36C46.3296 53.912 49.1736 52.688 53.6376 52.688C60.7656 52.688 62.7456 54.632 61.8096 59.888C61.5576 61.364 61.1976 63.2 60.6216 66.44L60.2976 68.312C59.9736 70.22 59.6856 71.804 59.3256 74H55.6536C56.0136 72.236 56.1936 71.12 56.6976 68.312L57.9936 60.968C58.6416 57.26 57.4176 56.036 52.4496 56.036C46.7976 56.036 44.7456 57.728 43.7736 63.2L42.8736 68.24C42.5496 70.22 42.2616 71.804 41.9016 74H38.2296C38.5896 72.236 38.7696 71.12 39.2736 68.348L40.5696 60.968C41.2176 57.26 39.9936 56.036 35.0256 56.036C29.3376 56.036 27.3576 57.728 26.3856 63.2L25.4856 68.24C24.9816 71.156 24.7296 72.488 24.5136 74H20.8416C21.1296 72.488 21.3816 71.084 21.8856 68.24ZM70.4521 47.648H74.1241L73.5481 50.996H69.8761L70.4521 47.648ZM66.8521 68.348L68.4721 59.168C68.9041 56.612 69.2641 54.668 69.4801 53.12H73.1521C72.8641 54.668 72.5041 56.612 72.0361 59.204L70.4521 68.384C70.0201 70.76 69.7321 72.416 69.4801 74H65.8081C66.1321 72.416 66.4201 70.76 66.8521 68.348ZM79.4929 61.04L80.3209 56.396H76.5409L77.1169 53.12C78.5929 53.156 79.7449 53.12 80.8969 53.12C81.1129 51.932 81.2929 50.744 81.5809 49.088L85.2529 49.016C85.0729 49.88 84.8209 51.32 84.5329 53.12H95.2609L94.6849 56.396H83.9209L82.2289 65.936C81.4729 70.292 82.8049 70.832 88.3129 70.832C89.9329 70.832 90.7969 70.796 92.1649 70.724L91.6249 74C90.4729 74.108 89.5009 74.18 87.9169 74.18C79.4209 74.18 77.4409 72.632 78.5209 66.44C78.8089 64.856 79.2049 62.804 79.4929 61.04ZM97.5083 68.348L100.172 53.12C100.64 50.564 100.964 48.62 101.216 47.072H104.888C104.564 48.62 104.24 50.564 103.772 53.156L101.108 68.384C100.676 70.76 100.388 72.416 100.136 74H96.4643C96.7883 72.416 97.0763 70.76 97.5083 68.348ZM119.005 74.432C108.493 74.432 105.793 71.84 107.089 64.1L107.269 63.02C108.673 55.064 111.409 52.688 121.669 52.688C131.929 52.688 134.197 55.316 133.009 63.02C132.937 63.596 132.757 64.352 132.649 64.964H110.617C109.969 69.824 111.445 71.228 119.113 71.228C127.033 71.228 128.221 69.896 128.689 67.196L132.253 67.34C131.353 72.344 129.517 74.432 119.005 74.432ZM121.525 55.82C114.289 55.82 112.273 57.116 111.157 61.868H129.373C130.057 57.26 128.905 55.82 121.525 55.82ZM147.457 74.432C137.053 74.432 134.893 73.244 135.937 67.196L139.609 67.088L139.501 67.664C138.997 70.58 139.969 71.408 147.637 71.408C154.873 71.408 155.809 70.652 156.097 68.816C156.421 66.8 155.953 65.9 147.709 65.18C138.637 64.388 137.017 62.732 137.737 58.484C138.529 54.092 140.149 52.688 149.761 52.688C159.517 52.688 161.461 54.38 160.597 59.384L156.853 59.492L156.961 58.952C157.357 56.756 156.421 55.928 149.545 55.928C142.777 55.928 141.409 56.684 141.193 58.34C140.941 60.212 141.301 61.112 148.897 61.832C158.905 62.768 160.525 64.568 159.769 68.852C159.013 73.172 157.933 74.432 147.457 74.432ZM175.09 74.432C164.686 74.432 162.526 73.244 163.57 67.196L167.242 67.088L167.134 67.664C166.63 70.58 167.602 71.408 175.27 71.408C182.506 71.408 183.442 70.652 183.73 68.816C184.054 66.8 183.586 65.9 175.342 65.18C166.27 64.388 164.65 62.732 165.37 58.484C166.162 54.092 167.782 52.688 177.394 52.688C187.15 52.688 189.094 54.38 188.23 59.384L184.486 59.492L184.594 58.952C184.99 56.756 184.054 55.928 177.178 55.928C170.41 55.928 169.042 56.684 168.826 58.34C168.574 60.212 168.934 61.112 176.53 61.832C186.538 62.768 188.158 64.568 187.402 68.852C186.646 73.172 185.566 74.432 175.09 74.432ZM209.565 47.648H213.237L212.661 50.996H208.989L209.565 47.648ZM205.965 68.348L207.585 59.168C208.017 56.612 208.377 54.668 208.593 53.12H212.265C211.977 54.668 211.617 56.612 211.149 59.204L209.565 68.384C209.133 70.76 208.845 72.416 208.593 74H204.921C205.245 72.416 205.533 70.76 205.965 68.348ZM216.194 68.24L217.922 58.484C218.39 55.82 218.606 54.524 218.822 53.12H222.17L221.702 56.18C223.79 53.84 226.958 52.688 231.638 52.688C241.142 52.688 243.158 55.244 242.042 61.58C241.79 63.056 241.574 63.92 241.214 66.08L240.818 68.276C240.35 70.868 240.098 72.308 239.846 74H236.174C236.498 72.38 236.678 71.336 237.218 68.276L238.226 62.66C239.054 57.872 238.01 56.036 230.702 56.036C223.646 56.036 221.666 57.728 220.694 63.2L219.794 68.24C219.29 71.156 219.038 72.488 218.822 74H215.15C215.438 72.488 215.69 71.084 216.194 68.24ZM257.531 74.432C247.127 74.432 244.967 73.244 246.011 67.196L249.683 67.088L249.575 67.664C249.071 70.58 250.043 71.408 257.711 71.408C264.947 71.408 265.883 70.652 266.171 68.816C266.495 66.8 266.027 65.9 257.783 65.18C248.711 64.388 247.091 62.732 247.811 58.484C248.603 54.092 250.223 52.688 259.835 52.688C269.591 52.688 271.535 54.38 270.671 59.384L266.927 59.492L267.035 58.952C267.431 56.756 266.495 55.928 259.619 55.928C252.851 55.928 251.483 56.684 251.267 58.34C251.015 60.212 251.375 61.112 258.971 61.832C268.979 62.768 270.599 64.568 269.843 68.852C269.087 73.172 268.007 74.432 257.531 74.432ZM273.932 74L276.812 57.584C277.1 55.928 277.352 54.632 277.568 53.12H281.06L280.52 56.108C282.644 53.804 285.956 52.688 291.032 52.688C300.68 52.688 303.452 55.064 302.048 63.02L301.868 64.1C300.464 72.056 297.692 74.432 287.828 74.432C282.644 74.432 279.548 73.316 278.072 71.012C277.424 74.72 276.956 77.492 276.704 79.04H272.996C273.212 77.96 273.536 76.16 273.932 74ZM279.332 63.704C278.324 69.428 279.656 71.084 287.324 71.084C295.388 71.084 297.224 69.572 298.268 63.74L298.34 63.38C299.348 57.548 298.052 56.036 290.168 56.036C282.32 56.036 280.376 57.728 279.404 63.416L279.332 63.704ZM309.972 47.648H313.644L313.068 50.996H309.396L309.972 47.648ZM306.372 68.348L307.992 59.168C308.424 56.612 308.784 54.668 309 53.12H312.672C312.384 54.668 312.024 56.612 311.556 59.204L309.972 68.384C309.54 70.76 309.252 72.416 309 74H305.328C305.652 72.416 305.94 70.76 306.372 68.348ZM316.6 68.24L318.328 58.484C318.796 55.82 319.012 54.524 319.228 53.12H322.576L322.108 56.18C324.16 53.84 327.22 52.688 331.684 52.688C339.712 52.688 341.08 54.128 340.036 60.104C339.964 60.536 339.856 61.076 339.748 61.616L336.256 61.688L336.4 60.968C337.12 56.9 336.544 56.036 330.244 56.036C324.052 56.036 322.108 57.368 321.064 63.416L320.2 68.24C319.696 71.156 319.444 72.488 319.228 74H315.556C315.844 72.488 316.096 71.084 316.6 68.24ZM352.402 74.432C342.826 74.432 341.242 72.488 342.034 67.808C342.898 63.02 345.31 61.04 354.778 61.04C359.962 61.04 362.914 61.832 364.354 63.164L364.822 60.608C365.434 57.008 364.39 55.892 356.794 55.892C349.45 55.892 348.442 56.72 348.046 59.204L344.41 59.096C345.094 54.74 347.29 52.688 356.974 52.688C367.63 52.688 369.43 54.992 368.566 59.924C368.062 62.768 367.774 64.136 367.27 67.16C366.874 69.32 366.55 71.156 366.082 74H362.842L363.238 71.552C361.366 73.316 357.982 74.432 352.402 74.432ZM353.986 71.3C361.726 71.3 363.202 70.184 363.598 67.844L363.814 66.728C364.102 65.108 363.022 64.028 355.282 64.028C347.398 64.028 346.21 65.144 345.742 67.808C345.31 70.4 346.642 71.3 353.986 71.3ZM375.93 61.04L376.758 56.396H372.978L373.554 53.12C375.03 53.156 376.182 53.12 377.334 53.12C377.55 51.932 377.73 50.744 378.018 49.088L381.69 49.016C381.51 49.88 381.258 51.32 380.97 53.12H391.698L391.122 56.396H380.358L378.666 65.936C377.91 70.292 379.242 70.832 384.75 70.832C386.37 70.832 387.234 70.796 388.602 70.724L388.062 74C386.91 74.108 385.938 74.18 384.354 74.18C375.858 74.18 373.878 72.632 374.958 66.44C375.246 64.856 375.642 62.804 375.93 61.04ZM397.546 47.648H401.218L400.642 50.996H396.97L397.546 47.648ZM393.946 68.348L395.566 59.168C395.998 56.612 396.358 54.668 396.574 53.12H400.246C399.958 54.668 399.598 56.612 399.13 59.204L397.546 68.384C397.114 70.76 396.826 72.416 396.574 74H392.902C393.226 72.416 393.514 70.76 393.946 68.348ZM415.263 74.432C404.859 74.432 402.123 72.056 403.527 64.1L403.707 63.02C405.111 55.064 407.847 52.688 418.251 52.688C428.655 52.688 431.391 55.064 429.987 63.02L429.807 64.1C428.403 72.056 425.667 74.432 415.263 74.432ZM415.407 71.084C423.327 71.084 425.163 69.572 426.171 63.74L426.243 63.38C427.287 57.548 425.991 56.036 418.071 56.036C410.151 56.036 408.351 57.548 407.307 63.38L407.235 63.74C406.227 69.572 407.487 71.084 415.407 71.084ZM434.233 68.24L435.961 58.484C436.429 55.82 436.645 54.524 436.861 53.12H440.209L439.741 56.18C441.829 53.84 444.997 52.688 449.677 52.688C459.181 52.688 461.197 55.244 460.081 61.58C459.829 63.056 459.613 63.92 459.253 66.08L458.857 68.276C458.389 70.868 458.137 72.308 457.885 74H454.213C454.537 72.38 454.717 71.336 455.257 68.276L456.265 62.66C457.093 57.872 456.049 56.036 448.741 56.036C441.685 56.036 439.705 57.728 438.733 63.2L437.833 68.24C437.329 71.156 437.077 72.488 436.861 74H433.189C433.477 72.488 433.729 71.084 434.233 68.24Z" fill="#313338"/>
</svg>
