<svg width="46" height="13" viewBox="0 0 46 13" fill="none" xmlns="http://www.w3.org/2000/svg">
<path opacity="0.25" d="M6.576 9.424C6.576 10.656 6.576 11.2 6.56 12H8.256C8.24 11.136 8.24 10.832 8.24 9.408V2.16H11.264C11.904 2.16 12.96 2.16 14.24 2.176V0.639999H0.576V2.176C1.856 2.16 2.912 2.16 4.672 2.16H6.576V9.424ZM16.2845 0.287999V1.776H17.9165V0.287999H16.2845ZM16.3005 9.488C16.3005 10.56 16.3005 11.296 16.2845 12H17.9165C17.9005 11.296 17.9005 10.56 17.9005 9.504V5.424C17.9005 4.272 17.9005 3.408 17.9165 2.72H16.2845C16.3005 3.408 16.3005 4.272 16.3005 5.408V9.488ZM21.3586 6.24C21.3586 7.024 21.3426 7.936 21.3426 8.64C21.3426 11.392 22.1906 12.08 25.9666 12.08C26.6706 12.08 27.2626 12.048 27.7586 12L27.7426 10.544C27.1346 10.576 26.7666 10.592 26.0466 10.592C23.5986 10.592 22.9586 10.352 22.9586 8.416V4.176H27.7426V2.72H22.9586C22.9586 1.92 22.9586 1.28 22.9746 0.896L21.3426 0.927999C21.3586 1.664 21.3586 2.192 21.3586 2.72C20.8466 2.72 20.3346 2.736 19.6786 2.72V4.176H21.3586V6.24ZM29.9255 9.488C29.9255 10.56 29.9255 11.296 29.9095 12H31.5415C31.5255 11.296 31.5255 10.56 31.5255 9.504V2.736C31.5255 1.584 31.5255 0.719999 31.5415 0.0319996H29.9095C29.9255 0.719999 29.9255 1.584 29.9255 2.72V9.488ZM39.7356 12.192C44.4076 12.192 45.2876 11.264 45.2876 9.04L43.7036 8.976C43.7036 10.176 43.2716 10.768 39.7516 10.768C36.3436 10.768 35.5756 10.144 35.4956 7.984H45.2876C45.2876 7.712 45.3036 7.376 45.2876 7.12C45.2396 3.584 44.1836 2.528 39.6236 2.528C35.0636 2.528 33.8476 3.584 33.8476 7.12V7.6C33.8476 11.136 35.0636 12.192 39.7356 12.192ZM39.6236 3.92C42.9036 3.92 43.5276 4.56 43.5916 6.608H35.4956C35.6076 4.496 36.4076 3.92 39.6236 3.92Z" fill="white"/>
</svg>
