<svg width="238" height="30" viewBox="0 0 238 30" fill="none" xmlns="http://www.w3.org/2000/svg">
<path d="M42.45 7.832H55.842L55.392 9.2H49.884V20H48.264V9.2H42.45V7.832ZM63.1559 11.468C62.1359 11.468 61.2179 11.702 60.4019 12.17C59.5859 12.638 58.9139 13.238 58.3859 13.97V20H56.7839V10.19H58.3859V12.152C58.6379 11.852 58.9379 11.576 59.2859 11.324C59.6459 11.072 60.0299 10.856 60.4379 10.676C60.8579 10.496 61.2959 10.358 61.7519 10.262C62.2199 10.154 62.6879 10.1 63.1559 10.1H63.6059C64.2299 10.1 64.8299 10.142 65.4059 10.226C65.9939 10.31 66.6059 10.454 67.2419 10.658L66.8099 11.972C66.2819 11.792 65.7479 11.666 65.2079 11.594C64.6679 11.51 64.1339 11.468 63.6059 11.468H63.1559ZM78.0585 20.09V18.83C77.7825 19.046 77.4705 19.232 77.1225 19.388C76.7745 19.544 76.4025 19.676 76.0065 19.784C75.6225 19.88 75.2265 19.952 74.8185 20C74.4105 20.06 74.0085 20.09 73.6125 20.09H73.0185C72.1665 20.09 71.4345 20.018 70.8225 19.874C70.2105 19.718 69.7065 19.514 69.3105 19.262C68.9145 18.998 68.6205 18.686 68.4285 18.326C68.2365 17.966 68.1405 17.57 68.1405 17.138V16.85C68.1405 16.418 68.2125 16.022 68.3565 15.662C68.5005 15.29 68.7525 14.972 69.1125 14.708C69.4845 14.444 69.9825 14.24 70.6065 14.096C71.2425 13.952 72.0405 13.88 73.0005 13.88H73.6125C73.9245 13.88 74.2725 13.898 74.6565 13.934C75.0405 13.958 75.4305 14 75.8265 14.06C76.2345 14.108 76.6305 14.174 77.0145 14.258C77.3985 14.33 77.7465 14.42 78.0585 14.528V13.988C78.0585 13.508 77.9985 13.112 77.8785 12.8C77.7585 12.476 77.5485 12.218 77.2485 12.026C76.9605 11.822 76.5765 11.678 76.0965 11.594C75.6165 11.51 75.0165 11.468 74.2965 11.468C73.3965 11.468 72.5025 11.528 71.6145 11.648C70.7385 11.756 69.9045 11.912 69.1125 12.116L68.6805 10.748C69.5205 10.544 70.3785 10.388 71.2545 10.28C72.1305 10.172 73.1085 10.112 74.1885 10.1C75.2445 10.088 76.1205 10.172 76.8165 10.352C77.5245 10.532 78.0885 10.79 78.5085 11.126C78.9285 11.462 79.2225 11.876 79.3905 12.368C79.5705 12.848 79.6605 13.382 79.6605 13.97V20.09H78.0585ZM73.6125 18.722C74.3925 18.722 75.1725 18.626 75.9525 18.434C76.7445 18.23 77.4465 17.924 78.0585 17.516V15.932C77.3865 15.68 76.6665 15.506 75.8985 15.41C75.1305 15.302 74.3685 15.248 73.6125 15.248H73.0005C72.3525 15.248 71.8125 15.284 71.3805 15.356C70.9605 15.428 70.6305 15.536 70.3905 15.68C70.1505 15.812 69.9825 15.974 69.8865 16.166C69.7905 16.346 69.7425 16.544 69.7425 16.76V17.138C69.7425 17.354 69.7905 17.558 69.8865 17.75C69.9825 17.942 70.1505 18.11 70.3905 18.254C70.6305 18.398 70.9605 18.512 71.3805 18.596C71.8125 18.68 72.3525 18.722 73.0005 18.722H73.6125ZM83.6661 15.464C83.6661 16.532 83.9961 17.342 84.6561 17.894C85.3281 18.446 86.4141 18.722 87.9141 18.722H88.6881C89.5881 18.722 90.4941 18.668 91.4061 18.56C92.3301 18.452 93.1761 18.29 93.9441 18.074L94.3761 19.442C93.5361 19.646 92.6481 19.808 91.7121 19.928C90.7761 20.036 89.7681 20.09 88.6881 20.09H87.9681C87.0561 20.09 86.2341 19.994 85.5021 19.802C84.7821 19.61 84.1641 19.322 83.6481 18.938C83.1441 18.542 82.7541 18.056 82.4781 17.48C82.2021 16.904 82.0641 16.232 82.0641 15.464V14.726C82.0641 13.958 82.2021 13.286 82.4781 12.71C82.7541 12.134 83.1441 11.654 83.6481 11.27C84.1641 10.886 84.7821 10.598 85.5021 10.406C86.2341 10.202 87.0561 10.1 87.9681 10.1H88.6881C89.7681 10.1 90.7461 10.16 91.6221 10.28C92.4981 10.388 93.3561 10.544 94.1961 10.748L93.7641 12.116C92.9961 11.9 92.1801 11.738 91.3161 11.63C90.4641 11.522 89.5881 11.468 88.6881 11.468H87.9141C86.4141 11.468 85.3281 11.744 84.6561 12.296C83.9961 12.848 83.6661 13.658 83.6661 14.726V15.464ZM98.13 6.896V20H96.528V6.896H98.13ZM109.758 20H107.472L98.868 14.78L106.86 10.1H109.146V10.172L101.388 14.78L109.758 19.928V20ZM121.61 14.366C120.554 14.27 119.672 14.138 118.964 13.97C118.256 13.802 117.686 13.586 117.254 13.322C116.822 13.058 116.516 12.74 116.336 12.368C116.156 11.996 116.066 11.558 116.066 11.054C116.066 10.502 116.156 10.01 116.336 9.578C116.528 9.134 116.858 8.768 117.326 8.48C117.794 8.18 118.43 7.952 119.234 7.796C120.038 7.64 121.052 7.562 122.276 7.562C123.524 7.562 124.736 7.64 125.912 7.796C127.1 7.94 128.162 8.114 129.098 8.318L128.666 9.704C127.646 9.476 126.59 9.296 125.498 9.164C124.406 9.02 123.278 8.948 122.114 8.948C121.202 8.948 120.458 8.99 119.882 9.074C119.306 9.158 118.856 9.284 118.532 9.452C118.208 9.608 117.986 9.812 117.866 10.064C117.746 10.304 117.686 10.58 117.686 10.892C117.686 11.192 117.746 11.456 117.866 11.684C117.998 11.912 118.226 12.11 118.55 12.278C118.874 12.434 119.312 12.572 119.864 12.692C120.428 12.812 121.142 12.914 122.006 12.998L123.662 13.16C124.754 13.268 125.66 13.4 126.38 13.556C127.112 13.712 127.7 13.922 128.144 14.186C128.588 14.45 128.9 14.786 129.08 15.194C129.272 15.602 129.368 16.106 129.368 16.706C129.368 17.222 129.266 17.696 129.062 18.128C128.87 18.56 128.528 18.932 128.036 19.244C127.544 19.544 126.878 19.778 126.038 19.946C125.21 20.114 124.16 20.198 122.888 20.198C122.264 20.198 121.634 20.174 120.998 20.126C120.374 20.09 119.756 20.042 119.144 19.982C118.544 19.91 117.968 19.832 117.416 19.748C116.864 19.652 116.354 19.556 115.886 19.46L116.318 18.128C116.726 18.224 117.2 18.32 117.74 18.416C118.28 18.5 118.844 18.572 119.432 18.632C120.032 18.692 120.638 18.74 121.25 18.776C121.874 18.812 122.474 18.83 123.05 18.83C123.938 18.83 124.682 18.782 125.282 18.686C125.882 18.578 126.362 18.434 126.722 18.254C127.094 18.062 127.358 17.84 127.514 17.588C127.67 17.324 127.748 17.03 127.748 16.706C127.748 16.418 127.694 16.16 127.586 15.932C127.478 15.704 127.268 15.506 126.956 15.338C126.644 15.158 126.2 15.008 125.624 14.888C125.06 14.756 124.316 14.642 123.392 14.546L121.61 14.366ZM137.133 11.468C135.633 11.468 134.547 11.744 133.875 12.296C133.215 12.848 132.885 13.658 132.885 14.726V15.464C132.885 16.532 133.215 17.342 133.875 17.894C134.547 18.446 135.633 18.722 137.133 18.722H138.267C138.711 18.722 139.179 18.704 139.671 18.668C140.163 18.632 140.655 18.578 141.147 18.506C141.639 18.434 142.119 18.35 142.587 18.254C143.055 18.146 143.487 18.026 143.883 17.894L144.315 19.244C143.451 19.508 142.497 19.718 141.453 19.874C140.409 20.018 139.347 20.09 138.267 20.09H137.187C136.275 20.09 135.453 19.994 134.721 19.802C134.001 19.61 133.383 19.322 132.867 18.938C132.363 18.542 131.973 18.056 131.697 17.48C131.421 16.904 131.283 16.232 131.283 15.464V14.726C131.283 13.958 131.421 13.286 131.697 12.71C131.973 12.134 132.363 11.654 132.867 11.27C133.383 10.886 134.001 10.598 134.721 10.406C135.453 10.202 136.275 10.1 137.187 10.1H138.645C139.557 10.1 140.355 10.178 141.039 10.334C141.735 10.49 142.317 10.742 142.785 11.09C143.253 11.426 143.601 11.864 143.829 12.404C144.069 12.932 144.189 13.58 144.189 14.348V15.878H134.163L133.695 14.51H142.587V13.916C142.587 13.088 142.239 12.476 141.543 12.08C140.847 11.672 139.923 11.468 138.771 11.468H137.133ZM155.807 20.09V18.83C155.531 19.046 155.219 19.232 154.871 19.388C154.523 19.544 154.151 19.676 153.755 19.784C153.371 19.88 152.975 19.952 152.567 20C152.159 20.06 151.757 20.09 151.361 20.09H150.767C149.915 20.09 149.183 20.018 148.571 19.874C147.959 19.718 147.455 19.514 147.059 19.262C146.663 18.998 146.369 18.686 146.177 18.326C145.985 17.966 145.889 17.57 145.889 17.138V16.85C145.889 16.418 145.961 16.022 146.105 15.662C146.249 15.29 146.501 14.972 146.861 14.708C147.233 14.444 147.731 14.24 148.355 14.096C148.991 13.952 149.789 13.88 150.749 13.88H151.361C151.673 13.88 152.021 13.898 152.405 13.934C152.789 13.958 153.179 14 153.575 14.06C153.983 14.108 154.379 14.174 154.763 14.258C155.147 14.33 155.495 14.42 155.807 14.528V13.988C155.807 13.508 155.747 13.112 155.627 12.8C155.507 12.476 155.297 12.218 154.997 12.026C154.709 11.822 154.325 11.678 153.845 11.594C153.365 11.51 152.765 11.468 152.045 11.468C151.145 11.468 150.251 11.528 149.363 11.648C148.487 11.756 147.653 11.912 146.861 12.116L146.429 10.748C147.269 10.544 148.127 10.388 149.003 10.28C149.879 10.172 150.857 10.112 151.937 10.1C152.993 10.088 153.869 10.172 154.565 10.352C155.273 10.532 155.837 10.79 156.257 11.126C156.677 11.462 156.971 11.876 157.139 12.368C157.319 12.848 157.409 13.382 157.409 13.97V20.09H155.807ZM151.361 18.722C152.141 18.722 152.921 18.626 153.701 18.434C154.493 18.23 155.195 17.924 155.807 17.516V15.932C155.135 15.68 154.415 15.506 153.647 15.41C152.879 15.302 152.117 15.248 151.361 15.248H150.749C150.101 15.248 149.561 15.284 149.129 15.356C148.709 15.428 148.379 15.536 148.139 15.68C147.899 15.812 147.731 15.974 147.635 16.166C147.539 16.346 147.491 16.544 147.491 16.76V17.138C147.491 17.354 147.539 17.558 147.635 17.75C147.731 17.942 147.899 18.11 148.139 18.254C148.379 18.398 148.709 18.512 149.129 18.596C149.561 18.68 150.101 18.722 150.749 18.722H151.361ZM166.814 11.468C165.794 11.468 164.876 11.702 164.06 12.17C163.244 12.638 162.572 13.238 162.044 13.97V20H160.442V10.19H162.044V12.152C162.296 11.852 162.596 11.576 162.944 11.324C163.304 11.072 163.688 10.856 164.096 10.676C164.516 10.496 164.954 10.358 165.41 10.262C165.878 10.154 166.346 10.1 166.814 10.1H167.264C167.888 10.1 168.488 10.142 169.064 10.226C169.652 10.31 170.264 10.454 170.9 10.658L170.468 11.972C169.94 11.792 169.406 11.666 168.866 11.594C168.326 11.51 167.792 11.468 167.264 11.468H166.814ZM173.473 15.464C173.473 16.532 173.803 17.342 174.463 17.894C175.135 18.446 176.221 18.722 177.721 18.722H178.495C179.395 18.722 180.301 18.668 181.213 18.56C182.137 18.452 182.983 18.29 183.751 18.074L184.183 19.442C183.343 19.646 182.455 19.808 181.519 19.928C180.583 20.036 179.575 20.09 178.495 20.09H177.775C176.863 20.09 176.041 19.994 175.309 19.802C174.589 19.61 173.971 19.322 173.455 18.938C172.951 18.542 172.561 18.056 172.285 17.48C172.009 16.904 171.871 16.232 171.871 15.464V14.726C171.871 13.958 172.009 13.286 172.285 12.71C172.561 12.134 172.951 11.654 173.455 11.27C173.971 10.886 174.589 10.598 175.309 10.406C176.041 10.202 176.863 10.1 177.775 10.1H178.495C179.575 10.1 180.553 10.16 181.429 10.28C182.305 10.388 183.163 10.544 184.003 10.748L183.571 12.116C182.803 11.9 181.987 11.738 181.123 11.63C180.271 11.522 179.395 11.468 178.495 11.468H177.721C176.221 11.468 175.135 11.744 174.463 12.296C173.803 12.848 173.473 13.658 173.473 14.726V15.464ZM187.937 20H186.335V6.896H187.937V11.792C188.165 11.552 188.453 11.33 188.801 11.126C189.161 10.91 189.551 10.73 189.971 10.586C190.391 10.43 190.835 10.31 191.303 10.226C191.771 10.142 192.239 10.1 192.707 10.1H193.301C194.177 10.1 194.975 10.202 195.695 10.406C196.427 10.598 197.051 10.886 197.567 11.27C198.095 11.654 198.503 12.134 198.791 12.71C199.091 13.286 199.241 13.958 199.241 14.726V20H197.621V14.834C197.621 14.306 197.537 13.832 197.369 13.412C197.213 12.992 196.961 12.638 196.613 12.35C196.265 12.062 195.815 11.846 195.263 11.702C194.723 11.546 194.069 11.468 193.301 11.468H192.707C191.687 11.468 190.763 11.654 189.935 12.026C189.107 12.398 188.441 12.896 187.937 13.52V20ZM202.476 8.174V6.374H204.438V8.174H202.476ZM204.348 20H202.746V11.828H201.288V10.46H204.348V20ZM208.943 10.19V12.152C209.195 11.852 209.495 11.576 209.843 11.324C210.203 11.072 210.587 10.856 210.995 10.676C211.415 10.496 211.853 10.358 212.309 10.262C212.777 10.154 213.245 10.1 213.713 10.1H214.307C215.183 10.1 215.981 10.202 216.701 10.406C217.433 10.598 218.057 10.886 218.573 11.27C219.101 11.654 219.509 12.134 219.797 12.71C220.097 13.286 220.247 13.958 220.247 14.726V20H218.627V14.834C218.627 14.306 218.543 13.832 218.375 13.412C218.219 12.992 217.967 12.638 217.619 12.35C217.271 12.062 216.821 11.846 216.269 11.702C215.729 11.546 215.075 11.468 214.307 11.468H213.713C212.693 11.468 211.775 11.702 210.959 12.17C210.143 12.638 209.471 13.238 208.943 13.97V20H207.341V10.19H208.943ZM234.032 17.228C233.792 17.48 233.498 17.726 233.15 17.966C232.814 18.194 232.436 18.404 232.016 18.596C231.596 18.776 231.146 18.92 230.666 19.028C230.186 19.136 229.688 19.19 229.172 19.19H228.578C227.702 19.19 226.892 19.118 226.148 18.974C225.416 18.818 224.78 18.578 224.24 18.254C223.712 17.918 223.298 17.486 222.998 16.958C222.698 16.43 222.548 15.782 222.548 15.014V14.366C222.548 13.598 222.698 12.944 222.998 12.404C223.298 11.852 223.712 11.402 224.24 11.054C224.78 10.694 225.416 10.43 226.148 10.262C226.892 10.094 227.702 10.01 228.578 10.01H229.172C229.64 10.01 230.114 10.052 230.594 10.136C231.074 10.22 231.53 10.34 231.962 10.496C232.394 10.64 232.784 10.82 233.132 11.036C233.492 11.24 233.792 11.462 234.032 11.702V10.19H235.634V18.632C235.634 19.988 235.058 21.044 233.906 21.8C232.766 22.568 230.978 22.952 228.542 22.952C228.122 22.952 227.69 22.94 227.246 22.916C226.802 22.892 226.358 22.85 225.914 22.79C225.482 22.742 225.056 22.682 224.636 22.61C224.228 22.538 223.844 22.454 223.484 22.358L223.142 20.846C223.898 21.074 224.714 21.254 225.59 21.386C226.466 21.518 227.45 21.584 228.542 21.584C229.562 21.584 230.42 21.512 231.116 21.368C231.824 21.224 232.394 21.014 232.826 20.738C233.258 20.462 233.564 20.126 233.744 19.73C233.936 19.334 234.032 18.884 234.032 18.38V17.228ZM234.032 13.43C233.528 12.806 232.844 12.308 231.98 11.936C231.116 11.564 230.18 11.378 229.172 11.378H228.578C227.03 11.378 225.908 11.612 225.212 12.08C224.516 12.548 224.168 13.316 224.168 14.384V14.996C224.168 15.56 224.258 16.028 224.438 16.4C224.618 16.76 224.888 17.048 225.248 17.264C225.62 17.468 226.082 17.612 226.634 17.696C227.186 17.78 227.834 17.822 228.578 17.822H229.172C230.192 17.822 231.134 17.618 231.998 17.21C232.862 16.79 233.54 16.22 234.032 15.5V13.43Z" fill="white"/>
<rect x="15" y="1.13509" width="19.6079" height="19.6079" rx="2.40789" transform="rotate(45 15 1.13509)" stroke="white" stroke-width="1.60526"/>
</svg>
