<svg width="270" height="63" viewBox="0 0 270 63" fill="none" xmlns="http://www.w3.org/2000/svg">
<path d="M39.5049 39.3802C47.6231 29.9699 26.1458 25.4578 17 25.1199L18.2331 18.8223H55.433L53.7888 25.1199H38.9911C52.5556 28.5221 51.2197 36.8949 49.2672 39.3802H39.5049Z" fill="#5200FF"/>
<path d="M56.2196 34.3015C55.8687 36.2295 55.6348 37.6683 55.3717 38.9056H62.3886C62.5933 37.6395 62.8564 36.2007 63.178 34.3015L63.2365 33.8986H82.2717L83.1488 35.4525C83.8505 36.7187 84.4937 37.9273 84.9615 38.9056H92.534C91.7446 37.4668 90.9259 35.9417 90.1658 34.4454C89.7857 33.7548 89.4056 33.0641 88.9963 32.3735C92.3586 31.4815 93.8496 29.7261 94.4636 26.2155C95.4577 20.6905 92.3001 18.4747 84.8446 18.4747H59.0264C58.8802 19.4819 58.6755 20.5466 58.4416 21.9278L56.2196 34.3015ZM84.026 24.1148C86.9497 24.1148 87.6806 24.7479 87.4175 26.2155C87.1543 27.683 86.1895 28.3737 83.2658 28.3737H64.2306L65.02 24.1148H84.026Z" fill="#5200FF"/>
<path d="M105.966 18.4747C103.101 23.1364 96.9488 34.9921 94.4636 38.9056H102.328L103.819 36.2295H124.357L124.942 38.9056H132.105C131.023 34.9921 127.953 23.1364 126.784 18.4747H105.966ZM106.919 30.7333C108.088 28.6326 108.624 26.4744 109.706 24.4601H121.901C122.281 26.532 122.749 28.7477 123.217 30.8772H106.831L106.919 30.7333Z" fill="#5200FF"/>
<path d="M154.372 39.3085C165.629 39.3085 169.4 37.4669 170.599 30.2441L163.67 30.129C163.29 32.316 161.243 33.3519 155.015 33.3519C149.08 33.3519 140.327 33.446 141 29.6764V27.7028C141.702 23.9044 149.08 24.0285 155.015 24.0285C161.331 24.0285 164.547 24.9781 164.137 27.2514L171.096 27.1363C172.265 20.4027 167.032 18.0719 155.776 18.0719C144.549 18.0719 135.504 17.4238 133.925 28.2298V29.6764C134.752 40.3665 143.145 39.3085 154.372 39.3085Z" fill="#5200FF"/>
<path d="M174.002 34.3015C173.651 36.2295 173.417 37.6395 173.154 38.9056H180.171C180.376 37.6107 180.639 36.2007 180.96 34.3015L181.516 31.2512H191.41C192.638 32.7764 193.603 33.985 194.334 34.9346L197.521 38.9056H205.912L205.941 38.8481C204.157 36.7762 199.772 31.3664 197.199 28.1434C200.795 25.1508 206.467 20.4315 208.806 18.5323L208.777 18.4747H200.006L194.714 23.1364C193.866 23.8558 192.93 24.6903 191.79 25.6399H182.51L183.182 21.9278C183.445 20.489 183.621 19.5394 183.826 18.4747H176.809C176.662 19.5107 176.458 20.5466 176.224 21.9278L174.002 34.3015Z" fill="#5200FF"/>
<path d="M209.869 25.9474L208.816 31.8177H219.558L220.61 25.9474H209.869Z" fill="#5200FF"/>
<path d="M240.958 39.0513H224.705L225.663 33.6622H231.446L233.133 24.1144L226.947 25.8611L227.94 20.4719L235.928 18H241.061L238.255 33.6622H241.916L240.958 39.0513Z" fill="#5200FF"/>
</svg>
