<svg width="87" height="14" viewBox="0 0 87 14" fill="none" xmlns="http://www.w3.org/2000/svg">
<path d="M6.58531 10.8132C6.58531 12.1947 6.58531 12.8763 6.56727 13.7789H9.02098C9.00294 12.8211 9.00294 12.3421 9.00294 10.7947V2.92895H12.2866C13.0083 2.92895 14.2171 2.92895 15.5883 2.94737V0.7H0V2.94737C1.37119 2.92895 2.94084 2.92895 4.63678 2.92895H6.58531V10.8132Z" fill="#535559"/>
<path d="M16.7429 10.8316C16.7429 12.2132 16.7429 12.9684 16.7249 13.7789H19.1064C19.0884 12.9684 19.0884 12.25 19.0884 10.8316V8.58421C19.0884 5.65526 19.8101 5.01053 22.7689 5.01053C25.6737 5.01053 26.0345 5.43421 26.0345 7.33158V7.68158L28.2898 7.64474C28.3078 7.22105 28.3078 6.92632 28.3078 6.59474C28.3078 3.62895 27.4599 2.83684 23.5628 2.83684C21.1813 2.83684 19.7379 3.46316 18.9621 4.69737L18.9441 3.0579H16.7249C16.7429 3.77632 16.7429 4.47632 16.7429 5.74737V10.8316Z" fill="#535559"/>
<path d="M35.3652 14C38.27 14 39.7855 13.4289 40.5072 12.4526L40.5432 13.7789H42.6722C42.6541 12.3237 42.6541 11.3842 42.6541 10.2789C42.6541 8.58421 42.6722 7.95789 42.6722 6.50263C42.6722 3.99737 41.6979 2.83684 36.2673 2.83684C31.3058 2.83684 30.115 3.81316 30.1511 6.24474L32.4063 6.3C32.3883 5.15789 32.7672 4.78947 36.2312 4.78947C39.7855 4.78947 40.3267 5.30526 40.3267 7V8.23421C39.5329 7.51579 38.0354 7.14737 35.3652 7.14737C30.6923 7.14737 29.7 8.16053 29.7 10.6105C29.7 13.0237 30.6562 14 35.3652 14ZM36.1951 12.1395C32.713 12.1395 32.0635 11.7342 32.0635 10.5553C32.0635 9.35789 32.4965 8.86053 36.2312 8.86053C39.8216 8.86053 40.3809 9.33947 40.3809 10.1132V10.5737C40.3809 11.6421 39.8216 12.1395 36.1951 12.1395Z" fill="#535559"/>
<path d="M51.6466 14C56.951 14 58.2139 12.7842 58.2139 9.50526L55.9046 9.45C55.9046 11.1632 55.219 11.8632 51.6647 11.8632C48.0383 11.8632 47.3527 11.1632 47.3527 8.49211V8.34474C47.3527 5.65526 48.0383 4.97368 51.6647 4.97368C55.219 4.97368 55.8685 5.69211 55.8685 7.38684V7.36842L58.1778 7.31316C58.1778 3.94211 56.969 2.83684 51.6466 2.83684C46.4145 2.83684 44.9892 4.05263 44.9892 8.14211V8.69474C44.9892 12.7842 46.4325 14 51.6466 14Z" fill="#535559"/>
<path d="M60.5272 10.6842C60.5272 12.0289 60.5272 12.9316 60.5092 13.7789H62.8907C62.8727 12.9316 62.8727 12.0289 62.8727 10.7026V9.39474H65.5609C66.0842 9.89211 66.6615 10.4263 67.293 10.9605L70.5405 13.7789H73.5896L73.6257 13.7421C72.0019 12.3605 69.2054 9.83684 67.3832 8.21579C69.1513 6.65 71.7132 4.43947 73.3731 3.09474L73.337 3.0579H70.3962L67.5456 5.45263C66.8239 6.06053 66.1022 6.68684 65.4527 7.2579H62.8727V3.07632C62.8727 1.76842 62.8727 0.773684 62.8907 0H60.5092C60.5272 0.792105 60.5272 1.76842 60.5272 3.0579V10.6842Z" fill="#535559"/>
<path d="M80.9379 14C86.2422 14 87 13.1158 87 10.7947C87 8.63947 86.3144 7.75526 80.992 7.35C77.2213 7.03684 76.9687 6.76053 76.9687 5.93158C76.9687 5.08421 77.4558 4.73421 80.541 4.73421C83.7885 4.73421 84.2576 5.12105 84.2576 6.11579V6.35526L86.585 6.3C86.585 3.72105 85.7551 2.83684 80.6131 2.83684C75.7057 2.83684 74.7134 3.77632 74.7134 6.06053C74.7134 8.27105 75.5253 9.0079 80.3245 9.39474C84.3298 9.7079 84.6365 10.0211 84.6365 10.9421C84.6365 11.8263 84.3118 12.1763 80.992 12.1763C77.3476 12.1763 76.8785 11.8079 76.8785 10.5368V10.2605L74.5691 10.3158C74.5691 13.3921 75.5434 14 80.9379 14Z" fill="#535559"/>
</svg>
