<svg width="181" height="186" viewBox="0 0 181 186" fill="none" xmlns="http://www.w3.org/2000/svg">
<path d="M32.8975 180.083C35.755 182.511 37.1647 183.709 38.9992 185.334L43.4009 180.155C41.3873 178.509 40.3967 177.667 37.1963 174.947L20.9278 161.121L26.8183 154.19C28.1129 152.667 30.2814 150.115 32.7792 147.253L28.1311 143.303L0.167508 176.207L4.81567 180.157C7.23732 177.231 10.0531 173.917 13.0954 170.338L16.5909 166.225L32.8975 180.083Z" fill="white"/>
<path d="M51.1572 158.674C54.0147 161.103 55.5768 162.43 57.2208 163.893L61.493 158.866C59.7843 157.48 58.2984 156.217 55.3647 153.724L50.7165 149.773C44.6587 144.625 44.6198 141.968 49.9277 135.723C55.1385 129.591 56.6621 129.575 60.5864 132.91L61.3103 133.525L65.2797 128.7C64.4358 127.917 63.8262 127.399 63.1404 126.816C57.0064 121.603 53.8469 122.001 46.856 130.226C42.5838 135.253 41.29 139.401 42.451 143.208L39.0277 140.364L35.0468 145.048C36.5651 146.273 38.0129 147.504 40.6417 149.738L51.1572 158.674Z" fill="white"/>
<path d="M91.1166 124.936C96.3274 118.804 97.865 114.602 97.1403 111.362L99.9482 113.617L103.767 109.124C100.725 106.604 98.782 104.952 96.496 103.01C92.9908 100.031 91.7278 98.8917 88.7179 96.3337C83.5364 91.9301 79.3884 91.9467 69.6465 103.41C60.746 113.883 60.6292 118.112 65.7231 122.31L69.883 117.647C67.4885 115.677 67.4062 114.23 73.6203 106.918C79.9962 99.4157 82.034 99.1798 85.5392 102.159L88.0918 104.328C85.1819 104.741 81.7336 107.254 76.9435 112.891C68.5609 122.754 68.8763 126.63 73.9436 130.936C78.9346 135.178 82.6693 134.875 91.1166 124.936ZM88.7573 119.914C82.5108 127.264 80.5075 127.922 78.0691 125.85C75.5926 123.745 75.3407 121.957 82.0403 114.074C88.481 106.495 90.4749 106.157 92.0751 107.517L93.0276 108.326C95.2374 110.204 95.2627 112.259 88.7573 119.914Z" fill="white"/>
<path d="M120.324 90.5687C129.839 79.3723 129.59 74.5694 122.808 68.8059L118.551 73.5834C122.095 76.5947 122.312 79.2722 115.936 86.7746C109.431 94.4293 106.753 94.6461 101.229 89.9511L100.924 89.692C95.3616 84.9647 95.1818 82.3195 101.687 74.6648C108.063 67.1624 110.714 67.0542 114.219 70.0331L114.181 70.0007L118.21 65.0289C111.237 59.1035 106.783 59.7123 97.2353 70.9469C87.8494 81.9909 87.8071 87.1365 96.2652 94.3247L97.4082 95.2961C105.866 102.484 110.97 101.575 120.324 90.5687Z" fill="white"/>
<path d="M129.397 65.9952C132.178 68.3589 134.045 69.9455 135.765 71.473L140.037 66.4461C138.252 64.9947 136.385 63.4081 133.642 61.0768L130.937 58.7779L135.759 53.1035C137.727 52.8733 139.867 52.5937 142.105 52.1998L153.76 50.2988L159.23 43.8628L159.218 43.7218C153.448 44.7209 143.212 46.1878 136.59 47.1848C136.523 40.7004 136.547 31.4071 136.743 25.5398L136.603 25.5512L131.327 31.7587L131.166 41.9852C131.129 44.577 131.13 47.2012 131.146 49.576L126.517 55.0219L117.869 47.6718C115.164 45.3728 113.106 43.6244 111.539 42.2264L107.266 47.2533C108.937 48.6076 110.956 50.3236 113.623 52.5902L129.397 65.9952Z" fill="white"/>
<path d="M172.869 28.7405C182.384 17.5441 181.915 14.3904 177.114 10.3106C172.657 6.52221 169.598 6.41516 159.212 16.9373C151.8 24.3462 150.775 24.3937 149.061 22.9367C147.308 21.4472 147.458 19.8038 152.993 13.2916C158.818 6.43659 160.46 6.12641 162.517 7.87489L163.013 8.29583L167.074 3.28595C161.74 -1.24715 158.422 -1.04952 149.198 9.80415C140.395 20.1628 140.558 23.9087 145.282 27.9237C149.854 31.8092 152.834 31.3907 162.244 21.9405C170.076 14.0365 171.274 13.9396 173.179 15.5585C175.008 17.1127 175.149 18.4134 169.194 25.4207C162.656 33.1135 161.053 33.4561 158.424 31.2219L157.852 30.7362L153.824 35.708C160.187 41.1153 163.192 40.1274 172.869 28.7405Z" fill="white"/>
</svg>
