<svg width="640" height="108" viewBox="0 0 640 108" fill="none" xmlns="http://www.w3.org/2000/svg">
<path d="M2.34974 28.8901C1.74969 32.2215 1.44967 34.0611 0.899631 36.7958H20.8511C37.9523 36.7958 42.2526 32.8678 44.6528 19.4431L44.7528 18.8465C46.903 6.0184 42.7527 1.49377 25.7014 1.49377H7.15009C6.80006 3.88038 6.50004 5.42174 6.05001 8.10669L2.34974 28.8901ZM25.6514 6.16756C39.2024 6.16756 41.2526 8.80278 39.5024 18.8465L39.4024 19.4431C37.6023 29.4868 34.6021 32.122 21.0011 32.122H7.00008L11.5504 6.16756H25.6514Z" fill="#535559"/>
<path d="M55.4911 0.399902L54.6911 5.02397H59.7914L60.5915 0.399902H55.4911ZM50.4907 28.9896C49.8907 32.3209 49.4907 34.6081 49.0406 36.7958H54.141C54.491 34.6081 54.8911 32.3209 55.4911 29.0393L57.6913 16.3604C58.3413 12.7805 58.8414 10.0955 59.2414 7.95752H54.141C53.841 10.0955 53.3409 12.7805 52.7409 16.3107L50.4907 28.9896Z" fill="#535559"/>
<path d="M78.8995 37.3925C93.4505 37.3925 94.9506 35.6522 96.0007 29.6857C97.0508 23.7689 94.8006 21.2828 80.8996 19.9901C70.3488 18.9956 69.8488 17.7526 70.1988 15.1671C70.4988 12.8799 72.399 11.8358 81.7997 11.8358C91.3504 11.8358 92.6505 12.9794 92.1004 16.0124L91.9504 16.7582L97.1508 16.609C98.3509 9.69777 95.6507 7.36087 82.0997 7.36087C68.7487 7.36087 66.4986 9.29999 65.3985 15.366C64.3984 21.2331 66.6486 23.5203 79.2495 24.6141C90.7003 25.6085 91.3504 26.8516 90.9003 29.636C90.5003 32.1717 89.2002 33.2159 79.1495 33.2159C68.4987 33.2159 67.1486 32.0723 67.8486 28.0449L67.9987 27.2493L62.8983 27.3985C61.4482 35.7517 64.4484 37.3925 78.8995 37.3925Z" fill="#535559"/>
<path d="M118.381 37.3925C132.632 37.3925 135.883 34.1606 137.433 25.6085L132.482 25.4594C131.582 30.6304 129.082 32.7684 118.481 32.7684C107.68 32.7684 105.93 30.6801 107.33 22.6253L107.43 22.1281C108.881 14.0732 111.381 11.9849 122.182 11.9849C132.782 11.9849 134.382 14.2224 133.482 19.294L138.483 19.1448C140.033 10.3441 136.633 7.36087 122.332 7.36087C108.28 7.36087 104.38 10.6425 102.43 21.6309L102.18 23.1225C100.23 34.1109 104.38 37.3925 118.381 37.3925Z" fill="#535559"/>
<path d="M159.207 37.3925C173.658 37.3925 177.458 34.1109 179.408 23.1225L179.658 21.6309C181.608 10.6425 177.808 7.36087 163.357 7.36087C148.906 7.36087 145.106 10.6425 143.156 21.6309L142.906 23.1225C140.956 34.1109 144.756 37.3925 159.207 37.3925ZM159.407 32.7684C148.406 32.7684 146.656 30.6801 148.056 22.6253L148.156 22.1281C149.606 14.0732 152.106 11.9849 163.107 11.9849C174.108 11.9849 175.908 14.0732 174.458 22.1281L174.358 22.6253C172.958 30.6801 170.408 32.7684 159.407 32.7684Z" fill="#535559"/>
<path d="M202.581 36.7958C207.282 29.7354 217.383 14.7196 222.033 7.95752H216.232L207.482 20.9845C204.882 24.813 202.381 28.6415 200.331 31.8237H196.831C195.931 28.6913 194.731 24.7633 193.531 20.9348L189.531 7.95752H184.13C186.33 14.7196 191.281 30.6801 193.131 36.7958H202.581Z" fill="#535559"/>
<path d="M237.978 37.3925C252.579 37.3925 255.129 34.5086 256.38 27.5974L251.429 27.3985C250.779 31.1276 249.129 32.9673 238.128 32.9673C227.477 32.9673 225.427 31.0282 226.327 24.3158H256.93C257.08 23.4705 257.33 22.4264 257.43 21.6309C259.08 10.9905 255.93 7.36087 241.678 7.36087C227.427 7.36087 223.627 10.6425 221.677 21.6309L221.427 23.1225C219.627 33.8125 223.377 37.3925 237.978 37.3925ZM241.478 11.6866C251.729 11.6866 253.329 13.6755 252.379 20.0398H227.077C228.628 13.4766 231.428 11.6866 241.478 11.6866Z" fill="#535559"/>
<path d="M263.297 28.8404C262.597 32.7684 262.247 34.7075 261.847 36.7958H266.947C267.247 34.7075 267.597 32.8678 268.297 28.8404L269.497 22.1778C270.947 13.8246 273.648 11.9849 282.248 11.9849C290.999 11.9849 291.799 13.1782 290.799 18.7967L290.599 19.7912L295.449 19.6917C295.599 18.9459 295.749 18.2001 295.849 17.6034C297.299 9.34972 295.399 7.36087 284.248 7.36087C278.048 7.36087 273.798 8.95195 270.947 12.1838L271.597 7.95752H266.947C266.647 9.89665 266.347 11.6866 265.697 15.366L263.297 28.8404Z" fill="#535559"/>
<path d="M336.113 37.6908C341.163 30.3321 351.764 14.7196 356.564 7.95752H351.014L342.663 19.9901C340.413 23.1722 338.213 26.4041 336.313 29.2382H333.563C332.312 26.3544 330.812 23.0728 329.412 19.8409L324.212 7.95752H318.661C321.812 14.7693 327.412 27.7466 329.962 33.8623H333.113L331.962 35.4533C329.612 38.6852 328.462 39.2819 325.512 39.2819C323.612 39.2819 322.062 39.2322 320.512 39.1327L319.561 43.6076C321.362 43.7071 323.662 43.8065 324.862 43.8065C329.962 43.8065 333.013 42.2154 336.113 37.6908Z" fill="#535559"/>
<path d="M372.259 37.3925C386.711 37.3925 390.511 34.1109 392.461 23.1225L392.711 21.6309C394.661 10.6425 390.861 7.36087 376.41 7.36087C361.959 7.36087 358.158 10.6425 356.208 21.6309L355.958 23.1225C354.008 34.1109 357.808 37.3925 372.259 37.3925ZM372.459 32.7684C361.459 32.7684 359.709 30.6801 361.109 22.6253L361.209 22.1281C362.659 14.0732 365.159 11.9849 376.16 11.9849C387.161 11.9849 388.961 14.0732 387.511 22.1281L387.411 22.6253C386.01 30.6801 383.46 32.7684 372.459 32.7684Z" fill="#535559"/>
<path d="M400.31 18.8962C399.76 21.8795 399.51 23.0728 399.159 25.1113C397.609 33.8623 400.36 37.3925 413.511 37.3925C419.911 37.3925 424.261 35.8014 427.112 32.6192L426.461 36.7958H431.112C431.412 34.8567 431.712 33.0667 432.362 29.3874L434.762 15.9129C435.462 11.9849 435.812 10.0458 436.212 7.95752H431.112C430.812 10.0458 430.462 11.8855 429.762 15.9129L428.512 22.8739C427.212 30.4315 424.411 32.7684 414.811 32.7684C404.71 32.7684 403.26 30.2326 404.46 23.6197L405.81 15.8632C406.56 11.6369 406.81 10.195 407.26 7.95752H402.16C401.81 10.2944 401.46 12.2833 400.81 15.8632L400.31 18.8962Z" fill="#535559"/>
<path d="M441.581 28.8404C440.881 32.7684 440.531 34.7075 440.131 36.7958H445.232C445.532 34.7075 445.882 32.8678 446.582 28.8404L447.782 22.1778C449.232 13.8246 451.932 11.9849 460.533 11.9849C469.283 11.9849 470.083 13.1782 469.083 18.7967L468.883 19.7912L473.734 19.6917C473.884 18.9459 474.034 18.2001 474.134 17.6034C475.584 9.34972 473.684 7.36087 462.533 7.36087C456.332 7.36087 452.082 8.95195 449.232 12.1838L449.882 7.95752H445.232C444.932 9.89665 444.632 11.6866 443.982 15.366L441.581 28.8404Z" fill="#535559"/>
<path d="M2.04971 92.6327C1.44967 95.964 1.04964 98.2512 0.599609 100.439H5.69998C6.05001 98.2512 6.45004 95.964 7.05008 92.6824L10.7503 71.6504C11.4004 68.0704 11.8504 65.3855 12.3005 63.2475H7.20009C6.85007 65.3855 6.40003 68.0704 5.74998 71.6006L2.04971 92.6327Z" fill="#535559"/>
<path d="M21.3578 64.043L20.5577 68.6671H25.6581L26.4581 64.043H21.3578ZM16.3574 92.6327C15.7574 95.964 15.3573 98.2512 14.9073 100.439H20.0077C20.3577 98.2512 20.7577 95.964 21.3578 92.6824L23.5579 80.0035C24.208 76.4236 24.708 73.7387 25.108 71.6006H20.0077C19.7076 73.7387 19.2076 76.4236 18.6076 79.9538L16.3574 92.6327Z" fill="#535559"/>
<path d="M30.5651 92.4836C29.865 96.4115 29.515 98.3506 29.115 100.439H34.2153C34.5154 98.3506 34.8654 96.511 35.5654 92.4836L36.8155 85.5226C38.1656 77.965 40.9158 75.6281 48.8164 75.6281C55.7169 75.6281 57.417 77.3186 56.517 82.4399L54.7168 92.6327C54.0168 96.4612 53.7668 98.0026 53.2667 100.439H58.3671C58.8671 97.4059 59.2672 95.2182 59.7172 92.4836L60.9673 85.5226C62.3174 77.965 65.1676 75.6281 73.0182 75.6281C79.9187 75.6281 81.6188 77.3186 80.7187 82.4399L78.9186 92.583C78.2185 96.4612 77.9685 98.0026 77.4685 100.439H82.5689C83.0689 97.4059 83.4689 95.2182 83.919 92.583L84.369 89.9975C85.1691 85.5226 85.6691 82.9868 86.0191 80.9482C87.3192 73.6889 84.569 71.004 74.6683 71.004C68.4678 71.004 64.5175 72.6945 61.9674 76.0756C61.1673 72.3962 57.667 71.004 50.4665 71.004C44.6161 71.004 40.7658 72.4956 38.2656 75.4789L38.8657 71.6006H34.2153C33.9153 73.5398 33.6153 75.3297 32.9652 79.0091L30.5651 92.4836Z" fill="#535559"/>
<path d="M98.0235 64.043L97.2234 68.6671H102.324L103.124 64.043H98.0235ZM93.0231 92.6327C92.4231 95.964 92.0231 98.2512 91.573 100.439H96.6734C97.0234 98.2512 97.4235 95.964 98.0235 92.6824L100.224 80.0035C100.874 76.4236 101.374 73.7387 101.774 71.6006H96.6734C96.3734 73.7387 95.8734 76.4236 95.2733 79.9538L93.0231 92.6327Z" fill="#535559"/>
<path d="M110.581 82.5393C110.181 84.9756 109.631 87.8098 109.231 89.9975C107.731 98.5495 110.481 100.688 122.282 100.688C124.482 100.688 125.832 100.588 127.432 100.439L128.182 95.9143C126.282 96.0137 125.082 96.0635 122.832 96.0635C115.181 96.0635 113.331 95.3177 114.381 89.3014L116.732 76.1253H131.683L132.483 71.6006H117.582C117.982 69.1146 118.332 67.1257 118.582 65.9324L113.481 66.0319C113.081 68.319 112.831 69.9598 112.531 71.6006C110.931 71.6006 109.331 71.6504 107.281 71.6006L106.481 76.1253H111.731L110.581 82.5393Z" fill="#535559"/>
<path d="M135.604 92.6327C135.004 95.964 134.604 98.2512 134.154 100.439H139.255C139.605 98.2512 140.005 95.964 140.605 92.6824L144.305 71.6504C144.955 68.0704 145.405 65.3855 145.855 63.2475H140.755C140.405 65.3855 139.955 68.0704 139.305 71.6006L135.604 92.6327Z" fill="#535559"/>
<path d="M165.463 101.036C180.064 101.036 182.614 98.1518 183.865 91.2405L178.914 91.0416C178.264 94.7707 176.614 96.6104 165.613 96.6104C154.962 96.6104 152.912 94.6713 153.812 87.9589H184.415C184.565 87.1137 184.815 86.0695 184.915 85.274C186.565 74.6336 183.414 71.004 169.163 71.004C154.912 71.004 151.112 74.2856 149.162 85.274L148.912 86.7656C147.112 97.4557 150.862 101.036 165.463 101.036ZM168.963 75.3297C179.214 75.3297 180.814 77.3186 179.864 83.6829H154.562C156.112 77.1197 158.913 75.3297 168.963 75.3297Z" fill="#535559"/>
<path d="M204.983 101.036C219.534 101.036 221.034 99.2953 222.084 93.3288C223.134 87.412 220.884 84.9259 206.983 83.6332C196.432 82.6387 195.932 81.3957 196.282 78.8102C196.582 76.523 198.482 75.4789 207.883 75.4789C217.434 75.4789 218.734 76.6225 218.184 79.6555L218.034 80.4013L223.234 80.2521C224.434 73.3409 221.734 71.004 208.183 71.004C194.832 71.004 192.582 72.9431 191.482 79.0091C190.482 84.8762 192.732 87.1634 205.333 88.2572C216.784 89.2517 217.434 90.4947 216.984 93.2791C216.584 95.8149 215.284 96.859 205.233 96.859C194.582 96.859 193.232 95.7154 193.932 91.688L194.082 90.8925L188.982 91.0416C187.532 99.3948 190.532 101.036 204.983 101.036Z" fill="#535559"/>
<path d="M243.365 101.036C257.916 101.036 259.416 99.2953 260.466 93.3288C261.516 87.412 259.266 84.9259 245.365 83.6332C234.814 82.6387 234.314 81.3957 234.664 78.8102C234.964 76.523 236.864 75.4789 246.265 75.4789C255.815 75.4789 257.116 76.6225 256.566 79.6555L256.416 80.4013L261.616 80.2521C262.816 73.3409 260.116 71.004 246.565 71.004C233.214 71.004 230.964 72.9431 229.864 79.0091C228.863 84.8762 231.114 87.1634 243.715 88.2572C255.165 89.2517 255.815 90.4947 255.365 93.2791C254.965 95.8149 253.665 96.859 243.615 96.859C232.964 96.859 231.614 95.7154 232.314 91.688L232.464 90.8925L227.363 91.0416C225.913 99.3948 228.913 101.036 243.365 101.036Z" fill="#535559"/>
<path d="M291.25 64.043L290.45 68.6671H295.551L296.351 64.043H291.25ZM286.25 92.6327C285.65 95.964 285.25 98.2512 284.8 100.439H289.9C290.25 98.2512 290.65 95.964 291.25 92.6824L293.451 80.0035C294.101 76.4236 294.601 73.7387 295.001 71.6006H289.9C289.6 73.7387 289.1 76.4236 288.5 79.9538L286.25 92.6327Z" fill="#535559"/>
<path d="M300.458 92.4836C299.758 96.4115 299.408 98.3506 299.008 100.439H304.108C304.408 98.3506 304.758 96.511 305.458 92.4836L306.708 85.5226C308.058 77.965 310.809 75.6281 320.609 75.6281C330.76 75.6281 332.21 78.1638 331.06 84.7768L329.66 92.5333C328.91 96.7596 328.66 98.2015 328.21 100.439H333.31C333.66 98.102 334.01 96.1132 334.66 92.5333L335.21 89.5003C335.71 86.517 336.01 85.3237 336.36 83.2851C337.91 74.5342 335.11 71.004 321.909 71.004C315.409 71.004 311.009 72.5951 308.108 75.827L308.758 71.6006H304.108C303.808 73.5398 303.508 75.3297 302.858 79.0091L300.458 92.4836Z" fill="#535559"/>
<path d="M357.875 101.036C372.426 101.036 373.926 99.2953 374.976 93.3288C376.026 87.412 373.776 84.9259 359.875 83.6332C349.324 82.6387 348.824 81.3957 349.174 78.8102C349.474 76.523 351.374 75.4789 360.775 75.4789C370.326 75.4789 371.626 76.6225 371.076 79.6555L370.926 80.4013L376.126 80.2521C377.326 73.3409 374.626 71.004 361.075 71.004C347.724 71.004 345.474 72.9431 344.374 79.0091C343.374 84.8762 345.624 87.1634 358.225 88.2572C369.676 89.2517 370.326 90.4947 369.876 93.2791C369.476 95.8149 368.176 96.859 358.125 96.859C347.474 96.859 346.124 95.7154 346.824 91.688L346.974 90.8925L341.874 91.0416C340.424 99.3948 343.424 101.036 357.875 101.036Z" fill="#535559"/>
<path d="M380.655 100.439C380.105 103.422 379.655 105.908 379.355 107.4H384.506C384.856 105.262 385.506 101.433 386.406 96.3121C388.456 99.4942 392.756 101.036 399.957 101.036C413.658 101.036 417.508 97.754 419.458 86.7656L419.708 85.274C421.658 74.2856 417.808 71.004 404.407 71.004C397.357 71.004 392.756 72.5453 389.806 75.7275L390.556 71.6006H385.706C385.406 73.6889 385.056 75.4789 384.656 77.7661L380.655 100.439ZM388.156 86.2187L388.256 85.8209C389.606 77.965 392.306 75.6281 403.207 75.6281C414.158 75.6281 415.958 77.7164 414.558 85.7712L414.458 86.2684C413.008 94.3232 410.458 96.4115 399.257 96.4115C388.606 96.4115 386.756 94.1243 388.156 86.2187Z" fill="#535559"/>
<path d="M430.714 64.043L429.914 68.6671H435.014L435.814 64.043H430.714ZM425.713 92.6327C425.113 95.964 424.713 98.2512 424.263 100.439H429.364C429.714 98.2512 430.114 95.964 430.714 92.6824L432.914 80.0035C433.564 76.4236 434.064 73.7387 434.464 71.6006H429.364C429.064 73.7387 428.564 76.4236 427.964 79.9538L425.713 92.6327Z" fill="#535559"/>
<path d="M439.921 92.4836C439.221 96.4115 438.871 98.3506 438.471 100.439H443.571C443.871 98.3506 444.221 96.511 444.921 92.4836L446.121 85.8209C447.572 77.4678 450.272 75.6281 458.872 75.6281C467.623 75.6281 468.423 76.8214 467.423 82.4399L467.223 83.4343L472.073 83.3349C472.223 82.589 472.373 81.8432 472.473 81.2466C473.924 72.9928 472.023 71.004 460.873 71.004C454.672 71.004 450.422 72.5951 447.572 75.827L448.222 71.6006H443.571C443.271 73.5398 442.971 75.3297 442.321 79.0091L439.921 92.4836Z" fill="#535559"/>
<path d="M489.649 101.036C497.4 101.036 502.1 99.4942 504.7 97.0579L504.15 100.439H508.651C509.301 96.511 509.751 93.9752 510.301 90.9919C511.001 86.8153 511.401 84.9259 512.101 80.9979C513.301 74.1861 510.801 71.004 496 71.004C482.549 71.004 479.499 73.8381 478.548 79.8544L483.599 80.0035C484.149 76.5728 485.549 75.4292 495.75 75.4292C506.3 75.4292 507.751 76.9705 506.901 81.9426L506.25 85.4729C504.25 83.6332 500.15 82.5393 492.95 82.5393C479.799 82.5393 476.448 85.274 475.248 91.8869C474.148 98.3506 476.348 101.036 489.649 101.036ZM491.849 96.7098C481.649 96.7098 479.799 95.4668 480.399 91.8869C481.049 88.2075 482.699 86.6662 493.65 86.6662C504.4 86.6662 505.9 88.1578 505.5 90.3952L505.2 91.9366C504.65 95.1685 502.6 96.7098 491.849 96.7098Z" fill="#535559"/>
<path d="M522.33 82.5393C521.93 84.9756 521.38 87.8098 520.98 89.9975C519.48 98.5495 522.23 100.688 534.031 100.688C536.231 100.688 537.581 100.588 539.181 100.439L539.931 95.9143C538.031 96.0137 536.831 96.0635 534.581 96.0635C526.93 96.0635 525.08 95.3177 526.13 89.3014L528.48 76.1253H543.431L544.231 71.6006H529.33C529.73 69.1146 530.08 67.1257 530.33 65.9324L525.23 66.0319C524.83 68.319 524.58 69.9598 524.28 71.6006C522.68 71.6006 521.08 71.6504 519.03 71.6006L518.23 76.1253H523.48L522.33 82.5393Z" fill="#535559"/>
<path d="M552.353 64.043L551.553 68.6671H556.654L557.454 64.043H552.353ZM547.353 92.6327C546.753 95.964 546.353 98.2512 545.903 100.439H551.003C551.353 98.2512 551.753 95.964 552.353 92.6824L554.554 80.0035C555.204 76.4236 555.704 73.7387 556.104 71.6006H551.003C550.703 73.7387 550.203 76.4236 549.603 79.9538L547.353 92.6327Z" fill="#535559"/>
<path d="M576.962 101.036C591.413 101.036 595.213 97.754 597.163 86.7656L597.413 85.274C599.364 74.2856 595.563 71.004 581.112 71.004C566.661 71.004 562.861 74.2856 560.911 85.274L560.661 86.7656C558.711 97.754 562.511 101.036 576.962 101.036ZM577.162 96.4115C566.161 96.4115 564.411 94.3232 565.811 86.2684L565.911 85.7712C567.361 77.7164 569.861 75.6281 580.862 75.6281C591.863 75.6281 593.663 77.7164 592.213 85.7712L592.113 86.2684C590.713 94.3232 588.163 96.4115 577.162 96.4115Z" fill="#535559"/>
<path d="M603.312 92.4836C602.612 96.4115 602.262 98.3506 601.862 100.439H606.962C607.262 98.3506 607.612 96.511 608.312 92.4836L609.562 85.5226C610.912 77.965 613.663 75.6281 623.463 75.6281C633.614 75.6281 635.064 78.1638 633.914 84.7768L632.514 92.5333C631.764 96.7596 631.514 98.2015 631.064 100.439H636.164C636.514 98.102 636.864 96.1132 637.514 92.5333L638.064 89.5003C638.564 86.517 638.864 85.3237 639.214 83.2851C640.765 74.5342 637.964 71.004 624.763 71.004C618.263 71.004 613.863 72.5951 610.962 75.827L611.612 71.6006H606.962C606.662 73.5398 606.362 75.3297 605.712 79.0091L603.312 92.4836Z" fill="#535559"/>
</svg>
