<svg width="89" height="22" viewBox="0 0 89 22" fill="none" xmlns="http://www.w3.org/2000/svg">
<path d="M7.09197 11.1021C7.09197 12.4521 7.09197 13.1181 7.07397 14.0001H9.52197C9.50397 13.0641 9.50397 12.5961 9.50397 11.0841V3.39813H12.78C13.5 3.39813 14.706 3.39813 16.074 3.41613V1.22013H0.521973V3.41613C1.88997 3.39813 3.45597 3.39813 5.14797 3.39813H7.09197V11.1021Z" fill="white"/>
<path d="M17.226 11.1201C17.226 12.4701 17.226 13.2081 17.208 14.0001H19.584C19.566 13.2081 19.566 12.5061 19.566 11.1201V8.92413C19.566 6.06213 20.286 5.43213 23.238 5.43213C26.136 5.43213 26.496 5.84613 26.496 7.70013V8.04213L28.746 8.00613C28.764 7.59213 28.764 7.30413 28.764 6.98013C28.764 4.08213 27.918 3.30813 24.03 3.30813C21.654 3.30813 20.214 3.92013 19.44 5.12613L19.422 3.52413H17.208C17.226 4.22613 17.226 4.91013 17.226 6.15213V11.1201Z" fill="white"/>
<path d="M35.8049 14.2161C38.7029 14.2161 40.2149 13.6581 40.9349 12.7041L40.9709 14.0001H43.0949C43.0769 12.5781 43.0769 11.6601 43.0769 10.5801C43.0769 8.92413 43.0949 8.31213 43.0949 6.89013C43.0949 4.44213 42.1229 3.30813 36.7049 3.30813C31.7549 3.30813 30.5669 4.26213 30.6029 6.63813L32.8529 6.69213C32.8349 5.57613 33.2129 5.21613 36.6689 5.21613C40.2149 5.21613 40.7549 5.72013 40.7549 7.37613V8.58213C39.9629 7.88013 38.4689 7.52013 35.8049 7.52013C31.1429 7.52013 30.1529 8.51013 30.1529 10.9041C30.1529 13.2621 31.1069 14.2161 35.8049 14.2161ZM36.6329 12.3981C33.1589 12.3981 32.5109 12.0021 32.5109 10.8501C32.5109 9.68013 32.9429 9.19413 36.6689 9.19413C40.2509 9.19413 40.8089 9.66213 40.8089 10.4181V10.8681C40.8089 11.9121 40.2509 12.3981 36.6329 12.3981Z" fill="white"/>
<path d="M52.0485 14.2161C57.3405 14.2161 58.6005 13.0281 58.6005 9.82413L56.2965 9.77013C56.2965 11.4441 55.6125 12.1281 52.0665 12.1281C48.4485 12.1281 47.7645 11.4441 47.7645 8.83413V8.69013C47.7645 6.06213 48.4485 5.39613 52.0665 5.39613C55.6125 5.39613 56.2605 6.09813 56.2605 7.75413V7.73613L58.5645 7.68213C58.5645 4.38813 57.3585 3.30813 52.0485 3.30813C46.8285 3.30813 45.4065 4.49613 45.4065 8.49213V9.03213C45.4065 13.0281 46.8465 14.2161 52.0485 14.2161Z" fill="white"/>
<path d="M60.9085 10.9761C60.9085 12.2901 60.9085 13.1721 60.8905 14.0001H63.2665C63.2485 13.1721 63.2485 12.2901 63.2485 10.9941V9.71613H65.9305C66.4525 10.2021 67.0285 10.7241 67.6585 11.2461L70.8985 14.0001H73.9405L73.9765 13.9641C72.3565 12.6141 69.5665 10.1481 67.7485 8.56413C69.5125 7.03413 72.0685 4.87413 73.7245 3.56013L73.6885 3.52413H70.7545L67.9105 5.86413C67.1905 6.45813 66.4705 7.07013 65.8225 7.62813H63.2485V3.54213C63.2485 2.26413 63.2485 1.29213 63.2665 0.536133H60.8905C60.9085 1.31013 60.9085 2.26413 60.9085 3.52413V10.9761Z" fill="white"/>
<path d="M81.2717 14.2161C86.5637 14.2161 87.3197 13.3521 87.3197 11.0841C87.3197 8.97813 86.6357 8.11413 81.3257 7.71813C77.5637 7.41213 77.3117 7.14213 77.3117 6.33213C77.3117 5.50413 77.7977 5.16213 80.8757 5.16213C84.1157 5.16213 84.5837 5.54013 84.5837 6.51213V6.74613L86.9057 6.69213C86.9057 4.17213 86.0777 3.30813 80.9477 3.30813C76.0517 3.30813 75.0617 4.22613 75.0617 6.45813C75.0617 8.61813 75.8717 9.33813 80.6597 9.71613C84.6557 10.0221 84.9617 10.3281 84.9617 11.2281C84.9617 12.0921 84.6377 12.4341 81.3257 12.4341C77.6897 12.4341 77.2217 12.0741 77.2217 10.8321V10.5621L74.9177 10.6161C74.9177 13.6221 75.8897 14.2161 81.2717 14.2161Z" fill="white"/>
<path d="M0 21H89" stroke="white" stroke-width="1.5"/>
</svg>
