<svg width="640" height="108" viewBox="0 0 640 108" fill="none" xmlns="http://www.w3.org/2000/svg">
<path d="M2.3501 29.0499C1.7501 32.3999 1.4501 34.2499 0.900097 36.9999H20.8501C37.9501 36.9999 42.2501 33.0499 44.6501 19.5499L44.7501 18.9499C46.9001 6.0499 42.7501 1.4999 25.7001 1.4999H7.1501C6.8001 3.8999 6.5001 5.4499 6.0501 8.1499L2.3501 29.0499ZM25.6501 6.1999C39.2001 6.1999 41.2501 8.8499 39.5001 18.9499L39.4001 19.5499C37.6001 29.6499 34.6001 32.2999 21.0001 32.2999H7.0001L11.5501 6.1999H25.6501Z" fill="#535559"/>
<path d="M55.4876 0.399902L54.6876 5.0499H59.7876L60.5876 0.399902H55.4876ZM50.4876 29.1499C49.8876 32.4999 49.4876 34.7999 49.0376 36.9999H54.1376C54.4876 34.7999 54.8876 32.4999 55.4876 29.1999L57.6876 16.4499C58.3376 12.8499 58.8376 10.1499 59.2376 7.9999H54.1376C53.8376 10.1499 53.3376 12.8499 52.7376 16.3999L50.4876 29.1499Z" fill="#535559"/>
<path d="M78.8942 37.5999C93.4442 37.5999 94.9442 35.8499 95.9942 29.8499C97.0442 23.8999 94.7942 21.3999 80.8942 20.0999C70.3442 19.0999 69.8442 17.8499 70.1942 15.2499C70.4942 12.9499 72.3942 11.8999 81.7942 11.8999C91.3442 11.8999 92.6442 13.0499 92.0942 16.0999L91.9442 16.8499L97.1442 16.6999C98.3442 9.74991 95.6442 7.3999 82.0942 7.3999C68.7442 7.3999 66.4942 9.3499 65.3942 15.4499C64.3942 21.3499 66.6442 23.6499 79.2442 24.7499C90.6942 25.7499 91.3442 26.9999 90.8942 29.7999C90.4942 32.3499 89.1942 33.3999 79.1442 33.3999C68.4942 33.3999 67.1442 32.2499 67.8442 28.1999L67.9942 27.3999L62.8942 27.5499C61.4442 35.9499 64.4442 37.5999 78.8942 37.5999Z" fill="#535559"/>
<path d="M118.373 37.5999C132.623 37.5999 135.873 34.3499 137.423 25.7499L132.473 25.5999C131.573 30.7999 129.073 32.9499 118.473 32.9499C107.673 32.9499 105.923 30.8499 107.323 22.7499L107.423 22.2499C108.873 14.1499 111.373 12.0499 122.173 12.0499C132.773 12.0499 134.373 14.2999 133.473 19.3999L138.473 19.2499C140.023 10.3999 136.623 7.3999 122.323 7.3999C108.273 7.3999 104.373 10.6999 102.423 21.7499L102.173 23.2499C100.223 34.2999 104.373 37.5999 118.373 37.5999Z" fill="#535559"/>
<path d="M159.196 37.5999C173.646 37.5999 177.446 34.2999 179.396 23.2499L179.646 21.7499C181.596 10.6999 177.796 7.3999 163.346 7.3999C148.896 7.3999 145.096 10.6999 143.146 21.7499L142.896 23.2499C140.946 34.2999 144.746 37.5999 159.196 37.5999ZM159.396 32.9499C148.396 32.9499 146.646 30.8499 148.046 22.7499L148.146 22.2499C149.596 14.1499 152.096 12.0499 163.096 12.0499C174.096 12.0499 175.896 14.1499 174.446 22.2499L174.346 22.7499C172.946 30.8499 170.396 32.9499 159.396 32.9499Z" fill="#535559"/>
<path d="M202.567 36.9999C207.267 29.8999 217.367 14.7999 222.017 7.9999H216.217L207.467 21.0999C204.867 24.9499 202.367 28.7999 200.317 31.9999H196.817C195.917 28.8499 194.717 24.8999 193.517 21.0499L189.517 7.9999H184.117C186.317 14.7999 191.267 30.8499 193.117 36.9999H202.567Z" fill="#535559"/>
<path d="M237.961 37.5999C252.561 37.5999 255.111 34.6999 256.361 27.7499L251.411 27.5499C250.761 31.2999 249.111 33.1499 238.111 33.1499C227.461 33.1499 225.411 31.1999 226.311 24.4499H256.911C257.061 23.5999 257.311 22.5499 257.411 21.7499C259.061 11.0499 255.911 7.3999 241.661 7.3999C227.411 7.3999 223.611 10.6999 221.661 21.7499L221.411 23.2499C219.611 33.9999 223.361 37.5999 237.961 37.5999ZM241.461 11.7499C251.711 11.7499 253.311 13.7499 252.361 20.1499H227.061C228.611 13.5499 231.411 11.7499 241.461 11.7499Z" fill="#535559"/>
<path d="M263.278 28.9999C262.578 32.9499 262.228 34.8999 261.828 36.9999H266.928C267.228 34.8999 267.578 33.0499 268.278 28.9999L269.478 22.2999C270.928 13.8999 273.628 12.0499 282.228 12.0499C290.978 12.0499 291.778 13.2499 290.778 18.8999L290.578 19.8999L295.428 19.7999C295.578 19.0499 295.728 18.2999 295.828 17.6999C297.278 9.3999 295.378 7.3999 284.228 7.3999C278.028 7.3999 273.778 8.9999 270.928 12.2499L271.578 7.9999H266.928C266.628 9.9499 266.328 11.7499 265.678 15.4499L263.278 28.9999Z" fill="#535559"/>
<path d="M336.089 37.8999C341.139 30.4999 351.739 14.7999 356.539 7.9999H350.989L342.639 20.0999C340.389 23.2999 338.189 26.5499 336.289 29.3999H333.539C332.289 26.4999 330.789 23.1999 329.389 19.9499L324.189 7.9999H318.639C321.789 14.8499 327.389 27.8999 329.939 34.0499H333.089L331.939 35.6499C329.589 38.8999 328.439 39.4999 325.489 39.4999C323.589 39.4999 322.039 39.4499 320.489 39.3499L319.539 43.8499C321.339 43.9499 323.639 44.0499 324.839 44.0499C329.939 44.0499 332.989 42.4499 336.089 37.8999Z" fill="#535559"/>
<path d="M372.233 37.5999C386.683 37.5999 390.483 34.2999 392.433 23.2499L392.683 21.7499C394.633 10.6999 390.833 7.3999 376.383 7.3999C361.933 7.3999 358.133 10.6999 356.183 21.7499L355.933 23.2499C353.983 34.2999 357.783 37.5999 372.233 37.5999ZM372.433 32.9499C361.433 32.9499 359.683 30.8499 361.083 22.7499L361.183 22.2499C362.633 14.1499 365.133 12.0499 376.133 12.0499C387.133 12.0499 388.933 14.1499 387.483 22.2499L387.383 22.7499C385.983 30.8499 383.433 32.9499 372.433 32.9499Z" fill="#535559"/>
<path d="M400.281 18.9999C399.731 21.9999 399.481 23.1999 399.131 25.2499C397.581 34.0499 400.331 37.5999 413.481 37.5999C419.881 37.5999 424.231 35.9999 427.081 32.7999L426.431 36.9999H431.081C431.381 35.0499 431.681 33.2499 432.331 29.5499L434.731 15.9999C435.431 12.0499 435.781 10.0999 436.181 7.9999H431.081C430.781 10.0999 430.431 11.9499 429.731 15.9999L428.481 22.9999C427.181 30.5999 424.381 32.9499 414.781 32.9499C404.681 32.9499 403.231 30.3999 404.431 23.7499L405.781 15.9499C406.531 11.6999 406.781 10.2499 407.231 7.9999H402.131C401.781 10.3499 401.431 12.3499 400.781 15.9499L400.281 18.9999Z" fill="#535559"/>
<path d="M441.55 28.9999C440.85 32.9499 440.5 34.8999 440.1 36.9999H445.2C445.5 34.8999 445.85 33.0499 446.55 28.9999L447.75 22.2999C449.2 13.8999 451.9 12.0499 460.5 12.0499C469.25 12.0499 470.05 13.2499 469.05 18.8999L468.85 19.8999L473.7 19.7999C473.85 19.0499 474 18.2999 474.1 17.6999C475.55 9.3999 473.65 7.3999 462.5 7.3999C456.3 7.3999 452.05 8.9999 449.2 12.2499L449.85 7.9999H445.2C444.9 9.9499 444.6 11.7499 443.95 15.4499L441.55 28.9999Z" fill="#535559"/>
<path d="M2.0501 93.1499C1.4501 96.4999 1.0501 98.7999 0.600098 101H5.7001C6.0501 98.7999 6.4501 96.4999 7.0501 93.1999L10.7501 72.0499C11.4001 68.4499 11.8501 65.7499 12.3001 63.5999H7.2001C6.8501 65.7499 6.4001 68.4499 5.7501 71.9999L2.0501 93.1499Z" fill="#535559"/>
<path d="M21.3567 64.3999L20.5567 69.0499H25.6567L26.4567 64.3999H21.3567ZM16.3567 93.1499C15.7567 96.4999 15.3567 98.7999 14.9067 101H20.0067C20.3567 98.7999 20.7567 96.4999 21.3567 93.1999L23.5567 80.4499C24.2067 76.8499 24.7067 74.1499 25.1067 71.9999H20.0067C19.7067 74.1499 19.2067 76.8499 18.6067 80.3999L16.3567 93.1499Z" fill="#535559"/>
<path d="M30.5634 92.9999C29.8634 96.9499 29.5134 98.8999 29.1134 101H34.2134C34.5134 98.8999 34.8634 97.0499 35.5634 92.9999L36.8134 85.9999C38.1634 78.3999 40.9134 76.0499 48.8134 76.0499C55.7134 76.0499 57.4134 77.7499 56.5134 82.8999L54.7134 93.1499C54.0134 96.9999 53.7634 98.5499 53.2634 101H58.3634C58.8634 97.9499 59.2634 95.7499 59.7134 92.9999L60.9634 85.9999C62.3134 78.3999 65.1634 76.0499 73.0134 76.0499C79.9134 76.0499 81.6134 77.7499 80.7134 82.8999L78.9134 93.0999C78.2134 96.9999 77.9634 98.5499 77.4634 101H82.5634C83.0634 97.9499 83.4634 95.7499 83.9134 93.0999L84.3634 90.4999C85.1634 85.9999 85.6634 83.4499 86.0134 81.3999C87.3134 74.0999 84.5634 71.3999 74.6634 71.3999C68.4634 71.3999 64.5134 73.0999 61.9634 76.4999C61.1634 72.7999 57.6634 71.3999 50.4634 71.3999C44.6134 71.3999 40.7634 72.8999 38.2634 75.8999L38.8634 71.9999H34.2134C33.9134 73.9499 33.6134 75.7499 32.9634 79.4499L30.5634 92.9999Z" fill="#535559"/>
<path d="M98.0169 64.3999L97.2169 69.0499H102.317L103.117 64.3999H98.0169ZM93.0169 93.1499C92.4169 96.4999 92.0169 98.7999 91.5669 101H96.6669C97.0169 98.7999 97.4169 96.4999 98.0169 93.1999L100.217 80.4499C100.867 76.8499 101.367 74.1499 101.767 71.9999H96.6669C96.3669 74.1499 95.8669 76.8499 95.2669 80.3999L93.0169 93.1499Z" fill="#535559"/>
<path d="M110.574 82.9999C110.174 85.4499 109.624 88.2999 109.224 90.4999C107.724 99.0999 110.474 101.25 122.274 101.25C124.474 101.25 125.824 101.15 127.424 101L128.174 96.4499C126.274 96.5499 125.074 96.5999 122.824 96.5999C115.174 96.5999 113.324 95.8499 114.374 89.7999L116.724 76.5499H131.674L132.474 71.9999H117.574C117.974 69.4999 118.324 67.4999 118.574 66.2999L113.474 66.3999C113.074 68.6999 112.824 70.3499 112.524 71.9999C110.924 71.9999 109.324 72.0499 107.274 71.9999L106.474 76.5499H111.724L110.574 82.9999Z" fill="#535559"/>
<path d="M135.595 93.1499C134.995 96.4999 134.595 98.7999 134.145 101H139.245C139.595 98.7999 139.995 96.4999 140.595 93.1999L144.295 72.0499C144.945 68.4499 145.395 65.7499 145.845 63.5999H140.745C140.395 65.7499 139.945 68.4499 139.295 71.9999L135.595 93.1499Z" fill="#535559"/>
<path d="M165.452 101.6C180.052 101.6 182.602 98.6999 183.852 91.7499L178.902 91.5499C178.252 95.2999 176.602 97.1499 165.602 97.1499C154.952 97.1499 152.902 95.1999 153.802 88.4499H184.402C184.552 87.5999 184.802 86.5499 184.902 85.7499C186.552 75.0499 183.402 71.3999 169.152 71.3999C154.902 71.3999 151.102 74.6999 149.152 85.7499L148.902 87.2499C147.102 97.9999 150.852 101.6 165.452 101.6ZM168.952 75.7499C179.202 75.7499 180.802 77.7499 179.852 84.1499H154.552C156.102 77.5499 158.902 75.7499 168.952 75.7499Z" fill="#535559"/>
<path d="M204.968 101.6C219.518 101.6 221.018 99.8499 222.068 93.8499C223.118 87.8999 220.868 85.3999 206.968 84.0999C196.418 83.0999 195.918 81.8499 196.268 79.2499C196.568 76.9499 198.468 75.8999 207.868 75.8999C217.418 75.8999 218.718 77.0499 218.168 80.0999L218.018 80.8499L223.218 80.6999C224.418 73.7499 221.718 71.3999 208.168 71.3999C194.818 71.3999 192.568 73.3499 191.468 79.4499C190.468 85.3499 192.718 87.6499 205.318 88.7499C216.768 89.7499 217.418 90.9999 216.968 93.7999C216.568 96.3499 215.268 97.3999 205.218 97.3999C194.568 97.3999 193.218 96.2499 193.918 92.1999L194.068 91.3999L188.968 91.5499C187.518 99.9499 190.518 101.6 204.968 101.6Z" fill="#535559"/>
<path d="M243.347 101.6C257.897 101.6 259.397 99.8499 260.447 93.8499C261.497 87.8999 259.247 85.3999 245.347 84.0999C234.797 83.0999 234.297 81.8499 234.647 79.2499C234.947 76.9499 236.847 75.8999 246.247 75.8999C255.797 75.8999 257.097 77.0499 256.547 80.0999L256.397 80.8499L261.597 80.6999C262.797 73.7499 260.097 71.3999 246.547 71.3999C233.197 71.3999 230.947 73.3499 229.847 79.4499C228.847 85.3499 231.097 87.6499 243.697 88.7499C255.147 89.7499 255.797 90.9999 255.347 93.7999C254.947 96.3499 253.647 97.3999 243.597 97.3999C232.947 97.3999 231.597 96.2499 232.297 92.1999L232.447 91.3999L227.347 91.5499C225.897 99.9499 228.897 101.6 243.347 101.6Z" fill="#535559"/>
<path d="M291.23 64.3999L290.43 69.0499H295.53L296.33 64.3999H291.23ZM286.23 93.1499C285.63 96.4999 285.23 98.7999 284.78 101H289.88C290.23 98.7999 290.63 96.4999 291.23 93.1999L293.43 80.4499C294.08 76.8499 294.58 74.1499 294.98 71.9999H289.88C289.58 74.1499 289.08 76.8499 288.48 80.3999L286.23 93.1499Z" fill="#535559"/>
<path d="M300.436 92.9999C299.736 96.9499 299.386 98.8999 298.986 101H304.086C304.386 98.8999 304.736 97.0499 305.436 92.9999L306.686 85.9999C308.036 78.3999 310.786 76.0499 320.586 76.0499C330.736 76.0499 332.186 78.5999 331.036 85.2499L329.636 93.0499C328.886 97.2999 328.636 98.7499 328.186 101H333.286C333.636 98.6499 333.986 96.6499 334.636 93.0499L335.186 89.9999C335.686 86.9999 335.986 85.7999 336.336 83.7499C337.886 74.9499 335.086 71.3999 321.886 71.3999C315.386 71.3999 310.986 72.9999 308.086 76.2499L308.736 71.9999H304.086C303.786 73.9499 303.486 75.7499 302.836 79.4499L300.436 92.9999Z" fill="#535559"/>
<path d="M357.849 101.6C372.399 101.6 373.899 99.8499 374.949 93.8499C375.999 87.8999 373.749 85.3999 359.849 84.0999C349.299 83.0999 348.799 81.8499 349.149 79.2499C349.449 76.9499 351.349 75.8999 360.749 75.8999C370.299 75.8999 371.599 77.0499 371.049 80.0999L370.899 80.8499L376.099 80.6999C377.299 73.7499 374.599 71.3999 361.049 71.3999C347.699 71.3999 345.449 73.3499 344.349 79.4499C343.349 85.3499 345.599 87.6499 358.199 88.7499C369.649 89.7499 370.299 90.9999 369.849 93.7999C369.449 96.3499 368.149 97.3999 358.099 97.3999C347.449 97.3999 346.099 96.2499 346.799 92.1999L346.949 91.3999L341.849 91.5499C340.399 99.9499 343.399 101.6 357.849 101.6Z" fill="#535559"/>
<path d="M380.628 101C380.078 104 379.628 106.5 379.328 108H384.478C384.828 105.85 385.478 102 386.378 96.8499C388.428 100.05 392.728 101.6 399.928 101.6C413.628 101.6 417.478 98.2999 419.428 87.2499L419.678 85.7499C421.628 74.6999 417.778 71.3999 404.378 71.3999C397.328 71.3999 392.728 72.9499 389.778 76.1499L390.528 71.9999H385.678C385.378 74.0999 385.028 75.8999 384.628 78.1999L380.628 101ZM388.128 86.6999L388.228 86.2999C389.578 78.3999 392.278 76.0499 403.178 76.0499C414.128 76.0499 415.928 78.1499 414.528 86.2499L414.428 86.7499C412.978 94.8499 410.428 96.9499 399.228 96.9499C388.578 96.9499 386.728 94.6499 388.128 86.6999Z" fill="#535559"/>
<path d="M430.683 64.3999L429.883 69.0499H434.983L435.783 64.3999H430.683ZM425.683 93.1499C425.083 96.4999 424.683 98.7999 424.233 101H429.333C429.683 98.7999 430.083 96.4999 430.683 93.1999L432.883 80.4499C433.533 76.8499 434.033 74.1499 434.433 71.9999H429.333C429.033 74.1499 428.533 76.8499 427.933 80.3999L425.683 93.1499Z" fill="#535559"/>
<path d="M439.89 92.9999C439.19 96.9499 438.84 98.8999 438.44 101H443.54C443.84 98.8999 444.19 97.0499 444.89 92.9999L446.09 86.2999C447.54 77.8999 450.24 76.0499 458.84 76.0499C467.59 76.0499 468.39 77.2499 467.39 82.8999L467.19 83.8999L472.04 83.7999C472.19 83.0499 472.34 82.2999 472.44 81.6999C473.89 73.3999 471.99 71.3999 460.84 71.3999C454.64 71.3999 450.39 72.9999 447.54 76.2499L448.19 71.9999H443.54C443.24 73.9499 442.94 75.7499 442.29 79.4499L439.89 92.9999Z" fill="#535559"/>
<path d="M489.614 101.6C497.364 101.6 502.064 100.05 504.664 97.5999L504.114 101H508.614C509.264 97.0499 509.714 94.4999 510.264 91.4999C510.964 87.2999 511.364 85.3999 512.064 81.4499C513.264 74.5999 510.764 71.3999 495.964 71.3999C482.514 71.3999 479.464 74.2499 478.514 80.2999L483.564 80.4499C484.114 76.9999 485.514 75.8499 495.714 75.8499C506.264 75.8499 507.714 77.3999 506.864 82.3999L506.214 85.9499C504.214 84.0999 500.114 82.9999 492.914 82.9999C479.764 82.9999 476.414 85.7499 475.214 92.3999C474.114 98.8999 476.314 101.6 489.614 101.6ZM491.814 97.2499C481.614 97.2499 479.764 95.9999 480.364 92.3999C481.014 88.6999 482.664 87.1499 493.614 87.1499C504.364 87.1499 505.864 88.6499 505.464 90.8999L505.164 92.4499C504.614 95.6999 502.564 97.2499 491.814 97.2499Z" fill="#535559"/>
<path d="M522.292 82.9999C521.892 85.4499 521.342 88.2999 520.942 90.4999C519.442 99.0999 522.192 101.25 533.992 101.25C536.192 101.25 537.542 101.15 539.142 101L539.892 96.4499C537.992 96.5499 536.792 96.5999 534.542 96.5999C526.892 96.5999 525.042 95.8499 526.092 89.7999L528.442 76.5499H543.392L544.192 71.9999H529.292C529.692 69.4999 530.042 67.4999 530.292 66.2999L525.192 66.3999C524.792 68.6999 524.542 70.3499 524.242 71.9999C522.642 71.9999 521.042 72.0499 518.992 71.9999L518.192 76.5499H523.442L522.292 82.9999Z" fill="#535559"/>
<path d="M552.314 64.3999L551.514 69.0499H556.614L557.414 64.3999H552.314ZM547.314 93.1499C546.714 96.4999 546.314 98.7999 545.864 101H550.964C551.314 98.7999 551.714 96.4999 552.314 93.1999L554.514 80.4499C555.164 76.8499 555.664 74.1499 556.064 71.9999H550.964C550.664 74.1499 550.164 76.8499 549.564 80.3999L547.314 93.1499Z" fill="#535559"/>
<path d="M576.92 101.6C591.37 101.6 595.17 98.2999 597.12 87.2499L597.37 85.7499C599.32 74.6999 595.52 71.3999 581.07 71.3999C566.62 71.3999 562.82 74.6999 560.87 85.7499L560.62 87.2499C558.67 98.2999 562.47 101.6 576.92 101.6ZM577.12 96.9499C566.12 96.9499 564.37 94.8499 565.77 86.7499L565.87 86.2499C567.32 78.1499 569.82 76.0499 580.82 76.0499C591.82 76.0499 593.62 78.1499 592.17 86.2499L592.07 86.7499C590.67 94.8499 588.12 96.9499 577.12 96.9499Z" fill="#535559"/>
<path d="M603.268 92.9999C602.568 96.9499 602.219 98.8999 601.818 101H606.918C607.218 98.8999 607.568 97.0499 608.268 92.9999L609.518 85.9999C610.868 78.3999 613.618 76.0499 623.418 76.0499C633.568 76.0499 635.018 78.5999 633.868 85.2499L632.469 93.0499C631.719 97.2999 631.469 98.7499 631.018 101H636.118C636.468 98.6499 636.818 96.6499 637.469 93.0499L638.018 89.9999C638.518 86.9999 638.818 85.7999 639.168 83.7499C640.718 74.9499 637.919 71.3999 624.719 71.3999C618.219 71.3999 613.818 72.9999 610.918 76.2499L611.568 71.9999H606.918C606.618 73.9499 606.318 75.7499 605.668 79.4499L603.268 92.9999Z" fill="#535559"/>
</svg>
