<svg width="462" height="80" viewBox="0 0 462 80" fill="none" xmlns="http://www.w3.org/2000/svg">
<path d="M1.572 21.276C1.14 23.688 0.924 25.02 0.528 27H14.892C27.204 27 30.3 24.156 32.028 14.436L32.1 14.004C33.648 4.716 30.66 1.44 18.384 1.44H5.028C4.776 3.168 4.56 4.284 4.236 6.228L1.572 21.276ZM18.348 4.824C28.104 4.824 29.58 6.732 28.32 14.004L28.248 14.436C26.952 21.708 24.792 23.616 15 23.616H4.92L8.196 4.824H18.348ZM39.831 0.647998L39.255 3.996H42.927L43.503 0.647998H39.831ZM36.231 21.348C35.799 23.76 35.511 25.416 35.187 27H38.859C39.111 25.416 39.399 23.76 39.831 21.384L41.415 12.204C41.883 9.612 42.243 7.668 42.531 6.12H38.859C38.643 7.668 38.283 9.612 37.851 12.168L36.231 21.348ZM56.6838 27.432C67.1598 27.432 68.2398 26.172 68.9958 21.852C69.7518 17.568 68.1318 15.768 58.1238 14.832C50.5278 14.112 50.1678 13.212 50.4198 11.34C50.6358 9.684 52.0038 8.928 58.7718 8.928C65.6478 8.928 66.5838 9.756 66.1878 11.952L66.0798 12.492L69.8238 12.384C70.6878 7.38 68.7438 5.688 58.9878 5.688C49.3758 5.688 47.7558 7.092 46.9638 11.484C46.2438 15.732 47.8638 17.388 56.9358 18.18C65.1798 18.9 65.6478 19.8 65.3238 21.816C65.0358 23.652 64.0998 24.408 56.8638 24.408C49.1958 24.408 48.2238 23.58 48.7278 20.664L48.8358 20.088L45.1638 20.196C44.1198 26.244 46.2798 27.432 56.6838 27.432ZM85.1086 27.432C95.3686 27.432 97.7086 25.092 98.8246 18.9L95.2606 18.792C94.6126 22.536 92.8126 24.084 85.1806 24.084C77.4046 24.084 76.1446 22.572 77.1526 16.74L77.2246 16.38C78.2686 10.548 80.0686 9.036 87.8446 9.036C95.4766 9.036 96.6286 10.656 95.9806 14.328L99.5806 14.22C100.697 7.848 98.2486 5.688 87.9526 5.688C77.8366 5.688 75.0286 8.064 73.6246 16.02L73.4446 17.1C72.0406 25.056 75.0286 27.432 85.1086 27.432ZM114.501 27.432C124.905 27.432 127.641 25.056 129.045 17.1L129.225 16.02C130.629 8.064 127.893 5.688 117.489 5.688C107.085 5.688 104.349 8.064 102.945 16.02L102.765 17.1C101.361 25.056 104.097 27.432 114.501 27.432ZM114.645 24.084C106.725 24.084 105.465 22.572 106.473 16.74L106.545 16.38C107.589 10.548 109.389 9.036 117.309 9.036C125.229 9.036 126.525 10.548 125.481 16.38L125.409 16.74C124.401 22.572 122.565 24.084 114.645 24.084ZM145.728 27C149.112 21.888 156.384 11.016 159.732 6.12H155.556L149.256 15.552C147.384 18.324 145.584 21.096 144.108 23.4H141.588C140.94 21.132 140.076 18.288 139.212 15.516L136.332 6.12H132.444C134.028 11.016 137.592 22.572 138.924 27H145.728ZM171.212 27.432C181.724 27.432 183.56 25.344 184.46 20.34L180.896 20.196C180.428 22.896 179.24 24.228 171.32 24.228C163.652 24.228 162.176 22.824 162.824 17.964H184.856C184.964 17.352 185.144 16.596 185.216 16.02C186.404 8.316 184.136 5.688 173.876 5.688C163.616 5.688 160.88 8.064 159.476 16.02L159.296 17.1C158 24.84 160.7 27.432 171.212 27.432ZM173.732 8.82C181.112 8.82 182.264 10.26 181.58 14.868H163.364C164.48 10.116 166.496 8.82 173.732 8.82ZM189.44 21.24C188.936 24.084 188.684 25.488 188.396 27H192.068C192.284 25.488 192.536 24.156 193.04 21.24L193.904 16.416C194.948 10.368 196.892 9.036 203.084 9.036C209.384 9.036 209.96 9.9 209.24 13.968L209.096 14.688L212.588 14.616C212.696 14.076 212.804 13.536 212.876 13.104C213.92 7.128 212.552 5.688 204.524 5.688C200.06 5.688 197 6.84 194.948 9.18L195.416 6.12H192.068C191.852 7.524 191.636 8.82 191.168 11.484L189.44 21.24ZM241.864 27.648C245.5 22.32 253.132 11.016 256.588 6.12H252.592L246.58 14.832C244.96 17.136 243.376 19.476 242.008 21.528H240.028C239.128 19.44 238.048 17.064 237.04 14.724L233.296 6.12H229.3C231.568 11.052 235.6 20.448 237.436 24.876H239.704L238.876 26.028C237.184 28.368 236.356 28.8 234.232 28.8C232.864 28.8 231.748 28.764 230.632 28.692L229.948 31.932C231.244 32.004 232.9 32.076 233.764 32.076C237.436 32.076 239.632 30.924 241.864 27.648ZM267.888 27.432C278.292 27.432 281.028 25.056 282.432 17.1L282.612 16.02C284.016 8.064 281.28 5.688 270.876 5.688C260.472 5.688 257.736 8.064 256.332 16.02L256.152 17.1C254.748 25.056 257.484 27.432 267.888 27.432ZM268.032 24.084C260.112 24.084 258.852 22.572 259.86 16.74L259.932 16.38C260.976 10.548 262.776 9.036 270.696 9.036C278.616 9.036 279.912 10.548 278.868 16.38L278.796 16.74C277.788 22.572 275.952 24.084 268.032 24.084ZM288.082 14.04C287.686 16.2 287.506 17.064 287.254 18.54C286.138 24.876 288.118 27.432 297.586 27.432C302.194 27.432 305.326 26.28 307.378 23.976L306.91 27H310.258C310.474 25.596 310.69 24.3 311.158 21.636L312.886 11.88C313.39 9.036 313.642 7.632 313.93 6.12H310.258C310.042 7.632 309.79 8.964 309.286 11.88L308.386 16.92C307.45 22.392 305.434 24.084 298.522 24.084C291.25 24.084 290.206 22.248 291.07 17.46L292.042 11.844C292.582 8.784 292.762 7.74 293.086 6.12H289.414C289.162 7.812 288.91 9.252 288.442 11.844L288.082 14.04ZM317.796 21.24C317.292 24.084 317.04 25.488 316.752 27H320.424C320.64 25.488 320.892 24.156 321.396 21.24L322.26 16.416C323.304 10.368 325.248 9.036 331.44 9.036C337.74 9.036 338.316 9.9 337.596 13.968L337.452 14.688L340.944 14.616C341.052 14.076 341.16 13.536 341.232 13.104C342.276 7.128 340.908 5.688 332.88 5.688C328.416 5.688 325.356 6.84 323.304 9.18L323.772 6.12H320.424C320.208 7.524 319.992 8.82 319.524 11.484L317.796 21.24ZM1.356 68.348C0.924 70.76 0.636 72.416 0.312 74H3.984C4.236 72.416 4.524 70.76 4.956 68.384L7.62 53.156C8.088 50.564 8.412 48.62 8.736 47.072H5.064C4.812 48.62 4.488 50.564 4.02 53.12L1.356 68.348ZM15.2568 47.648L14.6808 50.996H18.3528L18.9288 47.648H15.2568ZM11.6568 68.348C11.2248 70.76 10.9368 72.416 10.6128 74H14.2848C14.5368 72.416 14.8248 70.76 15.2568 68.384L16.8408 59.204C17.3088 56.612 17.6688 54.668 17.9568 53.12H14.2848C14.0688 54.668 13.7088 56.612 13.2768 59.168L11.6568 68.348ZM21.8856 68.24C21.3816 71.084 21.1296 72.488 20.8416 74H24.5136C24.7296 72.488 24.9816 71.156 25.4856 68.24L26.3856 63.2C27.3576 57.728 29.3376 56.036 35.0256 56.036C39.9936 56.036 41.2176 57.26 40.5696 60.968L39.2736 68.348C38.7696 71.12 38.5896 72.236 38.2296 74H41.9016C42.2616 71.804 42.5496 70.22 42.8736 68.24L43.7736 63.2C44.7456 57.728 46.7976 56.036 52.4496 56.036C57.4176 56.036 58.6416 57.26 57.9936 60.968L56.6976 68.312C56.1936 71.12 56.0136 72.236 55.6536 74H59.3256C59.6856 71.804 59.9736 70.22 60.2976 68.312L60.6216 66.44C61.1976 63.2 61.5576 61.364 61.8096 59.888C62.7456 54.632 60.7656 52.688 53.6376 52.688C49.1736 52.688 46.3296 53.912 44.4936 56.36C43.9176 53.696 41.3976 52.688 36.2136 52.688C32.0016 52.688 29.2296 53.768 27.4296 55.928L27.8616 53.12H24.5136C24.2976 54.524 24.0816 55.82 23.6136 58.484L21.8856 68.24ZM70.4521 47.648L69.8761 50.996H73.5481L74.1241 47.648H70.4521ZM66.8521 68.348C66.4201 70.76 66.1321 72.416 65.8081 74H69.4801C69.7321 72.416 70.0201 70.76 70.4521 68.384L72.0361 59.204C72.5041 56.612 72.8641 54.668 73.1521 53.12H69.4801C69.2641 54.668 68.9041 56.612 68.4721 59.168L66.8521 68.348ZM79.4929 61.04C79.2049 62.804 78.8089 64.856 78.5209 66.44C77.4409 72.632 79.4209 74.18 87.9169 74.18C89.5009 74.18 90.4729 74.108 91.6249 74L92.1649 70.724C90.7969 70.796 89.9329 70.832 88.3129 70.832C82.8049 70.832 81.4729 70.292 82.2289 65.936L83.9209 56.396H94.6849L95.2609 53.12H84.5329C84.8209 51.32 85.0729 49.88 85.2529 49.016L81.5809 49.088C81.2929 50.744 81.1129 51.932 80.8969 53.12C79.7449 53.12 78.5929 53.156 77.1169 53.12L76.5409 56.396H80.3209L79.4929 61.04ZM97.5083 68.348C97.0763 70.76 96.7883 72.416 96.4643 74H100.136C100.388 72.416 100.676 70.76 101.108 68.384L103.772 53.156C104.24 50.564 104.564 48.62 104.888 47.072H101.216C100.964 48.62 100.64 50.564 100.172 53.12L97.5083 68.348ZM119.005 74.432C129.517 74.432 131.353 72.344 132.253 67.34L128.689 67.196C128.221 69.896 127.033 71.228 119.113 71.228C111.445 71.228 109.969 69.824 110.617 64.964H132.649C132.757 64.352 132.937 63.596 133.009 63.02C134.197 55.316 131.929 52.688 121.669 52.688C111.409 52.688 108.673 55.064 107.269 63.02L107.089 64.1C105.793 71.84 108.493 74.432 119.005 74.432ZM121.525 55.82C128.905 55.82 130.057 57.26 129.373 61.868H111.157C112.273 57.116 114.289 55.82 121.525 55.82ZM147.457 74.432C157.933 74.432 159.013 73.172 159.769 68.852C160.525 64.568 158.905 62.768 148.897 61.832C141.301 61.112 140.941 60.212 141.193 58.34C141.409 56.684 142.777 55.928 149.545 55.928C156.421 55.928 157.357 56.756 156.961 58.952L156.853 59.492L160.597 59.384C161.461 54.38 159.517 52.688 149.761 52.688C140.149 52.688 138.529 54.092 137.737 58.484C137.017 62.732 138.637 64.388 147.709 65.18C155.953 65.9 156.421 66.8 156.097 68.816C155.809 70.652 154.873 71.408 147.637 71.408C139.969 71.408 138.997 70.58 139.501 67.664L139.609 67.088L135.937 67.196C134.893 73.244 137.053 74.432 147.457 74.432ZM175.09 74.432C185.566 74.432 186.646 73.172 187.402 68.852C188.158 64.568 186.538 62.768 176.53 61.832C168.934 61.112 168.574 60.212 168.826 58.34C169.042 56.684 170.41 55.928 177.178 55.928C184.054 55.928 184.99 56.756 184.594 58.952L184.486 59.492L188.23 59.384C189.094 54.38 187.15 52.688 177.394 52.688C167.782 52.688 166.162 54.092 165.37 58.484C164.65 62.732 166.27 64.388 175.342 65.18C183.586 65.9 184.054 66.8 183.73 68.816C183.442 70.652 182.506 71.408 175.27 71.408C167.602 71.408 166.63 70.58 167.134 67.664L167.242 67.088L163.57 67.196C162.526 73.244 164.686 74.432 175.09 74.432ZM209.565 47.648L208.989 50.996H212.661L213.237 47.648H209.565ZM205.965 68.348C205.533 70.76 205.245 72.416 204.921 74H208.593C208.845 72.416 209.133 70.76 209.565 68.384L211.149 59.204C211.617 56.612 211.977 54.668 212.265 53.12H208.593C208.377 54.668 208.017 56.612 207.585 59.168L205.965 68.348ZM216.194 68.24C215.69 71.084 215.438 72.488 215.15 74H218.822C219.038 72.488 219.29 71.156 219.794 68.24L220.694 63.2C221.666 57.728 223.646 56.036 230.702 56.036C238.01 56.036 239.054 57.872 238.226 62.66L237.218 68.276C236.678 71.336 236.498 72.38 236.174 74H239.846C240.098 72.308 240.35 70.868 240.818 68.276L241.214 66.08C241.574 63.92 241.79 63.056 242.042 61.58C243.158 55.244 241.142 52.688 231.638 52.688C226.958 52.688 223.79 53.84 221.702 56.18L222.17 53.12H218.822C218.606 54.524 218.39 55.82 217.922 58.484L216.194 68.24ZM257.531 74.432C268.007 74.432 269.087 73.172 269.843 68.852C270.599 64.568 268.979 62.768 258.971 61.832C251.375 61.112 251.015 60.212 251.267 58.34C251.483 56.684 252.851 55.928 259.619 55.928C266.495 55.928 267.431 56.756 267.035 58.952L266.927 59.492L270.671 59.384C271.535 54.38 269.591 52.688 259.835 52.688C250.223 52.688 248.603 54.092 247.811 58.484C247.091 62.732 248.711 64.388 257.783 65.18C266.027 65.9 266.495 66.8 266.171 68.816C265.883 70.652 264.947 71.408 257.711 71.408C250.043 71.408 249.071 70.58 249.575 67.664L249.683 67.088L246.011 67.196C244.967 73.244 247.127 74.432 257.531 74.432ZM273.932 74C273.536 76.16 273.212 77.96 272.996 79.04H276.704C276.956 77.492 277.424 74.72 278.072 71.012C279.548 73.316 282.644 74.432 287.828 74.432C297.692 74.432 300.464 72.056 301.868 64.1L302.048 63.02C303.452 55.064 300.68 52.688 291.032 52.688C285.956 52.688 282.644 53.804 280.52 56.108L281.06 53.12H277.568C277.352 54.632 277.1 55.928 276.812 57.584L273.932 74ZM279.332 63.704L279.404 63.416C280.376 57.728 282.32 56.036 290.168 56.036C298.052 56.036 299.348 57.548 298.34 63.38L298.268 63.74C297.224 69.572 295.388 71.084 287.324 71.084C279.656 71.084 278.324 69.428 279.332 63.704ZM309.972 47.648L309.396 50.996H313.068L313.644 47.648H309.972ZM306.372 68.348C305.94 70.76 305.652 72.416 305.328 74H309C309.252 72.416 309.54 70.76 309.972 68.384L311.556 59.204C312.024 56.612 312.384 54.668 312.672 53.12H309C308.784 54.668 308.424 56.612 307.992 59.168L306.372 68.348ZM316.6 68.24C316.096 71.084 315.844 72.488 315.556 74H319.228C319.444 72.488 319.696 71.156 320.2 68.24L321.064 63.416C322.108 57.368 324.052 56.036 330.244 56.036C336.544 56.036 337.12 56.9 336.4 60.968L336.256 61.688L339.748 61.616C339.856 61.076 339.964 60.536 340.036 60.104C341.08 54.128 339.712 52.688 331.684 52.688C327.22 52.688 324.16 53.84 322.108 56.18L322.576 53.12H319.228C319.012 54.524 318.796 55.82 318.328 58.484L316.6 68.24ZM352.402 74.432C357.982 74.432 361.366 73.316 363.238 71.552L362.842 74H366.082C366.55 71.156 366.874 69.32 367.27 67.16C367.774 64.136 368.062 62.768 368.566 59.924C369.43 54.992 367.63 52.688 356.974 52.688C347.29 52.688 345.094 54.74 344.41 59.096L348.046 59.204C348.442 56.72 349.45 55.892 356.794 55.892C364.39 55.892 365.434 57.008 364.822 60.608L364.354 63.164C362.914 61.832 359.962 61.04 354.778 61.04C345.31 61.04 342.898 63.02 342.034 67.808C341.242 72.488 342.826 74.432 352.402 74.432ZM353.986 71.3C346.642 71.3 345.31 70.4 345.742 67.808C346.21 65.144 347.398 64.028 355.282 64.028C363.022 64.028 364.102 65.108 363.814 66.728L363.598 67.844C363.202 70.184 361.726 71.3 353.986 71.3ZM375.93 61.04C375.642 62.804 375.246 64.856 374.958 66.44C373.878 72.632 375.858 74.18 384.354 74.18C385.938 74.18 386.91 74.108 388.062 74L388.602 70.724C387.234 70.796 386.37 70.832 384.75 70.832C379.242 70.832 377.91 70.292 378.666 65.936L380.358 56.396H391.122L391.698 53.12H380.97C381.258 51.32 381.51 49.88 381.69 49.016L378.018 49.088C377.73 50.744 377.55 51.932 377.334 53.12C376.182 53.12 375.03 53.156 373.554 53.12L372.978 56.396H376.758L375.93 61.04ZM397.546 47.648L396.97 50.996H400.642L401.218 47.648H397.546ZM393.946 68.348C393.514 70.76 393.226 72.416 392.902 74H396.574C396.826 72.416 397.114 70.76 397.546 68.384L399.13 59.204C399.598 56.612 399.958 54.668 400.246 53.12H396.574C396.358 54.668 395.998 56.612 395.566 59.168L393.946 68.348ZM415.263 74.432C425.667 74.432 428.403 72.056 429.807 64.1L429.987 63.02C431.391 55.064 428.655 52.688 418.251 52.688C407.847 52.688 405.111 55.064 403.707 63.02L403.527 64.1C402.123 72.056 404.859 74.432 415.263 74.432ZM415.407 71.084C407.487 71.084 406.227 69.572 407.235 63.74L407.307 63.38C408.351 57.548 410.151 56.036 418.071 56.036C425.991 56.036 427.287 57.548 426.243 63.38L426.171 63.74C425.163 69.572 423.327 71.084 415.407 71.084ZM434.233 68.24C433.729 71.084 433.477 72.488 433.189 74H436.861C437.077 72.488 437.329 71.156 437.833 68.24L438.733 63.2C439.705 57.728 441.685 56.036 448.741 56.036C456.049 56.036 457.093 57.872 456.265 62.66L455.257 68.276C454.717 71.336 454.537 72.38 454.213 74H457.885C458.137 72.308 458.389 70.868 458.857 68.276L459.253 66.08C459.613 63.92 459.829 63.056 460.081 61.58C461.197 55.244 459.181 52.688 449.677 52.688C444.997 52.688 441.829 53.84 439.741 56.18L440.209 53.12H436.861C436.645 54.524 436.429 55.82 435.961 58.484L434.233 68.24Z" fill="#313338"/>
</svg>
