<svg width="449" height="86" viewBox="0 0 449 86" fill="none" xmlns="http://www.w3.org/2000/svg">
<path d="M2.334 24.322C1.83 27.136 1.578 28.69 1.116 31H17.874C32.238 31 35.85 27.682 37.866 16.342L37.95 15.838C39.756 5.002 36.27 1.18 21.948 1.18H6.366C6.072 3.196 5.82 4.498 5.442 6.766L2.334 24.322ZM21.906 5.128C33.288 5.128 35.01 7.354 33.54 15.838L33.456 16.342C31.944 24.826 29.424 27.052 18 27.052H6.24L10.062 5.128H21.906ZM46.9695 0.255998L46.2975 4.162H50.5815L51.2535 0.255998H46.9695ZM42.7695 24.406C42.2655 27.22 41.9295 29.152 41.5515 31H45.8355C46.1295 29.152 46.4655 27.22 46.9695 24.448L48.8175 13.738C49.3635 10.714 49.7835 8.446 50.1195 6.64H45.8355C45.5835 8.446 45.1635 10.714 44.6595 13.696L42.7695 24.406ZM66.6311 31.504C78.8531 31.504 80.1131 30.034 80.9951 24.994C81.8771 19.996 79.9871 17.896 68.3111 16.804C59.4491 15.964 59.0291 14.914 59.3231 12.73C59.5751 10.798 61.1711 9.916 69.0671 9.916C77.0891 9.916 78.1811 10.882 77.7191 13.444L77.5931 14.074L81.9611 13.948C82.9691 8.11 80.7011 6.136 69.3191 6.136C58.1051 6.136 56.2151 7.774 55.2911 12.898C54.4511 17.854 56.3411 19.786 66.9251 20.71C76.5431 21.55 77.0891 22.6 76.7111 24.952C76.3751 27.094 75.2831 27.976 66.8411 27.976C57.8951 27.976 56.7611 27.01 57.3491 23.608L57.4751 22.936L53.1911 23.062C51.9731 30.118 54.4931 31.504 66.6311 31.504ZM99.7934 31.504C111.763 31.504 114.493 28.774 115.795 21.55L111.637 21.424C110.881 25.792 108.781 27.598 99.8774 27.598C90.8054 27.598 89.3354 25.834 90.5114 19.03L90.5954 18.61C91.8134 11.806 93.9134 10.042 102.985 10.042C111.889 10.042 113.233 11.932 112.477 16.216L116.677 16.09C117.979 8.656 115.123 6.136 103.111 6.136C91.3094 6.136 88.0334 8.908 86.3954 18.19L86.1854 19.45C84.5474 28.732 88.0334 31.504 99.7934 31.504ZM134.084 31.504C146.222 31.504 149.414 28.732 151.052 19.45L151.262 18.19C152.9 8.908 149.708 6.136 137.57 6.136C125.432 6.136 122.24 8.908 120.602 18.19L120.392 19.45C118.754 28.732 121.946 31.504 134.084 31.504ZM134.252 27.598C125.012 27.598 123.542 25.834 124.718 19.03L124.802 18.61C126.02 11.806 128.12 10.042 137.36 10.042C146.6 10.042 148.112 11.806 146.894 18.61L146.81 19.03C145.634 25.834 143.492 27.598 134.252 27.598ZM170.516 31C174.464 25.036 182.948 12.352 186.854 6.64H181.982L174.632 17.644C172.448 20.878 170.348 24.112 168.626 26.8H165.686C164.93 24.154 163.922 20.836 162.914 17.602L159.554 6.64H155.018C156.866 12.352 161.024 25.834 162.578 31H170.516ZM200.248 31.504C212.512 31.504 214.654 29.068 215.704 23.23L211.546 23.062C211 26.212 209.614 27.766 200.374 27.766C191.428 27.766 189.706 26.128 190.462 20.458H216.166C216.292 19.744 216.502 18.862 216.586 18.19C217.972 9.202 215.326 6.136 203.356 6.136C191.386 6.136 188.194 8.908 186.556 18.19L186.346 19.45C184.834 28.48 187.984 31.504 200.248 31.504ZM203.188 9.79C211.798 9.79 213.142 11.47 212.344 16.846H191.092C192.394 11.302 194.746 9.79 203.188 9.79ZM221.514 24.28C220.926 27.598 220.632 29.236 220.296 31H224.58C224.832 29.236 225.126 27.682 225.714 24.28L226.722 18.652C227.94 11.596 230.208 10.042 237.432 10.042C244.782 10.042 245.454 11.05 244.614 15.796L244.446 16.636L248.52 16.552C248.646 15.922 248.772 15.292 248.856 14.788C250.074 7.816 248.478 6.136 239.112 6.136C233.904 6.136 230.334 7.48 227.94 10.21L228.486 6.64H224.58C224.328 8.278 224.076 9.79 223.53 12.898L221.514 24.28ZM282.674 31.756C286.916 25.54 295.82 12.352 299.852 6.64H295.19L288.176 16.804C286.286 19.492 284.438 22.222 282.842 24.616H280.532C279.482 22.18 278.222 19.408 277.046 16.678L272.678 6.64H268.016C270.662 12.394 275.366 23.356 277.508 28.522H280.154L279.188 29.866C277.214 32.596 276.248 33.1 273.77 33.1C272.174 33.1 270.872 33.058 269.57 32.974L268.772 36.754C270.284 36.838 272.216 36.922 273.224 36.922C277.508 36.922 280.07 35.578 282.674 31.756ZM313.036 31.504C325.174 31.504 328.366 28.732 330.004 19.45L330.214 18.19C331.852 8.908 328.66 6.136 316.522 6.136C304.384 6.136 301.192 8.908 299.554 18.19L299.344 19.45C297.706 28.732 300.898 31.504 313.036 31.504ZM313.204 27.598C303.964 27.598 302.494 25.834 303.67 19.03L303.754 18.61C304.972 11.806 307.072 10.042 316.312 10.042C325.552 10.042 327.064 11.806 325.846 18.61L325.762 19.03C324.586 25.834 322.444 27.598 313.204 27.598ZM336.596 15.88C336.134 18.4 335.924 19.408 335.63 21.13C334.328 28.522 336.638 31.504 347.684 31.504C353.06 31.504 356.714 30.16 359.108 27.472L358.562 31H362.468C362.72 29.362 362.972 27.85 363.518 24.742L365.534 13.36C366.122 10.042 366.416 8.404 366.752 6.64H362.468C362.216 8.404 361.922 9.958 361.334 13.36L360.284 19.24C359.192 25.624 356.84 27.598 348.776 27.598C340.292 27.598 339.074 25.456 340.082 19.87L341.216 13.318C341.846 9.748 342.056 8.53 342.434 6.64H338.15C337.856 8.614 337.562 10.294 337.016 13.318L336.596 15.88ZM371.262 24.28C370.674 27.598 370.38 29.236 370.044 31H374.328C374.58 29.236 374.874 27.682 375.462 24.28L376.47 18.652C377.688 11.596 379.956 10.042 387.18 10.042C394.53 10.042 395.202 11.05 394.362 15.796L394.194 16.636L398.268 16.552C398.394 15.922 398.52 15.292 398.604 14.788C399.822 7.816 398.226 6.136 388.86 6.136C383.652 6.136 380.082 7.48 377.688 10.21L378.234 6.64H374.328C374.076 8.278 373.824 9.79 373.278 12.898L371.262 24.28ZM2.082 78.406C1.578 81.22 1.242 83.152 0.864 85H5.148C5.442 83.152 5.778 81.22 6.282 78.448L9.39 60.682C9.936 57.658 10.314 55.39 10.692 53.584H6.408C6.114 55.39 5.736 57.658 5.19 60.64L2.082 78.406ZM18.2996 54.256L17.6276 58.162H21.9116L22.5836 54.256H18.2996ZM14.0996 78.406C13.5956 81.22 13.2596 83.152 12.8816 85H17.1656C17.4596 83.152 17.7956 81.22 18.2996 78.448L20.1476 67.738C20.6936 64.714 21.1136 62.446 21.4496 60.64H17.1656C16.9136 62.446 16.4936 64.714 15.9896 67.696L14.0996 78.406ZM26.0332 78.28C25.4452 81.598 25.1512 83.236 24.8152 85H29.0992C29.3512 83.236 29.6452 81.682 30.2332 78.28L31.2832 72.4C32.4172 66.016 34.7272 64.042 41.3632 64.042C47.1592 64.042 48.5872 65.47 47.8312 69.796L46.3192 78.406C45.7312 81.64 45.5212 82.942 45.1012 85H49.3852C49.8052 82.438 50.1412 80.59 50.5192 78.28L51.5692 72.4C52.7032 66.016 55.0972 64.042 61.6912 64.042C67.4872 64.042 68.9152 65.47 68.1592 69.796L66.6472 78.364C66.0592 81.64 65.8492 82.942 65.4292 85H69.7132C70.1332 82.438 70.4692 80.59 70.8472 78.364L71.2252 76.18C71.8972 72.4 72.3172 70.258 72.6112 68.536C73.7032 62.404 71.3932 60.136 63.0772 60.136C57.8692 60.136 54.5512 61.564 52.4092 64.42C51.7372 61.312 48.7972 60.136 42.7492 60.136C37.8352 60.136 34.6012 61.396 32.5012 63.916L33.0052 60.64H29.0992C28.8472 62.278 28.5952 63.79 28.0492 66.898L26.0332 78.28ZM82.6941 54.256L82.0221 58.162H86.3061L86.9781 54.256H82.6941ZM78.4941 78.406C77.9901 81.22 77.6541 83.152 77.2761 85H81.5601C81.8541 83.152 82.1901 81.22 82.6941 78.448L84.5421 67.738C85.0881 64.714 85.5081 62.446 85.8441 60.64H81.5601C81.3081 62.446 80.8881 64.714 80.3841 67.696L78.4941 78.406ZM93.2417 69.88C92.9057 71.938 92.4437 74.332 92.1077 76.18C90.8477 83.404 93.1577 85.21 103.07 85.21C104.918 85.21 106.052 85.126 107.396 85L108.026 81.178C106.43 81.262 105.422 81.304 103.532 81.304C97.1057 81.304 95.5517 80.674 96.4337 75.592L98.4077 64.462H110.966L111.638 60.64H99.1217C99.4577 58.54 99.7517 56.86 99.9617 55.852L95.6777 55.936C95.3417 57.868 95.1317 59.254 94.8797 60.64C93.5357 60.64 92.1917 60.682 90.4697 60.64L89.7977 64.462H94.2077L93.2417 69.88ZM114.26 78.406C113.756 81.22 113.42 83.152 113.042 85H117.326C117.62 83.152 117.956 81.22 118.46 78.448L121.568 60.682C122.114 57.658 122.492 55.39 122.87 53.584H118.586C118.292 55.39 117.914 57.658 117.368 60.64L114.26 78.406ZM139.339 85.504C151.603 85.504 153.745 83.068 154.795 77.23L150.637 77.062C150.091 80.212 148.705 81.766 139.465 81.766C130.519 81.766 128.797 80.128 129.553 74.458H155.257C155.383 73.744 155.593 72.862 155.677 72.19C157.063 63.202 154.417 60.136 142.447 60.136C130.477 60.136 127.285 62.908 125.647 72.19L125.437 73.45C123.925 82.48 127.075 85.504 139.339 85.504ZM142.279 63.79C150.889 63.79 152.233 65.47 151.435 70.846H130.183C131.485 65.302 133.837 63.79 142.279 63.79ZM172.533 85.504C184.755 85.504 186.015 84.034 186.897 78.994C187.779 73.996 185.889 71.896 174.213 70.804C165.351 69.964 164.931 68.914 165.225 66.73C165.477 64.798 167.073 63.916 174.969 63.916C182.991 63.916 184.083 64.882 183.621 67.444L183.495 68.074L187.863 67.948C188.871 62.11 186.603 60.136 175.221 60.136C164.007 60.136 162.117 61.774 161.193 66.898C160.353 71.854 162.243 73.786 172.827 74.71C182.445 75.55 182.991 76.6 182.613 78.952C182.277 81.094 181.185 81.976 172.743 81.976C163.797 81.976 162.663 81.01 163.251 77.608L163.377 76.936L159.093 77.062C157.875 84.118 160.395 85.504 172.533 85.504ZM204.772 85.504C216.994 85.504 218.254 84.034 219.136 78.994C220.018 73.996 218.128 71.896 206.452 70.804C197.59 69.964 197.17 68.914 197.464 66.73C197.716 64.798 199.312 63.916 207.208 63.916C215.23 63.916 216.322 64.882 215.86 67.444L215.734 68.074L220.102 67.948C221.11 62.11 218.842 60.136 207.46 60.136C196.246 60.136 194.356 61.774 193.432 66.898C192.592 71.854 194.482 73.786 205.066 74.71C214.684 75.55 215.23 76.6 214.852 78.952C214.516 81.094 213.424 81.976 204.982 81.976C196.036 81.976 194.902 81.01 195.49 77.608L195.616 76.936L191.332 77.062C190.114 84.118 192.634 85.504 204.772 85.504ZM253.561 85.504C265.531 85.504 268.261 82.774 269.563 75.55L265.405 75.424C264.649 79.792 262.549 81.598 253.645 81.598C244.573 81.598 243.103 79.834 244.279 73.03L244.363 72.61C245.581 65.806 247.681 64.042 256.753 64.042C265.657 64.042 267.001 65.932 266.245 70.216L270.445 70.09C271.747 62.656 268.891 60.136 256.879 60.136C245.077 60.136 241.801 62.908 240.163 72.19L239.953 73.45C238.315 82.732 241.801 85.504 253.561 85.504ZM274.916 78.364C274.37 81.43 274.118 82.942 273.698 85H277.982C278.318 82.9 278.612 81.094 279.116 78.28L280.166 72.4C281.3 66.016 283.61 64.042 291.842 64.042C300.368 64.042 301.586 66.184 300.62 71.77L299.444 78.364C298.898 81.346 298.646 82.858 298.226 85H302.51C302.888 82.606 303.224 80.632 303.644 78.448L304.106 75.76C304.526 73.24 304.778 72.232 305.072 70.51C306.374 63.118 304.022 60.136 292.934 60.136C287.39 60.136 283.862 61.312 281.594 63.622C282.182 60.556 283.442 54.298 283.568 53.584H279.242C278.948 55.39 278.57 57.616 278.024 60.64L274.916 78.364ZM322.345 85.504C328.855 85.504 332.803 84.202 334.987 82.144L334.525 85H338.305C338.851 81.682 339.229 79.54 339.691 77.02C340.279 73.492 340.615 71.896 341.203 68.578C342.211 62.824 340.111 60.136 327.679 60.136C316.381 60.136 313.819 62.53 313.021 67.612L317.263 67.738C317.725 64.84 318.901 63.874 327.469 63.874C336.331 63.874 337.549 65.176 336.835 69.376L336.289 72.358C334.609 70.804 331.165 69.88 325.117 69.88C314.071 69.88 311.257 72.19 310.249 77.776C309.325 83.236 311.173 85.504 322.345 85.504ZM324.193 81.85C315.625 81.85 314.071 80.8 314.575 77.776C315.121 74.668 316.507 73.366 325.705 73.366C334.735 73.366 335.995 74.626 335.659 76.516L335.407 77.818C334.945 80.548 333.223 81.85 324.193 81.85ZM346.98 78.28C346.392 81.598 346.098 83.236 345.762 85H350.046C350.298 83.236 350.592 81.682 351.18 78.28L352.23 72.4C353.364 66.016 355.674 64.042 363.906 64.042C372.432 64.042 373.65 66.184 372.684 71.77L371.508 78.322C370.878 81.892 370.668 83.11 370.29 85H374.574C374.868 83.026 375.162 81.346 375.708 78.322L376.17 75.76C376.59 73.24 376.842 72.232 377.136 70.51C378.438 63.118 376.086 60.136 364.998 60.136C359.538 60.136 355.842 61.48 353.406 64.21L353.952 60.64H350.046C349.794 62.278 349.542 63.79 348.996 66.898L346.98 78.28ZM396.131 85.504C408.101 85.504 410.831 82.774 412.133 75.55L407.975 75.424C407.219 79.792 405.119 81.598 396.215 81.598C387.143 81.598 385.673 79.834 386.849 73.03L386.933 72.61C388.151 65.806 390.251 64.042 399.323 64.042C408.227 64.042 409.571 65.932 408.815 70.216L413.015 70.09C414.317 62.656 411.461 60.136 399.449 60.136C387.647 60.136 384.371 62.908 382.733 72.19L382.523 73.45C380.885 82.732 384.371 85.504 396.131 85.504ZM430.632 85.504C442.896 85.504 445.038 83.068 446.088 77.23L441.93 77.062C441.384 80.212 439.998 81.766 430.758 81.766C421.812 81.766 420.09 80.128 420.846 74.458H446.55C446.676 73.744 446.886 72.862 446.97 72.19C448.356 63.202 445.71 60.136 433.74 60.136C421.77 60.136 418.578 62.908 416.94 72.19L416.73 73.45C415.218 82.48 418.368 85.504 430.632 85.504ZM433.572 63.79C442.182 63.79 443.526 65.47 442.728 70.846H421.476C422.778 65.302 425.13 63.79 433.572 63.79Z" fill="#313338"/>
<path d="M2.334 24.322L3.31834 24.4983L3.31869 24.4963L2.334 24.322ZM1.116 31L0.13542 30.8039L-0.103804 32H1.116V31ZM37.866 16.342L38.8506 16.517L38.8524 16.5064L37.866 16.342ZM37.95 15.838L36.9636 15.6736V15.6736L37.95 15.838ZM6.366 1.18V0.179998H5.50126L5.37647 1.03569L6.366 1.18ZM5.442 6.766L6.42674 6.94033L6.42839 6.9304L5.442 6.766ZM33.54 15.838L32.5547 15.6673L32.5536 15.6736L33.54 15.838ZM33.456 16.342L34.4406 16.5175L34.4424 16.5064L33.456 16.342ZM6.24 27.052L5.25486 26.8803L5.05059 28.052H6.24V27.052ZM10.062 5.128V4.128H9.22125L9.07686 4.95626L10.062 5.128ZM1.34966 24.1457C0.843047 26.9743 0.594786 28.5071 0.13542 30.8039L2.09658 31.1961C2.56121 28.8729 2.81695 27.2977 3.31834 24.4983L1.34966 24.1457ZM1.116 32H17.874V30H1.116V32ZM17.874 32C25.069 32 29.8688 31.1847 33.1064 28.7191C36.3794 26.2264 37.8365 22.2211 38.8506 16.517L36.8814 16.167C35.8795 21.8029 34.5226 25.1266 31.8946 27.1279C29.2312 29.1563 25.043 30 17.874 30V32ZM38.8524 16.5064L38.9364 16.0024L36.9636 15.6736L36.8796 16.1776L38.8524 16.5064ZM38.9364 16.0024C39.8462 10.5433 39.5158 6.40412 36.6851 3.71988C35.2932 2.40001 33.3841 1.52305 30.9668 0.971551C28.5507 0.420314 25.5637 0.179998 21.948 0.179998V2.18C25.4933 2.18 28.3128 2.41743 30.5219 2.92145C32.7299 3.42519 34.2648 4.18099 35.3089 5.17112C37.3503 7.10688 37.8598 10.2967 36.9636 15.6736L38.9364 16.0024ZM21.948 0.179998H6.366V2.18H21.948V0.179998ZM5.37647 1.03569C5.08428 3.03929 4.83774 4.30882 4.45561 6.6016L6.42839 6.9304C6.80226 4.68718 7.05972 3.35271 7.35553 1.3243L5.37647 1.03569ZM4.45731 6.59168L1.34931 24.1477L3.31869 24.4963L6.42669 6.94032L4.45731 6.59168ZM21.906 6.128C24.7309 6.128 26.8963 6.26716 28.5398 6.58966C30.1866 6.91282 31.2081 7.40125 31.8468 8.01981C32.4633 8.61693 32.8302 9.44013 32.9474 10.6795C33.067 11.9447 32.9185 13.5677 32.5547 15.6673L34.5253 16.0087C34.8965 13.8663 35.084 12.0296 34.9385 10.4912C34.7906 8.92712 34.2912 7.60307 33.2382 6.58319C32.2074 5.58475 30.7561 4.98643 28.9249 4.62709C27.0903 4.26709 24.7721 4.128 21.906 4.128V6.128ZM32.5536 15.6736L32.4696 16.1776L34.4424 16.5064L34.5264 16.0024L32.5536 15.6736ZM32.4715 16.1665C31.7195 20.3859 30.7613 22.6992 28.8609 24.0668C26.9024 25.4762 23.7227 26.052 18 26.052V28.052C23.7013 28.052 27.4936 27.5148 30.0291 25.6902C32.6227 23.8238 33.6805 20.7821 34.4405 16.5175L32.4715 16.1665ZM18 26.052H6.24V28.052H18V26.052ZM7.22514 27.2237L11.0471 5.29974L9.07686 4.95626L5.25486 26.8803L7.22514 27.2237ZM10.062 6.128H21.906V4.128H10.062V6.128ZM46.9695 0.255998V-0.744002H46.1269L45.984 0.0864458L46.9695 0.255998ZM46.2975 4.162L45.312 3.99244L45.1108 5.162H46.2975V4.162ZM50.5815 4.162V5.162H51.4241L51.567 4.33155L50.5815 4.162ZM51.2535 0.255998L52.239 0.42555L52.4402 -0.744002H51.2535V0.255998ZM42.7695 24.406L43.7538 24.5823L43.7543 24.5798L42.7695 24.406ZM41.5515 31L40.5718 30.7996L40.3262 32H41.5515V31ZM45.8355 31V32H46.689L46.8231 31.1571L45.8355 31ZM46.9695 24.448L47.9534 24.6269L47.9549 24.618L46.9695 24.448ZM48.8175 13.738L47.8334 13.5603L47.8321 13.568L48.8175 13.738ZM50.1195 6.64L51.1026 6.82291L51.3227 5.64H50.1195V6.64ZM45.8355 6.64V5.64H44.9653L44.8451 6.5018L45.8355 6.64ZM44.6595 13.696L45.6443 13.8698L45.6455 13.8626L44.6595 13.696ZM45.984 0.0864458L45.312 3.99244L47.283 4.33155L47.955 0.42555L45.984 0.0864458ZM46.2975 5.162H50.5815V3.162H46.2975V5.162ZM51.567 4.33155L52.239 0.42555L50.268 0.0864458L49.596 3.99244L51.567 4.33155ZM51.2535 -0.744002H46.9695V1.256H51.2535V-0.744002ZM41.7852 24.2297C41.2796 27.0523 40.9466 28.9671 40.5718 30.7996L42.5312 31.2004C42.9124 29.3369 43.2514 27.3877 43.7538 24.5823L41.7852 24.2297ZM41.5515 32H45.8355V30H41.5515V32ZM46.8231 31.1571C47.1154 29.3196 47.4499 27.3957 47.9534 24.6269L45.9856 24.2691C45.4811 27.0443 45.1436 28.9844 44.8479 30.8429L46.8231 31.1571ZM47.9549 24.618L49.8029 13.908L47.8321 13.568L45.9841 24.278L47.9549 24.618ZM49.8016 13.9157C50.3472 10.8941 50.7668 8.62794 51.1026 6.82291L49.1364 6.45709C48.8002 8.26406 48.3798 10.5339 47.8334 13.5603L49.8016 13.9157ZM50.1195 5.64H45.8355V7.64H50.1195V5.64ZM44.8451 6.5018C44.5957 8.28899 44.1816 10.5227 43.6735 13.5293L45.6455 13.8626C46.1454 10.9053 46.5713 8.60301 46.8259 6.77819L44.8451 6.5018ZM43.6747 13.5222L41.7847 24.2322L43.7543 24.5798L45.6443 13.8698L43.6747 13.5222ZM80.9951 24.994L80.0103 24.8202L80.01 24.8216L80.9951 24.994ZM68.3111 16.804L68.2167 17.7995L68.218 17.7997L68.3111 16.804ZM59.3231 12.73L60.3141 12.8634L60.3147 12.8593L59.3231 12.73ZM77.7191 13.444L78.6997 13.6401L78.7015 13.6308L78.7032 13.6215L77.7191 13.444ZM77.5931 14.074L76.6125 13.8779L76.3661 15.1098L77.6219 15.0736L77.5931 14.074ZM81.9611 13.948L81.9899 14.9476L82.8074 14.924L82.9465 14.1181L81.9611 13.948ZM55.2911 12.898L54.3069 12.7205L54.3051 12.7309L55.2911 12.898ZM66.9251 20.71L67.0121 19.7138L67.012 19.7138L66.9251 20.71ZM76.7111 24.952L75.7237 24.7933L75.7232 24.797L76.7111 24.952ZM57.3491 23.608L56.3662 23.4237L56.3649 23.4307L56.3637 23.4377L57.3491 23.608ZM57.4751 22.936L58.458 23.1203L58.6868 21.8999L57.4457 21.9364L57.4751 22.936ZM53.1911 23.062L53.1617 22.0624L52.3447 22.0865L52.2057 22.8919L53.1911 23.062ZM66.6311 32.504C69.6998 32.504 72.1156 32.4121 74.0238 32.1888C75.9244 31.9664 77.3906 31.6066 78.5204 31.0296C79.6856 30.4345 80.4594 29.6253 80.9876 28.5929C81.4944 27.6022 81.7579 26.436 81.9801 25.1664L80.01 24.8216C79.7912 26.072 79.5665 26.9795 79.2071 27.682C78.869 28.3427 78.3986 28.846 77.6107 29.2484C76.7876 29.6689 75.592 29.9916 73.7914 30.2023C71.9984 30.4122 69.6734 30.504 66.6311 30.504V32.504ZM81.9799 25.1678C82.2099 23.8643 82.2836 22.6306 81.9958 21.5105C81.6972 20.3485 81.0305 19.3879 79.9391 18.6173C78.8791 17.8689 77.4354 17.3105 75.5737 16.8686C73.7035 16.4246 71.344 16.0833 68.4042 15.8083L68.218 17.7997C71.1161 18.0707 73.3714 18.4014 75.1118 18.8145C76.8608 19.2297 78.0238 19.7133 78.7856 20.2512C79.5159 20.7668 79.8861 21.3366 80.0587 22.0082C80.242 22.7217 80.2213 23.6247 80.0103 24.8202L81.9799 25.1678ZM68.4054 15.8085C66.2037 15.5998 64.553 15.3803 63.3188 15.1388C62.0716 14.8947 61.3158 14.64 60.8619 14.3928C60.4405 14.1633 60.3471 13.9798 60.308 13.8598C60.2481 13.6762 60.2416 13.4024 60.3141 12.8634L58.332 12.5966C58.2576 13.1496 58.1933 13.826 58.4065 14.4798C58.6404 15.1972 59.1507 15.7382 59.9053 16.1492C60.6274 16.5425 61.6198 16.8443 62.9346 17.1016C64.2624 17.3614 65.9874 17.5882 68.2167 17.7995L68.4054 15.8085ZM60.3147 12.8593C60.3608 12.5061 60.4541 12.2946 60.5958 12.1318C60.7467 11.9585 61.0352 11.7459 61.6385 11.5493C62.887 11.1423 65.112 10.916 69.0671 10.916V8.916C65.1261 8.916 62.6051 9.13066 61.0187 9.64772C60.2045 9.9131 59.5532 10.2833 59.0872 10.8187C58.612 11.3647 58.4114 11.9879 58.3315 12.6007L60.3147 12.8593ZM69.0671 10.916C71.0579 10.916 72.59 10.9762 73.762 11.1013C74.9474 11.2279 75.6941 11.4144 76.1558 11.6273C76.5838 11.8247 76.6986 12.01 76.7496 12.1514C76.821 12.3492 76.8415 12.6759 76.735 13.2665L78.7032 13.6215C78.8277 12.9311 78.8849 12.1763 78.6308 11.4724C78.3564 10.7121 77.7833 10.1755 76.9934 9.81117C76.2371 9.46236 75.2355 9.24726 73.9744 9.11262C72.6999 8.97656 71.0873 8.916 69.0671 8.916V10.916ZM76.7385 13.2479L76.6125 13.8779L78.5737 14.2701L78.6997 13.6401L76.7385 13.2479ZM77.6219 15.0736L81.9899 14.9476L81.9322 12.9484L77.5642 13.0744L77.6219 15.0736ZM82.9465 14.1181C83.2074 12.607 83.2801 11.2285 82.9824 10.0245C82.6732 8.77372 81.9778 7.76675 80.835 7.01674C79.731 6.29214 78.2503 5.83322 76.3898 5.54726C74.5197 5.25981 72.1861 5.136 69.3191 5.136V7.136C72.143 7.136 74.3612 7.25894 76.086 7.52405C77.8205 7.79065 78.9779 8.19011 79.7376 8.68876C80.4586 9.162 80.8526 9.74316 81.0408 10.5045C81.2406 11.3125 81.2187 12.37 80.9757 13.7779L82.9465 14.1181ZM69.3191 5.136C63.7366 5.136 60.2179 5.52994 57.9796 6.71109C55.5728 7.98116 54.7856 10.0659 54.3069 12.7205L56.2752 13.0755C56.7205 10.6061 57.3403 9.30983 58.913 8.47991C60.6543 7.56106 63.6876 7.136 69.3191 7.136V5.136ZM54.3051 12.7309C54.086 14.024 54.0224 15.2339 54.2963 16.3234C54.5805 17.4536 55.2107 18.3861 56.2395 19.1273C57.2369 19.846 58.5836 20.3676 60.2952 20.77C62.0147 21.1742 64.1712 21.4734 66.8381 21.7062L67.012 19.7138C64.387 19.4846 62.3382 19.1958 60.7529 18.823C59.1596 18.4484 58.1017 18.004 57.4086 17.5047C56.747 17.0279 56.4006 16.4904 56.2359 15.8356C56.061 15.1401 56.0762 14.25 56.277 13.0651L54.3051 12.7309ZM66.8381 21.7062C69.2302 21.9151 71.0328 22.1351 72.3866 22.3804C73.7538 22.6282 74.5968 22.8908 75.1107 23.154C75.5949 23.4021 75.7029 23.6049 75.7459 23.733C75.8103 23.9249 75.8163 24.2177 75.7237 24.7933L77.6984 25.1107C77.7949 24.5103 77.8744 23.7898 77.6421 23.0971C77.3885 22.3406 76.8297 21.7874 76.0225 21.374C75.2449 20.9757 74.1716 20.6713 72.7432 20.4125C71.3013 20.1512 69.4289 19.9249 67.0121 19.7138L66.8381 21.7062ZM75.7232 24.797C75.6485 25.2729 75.5498 25.5433 75.4079 25.7368C75.2762 25.9164 75.0342 26.1279 74.4802 26.3253C73.2971 26.7468 71.0842 26.976 66.8411 26.976V28.976C71.04 28.976 73.5941 28.7642 75.1515 28.2092C75.9677 27.9184 76.5894 27.5077 77.0207 26.9195C77.4418 26.3452 77.6056 25.7021 77.699 25.107L75.7232 24.797ZM66.8411 26.976C64.616 26.976 62.9092 26.9156 61.6066 26.7775C60.2882 26.6377 59.4699 26.4257 58.9685 26.174C58.5184 25.9481 58.3632 25.7143 58.2873 25.4497C58.1895 25.1094 58.1924 24.6001 58.3345 23.7783L56.3637 23.4377C56.2117 24.3169 56.1359 25.2041 56.365 26.0018C56.6158 26.8751 57.193 27.5206 58.0712 27.9615C58.898 28.3765 60.0038 28.6187 61.3957 28.7663C62.8035 28.9156 64.5931 28.976 66.8411 28.976V26.976ZM58.332 23.7923L58.458 23.1203L56.4922 22.7517L56.3662 23.4237L58.332 23.7923ZM57.4457 21.9364L53.1617 22.0624L53.2205 24.0616L57.5045 23.9356L57.4457 21.9364ZM52.2057 22.8919C51.8946 24.6939 51.7961 26.2611 52.0951 27.5791C52.4077 28.9567 53.1461 30.0218 54.3782 30.7805C55.5576 31.5068 57.1414 31.9231 59.1152 32.1695C61.1027 32.4176 63.5863 32.504 66.6311 32.504V30.504C63.6069 30.504 61.2237 30.4172 59.3629 30.1849C57.4885 29.9509 56.2425 29.5797 55.4269 29.0775C54.6641 28.6077 54.2422 28.0033 54.0455 27.1365C53.8353 26.2101 53.8786 24.9581 54.1765 23.2321L52.2057 22.8919ZM115.795 21.55L116.78 21.7274L116.985 20.5856L115.826 20.5505L115.795 21.55ZM111.637 21.424L111.668 20.4245L110.8 20.3982L110.652 21.2535L111.637 21.424ZM90.5114 19.03L89.5308 18.8339L89.5282 18.8468L89.526 18.8597L90.5114 19.03ZM90.5954 18.61L91.5759 18.8061L91.5779 18.7962L91.5797 18.7862L90.5954 18.61ZM112.477 16.216L111.493 16.0422L111.279 17.2524L112.507 17.2155L112.477 16.216ZM116.677 16.09L116.707 17.0896L117.522 17.0651L117.662 16.2625L116.677 16.09ZM86.3954 18.19L85.4105 18.0162L85.409 18.0256L86.3954 18.19ZM86.1854 19.45L87.1702 19.6238L87.1718 19.6144L86.1854 19.45ZM99.7934 32.504C105.795 32.504 109.743 31.8328 112.356 30.064C115.043 28.2445 116.116 25.4106 116.78 21.7274L114.811 21.3726C114.173 24.9134 113.23 27.0565 111.234 28.408C109.163 29.8102 105.762 30.504 99.7934 30.504V32.504ZM115.826 20.5505L111.668 20.4245L111.607 22.4235L115.765 22.5495L115.826 20.5505ZM110.652 21.2535C110.298 23.298 109.679 24.4963 108.314 25.2824C106.83 26.1366 104.318 26.598 99.8774 26.598V28.598C104.341 28.598 107.331 28.1564 109.312 27.0156C111.412 25.8067 112.221 23.918 112.623 21.5945L110.652 21.2535ZM99.8774 26.598C97.6299 26.598 95.9128 26.4877 94.6124 26.2345C93.3085 25.9806 92.5234 25.6013 92.0414 25.1418C91.5825 24.7041 91.2951 24.0944 91.1978 23.138C91.0978 22.1549 91.2068 20.8777 91.4967 19.2003L89.526 18.8597C89.2279 20.5843 89.0797 22.0791 89.2081 23.3404C89.3391 24.6283 89.7658 25.7354 90.6613 26.5892C91.5338 27.4212 92.7437 27.9082 94.2302 28.1976C95.7201 28.4878 97.5888 28.598 99.8774 28.598V26.598ZM91.4919 19.2261L91.5759 18.8061L89.6148 18.4139L89.5308 18.8339L91.4919 19.2261ZM91.5797 18.7862C92.1834 15.4139 92.961 13.6331 94.4257 12.5887C95.9501 11.5018 98.44 11.042 102.985 11.042V9.042C98.4587 9.042 95.3627 9.46423 93.2645 10.9603C91.1068 12.4989 90.2253 15.0021 89.611 18.4338L91.5797 18.7862ZM102.985 11.042C105.184 11.042 106.871 11.1592 108.155 11.3887C109.447 11.6195 110.255 11.9512 110.757 12.3247C111.618 12.9658 111.86 13.9615 111.493 16.0422L113.462 16.3898C113.851 14.1865 113.798 12.0952 111.951 10.7203C111.098 10.0858 109.948 9.67726 108.507 9.41984C107.058 9.16101 105.239 9.042 102.985 9.042V11.042ZM112.507 17.2155L116.707 17.0896L116.647 15.0904L112.447 15.2164L112.507 17.2155ZM117.662 16.2625C118.328 12.4629 118.019 9.44831 115.492 7.52893C114.291 6.61642 112.676 6.02878 110.661 5.66206C108.64 5.29428 106.141 5.136 103.111 5.136V7.136C106.087 7.136 108.451 7.29272 110.303 7.62975C112.161 7.96784 113.431 8.47483 114.282 9.12157C115.861 10.3207 116.329 12.2831 115.692 15.9175L117.662 16.2625ZM103.111 5.136C97.1918 5.136 93.1269 5.81683 90.3462 7.87902C87.5234 9.97243 86.2392 13.3209 85.4106 18.0162L87.3801 18.3638C88.1896 13.7771 89.3624 11.0986 91.5375 9.48548C93.7548 7.84117 97.229 7.136 103.111 7.136V5.136ZM85.409 18.0256L85.199 19.2856L87.1718 19.6144L87.3818 18.3544L85.409 18.0256ZM85.2006 19.2762C84.3702 23.9818 84.7463 27.4897 87.3099 29.7132C88.5542 30.7924 90.2236 31.4807 92.2727 31.9051C94.3233 32.3298 96.823 32.504 99.7934 32.504V30.504C96.8837 30.504 94.5376 30.3317 92.6783 29.9466C90.8175 29.5612 89.5128 28.9764 88.6203 28.2023C86.9104 26.7193 86.3625 24.2001 87.1701 19.6238L85.2006 19.2762ZM151.052 19.45L152.037 19.6238L152.039 19.6144L151.052 19.45ZM151.262 18.19L150.278 18.0162L150.276 18.0256L151.262 18.19ZM120.602 18.19L119.618 18.0162L119.616 18.0256L120.602 18.19ZM120.392 19.45L121.377 19.6238L121.379 19.6144L120.392 19.45ZM124.718 19.03L123.738 18.8339L123.735 18.8468L123.733 18.8597L124.718 19.03ZM124.802 18.61L125.783 18.8061L125.785 18.7962L125.787 18.7862L124.802 18.61ZM146.894 18.61L147.875 18.8061L147.877 18.7962L147.879 18.7862L146.894 18.61ZM146.81 19.03L145.83 18.8339L145.827 18.8468L145.825 18.8597L146.81 19.03ZM134.084 32.504C140.167 32.504 144.296 31.8244 147.098 29.7634C149.947 27.6683 151.209 24.3142 152.037 19.6238L150.068 19.2762C149.257 23.8678 148.105 26.5407 145.913 28.1521C143.676 29.7976 140.14 30.504 134.084 30.504V32.504ZM152.039 19.6144L152.249 18.3544L150.276 18.0256L150.066 19.2856L152.039 19.6144ZM152.247 18.3638C153.074 13.6801 152.783 10.1623 150.242 7.93083C149.008 6.84675 147.335 6.1584 145.261 5.73442C143.185 5.31004 140.634 5.136 137.57 5.136V7.136C140.576 7.136 142.975 7.30846 144.861 7.69389C146.748 8.07973 148.047 8.6645 148.923 9.43367C150.602 10.9087 151.089 13.4179 150.278 18.0162L152.247 18.3638ZM137.57 5.136C131.488 5.136 127.359 5.81563 124.556 7.87665C121.708 9.97171 120.445 13.3258 119.618 18.0162L121.587 18.3638C122.397 13.7722 123.55 11.0993 125.741 9.48785C127.979 7.84237 131.515 7.136 137.57 7.136V5.136ZM119.616 18.0256L119.406 19.2856L121.379 19.6144L121.589 18.3544L119.616 18.0256ZM119.408 19.2762C118.581 23.9599 118.871 27.4777 121.413 29.7092C122.647 30.7933 124.32 31.4816 126.394 31.9056C128.469 32.33 131.021 32.504 134.084 32.504V30.504C131.079 30.504 128.68 30.3315 126.794 29.9461C124.907 29.5603 123.608 28.9755 122.732 28.2063C121.052 26.7313 120.566 24.2221 121.377 19.6238L119.408 19.2762ZM134.252 26.598C131.963 26.598 130.213 26.4877 128.887 26.2339C127.558 25.9793 126.756 25.5984 126.264 25.1365C125.797 24.6979 125.506 24.0892 125.407 23.1357C125.305 22.1541 125.414 20.8781 125.704 19.2003L123.733 18.8597C123.435 20.5839 123.287 22.0799 123.418 23.3427C123.552 24.6335 123.987 25.7416 124.895 26.5945C125.778 27.4241 127.003 27.9095 128.511 28.1982C130.023 28.4878 131.922 28.598 134.252 28.598V26.598ZM125.699 19.2261L125.783 18.8061L123.822 18.4139L123.738 18.8339L125.699 19.2261ZM125.787 18.7862C126.39 15.4143 127.167 13.6364 128.649 12.5919C130.195 11.502 132.729 11.042 137.36 11.042V9.042C132.752 9.042 129.615 9.46398 127.497 10.9571C125.314 12.4956 124.432 15.0017 123.818 18.4338L125.787 18.7862ZM137.36 11.042C139.65 11.042 141.403 11.1523 142.732 11.4062C144.065 11.661 144.871 12.0422 145.366 12.5048C145.835 12.9435 146.126 13.5514 146.223 14.5026C146.323 15.4824 146.21 16.7571 145.91 18.4338L147.879 18.7862C148.188 17.0609 148.342 15.5636 148.213 14.299C148.08 13.0058 147.644 11.897 146.732 11.0442C145.846 10.2153 144.618 9.7303 143.107 9.4417C141.592 9.15223 139.691 9.042 137.36 9.042V11.042ZM145.914 18.4139L145.83 18.8339L147.791 19.2261L147.875 18.8061L145.914 18.4139ZM145.825 18.8597C145.243 22.2274 144.465 24.0037 142.98 25.0474C141.429 26.1381 138.884 26.598 134.252 26.598V28.598C138.861 28.598 142.007 28.1759 144.13 26.6836C146.321 25.1443 147.202 22.6366 147.796 19.2003L145.825 18.8597ZM170.516 31V32H171.054L171.35 31.552L170.516 31ZM186.854 6.64L187.68 7.20446L188.75 5.64H186.854V6.64ZM181.982 6.64V5.64H181.448L181.151 6.08457L181.982 6.64ZM174.632 17.644L175.461 18.2037L175.464 18.1994L174.632 17.644ZM168.626 26.8V27.8H169.173L169.468 27.3394L168.626 26.8ZM165.686 26.8L164.725 27.0747L164.932 27.8H165.686V26.8ZM162.914 17.602L161.958 17.8951L161.96 17.8996L162.914 17.602ZM159.554 6.64L160.511 6.34694L160.294 5.64H159.554V6.64ZM155.018 6.64V5.64H153.644L154.067 6.94782L155.018 6.64ZM162.578 31L161.621 31.2881L161.835 32H162.578V31ZM171.35 31.552C175.297 25.5898 183.778 12.9105 187.68 7.20446L186.029 6.07553C182.119 11.7935 173.632 24.4822 169.683 30.448L171.35 31.552ZM186.854 5.64H181.982V7.64H186.854V5.64ZM181.151 6.08457L173.801 17.0886L175.464 18.1994L182.814 7.19543L181.151 6.08457ZM173.804 17.0843C171.614 20.3275 169.509 23.5689 167.784 26.2606L169.468 27.3394C171.188 24.6551 173.283 21.4285 175.461 18.2037L173.804 17.0843ZM168.626 25.8H165.686V27.8H168.626V25.8ZM166.648 26.5253C165.889 23.8682 164.878 20.5416 163.869 17.3044L161.96 17.8996C162.967 21.1304 163.972 24.4398 164.725 27.0747L166.648 26.5253ZM163.871 17.3089L160.511 6.34694L158.598 6.93305L161.958 17.8951L163.871 17.3089ZM159.554 5.64H155.018V7.64H159.554V5.64ZM154.067 6.94782C155.912 12.6507 160.068 26.1255 161.621 31.2881L163.536 30.7119C161.981 25.5425 157.821 12.0533 155.97 6.33218L154.067 6.94782ZM162.578 32H170.516V30H162.578V32ZM215.704 23.23L216.688 23.407L216.891 22.2772L215.744 22.2308L215.704 23.23ZM211.546 23.062L211.586 22.0628L210.71 22.0274L210.56 22.8912L211.546 23.062ZM190.462 20.458V19.458H189.586L189.47 20.3258L190.462 20.458ZM216.166 20.458V21.458H217.005L217.15 20.6318L216.166 20.458ZM216.586 18.19L215.597 18.0376L215.595 18.0518L215.593 18.066L216.586 18.19ZM186.556 18.19L185.571 18.0162L185.569 18.0256L186.556 18.19ZM186.346 19.45L187.332 19.6151L187.332 19.6144L186.346 19.45ZM212.344 16.846V17.846H213.206L213.333 16.9928L212.344 16.846ZM191.092 16.846L190.118 16.6174L189.829 17.846H191.092V16.846ZM200.248 32.504C206.381 32.504 210.24 31.9082 212.701 30.4105C215.28 28.8409 216.149 26.4022 216.688 23.407L214.719 23.053C214.208 25.8958 213.481 27.5941 211.661 28.702C209.722 29.8818 206.378 30.504 200.248 30.504V32.504ZM215.744 22.2308L211.586 22.0628L211.505 24.0612L215.663 24.2292L215.744 22.2308ZM210.56 22.8912C210.431 23.6338 210.268 24.1804 210.01 24.6137C209.765 25.0243 209.402 25.3872 208.774 25.7002C207.436 26.3667 204.998 26.766 200.374 26.766V28.766C204.989 28.766 207.864 28.3883 209.666 27.4903C210.607 27.021 211.27 26.4048 211.728 25.6381C212.172 24.8941 212.387 24.0652 212.531 23.2328L210.56 22.8912ZM200.374 26.766C198.158 26.766 196.439 26.6639 195.114 26.4359C193.782 26.2069 192.933 25.8641 192.389 25.4455C191.41 24.6927 191.077 23.405 191.453 20.5902L189.47 20.3258C189.09 23.181 189.24 25.5473 191.17 27.031C192.08 27.7306 193.291 28.1518 194.775 28.407C196.265 28.6633 198.116 28.766 200.374 28.766V26.766ZM190.462 21.458H216.166V19.458H190.462V21.458ZM217.15 20.6318C217.258 20.024 217.491 19.0057 217.578 18.314L215.593 18.066C215.512 18.7183 215.325 19.464 215.181 20.2842L217.15 20.6318ZM217.574 18.3424C218.27 13.8269 218.048 10.3342 215.669 8.06836C214.5 6.95524 212.9 6.23086 210.886 5.77969C208.874 5.32879 206.381 5.136 203.356 5.136V7.136C206.315 7.136 208.642 7.32646 210.449 7.73131C212.255 8.13589 213.474 8.73976 214.289 9.51664C215.879 11.0308 216.287 13.5651 215.597 18.0376L217.574 18.3424ZM203.356 5.136C197.355 5.136 193.267 5.81602 190.485 7.87902C187.66 9.97405 186.398 13.326 185.571 18.0162L187.54 18.3638C188.351 13.772 189.504 11.097 191.677 9.48548C193.893 7.84198 197.386 7.136 203.356 7.136V5.136ZM185.569 18.0256L185.359 19.2856L187.332 19.6144L187.542 18.3544L185.569 18.0256ZM185.359 19.2849C184.594 23.855 184.918 27.3575 187.468 29.6124C188.709 30.7096 190.388 31.4234 192.481 31.8685C194.575 32.3138 197.149 32.504 200.248 32.504V30.504C197.214 30.504 194.796 30.3162 192.897 29.9123C190.997 29.5082 189.684 28.9016 188.793 28.1141C187.08 26.5995 186.585 24.075 187.332 19.6151L185.359 19.2849ZM203.188 10.79C205.317 10.79 206.946 10.8947 208.183 11.1203C209.427 11.347 210.185 11.6807 210.654 12.0707C211.503 12.7775 211.756 13.9946 211.354 16.6992L213.333 16.9928C213.729 14.3214 213.709 12.0105 211.933 10.5333C211.089 9.83128 209.947 9.40899 208.542 9.15272C207.131 8.89533 205.363 8.79 203.188 8.79V10.79ZM212.344 15.846H191.092V17.846H212.344V15.846ZM192.065 17.0746C192.694 14.3984 193.516 12.9626 194.972 12.0991C196.52 11.1812 198.966 10.79 203.188 10.79V8.79C198.967 8.79 196.016 9.15484 193.952 10.3789C191.796 11.6574 190.792 13.7495 190.118 16.6174L192.065 17.0746ZM221.514 24.28L222.498 24.4545L222.498 24.4544L221.514 24.28ZM220.296 31L219.313 30.8129L219.087 32H220.296V31ZM224.58 31V32H225.447L225.57 31.1414L224.58 31ZM225.714 24.28L224.729 24.1037L224.728 24.1097L225.714 24.28ZM226.722 18.652L227.706 18.8283L227.707 18.8221L226.722 18.652ZM244.614 15.796L245.594 15.9921L245.596 15.9812L245.598 15.9703L244.614 15.796ZM244.446 16.636L243.465 16.4399L243.221 17.6615L244.466 17.6358L244.446 16.636ZM248.52 16.552L248.54 17.5518L249.343 17.5352L249.5 16.7481L248.52 16.552ZM248.856 14.788L247.871 14.6159L247.869 14.6236L248.856 14.788ZM227.94 10.21L226.951 10.0588L226.433 13.4444L228.691 10.8693L227.94 10.21ZM228.486 6.64L229.474 6.79118L229.65 5.64H228.486V6.64ZM224.58 6.64V5.64H223.722L223.591 6.48794L224.58 6.64ZM223.53 12.898L224.514 13.0724L224.515 13.071L223.53 12.898ZM220.529 24.1055C219.941 27.4238 219.648 29.056 219.313 30.8129L221.278 31.1871C221.615 29.416 221.91 27.7722 222.498 24.4545L220.529 24.1055ZM220.296 32H224.58V30H220.296V32ZM225.57 31.1414C225.819 29.3967 226.108 27.8709 226.699 24.4503L224.728 24.1097C224.143 27.4931 223.844 29.0753 223.59 30.8586L225.57 31.1414ZM226.698 24.4563L227.706 18.8283L225.737 18.4757L224.729 24.1037L226.698 24.4563ZM227.707 18.8221C228.31 15.3306 229.133 13.5127 230.441 12.4883C231.771 11.447 233.826 11.042 237.432 11.042V9.042C233.813 9.042 231.123 9.414 229.208 10.9137C227.271 12.4303 226.352 14.9174 225.736 18.4819L227.707 18.8221ZM237.432 11.042C239.258 11.042 240.615 11.1055 241.619 11.2618C242.637 11.4203 243.162 11.6564 243.441 11.8971C243.676 12.0986 243.837 12.3886 243.882 12.9729C243.931 13.5965 243.838 14.4391 243.629 15.6217L245.598 15.9703C245.809 14.7799 245.947 13.7167 245.876 12.8166C245.803 11.877 245.494 11.0251 244.746 10.3814C244.044 9.77687 243.075 9.46434 241.927 9.28555C240.764 9.10451 239.28 9.042 237.432 9.042V11.042ZM243.633 15.5999L243.465 16.4399L245.426 16.8321L245.594 15.9921L243.633 15.5999ZM244.466 17.6358L248.54 17.5518L248.499 15.5522L244.425 15.6362L244.466 17.6358ZM249.5 16.7481C249.625 16.1234 249.755 15.4757 249.842 14.9524L247.869 14.6236C247.788 15.1083 247.666 15.7206 247.539 16.3559L249.5 16.7481ZM249.841 14.9601C250.149 13.1927 250.299 11.6677 250.158 10.3859C250.014 9.074 249.56 7.95905 248.626 7.1083C247.72 6.28292 246.47 5.80604 244.938 5.52395C243.399 5.24086 241.471 5.136 239.112 5.136V7.136C241.435 7.136 243.219 7.24114 244.576 7.49092C245.938 7.7417 246.768 8.12057 247.279 8.58669C247.763 9.02745 248.064 9.63974 248.17 10.6037C248.279 11.5978 248.171 12.8973 247.871 14.6159L249.841 14.9601ZM239.112 5.136C233.731 5.136 229.837 6.53013 227.188 9.55067L228.691 10.8693C230.831 8.42987 234.076 7.136 239.112 7.136V5.136ZM228.928 10.3612L229.474 6.79118L227.497 6.48882L226.951 10.0588L228.928 10.3612ZM228.486 5.64H224.58V7.64H228.486V5.64ZM223.591 6.48794C223.341 8.11579 223.09 9.61987 222.545 12.725L224.515 13.071C225.061 9.96013 225.314 8.44021 225.568 6.79206L223.591 6.48794ZM222.545 12.7236L220.529 24.1056L222.498 24.4544L224.514 13.0724L222.545 12.7236ZM282.674 31.756L281.848 31.1923L281.848 31.1929L282.674 31.756ZM299.852 6.64L300.669 7.21668L301.782 5.64H299.852V6.64ZM295.19 6.64V5.64H294.666L294.367 6.07203L295.19 6.64ZM288.176 16.804L288.995 17.3792L289 17.372L288.176 16.804ZM282.842 24.616V25.616H283.378L283.675 25.1707L282.842 24.616ZM280.532 24.616L279.614 25.0118L279.875 25.616H280.532V24.616ZM277.046 16.678L277.965 16.2824L277.963 16.279L277.046 16.678ZM272.678 6.64L273.595 6.24099L273.334 5.64H272.678V6.64ZM268.016 6.64V5.64H266.456L267.108 7.05779L268.016 6.64ZM277.508 28.522L276.585 28.905L276.841 29.522H277.508V28.522ZM280.154 28.522L280.966 29.1056L282.105 27.522H280.154V28.522ZM279.188 29.866L279.999 30.4519L280 30.4496L279.188 29.866ZM269.57 32.974L269.635 31.9761L268.771 31.9203L268.592 32.7674L269.57 32.974ZM268.772 36.754L267.794 36.5474L267.553 37.6878L268.717 37.7525L268.772 36.754ZM283.5 32.3197C287.75 26.0926 296.643 12.9201 300.669 7.21668L299.036 6.06331C294.997 11.7839 286.083 24.9874 281.848 31.1923L283.5 32.3197ZM299.852 5.64H295.19V7.64H299.852V5.64ZM294.367 6.07203L287.353 16.236L289 17.372L296.014 7.20797L294.367 6.07203ZM287.358 16.2288C285.462 18.9259 283.609 21.6633 282.01 24.0613L283.675 25.1707C285.268 22.7807 287.111 20.0581 288.995 17.3792L287.358 16.2288ZM282.842 23.616H280.532V25.616H282.842V23.616ZM281.451 24.2202C280.923 22.9965 280.344 21.6895 279.751 20.3521C279.158 19.0129 278.551 17.6419 277.965 16.2824L276.128 17.0736C276.718 18.4441 277.329 19.8241 277.922 21.1624C278.516 22.5025 279.092 23.7995 279.614 25.0118L281.451 24.2202ZM277.963 16.279L273.595 6.24099L271.762 7.03901L276.13 17.077L277.963 16.279ZM272.678 5.64H268.016V7.64H272.678V5.64ZM267.108 7.05779C269.747 12.7959 274.445 23.7452 276.585 28.905L278.432 28.139C276.288 22.9668 271.578 11.9921 268.925 6.2222L267.108 7.05779ZM277.508 29.522H280.154V27.522H277.508V29.522ZM279.342 27.9384L278.376 29.2824L280 30.4496L280.966 29.1056L279.342 27.9384ZM278.378 29.2801C277.4 30.6332 276.767 31.29 276.163 31.6438C275.596 31.9758 274.951 32.1 273.77 32.1V34.1C275.068 34.1 276.145 33.9722 277.174 33.3697C278.166 32.789 279.003 31.8288 279.999 30.4519L278.378 29.2801ZM273.77 32.1C272.194 32.1 270.913 32.0586 269.635 31.9761L269.506 33.9719C270.832 34.0574 272.155 34.1 273.77 34.1V32.1ZM268.592 32.7674L267.794 36.5474L269.751 36.9606L270.549 33.1806L268.592 32.7674ZM268.717 37.7525C270.229 37.8364 272.186 37.922 273.224 37.922V35.922C272.247 35.922 270.34 35.8396 268.828 35.7555L268.717 37.7525ZM273.224 37.922C275.472 37.922 277.363 37.5692 279.056 36.6514C280.745 35.7359 282.146 34.3083 283.501 32.3191L281.848 31.1929C280.599 33.0257 279.417 34.1811 278.103 34.8931C276.793 35.6028 275.261 35.922 273.224 35.922V37.922ZM330.004 19.45L330.988 19.6238L330.99 19.6144L330.004 19.45ZM330.214 18.19L329.229 18.0162L329.227 18.0256L330.214 18.19ZM299.554 18.19L298.569 18.0162L298.567 18.0256L299.554 18.19ZM299.344 19.45L300.328 19.6238L300.33 19.6144L299.344 19.45ZM303.67 19.03L302.689 18.8339L302.686 18.8468L302.684 18.8597L303.67 19.03ZM303.754 18.61L304.734 18.8061L304.736 18.7962L304.738 18.7862L303.754 18.61ZM325.846 18.61L326.826 18.8061L326.828 18.7962L326.83 18.7862L325.846 18.61ZM325.762 19.03L324.781 18.8339L324.778 18.8468L324.776 18.8597L325.762 19.03ZM313.036 32.504C319.118 32.504 323.247 31.8244 326.05 29.7634C328.898 27.6683 330.161 24.3142 330.988 19.6238L329.019 19.2762C328.208 23.8678 327.056 26.5407 324.865 28.1521C322.627 29.7976 319.091 30.504 313.036 30.504V32.504ZM330.99 19.6144L331.2 18.3544L329.227 18.0256L329.017 19.2856L330.99 19.6144ZM331.198 18.3638C332.025 13.6801 331.735 10.1623 329.193 7.93083C327.959 6.84675 326.286 6.1584 324.212 5.73442C322.137 5.31004 319.585 5.136 316.522 5.136V7.136C319.527 7.136 321.926 7.30846 323.812 7.69389C325.699 8.07973 326.998 8.6645 327.874 9.43367C329.554 10.9087 330.04 13.4179 329.229 18.0162L331.198 18.3638ZM316.522 5.136C310.439 5.136 306.31 5.81563 303.508 7.87665C300.659 9.97171 299.397 13.3258 298.569 18.0162L300.538 18.3638C301.349 13.7722 302.501 11.0993 304.693 9.48785C306.93 7.84237 310.466 7.136 316.522 7.136V5.136ZM298.567 18.0256L298.357 19.2856L300.33 19.6144L300.54 18.3544L298.567 18.0256ZM298.359 19.2762C297.532 23.9599 297.823 27.4777 300.364 29.7092C301.598 30.7933 303.271 31.4816 305.345 31.9056C307.421 32.33 309.972 32.504 313.036 32.504V30.504C310.03 30.504 307.631 30.3315 305.745 29.9461C303.858 29.5603 302.559 28.9755 301.683 28.2063C300.004 26.7313 299.517 24.2221 300.328 19.6238L298.359 19.2762ZM313.204 26.598C310.914 26.598 309.164 26.4877 307.838 26.2339C306.509 25.9793 305.707 25.5984 305.215 25.1365C304.748 24.6979 304.458 24.0892 304.358 23.1357C304.256 22.1541 304.365 20.8781 304.655 19.2003L302.684 18.8597C302.386 20.5839 302.238 22.0799 302.369 23.3427C302.503 24.6335 302.938 25.7416 303.846 26.5945C304.73 27.4241 305.954 27.9095 307.462 28.1982C308.974 28.4878 310.873 28.598 313.204 28.598V26.598ZM304.65 19.2261L304.734 18.8061L302.773 18.4139L302.689 18.8339L304.65 19.2261ZM304.738 18.7862C305.342 15.4143 306.119 13.6364 307.6 12.5919C309.147 11.502 311.68 11.042 316.312 11.042V9.042C311.703 9.042 308.567 9.46398 306.448 10.9571C304.266 12.4956 303.384 15.0017 302.769 18.4338L304.738 18.7862ZM316.312 11.042C318.601 11.042 320.354 11.1523 321.683 11.4062C323.017 11.661 323.823 12.0422 324.317 12.5048C324.786 12.9435 325.077 13.5514 325.174 14.5026C325.275 15.4824 325.161 16.7571 324.861 18.4338L326.83 18.7862C327.139 17.0609 327.293 15.5636 327.164 14.299C327.032 13.0058 326.595 11.897 325.683 11.0442C324.797 10.2153 323.569 9.7303 322.058 9.4417C320.543 9.15223 318.642 9.042 316.312 9.042V11.042ZM324.865 18.4139L324.781 18.8339L326.742 19.2261L326.826 18.8061L324.865 18.4139ZM324.776 18.8597C324.194 22.2274 323.416 24.0037 321.932 25.0474C320.38 26.1381 317.835 26.598 313.204 26.598V28.598C317.812 28.598 320.958 28.1759 323.082 26.6836C325.272 25.1443 326.153 22.6366 326.747 19.2003L324.776 18.8597ZM336.596 15.88L337.58 16.0603L337.581 16.0511L337.583 16.0418L336.596 15.88ZM335.63 21.13L336.615 21.3035L336.616 21.2983L335.63 21.13ZM359.108 27.472L360.096 27.6249L360.614 24.2771L358.361 26.8069L359.108 27.472ZM358.562 31L357.574 30.8471L357.395 32H358.562V31ZM362.468 31V32H363.326L363.456 31.1521L362.468 31ZM363.518 24.742L362.533 24.5676L362.533 24.569L363.518 24.742ZM365.534 13.36L364.549 13.1855V13.1856L365.534 13.36ZM366.752 6.64L367.734 6.82711L367.96 5.64H366.752V6.64ZM362.468 6.64V5.64H361.601L361.478 6.49858L362.468 6.64ZM361.334 13.36L362.318 13.5358L362.319 13.5303L361.334 13.36ZM360.284 19.24L359.299 19.0642L359.298 19.0714L360.284 19.24ZM340.082 19.87L341.066 20.0476L341.067 20.0405L340.082 19.87ZM341.216 13.318L340.231 13.1442L340.231 13.1475L341.216 13.318ZM342.434 6.64L343.414 6.83611L343.654 5.64H342.434V6.64ZM338.15 6.64V5.64H337.288L337.161 6.49269L338.15 6.64ZM337.016 13.318L336.032 13.1403L336.03 13.1483L336.029 13.1562L337.016 13.318ZM335.612 15.6997C335.154 18.1979 334.939 19.2338 334.644 20.9617L336.616 21.2983C336.909 19.5822 337.114 18.6021 337.58 16.0603L335.612 15.6997ZM334.645 20.9565C333.986 24.6964 334.144 27.7744 336.345 29.8213C337.417 30.8178 338.886 31.48 340.737 31.898C342.588 32.316 344.886 32.504 347.684 32.504V30.504C344.959 30.504 342.825 30.3192 341.178 29.9471C339.529 29.575 338.431 29.0297 337.707 28.3567C336.318 27.0646 335.971 24.9556 336.615 21.3035L334.645 20.9565ZM347.684 32.504C353.22 32.504 357.201 31.1168 359.855 28.1371L358.361 26.8069C356.227 29.2032 352.9 30.504 347.684 30.504V32.504ZM358.12 27.3191L357.574 30.8471L359.55 31.1529L360.096 27.6249L358.12 27.3191ZM358.562 32H362.468V30H358.562V32ZM363.456 31.1521C363.707 29.5242 363.957 28.0201 364.503 24.915L362.533 24.569C361.987 27.6799 361.733 29.1998 361.48 30.8479L363.456 31.1521ZM364.503 24.9164L366.519 13.5344L364.549 13.1856L362.533 24.5676L364.503 24.9164ZM366.519 13.5345C367.107 10.2162 367.4 8.58401 367.734 6.82711L365.77 6.45289C365.432 8.22398 365.137 9.86785 364.549 13.1855L366.519 13.5345ZM366.752 5.64H362.468V7.64H366.752V5.64ZM361.478 6.49858C361.229 8.24327 360.94 9.7691 360.349 13.1897L362.319 13.5303C362.904 10.1469 363.203 8.56472 363.458 6.78142L361.478 6.49858ZM360.349 13.1842L359.299 19.0642L361.268 19.4158L362.318 13.5358L360.349 13.1842ZM359.298 19.0714C358.763 22.2001 357.959 23.9588 356.547 25.0113C355.094 26.0941 352.783 26.598 348.776 26.598V28.598C352.833 28.598 355.73 28.1149 357.742 26.6147C359.795 25.0842 360.713 22.6639 361.27 19.4086L359.298 19.0714ZM348.776 26.598C346.687 26.598 345.103 26.4651 343.914 26.2C342.725 25.9348 342.011 25.5545 341.575 25.1201C340.739 24.2878 340.558 22.8649 341.066 20.0476L339.098 19.6924C338.598 22.4611 338.522 24.9022 340.164 26.5374C340.967 27.3368 342.085 27.8411 343.479 28.152C344.873 28.4631 346.623 28.598 348.776 28.598V26.598ZM341.067 20.0405L342.201 13.4885L340.231 13.1475L339.097 19.6995L341.067 20.0405ZM342.201 13.4918C342.832 9.91697 343.039 8.7123 343.414 6.83611L341.453 6.44388C341.073 8.3477 340.86 9.57903 340.231 13.1442L342.201 13.4918ZM342.434 5.64H338.15V7.64H342.434V5.64ZM337.161 6.49269C336.869 8.45018 336.578 10.117 336.032 13.1403L338 13.4957C338.546 10.471 338.843 8.77781 339.139 6.78731L337.161 6.49269ZM336.029 13.1562L335.609 15.7182L337.583 16.0418L338.003 13.4798L336.029 13.1562ZM371.262 24.28L372.246 24.4545V24.4544L371.262 24.28ZM370.044 31L369.061 30.8129L368.835 32H370.044V31ZM374.328 31V32H375.195L375.318 31.1414L374.328 31ZM375.462 24.28L374.477 24.1037L374.476 24.1097L375.462 24.28ZM376.47 18.652L377.454 18.8283L377.455 18.8221L376.47 18.652ZM394.362 15.796L395.342 15.9921L395.344 15.9812L395.346 15.9703L394.362 15.796ZM394.194 16.636L393.213 16.4399L392.969 17.6615L394.214 17.6358L394.194 16.636ZM398.268 16.552L398.288 17.5518L399.091 17.5352L399.248 16.7481L398.268 16.552ZM398.604 14.788L397.619 14.6159L397.617 14.6236L398.604 14.788ZM377.688 10.21L376.699 10.0588L376.181 13.4444L378.44 10.8693L377.688 10.21ZM378.234 6.64L379.222 6.79118L379.398 5.64H378.234V6.64ZM374.328 6.64V5.64H373.47L373.339 6.48794L374.328 6.64ZM373.278 12.898L374.262 13.0724L374.263 13.071L373.278 12.898ZM370.277 24.1055C369.689 27.4238 369.396 29.056 369.061 30.8129L371.026 31.1871C371.363 29.416 371.658 27.7722 372.246 24.4545L370.277 24.1055ZM370.044 32H374.328V30H370.044V32ZM375.318 31.1414C375.567 29.3967 375.856 27.8709 376.447 24.4503L374.476 24.1097C373.891 27.4931 373.592 29.0753 373.338 30.8586L375.318 31.1414ZM376.446 24.4563L377.454 18.8283L375.485 18.4757L374.477 24.1037L376.446 24.4563ZM377.455 18.8221C378.058 15.3306 378.881 13.5127 380.189 12.4883C381.519 11.447 383.574 11.042 387.18 11.042V9.042C383.561 9.042 380.871 9.414 378.956 10.9137C377.019 12.4303 376.1 14.9174 375.484 18.4819L377.455 18.8221ZM387.18 11.042C389.006 11.042 390.363 11.1055 391.367 11.2618C392.385 11.4203 392.91 11.6564 393.189 11.8971C393.424 12.0986 393.585 12.3886 393.631 12.9729C393.679 13.5965 393.586 14.4391 393.377 15.6217L395.346 15.9703C395.557 14.7799 395.695 13.7167 395.624 12.8166C395.551 11.877 395.242 11.0251 394.494 10.3814C393.792 9.77687 392.823 9.46434 391.675 9.28555C390.512 9.10451 389.028 9.042 387.18 9.042V11.042ZM393.381 15.5999L393.213 16.4399L395.174 16.8321L395.342 15.9921L393.381 15.5999ZM394.214 17.6358L398.288 17.5518L398.247 15.5522L394.173 15.6362L394.214 17.6358ZM399.248 16.7481C399.373 16.1234 399.503 15.4757 399.59 14.9524L397.617 14.6236C397.536 15.1083 397.414 15.7206 397.287 16.3559L399.248 16.7481ZM399.589 14.9601C399.898 13.1927 400.047 11.6677 399.906 10.3859C399.762 9.074 399.308 7.95905 398.374 7.1083C397.468 6.28292 396.218 5.80604 394.686 5.52395C393.148 5.24086 391.219 5.136 388.86 5.136V7.136C391.183 7.136 392.967 7.24114 394.324 7.49092C395.686 7.7417 396.516 8.12057 397.027 8.58669C397.511 9.02745 397.812 9.63974 397.918 10.6037C398.027 11.5978 397.919 12.8973 397.619 14.6159L399.589 14.9601ZM388.86 5.136C383.479 5.136 379.585 6.53013 376.936 9.55067L378.44 10.8693C380.579 8.42987 383.824 7.136 388.86 7.136V5.136ZM378.676 10.3612L379.222 6.79118L377.245 6.48882L376.699 10.0588L378.676 10.3612ZM378.234 5.64H374.328V7.64H378.234V5.64ZM373.339 6.48794C373.089 8.11579 372.838 9.61987 372.293 12.725L374.263 13.071C374.809 9.96013 375.062 8.44021 375.316 6.79206L373.339 6.48794ZM372.293 12.7236L370.277 24.1056L372.246 24.4544L374.262 13.0724L372.293 12.7236ZM2.082 78.406L3.06634 78.5823L3.06704 78.5783L2.082 78.406ZM0.864 85L-0.115715 84.7996L-0.36125 86H0.864V85ZM5.148 85V86H6.00148L6.13558 85.1571L5.148 85ZM6.282 78.448L7.26589 78.6269L7.26704 78.6203L6.282 78.448ZM9.39 60.682L8.4059 60.5043L8.40496 60.5097L9.39 60.682ZM10.692 53.584L11.6708 53.7889L11.923 52.584H10.692V53.584ZM6.408 53.584V52.584H5.55763L5.42099 53.4233L6.408 53.584ZM5.19 60.64L4.20632 60.4599L4.20496 60.4677L5.19 60.64ZM1.09766 78.2297C0.592129 81.0523 0.259109 82.9671 -0.115715 84.7996L1.84372 85.2004C2.22489 83.3369 2.56387 81.3877 3.06634 78.5823L1.09766 78.2297ZM0.864 86H5.148V84H0.864V86ZM6.13558 85.1571C6.42792 83.3196 6.76245 81.3957 7.26587 78.6269L5.29813 78.2691C4.79355 81.0443 4.45608 82.9844 4.16042 84.8429L6.13558 85.1571ZM7.26704 78.6203L10.375 60.8543L8.40496 60.5097L5.29696 78.2757L7.26704 78.6203ZM10.3741 60.8597C10.9239 57.8144 11.2966 55.5769 11.6708 53.7889L9.71321 53.3791C9.33144 55.2031 8.94808 57.5016 8.40591 60.5043L10.3741 60.8597ZM10.692 52.584H6.408V54.584H10.692V52.584ZM5.42099 53.4233C5.12765 55.2253 4.75079 57.4864 4.20635 60.4599L6.17365 60.8201C6.72121 57.8296 7.10035 55.5547 7.39501 53.7447L5.42099 53.4233ZM4.20496 60.4677L1.09696 78.2337L3.06704 78.5783L6.17504 60.8123L4.20496 60.4677ZM18.2996 54.256V53.256H17.4569L17.3141 54.0864L18.2996 54.256ZM17.6276 58.162L16.6421 57.9924L16.4408 59.162H17.6276V58.162ZM21.9116 58.162V59.162H22.7542L22.8971 58.3316L21.9116 58.162ZM22.5836 54.256L23.5691 54.4256L23.7703 53.256H22.5836V54.256ZM14.0996 78.406L15.0839 78.5823L15.0844 78.5798L14.0996 78.406ZM12.8816 85L11.9019 84.7996L11.6563 86H12.8816V85ZM17.1656 85V86H18.0191L18.1532 85.1571L17.1656 85ZM18.2996 78.448L19.2835 78.6269L19.285 78.618L18.2996 78.448ZM20.1476 67.738L19.1635 67.5603L19.1621 67.568L20.1476 67.738ZM21.4496 60.64L22.4327 60.8229L22.6528 59.64H21.4496V60.64ZM17.1656 60.64V59.64H16.2954L16.1752 60.5018L17.1656 60.64ZM15.9896 67.696L16.9744 67.8698L16.9756 67.8626L15.9896 67.696ZM17.3141 54.0864L16.6421 57.9924L18.6131 58.3316L19.2851 54.4256L17.3141 54.0864ZM17.6276 59.162H21.9116V57.162H17.6276V59.162ZM22.8971 58.3316L23.5691 54.4256L21.5981 54.0864L20.9261 57.9924L22.8971 58.3316ZM22.5836 53.256H18.2996V55.256H22.5836V53.256ZM13.1152 78.2297C12.6097 81.0523 12.2767 82.9671 11.9019 84.7996L13.8613 85.2004C14.2425 83.3369 14.5814 81.3877 15.0839 78.5823L13.1152 78.2297ZM12.8816 86H17.1656V84H12.8816V86ZM18.1532 85.1571C18.4455 83.3196 18.78 81.3957 19.2834 78.6269L17.3157 78.2691C16.8111 81.0443 16.4737 82.9844 16.178 84.8429L18.1532 85.1571ZM19.285 78.618L21.133 67.908L19.1621 67.568L17.3141 78.278L19.285 78.618ZM21.1317 67.9157C21.6772 64.8941 22.0969 62.6279 22.4327 60.8229L20.4664 60.4571C20.1303 62.2641 19.7099 64.5339 19.1635 67.5603L21.1317 67.9157ZM21.4496 59.64H17.1656V61.64H21.4496V59.64ZM16.1752 60.5018C15.9258 62.289 15.5117 64.5227 15.0036 67.5294L16.9756 67.8626C17.4754 64.9053 17.9014 62.603 18.156 60.7782L16.1752 60.5018ZM15.0048 67.5222L13.1148 78.2322L15.0844 78.5798L16.9744 67.8698L15.0048 67.5222ZM26.0332 78.28L27.0178 78.4545L27.0178 78.4544L26.0332 78.28ZM24.8152 85L23.8328 84.8129L23.6067 86H24.8152V85ZM29.0992 85V86H29.9664L30.0891 85.1414L29.0992 85ZM30.2332 78.28L29.2487 78.1042L29.2478 78.1097L30.2332 78.28ZM31.2832 72.4L32.2676 72.5758L32.2677 72.5749L31.2832 72.4ZM47.8312 69.796L48.8161 69.969L48.8162 69.9681L47.8312 69.796ZM46.3192 78.406L47.303 78.5849L47.3041 78.579L46.3192 78.406ZM45.1012 85L44.1214 84.8L43.8765 86H45.1012V85ZM49.3852 85V86H50.2346L50.372 85.1618L49.3852 85ZM50.5192 78.28L49.5347 78.1042L49.5335 78.1114L49.5323 78.1185L50.5192 78.28ZM51.5692 72.4L52.5536 72.5758L52.5537 72.5749L51.5692 72.4ZM68.1592 69.796L69.1439 69.9698L69.1442 69.9681L68.1592 69.796ZM66.6472 78.364L67.6314 78.5407L67.6319 78.5378L66.6472 78.364ZM65.4292 85L64.4494 84.8L64.2045 86H65.4292V85ZM69.7132 85V86H70.5626L70.7 85.1618L69.7132 85ZM70.8472 78.364L69.8618 78.1935L69.8613 78.1966L70.8472 78.364ZM71.2252 76.18L70.2406 76.005L70.2398 76.0095L71.2252 76.18ZM72.6112 68.536L71.6266 68.3607L71.6254 68.3677L72.6112 68.536ZM52.4092 64.42L51.4317 64.6313L51.8947 66.7726L53.2092 65.02L52.4092 64.42ZM32.5012 63.916L31.5128 63.7639L30.9656 67.3207L33.2694 64.5562L32.5012 63.916ZM33.0052 60.64L33.9935 60.7921L34.1708 59.64H33.0052V60.64ZM29.0992 60.64V59.64H28.2412L28.1108 60.4879L29.0992 60.64ZM28.0492 66.898L29.0338 67.0724L29.0341 67.071L28.0492 66.898ZM25.0485 78.1055C24.4604 81.4238 24.1675 83.056 23.8328 84.8129L25.7975 85.1871C26.1348 83.416 26.4299 81.7722 27.0178 78.4545L25.0485 78.1055ZM24.8152 86H29.0992V84H24.8152V86ZM30.0891 85.1414C30.3383 83.3967 30.6273 81.8709 31.2185 78.4503L29.2478 78.1097C28.663 81.4931 28.364 83.0753 28.1092 84.8586L30.0891 85.1414ZM31.2176 78.4558L32.2676 72.5758L30.2987 72.2242L29.2487 78.1042L31.2176 78.4558ZM32.2677 72.5749C32.8245 69.4407 33.6333 67.6516 34.9003 66.595C36.1693 65.5368 38.1031 65.042 41.3632 65.042V63.042C37.9872 63.042 35.448 63.5341 33.6195 65.059C31.789 66.5854 30.8758 68.9753 30.2986 72.2251L32.2677 72.5749ZM41.3632 65.042C42.7804 65.042 43.8768 65.1302 44.7151 65.3104C45.5542 65.4908 46.065 65.7488 46.3813 66.0365C46.9524 66.556 47.217 67.5014 46.8461 69.6238L48.8162 69.9681C49.2013 67.7646 49.1299 65.833 47.727 64.557C47.0563 63.9469 46.1707 63.5776 45.1355 63.3551C44.0995 63.1323 42.8439 63.042 41.3632 63.042V65.042ZM46.8462 69.623L45.3342 78.233L47.3041 78.579L48.8161 69.969L46.8462 69.623ZM45.3353 78.2271C44.7443 81.4777 44.5385 82.756 44.1214 84.8L46.081 85.2C46.5038 83.128 46.718 81.8023 47.303 78.5849L45.3353 78.2271ZM45.1012 86H49.3852V84H45.1012V86ZM50.372 85.1618C50.5813 83.8848 50.7697 82.7856 50.9535 81.7146C51.1372 80.6441 51.3163 79.6009 51.506 78.4415L49.5323 78.1185C49.344 79.2691 49.1661 80.3049 48.9823 81.3764C48.7986 82.4474 48.609 83.5532 48.3983 84.8382L50.372 85.1618ZM51.5036 78.4558L52.5536 72.5758L50.5847 72.2242L49.5347 78.1042L51.5036 78.4558ZM52.5537 72.5749C53.1092 69.448 53.9368 67.6569 55.2193 66.5982C56.5059 65.536 58.4542 65.042 61.6912 65.042V63.042C58.3341 63.042 55.7884 63.535 53.946 65.0558C52.0995 66.5801 51.1631 68.968 50.5846 72.2251L52.5537 72.5749ZM61.6912 65.042C63.1084 65.042 64.2048 65.1302 65.0431 65.3104C65.8822 65.4908 66.393 65.7488 66.7093 66.0365C67.2804 66.556 67.545 67.5014 67.1741 69.6238L69.1442 69.9681C69.5293 67.7646 69.4579 65.833 68.055 64.557C67.3843 63.9469 66.4987 63.5776 65.4635 63.3551C64.4275 63.1323 63.1719 63.042 61.6912 63.042V65.042ZM67.1744 69.6222L65.6624 78.1902L67.6319 78.5378L69.1439 69.9698L67.1744 69.6222ZM65.6629 78.1873C65.0723 81.4779 64.8662 82.7575 64.4494 84.8L66.409 85.2C66.8321 83.1265 67.046 81.8021 67.6314 78.5407L65.6629 78.1873ZM65.4292 86H69.7132V84H65.4292V86ZM70.7 85.1618C71.1198 82.6009 71.4525 80.7726 71.833 78.5314L69.8613 78.1966C69.4858 80.4074 69.1465 82.2751 68.7263 84.8382L70.7 85.1618ZM71.8325 78.5345L72.2105 76.3505L70.2398 76.0095L69.8618 78.1935L71.8325 78.5345ZM72.2097 76.355C72.8764 72.605 73.3035 70.4225 73.5969 68.7043L71.6254 68.3677C71.3308 70.0935 70.9179 72.195 70.2406 76.005L72.2097 76.355ZM73.5957 68.7113C74.1558 65.5659 73.9275 62.9922 72.0414 61.2935C70.2529 59.6826 67.2369 59.136 63.0772 59.136V61.136C67.2334 61.136 69.5304 61.7234 70.7029 62.7795C71.7778 63.7477 72.1585 65.3741 71.6266 68.3607L73.5957 68.7113ZM63.0772 59.136C57.676 59.136 54.0027 60.6286 51.6092 63.82L53.2092 65.02C55.0996 62.4994 58.0623 61.136 63.0772 61.136V59.136ZM53.3866 64.2087C52.9773 62.3158 51.8406 60.9957 49.9928 60.1949C48.2233 59.4282 45.8065 59.136 42.7492 59.136V61.136C45.7398 61.136 47.817 61.4318 49.1975 62.0301C50.4997 62.5943 51.169 63.4162 51.4317 64.6313L53.3866 64.2087ZM42.7492 59.136C37.6666 59.136 34.092 60.4449 31.7329 63.2758L33.2694 64.5562C35.1103 62.3471 38.0037 61.136 42.7492 61.136V59.136ZM33.4895 64.0681L33.9935 60.7921L32.0168 60.4879L31.5128 63.7639L33.4895 64.0681ZM33.0052 59.64H29.0992V61.64H33.0052V59.64ZM28.1108 60.4879C27.8603 62.1158 27.6097 63.6199 27.0642 66.725L29.0341 67.071C29.5806 63.9601 29.834 62.4402 30.0875 60.7921L28.1108 60.4879ZM27.0645 66.7236L25.0485 78.1056L27.0178 78.4544L29.0338 67.0724L27.0645 66.7236ZM82.6941 54.256V53.256H81.8515L81.7086 54.0864L82.6941 54.256ZM82.0221 58.162L81.0366 57.9924L80.8354 59.162H82.0221V58.162ZM86.3061 58.162V59.162H87.1488L87.2916 58.3316L86.3061 58.162ZM86.9781 54.256L87.9636 54.4256L88.1648 53.256H86.9781V54.256ZM78.4941 78.406L79.4784 78.5823L79.4789 78.5798L78.4941 78.406ZM77.2761 85L76.2964 84.7996L76.0509 86H77.2761V85ZM81.5601 85V86H82.4136L82.5477 85.1571L81.5601 85ZM82.6941 78.448L83.678 78.6269L83.6796 78.618L82.6941 78.448ZM84.5421 67.738L83.558 67.5603L83.5567 67.568L84.5421 67.738ZM85.8441 60.64L86.8272 60.8229L87.0473 59.64H85.8441V60.64ZM81.5601 60.64V59.64H80.69L80.5697 60.5018L81.5601 60.64ZM80.3841 67.696L81.3689 67.8698L81.3701 67.8626L80.3841 67.696ZM81.7086 54.0864L81.0366 57.9924L83.0076 58.3316L83.6796 54.4256L81.7086 54.0864ZM82.0221 59.162H86.3061V57.162H82.0221V59.162ZM87.2916 58.3316L87.9636 54.4256L85.9926 54.0864L85.3206 57.9924L87.2916 58.3316ZM86.9781 53.256H82.6941V55.256H86.9781V53.256ZM77.5098 78.2297C77.0042 81.0523 76.6712 82.9671 76.2964 84.7996L78.2558 85.2004C78.637 83.3369 78.976 81.3877 79.4784 78.5823L77.5098 78.2297ZM77.2761 86H81.5601V84H77.2761V86ZM82.5477 85.1571C82.84 83.3196 83.1746 81.3957 83.678 78.6269L81.7102 78.2691C81.2057 81.0443 80.8682 82.9844 80.5725 84.8429L82.5477 85.1571ZM83.6796 78.618L85.5275 67.908L83.5567 67.568L81.7087 78.278L83.6796 78.618ZM85.5262 67.9157C86.0718 64.8941 86.4914 62.6279 86.8272 60.8229L84.861 60.4571C84.5248 62.2641 84.1045 64.5339 83.558 67.5603L85.5262 67.9157ZM85.8441 59.64H81.5601V61.64H85.8441V59.64ZM80.5697 60.5018C80.3203 62.289 79.9063 64.5227 79.3981 67.5294L81.3701 67.8626C81.87 64.9053 82.2959 62.603 82.5505 60.7782L80.5697 60.5018ZM79.3993 67.5222L77.5093 78.2322L79.4789 78.5798L81.3689 67.8698L79.3993 67.5222ZM93.2417 69.88L92.2572 69.7045L92.2559 69.7117L92.2548 69.7189L93.2417 69.88ZM92.1077 76.18L91.1238 76.0011L91.1226 76.0082L92.1077 76.18ZM107.396 85L107.489 85.9956L108.257 85.9236L108.382 85.1626L107.396 85ZM108.026 81.178L109.012 81.3406L109.215 80.114L107.973 80.1794L108.026 81.178ZM96.4337 75.592L95.4491 75.4174L95.4484 75.421L96.4337 75.592ZM98.4077 64.462V63.462H97.5694L97.4231 64.2874L98.4077 64.462ZM110.966 64.462V65.462H111.805L111.951 64.6352L110.966 64.462ZM111.638 60.64L112.623 60.8132L112.829 59.64H111.638V60.64ZM99.1217 60.64L98.1342 60.482L97.949 61.64H99.1217V60.64ZM99.9617 55.852L100.941 56.056L101.197 54.8276L99.9421 54.8522L99.9617 55.852ZM95.6777 55.936L95.6581 54.9362L94.8337 54.9524L94.6925 55.7647L95.6777 55.936ZM94.8797 60.64V61.64H95.7143L95.8636 60.8189L94.8797 60.64ZM90.4697 60.64L90.4941 59.6403L89.6338 59.6193L89.4848 60.4668L90.4697 60.64ZM89.7977 64.462L88.8128 64.2888L88.6065 65.462H89.7977V64.462ZM94.2077 64.462L95.1922 64.6375L95.4018 63.462H94.2077V64.462ZM92.2548 69.7189C91.9207 71.7652 91.4628 74.1366 91.1238 76.0011L93.0916 76.3589C93.4246 74.5274 93.8907 72.1108 94.2286 70.0411L92.2548 69.7189ZM91.1226 76.0082C90.4902 79.6335 90.6353 82.4384 92.7668 84.1786C93.7837 85.0089 95.1527 85.5032 96.8234 85.7996C98.5 86.097 100.571 86.21 103.07 86.21V84.21C100.612 84.21 98.6776 84.0973 97.1727 83.8303C95.6619 83.5623 94.6736 83.1536 94.0316 82.6294C92.8451 81.6606 92.4651 79.9505 93.0928 76.3518L91.1226 76.0082ZM103.07 86.21C104.958 86.21 106.124 86.1236 107.489 85.9956L107.302 84.0044C105.979 84.1284 104.878 84.21 103.07 84.21V86.21ZM108.382 85.1626L109.012 81.3406L107.039 81.0154L106.409 84.8374L108.382 85.1626ZM107.973 80.1794C106.389 80.2628 105.399 80.304 103.532 80.304V82.304C105.444 82.304 106.471 82.2612 108.078 82.1766L107.973 80.1794ZM103.532 80.304C101.93 80.304 100.685 80.264 99.7202 80.135C98.7435 80.0044 98.1728 79.796 97.8334 79.5472C97.5428 79.3342 97.3435 79.0351 97.2548 78.4726C97.1588 77.8644 97.2038 77.003 97.419 75.763L95.4484 75.421C95.2226 76.722 95.131 77.8451 95.2792 78.7843C95.4346 79.7693 95.8601 80.5806 96.651 81.1603C97.3931 81.7042 98.3606 81.971 99.4551 82.1173C100.562 82.2653 101.921 82.304 103.532 82.304V80.304ZM97.4183 75.7666L99.3923 64.6366L97.4231 64.2874L95.4491 75.4174L97.4183 75.7666ZM98.4077 65.462H110.966V63.462H98.4077V65.462ZM111.951 64.6352L112.623 60.8132L110.653 60.4668L109.981 64.2888L111.951 64.6352ZM111.638 59.64H99.1217V61.64H111.638V59.64ZM100.109 60.798C100.445 58.7002 100.736 57.0396 100.941 56.056L98.9827 55.648C98.7676 56.6804 98.4706 58.3798 98.1342 60.482L100.109 60.798ZM99.9421 54.8522L95.6581 54.9362L95.6973 56.9358L99.9813 56.8518L99.9421 54.8522ZM94.6925 55.7647C94.3499 57.7345 94.149 59.0687 93.8958 60.4611L95.8636 60.8189C96.1144 59.4393 96.3335 58.0014 96.6629 56.1073L94.6925 55.7647ZM94.8797 59.64C93.4971 59.64 92.2027 59.682 90.4941 59.6403L90.4453 61.6397C92.1806 61.682 93.5743 61.64 94.8797 61.64V59.64ZM89.4848 60.4668L88.8128 64.2888L90.7826 64.6352L91.4546 60.8132L89.4848 60.4668ZM89.7977 65.462H94.2077V63.462H89.7977V65.462ZM93.2232 64.2865L92.2572 69.7045L94.2262 70.0555L95.1922 64.6375L93.2232 64.2865ZM114.26 78.406L115.244 78.5823L115.245 78.5783L114.26 78.406ZM113.042 85L112.062 84.7996L111.816 86H113.042V85ZM117.326 85V86H118.179L118.313 85.1571L117.326 85ZM118.46 78.448L119.444 78.6269L119.445 78.6203L118.46 78.448ZM121.568 60.682L120.584 60.5043L120.583 60.5097L121.568 60.682ZM122.87 53.584L123.849 53.7889L124.101 52.584H122.87V53.584ZM118.586 53.584V52.584H117.735L117.599 53.4233L118.586 53.584ZM117.368 60.64L116.384 60.4599L116.383 60.4677L117.368 60.64ZM113.275 78.2297C112.77 81.0523 112.437 82.9671 112.062 84.7996L114.021 85.2004C114.403 83.3369 114.742 81.3877 115.244 78.5823L113.275 78.2297ZM113.042 86H117.326V84H113.042V86ZM118.313 85.1571C118.606 83.3196 118.94 81.3957 119.444 78.6269L117.476 78.2691C116.971 81.0443 116.634 82.9844 116.338 84.8429L118.313 85.1571ZM119.445 78.6203L122.553 60.8543L120.583 60.5097L117.475 78.2757L119.445 78.6203ZM122.552 60.8597C123.102 57.8144 123.474 55.5769 123.849 53.7889L121.891 53.3791C121.509 55.2031 121.126 57.5016 120.584 60.5043L122.552 60.8597ZM122.87 52.584H118.586V54.584H122.87V52.584ZM117.599 53.4233C117.305 55.2253 116.929 57.4864 116.384 60.4599L118.351 60.8201C118.899 57.8296 119.278 55.5547 119.573 53.7447L117.599 53.4233ZM116.383 60.4677L113.275 78.2337L115.245 78.5783L118.353 60.8123L116.383 60.4677ZM154.795 77.23L155.78 77.407L155.983 76.2772L154.836 76.2308L154.795 77.23ZM150.637 77.062L150.678 76.0628L149.802 76.0274L149.652 76.8912L150.637 77.062ZM129.553 74.458V73.458H128.678L128.562 74.3258L129.553 74.458ZM155.257 74.458V75.458H156.096L156.242 74.6318L155.257 74.458ZM155.677 72.19L154.689 72.0376L154.687 72.0518L154.685 72.066L155.677 72.19ZM125.647 72.19L124.662 72.0162L124.661 72.0256L125.647 72.19ZM125.437 73.45L126.424 73.6151L126.424 73.6144L125.437 73.45ZM151.435 70.846V71.846H152.298L152.424 70.9928L151.435 70.846ZM130.183 70.846L129.21 70.6174L128.921 71.846H130.183V70.846ZM139.339 86.504C145.472 86.504 149.332 85.9082 151.792 84.4105C154.371 82.8409 155.241 80.4022 155.78 77.407L153.811 77.053C153.3 79.8958 152.573 81.5941 150.753 82.702C148.814 83.8818 145.47 84.504 139.339 84.504V86.504ZM154.836 76.2308L150.678 76.0628L150.597 78.0612L154.755 78.2292L154.836 76.2308ZM149.652 76.8912C149.523 77.6338 149.36 78.1804 149.102 78.6137C148.857 79.0243 148.494 79.3872 147.866 79.7002C146.528 80.3667 144.089 80.766 139.465 80.766V82.766C144.081 82.766 146.955 82.3883 148.758 81.4903C149.699 81.021 150.362 80.4048 150.82 79.6381C151.263 78.8941 151.478 78.0652 151.623 77.2328L149.652 76.8912ZM139.465 80.766C137.25 80.766 135.531 80.6639 134.206 80.4359C132.874 80.2069 132.025 79.8641 131.481 79.4455C130.502 78.6927 130.169 77.405 130.545 74.5902L128.562 74.3258C128.181 77.181 128.332 79.5473 130.261 81.031C131.171 81.7306 132.383 82.1518 133.867 82.407C135.357 82.6633 137.207 82.766 139.465 82.766V80.766ZM129.553 75.458H155.257V73.458H129.553V75.458ZM156.242 74.6318C156.349 74.024 156.583 73.0057 156.67 72.314L154.685 72.066C154.604 72.7183 154.417 73.464 154.273 74.2842L156.242 74.6318ZM156.666 72.3424C157.362 67.8269 157.14 64.3342 154.76 62.0684C153.592 60.9552 151.992 60.2309 149.978 59.7797C147.965 59.3288 145.473 59.136 142.447 59.136V61.136C145.407 61.136 147.734 61.3265 149.541 61.7313C151.346 62.1359 152.565 62.7398 153.381 63.5166C154.971 65.0308 155.379 67.5651 154.689 72.0376L156.666 72.3424ZM142.447 59.136C136.447 59.136 132.359 59.816 129.577 61.879C126.752 63.974 125.49 67.326 124.663 72.0162L126.632 72.3638C127.442 67.772 128.596 65.097 130.768 63.4855C132.985 61.842 136.478 61.136 142.447 61.136V59.136ZM124.661 72.0256L124.451 73.2856L126.424 73.6144L126.634 72.3544L124.661 72.0256ZM124.451 73.2849C123.686 77.855 124.01 81.3575 126.56 83.6124C127.801 84.7096 129.48 85.4234 131.573 85.8685C133.666 86.3138 136.241 86.504 139.339 86.504V84.504C136.306 84.504 133.888 84.3162 131.989 83.9123C130.089 83.5082 128.775 82.9016 127.885 82.1141C126.172 80.5995 125.677 78.075 126.424 73.6151L124.451 73.2849ZM142.279 64.79C144.409 64.79 146.038 64.8947 147.275 65.1203C148.518 65.347 149.277 65.6807 149.746 66.0707C150.595 66.7775 150.848 67.9946 150.446 70.6992L152.424 70.9928C152.821 68.3214 152.8 66.0105 151.025 64.5333C150.181 63.8313 149.039 63.409 147.634 63.1527C146.222 62.8953 144.455 62.79 142.279 62.79V64.79ZM151.435 69.846H130.183V71.846H151.435V69.846ZM131.157 71.0746C131.785 68.3985 132.608 66.9626 134.064 66.0991C135.612 65.1812 138.057 64.79 142.279 64.79V62.79C138.059 62.79 135.108 63.1548 133.044 64.3789C130.888 65.6574 129.883 67.7495 129.21 70.6174L131.157 71.0746ZM186.897 78.994L185.913 78.8202L185.912 78.8216L186.897 78.994ZM174.213 70.804L174.119 71.7995L174.12 71.7997L174.213 70.804ZM165.225 66.73L166.216 66.8634L166.217 66.8593L165.225 66.73ZM183.621 67.444L184.602 67.6401L184.604 67.6308L184.606 67.6215L183.621 67.444ZM183.495 68.074L182.515 67.8779L182.268 69.1098L183.524 69.0736L183.495 68.074ZM187.863 67.948L187.892 68.9476L188.71 68.924L188.849 68.1181L187.863 67.948ZM161.193 66.898L160.209 66.7205L160.207 66.7309L161.193 66.898ZM172.827 74.71L172.914 73.7138H172.914L172.827 74.71ZM182.613 78.952L181.626 78.7933L181.626 78.797L182.613 78.952ZM163.251 77.608L162.269 77.4237L162.267 77.4307L162.266 77.4377L163.251 77.608ZM163.377 76.936L164.36 77.1203L164.589 75.8999L163.348 75.9364L163.377 76.936ZM159.093 77.062L159.064 76.0624L158.247 76.0865L158.108 76.8919L159.093 77.062ZM172.533 86.504C175.602 86.504 178.018 86.4121 179.926 86.1888C181.827 85.9664 183.293 85.6066 184.423 85.0296C185.588 84.4345 186.362 83.6253 186.89 82.5929C187.397 81.6022 187.66 80.436 187.882 79.1664L185.912 78.8216C185.694 80.072 185.469 80.9795 185.109 81.682C184.771 82.3427 184.301 82.846 183.513 83.2484C182.69 83.6689 181.494 83.9916 179.694 84.2023C177.901 84.4122 175.576 84.504 172.533 84.504V86.504ZM187.882 79.1678C188.112 77.8643 188.186 76.6306 187.898 75.5105C187.6 74.3485 186.933 73.3879 185.841 72.6173C184.781 71.8689 183.338 71.3105 181.476 70.8686C179.606 70.4246 177.246 70.0833 174.307 69.8083L174.12 71.7997C177.018 72.0707 179.274 72.4014 181.014 72.8145C182.763 73.2297 183.926 73.7133 184.688 74.2512C185.418 74.7668 185.788 75.3366 185.961 76.0082C186.144 76.7217 186.124 77.6247 185.913 78.8202L187.882 79.1678ZM174.308 69.8085C172.106 69.5998 170.455 69.3803 169.221 69.1388C167.974 68.8947 167.218 68.64 166.764 68.3928C166.343 68.1633 166.249 67.9798 166.21 67.8598C166.15 67.6762 166.144 67.4024 166.216 66.8634L164.234 66.5966C164.16 67.1496 164.096 67.826 164.309 68.4798C164.543 69.1972 165.053 69.7382 165.808 70.1492C166.53 70.5425 167.522 70.8443 168.837 71.1016C170.165 71.3614 171.89 71.5882 174.119 71.7995L174.308 69.8085ZM166.217 66.8593C166.263 66.5061 166.356 66.2946 166.498 66.1318C166.649 65.9585 166.938 65.7459 167.541 65.5493C168.789 65.1423 171.014 64.916 174.969 64.916V62.916C171.028 62.916 168.507 63.1307 166.921 63.6477C166.107 63.9131 165.456 64.2833 164.99 64.8187C164.514 65.3647 164.314 65.9879 164.234 66.6007L166.217 66.8593ZM174.969 64.916C176.96 64.916 178.492 64.9762 179.664 65.1013C180.85 65.2279 181.596 65.4144 182.058 65.6273C182.486 65.8247 182.601 66.01 182.652 66.1515C182.723 66.3492 182.744 66.6759 182.637 67.2665L184.606 67.6215C184.73 66.9311 184.787 66.1763 184.533 65.4724C184.259 64.7121 183.686 64.1755 182.896 63.8112C182.139 63.4624 181.138 63.2473 179.877 63.1126C178.602 62.9766 176.99 62.916 174.969 62.916V64.916ZM182.641 67.2479L182.515 67.8779L184.476 68.2701L184.602 67.6401L182.641 67.2479ZM183.524 69.0736L187.892 68.9476L187.835 66.9484L183.467 67.0744L183.524 69.0736ZM188.849 68.1181C189.11 66.607 189.182 65.2285 188.885 64.0245C188.576 62.7737 187.88 61.7667 186.737 61.0167C185.633 60.2921 184.153 59.8332 182.292 59.5473C180.422 59.2598 178.089 59.136 175.221 59.136V61.136C178.045 61.136 180.264 61.2589 181.988 61.524C183.723 61.7906 184.88 62.1901 185.64 62.6888C186.361 63.162 186.755 63.7432 186.943 64.5045C187.143 65.3125 187.121 66.37 186.878 67.7779L188.849 68.1181ZM175.221 59.136C169.639 59.136 166.12 59.5299 163.882 60.7111C161.475 61.9812 160.688 64.0659 160.209 66.7205L162.178 67.0755C162.623 64.606 163.243 63.3098 164.815 62.4799C166.557 61.5611 169.59 61.136 175.221 61.136V59.136ZM160.207 66.7309C159.988 68.024 159.925 69.2339 160.199 70.3234C160.483 71.4536 161.113 72.3861 162.142 73.1273C163.139 73.846 164.486 74.3676 166.197 74.77C167.917 75.1742 170.074 75.4734 172.74 75.7062L172.914 73.7138C170.289 73.4846 168.241 73.1958 166.655 72.823C165.062 72.4484 164.004 72.004 163.311 71.5047C162.649 71.0279 162.303 70.4904 162.138 69.8356C161.963 69.1401 161.979 68.25 162.179 67.0651L160.207 66.7309ZM172.74 75.7062C175.133 75.9151 176.935 76.1351 178.289 76.3804C179.656 76.6282 180.499 76.8908 181.013 77.154C181.497 77.4021 181.605 77.6049 181.648 77.733C181.713 77.9249 181.719 78.2177 181.626 78.7933L183.601 79.1107C183.697 78.5103 183.777 77.7898 183.544 77.0971C183.291 76.3406 182.732 75.7874 181.925 75.374C181.147 74.9757 180.074 74.6713 178.646 74.4125C177.204 74.1512 175.331 73.9249 172.914 73.7138L172.74 75.7062ZM181.626 78.797C181.551 79.2729 181.452 79.5433 181.31 79.7368C181.179 79.9164 180.937 80.1279 180.383 80.3253C179.199 80.7468 176.987 80.976 172.743 80.976V82.976C176.942 82.976 179.496 82.7642 181.054 82.2092C181.87 81.9184 182.492 81.5077 182.923 80.9195C183.344 80.3452 183.508 79.7021 183.601 79.107L181.626 78.797ZM172.743 80.976C170.518 80.976 168.812 80.9156 167.509 80.7775C166.191 80.6377 165.372 80.4257 164.871 80.174C164.421 79.9481 164.266 79.7143 164.19 79.4497C164.092 79.1094 164.095 78.6001 164.237 77.7783L162.266 77.4377C162.114 78.3169 162.038 79.2041 162.267 80.0018C162.518 80.8751 163.095 81.5206 163.974 81.9615C164.8 82.3765 165.906 82.6187 167.298 82.7663C168.706 82.9156 170.495 82.976 172.743 82.976V80.976ZM164.234 77.7923L164.36 77.1203L162.395 76.7517L162.269 77.4237L164.234 77.7923ZM163.348 75.9364L159.064 76.0624L159.123 78.0616L163.407 77.9356L163.348 75.9364ZM158.108 76.8919C157.797 78.6939 157.698 80.2611 157.997 81.5791C158.31 82.9567 159.048 84.0218 160.281 84.7805C161.46 85.5068 163.044 85.9231 165.018 86.1695C167.005 86.4176 169.489 86.504 172.533 86.504V84.504C169.509 84.504 167.126 84.4172 165.265 84.1849C163.391 83.9509 162.145 83.5797 161.329 83.0775C160.566 82.6077 160.145 82.0033 159.948 81.1365C159.738 80.2101 159.781 78.9581 160.079 77.2321L158.108 76.8919ZM219.136 78.994L218.151 78.8202L218.151 78.8216L219.136 78.994ZM206.452 70.804L206.357 71.7995L206.359 71.7997L206.452 70.804ZM197.464 66.73L198.455 66.8634L198.455 66.8593L197.464 66.73ZM215.86 67.444L216.84 67.6401L216.842 67.6308L216.844 67.6215L215.86 67.444ZM215.734 68.074L214.753 67.8779L214.507 69.1098L215.763 69.0736L215.734 68.074ZM220.102 67.948L220.131 68.9476L220.948 68.924L221.087 68.1181L220.102 67.948ZM193.432 66.898L192.448 66.7205L192.446 66.7309L193.432 66.898ZM205.066 74.71L205.153 73.7138H205.153L205.066 74.71ZM214.852 78.952L213.864 78.7933L213.864 78.797L214.852 78.952ZM195.49 77.608L194.507 77.4237L194.506 77.4307L194.504 77.4377L195.49 77.608ZM195.616 76.936L196.599 77.1203L196.827 75.8999L195.586 75.9364L195.616 76.936ZM191.332 77.062L191.302 76.0624L190.485 76.0865L190.346 76.8919L191.332 77.062ZM204.772 86.504C207.84 86.504 210.256 86.4121 212.164 86.1888C214.065 85.9664 215.531 85.6066 216.661 85.0296C217.826 84.4345 218.6 83.6253 219.128 82.5929C219.635 81.6022 219.899 80.436 220.121 79.1664L218.151 78.8216C217.932 80.072 217.707 80.9795 217.348 81.682C217.01 82.3427 216.539 82.846 215.751 83.2484C214.928 83.6689 213.733 83.9916 211.932 84.2023C210.139 84.4122 207.814 84.504 204.772 84.504V86.504ZM220.12 79.1678C220.351 77.8643 220.424 76.6306 220.136 75.5105C219.838 74.3485 219.171 73.3879 218.08 72.6173C217.02 71.8689 215.576 71.3105 213.714 70.8686C211.844 70.4246 209.485 70.0833 206.545 69.8083L206.359 71.7997C209.257 72.0707 211.512 72.4014 213.252 72.8145C215.001 73.2297 216.164 73.7133 216.926 74.2512C217.657 74.7668 218.027 75.3366 218.199 76.0082C218.383 76.7217 218.362 77.6247 218.151 78.8202L220.12 79.1678ZM206.546 69.8085C204.344 69.5998 202.694 69.3803 201.459 69.1388C200.212 68.8947 199.456 68.64 199.003 68.3928C198.581 68.1633 198.488 67.9798 198.449 67.8598C198.389 67.6762 198.382 67.4024 198.455 66.8634L196.473 66.5966C196.398 67.1496 196.334 67.826 196.547 68.4798C196.781 69.1972 197.291 69.7382 198.046 70.1492C198.768 70.5425 199.76 70.8443 201.075 71.1016C202.403 71.3614 204.128 71.5882 206.357 71.7995L206.546 69.8085ZM198.455 66.8593C198.501 66.5061 198.595 66.2946 198.736 66.1318C198.887 65.9585 199.176 65.7459 199.779 65.5493C201.028 65.1423 203.253 64.916 207.208 64.916V62.916C203.267 62.916 200.746 63.1307 199.159 63.6477C198.345 63.9131 197.694 64.2833 197.228 64.8187C196.753 65.3647 196.552 65.9879 196.472 66.6007L198.455 66.8593ZM207.208 64.916C209.199 64.916 210.731 64.9762 211.903 65.1013C213.088 65.2279 213.835 65.4144 214.296 65.6273C214.724 65.8247 214.839 66.01 214.89 66.1515C214.962 66.3492 214.982 66.6759 214.876 67.2665L216.844 67.6215C216.968 66.9311 217.026 66.1763 216.771 65.4724C216.497 64.7121 215.924 64.1755 215.134 63.8112C214.378 63.4624 213.376 63.2473 212.115 63.1126C210.841 62.9766 209.228 62.916 207.208 62.916V64.916ZM214.879 67.2479L214.753 67.8779L216.714 68.2701L216.84 67.6401L214.879 67.2479ZM215.763 69.0736L220.131 68.9476L220.073 66.9484L215.705 67.0744L215.763 69.0736ZM221.087 68.1181C221.348 66.607 221.421 65.2285 221.123 64.0245C220.814 62.7737 220.118 61.7667 218.976 61.0167C217.872 60.2921 216.391 59.8332 214.53 59.5473C212.66 59.2598 210.327 59.136 207.46 59.136V61.136C210.284 61.136 212.502 61.2589 214.227 61.524C215.961 61.7906 217.118 62.1901 217.878 62.6888C218.599 63.162 218.993 63.7432 219.181 64.5045C219.381 65.3125 219.359 66.37 219.116 67.7779L221.087 68.1181ZM207.46 59.136C201.877 59.136 198.359 59.5299 196.12 60.7111C193.713 61.9812 192.926 64.0659 192.448 66.7205L194.416 67.0755C194.861 64.606 195.481 63.3098 197.054 62.4799C198.795 61.5611 201.828 61.136 207.46 61.136V59.136ZM192.446 66.7309C192.227 68.024 192.163 69.2339 192.437 70.3234C192.721 71.4536 193.351 72.3861 194.38 73.1273C195.378 73.846 196.724 74.3676 198.436 74.77C200.155 75.1742 202.312 75.4734 204.979 75.7062L205.153 73.7138C202.528 73.4846 200.479 73.1958 198.894 72.823C197.3 72.4484 196.242 72.004 195.549 71.5047C194.888 71.0279 194.541 70.4904 194.377 69.8356C194.202 69.1401 194.217 68.25 194.418 67.0651L192.446 66.7309ZM204.979 75.7062C207.371 75.9151 209.173 76.1351 210.527 76.3804C211.894 76.6282 212.737 76.8908 213.251 77.154C213.736 77.4021 213.844 77.6049 213.887 77.733C213.951 77.9249 213.957 78.2177 213.864 78.7933L215.839 79.1107C215.936 78.5103 216.015 77.7898 215.783 77.0971C215.529 76.3406 214.97 75.7874 214.163 75.374C213.385 74.9757 212.312 74.6713 210.884 74.4125C209.442 74.1512 207.57 73.9249 205.153 73.7138L204.979 75.7062ZM213.864 78.797C213.789 79.2729 213.69 79.5433 213.549 79.7368C213.417 79.9164 213.175 80.1279 212.621 80.3253C211.438 80.7468 209.225 80.976 204.982 80.976V82.976C209.181 82.976 211.735 82.7642 213.292 82.2092C214.108 81.9184 214.73 81.5077 215.161 80.9195C215.582 80.3452 215.746 79.7021 215.84 79.107L213.864 78.797ZM204.982 80.976C202.757 80.976 201.05 80.9156 199.747 80.7775C198.429 80.6377 197.611 80.4257 197.109 80.174C196.659 79.9481 196.504 79.7143 196.428 79.4497C196.33 79.1094 196.333 78.6001 196.475 77.7783L194.504 77.4377C194.352 78.3169 194.277 79.2041 194.506 80.0018C194.756 80.8751 195.334 81.5206 196.212 81.9615C197.039 82.3765 198.144 82.6187 199.536 82.7663C200.944 82.9156 202.734 82.976 204.982 82.976V80.976ZM196.473 77.7923L196.599 77.1203L194.633 76.7517L194.507 77.4237L196.473 77.7923ZM195.586 75.9364L191.302 76.0624L191.361 78.0616L195.645 77.9356L195.586 75.9364ZM190.346 76.8919C190.035 78.6939 189.937 80.2611 190.236 81.5791C190.548 82.9567 191.287 84.0218 192.519 84.7805C193.698 85.5068 195.282 85.9231 197.256 86.1695C199.243 86.4176 201.727 86.504 204.772 86.504V84.504C201.748 84.504 199.364 84.4172 197.504 84.1849C195.629 83.9509 194.383 83.5797 193.568 83.0775C192.805 82.6077 192.383 82.0033 192.186 81.1365C191.976 80.2101 192.019 78.9581 192.317 77.2321L190.346 76.8919ZM269.563 75.55L270.547 75.7274L270.753 74.5856L269.593 74.5505L269.563 75.55ZM265.405 75.424L265.435 74.4245L264.568 74.3982L264.42 75.2535L265.405 75.424ZM244.279 73.03L243.298 72.8339L243.296 72.8467L243.294 72.8597L244.279 73.03ZM244.363 72.61L245.344 72.8061L245.346 72.7962L245.347 72.7862L244.363 72.61ZM266.245 70.216L265.26 70.0422L265.047 71.2524L266.275 71.2155L266.245 70.216ZM270.445 70.09L270.475 71.0895L271.289 71.0651L271.43 70.2625L270.445 70.09ZM240.163 72.19L239.178 72.0162L239.177 72.0256L240.163 72.19ZM239.953 73.45L240.938 73.6238L240.939 73.6144L239.953 73.45ZM253.561 86.504C259.562 86.504 263.511 85.8328 266.123 84.064C268.81 82.2445 269.883 79.4106 270.547 75.7274L268.579 75.3726C267.941 78.9134 266.998 81.0565 265.002 82.408C262.931 83.8102 259.53 84.504 253.561 84.504V86.504ZM269.593 74.5505L265.435 74.4245L265.375 76.4235L269.533 76.5495L269.593 74.5505ZM264.42 75.2535C264.066 77.298 263.447 78.4963 262.081 79.2824C260.598 80.1366 258.085 80.598 253.645 80.598V82.598C258.109 82.598 261.098 82.1564 263.079 81.0156C265.179 79.8067 265.988 77.918 266.39 75.5945L264.42 75.2535ZM253.645 80.598C251.398 80.598 249.68 80.4877 248.38 80.2345C247.076 79.9806 246.291 79.6013 245.809 79.1418C245.35 78.7041 245.063 78.0944 244.965 77.138C244.865 76.1549 244.974 74.8777 245.264 73.2003L243.294 72.8597C242.995 74.5843 242.847 76.0791 242.976 77.3404C243.107 78.6283 243.533 79.7354 244.429 80.5892C245.301 81.4212 246.511 81.9082 247.998 82.1976C249.488 82.4878 251.356 82.598 253.645 82.598V80.598ZM245.26 73.2261L245.344 72.8061L243.382 72.4139L243.298 72.8339L245.26 73.2261ZM245.347 72.7862C245.951 69.4139 246.729 67.6331 248.193 66.5887C249.718 65.5018 252.208 65.042 256.753 65.042V63.042C252.226 63.042 249.13 63.4642 247.032 64.9603C244.874 66.4989 243.993 69.0021 243.379 72.4338L245.347 72.7862ZM256.753 65.042C258.951 65.042 260.639 65.1592 261.923 65.3887C263.215 65.6195 264.023 65.9512 264.524 66.3247C265.386 66.9658 265.627 67.9615 265.26 70.0422L267.23 70.3898C267.619 68.1865 267.566 66.0952 265.718 64.7203C264.866 64.0858 263.715 63.6773 262.275 63.4198C260.826 63.161 259.007 63.042 256.753 63.042V65.042ZM266.275 71.2155L270.475 71.0895L270.415 69.0904L266.215 69.2164L266.275 71.2155ZM271.43 70.2625C272.095 66.4629 271.786 63.4483 269.26 61.5289C268.058 60.6164 266.444 60.0288 264.428 59.6621C262.407 59.2943 259.909 59.136 256.879 59.136V61.136C259.855 61.136 262.218 61.2927 264.07 61.6297C265.928 61.9678 267.198 62.4748 268.05 63.1216C269.628 64.3207 270.096 66.2831 269.46 69.9175L271.43 70.2625ZM256.879 59.136C250.959 59.136 246.895 59.8168 244.114 61.879C241.291 63.9724 240.007 67.3209 239.178 72.0162L241.148 72.3638C241.957 67.7771 243.13 65.0986 245.305 63.4855C247.522 61.8412 250.997 61.136 256.879 61.136V59.136ZM239.177 72.0256L238.967 73.2856L240.939 73.6144L241.149 72.3544L239.177 72.0256ZM238.968 73.2762C238.138 77.9818 238.514 81.4897 241.077 83.7132C242.322 84.7924 243.991 85.4807 246.04 85.9051C248.091 86.3298 250.591 86.504 253.561 86.504V84.504C250.651 84.504 248.305 84.3317 246.446 83.9466C244.585 83.5612 243.28 82.9764 242.388 82.2023C240.678 80.7193 240.13 78.2001 240.938 73.6238L238.968 73.2762ZM274.916 78.364L275.9 78.5393L275.901 78.5367L274.916 78.364ZM273.698 85L272.718 84.8L272.473 86H273.698V85ZM277.982 85V86H278.835L278.969 85.158L277.982 85ZM279.116 78.28L280.1 78.4563L280.1 78.4558L279.116 78.28ZM280.166 72.4L281.15 72.5758L281.151 72.5749L280.166 72.4ZM300.62 71.77L301.604 71.9456L301.605 71.9404L300.62 71.77ZM299.444 78.364L300.428 78.5441L300.428 78.5396L299.444 78.364ZM298.226 85L297.245 84.8076L297.011 86H298.226V85ZM302.51 85V86H303.364L303.498 85.156L302.51 85ZM303.644 78.448L304.626 78.6368L304.628 78.6271L304.63 78.6174L303.644 78.448ZM304.106 75.76L305.092 75.9294L305.092 75.9244L304.106 75.76ZM305.072 70.51L304.087 70.3365L304.086 70.3417L305.072 70.51ZM281.594 63.622L280.612 63.4337L279.988 66.6847L282.308 64.3226L281.594 63.622ZM283.568 53.584L284.553 53.7578L284.76 52.584H283.568V53.584ZM279.242 53.584V52.584H278.392L278.255 53.4233L279.242 53.584ZM278.024 60.64L277.04 60.4623L277.039 60.4673L278.024 60.64ZM273.931 78.1887C273.384 81.2655 273.135 82.7582 272.718 84.8L274.678 85.2C275.101 83.1258 275.356 81.5945 275.9 78.5393L273.931 78.1887ZM273.698 86H277.982V84H273.698V86ZM278.969 85.158C279.305 83.0612 279.598 81.2619 280.1 78.4563L278.132 78.1037C277.626 80.9261 277.331 82.7388 276.995 84.842L278.969 85.158ZM280.1 78.4558L281.15 72.5758L279.182 72.2242L278.132 78.1042L280.1 78.4558ZM281.151 72.5749C281.707 69.442 282.511 67.6846 283.936 66.6313C285.405 65.5466 287.748 65.042 291.842 65.042V63.042C287.704 63.042 284.776 63.5244 282.748 65.0227C280.677 66.5524 279.759 68.974 279.181 72.2251L281.151 72.5749ZM291.842 65.042C293.942 65.042 295.534 65.1749 296.73 65.4402C297.926 65.7057 298.646 66.0867 299.088 66.5228C299.934 67.3584 300.122 68.7829 299.635 71.5996L301.605 71.9404C302.084 69.1711 302.146 66.7316 300.493 65.0997C299.685 64.3021 298.563 63.7984 297.163 63.4877C295.762 63.1769 294.005 63.042 291.842 63.042V65.042ZM299.635 71.5944L298.46 78.1884L300.428 78.5396L301.604 71.9456L299.635 71.5944ZM298.46 78.1839C297.911 81.1816 297.663 82.6731 297.245 84.8076L299.207 85.1924C299.629 83.0429 299.884 81.5104 300.428 78.5441L298.46 78.1839ZM298.226 86H302.51V84H298.226V86ZM303.498 85.156C303.875 82.7693 304.209 80.8068 304.626 78.6368L302.662 78.2592C302.239 80.4572 301.901 82.4427 301.522 84.844L303.498 85.156ZM304.63 78.6174L305.092 75.9294L303.12 75.5906L302.658 78.2786L304.63 78.6174ZM305.092 75.9244C305.3 74.6765 305.466 73.8041 305.618 73.0268C305.769 72.2496 305.908 71.5535 306.058 70.6783L304.086 70.3417C303.942 71.1885 303.808 71.8574 303.655 72.6447C303.501 73.4319 303.332 74.3235 303.12 75.5956L305.092 75.9244ZM306.057 70.6835C306.716 66.9398 306.546 63.8614 304.327 61.8157C303.248 60.8209 301.771 60.1594 299.91 59.7417C298.05 59.324 295.742 59.136 292.934 59.136V61.136C295.67 61.136 297.814 61.3208 299.472 61.6931C301.131 62.0656 302.239 62.6116 302.971 63.2863C304.375 64.5796 304.73 66.6882 304.087 70.3365L306.057 70.6835ZM292.934 59.136C287.272 59.136 283.42 60.3344 280.88 62.9214L282.308 64.3226C284.304 62.2896 287.508 61.136 292.934 61.136V59.136ZM282.576 63.8103C283.158 60.7745 284.426 54.4778 284.553 53.7578L282.583 53.4102C282.458 54.1182 281.206 60.3375 280.612 63.4337L282.576 63.8103ZM283.568 52.584H279.242V54.584H283.568V52.584ZM278.255 53.4233C277.962 55.2233 277.585 57.4436 277.04 60.4623L279.008 60.8177C279.555 57.7884 279.934 55.5567 280.229 53.7447L278.255 53.4233ZM277.039 60.4673L273.931 78.1913L275.901 78.5367L279.009 60.8127L277.039 60.4673ZM334.987 82.144L335.974 82.3037L336.444 79.3966L334.301 81.4162L334.987 82.144ZM334.525 85L333.538 84.8403L333.35 86H334.525V85ZM338.305 85V86H339.154L339.292 85.1624L338.305 85ZM339.691 77.02L340.674 77.2003L340.676 77.1924L340.677 77.1844L339.691 77.02ZM341.203 68.578L342.187 68.7525L342.188 68.7506L341.203 68.578ZM313.021 67.612L312.033 67.4569L311.857 68.5779L312.991 68.6116L313.021 67.612ZM317.263 67.738L317.233 68.7376L318.112 68.7637L318.25 67.8954L317.263 67.738ZM336.835 69.376L337.819 69.5561L337.821 69.5436L336.835 69.376ZM336.289 72.358L335.61 73.0921L336.945 74.3271L337.272 72.5381L336.289 72.358ZM310.249 77.776L309.265 77.5984L309.263 77.6091L310.249 77.776ZM314.575 77.776L313.59 77.603L313.588 77.6116L314.575 77.776ZM335.659 76.516L336.641 76.706L336.642 76.6985L336.643 76.691L335.659 76.516ZM335.407 77.818L334.425 77.628L334.423 77.6395L334.421 77.6511L335.407 77.818ZM322.345 86.504C328.941 86.504 333.209 85.1933 335.673 82.8718L334.301 81.4162C332.397 83.2107 328.768 84.504 322.345 84.504V86.504ZM334 81.9843L333.538 84.8403L335.512 85.1597L335.974 82.3037L334 81.9843ZM334.525 86H338.305V84H334.525V86ZM339.292 85.1624C339.836 81.8508 340.213 79.7148 340.674 77.2003L338.707 76.8397C338.244 79.3652 337.865 81.5132 337.318 84.8376L339.292 85.1624ZM340.677 77.1844C341.265 73.6574 341.594 72.1004 342.187 68.7525L340.218 68.4035C339.635 71.6916 339.293 73.3266 338.704 76.8556L340.677 77.1844ZM342.188 68.7506C342.449 67.258 342.531 65.8559 342.237 64.6027C341.933 63.3095 341.239 62.224 340.061 61.3848C338.915 60.5685 337.356 60.0161 335.353 59.6612C333.343 59.305 330.816 59.136 327.679 59.136V61.136C330.758 61.136 333.155 61.303 335.004 61.6306C336.86 61.9595 338.094 62.4388 338.901 63.0137C339.675 63.5657 340.095 64.2311 340.29 65.0602C340.494 65.9293 340.46 67.021 340.218 68.4054L342.188 68.7506ZM327.679 59.136C322.013 59.136 318.313 59.7259 315.915 61.1007C313.395 62.5452 312.456 64.7601 312.033 67.4569L314.009 67.7671C314.383 65.3819 315.125 63.8588 316.91 62.8358C318.816 61.7431 322.047 61.136 327.679 61.136V59.136ZM312.991 68.6116L317.233 68.7376L317.292 66.7384L313.05 66.6124L312.991 68.6116ZM318.25 67.8954C318.359 67.2108 318.494 66.7657 318.697 66.4389C318.882 66.142 319.165 65.8738 319.717 65.6398C320.923 65.128 323.153 64.874 327.469 64.874V62.874C323.216 62.874 320.575 63.103 318.935 63.7987C318.064 64.1684 317.432 64.6852 316.998 65.3844C316.582 66.0538 316.397 66.8162 316.275 67.5806L318.25 67.8954ZM327.469 64.874C329.668 64.874 331.352 64.9553 332.634 65.1335C333.929 65.3137 334.721 65.5817 335.202 65.8912C335.633 66.1681 335.843 66.4935 335.941 66.9534C336.052 67.4737 336.022 68.1878 335.849 69.2084L337.821 69.5436C338.004 68.4642 338.09 67.4406 337.897 66.5355C337.69 65.57 337.176 64.7824 336.284 64.2088C335.442 63.6678 334.313 63.3478 332.909 63.1526C331.492 62.9555 329.701 62.874 327.469 62.874V64.874ZM335.851 69.1959L335.305 72.1779L337.272 72.5381L337.818 69.5561L335.851 69.1959ZM336.968 71.6239C335.954 70.6861 334.489 70.0095 332.568 69.5623C330.64 69.1136 328.185 68.88 325.117 68.88V70.88C328.097 70.88 330.388 71.1084 332.114 71.5102C333.847 71.9135 334.944 72.4759 335.61 73.0921L336.968 71.6239ZM325.117 68.88C319.577 68.88 315.876 69.4488 313.419 70.8672C310.851 72.3494 309.795 74.6578 309.265 77.5984L311.233 77.9536C311.71 75.3082 312.566 73.6686 314.418 72.5993C316.382 71.4662 319.611 70.88 325.117 70.88V68.88ZM309.263 77.6091C309.024 79.0209 308.942 80.3366 309.202 81.5039C309.471 82.7139 310.098 83.7258 311.178 84.5002C312.223 85.2495 313.641 85.7395 315.442 86.0498C317.252 86.3615 319.525 86.504 322.345 86.504V84.504C319.578 84.504 317.432 84.363 315.781 84.0788C314.123 83.7932 313.041 83.375 312.343 82.8748C311.681 82.3997 311.321 81.8209 311.154 81.07C310.978 80.2764 311.012 79.2611 311.235 77.9429L309.263 77.6091ZM324.193 80.85C322.066 80.85 320.403 80.7846 319.112 80.6445C317.81 80.5032 316.953 80.2921 316.399 80.038C315.874 79.7972 315.681 79.5478 315.589 79.3181C315.48 79.0451 315.447 78.628 315.561 77.9404L313.588 77.6116C313.451 78.436 313.423 79.2842 313.731 80.0585C314.057 80.8762 314.693 81.4563 315.565 81.856C316.407 82.2424 317.514 82.4828 318.897 82.6329C320.291 82.7842 322.036 82.85 324.193 82.85V80.85ZM315.56 77.949C315.688 77.2187 315.849 76.7039 316.098 76.3068C316.332 75.9334 316.684 75.6013 317.31 75.3152C318.652 74.7029 321.09 74.366 325.705 74.366V72.366C321.121 72.366 318.267 72.6801 316.48 73.4958C315.543 73.9237 314.87 74.4999 314.403 75.2447C313.951 75.9659 313.735 76.7793 313.59 77.603L315.56 77.949ZM325.705 74.366C330.228 74.366 332.623 74.689 333.828 75.1629C334.406 75.3902 334.581 75.6034 334.64 75.7098C334.697 75.8133 334.738 75.9836 334.674 76.341L336.643 76.691C336.748 76.1034 336.757 75.4075 336.391 74.7431C336.025 74.0818 335.384 73.6256 334.56 73.3016C332.961 72.673 330.212 72.366 325.705 72.366V74.366ZM334.677 76.326L334.425 77.628L336.389 78.008L336.641 76.706L334.677 76.326ZM334.421 77.6511C334.319 78.2501 334.164 78.677 333.92 79.012C333.683 79.3385 333.307 79.6549 332.632 79.9333C331.217 80.5166 328.711 80.85 324.193 80.85V82.85C328.705 82.85 331.575 82.5324 333.394 81.7822C334.336 81.3939 335.041 80.8729 335.539 80.1874C336.03 79.5105 336.263 78.7509 336.393 77.9849L334.421 77.6511ZM346.98 78.28L347.965 78.4545V78.4544L346.98 78.28ZM345.762 85L344.78 84.8129L344.554 86H345.762V85ZM350.046 85V86H350.914L351.036 85.1414L350.046 85ZM351.18 78.28L350.196 78.1042L350.195 78.1097L351.18 78.28ZM352.23 72.4L353.215 72.5758L353.215 72.5749L352.23 72.4ZM372.684 71.77L373.669 71.9467L373.67 71.9404L372.684 71.77ZM371.508 78.322L370.524 78.1453L370.524 78.1482L371.508 78.322ZM370.29 85L369.31 84.8039L369.071 86H370.29V85ZM374.574 85V86H375.437L375.564 85.1473L374.574 85ZM375.708 78.322L376.693 78.4997L376.693 78.4995L375.708 78.322ZM376.17 75.76L377.155 75.9375L377.157 75.9244L376.17 75.76ZM377.136 70.51L376.152 70.3365L376.151 70.3417L377.136 70.51ZM353.406 64.21L352.418 64.0588L351.908 67.3909L354.153 64.8758L353.406 64.21ZM353.952 60.64L354.941 60.7912L355.117 59.64H353.952V60.64ZM350.046 60.64V59.64H349.189L349.058 60.4879L350.046 60.64ZM348.996 66.898L349.981 67.0724L349.981 67.071L348.996 66.898ZM345.996 78.1055C345.408 81.4238 345.115 83.056 344.78 84.8129L346.745 85.1871C347.082 83.416 347.377 81.7722 347.965 78.4545L345.996 78.1055ZM345.762 86H350.046V84H345.762V86ZM351.036 85.1414C351.286 83.3967 351.575 81.8709 352.166 78.4503L350.195 78.1097C349.61 81.4931 349.311 83.0753 349.056 84.8586L351.036 85.1414ZM352.165 78.4558L353.215 72.5758L351.246 72.2242L350.196 78.1042L352.165 78.4558ZM353.215 72.5749C353.772 69.442 354.575 67.6846 356.001 66.6313C357.469 65.5466 359.813 65.042 363.906 65.042V63.042C359.768 63.042 356.841 63.5244 354.812 65.0227C352.742 66.5524 351.823 68.974 351.246 72.2251L353.215 72.5749ZM363.906 65.042C366.006 65.042 367.599 65.1749 368.794 65.4402C369.99 65.7057 370.711 66.0867 371.152 66.5228C371.999 67.3584 372.186 68.7829 371.699 71.5996L373.67 71.9404C374.149 69.1711 374.21 66.7316 372.558 65.0997C371.75 64.3021 370.627 63.7984 369.227 63.4877C367.827 63.1769 366.069 63.042 363.906 63.042V65.042ZM371.7 71.5933L370.524 78.1453L372.493 78.4987L373.669 71.9467L371.7 71.5933ZM370.524 78.1482C369.893 81.723 369.685 82.9277 369.31 84.8039L371.271 85.1961C371.652 83.2923 371.864 82.061 372.493 78.4958L370.524 78.1482ZM370.29 86H374.574V84H370.29V86ZM375.564 85.1473C375.855 83.1898 376.147 81.523 376.693 78.4997L374.724 78.1443C374.178 81.169 373.882 82.8622 373.585 84.8527L375.564 85.1473ZM376.693 78.4995L377.155 75.9375L375.186 75.5825L374.724 78.1445L376.693 78.4995ZM377.157 75.9244C377.365 74.6765 377.531 73.8041 377.682 73.0268C377.834 72.2496 377.973 71.5535 378.122 70.6783L376.151 70.3417C376.006 71.1885 375.872 71.8574 375.719 72.6447C375.566 73.4319 375.396 74.3235 375.184 75.5956L377.157 75.9244ZM378.121 70.6835C378.781 66.9398 378.611 63.8614 376.391 61.8157C375.312 60.8209 373.835 60.1594 371.975 59.7417C370.114 59.324 367.807 59.136 364.998 59.136V61.136C367.734 61.136 369.878 61.3208 371.537 61.6931C373.196 62.0656 374.304 62.6116 375.036 63.2863C376.439 64.5796 376.794 66.6882 376.152 70.3365L378.121 70.6835ZM364.998 59.136C359.382 59.136 355.357 60.5218 352.66 63.5442L354.153 64.8758C356.328 62.4382 359.695 61.136 364.998 61.136V59.136ZM354.395 64.3612L354.941 60.7912L352.964 60.4888L352.418 64.0588L354.395 64.3612ZM353.952 59.64H350.046V61.64H353.952V59.64ZM349.058 60.4879C348.808 62.1158 348.557 63.6199 348.012 66.725L349.981 67.071C350.528 63.9601 350.781 62.4402 351.035 60.7921L349.058 60.4879ZM348.012 66.7236L345.996 78.1056L347.965 78.4544L349.981 67.0724L348.012 66.7236ZM412.133 75.55L413.117 75.7274L413.323 74.5856L412.164 74.5505L412.133 75.55ZM407.975 75.424L408.006 74.4245L407.138 74.3982L406.99 75.2535L407.975 75.424ZM386.849 73.03L385.869 72.8339L385.866 72.8467L385.864 72.8597L386.849 73.03ZM386.933 72.61L387.914 72.8061L387.916 72.7962L387.918 72.7862L386.933 72.61ZM408.815 70.216L407.83 70.0422L407.617 71.2524L408.845 71.2155L408.815 70.216ZM413.015 70.09L413.045 71.0895L413.86 71.0651L414 70.2625L413.015 70.09ZM382.733 72.19L381.748 72.0162L381.747 72.0256L382.733 72.19ZM382.523 73.45L383.508 73.6238L383.51 73.6144L382.523 73.45ZM396.131 86.504C402.133 86.504 406.081 85.8328 408.693 84.064C411.38 82.2445 412.454 79.4106 413.117 75.7274L411.149 75.3726C410.511 78.9134 409.568 81.0565 407.572 82.408C405.501 83.8102 402.1 84.504 396.131 84.504V86.504ZM412.164 74.5505L408.006 74.4245L407.945 76.4235L412.103 76.5495L412.164 74.5505ZM406.99 75.2535C406.636 77.298 406.017 78.4963 404.652 79.2824C403.168 80.1366 400.656 80.598 396.215 80.598V82.598C400.679 82.598 403.668 82.1564 405.65 81.0156C407.749 79.8067 408.558 77.918 408.961 75.5945L406.99 75.2535ZM396.215 80.598C393.968 80.598 392.251 80.4877 390.95 80.2345C389.646 79.9806 388.861 79.6013 388.379 79.1418C387.92 78.7041 387.633 78.0944 387.536 77.138C387.436 76.1549 387.545 74.8777 387.835 73.2003L385.864 72.8597C385.566 74.5843 385.418 76.0791 385.546 77.3404C385.677 78.6283 386.104 79.7354 386.999 80.5892C387.872 81.4212 389.082 81.9082 390.568 82.1976C392.058 82.4878 393.927 82.598 396.215 82.598V80.598ZM387.83 73.2261L387.914 72.8061L385.953 72.4139L385.869 72.8339L387.83 73.2261ZM387.918 72.7862C388.521 69.4139 389.299 67.6331 390.764 66.5887C392.288 65.5018 394.778 65.042 399.323 65.042V63.042C394.797 63.042 391.701 63.4642 389.602 64.9603C387.445 66.4989 386.563 69.0021 385.949 72.4338L387.918 72.7862ZM399.323 65.042C401.521 65.042 403.209 65.1592 404.493 65.3887C405.785 65.6195 406.593 65.9512 407.095 66.3247C407.956 66.9658 408.198 67.9615 407.83 70.0422L409.8 70.3898C410.189 68.1865 410.136 66.0952 408.289 64.7203C407.436 64.0858 406.286 63.6773 404.845 63.4198C403.396 63.161 401.577 63.042 399.323 63.042V65.042ZM408.845 71.2155L413.045 71.0895L412.985 69.0904L408.785 69.2164L408.845 71.2155ZM414 70.2625C414.666 66.4629 414.357 63.4483 411.83 61.5289C410.629 60.6164 409.014 60.0288 406.999 59.6621C404.978 59.2943 402.479 59.136 399.449 59.136V61.136C402.425 61.136 404.788 61.2927 406.641 61.6297C408.499 61.9678 409.769 62.4748 410.62 63.1216C412.199 64.3207 412.667 66.2831 412.03 69.9175L414 70.2625ZM399.449 59.136C393.53 59.136 389.465 59.8168 386.684 61.879C383.861 63.9724 382.577 67.3209 381.748 72.0162L383.718 72.3638C384.527 67.7771 385.7 65.0986 387.875 63.4855C390.093 61.8412 393.567 61.136 399.449 61.136V59.136ZM381.747 72.0256L381.537 73.2856L383.51 73.6144L383.72 72.3544L381.747 72.0256ZM381.538 73.2762C380.708 77.9818 381.084 81.4897 383.648 83.7132C384.892 84.7924 386.561 85.4807 388.611 85.9051C390.661 86.3298 393.161 86.504 396.131 86.504V84.504C393.222 84.504 390.876 84.3317 389.016 83.9466C387.155 83.5612 385.851 82.9764 384.958 82.2023C383.248 80.7193 382.7 78.2001 383.508 73.6238L381.538 73.2762ZM446.088 77.23L447.072 77.407L447.276 76.2772L446.129 76.2308L446.088 77.23ZM441.93 77.062L441.971 76.0628L441.095 76.0274L440.945 76.8912L441.93 77.062ZM420.846 74.458V73.458H419.971L419.855 74.3258L420.846 74.458ZM446.55 74.458V75.458H447.389L447.535 74.6318L446.55 74.458ZM446.97 72.19L445.982 72.0376L445.98 72.0518L445.978 72.066L446.97 72.19ZM416.94 72.19L415.955 72.0162L415.954 72.0256L416.94 72.19ZM416.73 73.45L417.717 73.6151L417.717 73.6144L416.73 73.45ZM442.728 70.846V71.846H443.591L443.717 70.9928L442.728 70.846ZM421.476 70.846L420.503 70.6174L420.214 71.846H421.476V70.846ZM430.632 86.504C436.765 86.504 440.624 85.9082 443.085 84.4105C445.664 82.8409 446.534 80.4022 447.072 77.407L445.104 77.053C444.593 79.8958 443.866 81.5941 442.046 82.702C440.107 83.8818 436.763 84.504 430.632 84.504V86.504ZM446.129 76.2308L441.971 76.0628L441.89 78.0612L446.048 78.2292L446.129 76.2308ZM440.945 76.8912C440.816 77.6338 440.653 78.1804 440.395 78.6137C440.15 79.0243 439.787 79.3872 439.159 79.7002C437.821 80.3667 435.382 80.766 430.758 80.766V82.766C435.374 82.766 438.248 82.3883 440.051 81.4903C440.992 81.021 441.655 80.4048 442.113 79.6381C442.556 78.8941 442.771 78.0652 442.916 77.2328L440.945 76.8912ZM430.758 80.766C428.543 80.766 426.824 80.6639 425.499 80.4359C424.167 80.2069 423.318 79.8641 422.774 79.4455C421.795 78.6927 421.462 77.405 421.838 74.5902L419.855 74.3258C419.474 77.181 419.625 79.5473 421.554 81.031C422.464 81.7306 423.676 82.1518 425.16 82.407C426.65 82.6633 428.5 82.766 430.758 82.766V80.766ZM420.846 75.458H446.55V73.458H420.846V75.458ZM447.535 74.6318C447.642 74.024 447.876 73.0057 447.963 72.314L445.978 72.066C445.896 72.7183 445.71 73.464 445.565 74.2842L447.535 74.6318ZM447.959 72.3424C448.655 67.8269 448.433 64.3342 446.053 62.0684C444.885 60.9552 443.285 60.2309 441.271 59.7797C439.258 59.3288 436.766 59.136 433.74 59.136V61.136C436.7 61.136 439.027 61.3265 440.834 61.7313C442.639 62.1359 443.858 62.7398 444.674 63.5166C446.264 65.0308 446.672 67.5651 445.982 72.0376L447.959 72.3424ZM433.74 59.136C427.74 59.136 423.652 59.816 420.87 61.879C418.045 63.974 416.783 67.326 415.956 72.0162L417.925 72.3638C418.735 67.772 419.888 65.097 422.061 63.4855C424.278 61.842 427.771 61.136 433.74 61.136V59.136ZM415.954 72.0256L415.744 73.2856L417.717 73.6144L417.927 72.3544L415.954 72.0256ZM415.744 73.2849C414.979 77.855 415.303 81.3575 417.853 83.6124C419.094 84.7096 420.773 85.4234 422.866 85.8685C424.959 86.3138 427.534 86.504 430.632 86.504V84.504C427.598 84.504 425.181 84.3162 423.282 83.9123C421.382 83.5082 420.068 82.9016 419.178 82.1141C417.465 80.5995 416.97 78.075 417.717 73.6151L415.744 73.2849ZM433.572 64.79C435.702 64.79 437.331 64.8947 438.568 65.1203C439.811 65.347 440.57 65.6807 441.039 66.0707C441.888 66.7775 442.141 67.9946 441.739 70.6992L443.717 70.9928C444.114 68.3214 444.093 66.0105 442.318 64.5333C441.474 63.8313 440.332 63.409 438.927 63.1527C437.515 62.8953 435.748 62.79 433.572 62.79V64.79ZM442.728 69.846H421.476V71.846H442.728V69.846ZM422.45 71.0746C423.078 68.3985 423.901 66.9626 425.357 66.0991C426.905 65.1812 429.35 64.79 433.572 64.79V62.79C429.352 62.79 426.401 63.1548 424.337 64.3789C422.181 65.6574 421.176 67.7495 420.503 70.6174L422.45 71.0746Z" fill="#1E2025"/>
</svg>
