<svg width="238" height="30" viewBox="0 0 238 30" fill="none" xmlns="http://www.w3.org/2000/svg">
<path d="M42.45 10.2H48.264V21H49.884V10.2H55.392L55.842 8.832H42.45V10.2ZM63.6059 12.468C64.6499 12.468 65.7659 12.612 66.8099 12.972L67.2419 11.658C65.9819 11.244 64.8479 11.1 63.6059 11.1H63.1559C61.2659 11.1 59.4119 11.928 58.3859 13.152V11.19H56.7839V21H58.3859V14.97C59.4299 13.512 61.1399 12.468 63.1559 12.468H63.6059ZM79.6605 21.09V14.97C79.6605 12.594 78.4005 11.064 74.1885 11.1C72.0465 11.118 70.3545 11.334 68.6805 11.748L69.1125 13.116C70.6965 12.72 72.4965 12.468 74.2965 12.468C77.1765 12.468 78.0585 13.08 78.0585 14.988V15.528C76.8345 15.114 74.8545 14.88 73.6125 14.88H73.0005C69.1485 14.88 68.1405 16.104 68.1405 17.85V18.138C68.1405 19.848 69.6345 21.09 73.0185 21.09H73.6125C75.1965 21.09 76.9605 20.676 78.0585 19.83V21.09H79.6605ZM73.0005 19.722C70.3905 19.722 69.7425 19.02 69.7425 18.138V17.76C69.7425 16.878 70.3905 16.248 73.0005 16.248H73.6125C75.1245 16.248 76.7265 16.428 78.0585 16.932V18.516C76.8525 19.326 75.1605 19.722 73.6125 19.722H73.0005ZM83.6661 15.726C83.6661 13.602 84.9261 12.468 87.9141 12.468H88.6881C90.4881 12.468 92.2341 12.684 93.7641 13.116L94.1961 11.748C92.5221 11.334 90.8301 11.1 88.6881 11.1H87.9681C84.3321 11.1 82.0641 12.666 82.0641 15.726V16.464C82.0641 19.524 84.3321 21.09 87.9681 21.09H88.6881C90.8301 21.09 92.7021 20.856 94.3761 20.442L93.9441 19.074C92.4141 19.506 90.4881 19.722 88.6881 19.722H87.9141C84.9261 19.722 83.6661 18.588 83.6661 16.464V15.726ZM96.528 7.896V21H98.13V7.896H96.528ZM109.758 20.928L101.388 15.78L109.146 11.172V11.1H106.86L98.868 15.78L107.472 21H109.758V20.928ZM123.392 15.546C127.082 15.924 127.748 16.554 127.748 17.706C127.748 18.984 126.596 19.83 123.05 19.83C120.728 19.83 117.974 19.524 116.318 19.128L115.886 20.46C117.758 20.838 120.404 21.198 122.888 21.198C127.964 21.198 129.368 19.776 129.368 17.706C129.368 15.294 128.018 14.592 123.662 14.16L122.006 13.998C118.55 13.656 117.686 13.098 117.686 11.892C117.686 10.632 118.46 9.948 122.114 9.948C124.418 9.948 126.65 10.254 128.666 10.704L129.098 9.318C127.226 8.922 124.76 8.562 122.276 8.562C117.362 8.562 116.066 9.822 116.066 12.054C116.066 14.07 117.398 14.988 121.61 15.366L123.392 15.546ZM138.771 12.468C141.075 12.468 142.587 13.26 142.587 14.916V15.51H133.695L134.163 16.878H144.189V15.348C144.189 12.288 142.281 11.1 138.645 11.1H137.187C133.551 11.1 131.283 12.666 131.283 15.726V16.464C131.283 19.524 133.551 21.09 137.187 21.09H138.267C140.409 21.09 142.587 20.766 144.315 20.244L143.883 18.894C142.281 19.416 140.067 19.722 138.267 19.722H137.133C134.145 19.722 132.885 18.588 132.885 16.464V15.726C132.885 13.602 134.145 12.468 137.133 12.468H138.771ZM157.409 21.09V14.97C157.409 12.594 156.149 11.064 151.937 11.1C149.795 11.118 148.103 11.334 146.429 11.748L146.861 13.116C148.445 12.72 150.245 12.468 152.045 12.468C154.925 12.468 155.807 13.08 155.807 14.988V15.528C154.583 15.114 152.603 14.88 151.361 14.88H150.749C146.897 14.88 145.889 16.104 145.889 17.85V18.138C145.889 19.848 147.383 21.09 150.767 21.09H151.361C152.945 21.09 154.709 20.676 155.807 19.83V21.09H157.409ZM150.749 19.722C148.139 19.722 147.491 19.02 147.491 18.138V17.76C147.491 16.878 148.139 16.248 150.749 16.248H151.361C152.873 16.248 154.475 16.428 155.807 16.932V18.516C154.601 19.326 152.909 19.722 151.361 19.722H150.749ZM167.264 12.468C168.308 12.468 169.424 12.612 170.468 12.972L170.9 11.658C169.64 11.244 168.506 11.1 167.264 11.1H166.814C164.924 11.1 163.07 11.928 162.044 13.152V11.19H160.442V21H162.044V14.97C163.088 13.512 164.798 12.468 166.814 12.468H167.264ZM173.473 15.726C173.473 13.602 174.733 12.468 177.721 12.468H178.495C180.295 12.468 182.041 12.684 183.571 13.116L184.003 11.748C182.329 11.334 180.637 11.1 178.495 11.1H177.775C174.139 11.1 171.871 12.666 171.871 15.726V16.464C171.871 19.524 174.139 21.09 177.775 21.09H178.495C180.637 21.09 182.509 20.856 184.183 20.442L183.751 19.074C182.221 19.506 180.295 19.722 178.495 19.722H177.721C174.733 19.722 173.473 18.588 173.473 16.464V15.726ZM187.937 14.52C188.945 13.278 190.691 12.468 192.707 12.468H193.301C196.379 12.468 197.621 13.71 197.621 15.834V21H199.241V15.726C199.241 12.666 196.793 11.1 193.301 11.1H192.707C190.817 11.1 188.873 11.82 187.937 12.792V7.896H186.335V21H187.937V14.52ZM204.438 9.174V7.374H202.476V9.174H204.438ZM204.348 11.46H201.288V12.828H202.746V21H204.348V11.46ZM207.341 11.19V21H208.943V14.97C209.987 13.512 211.697 12.468 213.713 12.468H214.307C217.385 12.468 218.627 13.71 218.627 15.834V21H220.247V15.726C220.247 12.666 217.799 11.1 214.307 11.1H213.713C211.823 11.1 209.969 11.928 208.943 13.152V11.19H207.341ZM234.032 19.38C234.032 21.378 232.646 22.584 228.542 22.584C226.382 22.584 224.654 22.296 223.142 21.846L223.484 23.358C224.906 23.736 226.868 23.952 228.542 23.952C233.42 23.952 235.634 22.332 235.634 19.632V11.19H234.032V12.702C233.096 11.73 231.062 11.01 229.172 11.01H228.578C225.086 11.01 222.548 12.306 222.548 15.366V16.014C222.548 19.074 225.086 20.19 228.578 20.19H229.172C231.224 20.19 233.096 19.236 234.032 18.228V19.38ZM234.032 16.5C233.06 17.922 231.188 18.822 229.172 18.822H228.578C225.59 18.822 224.168 18.264 224.168 15.996V15.384C224.168 13.26 225.5 12.378 228.578 12.378H229.172C231.188 12.378 233.024 13.188 234.032 14.43V16.5Z" fill="#E965FF"/>
<rect x="15" y="1.13509" width="19.6079" height="19.6079" rx="2.40789" transform="rotate(45 15 1.13509)" fill="#E965FF" stroke="#E965FF" stroke-width="1.60526"/>
<path d="M8.45703 15.0233C9.20328 15.0233 12.5614 15.8019 12.5614 20.0864C12.1883 15.8021 15.9195 12.6862 21.1432 12.6862" stroke="#0D0E11" stroke-width="2" stroke-linecap="square"/>
</svg>
