<svg width="132" height="13" viewBox="0 0 132 13" fill="none" xmlns="http://www.w3.org/2000/svg">
<path d="M24.4838 9.58503C24.4838 10.74 24.4838 11.25 24.4688 12H26.0588C26.0438 11.19 26.0438 10.905 26.0438 9.57003V7.32003H28.5638C30.3488 7.32003 33.0338 7.32003 34.0838 7.33503V5.91003H26.0438V2.76003H29.1788C31.5788 2.76003 33.7088 2.76003 34.7588 2.77503V1.35003H24.4688C24.4838 2.05503 24.4838 2.50503 24.4838 3.30003V9.58503Z" fill="#535559"/>
<path d="M36.7713 1.02003V2.41503H38.3013V1.02003H36.7713ZM36.7863 9.64503C36.7863 10.65 36.7863 11.34 36.7713 12H38.3013C38.2863 11.34 38.2863 10.65 38.2863 9.66003V5.83503C38.2863 4.75503 38.2863 3.94503 38.3013 3.30003H36.7713C36.7863 3.94503 36.7863 4.75503 36.7863 5.82003V9.64503Z" fill="#535559"/>
<path d="M41.0783 9.64503C41.0783 10.65 41.0783 11.34 41.0633 12H42.5933C42.5783 11.34 42.5783 10.65 42.5783 9.66003V3.31503C42.5783 2.23503 42.5783 1.42503 42.5933 0.780029H41.0633C41.0783 1.42503 41.0783 2.23503 41.0783 3.30003V9.64503Z" fill="#535559"/>
<path d="M50.2753 12.18C54.6553 12.18 55.4803 11.31 55.4803 9.22503L53.9953 9.16503C53.9953 10.29 53.5903 10.845 50.2903 10.845C47.0953 10.845 46.3753 10.26 46.3003 8.23503H55.4803C55.4803 7.98003 55.4953 7.66503 55.4803 7.42503C55.4353 4.11003 54.4453 3.12003 50.1703 3.12003C45.8953 3.12003 44.7553 4.11003 44.7553 7.42503V7.87503C44.7553 11.19 45.8953 12.18 50.2753 12.18ZM50.1703 4.42503C53.2453 4.42503 53.8303 5.02503 53.8903 6.94503H46.3003C46.4053 4.96503 47.1553 4.42503 50.1703 4.42503Z" fill="#535559"/>
<path d="M75.4364 1.35003H73.8464C73.8614 1.92003 73.8614 2.58003 73.8614 3.31503V7.59003C73.8614 10.05 73.1564 10.755 69.3164 10.755C65.4764 10.755 64.7714 10.05 64.7714 7.59003V3.30003C64.7714 2.58003 64.7714 1.92003 64.7864 1.35003H63.1964C63.2114 1.86003 63.2114 2.49003 63.2114 3.28503V4.48503C63.2114 5.32503 63.1964 6.36003 63.1964 7.77003C63.1964 10.995 64.4114 12.21 69.3164 12.21C74.2214 12.21 75.4364 10.995 75.4364 7.77003C75.4364 6.36003 75.4214 5.32503 75.4214 4.48503V3.33003C75.4214 2.50503 75.4214 1.86003 75.4364 1.35003Z" fill="#535559"/>
<path d="M78.1528 12C78.1528 12.9 78.1528 13.65 78.1378 14.1H79.6828C79.6678 13.485 79.6678 12.405 79.6678 10.83C80.4178 11.745 81.7078 12.18 83.8078 12.18C87.9178 12.18 89.0728 11.19 89.0728 7.87503V7.42503C89.0728 4.11003 87.9178 3.12003 83.8978 3.12003C81.6778 3.12003 80.3278 3.60003 79.5928 4.57503V3.30003H78.1378C78.1528 3.93003 78.1528 4.47003 78.1528 5.16003V12ZM79.6528 7.71003V7.59003C79.6528 5.22003 80.3278 4.51503 83.5978 4.51503C86.8828 4.51503 87.5428 5.14503 87.5428 7.57503V7.72503C87.5428 10.155 86.8828 10.785 83.5228 10.785C80.3278 10.785 79.6528 10.095 79.6528 7.71003Z" fill="#535559"/>
<path d="M91.2492 9.64503C91.2492 10.65 91.2492 11.34 91.2342 12H92.7642C92.7492 11.34 92.7492 10.65 92.7492 9.66003V3.31503C92.7492 2.23503 92.7492 1.42503 92.7642 0.780029H91.2342C91.2492 1.42503 91.2492 2.23503 91.2492 3.30003V9.64503Z" fill="#535559"/>
<path d="M100.401 12.18C104.736 12.18 105.876 11.19 105.876 7.87503V7.42503C105.876 4.11003 104.736 3.12003 100.401 3.12003C96.0662 3.12003 94.9262 4.11003 94.9262 7.42503V7.87503C94.9262 11.19 96.0662 12.18 100.401 12.18ZM100.401 10.785C97.1012 10.785 96.4562 10.155 96.4562 7.72503V7.57503C96.4562 5.14503 97.1012 4.51503 100.401 4.51503C103.701 4.51503 104.346 5.14503 104.346 7.57503V7.72503C104.346 10.155 103.701 10.785 100.401 10.785Z" fill="#535559"/>
<path d="M112.446 12.18C114.771 12.18 116.091 11.715 116.751 10.98L116.766 12H118.116C118.101 10.815 118.101 10.05 118.101 9.15003C118.101 7.89003 118.116 7.32003 118.116 6.13503C118.116 4.08003 117.351 3.12003 112.911 3.12003C108.876 3.12003 107.961 3.97503 107.991 5.79003L109.506 5.83503C109.491 4.80003 109.851 4.45503 112.911 4.45503C116.076 4.45503 116.601 4.92003 116.601 6.42003V7.48503C115.896 6.93003 114.606 6.60003 112.446 6.60003C108.501 6.60003 107.646 7.42503 107.646 9.42003C107.646 11.37 108.456 12.18 112.446 12.18ZM112.881 10.875C109.821 10.875 109.191 10.5 109.191 9.42003C109.191 8.31003 109.596 7.84503 112.881 7.84503C116.106 7.84503 116.631 8.29503 116.631 8.97003V9.43503C116.631 10.41 116.106 10.875 112.881 10.875Z" fill="#535559"/>
<path d="M125.384 12.18C127.649 12.18 128.999 11.685 129.719 10.68L129.749 12H131.144C131.129 11.265 131.129 10.755 131.129 9.60003V3.30003C131.129 2.19003 131.129 1.42503 131.144 0.780029H129.584C129.599 1.39503 129.614 2.95503 129.614 4.47003C128.864 3.55503 127.574 3.12003 125.474 3.12003C121.364 3.12003 120.209 4.11003 120.209 7.42503V7.87503C120.209 11.19 121.364 12.18 125.384 12.18ZM125.684 10.785C122.399 10.785 121.739 10.155 121.739 7.72503V7.57503C121.739 5.14503 122.399 4.51503 125.759 4.51503C128.954 4.51503 129.629 5.20503 129.629 7.59003V7.71003C129.629 10.08 128.954 10.785 125.684 10.785Z" fill="#535559"/>
<rect x="0.5" y="3.5" width="12" height="8" stroke="#535559"/>
<rect x="0.5" y="1.5" width="5" height="2" stroke="#535559"/>
</svg>
