<svg width="146" height="14" viewBox="0 0 146 14" fill="none" xmlns="http://www.w3.org/2000/svg">
<path d="M24.2562 9.19954C24.2562 10.2752 24.2562 10.8693 24.2402 11.7523H30.3808C35.8355 11.7523 37.2071 10.4839 37.2071 6.14908V5.95642C37.2071 1.62156 35.8355 0.353211 30.3967 0.353211H24.2402C24.2562 1.12385 24.2562 1.62156 24.2562 2.48853V9.19954ZM30.3967 1.86239C34.719 1.86239 35.5324 2.7133 35.5324 5.95642V6.14908C35.5324 9.3922 34.719 10.2431 30.3808 10.2431H25.9149V1.86239H30.3967Z" fill="#535559"/>
<path d="M44.827 11.945C49.4842 11.945 50.3614 11.0138 50.3614 8.78211L48.7824 8.71789C48.7824 9.92202 48.3518 10.5161 44.8429 10.5161C41.4457 10.5161 40.6801 9.88991 40.6004 7.72248H50.3614C50.3614 7.44954 50.3774 7.11239 50.3614 6.85551C50.3136 3.30734 49.2609 2.24771 44.7153 2.24771C40.1697 2.24771 38.9576 3.30734 38.9576 6.85551V7.33716C38.9576 10.8853 40.1697 11.945 44.827 11.945ZM44.7153 3.6445C47.985 3.6445 48.607 4.2867 48.6708 6.34174H40.6004C40.712 4.22248 41.5095 3.6445 44.7153 3.6445Z" fill="#535559"/>
<path d="M57.4324 11.945C62.0737 11.945 62.6638 11.2064 62.6638 9.27982C62.6638 7.36927 62.0896 6.66285 57.3048 6.26147C53.8757 5.97248 53.6364 5.68349 53.6364 4.88073C53.6364 4.02982 54.1308 3.69266 57.1293 3.69266C60.1757 3.69266 60.6542 4.06193 60.6542 5.04129V5.28211L62.297 5.23395C62.297 3.00229 61.5154 2.24771 57.1931 2.24771C52.9346 2.24771 52.1053 3.0344 52.1053 4.99312C52.1053 6.88762 52.807 7.49771 57.0496 7.85092C60.7499 8.15596 61.0369 8.46101 61.0369 9.36009C61.0369 10.2271 60.702 10.5963 57.4962 10.5963C54.0989 10.5963 53.6045 10.2271 53.6045 8.92661V8.66973L51.9936 8.71789C51.9936 11.4151 52.823 11.945 57.4324 11.945Z" fill="#535559"/>
<path d="M70.0101 11.945C74.5557 11.945 75.6403 10.9014 75.6403 8.13991L74.0613 8.09174C74.0613 9.76147 73.3914 10.4518 70.0101 10.4518C66.565 10.4518 65.8792 9.77752 65.8792 7.17661V7.01606C65.8792 4.41514 66.565 3.74083 70.0101 3.74083C73.3914 3.74083 74.0294 4.4633 74.0294 6.10092L75.6084 6.05275C75.6084 3.21101 74.5717 2.24771 70.0101 2.24771C65.5283 2.24771 64.2524 3.30734 64.2524 6.85551V7.33716C64.2524 10.8853 65.5443 11.945 70.0101 11.945Z" fill="#535559"/>
<path d="M77.8645 9.18349C77.8645 10.4518 77.8645 11.078 77.8485 11.7523H79.4754C79.4594 11.078 79.4594 10.4839 79.4594 9.18349V7.03211C79.4594 4.33486 80.209 3.74083 82.9523 3.74083C85.7435 3.74083 86.0625 4.12615 86.0625 5.94037V6.26147L87.5936 6.22936C87.6096 5.98853 87.6096 5.74771 87.6096 5.55505C87.6096 2.88991 86.8919 2.24771 83.3351 2.24771C81.3574 2.24771 80.0814 2.76147 79.3637 3.80505L79.3318 2.44037H77.8485C77.8645 3.06651 77.8645 3.6445 77.8645 4.83257V9.18349Z" fill="#535559"/>
<path d="M89.749 0V1.49312H91.3759V0H89.749ZM89.765 9.23165C89.765 10.3073 89.765 11.0459 89.749 11.7523H91.3759C91.3599 11.0459 91.3599 10.3073 91.3599 9.24771V5.15367C91.3599 3.99771 91.3599 3.13073 91.3759 2.44037H89.749C89.765 3.13073 89.765 3.99771 89.765 5.13761V9.23165Z" fill="#535559"/>
<path d="M94.2968 11.7523C94.2968 12.7156 94.2968 13.5183 94.2808 14H95.9236C95.9076 13.3417 95.9076 12.1858 95.9076 10.5C96.7051 11.4794 98.0768 11.945 100.31 11.945C104.68 11.945 105.908 10.8853 105.908 7.33716V6.85551C105.908 3.30734 104.68 2.24771 100.405 2.24771C98.0449 2.24771 96.6094 2.76147 95.8279 3.80505V2.44037H94.2808C94.2968 3.11468 94.2968 3.69266 94.2968 4.43119V11.7523ZM95.8917 7.16055V7.03211C95.8917 4.49541 96.6094 3.74083 100.086 3.74083C103.579 3.74083 104.281 4.41514 104.281 7.01606V7.17661C104.281 9.77752 103.579 10.4518 100.007 10.4518C96.6094 10.4518 95.8917 9.7133 95.8917 7.16055Z" fill="#535559"/>
<path d="M108.701 5.97248C108.701 6.75917 108.685 7.67431 108.685 8.38073C108.685 11.1422 109.53 11.8326 113.294 11.8326C113.996 11.8326 114.586 11.8005 115.08 11.7523L115.064 10.2913C114.458 10.3234 114.091 10.3395 113.374 10.3395C110.934 10.3395 110.296 10.0986 110.296 8.15596V3.90138H115.064V2.44037H110.296C110.296 1.63761 110.296 0.995413 110.311 0.610093L108.685 0.642202C108.701 1.38073 108.701 1.91055 108.701 2.44037C108.19 2.44037 107.68 2.45642 107.026 2.44037V3.90138H108.701V5.97248Z" fill="#535559"/>
<path d="M117.224 0V1.49312H118.851V0H117.224ZM117.24 9.23165C117.24 10.3073 117.24 11.0459 117.224 11.7523H118.851C118.835 11.0459 118.835 10.3073 118.835 9.24771V5.15367C118.835 3.99771 118.835 3.13073 118.851 2.44037H117.224C117.24 3.13073 117.24 3.99771 117.24 5.13761V9.23165Z" fill="#535559"/>
<path d="M126.972 11.945C131.581 11.945 132.793 10.8853 132.793 7.33716V6.85551C132.793 3.30734 131.581 2.24771 126.972 2.24771C122.362 2.24771 121.15 3.30734 121.15 6.85551V7.33716C121.15 10.8853 122.362 11.945 126.972 11.945ZM126.972 10.4518C123.463 10.4518 122.777 9.77752 122.777 7.17661V7.01606C122.777 4.41514 123.463 3.74083 126.972 3.74083C130.481 3.74083 131.166 4.41514 131.166 7.01606V7.17661C131.166 9.77752 130.481 10.4518 126.972 10.4518Z" fill="#535559"/>
<path d="M135.074 9.18349C135.074 10.4518 135.074 11.078 135.058 11.7523H136.685C136.669 11.078 136.669 10.4839 136.669 9.18349V6.93578C136.669 4.49541 137.418 3.74083 140.544 3.74083C143.782 3.74083 144.388 4.55963 144.388 6.69495V9.19954C144.388 10.5642 144.388 11.0298 144.372 11.7523H145.999C145.983 10.9977 145.983 10.3555 145.983 9.19954V8.22018C145.983 7.25688 145.999 6.87156 145.999 6.2133C145.999 3.38762 145.186 2.24771 140.975 2.24771C138.71 2.24771 137.323 2.76147 136.573 3.80505L136.541 2.44037H135.058C135.074 3.06651 135.074 3.6445 135.074 4.83257V9.18349Z" fill="#535559"/>
<path fill-rule="evenodd" clip-rule="evenodd" d="M0 0.96521H12.4605V2.47037H0V0.96521Z" fill="#535559"/>
<path fill-rule="evenodd" clip-rule="evenodd" d="M0 5.9823H8.47314V7.48746H0V5.9823Z" fill="#535559"/>
<path fill-rule="evenodd" clip-rule="evenodd" d="M0 10.9995H5.48262V12.5047H0V10.9995Z" fill="#535559"/>
</svg>
