<svg width="28" height="27" viewBox="0 0 28 27" fill="none" xmlns="http://www.w3.org/2000/svg">
<path d="M1.7499 5.85427C1.7499 5.44005 1.41411 5.10427 0.999895 5.10427C0.585682 5.10427 0.249895 5.44005 0.249895 5.85427H1.7499ZM0.999895 22.6778L1.7499 22.6787V22.6778H0.999895ZM1.78053 24.5689L2.31151 24.0392L1.78053 24.5689ZM3.66975 25.3541L3.66884 26.1041H3.66975V25.3541ZM24.3299 25.3541V26.1041L24.3308 26.1041L24.3299 25.3541ZM26.2191 24.5689L25.6881 24.0392H25.6881L26.2191 24.5689ZM26.9997 22.6778H26.2497L26.2497 22.6787L26.9997 22.6778ZM26.9997 8.53062L26.2497 8.52971V8.53062H26.9997ZM26.2191 6.6395L25.6881 7.16919V7.16919L26.2191 6.6395ZM24.3299 5.85427L24.3308 5.10427H24.3299V5.85427ZM14.8708 5.10427C14.4566 5.10427 14.1208 5.44005 14.1208 5.85427C14.1208 6.26848 14.4566 6.60427 14.8708 6.60427V5.10427ZM0.250002 5.85397C0.250002 6.26818 0.585788 6.60397 1 6.60397C1.41422 6.60397 1.75 6.26818 1.75 5.85397H0.250002ZM1 3.65536H1.75L1.75 3.65445L1 3.65536ZM3.66986 0.979004V0.229003L3.66895 0.229004L3.66986 0.979004ZM12.2011 0.979004L12.202 0.229004H12.2011V0.979004ZM14.8709 3.65536L14.1209 3.65445V3.65536H14.8709ZM14.1209 5.85397C14.1209 6.26818 14.4567 6.60397 14.8709 6.60397C15.2851 6.60397 15.6209 6.26818 15.6209 5.85397H14.1209ZM0.999893 5.10405C0.58568 5.10405 0.249893 5.43984 0.249893 5.85405C0.249893 6.26827 0.58568 6.60405 0.999893 6.60405V5.10405ZM14.8708 6.60405C15.285 6.60405 15.6208 6.26827 15.6208 5.85405C15.6208 5.43984 15.285 5.10405 14.8708 5.10405V6.60405ZM0.249895 5.85427V22.6778H1.7499V5.85427H0.249895ZM0.249896 22.6769C0.248791 23.5847 0.60838 24.4558 1.24956 25.0986L2.31151 24.0392C1.95129 23.6781 1.74927 23.1887 1.74989 22.6787L0.249896 22.6769ZM1.24956 25.0986C1.89073 25.7413 2.76098 26.103 3.66884 26.1041L3.67066 24.6041C3.16062 24.6035 2.67172 24.4003 2.31151 24.0392L1.24956 25.0986ZM3.66975 26.1041H24.3299V24.6041H3.66975V26.1041ZM24.3308 26.1041C25.2386 26.103 26.1089 25.7413 26.7501 25.0986L25.6881 24.0392C25.3279 24.4003 24.839 24.6035 24.3289 24.6041L24.3308 26.1041ZM26.7501 25.0986C27.3912 24.4558 27.7508 23.5847 27.7497 22.6769L26.2497 22.6787C26.2503 23.1887 26.0483 23.6781 25.6881 24.0392L26.7501 25.0986ZM27.7497 22.6778V8.53062H26.2497V22.6778H27.7497ZM27.7497 8.53154C27.7508 7.62367 27.3912 6.75255 26.7501 6.10982L25.6881 7.16919C26.0483 7.53028 26.2503 8.01967 26.2497 8.52971L27.7497 8.53154ZM26.7501 6.10982C26.1089 5.46708 25.2386 5.10537 24.3308 5.10427L24.3289 6.60427C24.839 6.60489 25.3279 6.80809 25.6881 7.16919L26.7501 6.10982ZM24.3299 5.10427H14.8708V6.60427H24.3299V5.10427ZM1.75 5.85397V3.65536H0.250002V5.85397H1.75ZM1.75 3.65445C1.74938 3.14441 1.9514 2.65501 2.31161 2.29392L1.24966 1.23455C0.608487 1.87729 0.248898 2.74841 0.250003 3.65627L1.75 3.65445ZM2.31161 2.29392C2.67183 1.93283 3.16073 1.72962 3.67077 1.729L3.66895 0.229004C2.76108 0.230108 1.89084 0.591814 1.24966 1.23455L2.31161 2.29392ZM3.66986 1.729H12.2011V0.229004H3.66986V1.729ZM12.2001 1.729C12.7102 1.72962 13.1991 1.93283 13.5593 2.29392L14.6212 1.23455C13.9801 0.591814 13.1098 0.230108 12.202 0.229004L12.2001 1.729ZM13.5593 2.29392C13.9195 2.65501 14.1215 3.14441 14.1209 3.65445L15.6209 3.65627C15.622 2.74841 15.2624 1.87729 14.6212 1.23455L13.5593 2.29392ZM14.1209 3.65536V5.85397H15.6209V3.65536H14.1209ZM0.999893 6.60405H14.8708V5.10405H0.999893V6.60405Z" fill="white"/>
</svg>
