<svg width="189" height="97" viewBox="0 0 189 97" fill="none" xmlns="http://www.w3.org/2000/svg">
<path fill-rule="evenodd" clip-rule="evenodd" d="M103.145 19.4996C103.145 20.2491 103.752 20.8568 104.502 20.8568C105.251 20.8568 105.859 20.2491 105.859 19.4996C105.859 18.75 105.251 18.1423 104.502 18.1423C103.752 18.1423 103.145 18.75 103.145 19.4996Z" stroke="white" stroke-width="2" stroke-linecap="round" stroke-linejoin="round"/>
<path d="M113.003 26.2856C113.003 26.8379 113.45 27.2856 114.003 27.2856C114.555 27.2856 115.003 26.8379 115.003 26.2856H113.003ZM76 37.1435L77 37.1448V37.1435H76ZM77.3517 44.2299C77.6825 44.6722 78.3091 44.7626 78.7514 44.4319C79.1937 44.1012 79.2842 43.4745 78.9534 43.0322L77.3517 44.2299ZM115.004 26.2856C115.004 25.7333 114.557 25.2856 114.004 25.2856C113.452 25.2856 113.004 25.7333 113.004 26.2856H115.004ZM86.8596 48.0014V47.0014H86.859L86.8596 48.0014ZM78.9566 43.0342C78.627 42.5911 78.0005 42.4991 77.5574 42.8287C77.1143 43.1584 77.0223 43.7848 77.352 44.228L78.9566 43.0342ZM114.676 27.0265C115.085 26.6555 115.116 26.0231 114.745 25.6139C114.374 25.2048 113.742 25.1738 113.333 25.5447L114.676 27.0265ZM101.246 37.852L100.575 37.1111L100.568 37.1173L101.246 37.852ZM99.1817 38.563L99.0996 39.5596V39.5596L99.1817 38.563ZM97.2615 37.5235L98.051 36.9098L98.0506 36.9093L97.2615 37.5235ZM91.8081 30.5175L92.5972 29.9032L92.5957 29.9013L91.8081 30.5175ZM89.6141 29.4761L89.5935 28.4763L89.6141 29.4761ZM87.4649 30.607L86.6526 30.0239L86.6514 30.0255L87.4649 30.607ZM77.3408 43.0495C77.0196 43.4988 77.1235 44.1234 77.5728 44.4446C78.022 44.7657 78.6466 44.6619 78.9678 44.2126L77.3408 43.0495ZM115.003 26.2856V20.8567H113.003V26.2856H115.003ZM115.003 20.8567C115.003 14.3077 109.694 8.99878 103.145 8.99878V10.9988C108.589 10.9988 113.003 15.4123 113.003 20.8567H115.003ZM103.145 8.99878H86.8579V10.9988H103.145V8.99878ZM86.8579 8.99878C80.309 8.99878 75 14.3077 75 20.8567H77C77 15.4123 81.4135 10.9988 86.8579 10.9988V8.99878ZM75 20.8567V37.1435H77V20.8567H75ZM75 37.1421C74.9966 39.6969 75.8218 42.1839 77.3517 44.2299L78.9534 43.0322C77.6826 41.3327 76.9972 39.2669 77 37.1448L75 37.1421ZM113.004 26.2856V37.1435H115.004V26.2856H113.004ZM113.004 37.1435C113.004 42.5878 108.591 47.0014 103.146 47.0014V49.0014C109.695 49.0014 115.004 43.6924 115.004 37.1435H113.004ZM103.146 47.0014H86.8596V49.0014H103.146V47.0014ZM86.859 47.0014C83.7456 47.0033 80.815 45.5321 78.9566 43.0342L77.352 44.228C79.588 47.2335 83.1142 49.0037 86.8603 49.0014L86.859 47.0014ZM113.333 25.5447L100.575 37.1111L101.918 38.5928L114.676 27.0265L113.333 25.5447ZM100.568 37.1173C100.215 37.4429 99.7423 37.6058 99.2639 37.5664L99.0996 39.5596C100.136 39.6451 101.161 39.2921 101.925 38.5866L100.568 37.1173ZM99.2639 37.5664C98.7855 37.527 98.3456 37.2888 98.051 36.9098L96.4719 38.1372C97.1101 38.9583 98.0632 39.4742 99.0996 39.5596L99.2639 37.5664ZM98.0506 36.9093L92.5972 29.9032L91.019 31.1317L96.4723 38.1377L98.0506 36.9093ZM92.5957 29.9013C91.8751 28.9802 90.7628 28.4522 89.5935 28.4763L89.6347 30.4759C90.1744 30.4647 90.6879 30.7084 91.0205 31.1336L92.5957 29.9013ZM89.5935 28.4763C88.4242 28.5004 87.3346 29.0738 86.6526 30.0239L88.2773 31.1902C88.5921 30.7517 89.095 30.487 89.6347 30.4759L89.5935 28.4763ZM86.6514 30.0255L77.3408 43.0495L78.9678 44.2126L88.2785 31.1886L86.6514 30.0255Z" fill="white"/>
<path d="M3.30961 84.2C3.30961 79.96 4.58961 78.8 8.62961 78.8C10.8696 78.8 13.8296 79.2 15.8696 79.64L16.3696 78.1C14.2896 77.66 11.2496 77.26 8.48961 77.26C2.64961 77.26 1.48961 80.18 1.48961 84.2C1.48961 88.22 2.62961 91.24 8.38961 91.2C11.4096 91.18 14.2496 90.82 16.5496 90.28L16.0696 88.72C14.0696 89.28 11.3896 89.66 8.62961 89.66C4.80961 89.66 3.30961 88.18 3.30961 84.2ZM20.7827 83.8C21.9027 82.42 23.8427 81.52 26.0827 81.52H26.7427C30.1627 81.52 31.5427 82.9 31.5427 85.26V91H33.3427V85.14C33.3427 81.74 30.6227 80 26.7427 80H26.0827C23.9827 80 21.8227 80.8 20.7827 81.88V76.44H19.0027V91H20.7827V83.8ZM48.7571 91.1V84.3C48.7571 81.66 47.3571 79.96 42.6771 80C40.2971 80.02 38.4171 80.26 36.5571 80.72L37.0371 82.24C38.7971 81.8 40.7971 81.52 42.7971 81.52C45.9971 81.52 46.9771 82.2 46.9771 84.32V84.92C45.6171 84.46 43.4171 84.2 42.0371 84.2H41.3571C37.0771 84.2 35.9571 85.56 35.9571 87.5V87.82C35.9571 89.72 37.6171 91.1 41.3771 91.1H42.0371C43.7971 91.1 45.7571 90.64 46.9771 89.7V91.1H48.7571ZM41.3571 89.58C38.4571 89.58 37.7371 88.8 37.7371 87.82V87.4C37.7371 86.42 38.4571 85.72 41.3571 85.72H42.0371C43.7171 85.72 45.4971 85.92 46.9771 86.48V88.24C45.6371 89.14 43.7571 89.58 42.0371 89.58H41.3571ZM52.1277 80.1V91H53.9077V84.3C55.0677 82.68 56.9677 81.52 59.2077 81.52H59.8677C63.2877 81.52 64.6677 82.9 64.6677 85.26V91H66.4677V85.14C66.4677 81.74 63.7477 80 59.8677 80H59.2077C57.1077 80 55.0477 80.92 53.9077 82.28V80.1H52.1277ZM81.7854 89.2C81.7854 91.42 80.2454 92.76 75.6854 92.76C73.2854 92.76 71.3654 92.44 69.6854 91.94L70.0654 93.62C71.6454 94.04 73.8254 94.28 75.6854 94.28C81.1054 94.28 83.5654 92.48 83.5654 89.48V80.1H81.7854V81.78C80.7454 80.7 78.4854 79.9 76.3854 79.9H75.7254C71.8454 79.9 69.0254 81.34 69.0254 84.74V85.46C69.0254 88.86 71.8454 90.1 75.7254 90.1H76.3854C78.6654 90.1 80.7454 89.04 81.7854 87.92V89.2ZM81.7854 86C80.7054 87.58 78.6254 88.58 76.3854 88.58H75.7254C72.4054 88.58 70.8254 87.96 70.8254 85.44V84.76C70.8254 82.4 72.3054 81.42 75.7254 81.42H76.3854C78.6254 81.42 80.6654 82.32 81.7854 83.7V86ZM94.5915 81.52C97.1515 81.52 98.8315 82.4 98.8315 84.24V84.9H88.9515L89.4715 86.42H100.611V84.72C100.611 81.32 98.4915 80 94.4515 80H92.8315C88.7915 80 86.2715 81.74 86.2715 85.14V85.96C86.2715 89.36 88.7915 91.1 92.8315 91.1H94.0315C96.4115 91.1 98.8315 90.74 100.751 90.16L100.271 88.66C98.4915 89.24 96.0315 89.58 94.0315 89.58H92.7715C89.4515 89.58 88.0515 88.32 88.0515 85.96V85.14C88.0515 82.78 89.4515 81.52 92.7715 81.52H94.5915ZM117.146 86.22C121.986 86.22 123.626 84.56 123.626 82.18V81.66C123.626 79.38 121.986 77.48 117.146 77.48H108.886V91H110.686V79H117.306C120.426 79 121.846 79.9 121.846 81.72V82.12C121.846 83.94 120.426 84.7 117.306 84.7H111.426L111.946 86.22H117.146ZM128.068 83.8C129.188 82.42 131.128 81.52 133.368 81.52H134.028C137.448 81.52 138.828 82.9 138.828 85.26V91H140.628V85.14C140.628 81.74 137.908 80 134.028 80H133.368C131.268 80 129.108 80.8 128.068 81.88V76.44H126.288V91H128.068V83.8ZM150.082 80C146.042 80 143.322 81.84 143.322 85.24V85.86C143.322 89.26 146.042 91.1 150.082 91.1H151.642C155.682 91.1 158.402 89.26 158.402 85.86V85.24C158.402 81.84 155.682 80 151.642 80H150.082ZM156.622 85.86C156.622 88.22 155.022 89.58 151.702 89.58H150.022C146.702 89.58 145.102 88.22 145.102 85.86V85.24C145.102 82.88 146.702 81.52 150.022 81.52H151.702C155.022 81.52 156.622 82.88 156.622 85.24V85.86ZM163.232 87.84C163.232 90 163.952 91.06 166.652 91.06C168.332 91.06 169.472 90.9 170.812 90.58L171.212 89C169.892 89.38 168.672 89.58 167.252 89.58C165.912 89.58 165.012 89.2 165.012 88.22V82.46H170.692V80.94H165.012V77.46H163.232V80.94H160.232V82.46H163.232V87.84ZM179.301 80C175.261 80 172.541 81.84 172.541 85.24V85.86C172.541 89.26 175.261 91.1 179.301 91.1H180.861C184.901 91.1 187.621 89.26 187.621 85.86V85.24C187.621 81.84 184.901 80 180.861 80H179.301ZM185.841 85.86C185.841 88.22 184.241 89.58 180.921 89.58H179.241C175.921 89.58 174.321 88.22 174.321 85.86V85.24C174.321 82.88 175.921 81.52 179.241 81.52H180.921C184.241 81.52 185.841 82.88 185.841 85.24V85.86Z" fill="white"/>
</svg>
