<svg width="123" height="14" viewBox="0 0 123 14" fill="none" xmlns="http://www.w3.org/2000/svg">
<path d="M29.887 11.7945C35.1623 11.7945 36.4221 10.6598 36.4221 7.43151L34.8474 7.38356C34.8159 9.58904 34.1387 10.2443 29.95 10.2443C25.7612 10.2443 24.9581 9.38128 24.9581 5.99315V5.80137C24.9581 2.52511 25.7612 1.55023 29.95 1.55023C34.1387 1.55023 34.8474 2.20548 34.8474 4.41096L36.4221 4.36301C36.4221 1.1347 35.1466 0 29.887 0C24.6589 0 23.3047 1.29452 23.3047 5.64155V6.15297C23.3047 10.5 24.6589 11.7945 29.887 11.7945Z" fill="#535559"/>
<path d="M43.3865 11.7626C45.8273 11.7626 47.2131 11.2671 47.906 10.484L47.9217 11.5708H49.339C49.3232 10.3082 49.3232 9.49315 49.3232 8.53425C49.3232 7.19178 49.339 6.58448 49.339 5.32192C49.339 3.13242 48.5359 2.10959 43.8747 2.10959C39.6387 2.10959 38.6781 3.02055 38.7096 4.95434L40.3001 5.00228C40.2843 3.89954 40.6623 3.53196 43.8747 3.53196C47.1973 3.53196 47.7485 4.0274 47.7485 5.62557V6.76027C47.0084 6.16895 45.6541 5.81735 43.3865 5.81735C39.245 5.81735 38.3474 6.69635 38.3474 8.82192C38.3474 10.8995 39.1978 11.7626 43.3865 11.7626ZM43.8432 10.3721C40.6308 10.3721 39.9694 9.9726 39.9694 8.82192C39.9694 7.63927 40.3946 7.14384 43.8432 7.14384C47.2288 7.14384 47.78 7.62329 47.78 8.34247V8.8379C47.78 9.87671 47.2288 10.3721 43.8432 10.3721Z" fill="#535559"/>
<path d="M52.6547 5.81735C52.6547 6.60046 52.639 7.51142 52.639 8.21461C52.639 10.9635 53.4736 11.6507 57.1899 11.6507C57.8828 11.6507 58.4654 11.6187 58.9536 11.5708L58.9379 10.1164C58.3395 10.1484 57.9773 10.1644 57.2686 10.1644C54.8593 10.1644 54.2294 9.92466 54.2294 7.99087V3.75571H58.9379V2.30137H54.2294C54.2294 1.50228 54.2294 0.863014 54.2452 0.479453L52.639 0.511416C52.6547 1.24658 52.6547 1.77397 52.6547 2.30137C52.1508 2.30137 51.6469 2.31735 51.0013 2.30137V3.75571H52.6547V5.81735Z" fill="#535559"/>
<path d="M66.2356 11.7626C70.8337 11.7626 71.6998 10.8356 71.6998 8.61416L70.1409 8.55023C70.1409 9.74886 69.7157 10.3402 66.2513 10.3402C62.8972 10.3402 62.1413 9.7169 62.0626 7.55936H71.6998C71.6998 7.28767 71.7156 6.95206 71.6998 6.69635C71.6526 3.16438 70.6133 2.10959 66.1253 2.10959C61.6374 2.10959 60.4406 3.16438 60.4406 6.69635V7.1758C60.4406 10.7078 61.6374 11.7626 66.2356 11.7626ZM66.1253 3.5C69.3535 3.5 69.9676 4.13927 70.0306 6.18493H62.0626C62.1728 4.07534 62.9601 3.5 66.1253 3.5Z" fill="#535559"/>
<path d="M78.8701 10.6438C81.1377 10.6438 82.5077 10.1324 83.2636 9.22146L83.2478 10.1324C83.2163 11.7785 82.6179 12.5457 78.8701 12.5457C75.6734 12.5457 75.1223 12.0982 75.1223 11.1553L73.5948 11.2192C73.5948 13.3288 74.6498 14 78.8701 14C83.6572 14 84.8225 13.0571 84.8225 10.3402C84.8225 9.09361 84.8068 8.1347 84.8068 6.77626V4.379C84.8068 3.59589 84.8068 2.98858 84.8225 2.30137H83.358L83.3423 3.53196C82.5864 2.60502 81.2007 2.10959 78.8543 2.10959C74.8861 2.10959 73.3428 2.89269 73.3428 6.2968V6.45662C73.3428 9.86073 74.9648 10.6438 78.8701 10.6438ZM74.949 6.45662V6.2968C74.949 4.25114 75.8466 3.56393 79.1378 3.56393C82.5077 3.56393 83.2163 4.23516 83.2321 6.2968C83.2321 8.34247 82.4447 9.1895 79.1535 9.1895C75.6892 9.1895 74.949 8.50228 74.949 6.45662Z" fill="#535559"/>
<path d="M92.8078 11.7626C97.3588 11.7626 98.5555 10.7078 98.5555 7.1758V6.69635C98.5555 3.16438 97.3588 2.10959 92.8078 2.10959C88.2569 2.10959 87.0601 3.16438 87.0601 6.69635V7.1758C87.0601 10.7078 88.2569 11.7626 92.8078 11.7626ZM92.8078 10.2763C89.3434 10.2763 88.6663 9.60502 88.6663 7.01598V6.85616C88.6663 4.26712 89.3434 3.59589 92.8078 3.59589C96.2722 3.59589 96.9493 4.26712 96.9493 6.85616V7.01598C96.9493 9.60502 96.2722 10.2763 92.8078 10.2763Z" fill="#535559"/>
<path d="M100.807 9.0137C100.807 10.2763 100.807 10.8995 100.791 11.5708H102.398C102.382 10.8995 102.382 10.3082 102.382 9.0137V6.87215C102.382 4.18721 103.122 3.59589 105.83 3.59589C108.586 3.59589 108.901 3.97945 108.901 5.78539V6.10502L110.413 6.07306C110.429 5.83333 110.429 5.59361 110.429 5.40183C110.429 2.74886 109.72 2.10959 106.208 2.10959C104.256 2.10959 102.996 2.62101 102.287 3.65982L102.256 2.30137H100.791C100.807 2.92466 100.807 3.5 100.807 4.68265V9.0137Z" fill="#535559"/>
<path d="M118.214 11.8584C119.395 9.49315 121.867 4.47489 123.001 2.30137H121.3L119.347 6.16895C118.828 7.19178 118.308 8.23059 117.867 9.14155H116.985C116.434 8.21461 115.789 7.15982 115.159 6.12101L112.86 2.30137H111.064C112.434 4.49087 114.923 8.6621 116.072 10.6279H117.111L116.828 11.1393C116.261 12.1621 115.899 12.3699 114.97 12.3699C114.371 12.3699 113.883 12.3539 113.379 12.3219L113.332 13.7603C113.915 13.7922 114.639 13.8242 115.017 13.8242C116.623 13.8242 117.489 13.3128 118.214 11.8584Z" fill="#535559"/>
<path fill-rule="evenodd" clip-rule="evenodd" d="M3.9375 0.833008H12.3032V2.3313H3.9375V0.833008Z" fill="#535559"/>
<path fill-rule="evenodd" clip-rule="evenodd" d="M0 0.833008H1.57472V2.3313H0V0.833008Z" fill="#535559"/>
<path fill-rule="evenodd" clip-rule="evenodd" d="M3.9375 5.82739H12.3032V7.32568H3.9375V5.82739Z" fill="#535559"/>
<path fill-rule="evenodd" clip-rule="evenodd" d="M0 5.82739H1.57472V7.32568H0V5.82739Z" fill="#535559"/>
<path fill-rule="evenodd" clip-rule="evenodd" d="M3.9375 10.8215H12.3032V12.3198H3.9375V10.8215Z" fill="#535559"/>
<path fill-rule="evenodd" clip-rule="evenodd" d="M0 10.8215H1.57472V12.3198H0V10.8215Z" fill="#535559"/>
</svg>
