<svg width="112" height="14" viewBox="0 0 112 14" fill="none" xmlns="http://www.w3.org/2000/svg">
<path d="M1.06849 11.6356H2.63136L3.58821 9.1H8.97851L8.02165 11.6356H9.58452C9.90347 10.7956 10.2224 9.94 10.5414 9.1H12.9495V7.66889H11.0676C11.4663 6.62667 11.8491 5.6 12.2478 4.55778H14.8153V3.12667H12.774C13.093 2.28667 13.4119 1.43111 13.7309 0.591111H12.168L11.2112 3.12667H5.82088L6.77774 0.591111H5.21487C4.89592 1.43111 4.57697 2.28667 4.25801 3.12667H1.86587V4.55778H3.73174C3.33305 5.6 2.95031 6.62667 2.55162 7.66889H0V9.1H2.02535C1.7064 9.94 1.38744 10.7956 1.06849 11.6356ZM4.11449 7.66889L5.29461 4.55778H10.6849L9.50478 7.66889H4.11449Z" fill="#535559"/>
<path d="M23.114 11.6356H24.8044C24.7885 10.7956 24.7885 10.5 24.7885 9.11556V6.65778H34.1178V9.13111C34.1178 10.3289 34.1178 10.8578 34.1019 11.6356H35.7923C35.7764 10.7956 35.7764 10.5 35.7764 9.11556V2.61333C35.7764 1.78889 35.7764 1.33778 35.7923 0.591111H34.1019C34.1178 1.33778 34.1178 1.78889 34.1178 2.61333V5.19556H24.7885V2.61333C24.7885 1.78889 24.7885 1.33778 24.8044 0.591111H23.114C23.1299 1.33778 23.1299 1.78889 23.1299 2.61333V9.13111C23.1299 10.3289 23.1299 10.8578 23.114 11.6356Z" fill="#535559"/>
<path d="M43.5143 11.8222C45.9862 11.8222 47.3896 11.34 48.0913 10.5778L48.1072 11.6356H49.5425C49.5266 10.4067 49.5266 9.61333 49.5266 8.68C49.5266 7.37333 49.5425 6.78222 49.5425 5.55333C49.5425 3.42222 48.7292 2.42667 44.0087 2.42667C39.7188 2.42667 38.746 3.31333 38.7779 5.19556L40.3886 5.24222C40.3726 4.16889 40.7554 3.81111 44.0087 3.81111C47.3736 3.81111 47.9318 4.29333 47.9318 5.84889V6.95333C47.1823 6.37778 45.8108 6.03556 43.5143 6.03556C39.3201 6.03556 38.4111 6.89111 38.4111 8.96C38.4111 10.9822 39.2723 11.8222 43.5143 11.8222ZM43.9768 10.4689C40.7235 10.4689 40.0537 10.08 40.0537 8.96C40.0537 7.80889 40.4843 7.32667 43.9768 7.32667C47.4055 7.32667 47.9637 7.79333 47.9637 8.49333V8.97556C47.9637 9.98667 47.4055 10.4689 43.9768 10.4689Z" fill="#535559"/>
<path d="M57.1745 11.8222C61.8152 11.8222 62.4053 11.1067 62.4053 9.24C62.4053 7.38889 61.8312 6.70445 57.0469 6.31556C53.6181 6.03556 53.3789 5.75556 53.3789 4.97778C53.3789 4.15333 53.8733 3.82667 56.8715 3.82667C59.9174 3.82667 60.3959 4.18444 60.3959 5.13333V5.36667L62.0385 5.32C62.0385 3.15778 61.257 2.42667 56.9352 2.42667C52.6772 2.42667 51.8479 3.18889 51.8479 5.08667C51.8479 6.92222 52.5496 7.51333 56.7917 7.85556C60.4916 8.15111 60.7786 8.44667 60.7786 9.31778C60.7786 10.1578 60.4437 10.5156 57.2382 10.5156C53.8414 10.5156 53.347 10.1578 53.347 8.89778V8.64889L51.7363 8.69556C51.7363 11.3089 52.5656 11.8222 57.1745 11.8222Z" fill="#535559"/>
<path d="M64.6156 9.17778C64.6156 10.3133 64.6156 10.8733 64.5997 11.6356H66.2263C66.2104 10.8578 66.2104 10.1889 66.2104 9.14667V6.96889C66.2104 4.60444 66.9599 3.87333 70.0857 3.87333C73.323 3.87333 73.929 4.66667 73.929 6.73556V9.17778C73.929 10.2822 73.929 10.8422 73.9131 11.6356H75.5398C75.5238 10.7489 75.5238 10.0178 75.5238 9.20889V8.21333C75.5238 7.28 75.5398 6.90667 75.5398 6.26889C75.5398 3.53111 74.7264 2.42667 70.5163 2.42667C68.2995 2.42667 66.928 2.90889 66.1626 3.87333C66.1945 2.81556 66.2423 0.264445 66.2423 0H64.5997C64.6156 0.668889 64.6156 1.49333 64.6156 2.61333V9.17778Z" fill="#535559"/>
<path d="M78.9088 6.03556C78.9088 6.79778 78.8929 7.68444 78.8929 8.36889C78.8929 11.0444 79.7381 11.7133 83.5017 11.7133C84.2034 11.7133 84.7935 11.6822 85.2879 11.6356L85.2719 10.22C84.6659 10.2511 84.2991 10.2667 83.5815 10.2667C81.1415 10.2667 80.5036 10.0333 80.5036 8.15111V4.02889H85.2719V2.61333H80.5036C80.5036 1.83556 80.5036 1.21333 80.5195 0.84L78.8929 0.871111C78.9088 1.58667 78.9088 2.1 78.9088 2.61333C78.3985 2.61333 77.8882 2.62889 77.2343 2.61333V4.02889H78.9088V6.03556Z" fill="#535559"/>
<path d="M92.1203 11.8222C94.5922 11.8222 95.9956 11.34 96.6973 10.5778L96.7132 11.6356H98.1485C98.1325 10.4067 98.1325 9.61333 98.1325 8.68C98.1325 7.37333 98.1485 6.78222 98.1485 5.55333C98.1485 3.42222 97.3352 2.42667 92.6147 2.42667C88.3248 2.42667 87.352 3.31333 87.3839 5.19556L88.9946 5.24222C88.9786 4.16889 89.3614 3.81111 92.6147 3.81111C95.9796 3.81111 96.5378 4.29333 96.5378 5.84889V6.95333C95.7882 6.37778 94.4168 6.03556 92.1203 6.03556C87.9261 6.03556 87.0171 6.89111 87.0171 8.96C87.0171 10.9822 87.8782 11.8222 92.1203 11.8222ZM92.5828 10.4689C89.3295 10.4689 88.6597 10.08 88.6597 8.96C88.6597 7.80889 89.0902 7.32667 92.5828 7.32667C96.0115 7.32667 96.5697 7.79333 96.5697 8.49333V8.97556C96.5697 9.98667 96.0115 10.4689 92.5828 10.4689Z" fill="#535559"/>
<path d="M105.972 10.7333C108.268 10.7333 109.656 10.2356 110.421 9.34889L110.405 10.2356C110.373 11.8378 109.767 12.5844 105.972 12.5844C102.734 12.5844 102.176 12.1489 102.176 11.2311L100.629 11.2933C100.629 13.3467 101.698 14 105.972 14C110.82 14 112 13.0822 112 10.4378C112 9.22445 111.984 8.29111 111.984 6.96889V4.63556C111.984 3.87333 111.984 3.28222 112 2.61333H110.517L110.501 3.81111C109.735 2.90889 108.332 2.42667 105.956 2.42667C101.937 2.42667 100.374 3.18889 100.374 6.50222V6.65778C100.374 9.97111 102.017 10.7333 105.972 10.7333ZM102.001 6.65778V6.50222C102.001 4.51111 102.91 3.84222 106.243 3.84222C109.656 3.84222 110.373 4.49556 110.389 6.50222C110.389 8.49333 109.592 9.31778 106.259 9.31778C102.75 9.31778 102.001 8.64889 102.001 6.65778Z" fill="#535559"/>
</svg>
