<svg width="124" height="21" viewBox="0 0 124 21" fill="none" xmlns="http://www.w3.org/2000/svg">
<path d="M24.4303 0.898648H20.8203C20.6876 1.75 20.4753 2.79054 20.2629 3.94932L18.9357 10.5709C18.219 14.1892 16.8653 15.1588 10.4948 15.1588C4.09772 15.1588 3.14215 14.1892 3.85883 10.5709L5.18602 3.92568C5.39837 2.79054 5.61072 1.75 5.82307 0.898648H2.23966C2.10694 1.7027 1.89458 2.69595 1.65569 3.92568L1.28408 5.77027C1.01864 7.0473 0.673568 8.7027 0.248866 10.8547C-0.812887 16.152 1.33716 18.0203 10.309 18.0203C19.3073 18.0203 21.4043 16.152 22.4395 10.8547C22.8642 8.7027 23.1827 7.0473 23.4216 5.77027L23.7667 3.97297C24.0321 2.69595 24.2445 1.7027 24.4303 0.898648Z" fill="#F2F2F2"/>
<path d="M25.4396 17.6892C25.1476 19.1081 24.9087 20.2905 24.7495 21H28.2798C28.439 20.0068 28.8107 18.0912 29.315 15.6554C30.2971 17.1926 32.5003 17.973 36.3226 17.973C43.4894 17.973 45.4537 16.4595 46.5154 11.1622L46.6481 10.4527C47.6568 5.2027 45.7191 3.64189 38.685 3.64189C34.8892 3.64189 32.5533 4.4223 31.0669 5.95946L31.465 3.92568H28.1471C27.9613 4.91892 27.7755 5.79392 27.5631 6.92905L25.4396 17.6892ZM30.2175 10.902L30.2706 10.7128C30.9076 7.40203 32.1817 6.43243 37.517 6.43243C42.8789 6.43243 43.7814 7.28378 43.1178 10.7128L43.0647 10.902C42.3746 14.3074 41.1535 15.1824 35.659 15.1824C30.4564 15.1824 29.5539 14.2365 30.2175 10.902Z" fill="#F2F2F2"/>
<path d="M49.4889 13.7162C49.1439 15.4426 48.9315 16.6014 48.6661 17.6892H52.1699C52.3557 16.6014 52.5946 15.4426 52.9131 13.7399L54.8508 3.94932C55.1959 2.27027 55.4348 0.993243 55.6737 0H52.1699C51.9841 1.01689 51.7452 2.27027 51.4266 3.92568L49.4889 13.7162Z" fill="#F2F2F2"/>
<path d="M65.8095 17.973C73.7195 17.973 75.7103 16.4122 76.7455 11.1622L76.8783 10.4527C77.9135 5.2027 75.8696 3.64189 67.9861 3.64189C60.076 3.64189 58.0852 5.2027 57.05 10.4527L56.9173 11.1622C55.8821 16.4122 57.9259 17.973 65.8095 17.973ZM65.9953 15.2297C60.5803 15.2297 59.784 14.3311 60.4476 10.902L60.4741 10.7128C61.1643 7.26014 62.3322 6.38514 67.7737 6.38514C73.1887 6.38514 74.0381 7.26014 73.3214 10.7128L73.2948 10.902C72.6312 14.3311 71.4368 15.2297 65.9953 15.2297Z" fill="#F2F2F2"/>
<path d="M86.5354 17.973C90.7824 17.973 93.1449 17.2399 94.4455 15.9865L94.1535 17.6892H97.2857C97.6308 15.8209 97.8697 14.6149 98.1616 13.1959C98.5863 11.0203 98.7721 10.2162 99.1438 8.34797C99.7808 5.13176 98.3209 3.64189 90.3312 3.64189C83.0316 3.64189 81.3328 4.89527 80.7754 8.01689L84.0934 8.08784C84.3588 6.62162 84.9959 6.14865 90.0923 6.14865C95.3214 6.14865 95.985 6.81081 95.5603 8.98649L95.2418 10.5946C94.2597 9.6723 92.1362 9.17568 88.1812 9.17568C81.3063 9.17568 79.634 10.4764 78.997 13.6216C78.413 16.7196 79.6075 17.973 86.5354 17.973ZM88.1812 15.5845C83.0582 15.5845 82.2088 15.0642 82.5008 13.5507C82.7927 12.0135 83.5625 11.375 89.0571 11.375C94.3393 11.375 95.056 11.9899 94.8437 12.9831L94.7375 13.5743C94.472 14.9459 93.4899 15.5845 88.1812 15.5845Z" fill="#F2F2F2"/>
<path d="M109.958 17.973C113.781 17.973 116.116 17.1689 117.603 15.6081L117.231 17.6892H120.496C120.709 16.5304 120.868 15.7264 121.213 13.9054L123.177 3.92568C123.522 2.22297 123.761 0.993243 124 0H120.443C120.284 0.993243 119.806 3.52365 119.328 5.93581C118.32 4.4223 116.116 3.64189 112.294 3.64189C105.154 3.64189 103.163 5.15541 102.128 10.4527L101.995 11.1622C100.96 16.4122 102.924 17.973 109.958 17.973ZM111.126 15.1824C105.738 15.1824 104.862 14.3074 105.525 10.902L105.552 10.7128C106.242 7.28378 107.49 6.43243 112.984 6.43243C118.187 6.43243 119.089 7.37838 118.426 10.7128L118.373 10.902C117.709 14.2128 116.435 15.1824 111.126 15.1824Z" fill="#F2F2F2"/>
</svg>
