<svg width="180" height="14" viewBox="0 0 180 14" fill="none" xmlns="http://www.w3.org/2000/svg">
<path d="M8.944 13C10.048 10.728 13.456 3.816 14.592 1.64H12.848L10.064 7.32C9.36 8.76 8.64 10.248 8.096 11.4H6.752C6.208 10.248 5.52 8.792 4.832 7.336L2.128 1.64H0.256C1.344 3.816 4.688 10.744 5.76 13H8.944ZM20.2825 13.192C24.9545 13.192 25.8345 12.264 25.8345 10.04L24.2505 9.976C24.2505 11.176 23.8185 11.768 20.2985 11.768C16.8905 11.768 16.1225 11.144 16.0425 8.984H25.8345C25.8345 8.712 25.8505 8.376 25.8345 8.12C25.7865 4.584 24.7305 3.528 20.1705 3.528C15.6105 3.528 14.3945 4.584 14.3945 8.12V8.6C14.3945 12.136 15.6105 13.192 20.2825 13.192ZM20.1705 4.92C23.4505 4.92 24.0745 5.56 24.1385 7.608H16.0425C16.1545 5.496 16.9545 4.92 20.1705 4.92ZM28.1279 10.44C28.1279 11.704 28.1279 12.328 28.1119 13H29.7439C29.7279 12.328 29.7279 11.736 29.7279 10.44V8.296C29.7279 5.608 30.4799 5.016 33.2319 5.016C36.0319 5.016 36.3519 5.4 36.3519 7.208V7.528L37.8879 7.496C37.9039 7.256 37.9039 7.016 37.9039 6.824C37.9039 4.168 37.1839 3.528 33.6159 3.528C31.6319 3.528 30.3519 4.04 29.6319 5.08L29.5999 3.72H28.1119C28.1279 4.344 28.1279 4.92 28.1279 6.104V10.44ZM40.0501 1.288V2.776H41.6821V1.288H40.0501ZM40.0661 10.488C40.0661 11.56 40.0661 12.296 40.0501 13H41.6821C41.6661 12.296 41.6661 11.56 41.6661 10.504V6.424C41.6661 5.272 41.6661 4.408 41.6821 3.72H40.0501C40.0661 4.408 40.0661 5.272 40.0661 6.408V10.488ZM45.0763 7.608C45.0763 8.888 45.0763 11.736 45.0603 13H46.6923C46.6763 12.296 46.6763 11.384 46.6763 10.44V5.176H49.1403V3.72H46.6763V3.576C46.6763 2.632 46.9483 2.408 47.6683 2.376C48.2603 2.344 48.9483 2.312 49.3643 2.312L49.3163 0.936C48.9803 0.952 48.1163 0.967999 47.3483 1.016C45.7003 1.112 45.0603 1.624 45.0603 3.416C45.0603 3.512 45.0603 3.608 45.0603 3.72H43.5403L43.4763 5.176H45.0603C45.0763 5.976 45.0763 6.856 45.0763 7.608ZM50.8314 1.288V2.776H52.4634V1.288H50.8314ZM50.8474 10.488C50.8474 11.56 50.8474 12.296 50.8314 13H52.4634C52.4474 12.296 52.4474 11.56 52.4474 10.504V6.424C52.4474 5.272 52.4474 4.408 52.4634 3.72H50.8314C50.8474 4.408 50.8474 5.272 50.8474 6.408V10.488ZM60.5455 13.192C65.1055 13.192 66.1935 12.152 66.1935 9.4L64.6095 9.352C64.6095 11.016 63.9375 11.704 60.5455 11.704C57.0895 11.704 56.4015 11.032 56.4015 8.44V8.28C56.4015 5.688 57.0895 5.016 60.5455 5.016C63.9375 5.016 64.5775 5.736 64.5775 7.368L66.1615 7.32C66.1615 4.488 65.1215 3.528 60.5455 3.528C56.0495 3.528 54.7695 4.584 54.7695 8.12V8.6C54.7695 12.136 56.0655 13.192 60.5455 13.192ZM73.1448 13.192C75.6248 13.192 77.0328 12.696 77.7368 11.912L77.7528 13H79.1928C79.1768 11.736 79.1768 10.92 79.1768 9.96C79.1768 8.616 79.1928 8.008 79.1928 6.744C79.1928 4.552 78.3768 3.528 73.6408 3.528C69.3368 3.528 68.3608 4.44 68.3928 6.376L70.0088 6.424C69.9928 5.32 70.3768 4.952 73.6408 4.952C77.0168 4.952 77.5768 5.448 77.5768 7.048V8.184C76.8248 7.592 75.4488 7.24 73.1448 7.24C68.9368 7.24 68.0247 8.12 68.0247 10.248C68.0247 12.328 68.8888 13.192 73.1448 13.192ZM73.6088 11.8C70.3448 11.8 69.6728 11.4 69.6728 10.248C69.6728 9.064 70.1048 8.568 73.6088 8.568C77.0488 8.568 77.6088 9.048 77.6088 9.768V10.264C77.6088 11.304 77.0488 11.8 73.6088 11.8ZM82.5618 7.24C82.5618 8.024 82.5458 8.936 82.5458 9.64C82.5458 12.392 83.3938 13.08 87.1698 13.08C87.8738 13.08 88.4658 13.048 88.9618 13L88.9458 11.544C88.3378 11.576 87.9698 11.592 87.2498 11.592C84.8018 11.592 84.1618 11.352 84.1618 9.416V5.176H88.9458V3.72H84.1618C84.1618 2.92 84.1618 2.28 84.1778 1.896L82.5458 1.928C82.5618 2.664 82.5618 3.192 82.5618 3.72C82.0498 3.72 81.5378 3.736 80.8818 3.72V5.176H82.5618V7.24ZM91.1126 1.288V2.776H92.7446V1.288H91.1126ZM91.1286 10.488C91.1286 11.56 91.1286 12.296 91.1126 13H92.7446C92.7286 12.296 92.7286 11.56 92.7286 10.504V6.424C92.7286 5.272 92.7286 4.408 92.7446 3.72H91.1126C91.1286 4.408 91.1286 5.272 91.1286 6.408V10.488ZM100.891 13.192C105.515 13.192 106.731 12.136 106.731 8.6V8.12C106.731 4.584 105.515 3.528 100.891 3.528C96.2668 3.528 95.0508 4.584 95.0508 8.12V8.6C95.0508 12.136 96.2668 13.192 100.891 13.192ZM100.891 11.704C97.3708 11.704 96.6828 11.032 96.6828 8.44V8.28C96.6828 5.688 97.3708 5.016 100.891 5.016C104.411 5.016 105.099 5.688 105.099 8.28V8.44C105.099 11.032 104.411 11.704 100.891 11.704ZM109.019 10.44C109.019 11.704 109.019 12.328 109.003 13H110.635C110.619 12.328 110.619 11.736 110.619 10.44V8.2C110.619 5.768 111.371 5.016 114.507 5.016C117.755 5.016 118.363 5.832 118.363 7.96V10.456C118.363 11.816 118.363 12.28 118.347 13H119.979C119.963 12.248 119.963 11.608 119.963 10.456V9.48C119.963 8.52 119.979 8.136 119.979 7.48C119.979 4.664 119.163 3.528 114.939 3.528C112.667 3.528 111.275 4.04 110.523 5.08L110.491 3.72H109.003C109.019 4.344 109.019 4.92 109.019 6.104V10.44ZM133.952 13.192C138.512 13.192 139.6 12.152 139.6 9.4L138.016 9.352C138.016 11.016 137.344 11.704 133.952 11.704C130.496 11.704 129.808 11.032 129.808 8.44V8.28C129.808 5.688 130.496 5.016 133.952 5.016C137.344 5.016 137.984 5.736 137.984 7.368L139.568 7.32C139.568 4.488 138.528 3.528 133.952 3.528C129.456 3.528 128.176 4.584 128.176 8.12V8.6C128.176 12.136 129.472 13.192 133.952 13.192ZM147.047 13.192C151.671 13.192 152.887 12.136 152.887 8.6V8.12C152.887 4.584 151.671 3.528 147.047 3.528C142.423 3.528 141.207 4.584 141.207 8.12V8.6C141.207 12.136 142.423 13.192 147.047 13.192ZM147.047 11.704C143.527 11.704 142.839 11.032 142.839 8.44V8.28C142.839 5.688 143.527 5.016 147.047 5.016C150.567 5.016 151.255 5.688 151.255 8.28V8.44C151.255 11.032 150.567 11.704 147.047 11.704ZM160.071 13.192C162.487 13.192 163.927 12.664 164.695 11.592L164.727 13H166.215C166.199 12.216 166.199 11.672 166.199 10.44V3.72C166.199 2.536 166.199 1.72 166.215 1.032H164.551C164.567 1.688 164.583 3.352 164.583 4.968C163.783 3.992 162.407 3.528 160.167 3.528C155.783 3.528 154.551 4.584 154.551 8.12V8.6C154.551 12.136 155.783 13.192 160.071 13.192ZM160.391 11.704C156.887 11.704 156.183 11.032 156.183 8.44V8.28C156.183 5.688 156.887 5.016 160.471 5.016C163.879 5.016 164.599 5.752 164.599 8.296V8.424C164.599 10.952 163.879 11.704 160.391 11.704ZM174.376 13.192C179.048 13.192 179.928 12.264 179.928 10.04L178.344 9.976C178.344 11.176 177.912 11.768 174.392 11.768C170.984 11.768 170.216 11.144 170.136 8.984H179.928C179.928 8.712 179.944 8.376 179.928 8.12C179.88 4.584 178.824 3.528 174.264 3.528C169.704 3.528 168.488 4.584 168.488 8.12V8.6C168.488 12.136 169.704 13.192 174.376 13.192ZM174.264 4.92C177.544 4.92 178.168 5.56 178.232 7.608H170.136C170.248 5.496 171.048 4.92 174.264 4.92Z" fill="#9EA1AB"/>
</svg>
