<svg width="362" height="128" viewBox="0 0 362 128" fill="none" xmlns="http://www.w3.org/2000/svg">
<path d="M157.065 103.822C154.059 90.4789 162.438 77.2246 175.781 74.2178L326.464 40.2623C339.807 37.2555 353.061 45.6348 356.068 58.978C359.075 72.3213 350.696 85.5756 337.352 88.5825L186.67 122.538C173.327 125.545 160.072 117.165 157.065 103.822Z" fill="url(#paint0_linear_398_6408)" fill-opacity="0.8"/>
<path d="M190.294 100.61L190.221 99.0366C192.74 98.4922 196.612 97.6197 198.57 97.1784C204.022 95.9499 205.041 94.0368 204.856 90.1034C204.649 86.175 202.846 84.921 197.394 86.1496L186.691 88.5616C186.746 89.5313 186.788 90.5505 186.877 91.9803L187.33 101.255C187.397 102.9 187.434 103.897 187.47 104.988L190.474 104.311C190.411 103.203 190.361 102.255 190.294 100.61ZM197.82 88.766C200.891 88.074 201.68 88.6679 201.785 90.7954C201.89 92.9229 201.161 93.8355 198.09 94.5276L190.079 96.3328L189.809 90.5712L197.82 88.766Z" fill="#0D0E11"/>
<path d="M207.823 96.6601C207.909 98.3943 207.959 99.3417 207.98 100.366L210.917 99.7041C210.83 98.6948 210.79 97.7919 210.716 96.0082L210.571 93.1881C210.397 89.5095 211.267 88.495 214.917 87.6726C218.499 86.8653 218.971 87.2968 219.087 89.6791L219.093 90.122L221.887 89.4457C221.86 88.9138 221.847 88.5427 221.846 88.1221C221.661 84.399 220.578 83.6377 215.749 84.7259C212.812 85.3878 211.086 86.5483 210.203 88.3373L210.068 86.2866L207.353 86.8984C207.415 87.7963 207.45 88.6771 207.529 90.2727L207.823 96.6601Z" fill="#0D0E11"/>
<path d="M232.692 95.0779C239.323 93.5835 240.661 91.7388 240.416 86.6031L240.376 85.9104C240.131 80.7748 238.087 79.6922 231.478 81.1815C224.846 82.6759 223.508 84.5206 223.754 89.6563L223.793 90.3489C224.038 95.4846 226.083 96.5672 232.692 95.0779ZM232.266 92.4614C227.726 93.4844 226.868 92.7892 226.697 89.4372L226.679 89.2542C226.526 85.8749 227.319 84.8309 231.881 83.803C236.421 82.78 237.318 83.4429 237.45 86.8272L237.468 87.0102C237.638 90.3622 236.828 91.4335 232.266 92.4614Z" fill="#0D0E11"/>
<path d="M250.623 91.0371C253.828 90.315 255.615 89.1171 256.531 87.3676L256.66 89.396L259.397 88.7793C259.33 87.6488 259.293 86.8621 259.196 85.0834L258.727 75.3217C258.655 73.6543 258.594 72.4521 258.584 71.4723L255.602 72.1443C255.679 73.109 255.815 75.5803 255.926 77.9403C254.76 76.7067 252.747 76.3885 249.543 77.1106C243.557 78.4595 242.209 80.2598 242.464 85.44L242.503 86.1326C242.749 91.2683 244.726 92.3659 250.623 91.0371ZM251.011 88.1906C246.493 89.2085 245.574 88.5507 245.408 85.2209L245.39 85.0379C245.241 81.6809 246.107 80.6441 250.713 79.6061C255.075 78.6232 256.032 79.3429 256.182 82.6058L256.178 82.7939C256.324 86.0346 255.461 87.1877 251.011 88.1906Z" fill="#0D0E11"/>
<path d="M262.567 79.6004C262.631 81.1293 262.655 81.7552 262.703 82.7966C262.873 86.6633 264.42 87.9279 270.05 86.6593C273.032 85.9873 274.793 84.7722 275.703 83.0005L275.843 85.0734L278.558 84.4616C278.49 83.5414 278.461 82.683 278.382 81.0874L278.088 74.6999C277.996 72.9435 277.951 72.0183 277.931 70.9941L274.994 71.656C275.081 72.6652 275.121 73.5682 275.195 75.3518L275.345 78.4045C275.501 81.6897 274.599 82.8751 270.638 83.7677C266.477 84.7054 265.678 83.8566 265.53 80.9202L265.372 77.5187C265.277 75.646 265.238 74.9534 265.225 73.8574L262.287 74.5193C262.377 75.6448 262.432 76.6145 262.501 78.1656L262.567 79.6004Z" fill="#0D0E11"/>
<path d="M289.974 82.1696C296.516 80.6954 297.654 78.8957 297.473 74.7743L294.61 75.3494C294.72 77.4991 293.91 78.5704 289.526 79.5582C285.053 80.5661 284.195 79.871 284.024 76.519L284.006 76.3359C283.853 72.9567 284.646 71.9127 289.119 70.9048C293.503 69.9169 294.344 70.6393 294.449 72.7668L294.444 72.7446L297.299 72.0309C297.116 67.7932 295.235 66.8141 288.693 68.2883C282.24 69.7426 280.835 71.6024 281.08 76.738L281.12 77.4307C281.365 82.5663 283.543 83.6188 289.974 82.1696Z" fill="#0D0E11"/>
<path d="M308.426 78.0115C315.102 76.5071 316.035 74.9407 315.877 71.5392L313.008 72.092C313.082 73.6654 312.575 74.5279 308.013 75.5559C303.718 76.5237 302.702 75.9576 302.424 73.1676L315.798 70.1538C315.79 69.805 315.789 69.3844 315.755 68.9243C315.433 63.9695 313.554 62.686 307.079 64.1452C300.581 65.6095 299.176 67.4693 299.421 72.605L299.461 73.2976C299.693 78.2725 301.817 79.5008 308.426 78.0115ZM307.447 66.4006C311.652 65.4529 312.495 66.0813 312.706 68.6761L302.336 71.0128C302.373 68.2689 303.352 67.3233 307.447 66.4006Z" fill="#0D0E11"/>
<path d="M318.76 71.661C318.847 73.3951 318.897 74.3426 318.917 75.3668L321.855 74.7049C321.767 73.6957 321.728 72.7927 321.653 71.0091L321.509 68.189C321.334 64.5104 322.205 63.4958 325.854 62.6735C329.437 61.8661 329.908 62.2977 330.024 64.68L330.03 65.1228L332.824 64.4465C332.798 63.9146 332.784 63.5436 332.783 63.123C332.599 59.3999 331.515 58.6386 326.687 59.7267C323.749 60.3886 322.023 61.5492 321.14 63.3382L321.006 61.2875L318.291 61.8993C318.353 62.7972 318.388 63.6779 318.467 65.2735L318.76 71.661Z" fill="#0D0E11"/>
<path fill-rule="evenodd" clip-rule="evenodd" d="M33.565 78.4924C29.5097 77.8444 25.8487 75.6887 23.3149 72.4567L5.04938 49.1583C-0.802159 41.6944 0.93401 30.8295 8.82016 25.5609L33.4367 9.11488C36.8515 6.83349 41.002 5.92598 45.0574 6.57401L176.277 27.5425C180.333 28.1905 183.993 30.3463 186.527 33.5782L204.793 56.8766C210.644 64.3405 208.908 75.2054 201.022 80.4741L176.405 96.92C172.991 99.2014 168.84 100.109 164.785 99.4609L33.565 78.4924Z" fill="#E965FF"/>
<path d="M56.7931 57.9428C60.7122 53.61 72.2842 40.9217 76.0842 36.9096L71.1162 36.1157L62.0686 46.1844C59.825 48.747 57.5045 51.3652 55.6277 53.5448L52.5807 53.0579C52.343 50.5064 52.0192 47.4317 51.6847 44.4232L50.3166 32.792L45.6797 32.0511C46.3841 36.783 48.2921 51.6254 48.9104 56.6832L56.7931 57.9428Z" fill="#0D0E11"/>
<path d="M80.1234 62.0785C89.9932 63.6557 92.8266 61.8667 95.2932 54.7204L95.6176 53.7532C98.0842 46.6069 95.8833 44.0135 86.0465 42.4416C76.1767 40.8644 73.3433 42.6534 70.8767 49.7997L70.5523 50.7669C68.0857 57.9132 70.2867 60.5066 80.1234 62.0785ZM80.9692 58.2736C74.2126 57.1939 73.4201 55.7766 75.0155 51.1065L75.091 50.8468C76.7248 46.1488 78.378 45.1562 85.1676 46.2412C91.9242 47.3209 92.7882 48.7157 91.1212 53.4084L91.0458 53.668C89.4504 58.3382 87.7588 59.3586 80.9692 58.2736Z" fill="#0D0E11"/>
<path d="M107.905 66.518C117.643 68.074 120.178 66.2374 122.18 60.5113L117.956 59.7345C116.934 62.73 115.243 63.7504 108.718 62.7078C102.061 61.644 101.268 60.2266 102.864 55.5565L102.939 55.2968C104.573 50.5989 106.226 49.6063 112.883 50.6701C119.408 51.7127 120.162 53.1579 119.145 56.1203L119.151 56.0872L123.439 56.6705C125.501 50.7842 123.467 48.4212 113.729 46.8652C104.124 45.3304 101.192 47.1035 98.7249 54.2498L98.4006 55.2169C95.9339 62.3632 98.3336 64.9885 107.905 66.518Z" fill="#0D0E11"/>
<path d="M133.283 70.5732C138.582 71.42 141.694 70.8643 143.597 69.3683L142.852 71.6947L146.76 72.3192C147.609 69.7715 148.177 68.13 148.859 66.201C149.875 63.2386 150.287 62.1496 151.169 59.6072C152.684 55.2298 151.195 52.8522 141.226 51.2591C132.118 49.8037 129.718 51.2203 128.324 55.4811L132.448 56.242C133.107 54.2415 134.008 53.7061 140.367 54.7222C146.892 55.7649 147.572 56.8246 146.555 59.7869L145.798 61.9756C144.779 60.4881 142.24 59.3692 137.305 58.5806C128.727 57.2098 126.349 58.698 124.85 62.976C123.428 67.1983 124.638 69.1919 133.283 70.5732ZM135.871 67.5562C129.479 66.5347 128.535 65.6367 129.238 63.5753C129.947 61.4806 131.05 60.7399 137.906 61.8354C144.497 62.8886 145.253 63.8927 144.766 65.2414L144.501 66.0482C143.863 67.9163 142.495 68.6147 135.871 67.5562Z" fill="#0D0E11"/>
<path d="M154.122 67.7893C153.305 70.1383 152.78 71.7188 152.206 73.1894L156.578 73.8881C157.053 72.4016 157.61 70.8263 158.389 68.5052L162.998 55.1797C163.804 52.897 164.388 51.1561 164.908 49.8127L160.536 49.1141C160.077 50.5012 159.498 52.2089 158.731 54.4638L154.122 67.7893Z" fill="#0D0E11"/>
<defs>
<linearGradient id="paint0_linear_398_6408" x1="282.243" y1="99.2822" x2="183.142" y2="73.1194" gradientUnits="userSpaceOnUse">
<stop stop-color="#43FF8E"/>
<stop offset="1" stop-color="#43FF8E" stop-opacity="0.05"/>
</linearGradient>
</defs>
</svg>
