<svg width="84" height="84" viewBox="0 0 84 84" fill="none" xmlns="http://www.w3.org/2000/svg">
<circle cx="42" cy="42" r="41" stroke="white" stroke-width="2"/>
<path d="M55.8769 39.2227L55.8797 39.2244C56.6597 39.6966 57.2273 40.7614 57.2273 42.0301C57.2273 43.2763 56.6564 44.3075 55.8602 44.7894L55.8574 44.7911L35.9433 56.9332L35.9433 56.9332L35.9376 56.9367C35.6186 57.1341 35.2579 57.2272 34.9066 57.2272C34.5323 57.2272 34.1114 57.0965 33.7209 56.8143L33.7188 56.8127C32.9899 56.2889 32.5 55.3184 32.5 54.149V29.8417C32.5 28.6723 32.9899 27.7018 33.7188 27.1779C34.4262 26.6695 35.238 26.642 35.9641 27.0815C35.9644 27.0817 35.9648 27.0819 35.9651 27.0821L55.8769 39.2227Z" stroke="white" stroke-width="2"/>
</svg>
