<svg width="40" height="40" viewBox="0 0 40 40" fill="none" xmlns="http://www.w3.org/2000/svg">
<g clip-path="url(#clip0_398_6440)">
<path fill-rule="evenodd" clip-rule="evenodd" d="M9.50204 27.5357C8.24977 25.3815 7.62646 22.9193 7.70282 20.4287C7.77508 18.0108 8.57108 15.6702 9.98789 13.7096C11.373 11.8008 13.3269 10.3794 15.5695 9.64922L15.8935 9.55013C15.1175 11.122 14.687 12.8418 14.631 14.5939C14.5546 17.0845 15.178 19.5466 16.4302 21.7009C18.0783 24.589 20.7589 26.7458 23.9328 27.7374C26.1031 28.4102 28.4223 28.436 30.607 27.8114C29.6209 29.8103 28.0666 31.4735 26.1389 32.5925C23.3623 34.1734 20.0533 34.5283 17.0046 33.5723C13.8307 32.5807 11.1501 30.4238 9.50204 27.5357Z" stroke="white" stroke-width="1.5" stroke-linecap="round" stroke-linejoin="round"/>
<path d="M21.4355 16.1108H24.1861L21.4355 18.8614H24.1861" stroke="white" stroke-linecap="round" stroke-linejoin="round"/>
<path d="M25.8828 9.85352H30.5576L25.8828 14.5283H30.5576" stroke="white" stroke-linecap="round" stroke-linejoin="round"/>
</g>
<defs>
<clipPath id="clip0_398_6440">
<rect width="33" height="33" fill="white" transform="translate(3 3)"/>
</clipPath>
</defs>
</svg>
