<svg width="448" height="86" viewBox="0 0 448 86" fill="none" xmlns="http://www.w3.org/2000/svg">
<path d="M2.33426 24.3219C1.83026 27.1359 1.57826 28.6899 1.11626 30.9999H17.8743C32.2383 30.9999 35.8503 27.6819 37.8663 16.3419L37.9503 15.8379C39.7563 5.00186 36.2703 1.17986 21.9483 1.17986H6.36626C6.07226 3.19586 5.82026 4.49786 5.44226 6.76586L2.33426 24.3219ZM21.9063 5.12786C33.2883 5.12786 35.0103 7.35386 33.5403 15.8379L33.4563 16.3419C31.9443 24.8259 29.4243 27.0519 18.0003 27.0519H6.24026L10.0623 5.12786H21.9063Z" fill="#313338"/>
<path d="M46.9698 0.255859L46.2978 4.16186H50.5818L51.2538 0.255859H46.9698ZM42.7698 24.4059C42.2658 27.2199 41.9298 29.1519 41.5518 30.9999H45.8358C46.1298 29.1519 46.4658 27.2199 46.9698 24.4479L48.8178 13.7379C49.3638 10.7139 49.7838 8.44586 50.1198 6.63986H45.8358C45.5838 8.44586 45.1638 10.7139 44.6598 13.6959L42.7698 24.4059Z" fill="#313338"/>
<path d="M66.6313 31.5039C78.8533 31.5039 80.1133 30.0339 80.9953 24.9939C81.8773 19.9959 79.9873 17.8959 68.3113 16.8039C59.4493 15.9639 59.0293 14.9139 59.3233 12.7299C59.5753 10.7979 61.1713 9.91586 69.0673 9.91586C77.0893 9.91586 78.1813 10.8819 77.7193 13.4439L77.5933 14.0739L81.9613 13.9479C82.9693 8.10986 80.7013 6.13586 69.3193 6.13586C58.1053 6.13586 56.2153 7.77386 55.2913 12.8979C54.4513 17.8539 56.3413 19.7859 66.9253 20.7099C76.5433 21.5499 77.0893 22.5999 76.7113 24.9519C76.3753 27.0939 75.2833 27.9759 66.8413 27.9759C57.8953 27.9759 56.7613 27.0099 57.3493 23.6079L57.4753 22.9359L53.1913 23.0619C51.9733 30.1179 54.4933 31.5039 66.6313 31.5039Z" fill="#313338"/>
<path d="M99.7936 31.5039C111.764 31.5039 114.494 28.7739 115.796 21.5499L111.638 21.4239C110.882 25.7919 108.782 27.5979 99.8776 27.5979C90.8056 27.5979 89.3356 25.8339 90.5116 19.0299L90.5956 18.6099C91.8136 11.8059 93.9136 10.0419 102.986 10.0419C111.89 10.0419 113.234 11.9319 112.478 16.2159L116.678 16.0899C117.98 8.65586 115.124 6.13586 103.112 6.13586C91.3096 6.13586 88.0336 8.90786 86.3956 18.1899L86.1856 19.4499C84.5476 28.7319 88.0336 31.5039 99.7936 31.5039Z" fill="#313338"/>
<path d="M134.085 31.5039C146.223 31.5039 149.415 28.7319 151.053 19.4499L151.263 18.1899C152.901 8.90786 149.709 6.13586 137.571 6.13586C125.433 6.13586 122.241 8.90786 120.603 18.1899L120.393 19.4499C118.755 28.7319 121.947 31.5039 134.085 31.5039ZM134.253 27.5979C125.013 27.5979 123.543 25.8339 124.719 19.0299L124.803 18.6099C126.021 11.8059 128.121 10.0419 137.361 10.0419C146.601 10.0419 148.113 11.8059 146.895 18.6099L146.811 19.0299C145.635 25.8339 143.493 27.5979 134.253 27.5979Z" fill="#313338"/>
<path d="M170.517 30.9999C174.465 25.0359 182.949 12.3519 186.855 6.63986H181.983L174.633 17.6439C172.449 20.8779 170.349 24.1119 168.627 26.7999H165.687C164.931 24.1539 163.923 20.8359 162.915 17.6019L159.555 6.63986H155.019C156.867 12.3519 161.025 25.8339 162.579 30.9999H170.517Z" fill="#313338"/>
<path d="M200.248 31.5039C212.512 31.5039 214.654 29.0679 215.704 23.2299L211.546 23.0619C211 26.2119 209.614 27.7659 200.374 27.7659C191.428 27.7659 189.706 26.1279 190.462 20.4579H216.166C216.292 19.7439 216.502 18.8619 216.586 18.1899C217.972 9.20186 215.326 6.13586 203.356 6.13586C191.386 6.13586 188.194 8.90786 186.556 18.1899L186.346 19.4499C184.834 28.4799 187.984 31.5039 200.248 31.5039ZM203.188 9.78986C211.798 9.78986 213.142 11.4699 212.344 16.8459H191.092C192.394 11.3019 194.746 9.78986 203.188 9.78986Z" fill="#313338"/>
<path d="M221.514 24.2799C220.926 27.5979 220.632 29.2359 220.296 30.9999H224.58C224.832 29.2359 225.126 27.6819 225.714 24.2799L226.722 18.6519C227.94 11.5959 230.208 10.0419 237.432 10.0419C244.782 10.0419 245.454 11.0499 244.614 15.7959L244.446 16.6359L248.52 16.5519C248.646 15.9219 248.772 15.2919 248.856 14.7879C250.074 7.81586 248.478 6.13586 239.112 6.13586C233.904 6.13586 230.334 7.47986 227.94 10.2099L228.486 6.63986H224.58C224.328 8.27786 224.076 9.78986 223.53 12.8979L221.514 24.2799Z" fill="#313338"/>
<path d="M282.675 31.7559C286.917 25.5399 295.821 12.3519 299.853 6.63986H295.191L288.177 16.8039C286.287 19.4919 284.439 22.2219 282.843 24.6159H280.533C279.483 22.1799 278.223 19.4079 277.047 16.6779L272.679 6.63986H268.017C270.663 12.3939 275.367 23.3559 277.509 28.5219H280.155L279.189 29.8659C277.215 32.5959 276.249 33.0999 273.771 33.0999C272.175 33.0999 270.873 33.0579 269.571 32.9739L268.773 36.7539C270.285 36.8379 272.217 36.9219 273.225 36.9219C277.509 36.9219 280.071 35.5779 282.675 31.7559Z" fill="#313338"/>
<path d="M313.036 31.5039C325.174 31.5039 328.366 28.7319 330.004 19.4499L330.214 18.1899C331.852 8.90786 328.66 6.13586 316.522 6.13586C304.384 6.13586 301.192 8.90786 299.554 18.1899L299.344 19.4499C297.706 28.7319 300.898 31.5039 313.036 31.5039ZM313.204 27.5979C303.964 27.5979 302.494 25.8339 303.67 19.0299L303.754 18.6099C304.972 11.8059 307.072 10.0419 316.312 10.0419C325.552 10.0419 327.064 11.8059 325.846 18.6099L325.762 19.0299C324.586 25.8339 322.444 27.5979 313.204 27.5979Z" fill="#313338"/>
<path d="M336.596 15.8799C336.134 18.3999 335.924 19.4079 335.63 21.1299C334.328 28.5219 336.638 31.5039 347.684 31.5039C353.06 31.5039 356.714 30.1599 359.108 27.4719L358.562 30.9999H362.468C362.72 29.3619 362.972 27.8499 363.518 24.7419L365.534 13.3599C366.122 10.0419 366.416 8.40386 366.752 6.63986H362.468C362.216 8.40386 361.922 9.95786 361.334 13.3599L360.284 19.2399C359.192 25.6239 356.84 27.5979 348.776 27.5979C340.292 27.5979 339.074 25.4559 340.082 19.8699L341.216 13.3179C341.846 9.74786 342.056 8.52986 342.434 6.63986H338.15C337.856 8.61386 337.562 10.2939 337.016 13.3179L336.596 15.8799Z" fill="#313338"/>
<path d="M371.262 24.2799C370.674 27.5979 370.38 29.2359 370.044 30.9999H374.328C374.58 29.2359 374.874 27.6819 375.462 24.2799L376.47 18.6519C377.688 11.5959 379.956 10.0419 387.18 10.0419C394.53 10.0419 395.202 11.0499 394.362 15.7959L394.194 16.6359L398.268 16.5519C398.394 15.9219 398.52 15.2919 398.604 14.7879C399.822 7.81586 398.226 6.13586 388.86 6.13586C383.652 6.13586 380.082 7.47986 377.688 10.2099L378.234 6.63986H374.328C374.076 8.27786 373.824 9.78986 373.278 12.8979L371.262 24.2799Z" fill="#313338"/>
<path d="M2.08226 78.4059C1.57826 81.2199 1.24226 83.1519 0.864258 84.9999H5.14826C5.44226 83.1519 5.77826 81.2199 6.28226 78.4479L9.39026 60.6819C9.93626 57.6579 10.3143 55.3899 10.6923 53.5839H6.40826C6.11426 55.3899 5.73626 57.6579 5.19026 60.6399L2.08226 78.4059Z" fill="#313338"/>
<path d="M18.2998 54.2559L17.6278 58.1619H21.9118L22.5838 54.2559H18.2998ZM14.0998 78.4059C13.5958 81.2199 13.2598 83.1519 12.8818 84.9999H17.1658C17.4598 83.1519 17.7958 81.2199 18.2998 78.4479L20.1478 67.7379C20.6938 64.7139 21.1138 62.4459 21.4498 60.6399H17.1658C16.9138 62.4459 16.4938 64.7139 15.9898 67.6959L14.0998 78.4059Z" fill="#313338"/>
<path d="M26.0334 78.2799C25.4454 81.5979 25.1514 83.2359 24.8154 84.9999H29.0994C29.3514 83.2359 29.6454 81.6819 30.2334 78.2799L31.2834 72.3999C32.4174 66.0159 34.7274 64.0419 41.3634 64.0419C47.1594 64.0419 48.5874 65.4699 47.8314 69.7959L46.3194 78.4059C45.7314 81.6399 45.5214 82.9419 45.1014 84.9999H49.3854C49.8054 82.4379 50.1414 80.5899 50.5194 78.2799L51.5694 72.3999C52.7034 66.0159 55.0974 64.0419 61.6914 64.0419C67.4874 64.0419 68.9154 65.4699 68.1594 69.7959L66.6474 78.3639C66.0594 81.6399 65.8494 82.9419 65.4294 84.9999H69.7134C70.1334 82.4379 70.4694 80.5899 70.8474 78.3639L71.2254 76.1799C71.8974 72.3999 72.3174 70.2579 72.6114 68.5359C73.7034 62.4039 71.3934 60.1359 63.0774 60.1359C57.8694 60.1359 54.5514 61.5639 52.4094 64.4199C51.7374 61.3119 48.7974 60.1359 42.7494 60.1359C37.8354 60.1359 34.6014 61.3959 32.5014 63.9159L33.0054 60.6399H29.0994C28.8474 62.2779 28.5954 63.7899 28.0494 66.8979L26.0334 78.2799Z" fill="#313338"/>
<path d="M82.6944 54.2559L82.0224 58.1619H86.3064L86.9784 54.2559H82.6944ZM78.4944 78.4059C77.9904 81.2199 77.6544 83.1519 77.2764 84.9999H81.5604C81.8544 83.1519 82.1904 81.2199 82.6944 78.4479L84.5424 67.7379C85.0884 64.7139 85.5084 62.4459 85.8444 60.6399H81.5604C81.3084 62.4459 80.8884 64.7139 80.3844 67.6959L78.4944 78.4059Z" fill="#313338"/>
<path d="M93.2419 69.8799C92.9059 71.9379 92.4439 74.3319 92.1079 76.1799C90.8479 83.4039 93.1579 85.2099 103.07 85.2099C104.918 85.2099 106.052 85.1259 107.396 84.9999L108.026 81.1779C106.43 81.2619 105.422 81.3039 103.532 81.3039C97.1059 81.3039 95.5519 80.6739 96.4339 75.5919L98.4079 64.4619H110.966L111.638 60.6399H99.1219C99.4579 58.5399 99.7519 56.8599 99.9619 55.8519L95.6779 55.9359C95.3419 57.8679 95.1319 59.2539 94.8799 60.6399C93.5359 60.6399 92.1919 60.6819 90.4699 60.6399L89.798 64.4619H94.2079L93.2419 69.8799Z" fill="#313338"/>
<path d="M114.26 78.4059C113.756 81.2199 113.42 83.1519 113.042 84.9999H117.326C117.62 83.1519 117.956 81.2199 118.46 78.4479L121.568 60.6819C122.114 57.6579 122.492 55.3899 122.87 53.5839H118.586C118.292 55.3899 117.914 57.6579 117.368 60.6399L114.26 78.4059Z" fill="#313338"/>
<path d="M139.34 85.5039C151.604 85.5039 153.746 83.0679 154.796 77.2299L150.638 77.0619C150.092 80.2119 148.706 81.7659 139.466 81.7659C130.52 81.7659 128.798 80.1279 129.554 74.4579H155.258C155.384 73.7439 155.594 72.8619 155.678 72.1899C157.064 63.2019 154.418 60.1359 142.448 60.1359C130.478 60.1359 127.286 62.9079 125.648 72.1899L125.438 73.4499C123.926 82.4799 127.076 85.5039 139.34 85.5039ZM142.28 63.7899C150.89 63.7899 152.234 65.4699 151.436 70.8459H130.184C131.486 65.3019 133.838 63.7899 142.28 63.7899Z" fill="#313338"/>
<path d="M172.534 85.5039C184.756 85.5039 186.016 84.0339 186.898 78.9939C187.78 73.9959 185.89 71.8959 174.214 70.8039C165.352 69.9639 164.932 68.9139 165.226 66.7299C165.478 64.7979 167.074 63.9159 174.97 63.9159C182.992 63.9159 184.084 64.8819 183.622 67.4439L183.496 68.0739L187.864 67.9479C188.872 62.1099 186.604 60.1359 175.222 60.1359C164.008 60.1359 162.118 61.7739 161.194 66.8979C160.354 71.8539 162.244 73.7859 172.828 74.7099C182.446 75.5499 182.992 76.5999 182.614 78.9519C182.278 81.0939 181.186 81.9759 172.744 81.9759C163.798 81.9759 162.664 81.0099 163.252 77.6079L163.378 76.9359L159.094 77.0619C157.876 84.1179 160.396 85.5039 172.534 85.5039Z" fill="#313338"/>
<path d="M204.772 85.5039C216.994 85.5039 218.254 84.0339 219.136 78.9939C220.018 73.9959 218.128 71.8959 206.452 70.8039C197.59 69.9639 197.17 68.9139 197.464 66.7299C197.716 64.7979 199.312 63.9159 207.208 63.9159C215.23 63.9159 216.322 64.8819 215.86 67.4439L215.734 68.0739L220.102 67.9479C221.11 62.1099 218.842 60.1359 207.46 60.1359C196.246 60.1359 194.356 61.7739 193.432 66.8979C192.592 71.8539 194.482 73.7859 205.066 74.7099C214.684 75.5499 215.23 76.5999 214.852 78.9519C214.516 81.0939 213.424 81.9759 204.982 81.9759C196.036 81.9759 194.902 81.0099 195.49 77.6079L195.616 76.9359L191.332 77.0619C190.114 84.1179 192.634 85.5039 204.772 85.5039Z" fill="#313338"/>
<path d="M253.561 85.5039C265.531 85.5039 268.261 82.7739 269.563 75.5499L265.405 75.4239C264.649 79.7919 262.549 81.5979 253.645 81.5979C244.573 81.5979 243.103 79.8339 244.279 73.0299L244.363 72.6099C245.581 65.8059 247.681 64.0419 256.753 64.0419C265.657 64.0419 267.001 65.9319 266.245 70.2159L270.445 70.0899C271.747 62.6559 268.891 60.1359 256.879 60.1359C245.077 60.1359 241.801 62.9079 240.163 72.1899L239.953 73.4499C238.315 82.7319 241.801 85.5039 253.561 85.5039Z" fill="#313338"/>
<path d="M274.916 78.3639C274.37 81.4299 274.118 82.9419 273.698 84.9999H277.982C278.318 82.8999 278.612 81.0939 279.116 78.2799L280.166 72.3999C281.3 66.0159 283.61 64.0419 291.842 64.0419C300.368 64.0419 301.586 66.1839 300.62 71.7699L299.444 78.3639C298.898 81.3459 298.646 82.8579 298.226 84.9999H302.51C302.888 82.6059 303.224 80.6319 303.644 78.4479L304.106 75.7599C304.526 73.2399 304.778 72.2319 305.072 70.5099C306.374 63.1179 304.022 60.1359 292.934 60.1359C287.39 60.1359 283.862 61.3119 281.594 63.6219C282.182 60.5559 283.442 54.2979 283.568 53.5839H279.242C278.948 55.3899 278.57 57.6159 278.024 60.6399L274.916 78.3639Z" fill="#313338"/>
<path d="M322.345 85.5039C328.855 85.5039 332.803 84.2019 334.987 82.1439L334.525 84.9999H338.305C338.851 81.6819 339.229 79.5399 339.691 77.0199C340.279 73.4919 340.615 71.8959 341.203 68.5779C342.211 62.8239 340.111 60.1359 327.679 60.1359C316.381 60.1359 313.819 62.5299 313.021 67.6119L317.263 67.7379C317.725 64.8399 318.901 63.8739 327.469 63.8739C336.331 63.8739 337.549 65.1759 336.835 69.3759L336.289 72.3579C334.609 70.8039 331.165 69.8799 325.117 69.8799C314.071 69.8799 311.257 72.1899 310.249 77.7759C309.325 83.2359 311.173 85.5039 322.345 85.5039ZM324.193 81.8499C315.625 81.8499 314.071 80.7999 314.575 77.7759C315.121 74.6679 316.507 73.3659 325.705 73.3659C334.735 73.3659 335.995 74.6259 335.659 76.5159L335.407 77.8179C334.945 80.5479 333.223 81.8499 324.193 81.8499Z" fill="#313338"/>
<path d="M346.981 78.2799C346.393 81.5979 346.099 83.2359 345.763 84.9999H350.047C350.299 83.2359 350.593 81.6819 351.181 78.2799L352.231 72.3999C353.365 66.0159 355.675 64.0419 363.907 64.0419C372.433 64.0419 373.651 66.1839 372.685 71.7699L371.509 78.3219C370.879 81.8919 370.669 83.1099 370.291 84.9999H374.575C374.869 83.0259 375.163 81.3459 375.709 78.3219L376.171 75.7599C376.591 73.2399 376.843 72.2319 377.137 70.5099C378.439 63.1179 376.087 60.1359 364.999 60.1359C359.539 60.1359 355.843 61.4799 353.407 64.2099L353.953 60.6399H350.047C349.795 62.2779 349.543 63.7899 348.997 66.8979L346.981 78.2799Z" fill="#313338"/>
<path d="M396.132 85.5039C408.102 85.5039 410.831 82.7739 412.133 75.5499L407.975 75.4239C407.219 79.7919 405.119 81.5979 396.215 81.5979C387.143 81.5979 385.673 79.8339 386.849 73.0299L386.934 72.6099C388.152 65.8059 390.251 64.0419 399.323 64.0419C408.227 64.0419 409.571 65.9319 408.815 70.2159L413.016 70.0899C414.318 62.6559 411.461 60.1359 399.449 60.1359C387.647 60.1359 384.371 62.9079 382.733 72.1899L382.523 73.4499C380.885 82.7319 384.372 85.5039 396.132 85.5039Z" fill="#313338"/>
<path d="M430.633 85.5039C442.897 85.5039 445.039 83.0679 446.089 77.2299L441.931 77.0619C441.385 80.2119 439.999 81.7659 430.759 81.7659C421.813 81.7659 420.091 80.1279 420.847 74.4579H446.551C446.677 73.7439 446.887 72.8619 446.971 72.1899C448.357 63.2019 445.711 60.1359 433.741 60.1359C421.771 60.1359 418.579 62.9079 416.941 72.1899L416.731 73.4499C415.219 82.4799 418.369 85.5039 430.633 85.5039ZM433.573 63.7899C442.183 63.7899 443.527 65.4699 442.729 70.8459H421.477C422.779 65.3019 425.131 63.7899 433.573 63.7899Z" fill="#313338"/>
</svg>
