<svg width="403" height="403" viewBox="0 0 403 403" fill="none" xmlns="http://www.w3.org/2000/svg">
<g clip-path="url(#clip0_854_742)">
<circle cx="202" cy="198" r="25" stroke="white" stroke-width="2"/>
<path d="M210.392 196.607L210.395 196.608C210.737 196.816 211.045 197.333 211.045 198.019C211.045 198.683 210.742 199.184 210.383 199.401L210.38 199.403L198.052 206.92L198.052 206.92L198.047 206.923C197.913 207.006 197.76 207.046 197.609 207.046C197.464 207.046 197.281 206.995 197.098 206.863L197.096 206.861C196.76 206.62 196.5 206.143 196.5 205.521V190.474C196.5 189.852 196.76 189.376 197.096 189.134C197.41 188.908 197.748 188.898 198.066 189.091C198.066 189.091 198.066 189.091 198.067 189.091L210.392 196.607Z" stroke="white" stroke-width="2"/>
</g>
<defs>
<clipPath id="clip0_854_742">
<rect width="403" height="403" fill="white"/>
</clipPath>
</defs>
</svg>
