<svg width="125" height="57" viewBox="0 0 125 57" fill="none" xmlns="http://www.w3.org/2000/svg">
<path d="M22.3732 54.1633C24.2596 48.3659 29.8743 31.3482 31.7838 25.907L26.7133 27.2683L22.3868 40.7149C21.3418 44.112 20.2474 47.5948 19.3888 50.4708L16.2789 51.3057C14.9651 48.9767 13.3462 46.186 11.7454 43.4629L5.48499 32.9672L0.752554 34.2376C3.44025 38.4447 11.5834 51.769 14.3281 56.3231L22.3732 54.1633Z" fill="#0D0E11"/>
<path d="M46.3582 48.1592C56.4315 45.4549 58.3678 42.5433 57.6715 34.6851L57.5683 33.6257C56.872 25.7675 53.6703 24.2352 43.6307 26.9304C33.5574 29.6347 31.6211 32.5463 32.3174 40.4045L32.4206 41.4639C33.1169 49.3221 36.3186 50.8544 46.3582 48.1592ZM45.5421 44.1745C38.6463 46.0258 37.2874 45.0135 36.8166 39.8852L36.7778 39.6057C36.3318 34.4345 37.4834 32.7845 44.413 30.9242C51.3088 29.0729 52.7263 30.0332 53.1385 35.2135L53.1773 35.493C53.6481 40.6213 52.4718 42.3142 45.5421 44.1745Z" fill="#0D0E11"/>
<path d="M74.7129 40.5471C84.651 37.8792 86.2831 35.0492 85.7495 28.7419L81.3955 29.802C81.6986 33.0909 80.5223 34.7838 73.863 36.5715C67.0686 38.3955 65.7097 37.3833 65.2389 32.255L65.2001 31.9755C64.7541 26.8043 65.9057 25.1543 72.7001 23.3302C79.3593 21.5425 80.6935 22.5977 80.9875 25.8528L80.9785 25.8189L85.3119 24.5469C84.7667 18.0615 81.8222 16.6776 71.8841 19.3456C62.0812 21.9772 60.0435 24.9161 60.7397 32.7743L60.8429 33.8337C61.5392 41.6919 64.9438 43.1697 74.7129 40.5471Z" fill="#0D0E11"/>
<path d="M100.613 33.5939C106.022 32.142 108.749 30.2864 109.925 28.0502L110.206 30.5838L114.195 29.513C113.917 26.7246 113.759 24.919 113.586 22.791C113.292 19.5359 113.22 18.3231 112.977 15.5256C112.554 10.7105 110.123 9.08006 99.948 11.8116C90.6522 14.3071 88.9697 16.6794 89.4577 21.332L93.7103 20.2991C93.4857 18.1126 94.1155 17.2187 100.606 15.4764C107.265 13.6886 108.364 14.4083 108.658 17.6633L108.87 20.0708C107.265 19.0883 104.37 19.1044 99.3335 20.4565C90.5785 22.8069 88.948 25.2378 89.3436 29.9514C89.7888 34.5792 91.7909 35.9624 100.613 33.5939ZM101.793 29.6172C95.2687 31.3686 93.9874 30.9153 93.7784 28.6521C93.5604 26.3551 94.2957 25.1792 101.293 23.3008C108.02 21.4949 109.168 22.1287 109.279 23.6211L109.371 24.5024C109.559 26.5538 108.553 27.8022 101.793 29.6172Z" fill="#0D0E11"/>
<path d="M119.276 22.0607C119.499 24.6463 119.673 26.3752 119.753 28.0209L124.215 26.8231C124.034 25.2046 123.894 23.4666 123.646 20.9239L122.356 6.26692C122.152 3.74893 121.966 1.84189 121.889 0.340488L117.427 1.53835C117.581 3.05541 117.757 4.92865 117.987 7.40376L119.276 22.0607Z" fill="#0D0E11"/>
</svg>
