<svg width="80" height="22" viewBox="0 0 80 22" fill="none" xmlns="http://www.w3.org/2000/svg">
<path d="M10.7662 14.8789H10.8295L10.8566 14.8218C12.0976 12.2059 15.928 4.24924 17.2042 1.74541L17.2784 1.6H17.1151H15.1547H15.0917L15.0645 1.65683L11.935 8.19631L11.935 8.1964C11.155 9.83034 10.3575 11.5182 9.74897 12.8368H8.36619C7.75896 11.5199 6.99683 9.86792 6.2347 8.216L6.23463 8.21584L3.19505 1.65795L3.16819 1.6H3.10432H1H0.839902L0.910137 1.74387C2.13273 4.24824 5.8914 12.2239 7.09635 14.821L7.12322 14.8789H7.18707H10.7662ZM44.8347 10.6342V10.5373L44.7378 10.5343L42.9572 10.479L42.8541 10.4758V10.5789C42.8541 11.5256 42.6675 12.1584 42.0448 12.5678C41.4068 12.9872 40.2928 13.1868 38.3857 13.1868C37.4168 13.1868 36.6474 13.1385 36.0378 13.0211C35.4285 12.9038 34.9856 12.7187 34.6638 12.4502C34.0235 11.916 33.8274 11.0215 33.8274 9.52895V9.34474C33.8274 7.85217 34.0235 6.95769 34.6638 6.4235C34.9856 6.15499 35.4285 5.9699 36.0378 5.85256C36.6474 5.73517 37.4168 5.68684 38.3857 5.68684C40.2924 5.68684 41.3971 5.89567 42.0259 6.31913C42.6402 6.73284 42.8181 7.36593 42.8181 8.29474V8.39789L42.9212 8.39469L44.7018 8.33943L44.7987 8.33642V8.23947C44.7987 6.60178 44.506 5.46673 43.5302 4.75316C42.5659 4.04805 40.9567 3.77368 38.3857 3.77368C35.8585 3.77368 34.202 4.07577 33.1807 4.91313C32.1525 5.75607 31.7929 7.11868 31.7929 9.16053V9.71316C31.7929 11.7553 32.1571 13.1178 33.1875 13.9606C34.2111 14.7979 35.8674 15.1 38.3857 15.1C40.949 15.1 42.5665 14.8023 43.5416 14.0859C44.5276 13.3614 44.8347 12.2279 44.8347 10.6342ZM57.4306 9.03433C56.5293 8.40543 54.9889 8.04737 52.5486 8.04737C50.1836 8.04737 48.7169 8.29914 47.8419 8.87674C46.9525 9.46395 46.6932 10.3729 46.6932 11.6105C46.6932 12.8199 46.9387 13.7112 47.8222 14.2871C48.6904 14.8529 50.157 15.1 52.5486 15.1C55.1603 15.1 56.7472 14.6012 57.614 13.7714L57.6285 14.7804L57.6299 14.8789H57.7285H59.3472H59.4484L59.4472 14.7777C59.4292 13.3231 59.4292 12.3841 59.4292 11.2789C59.4292 10.5057 59.4337 9.94419 59.4382 9.39391L59.4384 9.36836C59.4428 8.82683 59.4472 8.29312 59.4472 7.57632C59.4472 6.30477 59.2164 5.33496 58.2794 4.696C57.3568 4.06683 55.7679 3.77368 53.1061 3.77368C50.6863 3.77368 49.1768 4.03498 48.2761 4.59226C47.8219 4.87329 47.5227 5.22933 47.3409 5.66116C47.1601 6.09072 47.0977 6.58967 47.1069 7.15425L47.1084 7.24968L47.2038 7.25259L49.0204 7.30785L49.1249 7.31103L49.1234 7.20648C49.1189 6.8919 49.143 6.64495 49.2294 6.44684C49.3136 6.25383 49.4611 6.09807 49.7246 5.97441C49.9919 5.84898 50.3763 5.7578 50.9284 5.69865C51.4794 5.63963 52.1902 5.61316 53.1061 5.61316C54.0531 5.61316 54.7987 5.64883 55.3847 5.73022C55.9715 5.81171 56.3911 5.93817 56.6906 6.11506C56.9868 6.28992 57.1691 6.51603 57.2794 6.80752C57.3913 7.10302 57.4306 7.46961 57.4306 7.92632V9.03433ZM62.4767 14.7767L62.4745 14.8789H62.5767H64.4112H64.5135L64.5112 14.7767C64.4933 13.9675 64.4933 13.1214 64.4933 11.9053V4.11316C64.4933 2.78638 64.4933 1.79297 64.5112 1.00227L64.5135 0.9H64.4112H62.5767H62.4744L62.4767 1.00227C62.4947 1.79298 62.4947 2.78639 62.4947 4.09474V11.8868C62.4947 13.1214 62.4947 13.9675 62.4767 14.7767ZM76.6338 7.35526V7.45829L76.7368 7.45522L78.5893 7.39996L78.6863 7.39706V7.3C78.6863 6.01219 78.4655 5.1084 77.5907 4.54268C77.1595 4.2638 76.577 4.07246 75.802 3.95019C75.0266 3.82784 74.0517 3.77368 72.8309 3.77368C70.4311 3.77368 68.9702 3.99772 68.1095 4.52045C67.6744 4.7847 67.3929 5.12485 67.222 5.54576C67.0523 5.96368 66.9935 6.45628 66.9935 7.02368C66.9935 7.57152 67.0431 8.03769 67.1989 8.43274C67.3561 8.83132 67.6191 9.1517 68.0342 9.41112C68.4464 9.66873 69.0069 9.86521 69.759 10.0229C70.5119 10.1807 71.463 10.3008 72.6606 10.4023L72.6607 10.4023C73.703 10.4897 74.5028 10.577 75.1163 10.6745C75.7309 10.7723 76.1527 10.8795 76.4424 11.0046C76.73 11.1289 76.8793 11.2671 76.961 11.4239C77.0446 11.5844 77.0655 11.7786 77.0655 12.0342C77.0655 12.2789 77.0417 12.4722 76.9609 12.6299C76.8822 12.7838 76.7429 12.916 76.4859 13.0243C76.2262 13.1337 75.8516 13.2165 75.3115 13.2714C74.7726 13.3262 74.075 13.3526 73.1726 13.3526C72.2161 13.3526 71.4671 13.3262 70.8814 13.2637C70.2945 13.2011 69.8787 13.103 69.5845 12.9639C69.2941 12.8265 69.1235 12.6498 69.0223 12.4247C68.9191 12.1949 68.8841 11.9059 68.8841 11.5368V11.2421V11.139L68.7811 11.1422L66.9646 11.1974L66.8676 11.2004V11.2974C66.8676 12.8476 67.0999 13.8256 68.0329 14.3946C68.4921 14.6746 69.1125 14.8498 69.9368 14.9558C70.762 15.062 71.8002 15.1 73.1007 15.1C74.4112 15.1 75.4395 15.047 76.2446 14.9321C77.049 14.8172 77.6376 14.6397 78.0642 14.3859C78.4942 14.1301 78.756 13.7988 78.908 13.3871C79.0585 12.9797 79.1 12.4977 79.1 11.9421C79.1 11.3911 79.0597 10.9148 78.9083 10.5062C78.7554 10.0935 78.4914 9.75527 78.0556 9.47691C77.623 9.20055 77.0229 8.9844 76.1983 8.80829C75.3728 8.63202 74.3159 8.49459 72.9653 8.37931C71.9995 8.29649 71.2605 8.21385 70.6951 8.12234C70.1285 8.03064 69.7421 7.9309 69.4782 7.81619C69.2164 7.70233 69.0834 7.57734 69.0115 7.43829C68.9376 7.2954 68.9201 7.12311 68.9201 6.89474C68.9201 6.65885 68.9541 6.47279 69.0456 6.32166C69.1361 6.17217 69.2908 6.04415 69.5578 5.94023C70.0998 5.7293 71.066 5.63158 72.759 5.63158C74.4795 5.63158 75.4523 5.73876 75.9946 5.97553C76.2607 6.09171 76.4159 6.23621 76.5074 6.40976C76.6005 6.58632 76.6338 6.8043 76.6338 7.07895V7.35526ZM23.4579 15.1C26.0564 15.1 27.7313 14.7981 28.7529 13.9606C29.7815 13.1172 30.1227 11.7539 30.1227 9.71316V9.16053C30.1227 7.11982 29.7815 5.75646 28.7529 4.91313C27.7313 4.0756 26.0564 3.77368 23.4579 3.77368C20.8594 3.77368 19.1845 4.0756 18.1629 4.91313C17.1343 5.75646 16.7931 7.11982 16.7931 9.16053V9.71316C16.7931 11.7539 17.1343 13.1172 18.1629 13.9606C19.1845 14.7981 20.8594 15.1 23.4579 15.1ZM23.4579 13.1868C22.4709 13.1868 21.688 13.1385 21.0681 13.0211C20.4485 12.9037 19.9988 12.7184 19.6725 12.4498C19.0238 11.9156 18.8277 11.0215 18.8277 9.52895V9.34474C18.8277 7.85217 19.0238 6.9581 19.6725 6.42391C19.9988 6.15524 20.4485 5.97002 21.0681 5.85261C21.688 5.73518 22.4709 5.68684 23.4579 5.68684C24.4449 5.68684 25.2278 5.73518 25.8477 5.85261C26.4674 5.97002 26.917 6.15524 27.2433 6.42391C27.892 6.9581 28.0881 7.85217 28.0881 9.34474V9.52895C28.0881 11.0215 27.892 11.9156 27.2433 12.4498C26.917 12.7184 26.4674 12.9037 25.8477 13.0211C25.2278 13.1385 24.4449 13.1868 23.4579 13.1868ZM53.0702 13.2974C51.2332 13.2974 50.1475 13.1811 49.5218 12.9096C49.2135 12.7758 49.0236 12.607 48.9084 12.4005C48.792 12.1919 48.7457 11.9339 48.7457 11.6105C48.7457 11.2736 48.7761 10.9992 48.8748 10.7732C48.9716 10.5515 49.1377 10.3686 49.4263 10.2213C49.7182 10.0724 50.135 9.96029 50.7295 9.88607C51.3231 9.81197 52.0873 9.77632 53.0702 9.77632C55.0035 9.77632 56.1111 9.9151 56.7332 10.1498C57.042 10.2663 57.222 10.4033 57.3262 10.5502C57.4298 10.6962 57.4666 10.8635 57.4666 11.0579V11.6289C57.4666 11.9208 57.428 12.162 57.3197 12.363C57.2127 12.5618 57.0319 12.732 56.7269 12.8712C56.1084 13.1535 55.005 13.2974 53.0702 13.2974Z" fill="white" stroke="white" stroke-width="0.2"/>
<path d="M1 21H79" stroke="white" stroke-width="1.5"/>
</svg>
