<svg width="102" height="23" viewBox="0 0 102 23" fill="none" xmlns="http://www.w3.org/2000/svg">
<path d="M12.7504 21.9724C15.4378 17.8422 23.3869 5.73471 26.0177 1.88746L21.7745 1.88746L15.5793 11.4773C14.0517 13.9101 12.4675 16.3995 11.1945 18.4646H8.59198C8.05449 16.3712 7.37557 13.8535 6.69664 11.3924L4.00923 1.88746L0.0488281 1.88746C1.26524 5.73471 4.8296 17.8422 6.01772 21.9724H12.7504Z" fill="#0D0E11"/>
<path d="M32.7314 22.3118C41.1614 22.3118 43.283 20.4448 44.3863 14.1647L44.5277 13.316C45.631 7.03599 43.4528 5.16894 35.0511 5.16894C26.6211 5.16894 24.4994 7.03599 23.3962 13.316L23.2547 14.1647C22.1515 20.4448 24.3297 22.3118 32.7314 22.3118ZM32.9294 19.0303C27.1586 19.0303 26.3099 17.9554 27.0171 13.8535L27.0454 13.6272C27.7809 9.49709 29.0256 8.45041 34.8248 8.45041C40.5956 8.45041 41.5009 9.49709 40.7371 13.6272L40.7088 13.8535C40.0016 17.9554 38.7286 19.0303 32.9294 19.0303Z" fill="#0D0E11"/>
<path d="M56.4604 22.3118C64.7773 22.3118 66.6443 20.4448 67.5496 15.4094L63.9286 15.3245C63.476 17.9554 62.203 19.0303 56.6302 19.0303C50.9442 19.0303 50.0955 17.9554 50.8027 13.8535L50.831 13.6272C51.5665 9.49709 52.8112 8.45041 58.4972 8.45041C64.0701 8.45041 64.8904 9.55367 64.4378 12.1562V12.1279L68.087 12.0431C69.0206 6.86625 67.0121 5.16894 58.6952 5.16894C50.4916 5.16894 48.285 7.03599 47.1818 13.316L47.0403 14.1647C45.9371 20.4448 48.285 22.3118 56.4604 22.3118Z" fill="#0D0E11"/>
<path d="M78.1357 22.3118C82.6619 22.3118 85.1795 21.4349 86.5657 19.9356L86.2545 21.9724H89.5926C89.9603 19.7376 90.2149 18.2948 90.5261 16.5975C90.9787 13.995 91.1767 13.0332 91.5728 10.7984C92.2517 6.95112 90.6958 5.16894 82.1809 5.16894C74.4016 5.16894 72.5911 6.66824 71.9971 10.4023L75.5331 10.4872C75.816 8.7333 76.4949 8.16753 81.9263 8.16753C87.4992 8.16753 88.2064 8.95961 87.7538 11.5622L87.4143 13.4858C86.3677 12.3825 84.1046 11.7885 79.8896 11.7885C72.5628 11.7885 70.7806 13.3443 70.1017 17.1067C69.4794 20.8125 70.7524 22.3118 78.1357 22.3118ZM79.8896 19.4547C74.4299 19.4547 73.5246 18.8323 73.8358 17.0219C74.147 15.1831 74.9674 14.4193 80.8231 14.4193C86.4525 14.4193 87.2163 15.1548 86.99 16.3429L86.8768 17.0501C86.594 18.6909 85.5473 19.4547 79.8896 19.4547Z" fill="#0D0E11"/>
<path d="M95.1208 17.2199C94.753 19.2849 94.5267 20.6711 94.2438 21.9724L97.9779 21.9724C98.1759 20.6711 98.4305 19.2849 98.77 17.2482L100.835 5.53669C101.203 3.5282 101.457 2.00062 101.712 0.8125L97.9779 0.8125C97.7799 2.02891 97.5253 3.5282 97.1858 5.5084L95.1208 17.2199Z" fill="#0D0E11"/>
</svg>
