<svg width="561" height="67" viewBox="0 0 561 67" fill="none" xmlns="http://www.w3.org/2000/svg">
<rect width="561" height="67" rx="30" fill="#E965FF"/>
<path d="M251.511 41L252.017 38.194C250.177 38.217 246.566 38.217 244.128 38.217H238.861L240.724 27.66C240.908 26.441 241.069 25.544 241.253 24.67H238.148C238.01 25.544 237.849 26.441 237.642 27.66L235.94 37.343C235.641 38.976 235.48 39.942 235.273 41H251.511Z" fill="#0D0E11"/>
<path d="M261.737 41.276C268.591 41.276 270.316 39.758 271.213 34.652L271.328 33.962C272.225 28.856 270.454 27.338 263.623 27.338C256.769 27.338 255.044 28.856 254.147 33.962L254.032 34.652C253.135 39.758 254.906 41.276 261.737 41.276ZM261.898 38.608C257.206 38.608 256.516 37.734 257.091 34.399L257.114 34.215C257.712 30.857 258.724 30.006 263.439 30.006C268.131 30.006 268.867 30.857 268.246 34.215L268.223 34.399C267.648 37.734 266.613 38.608 261.898 38.608Z" fill="#0D0E11"/>
<path d="M280.662 39.505C283.859 39.505 285.837 38.769 287.079 37.435L286.826 38.907C286.412 41.046 285.446 41.989 280.294 41.989C275.97 41.989 275.372 41.437 275.579 40.241L272.727 40.333C272.152 43.53 273.624 44.496 280.156 44.496C287.286 44.496 289.011 43.162 289.678 39.367C290 37.573 290.23 36.239 290.598 34.1L291.196 30.65C291.403 29.454 291.564 28.511 291.748 27.614H288.942L288.551 29.661C287.7 28.166 285.768 27.338 282.295 27.338C276.499 27.338 274.475 28.465 273.578 33.318L273.555 33.502C272.704 38.309 274.935 39.505 280.662 39.505ZM281.605 36.906C276.959 36.906 276.131 36.055 276.568 33.502L276.614 33.341C277.074 30.811 278.362 29.937 282.801 29.937C287.401 29.937 288.206 30.811 287.746 33.318V33.364C287.286 35.917 286.09 36.906 281.605 36.906Z" fill="#0D0E11"/>
<path d="M304.88 23.957L304.466 26.257H307.502L307.893 23.957H304.88ZM302.58 37.136C302.281 38.815 302.097 39.942 301.867 41H304.903C305.064 39.942 305.271 38.815 305.547 37.159L306.559 31.432C306.835 29.799 307.065 28.58 307.249 27.614H304.236C304.098 28.58 303.868 29.822 303.592 31.432L302.58 37.136Z" fill="#0D0E11"/>
<path d="M309.338 37.32C309.039 39.045 308.878 39.988 308.671 41H311.707C311.845 39.988 312.006 39.091 312.328 37.32L312.857 34.284C313.455 30.995 314.582 30.052 318.768 30.052C323.115 30.052 323.69 31.064 323.207 33.962L322.586 37.366C322.264 39.229 322.149 39.919 321.919 41H324.955C325.116 39.873 325.277 38.907 325.576 37.366L325.829 35.94C326.082 34.399 326.22 33.778 326.404 32.766C327.071 28.925 325.829 27.338 319.987 27.338C316.813 27.338 314.812 28.12 313.524 29.661L313.846 27.614H311.04C310.902 28.511 310.741 29.385 310.465 30.972L309.338 37.32Z" fill="#0D0E11"/>
</svg>
