<svg width="79" height="14" viewBox="0 0 79 14" fill="none" xmlns="http://www.w3.org/2000/svg">
<path d="M9.774 13.464C11.016 10.908 14.85 3.132 16.128 0.684H14.166L11.034 7.074C10.242 8.694 9.432 10.368 8.82 11.664H7.308C6.696 10.368 5.922 8.73 5.148 7.092L2.106 0.684H0C1.224 3.132 4.986 10.926 6.192 13.464H9.774Z" fill="#535559"/>
<path d="M22.4758 13.68C27.6778 13.68 29.0458 12.492 29.0458 8.514V7.974C29.0458 3.996 27.6778 2.808 22.4758 2.808C17.2738 2.808 15.9058 3.996 15.9058 7.974V8.514C15.9058 12.492 17.2738 13.68 22.4758 13.68ZM22.4758 12.006C18.5158 12.006 17.7418 11.25 17.7418 8.334V8.154C17.7418 5.238 18.5158 4.482 22.4758 4.482C26.4358 4.482 27.2098 5.238 27.2098 8.154V8.334C27.2098 11.25 26.4358 12.006 22.4758 12.006Z" fill="#535559"/>
<path d="M37.4155 13.68C42.5455 13.68 43.7695 12.51 43.7695 9.414L41.9875 9.36C41.9875 11.232 41.2315 12.006 37.4155 12.006C33.5275 12.006 32.7535 11.25 32.7535 8.334V8.154C32.7535 5.238 33.5275 4.482 37.4155 4.482C41.2315 4.482 41.9515 5.292 41.9515 7.128L43.7335 7.074C43.7335 3.888 42.5635 2.808 37.4155 2.808C32.3575 2.808 30.9175 3.996 30.9175 7.974V8.514C30.9175 12.492 32.3755 13.68 37.4155 13.68Z" fill="#535559"/>
<path d="M51.5897 13.68C54.3797 13.68 55.9637 13.122 56.7557 12.24L56.7737 13.464H58.3937C58.3757 12.042 58.3757 11.124 58.3757 10.044C58.3757 8.532 58.3937 7.848 58.3937 6.426C58.3937 3.96 57.4757 2.808 52.1477 2.808C47.3057 2.808 46.2077 3.834 46.2437 6.012L48.0617 6.066C48.0437 4.824 48.4757 4.41 52.1477 4.41C55.9457 4.41 56.5757 4.968 56.5757 6.768V8.046C55.7297 7.38 54.1817 6.984 51.5897 6.984C46.8557 6.984 45.8297 7.974 45.8297 10.368C45.8297 12.708 46.8017 13.68 51.5897 13.68ZM52.1117 12.114C48.4397 12.114 47.6837 11.664 47.6837 10.368C47.6837 9.036 48.1697 8.478 52.1117 8.478C55.9817 8.478 56.6117 9.018 56.6117 9.828V10.386C56.6117 11.556 55.9817 12.114 52.1117 12.114Z" fill="#535559"/>
<path d="M61.6438 10.638C61.6438 11.844 61.6438 12.672 61.6258 13.464H63.4618C63.4438 12.672 63.4438 11.844 63.4438 10.656V3.042C63.4438 1.746 63.4438 0.774 63.4618 0H61.6258C61.6438 0.774 61.6438 1.746 61.6438 3.024V10.638Z" fill="#535559"/>
<path d="M72.1582 13.68C77.3962 13.68 78.0622 12.852 78.0622 10.692C78.0622 8.55 77.4142 7.758 72.0142 7.308C68.1442 6.984 67.8742 6.66 67.8742 5.76C67.8742 4.806 68.4322 4.428 71.8162 4.428C75.2542 4.428 75.7942 4.842 75.7942 5.94V6.21L77.6482 6.156C77.6482 3.654 76.7662 2.808 71.8882 2.808C67.0822 2.808 66.1462 3.69 66.1462 5.886C66.1462 8.01 66.9382 8.694 71.7262 9.09C75.9022 9.432 76.2262 9.774 76.2262 10.782C76.2262 11.754 75.8482 12.168 72.2302 12.168C68.3962 12.168 67.8382 11.754 67.8382 10.296V10.008L66.0202 10.062C66.0202 13.086 66.9562 13.68 72.1582 13.68Z" fill="#535559"/>
</svg>
