<svg width="60" height="28" viewBox="0 0 60 28" fill="none" xmlns="http://www.w3.org/2000/svg">
<g clip-path="url(#clip0_1678_7740)">
<path d="M14.4716 0.472412H45.5284C46.9445 0.472412 48.306 1.01862 49.3295 1.99731L57.7101 10.0111C59.9752 12.1771 59.9752 15.7953 57.7101 17.9613L49.3295 25.9751C48.306 26.9538 46.9445 27.5 45.5284 27.5H14.4716C13.0554 27.5 11.6939 26.9538 10.6704 25.9751L2.28989 17.9613C0.0247445 15.7953 0.0247445 12.1771 2.28989 10.0111L10.6704 1.99732C11.6939 1.01863 13.0554 0.472412 14.4716 0.472412Z" fill="#313338" stroke="url(#paint0_linear_1678_7740)"/>
<rect x="45.3176" y="1.61694" width="17.6196" height="17.6196" rx="3" transform="rotate(45 45.3176 1.61694)" fill="#E965FF"/>
</g>
<defs>
<linearGradient id="paint0_linear_1678_7740" x1="54.0137" y1="12.1089" x2="3.01197" y2="14.1617" gradientUnits="userSpaceOnUse">
<stop stop-color="#E965FF"/>
<stop offset="1" stop-color="#E965FF" stop-opacity="0"/>
</linearGradient>
<clipPath id="clip0_1678_7740">
<rect width="60" height="28" fill="white"/>
</clipPath>
</defs>
</svg>
