<svg width="176" height="15" viewBox="0 0 176 15" fill="none" xmlns="http://www.w3.org/2000/svg">
<path d="M8.944 12C10.048 9.728 13.456 2.816 14.592 0.639999H12.848L10.064 6.32C9.36 7.76 8.64 9.248 8.096 10.4H6.752C6.208 9.248 5.52 7.792 4.832 6.336L2.128 0.639999H0.256C1.344 2.816 4.688 9.744 5.76 12H8.944ZM20.2345 12.192C24.8585 12.192 26.0745 11.136 26.0745 7.6V7.12C26.0745 3.584 24.8585 2.528 20.2345 2.528C15.6105 2.528 14.3945 3.584 14.3945 7.12V7.6C14.3945 11.136 15.6105 12.192 20.2345 12.192ZM20.2345 10.704C16.7145 10.704 16.0265 10.032 16.0265 7.44V7.28C16.0265 4.688 16.7145 4.016 20.2345 4.016C23.7545 4.016 24.4425 4.688 24.4425 7.28V7.44C24.4425 10.032 23.7545 10.704 20.2345 10.704ZM33.5143 12.192C38.0743 12.192 39.1623 11.152 39.1623 8.4L37.5783 8.352C37.5783 10.016 36.9062 10.704 33.5143 10.704C30.0583 10.704 29.3703 10.032 29.3703 7.44V7.28C29.3703 4.688 30.0583 4.016 33.5143 4.016C36.9062 4.016 37.5463 4.736 37.5463 6.368L39.1303 6.32C39.1303 3.488 38.0903 2.528 33.5143 2.528C29.0182 2.528 27.7383 3.584 27.7383 7.12V7.6C27.7383 11.136 29.0343 12.192 33.5143 12.192ZM46.1135 12.192C48.5935 12.192 50.0015 11.696 50.7055 10.912L50.7215 12H52.1615C52.1455 10.736 52.1455 9.92 52.1455 8.96C52.1455 7.616 52.1615 7.008 52.1615 5.744C52.1615 3.552 51.3455 2.528 46.6095 2.528C42.3055 2.528 41.3295 3.44 41.3615 5.376L42.9775 5.424C42.9615 4.32 43.3455 3.952 46.6095 3.952C49.9855 3.952 50.5455 4.448 50.5455 6.048V7.184C49.7935 6.592 48.4175 6.24 46.1135 6.24C41.9055 6.24 40.9935 7.12 40.9935 9.248C40.9935 11.328 41.8575 12.192 46.1135 12.192ZM46.5775 10.8C43.3135 10.8 42.6415 10.4 42.6415 9.248C42.6415 8.064 43.0735 7.568 46.5775 7.568C50.0175 7.568 50.5775 8.048 50.5775 8.768V9.264C50.5775 10.304 50.0175 10.8 46.5775 10.8ZM55.0505 9.488C55.0505 10.56 55.0505 11.296 55.0345 12H56.6665C56.6505 11.296 56.6505 10.56 56.6505 9.504V2.736C56.6505 1.584 56.6505 0.719999 56.6665 0.0319996H55.0345C55.0505 0.719999 55.0505 1.584 55.0505 2.72V9.488ZM71.9498 12.224C77.1498 12.224 78.0138 11.392 78.0138 8.992C78.0138 6.688 77.1818 5.84 71.5978 5.44C67.2618 5.136 66.8138 4.736 66.8138 3.52C66.8138 2.384 67.3738 1.92 71.0698 1.92C75.1338 1.92 75.8218 2.32 75.8218 3.568V3.904L77.4218 3.856V3.568C77.4218 1.264 76.3978 0.415999 71.0858 0.415999C66.0298 0.415999 65.1338 1.312 65.1338 3.664C65.1338 5.984 65.9658 6.64 71.4858 7.072C75.7738 7.408 76.3338 7.84 76.3338 9.024C76.3338 10.272 75.8378 10.704 71.9498 10.704C67.4378 10.704 66.6218 10.4 66.6218 8.896V8.512L65.0218 8.56V8.88C65.0218 11.568 66.1738 12.224 71.9498 12.224ZM85.595 12.192C90.267 12.192 91.147 11.264 91.147 9.04L89.563 8.976C89.563 10.176 89.131 10.768 85.611 10.768C82.203 10.768 81.435 10.144 81.355 7.984H91.147C91.147 7.712 91.163 7.376 91.147 7.12C91.099 3.584 90.043 2.528 85.483 2.528C80.923 2.528 79.707 3.584 79.707 7.12V7.6C79.707 11.136 80.923 12.192 85.595 12.192ZM85.483 3.92C88.763 3.92 89.387 4.56 89.451 6.608H81.355C81.467 4.496 82.267 3.92 85.483 3.92ZM98.1604 12.192C100.64 12.192 102.048 11.696 102.752 10.912L102.768 12H104.208C104.192 10.736 104.192 9.92 104.192 8.96C104.192 7.616 104.208 7.008 104.208 5.744C104.208 3.552 103.392 2.528 98.6564 2.528C94.3524 2.528 93.3764 3.44 93.4084 5.376L95.0244 5.424C95.0084 4.32 95.3924 3.952 98.6564 3.952C102.032 3.952 102.592 4.448 102.592 6.048V7.184C101.84 6.592 100.464 6.24 98.1604 6.24C93.9524 6.24 93.0404 7.12 93.0404 9.248C93.0404 11.328 93.9044 12.192 98.1604 12.192ZM98.6244 10.8C95.3604 10.8 94.6884 10.4 94.6884 9.248C94.6884 8.064 95.1204 7.568 98.6244 7.568C102.064 7.568 102.624 8.048 102.624 8.768V9.264C102.624 10.304 102.064 10.8 98.6244 10.8ZM107.065 9.44C107.065 10.704 107.065 11.328 107.049 12H108.681C108.665 11.328 108.665 10.736 108.665 9.44V7.296C108.665 4.608 109.417 4.016 112.169 4.016C114.969 4.016 115.289 4.4 115.289 6.208V6.528L116.825 6.496C116.841 6.256 116.841 6.016 116.841 5.824C116.841 3.168 116.121 2.528 112.553 2.528C110.569 2.528 109.289 3.04 108.569 4.08L108.537 2.72H107.049C107.065 3.344 107.065 3.92 107.065 5.104V9.44ZM124.124 12.192C128.684 12.192 129.772 11.152 129.772 8.4L128.188 8.352C128.188 10.016 127.516 10.704 124.124 10.704C120.668 10.704 119.98 10.032 119.98 7.44V7.28C119.98 4.688 120.668 4.016 124.124 4.016C127.516 4.016 128.156 4.736 128.156 6.368L129.74 6.32C129.74 3.488 128.7 2.528 124.124 2.528C119.628 2.528 118.348 3.584 118.348 7.12V7.6C118.348 11.136 119.644 12.192 124.124 12.192ZM132.003 9.472C132.003 10.64 132.003 11.216 131.987 12H133.619C133.603 11.2 133.603 10.512 133.603 9.44V7.2C133.603 4.768 134.355 4.016 137.491 4.016C140.739 4.016 141.347 4.832 141.347 6.96V9.472C141.347 10.608 141.347 11.184 141.331 12H142.963C142.947 11.088 142.947 10.336 142.947 9.504V8.48C142.947 7.52 142.963 7.136 142.963 6.48C142.963 3.664 142.147 2.528 137.923 2.528C135.699 2.528 134.323 3.024 133.555 4.016C133.587 2.928 133.635 0.304 133.635 0.0319996H131.987C132.003 0.719999 132.003 1.568 132.003 2.72V9.472ZM145.847 0.287999V1.776H147.479V0.287999H145.847ZM145.863 9.488C145.863 10.56 145.863 11.296 145.847 12H147.479C147.463 11.296 147.463 10.56 147.463 9.504V5.424C147.463 4.272 147.463 3.408 147.479 2.72H145.847C145.863 3.408 145.863 4.272 145.863 5.408V9.488ZM150.409 9.44C150.409 10.704 150.409 11.328 150.393 12H152.025C152.009 11.328 152.009 10.736 152.009 9.44V7.2C152.009 4.768 152.761 4.016 155.897 4.016C159.145 4.016 159.753 4.832 159.753 6.96V9.456C159.753 10.816 159.753 11.28 159.737 12H161.369C161.353 11.248 161.353 10.608 161.353 9.456V8.48C161.353 7.52 161.369 7.136 161.369 6.48C161.369 3.664 160.553 2.528 156.329 2.528C154.057 2.528 152.665 3.04 151.913 4.08L151.881 2.72H150.393C150.409 3.344 150.409 3.92 150.409 5.104V9.44ZM169.229 11.072C171.533 11.072 172.925 10.56 173.693 9.648L173.677 10.56C173.645 12.208 173.037 12.976 169.229 12.976C165.981 12.976 165.421 12.528 165.421 11.584L163.869 11.648C163.869 13.76 164.941 14.432 169.229 14.432C174.093 14.432 175.277 13.488 175.277 10.768C175.277 9.52 175.261 8.56 175.261 7.2V4.8C175.261 4.016 175.261 3.408 175.277 2.72H173.789L173.773 3.952C173.005 3.024 171.597 2.528 169.213 2.528C165.181 2.528 163.613 3.312 163.613 6.72V6.88C163.613 10.288 165.261 11.072 169.229 11.072ZM165.245 6.88V6.72C165.245 4.672 166.157 3.984 169.501 3.984C172.925 3.984 173.645 4.656 173.661 6.72C173.661 8.768 172.861 9.616 169.517 9.616C165.997 9.616 165.245 8.928 165.245 6.88Z" fill="white"/>
</svg>
