<svg width="1852" height="746" viewBox="0 0 1852 746" fill="none" xmlns="http://www.w3.org/2000/svg">
<g clip-path="url(#clip0_749_10995)">
<path fill-rule="evenodd" clip-rule="evenodd" d="M2858.13 319.444H2859V745V746H2858H2853.26H2848.5H2843.72H2838.93H2834.11H2829.28H2824.43H2819.56H2814.67H2809.77H2804.85H2799.91H2794.95H2789.98H2784.99H2779.98H2774.95H2769.91H2764.85H2759.78H2754.69H2749.58H2744.45H2739.31H2734.16H2728.98H2723.8H2718.59H2713.37H2708.14H2702.89H2697.62H2692.34H2687.04H2681.73H2676.4H2671.06H2665.7H2660.33H2654.95H2649.55H2644.14H2638.71H2633.27H2627.81H2622.34H2616.86H2611.36H2605.85H2600.32H2594.79H2589.24H2583.67H2578.1H2572.51H2566.9H2561.29H2555.66H2550.02H2544.37H2538.71H2533.03H2527.34H2521.64H2515.93H2510.2H2504.47H2498.72H2492.96H2487.19H2481.41H2475.62H2469.82H2464.01H2458.18H2452.35H2446.5H2440.65H2434.78H2428.9H2423.02H2417.12H2411.22H2405.3H2399.38H2393.44H2387.5H2381.54H2375.58H2369.61H2363.63H2357.64H2351.64H2345.63H2339.62H2333.59H2327.56H2321.52H2315.47H2309.41H2303.35H2297.27H2291.19H2285.11H2279.01H2272.91H2266.8H2260.68H2254.56H2248.42H2242.29H2236.14H2229.99H2223.83H2217.67H2211.5H2205.32H2199.14H2192.95H2186.75H2180.55H2174.34H2168.13H2161.92H2155.69H2149.47H2143.23H2136.99H2130.75H2124.5H2118.25H2111.99H2105.73H2099.47H2093.2H2086.92H2080.64H2074.36H2068.08H2061.79H2055.49H2049.2H2042.9H2036.59H2030.28H2023.97H2017.66H2011.35H2005.03H1998.71H1992.38H1986.06H1979.73H1973.4H1967.07H1960.73H1954.39H1948.06H1941.72H1935.37H1929.03H1922.69H1916.34H1909.99H1903.65H1897.3H1890.95H1884.6H1878.25H1871.89H1865.54H1859.19H1852.84H1846.49H1840.13H1833.78H1827.43H1821.08H1814.73H1808.38H1802.03H1795.68H1789.33H1782.98H1776.64H1770.29H1763.95H1757.61H1751.27H1744.93H1738.59H1732.25H1725.92H1719.59H1713.26H1706.93H1700.61H1694.29H1687.97H1681.65H1675.34H1669.03H1662.72H1656.42H1650.12H1643.82H1637.52H1631.23H1624.95H1618.66H1612.39H1606.11H1599.84H1593.57H1587.31H1581.05H1574.8H1568.55H1562.31H1556.07H1549.83H1543.6H1537.38H1531.16H1524.95H1518.74H1512.54H1506.34H1500.15H1493.97H1487.79H1481.62H1475.45H1469.29H1463.14H1456.99H1450.85H1444.72H1438.59H1432.47H1426.36H1420.26H1414.16H1408.07H1401.99H1395.92H1389.85H1383.79H1377.74H1371.7H1365.66H1359.64H1353.62H1347.61H1341.61H1335.62H1329.63H1323.66H1317.7H1311.74H1305.79H1299.86H1293.93H1288.01H1282.1H1276.2H1270.32H1264.44H1258.57H1252.71H1246.86H1241.03H1235.2H1229.39H1223.58H1217.79H1212H1206.23H1200.47H1194.72H1188.98H1183.26H1177.54H1171.84H1166.15H1160.47H1154.8H1149.15H1143.5H1137.87H1132.26H1126.65H1121.06H1115.48H1109.91H1104.36H1098.82H1093.29H1087.78H1082.28H1076.79H1071.32H1065.86H1060.42H1054.99H1049.57H1044.17H1038.78H1033.4H1028.04H1022.7H1017.37H1012.05H1006.75H1001.47H996.2H990.946H985.707H980.483H975.276H970.084H964.907H959.747H954.603H949.475H944.363H939.268H934.189H929.127H924.082H919.053H914.041H909.047H904.069H899.109H894.166H889.24H884.332H879.442H874.57H869.715H864.879H860.06H855.26H850.478H845.715H840.97H836.243H831.536H826.847H822.178H817.527H812.896H808.283H803.691H799.118H794.564H790.03H785.516H781.022H776.548H772.094H767.66H763.247H758.854H754.482H750.131H745.8H741.49H737.202H732.934H728.687H724.462H720.259H716.077H711.916H707.778H703.661H699.566H695.493H691.443H687.415H683.409H679.425H675.465H671.527H667.612H663.72H659.851H656.005H652.182H648.383H644.607H640.855H637.127H633.422H629.741H626.085H622.452H618.844H615.26H611.7H608.165H604.655H601.17H597.709H594.273H590.863H587.478H584.118H580.783H577.474H574.191H570.933H567.701H564.495H561.316H558.162H555.035H551.934H548.86H545.812H542.791H539.796H536.829H533.889H530.976H528.09H525.231H522.4H519.597H516.821H514.073H511.353H508.661H505.997H503.361H500.754H498.175H495.624H493.102H490.609H488.145H485.71H483.304H480.927H478.579H476.261H473.972H471.713H469.484H467.284H465.115H462.975H460.866H458.787H456.738H454.72H452.732H450.775H448.849H446.954H445.089H443.256H441.454H439.684H437.945H436.237H434.561H432.917H431.305H429.725H428.176H426.66H425.177H423.726H422.307H420.921H419.567H418.247H416.959H415.705H414.484H413.296H412.141H411.02H409.932H408.878H407.858H406.872H405.92H405.002H404.118H403.269H402.454H401.674H400.928H400.217H399.541H398.9H398.294H397.724H397.188H396.688H396.224H395.795H395.402H395.045H394.724H394.439H394.19H393.977C360.455 746 333.908 727.827 324.771 718.687L32.2712 426.124C31.2582 425.149 30.2501 424.118 29.253 423.034C12.3143 404.981 6.66954 385.353 8.25588 367.199C8.94743 355.355 12.9197 343.022 21.6533 331.068C25.6483 325.299 30.3209 320.14 35.3953 315.79L35.4356 315.837L323.897 27.3128C333.034 18.1736 359.581 0.000244141 393.103 0.000244141H393.316H393.565H393.85H394.171H394.528H394.921H395.35H395.814H396.314H396.85H397.42H398.026H398.667H399.343H400.054H400.8H401.58H402.395H403.244H404.128H405.046H405.998H406.984H408.004H409.058H410.146H411.267H412.421H413.61H414.831H416.085H417.373H418.693H420.047H421.433H422.852H424.303H425.786H427.302H428.851H430.431H432.043H433.687H435.363H437.071H438.81H440.58H442.382H444.215H446.08H447.975H449.901H451.858H453.846H455.864H457.913H459.992H462.101H464.241H466.41H468.61H470.839H473.098H475.387H477.705H480.053H482.43H484.836H487.271H489.735H492.229H494.75H497.301H499.88H502.487H505.123H507.787H510.479H513.199H515.947H518.723H521.526H524.357H527.216H530.102H533.015H535.955H538.923H541.917H544.938H547.986H551.06H554.161H557.288H560.442H563.622H566.827H570.059H573.317H576.6H579.909H583.244H586.604H589.989H593.4H596.835H600.296H603.781H607.292H610.827H614.386H617.97H621.578H625.211H628.868H632.548H636.253H639.981H643.734H647.509H651.309H655.131H658.977H662.846H666.738H670.653H674.591H678.552H682.535H686.541H690.569H694.62H698.692H702.787H706.904H711.043H715.203H719.385H723.589H727.814H732.06H736.328H740.617H744.927H749.257H753.609H757.981H762.374H766.787H771.221H775.675H780.149H784.643H789.157H793.691H798.244H802.817H807.41H812.022H816.654H821.304H825.974H830.663H835.37H840.096H844.841H849.605H854.387H859.187H864.005H868.842H873.696H878.569H883.459H888.367H893.292H898.235H903.196H908.173H913.168H918.18H923.208H928.254H933.316H938.395H943.49H948.602H953.73H958.874H964.034H969.211H974.403H979.61H984.834H990.073H995.327H1000.6H1005.88H1011.18H1016.5H1021.83H1027.17H1032.53H1037.9H1043.29H1048.7H1054.11H1059.54H1064.99H1070.45H1075.92H1081.41H1086.91H1092.42H1097.95H1103.49H1109.04H1114.61H1120.19H1125.78H1131.38H1137H1142.63H1148.27H1153.93H1159.6H1165.28H1170.97H1176.67H1182.38H1188.11H1193.85H1199.6H1205.36H1211.13H1216.91H1222.71H1228.51H1234.33H1240.15H1245.99H1251.84H1257.7H1263.57H1269.44H1275.33H1281.23H1287.14H1293.06H1298.98H1304.92H1310.87H1316.82H1322.79H1328.76H1334.74H1340.74H1346.74H1352.75H1358.76H1364.79H1370.82H1376.87H1382.92H1388.98H1395.04H1401.12H1407.2H1413.29H1419.39H1425.49H1431.6H1437.72H1443.85H1449.98H1456.12H1462.27H1468.42H1474.58H1480.74H1486.92H1493.1H1499.28H1505.47H1511.67H1517.87H1524.08H1530.29H1536.51H1542.73H1548.96H1555.19H1561.43H1567.68H1573.93H1580.18H1586.44H1592.7H1598.97H1605.24H1611.51H1617.79H1624.08H1630.36H1636.65H1642.95H1649.24H1655.55H1661.85H1668.16H1674.47H1680.78H1687.1H1693.42H1699.74H1706.06H1712.39H1718.72H1725.05H1731.38H1737.72H1744.05H1750.39H1756.73H1763.08H1769.42H1775.76H1782.11H1788.46H1794.81H1801.15H1807.5H1813.85H1820.21H1826.56H1832.91H1839.26H1845.61H1851.97H1858.32H1864.67H1871.02H1877.37H1883.73H1890.08H1896.43H1902.77H1909.12H1915.47H1921.81H1928.16H1934.5H1940.84H1947.18H1953.52H1959.86H1966.19H1972.53H1978.86H1985.19H1991.51H1997.84H2004.16H2010.47H2016.79H2023.1H2029.41H2035.72H2042.02H2048.32H2054.62H2060.91H2067.2H2073.49H2079.77H2086.05H2092.33H2098.6H2104.86H2111.12H2117.38H2123.63H2129.88H2136.12H2142.36H2148.59H2154.82H2161.04H2167.26H2173.47H2179.68H2185.88H2192.08H2198.27H2204.45H2210.62H2216.8H2222.96H2229.12H2235.27H2241.41H2247.55H2253.68H2259.81H2265.93H2272.04H2278.14H2284.23H2290.32H2296.4H2302.48H2308.54H2314.6H2320.65H2326.69H2332.72H2338.74H2344.76H2350.77H2356.77H2362.76H2368.74H2374.71H2380.67H2386.63H2392.57H2398.5H2404.43H2410.35H2416.25H2422.15H2428.03H2433.91H2439.78H2445.63H2451.48H2457.31H2463.14H2468.95H2474.75H2480.54H2486.32H2492.09H2497.85H2503.6H2509.33H2515.06H2520.77H2526.47H2532.16H2537.84H2543.5H2549.15H2554.79H2560.42H2566.03H2571.64H2577.23H2582.8H2588.37H2593.92H2599.45H2604.98H2610.49H2615.99H2621.47H2626.94H2632.4H2637.84H2643.26H2648.68H2654.08H2659.46H2664.83H2670.19H2675.53H2680.86H2686.17H2691.47H2696.75H2702.01H2707.27H2712.5H2717.72H2722.93H2728.11H2733.29H2738.44H2743.58H2748.71H2753.82H2758.91H2763.98H2769.04H2774.08H2779.11H2784.12H2789.11H2794.08H2799.04H2803.98H2808.9H2813.8H2818.69H2823.56H2828.41H2833.24H2838.06H2842.85H2847.63H2852.39H2857.13H2858.13V1.00024V319.444ZM23.2798 332.232C25.7789 328.813 28.6802 325.422 32.0211 322.081L325.311 28.7268C334.183 19.853 360.249 2.00024 393.103 2.00024H393.316H393.565H393.85H394.171H394.528H394.921H395.35H395.814H396.314H396.85H397.42H398.026H398.667H399.343H400.054H400.8H401.58H402.395H403.244H404.128H405.046H405.998H406.984H408.004H409.058H410.146H411.267H412.421H413.61H414.831H416.085H417.373H418.693H420.047H421.433H422.852H424.303H425.786H427.302H428.851H430.431H432.043H433.687H435.363H437.071H438.81H440.58H442.382H444.215H446.08H447.975H449.901H451.858H453.846H455.864H457.913H459.992H462.101H464.241H466.41H468.61H470.839H473.098H475.387H477.705H480.053H482.43H484.836H487.271H489.735H492.229H494.75H497.301H499.88H502.487H505.123H507.787H510.479H513.199H515.947H518.723H521.526H524.357H527.216H530.102H533.015H535.955H538.923H541.917H544.938H547.986H551.06H554.161H557.288H560.442H563.622H566.827H570.059H573.317H576.6H579.909H583.244H586.604H589.989H593.4H596.835H600.296H603.781H607.292H610.827H614.386H617.97H621.578H625.211H628.868H632.548H636.253H639.981H643.734H647.509H651.309H655.131H658.977H662.846H666.738H670.653H674.591H678.552H682.535H686.541H690.569H694.62H698.692H702.787H706.904H711.043H715.203H719.385H723.589H727.814H732.06H736.328H740.617H744.927H749.257H753.609H757.981H762.374H766.787H771.221H775.675H780.149H784.643H789.157H793.691H798.244H802.817H807.41H812.022H816.654H821.304H825.974H830.663H835.37H840.096H844.841H849.605H854.387H859.187H864.005H868.842H873.696H878.569H883.459H888.367H893.292H898.235H903.196H908.173H913.168H918.18H923.208H928.254H933.316H938.395H943.49H948.602H953.73H958.874H964.034H969.211H974.403H979.61H984.834H990.073H995.327H1000.6H1005.88H1011.18H1016.5H1021.83H1027.17H1032.53H1037.9H1043.29H1048.7H1054.11H1059.54H1064.99H1070.45H1075.92H1081.41H1086.91H1092.42H1097.95H1103.49H1109.04H1114.61H1120.19H1125.78H1131.38H1137H1142.63H1148.27H1153.93H1159.6H1165.28H1170.97H1176.67H1182.38H1188.11H1193.85H1199.6H1205.36H1211.13H1216.91H1222.71H1228.51H1234.33H1240.15H1245.99H1251.84H1257.7H1263.57H1269.44H1275.33H1281.23H1287.14H1293.06H1298.98H1304.92H1310.87H1316.82H1322.79H1328.76H1334.74H1340.74H1346.74H1352.75H1358.76H1364.79H1370.82H1376.87H1382.92H1388.98H1395.04H1401.12H1407.2H1413.29H1419.39H1425.49H1431.6H1437.72H1443.85H1449.98H1456.12H1462.27H1468.42H1474.58H1480.74H1486.92H1493.1H1499.28H1505.47H1511.67H1517.87H1524.08H1530.29H1536.51H1542.73H1548.96H1555.19H1561.43H1567.68H1573.93H1580.18H1586.44H1592.7H1598.97H1605.24H1611.51H1617.79H1624.08H1630.36H1636.65H1642.95H1649.24H1655.55H1661.85H1668.16H1674.47H1680.78H1687.1H1693.42H1699.74H1706.06H1712.39H1718.72H1725.05H1731.38H1737.72H1744.05H1750.39H1756.73H1763.08H1769.42H1775.76H1782.11H1788.46H1794.81H1801.15H1807.5H1813.85H1820.21H1826.56H1832.91H1839.26H1845.61H1851.97H1858.32H1864.67H1871.02H1877.37H1883.73H1890.08H1896.43H1902.77H1909.12H1915.47H1921.81H1928.16H1934.5H1940.84H1947.18H1953.52H1959.86H1966.19H1972.53H1978.86H1985.19H1991.51H1997.84H2004.16H2010.47H2016.79H2023.1H2029.41H2035.72H2042.02H2048.32H2054.62H2060.91H2067.2H2073.49H2079.77H2086.05H2092.33H2098.6H2104.86H2111.12H2117.38H2123.63H2129.88H2136.12H2142.36H2148.59H2154.82H2161.04H2167.26H2173.47H2179.68H2185.88H2192.08H2198.27H2204.45H2210.62H2216.8H2222.96H2229.12H2235.27H2241.41H2247.55H2253.68H2259.81H2265.93H2272.04H2278.14H2284.23H2290.32H2296.4H2302.48H2308.54H2314.6H2320.65H2326.69H2332.72H2338.74H2344.76H2350.77H2356.77H2362.76H2368.74H2374.71H2380.67H2386.63H2392.57H2398.5H2404.43H2410.35H2416.25H2422.15H2428.03H2433.91H2439.78H2445.63H2451.48H2457.31H2463.14H2468.95H2474.75H2480.54H2486.32H2492.09H2497.85H2503.6H2509.33H2515.06H2520.77H2526.47H2532.16H2537.84H2543.5H2549.15H2554.79H2560.42H2566.03H2571.64H2577.23H2582.8H2588.37H2593.92H2599.45H2604.98H2610.49H2615.99H2621.47H2626.94H2632.4H2637.84H2643.26H2648.68H2654.08H2659.46H2664.83H2670.19H2675.53H2680.86H2686.17H2691.47H2696.75H2702.01H2707.27H2712.5H2717.72H2722.93H2728.11H2733.29H2738.44H2743.58H2748.71H2753.82H2758.91H2763.98H2769.04H2774.08H2779.11H2784.12H2789.11H2794.08H2799.04H2803.98H2808.9H2813.8H2818.69H2823.56H2828.41H2833.24H2838.06H2842.85H2847.63H2852.39H2856.13V426.557H2857V744H2853.26H2848.5H2843.72H2838.93H2834.11H2829.28H2824.43H2819.56H2814.67H2809.77H2804.85H2799.91H2794.95H2789.98H2784.99H2779.98H2774.95H2769.91H2764.85H2759.78H2754.69H2749.58H2744.45H2739.31H2734.16H2728.98H2723.8H2718.59H2713.37H2708.14H2702.89H2697.62H2692.34H2687.04H2681.73H2676.4H2671.06H2665.7H2660.33H2654.95H2649.55H2644.14H2638.71H2633.27H2627.81H2622.34H2616.86H2611.36H2605.85H2600.32H2594.79H2589.24H2583.67H2578.1H2572.51H2566.9H2561.29H2555.66H2550.02H2544.37H2538.71H2533.03H2527.34H2521.64H2515.93H2510.2H2504.47H2498.72H2492.96H2487.19H2481.41H2475.62H2469.82H2464.01H2458.18H2452.35H2446.5H2440.65H2434.78H2428.9H2423.02H2417.12H2411.22H2405.3H2399.38H2393.44H2387.5H2381.54H2375.58H2369.61H2363.63H2357.64H2351.64H2345.63H2339.62H2333.59H2327.56H2321.52H2315.47H2309.41H2303.35H2297.27H2291.19H2285.11H2279.01H2272.91H2266.8H2260.68H2254.56H2248.42H2242.29H2236.14H2229.99H2223.83H2217.67H2211.5H2205.32H2199.14H2192.95H2186.75H2180.55H2174.34H2168.13H2161.92H2155.69H2149.47H2143.23H2136.99H2130.75H2124.5H2118.25H2111.99H2105.73H2099.47H2093.2H2086.92H2080.64H2074.36H2068.08H2061.79H2055.49H2049.2H2042.9H2036.59H2030.28H2023.97H2017.66H2011.35H2005.03H1998.71H1992.38H1986.06H1979.73H1973.4H1967.07H1960.73H1954.39H1948.06H1941.72H1935.37H1929.03H1922.69H1916.34H1909.99H1903.65H1897.3H1890.95H1884.6H1878.25H1871.89H1865.54H1859.19H1852.84H1846.49H1840.13H1833.78H1827.43H1821.08H1814.73H1808.38H1802.03H1795.68H1789.33H1782.98H1776.64H1770.29H1763.95H1757.61H1751.27H1744.93H1738.59H1732.25H1725.92H1719.59H1713.26H1706.93H1700.61H1694.29H1687.97H1681.65H1675.34H1669.03H1662.72H1656.42H1650.12H1643.82H1637.52H1631.23H1624.95H1618.66H1612.39H1606.11H1599.84H1593.57H1587.31H1581.05H1574.8H1568.55H1562.31H1556.07H1549.83H1543.6H1537.38H1531.16H1524.95H1518.74H1512.54H1506.34H1500.15H1493.97H1487.79H1481.62H1475.45H1469.29H1463.14H1456.99H1450.85H1444.72H1438.59H1432.47H1426.36H1420.26H1414.16H1408.07H1401.99H1395.92H1389.85H1383.79H1377.74H1371.7H1365.66H1359.64H1353.62H1347.61H1341.61H1335.62H1329.63H1323.66H1317.7H1311.74H1305.79H1299.86H1293.93H1288.01H1282.1H1276.2H1270.32H1264.44H1258.57H1252.71H1246.86H1241.03H1235.2H1229.39H1223.58H1217.79H1212H1206.23H1200.47H1194.72H1188.98H1183.26H1177.54H1171.84H1166.15H1160.47H1154.8H1149.15H1143.5H1137.87H1132.26H1126.65H1121.06H1115.48H1109.91H1104.36H1098.82H1093.29H1087.78H1082.28H1076.79H1071.32H1065.86H1060.42H1054.99H1049.57H1044.17H1038.78H1033.4H1028.04H1022.7H1017.37H1012.05H1006.75H1001.47H996.2H990.946H985.707H980.483H975.276H970.084H964.907H959.747H954.603H949.475H944.363H939.268H934.189H929.127H924.082H919.053H914.041H909.047H904.069H899.109H894.166H889.24H884.332H879.442H874.57H869.715H864.879H860.06H855.26H850.478H845.715H840.97H836.243H831.536H826.847H822.178H817.527H812.896H808.283H803.691H799.118H794.564H790.03H785.516H781.022H776.548H772.094H767.66H763.247H758.854H754.482H750.131H745.8H741.49H737.202H732.934H728.687H724.462H720.259H716.077H711.916H707.778H703.661H699.566H695.493H691.443H687.415H683.409H679.425H675.465H671.527H667.612H663.72H659.851H656.005H652.182H648.383H644.607H640.855H637.127H633.422H629.741H626.085H622.452H618.844H615.26H611.7H608.165H604.655H601.17H597.709H594.273H590.863H587.478H584.118H580.783H577.474H574.191H570.933H567.701H564.495H561.316H558.162H555.035H551.934H548.86H545.812H542.791H539.796H536.829H533.889H530.976H528.09H525.231H522.4H519.597H516.821H514.073H511.353H508.661H505.997H503.361H500.754H498.175H495.624H493.102H490.609H488.145H485.71H483.304H480.927H478.579H476.261H473.972H471.713H469.484H467.284H465.115H462.975H460.866H458.787H456.738H454.72H452.732H450.775H448.849H446.954H445.089H443.256H441.454H439.684H437.945H436.237H434.561H432.917H431.305H429.725H428.176H426.66H425.177H423.726H422.307H420.921H419.567H418.247H416.959H415.705H414.484H413.296H412.141H411.02H409.932H408.878H407.858H406.872H405.92H405.002H404.118H403.269H402.454H401.674H400.928H400.217H399.541H398.9H398.294H397.724H397.188H396.688H396.224H395.795H395.402H395.045H394.724H394.439H394.19H393.977C361.123 744 335.057 726.147 326.186 717.273L33.8479 424.872L33.8516 424.868C33.7918 424.811 33.732 424.754 33.6723 424.696L32.8955 423.919C32.1472 423.171 31.4194 422.42 30.7121 421.666C21.4422 411.585 13.1311 396.806 10.7959 380.219C10.2065 376.032 9.99714 371.728 10.2502 367.351C10.3215 366.538 10.4078 365.728 10.5085 364.922C12.0023 352.969 16.6911 341.755 23.2798 332.232Z" fill="url(#paint0_linear_749_10995)"/>
</g>
<defs>
<linearGradient id="paint0_linear_749_10995" x1="8.00001" y1="372.52" x2="2446.6" y2="372.52" gradientUnits="userSpaceOnUse">
<stop stop-color="#E965FF"/>
<stop offset="1" stop-color="#E965FF" stop-opacity="0"/>
</linearGradient>
<clipPath id="clip0_749_10995">
<rect width="1852" height="746" fill="white"/>
</clipPath>
</defs>
</svg>
