<svg width="353" height="84" viewBox="0 0 353 84" fill="none" xmlns="http://www.w3.org/2000/svg">
<path d="M28.3873 23.7404C30.8073 18.7354 33.3373 13.6204 35.4823 9.27535H37.1873C37.7373 13.6204 38.3423 18.7904 38.9473 23.7404L41.2023 42.0004H52.7523C56.9873 33.9704 69.6923 10.4304 73.9273 2.95035H65.6223L55.9973 21.7604C53.5773 26.6004 51.1574 31.3854 49.2323 35.1804H46.7023C46.2623 31.3304 45.7123 26.5454 45.1623 21.7054L42.7423 2.95035H31.3023L22.2273 21.6504C19.8623 26.4904 17.5523 31.3304 15.6823 35.1804H13.3173C12.7673 31.4404 12.0523 26.7104 11.3923 21.9804L8.42234 2.95035H0.777344C2.37234 10.4304 6.55234 33.9704 7.81734 42.0004H19.3673L28.3873 23.7404Z" fill="white"/>
<path d="M89.3536 42.6604C105.854 42.6604 108.879 39.4704 110.309 31.3854L103.269 31.1654C102.609 34.9054 100.959 36.6654 89.6836 36.6654C79.0686 36.6654 76.9786 34.7954 77.8036 28.0854H110.859C111.024 27.2604 111.244 26.2704 111.409 25.1704C113.279 13.3454 109.539 9.33035 93.5336 9.33035C77.4736 9.33035 73.1836 12.9604 71.0386 25.1704L70.7635 26.8204C68.6735 38.6454 73.0186 42.6604 89.3536 42.6604ZM93.2036 14.8304C103.599 14.8304 105.249 16.7554 104.369 22.9704H78.7385C80.2785 16.5353 83.0836 14.8304 93.2036 14.8304Z" fill="white"/>
<path d="M117.247 32.7604C116.532 36.7754 116.092 39.4704 115.542 42.0004H122.802C123.187 39.4704 123.682 36.7754 124.342 32.8154L128.357 10.0454C129.072 6.14035 129.567 3.17035 130.062 0.860352H122.802C122.417 3.22535 121.922 6.14035 121.262 9.99035L117.247 32.7604Z" fill="white"/>
<path d="M150.954 42.6604C167.124 42.6604 170.754 39.0304 172.514 29.2404L165.474 29.0754C164.594 34.1904 162.119 36.2803 151.284 36.2803C140.229 36.2803 138.579 34.1904 139.954 26.2154L140.009 25.7754C141.439 17.7454 143.859 15.7104 154.914 15.7104C165.749 15.7104 167.344 17.8554 166.464 22.9154V22.8604L173.559 22.6954C175.374 12.6304 171.469 9.33035 155.299 9.33035C139.349 9.33035 135.059 12.9604 132.914 25.1704L132.639 26.8204C130.494 39.0304 135.059 42.6604 150.954 42.6604Z" fill="white"/>
<path d="M196.396 42.6604C212.786 42.6604 216.911 39.0304 219.056 26.8204L219.331 25.1704C221.476 12.9604 217.241 9.33035 200.906 9.33035C184.516 9.33035 180.391 12.9604 178.246 25.1704L177.971 26.8204C175.826 39.0304 180.061 42.6604 196.396 42.6604ZM196.781 36.2803C185.561 36.2803 183.911 34.1904 185.286 26.2154L185.341 25.7754C186.771 17.7454 189.191 15.7104 200.466 15.7104C211.686 15.7104 213.446 17.7454 211.961 25.7754L211.906 26.2154C210.531 34.1904 208.056 36.2803 196.781 36.2803Z" fill="white"/>
<path d="M224.986 33.2004C224.271 37.3254 223.886 39.5804 223.391 42.0004H230.651C230.981 39.5804 231.366 37.4354 232.136 33.2004L233.401 25.9404C234.831 18.0754 237.471 15.8204 245.446 15.8204C252.541 15.8204 254.136 17.5254 253.146 23.1904L251.386 33.3653C250.616 37.4903 250.341 39.2504 249.791 42.0004H256.996C257.546 38.6454 258.041 36.1704 258.481 33.2004L259.801 25.9404C261.176 18.0754 263.981 15.8204 271.846 15.8204C278.941 15.8204 280.591 17.5254 279.601 23.1904L277.786 33.3104C277.071 37.4904 276.796 39.2504 276.191 42.0004H283.451C284.001 38.7004 284.441 36.2254 284.936 33.3104L285.431 30.3404C286.311 25.3904 286.861 22.7503 287.246 20.2754C288.676 12.4103 285.761 9.33035 274.981 9.33035C267.996 9.33035 263.761 11.2554 261.121 15.1054C260.296 10.9804 256.611 9.33035 248.801 9.33035C241.981 9.33035 237.801 11.0904 235.051 14.6654L235.766 9.99035H229.056C228.726 12.1354 228.341 14.2254 227.681 18.0204L224.986 33.2004Z" fill="white"/>
<path d="M311.663 42.6604C328.163 42.6604 331.188 39.4704 332.618 31.3854L325.578 31.1654C324.918 34.9054 323.268 36.6654 311.993 36.6654C301.378 36.6654 299.288 34.7954 300.113 28.0854H333.168C333.333 27.2604 333.553 26.2704 333.718 25.1704C335.588 13.3454 331.848 9.33035 315.843 9.33035C299.783 9.33035 295.493 12.9604 293.348 25.1704L293.073 26.8204C290.983 38.6454 295.328 42.6604 311.663 42.6604ZM315.513 14.8304C325.908 14.8304 327.558 16.7554 326.678 22.9704H301.048C302.588 16.5353 305.393 14.8304 315.513 14.8304Z" fill="white"/>
<path d="M343.736 2.95035C343.626 3.94035 340.656 26.3254 339.886 30.9454H346.101C346.926 26.3254 351.821 3.94035 352.041 2.95035H343.736ZM338.236 33.9704L336.806 42.0004H345.221L346.706 33.9704H338.236Z" fill="white"/>
<path d="M11.9967 81.294C19.0318 81.294 20.7118 79.803 20.7118 75.561L18.6117 75.498C18.5698 78.396 17.6667 79.257 12.0807 79.257C6.49475 79.257 5.42375 78.123 5.42375 73.671V73.419C5.42375 69.114 6.49475 67.833 12.0807 67.833C17.6667 67.833 18.6117 68.694 18.6117 71.592L20.7118 71.529C20.7118 67.287 19.0108 65.796 11.9967 65.796C5.02475 65.796 3.21875 67.497 3.21875 73.209V73.881C3.21875 79.593 5.02475 81.294 11.9967 81.294Z" fill="#535559"/>
<path d="M23.8043 77.64C23.8043 79.299 23.8043 80.118 23.7833 81H25.9253C25.9043 80.118 25.9043 79.341 25.9043 77.64V74.826C25.9043 71.298 26.8913 70.521 30.5033 70.521C34.1783 70.521 34.5983 71.025 34.5983 73.398V73.818L36.6143 73.776C36.6353 73.461 36.6353 73.146 36.6353 72.894C36.6353 69.408 35.6903 68.568 31.0073 68.568C28.4033 68.568 26.7233 69.24 25.7783 70.605L25.7363 68.82H23.7833C23.8043 69.639 23.8043 70.395 23.8043 71.949V77.64Z" fill="#535559"/>
<path d="M46.3403 81.252C52.4723 81.252 53.6273 80.034 53.6273 77.115L51.5483 77.031C51.5483 78.606 50.9813 79.383 46.3613 79.383C41.8883 79.383 40.8803 78.564 40.7753 75.729H53.6273C53.6273 75.372 53.6483 74.931 53.6273 74.595C53.5643 69.954 52.1783 68.568 46.1933 68.568C40.2083 68.568 38.6123 69.954 38.6123 74.595V75.225C38.6123 79.866 40.2083 81.252 46.3403 81.252ZM46.1933 70.395C50.4983 70.395 51.3173 71.235 51.4013 73.923H40.7753C40.9223 71.151 41.9723 70.395 46.1933 70.395Z" fill="#535559"/>
<path d="M62.8323 81.252C66.0873 81.252 67.9353 80.601 68.8593 79.572L68.8803 81H70.7703C70.7493 79.341 70.7493 78.27 70.7493 77.01C70.7493 75.246 70.7703 74.448 70.7703 72.789C70.7703 69.912 69.6993 68.568 63.4833 68.568C57.8343 68.568 56.5533 69.765 56.5953 72.306L58.7163 72.369C58.6953 70.92 59.1993 70.437 63.4833 70.437C67.9143 70.437 68.6493 71.088 68.6493 73.188V74.679C67.6623 73.902 65.8563 73.44 62.8323 73.44C57.3093 73.44 56.1123 74.595 56.1123 77.388C56.1123 80.118 57.2463 81.252 62.8323 81.252ZM63.4413 79.425C59.1573 79.425 58.2753 78.9 58.2753 77.388C58.2753 75.834 58.8423 75.183 63.4413 75.183C67.9563 75.183 68.6913 75.813 68.6913 76.758V77.409C68.6913 78.774 67.9563 79.425 63.4413 79.425Z" fill="#535559"/>
<path d="M75.1921 73.44C75.1921 74.469 75.1711 75.666 75.1711 76.59C75.1711 80.202 76.2841 81.105 81.2401 81.105C82.1641 81.105 82.9411 81.063 83.5921 81L83.5711 79.089C82.7731 79.131 82.2901 79.152 81.3451 79.152C78.1321 79.152 77.2921 78.837 77.2921 76.296V70.731H83.5711V68.82H77.2921C77.2921 67.77 77.2921 66.93 77.3131 66.426L75.1711 66.468C75.1921 67.434 75.1921 68.127 75.1921 68.82C74.5201 68.82 73.8481 68.841 72.9871 68.82V70.731H75.1921V73.44Z" fill="#535559"/>
<path d="M93.3032 81.252C99.4352 81.252 100.59 80.034 100.59 77.115L98.5112 77.031C98.5112 78.606 97.9442 79.383 93.3242 79.383C88.8512 79.383 87.8432 78.564 87.7382 75.729H100.59C100.59 75.372 100.611 74.931 100.59 74.595C100.527 69.954 99.1412 68.568 93.1562 68.568C87.1712 68.568 85.5752 69.954 85.5752 74.595V75.225C85.5752 79.866 87.1712 81.252 93.3032 81.252ZM93.1562 70.395C97.4612 70.395 98.2802 71.235 98.3642 73.923H87.7382C87.8852 71.151 88.9352 70.395 93.1562 70.395Z" fill="#535559"/>
<path d="M119.205 81.378C120.78 78.27 124.077 71.676 125.589 68.82H123.321L120.717 73.902C120.024 75.246 119.331 76.611 118.743 77.808H117.567C116.832 76.59 115.971 75.204 115.131 73.839L112.065 68.82H109.671C111.498 71.697 114.816 77.178 116.349 79.761H117.735L117.357 80.433C116.601 81.777 116.118 82.05 114.879 82.05C114.081 82.05 113.43 82.029 112.758 81.987L112.695 83.877C113.472 83.919 114.438 83.961 114.942 83.961C117.084 83.961 118.239 83.289 119.205 81.378Z" fill="#535559"/>
<path d="M134.112 81.252C140.181 81.252 141.777 79.866 141.777 75.225V74.595C141.777 69.954 140.181 68.568 134.112 68.568C128.043 68.568 126.447 69.954 126.447 74.595V75.225C126.447 79.866 128.043 81.252 134.112 81.252ZM134.112 79.299C129.492 79.299 128.589 78.417 128.589 75.015V74.805C128.589 71.403 129.492 70.521 134.112 70.521C138.732 70.521 139.635 71.403 139.635 74.805V75.015C139.635 78.417 138.732 79.299 134.112 79.299Z" fill="#535559"/>
<path d="M144.738 73.44C144.738 74.7 144.717 75.204 144.717 76.065C144.717 79.761 145.788 81.252 151.311 81.252C154.251 81.252 156.036 80.58 157.023 79.215L157.065 81H159.018C158.997 80.181 158.997 79.425 158.997 77.871V72.18C158.997 70.521 158.997 69.702 159.018 68.82H156.876C156.897 69.702 156.897 70.479 156.897 72.18V75.12C156.897 78.312 155.91 79.299 151.878 79.299C147.636 79.299 146.838 78.228 146.838 75.435V72.159C146.838 70.374 146.838 69.765 146.859 68.82H144.717C144.738 69.807 144.738 70.647 144.738 72.159V73.44Z" fill="#535559"/>
<path d="M162.827 77.64C162.827 79.299 162.827 80.118 162.806 81H164.948C164.927 80.118 164.927 79.341 164.927 77.64V74.826C164.927 71.298 165.914 70.521 169.526 70.521C173.201 70.521 173.621 71.025 173.621 73.398V73.818L175.637 73.776C175.658 73.461 175.658 73.146 175.658 72.894C175.658 69.408 174.713 68.568 170.03 68.568C167.426 68.568 165.746 69.24 164.801 70.605L164.759 68.82H162.806C162.827 69.639 162.827 70.395 162.827 71.949V77.64Z" fill="#535559"/>
<path d="M193.113 81.252C199.182 81.252 200.778 79.866 200.778 75.225V74.595C200.778 69.954 199.182 68.568 193.113 68.568C187.044 68.568 185.448 69.954 185.448 74.595V75.225C185.448 79.866 187.044 81.252 193.113 81.252ZM193.113 79.299C188.493 79.299 187.59 78.417 187.59 75.015V74.805C187.59 71.403 188.493 70.521 193.113 70.521C197.733 70.521 198.636 71.403 198.636 74.805V75.015C198.636 78.417 197.733 79.299 193.113 79.299Z" fill="#535559"/>
<path d="M211.913 75.015C212.438 73.65 212.984 72.285 213.467 71.046H214.076C214.517 72.306 215 73.713 215.462 75.078L217.499 81H220.901C222.035 78.018 224.513 71.676 225.752 68.82H223.505L221.468 74.154C220.859 75.771 220.229 77.451 219.683 78.9H218.906C218.486 77.556 217.961 76.002 217.436 74.469L215.504 68.82H212.228L210.128 74.385C209.561 75.897 208.952 77.493 208.448 78.9H207.629C207.146 77.472 206.579 75.792 206.054 74.238L204.227 68.82H201.833C202.925 71.634 205.214 78.018 206.222 81H209.624L211.913 75.015Z" fill="#535559"/>
<path d="M227.837 77.64C227.837 79.299 227.837 80.118 227.816 81H229.958C229.937 80.118 229.937 79.341 229.937 77.64V74.7C229.937 71.508 230.924 70.521 235.04 70.521C239.303 70.521 240.101 71.592 240.101 74.385V77.661C240.101 79.446 240.101 80.055 240.08 81H242.222C242.201 80.013 242.201 79.173 242.201 77.661V76.38C242.201 75.12 242.222 74.616 242.222 73.755C242.222 70.059 241.151 68.568 235.607 68.568C232.625 68.568 230.798 69.24 229.811 70.605L229.769 68.82H227.816C227.837 69.639 227.837 70.395 227.837 71.949V77.64Z" fill="#535559"/>
<path d="M260.099 81.252C266.21 81.252 266.987 80.286 266.987 77.766C266.987 75.267 266.231 74.343 259.931 73.818C255.416 73.44 255.101 73.062 255.101 72.012C255.101 70.899 255.752 70.458 259.7 70.458C263.711 70.458 264.341 70.941 264.341 72.222V72.537L266.504 72.474C266.504 69.555 265.475 68.568 259.784 68.568C254.177 68.568 253.085 69.597 253.085 72.159C253.085 74.637 254.009 75.435 259.595 75.897C264.467 76.296 264.845 76.695 264.845 77.871C264.845 79.005 264.404 79.488 260.183 79.488C255.71 79.488 255.059 79.005 255.059 77.304V76.968L252.938 77.031C252.938 80.559 254.03 81.252 260.099 81.252Z" fill="#535559"/>
<path d="M270.57 73.44C270.57 74.469 270.549 75.666 270.549 76.59C270.549 80.202 271.662 81.105 276.618 81.105C277.542 81.105 278.319 81.063 278.97 81L278.949 79.089C278.151 79.131 277.668 79.152 276.723 79.152C273.51 79.152 272.67 78.837 272.67 76.296V70.731H278.949V68.82H272.67C272.67 67.77 272.67 66.93 272.691 66.426L270.549 66.468C270.57 67.434 270.57 68.127 270.57 68.82C269.898 68.82 269.226 68.841 268.365 68.82V70.731H270.57V73.44Z" fill="#535559"/>
<path d="M281.73 73.44C281.73 74.7 281.709 75.204 281.709 76.065C281.709 79.761 282.78 81.252 288.303 81.252C291.243 81.252 293.028 80.58 294.015 79.215L294.057 81H296.01C295.989 80.181 295.989 79.425 295.989 77.871V72.18C295.989 70.521 295.989 69.702 296.01 68.82H293.868C293.889 69.702 293.889 70.479 293.889 72.18V75.12C293.889 78.312 292.902 79.299 288.87 79.299C284.628 79.299 283.83 78.228 283.83 75.435V72.159C283.83 70.374 283.83 69.765 283.851 68.82H281.709C281.73 69.807 281.73 70.647 281.73 72.159V73.44Z" fill="#535559"/>
<path d="M306.245 81.252C309.416 81.252 311.306 80.559 312.314 79.152L312.356 81H314.309C314.288 79.971 314.288 79.257 314.288 77.64V68.82C314.288 67.266 314.288 66.195 314.309 65.292H312.125C312.146 66.153 312.167 68.337 312.167 70.458C311.117 69.177 309.311 68.568 306.371 68.568C300.617 68.568 299 69.954 299 74.595V75.225C299 79.866 300.617 81.252 306.245 81.252ZM306.665 79.299C302.066 79.299 301.142 78.417 301.142 75.015V74.805C301.142 71.403 302.066 70.521 306.77 70.521C311.243 70.521 312.188 71.487 312.188 74.826V74.994C312.188 78.312 311.243 79.299 306.665 79.299Z" fill="#535559"/>
<path d="M318.133 65.628V67.581H320.275V65.628H318.133ZM318.154 77.703C318.154 79.11 318.154 80.076 318.133 81H320.275C320.254 80.076 320.254 79.11 320.254 77.724V72.369C320.254 70.857 320.254 69.723 320.275 68.82H318.133C318.154 69.723 318.154 70.857 318.154 72.348V77.703Z" fill="#535559"/>
<path d="M330.967 81.252C337.036 81.252 338.632 79.866 338.632 75.225V74.595C338.632 69.954 337.036 68.568 330.967 68.568C324.898 68.568 323.302 69.954 323.302 74.595V75.225C323.302 79.866 324.898 81.252 330.967 81.252ZM330.967 79.299C326.347 79.299 325.444 78.417 325.444 75.015V74.805C325.444 71.403 326.347 70.521 330.967 70.521C335.587 70.521 336.49 71.403 336.49 74.805V75.015C336.49 78.417 335.587 79.299 330.967 79.299Z" fill="#535559"/>
</svg>
