<svg width="309" height="21" viewBox="0 0 309 21" fill="none" xmlns="http://www.w3.org/2000/svg">
<path d="M13.2123 9.69594C13.8503 7.69394 14.4883 5.64795 15.0383 3.90995H15.7203C16.2483 5.64795 16.8643 7.71594 17.4583 9.69594L19.6363 16.9999H24.2563C25.3783 13.7879 28.8103 4.37195 29.9763 1.37994H26.8743L24.3443 8.90394C23.7283 10.8399 23.0903 12.7539 22.5843 14.2719H21.5723C21.1323 12.7319 20.5603 10.8179 19.9883 8.88195L17.7223 1.37994H13.1463L10.8143 8.85995C10.2203 10.7959 9.62631 12.7319 9.16431 14.2719H8.21831C7.73431 12.7759 7.11831 10.8839 6.50231 8.99195L3.99431 1.37994H0.716309C1.88231 4.37195 5.22631 13.7879 6.28231 16.9999H10.9023L13.2123 9.69594Z" fill="white"/>
<path d="M38.6328 17.2639C45.2108 17.2639 46.5088 15.9879 46.5088 12.7539L43.7148 12.6659C43.7148 14.1619 43.1428 14.8659 38.6548 14.8659C34.3868 14.8659 33.4188 14.1179 33.2868 11.4339H46.5088C46.5088 11.1039 46.5308 10.7079 46.5088 10.2679C46.4868 5.38395 44.9248 3.93194 38.5008 3.93194C32.0988 3.93194 30.3828 5.38395 30.3828 10.2679V10.9279C30.3828 15.8119 32.0988 17.2639 38.6328 17.2639ZM38.5228 6.13195C42.6588 6.13195 43.4728 6.90195 43.5388 9.38795H33.2868C33.4628 6.81394 34.4748 6.13195 38.5228 6.13195Z" fill="white"/>
<path d="M64.5285 17.2639C70.9965 17.2639 71.9205 16.2079 71.9205 13.4359C71.9205 10.8619 71.0845 9.80594 64.5945 9.32195C59.9965 8.94794 59.6885 8.61795 59.6885 7.62794C59.6885 6.61594 60.2825 6.19794 64.0445 6.19794C68.0045 6.19794 68.5765 6.65994 68.5765 7.84795V8.13395L71.4145 8.06795C71.4145 4.98795 70.4025 3.93194 64.1325 3.93194C58.1485 3.93194 56.9385 5.05395 56.9385 7.78195C56.9385 10.4219 57.9285 11.3019 63.7805 11.7639C68.6645 12.1379 69.0385 12.5119 69.0385 13.6119C69.0385 14.6679 68.6425 15.0859 64.5945 15.0859C60.1505 15.0859 59.5785 14.6459 59.5785 13.1279V12.7979L56.7625 12.8639C56.7625 16.5379 57.9505 17.2639 64.5285 17.2639Z" fill="white"/>
<path d="M82.0742 17.2639C88.6522 17.2639 89.9502 15.9879 89.9502 12.7539L87.1562 12.6659C87.1562 14.1619 86.5842 14.8659 82.0962 14.8659C77.8282 14.8659 76.8602 14.1179 76.7282 11.4339H89.9502C89.9502 11.1039 89.9722 10.7079 89.9502 10.2679C89.9282 5.38395 88.3662 3.93194 81.9422 3.93194C75.5402 3.93194 73.8242 5.38395 73.8242 10.2679V10.9279C73.8242 15.8119 75.5402 17.2639 82.0742 17.2639ZM81.9642 6.13195C86.1002 6.13195 86.9142 6.90195 86.9802 9.38795H76.7282C76.9042 6.81394 77.9162 6.13195 81.9642 6.13195Z" fill="white"/>
<path d="M92.7915 13.4799C92.7915 15.1299 92.7915 16.0319 92.7695 16.9999H95.6735C95.6515 16.0319 95.6515 15.1739 95.6515 13.4799V10.5759C95.6515 7.42995 96.5755 6.52795 100.579 6.52795C104.715 6.52795 105.463 7.49595 105.463 10.2679V13.5239C105.463 15.3059 105.463 15.9659 105.441 16.9999H108.345C108.323 15.9219 108.323 14.9979 108.323 13.5239V12.1599C108.323 10.6859 108.345 10.0919 108.345 9.12395C108.345 5.44994 107.267 3.93194 101.657 3.93194C98.3795 3.93194 96.5095 4.70194 95.4975 6.19794L95.4755 4.19594H92.7695C92.7915 5.05394 92.7915 5.88995 92.7915 7.40795V13.4799Z" fill="white"/>
<path d="M112.705 8.85995C112.705 10.1359 112.683 11.4119 112.683 12.4239C112.683 16.1859 113.937 17.1099 119.349 17.1099C120.251 17.1099 121.109 17.0659 121.923 16.9999L121.901 14.5139C121.021 14.5799 120.559 14.6019 119.591 14.6019C116.313 14.6019 115.565 14.2719 115.565 11.7419V6.68195H121.901V4.19594H115.565C115.565 3.09594 115.565 2.25995 115.587 1.68794L112.683 1.73195C112.705 2.72194 112.705 3.42594 112.705 4.19594C112.001 4.19594 111.209 4.19594 110.395 4.19594V6.68195H112.705V8.85995Z" fill="white"/>
<path d="M141.858 17.1319C143.486 13.9199 146.874 7.18794 148.458 4.19594H145.378L142.738 9.36595C142.122 10.5979 141.506 11.8519 140.956 12.9959H139.746C139.064 11.8299 138.272 10.5759 137.524 9.32195L134.4 4.19594H131.166C133.08 7.20994 136.336 12.5999 137.986 15.4159H139.702L139.372 16.0099C138.646 17.3739 138.14 17.6599 136.798 17.6599C135.962 17.6599 135.192 17.6379 134.29 17.5939L134.246 20.0139C135.148 20.1019 136.248 20.1459 136.886 20.1459C139.548 20.1459 140.692 19.4199 141.858 17.1319Z" fill="white"/>
<path d="M157.29 17.2639C163.846 17.2639 165.518 15.8119 165.518 10.9279V10.2679C165.518 5.38395 163.846 3.93194 157.29 3.93194C150.756 3.93194 149.084 5.38395 149.084 10.2679V10.9279C149.084 15.8119 150.756 17.2639 157.29 17.2639ZM157.29 14.7119C152.802 14.7119 151.966 13.8759 151.966 10.6859V10.5099C151.966 7.29795 152.802 6.48394 157.29 6.48394C161.8 6.48394 162.614 7.29795 162.614 10.5099V10.6859C162.614 13.8759 161.8 14.7119 157.29 14.7119Z" fill="white"/>
<path d="M168.286 9.03594C168.286 10.4879 168.264 11.0819 168.264 12.0719C168.264 15.7459 169.342 17.2639 174.908 17.2639C178.12 17.2639 179.99 16.4939 180.98 14.9979L181.024 16.9999H183.708C183.686 16.1199 183.686 15.3059 183.686 13.7879V7.71595C183.686 6.04395 183.686 5.16394 183.708 4.19594H180.826C180.848 5.16394 180.848 6.02195 180.848 7.71595V10.6199C180.848 13.7439 179.924 14.6679 175.986 14.6679C171.872 14.6679 171.124 13.6999 171.124 10.9059V7.67194C171.124 5.88995 171.124 5.22994 171.146 4.19594H168.264C168.286 5.27394 168.286 6.19794 168.286 7.67194V9.03594Z" fill="white"/>
<path d="M201.974 17.2639C205.516 17.2639 207.364 16.5819 208.244 15.4159L208.288 16.9999H210.884C210.862 15.2619 210.862 14.1399 210.862 12.8199C210.862 10.7959 210.884 10.0479 210.884 8.30995C210.884 5.31795 209.696 3.93194 203.074 3.93194C197.024 3.93194 195.572 5.09795 195.616 8.00195L198.366 8.06795C198.344 6.70395 198.806 6.26394 203.03 6.26394C207.364 6.26394 208.024 6.87995 208.024 8.90394V10.3779C207.056 9.51995 205.23 9.07995 201.974 9.07995C196.276 9.07995 195.066 10.2899 195.066 13.2159C195.066 16.0979 196.232 17.2639 201.974 17.2639ZM202.986 15.0419C198.74 15.0419 197.948 14.5579 197.948 13.1499C197.948 11.7199 198.476 11.1259 203.03 11.1259C207.408 11.1259 208.09 11.6979 208.09 12.6219V13.1719C208.09 14.4479 207.408 15.0419 202.986 15.0419Z" fill="white"/>
<path d="M230.141 17.2639C236.609 17.2639 238.149 15.8119 238.149 11.8959L235.333 11.8299C235.333 13.8759 234.497 14.7119 230.163 14.7119C225.741 14.7119 224.905 13.8759 224.905 10.6859V10.5099C224.905 7.29795 225.741 6.48394 230.163 6.48394C234.497 6.48394 235.289 7.34195 235.289 9.36595V9.34395L238.105 9.27795C238.105 5.25195 236.631 3.93194 230.141 3.93194C223.761 3.93194 222.023 5.38395 222.023 10.2679V10.9279C222.023 15.8119 223.783 17.2639 230.141 17.2639Z" fill="white"/>
<path d="M248.362 17.2639C254.918 17.2639 256.59 15.8119 256.59 10.9279V10.2679C256.59 5.38395 254.918 3.93194 248.362 3.93194C241.828 3.93194 240.156 5.38395 240.156 10.2679V10.9279C240.156 15.8119 241.828 17.2639 248.362 17.2639ZM248.362 14.7119C243.874 14.7119 243.038 13.8759 243.038 10.6859V10.5099C243.038 7.29795 243.874 6.48394 248.362 6.48394C252.872 6.48394 253.686 7.29795 253.686 10.5099V10.6859C253.686 13.8759 252.872 14.7119 248.362 14.7119Z" fill="white"/>
<path d="M266.112 17.2639C269.434 17.2639 271.326 16.4939 272.338 14.9979L272.36 16.9999H275.066C275.044 15.9219 275.044 15.1739 275.044 13.4799V4.19594C275.044 2.61194 275.044 1.46795 275.066 0.543945H272.118C272.14 1.44595 272.162 3.73394 272.162 5.97794C271.128 4.61395 269.28 3.93194 266.178 3.93194C260.26 3.93194 258.654 5.33995 258.654 10.2679V10.9279C258.654 15.8559 260.26 17.2639 266.112 17.2639ZM266.904 14.6679C262.416 14.6679 261.536 13.8759 261.536 10.6859V10.5099C261.536 7.27595 262.416 6.48394 266.97 6.48394C271.304 6.48394 272.184 7.36395 272.184 10.5099V10.6859C272.184 13.7659 271.304 14.6679 266.904 14.6679Z" fill="white"/>
<path d="M286.133 17.2639C292.711 17.2639 294.009 15.9879 294.009 12.7539L291.215 12.6659C291.215 14.1619 290.643 14.8659 286.155 14.8659C281.887 14.8659 280.919 14.1179 280.787 11.4339H294.009C294.009 11.1039 294.031 10.7079 294.009 10.2679C293.987 5.38395 292.425 3.93194 286.001 3.93194C279.599 3.93194 277.883 5.38395 277.883 10.2679V10.9279C277.883 15.8119 279.599 17.2639 286.133 17.2639ZM286.023 6.13195C290.159 6.13195 290.973 6.90195 291.039 9.38795H280.787C280.963 6.81394 281.975 6.13195 286.023 6.13195Z" fill="white"/>
<path d="M304.79 1.37994C304.812 1.77594 305.208 10.7299 305.208 12.5779H307.695C307.717 10.7299 308.091 1.77594 308.113 1.37994H304.79ZM304.768 13.7879V16.9999H308.134V13.7879H304.768Z" fill="white"/>
</svg>
