<svg width="309" height="21" viewBox="0 0 309 21" fill="none" xmlns="http://www.w3.org/2000/svg">
<path d="M13.2108 9.69887C13.8488 7.69687 14.4868 5.65088 15.0368 3.91288H15.7188C16.2468 5.65088 16.8628 7.71887 17.4568 9.69887L19.6348 17.0029H24.2548C25.3768 13.7909 28.8088 4.37488 29.9748 1.38287H26.8728L24.3428 8.90687C23.7268 10.8429 23.0888 12.7569 22.5828 14.2749H21.5708C21.1308 12.7349 20.5588 10.8209 19.9868 8.88488L17.7208 1.38287H13.1448L10.8128 8.86287C10.2188 10.7989 9.62484 12.7349 9.16284 14.2749H8.21684C7.73284 12.7789 7.11684 10.8869 6.50084 8.99487L3.99284 1.38287H0.714844C1.88084 4.37488 5.22484 13.7909 6.28084 17.0029H10.9008L13.2108 9.69887Z" fill="white"/>
<path d="M38.6313 17.2669C45.2093 17.2669 46.5073 15.9909 46.5073 12.7569L43.7133 12.6689C43.7133 14.1649 43.1413 14.8689 38.6533 14.8689C34.3853 14.8689 33.4173 14.1209 33.2853 11.4369H46.5073C46.5073 11.1069 46.5293 10.7109 46.5073 10.2709C46.4853 5.38688 44.9233 3.93487 38.4993 3.93487C32.0973 3.93487 30.3813 5.38688 30.3813 10.2709V10.9309C30.3813 15.8149 32.0973 17.2669 38.6313 17.2669ZM38.5213 6.13488C42.6573 6.13488 43.4713 6.90487 43.5373 9.39087H33.2853C33.4613 6.81687 34.4733 6.13488 38.5213 6.13488Z" fill="white"/>
<path d="M64.527 17.2669C70.995 17.2669 71.919 16.2109 71.919 13.4389C71.919 10.8649 71.083 9.80887 64.593 9.32487C59.995 8.95087 59.687 8.62088 59.687 7.63087C59.687 6.61887 60.281 6.20087 64.043 6.20087C68.003 6.20087 68.5751 6.66287 68.5751 7.85087V8.13688L71.413 8.07088C71.413 4.99088 70.401 3.93487 64.1311 3.93487C58.147 3.93487 56.937 5.05687 56.937 7.78487C56.937 10.4249 57.927 11.3049 63.779 11.7669C68.663 12.1409 69.037 12.5149 69.037 13.6149C69.037 14.6709 68.6411 15.0889 64.593 15.0889C60.149 15.0889 59.577 14.6489 59.577 13.1309V12.8009L56.761 12.8669C56.761 16.5409 57.949 17.2669 64.527 17.2669Z" fill="white"/>
<path d="M82.0727 17.2669C88.6507 17.2669 89.9487 15.9909 89.9487 12.7569L87.1547 12.6689C87.1547 14.1649 86.5827 14.8689 82.0947 14.8689C77.8267 14.8689 76.8587 14.1209 76.7267 11.4369H89.9487C89.9487 11.1069 89.9707 10.7109 89.9487 10.2709C89.9267 5.38688 88.3647 3.93487 81.9407 3.93487C75.5387 3.93487 73.8227 5.38688 73.8227 10.2709V10.9309C73.8227 15.8149 75.5387 17.2669 82.0727 17.2669ZM81.9627 6.13488C86.0987 6.13488 86.9127 6.90487 86.9787 9.39087H76.7267C76.9027 6.81687 77.9147 6.13488 81.9627 6.13488Z" fill="white"/>
<path d="M92.79 13.4829C92.79 15.1329 92.79 16.0349 92.768 17.0029H95.672C95.65 16.0349 95.65 15.1769 95.65 13.4829V10.5789C95.65 7.43288 96.574 6.53088 100.578 6.53088C104.714 6.53088 105.462 7.49888 105.462 10.2709V13.5269C105.462 15.3089 105.462 15.9689 105.44 17.0029H108.344C108.322 15.9249 108.322 15.0009 108.322 13.5269V12.1629C108.322 10.6889 108.344 10.0949 108.344 9.12687C108.344 5.45287 107.266 3.93487 101.656 3.93487C98.378 3.93487 96.508 4.70487 95.496 6.20087L95.474 4.19887H92.768C92.79 5.05687 92.79 5.89288 92.79 7.41088V13.4829Z" fill="white"/>
<path d="M112.704 8.86287C112.704 10.1389 112.682 11.4149 112.682 12.4269C112.682 16.1889 113.936 17.1129 119.348 17.1129C120.25 17.1129 121.108 17.0689 121.922 17.0029L121.9 14.5169C121.02 14.5829 120.558 14.6049 119.59 14.6049C116.312 14.6049 115.564 14.2749 115.564 11.7449V6.68488H121.9V4.19887H115.564C115.564 3.09887 115.564 2.26288 115.586 1.69087L112.682 1.73488C112.704 2.72487 112.704 3.42887 112.704 4.19887C112 4.19887 111.208 4.19887 110.394 4.19887V6.68488H112.704V8.86287Z" fill="white"/>
<path d="M141.857 17.1349C143.485 13.9229 146.873 7.19087 148.457 4.19887H145.377L142.737 9.36888C142.121 10.6009 141.505 11.8549 140.955 12.9989H139.745C139.063 11.8329 138.271 10.5789 137.523 9.32487L134.399 4.19887H131.165C133.079 7.21287 136.335 12.6029 137.985 15.4189H139.701L139.371 16.0129C138.645 17.3769 138.139 17.6629 136.797 17.6629C135.961 17.6629 135.191 17.6409 134.289 17.5969L134.245 20.0169C135.147 20.1049 136.247 20.1489 136.885 20.1489C139.547 20.1489 140.691 19.4229 141.857 17.1349Z" fill="white"/>
<path d="M157.288 17.2669C163.844 17.2669 165.516 15.8149 165.516 10.9309V10.2709C165.516 5.38688 163.844 3.93487 157.288 3.93487C150.755 3.93487 149.082 5.38688 149.082 10.2709V10.9309C149.082 15.8149 150.755 17.2669 157.288 17.2669ZM157.288 14.7149C152.8 14.7149 151.964 13.8789 151.964 10.6889V10.5129C151.964 7.30088 152.8 6.48687 157.288 6.48687C161.798 6.48687 162.612 7.30088 162.612 10.5129V10.6889C162.612 13.8789 161.798 14.7149 157.288 14.7149Z" fill="white"/>
<path d="M168.285 9.03887C168.285 10.4909 168.263 11.0849 168.263 12.0749C168.263 15.7489 169.341 17.2669 174.907 17.2669C178.119 17.2669 179.989 16.4969 180.979 15.0009L181.023 17.0029H183.707C183.685 16.1229 183.685 15.3089 183.685 13.7909V7.71887C183.685 6.04688 183.685 5.16687 183.707 4.19887H180.825C180.847 5.16687 180.847 6.02488 180.847 7.71887V10.6229C180.847 13.7469 179.923 14.6709 175.985 14.6709C171.871 14.6709 171.123 13.7029 171.123 10.9089V7.67487C171.123 5.89287 171.123 5.23287 171.145 4.19887H168.263C168.285 5.27687 168.285 6.20087 168.285 7.67487V9.03887Z" fill="white"/>
<path d="M201.972 17.2669C205.514 17.2669 207.362 16.5849 208.242 15.4189L208.286 17.0029H210.882C210.86 15.2649 210.86 14.1429 210.86 12.8229C210.86 10.7989 210.882 10.0509 210.882 8.31287C210.882 5.32087 209.694 3.93487 203.072 3.93487C197.022 3.93487 195.57 5.10087 195.614 8.00488L198.364 8.07088C198.342 6.70687 198.804 6.26687 203.028 6.26687C207.362 6.26687 208.022 6.88288 208.022 8.90687V10.3809C207.054 9.52288 205.228 9.08288 201.972 9.08288C196.274 9.08288 195.064 10.2929 195.064 13.2189C195.064 16.1009 196.23 17.2669 201.972 17.2669ZM202.984 15.0449C198.738 15.0449 197.946 14.5609 197.946 13.1529C197.946 11.7229 198.474 11.1289 203.028 11.1289C207.406 11.1289 208.088 11.7009 208.088 12.6249V13.1749C208.088 14.4509 207.406 15.0449 202.984 15.0449Z" fill="white"/>
<path d="M230.14 17.2669C236.608 17.2669 238.148 15.8149 238.148 11.8989L235.332 11.8329C235.332 13.8789 234.496 14.7149 230.162 14.7149C225.74 14.7149 224.904 13.8789 224.904 10.6889V10.5129C224.904 7.30088 225.74 6.48687 230.162 6.48687C234.496 6.48687 235.288 7.34488 235.288 9.36888V9.34688L238.104 9.28088C238.104 5.25487 236.63 3.93487 230.14 3.93487C223.76 3.93487 222.022 5.38688 222.022 10.2709V10.9309C222.022 15.8149 223.782 17.2669 230.14 17.2669Z" fill="white"/>
<path d="M248.361 17.2669C254.917 17.2669 256.589 15.8149 256.589 10.9309V10.2709C256.589 5.38688 254.917 3.93487 248.361 3.93487C241.827 3.93487 240.155 5.38688 240.155 10.2709V10.9309C240.155 15.8149 241.827 17.2669 248.361 17.2669ZM248.361 14.7149C243.873 14.7149 243.037 13.8789 243.037 10.6889V10.5129C243.037 7.30088 243.873 6.48687 248.361 6.48687C252.871 6.48687 253.685 7.30088 253.685 10.5129V10.6889C253.685 13.8789 252.871 14.7149 248.361 14.7149Z" fill="white"/>
<path d="M266.111 17.2669C269.433 17.2669 271.325 16.4969 272.337 15.0009L272.359 17.0029H275.065C275.043 15.9249 275.043 15.1769 275.043 13.4829V4.19887C275.043 2.61487 275.043 1.47087 275.065 0.546875H272.117C272.139 1.44888 272.161 3.73687 272.161 5.98087C271.127 4.61687 269.279 3.93487 266.177 3.93487C260.259 3.93487 258.653 5.34288 258.653 10.2709V10.9309C258.653 15.8589 260.259 17.2669 266.111 17.2669ZM266.903 14.6709C262.415 14.6709 261.535 13.8789 261.535 10.6889V10.5129C261.535 7.27888 262.415 6.48687 266.969 6.48687C271.303 6.48687 272.183 7.36688 272.183 10.5129V10.6889C272.183 13.7689 271.303 14.6709 266.903 14.6709Z" fill="white"/>
<path d="M286.131 17.2669C292.709 17.2669 294.007 15.9909 294.007 12.7569L291.213 12.6689C291.213 14.1649 290.641 14.8689 286.153 14.8689C281.885 14.8689 280.917 14.1209 280.785 11.4369H294.007C294.007 11.1069 294.029 10.7109 294.007 10.2709C293.985 5.38688 292.423 3.93487 285.999 3.93487C279.597 3.93487 277.881 5.38688 277.881 10.2709V10.9309C277.881 15.8149 279.597 17.2669 286.131 17.2669ZM286.021 6.13488C290.157 6.13488 290.971 6.90487 291.037 9.39087H280.785C280.961 6.81687 281.973 6.13488 286.021 6.13488Z" fill="white"/>
<path d="M304.789 1.38287C304.811 1.77887 305.207 10.7329 305.207 12.5809H307.693C307.715 10.7329 308.089 1.77887 308.111 1.38287H304.789ZM304.767 13.7909V17.0029H308.133V13.7909H304.767Z" fill="white"/>
</svg>
