<svg width="225" height="20" viewBox="0 0 225 20" fill="none" xmlns="http://www.w3.org/2000/svg">
<path d="M9.056 11.304C9.536 9.8 10.032 8.28 10.432 7.048H10.912C11.296 8.296 11.76 9.832 12.224 11.352L13.936 17H16.736C17.568 14.728 20.16 7.816 21.056 5.64H19.296L17.264 11.304C16.736 12.792 16.192 14.264 15.792 15.4H15.04C14.704 14.248 14.272 12.76 13.824 11.256L12.112 5.64H9.312L7.536 11.272C7.072 12.76 6.608 14.248 6.256 15.4H5.52C5.12 14.264 4.608 12.792 4.096 11.304L2.128 5.64H0.256C1.12 7.816 3.648 14.728 4.432 17H7.232L9.056 11.304ZM22.7685 14.472C22.7685 15.64 22.7685 16.216 22.7525 17H24.3845C24.3685 16.2 24.3685 15.512 24.3685 14.44V12.2C24.3685 9.768 25.1205 9.016 28.2565 9.016C31.5045 9.016 32.1125 9.832 32.1125 11.96V14.472C32.1125 15.608 32.1125 16.184 32.0965 17H33.7285C33.7125 16.088 33.7125 15.336 33.7125 14.504V13.48C33.7125 12.52 33.7285 12.136 33.7285 11.48C33.7285 8.664 32.9125 7.528 28.6885 7.528C26.4645 7.528 25.0885 8.024 24.3205 9.016C24.3525 7.928 24.4005 5.304 24.4005 5.032H22.7525C22.7685 5.72 22.7685 6.568 22.7685 7.72V14.472ZM41.3166 17.192C43.7966 17.192 45.2046 16.696 45.9086 15.912L45.9246 17H47.3646C47.3486 15.736 47.3486 14.92 47.3486 13.96C47.3486 12.616 47.3646 12.008 47.3646 10.744C47.3646 8.552 46.5486 7.528 41.8126 7.528C37.5086 7.528 36.5326 8.44 36.5646 10.376L38.1806 10.424C38.1646 9.32 38.5486 8.952 41.8126 8.952C45.1886 8.952 45.7486 9.448 45.7486 11.048V12.184C44.9966 11.592 43.6206 11.24 41.3166 11.24C37.1086 11.24 36.1966 12.12 36.1966 14.248C36.1966 16.328 37.0606 17.192 41.3166 17.192ZM41.7806 15.8C38.5166 15.8 37.8446 15.4 37.8446 14.248C37.8446 13.064 38.2766 12.568 41.7806 12.568C45.2206 12.568 45.7806 13.048 45.7806 13.768V14.264C45.7806 15.304 45.2206 15.8 41.7806 15.8ZM50.7336 11.24C50.7336 12.024 50.7176 12.936 50.7176 13.64C50.7176 16.392 51.5656 17.08 55.3416 17.08C56.0456 17.08 56.6376 17.048 57.1336 17L57.1176 15.544C56.5096 15.576 56.1416 15.592 55.4216 15.592C52.9736 15.592 52.3336 15.352 52.3336 13.416V9.176H57.1176V7.72H52.3336C52.3336 6.92 52.3336 6.28 52.3496 5.896L50.7176 5.928C50.7336 6.664 50.7336 7.192 50.7336 7.72C50.2216 7.72 49.7096 7.736 49.0536 7.72V9.176H50.7336V11.24ZM58.9325 5.448V7.416C59.0285 7.4 59.3485 7.4 59.6525 7.4C59.6045 7.608 59.5405 7.816 59.4765 8.024L59.1245 9.336H60.3725L60.9485 7.4V5.448H58.9325ZM68.0841 17.192C72.7401 17.192 73.3321 16.456 73.3321 14.536C73.3321 12.632 72.7561 11.928 67.9561 11.528C64.5161 11.24 64.2761 10.952 64.2761 10.152C64.2761 9.304 64.7721 8.968 67.7801 8.968C70.8361 8.968 71.3161 9.336 71.3161 10.312V10.552L72.9641 10.504C72.9641 8.28 72.1801 7.528 67.8441 7.528C63.5721 7.528 62.7401 8.312 62.7401 10.264C62.7401 12.152 63.4441 12.76 67.7001 13.112C71.4121 13.416 71.7001 13.72 71.7001 14.616C71.7001 15.48 71.3641 15.848 68.1481 15.848C64.7401 15.848 64.2441 15.48 64.2441 14.184V13.928L62.6281 13.976C62.6281 16.664 63.4601 17.192 68.0841 17.192ZM87.4389 17.288C88.6389 14.92 91.1509 9.896 92.3029 7.72H90.5749L88.5909 11.592C88.0629 12.616 87.5349 13.656 87.0869 14.568H86.1909C85.6309 13.64 84.9749 12.584 84.3349 11.544L81.9989 7.72H80.1749C81.5669 9.912 84.0949 14.088 85.2629 16.056H86.3189L86.0309 16.568C85.4549 17.592 85.0869 17.8 84.1429 17.8C83.5349 17.8 83.0389 17.784 82.5269 17.752L82.4789 19.192C83.0709 19.224 83.8069 19.256 84.1909 19.256C85.8229 19.256 86.7029 18.744 87.4389 17.288ZM98.797 17.192C103.421 17.192 104.637 16.136 104.637 12.6V12.12C104.637 8.584 103.421 7.528 98.797 7.528C94.173 7.528 92.957 8.584 92.957 12.12V12.6C92.957 16.136 94.173 17.192 98.797 17.192ZM98.797 15.704C95.277 15.704 94.589 15.032 94.589 12.44V12.28C94.589 9.688 95.277 9.016 98.797 9.016C102.317 9.016 103.005 9.688 103.005 12.28V12.44C103.005 15.032 102.317 15.704 98.797 15.704ZM106.893 11.24C106.893 12.2 106.877 12.584 106.877 13.24C106.877 16.056 107.693 17.192 111.901 17.192C114.141 17.192 115.501 16.68 116.253 15.64L116.285 17H117.773C117.757 16.376 117.757 15.8 117.757 14.616V10.28C117.757 9.016 117.757 8.392 117.773 7.72H116.141C116.157 8.392 116.157 8.984 116.157 10.28V12.52C116.157 14.952 115.405 15.704 112.333 15.704C109.101 15.704 108.493 14.888 108.493 12.76V10.264C108.493 8.904 108.493 8.44 108.509 7.72H106.877C106.893 8.472 106.893 9.112 106.893 10.264V11.24ZM120.675 14.44C120.675 15.704 120.675 16.328 120.659 17H122.291C122.275 16.328 122.275 15.736 122.275 14.44V12.296C122.275 9.608 123.027 9.016 125.779 9.016C128.579 9.016 128.899 9.4 128.899 11.208V11.528L130.435 11.496C130.451 11.256 130.451 11.016 130.451 10.824C130.451 8.168 129.731 7.528 126.163 7.528C124.179 7.528 122.899 8.04 122.179 9.08L122.147 7.72H120.659C120.675 8.344 120.675 8.92 120.675 10.104V14.44ZM138.534 14.44C138.534 15.704 138.534 16.328 138.518 17H140.15C140.134 16.328 140.134 15.736 140.134 14.44V12.2C140.134 9.768 140.886 9.016 144.022 9.016C147.27 9.016 147.878 9.832 147.878 11.96V14.456C147.878 15.816 147.878 16.28 147.862 17H149.494C149.478 16.248 149.478 15.608 149.478 14.456V13.48C149.478 12.52 149.494 12.136 149.494 11.48C149.494 8.664 148.678 7.528 144.454 7.528C142.182 7.528 140.79 8.04 140.038 9.08L140.006 7.72H138.518C138.534 8.344 138.534 8.92 138.534 10.104V14.44ZM157.082 17.192C159.562 17.192 160.97 16.696 161.674 15.912L161.69 17H163.13C163.114 15.736 163.114 14.92 163.114 13.96C163.114 12.616 163.13 12.008 163.13 10.744C163.13 8.552 162.314 7.528 157.578 7.528C153.274 7.528 152.298 8.44 152.33 10.376L153.946 10.424C153.93 9.32 154.314 8.952 157.578 8.952C160.954 8.952 161.514 9.448 161.514 11.048V12.184C160.762 11.592 159.386 11.24 157.082 11.24C152.874 11.24 151.962 12.12 151.962 14.248C151.962 16.328 152.826 17.192 157.082 17.192ZM157.546 15.8C154.282 15.8 153.61 15.4 153.61 14.248C153.61 13.064 154.042 12.568 157.546 12.568C160.986 12.568 161.546 13.048 161.546 13.768V14.264C161.546 15.304 160.986 15.8 157.546 15.8ZM165.987 14.44C165.987 15.704 165.987 16.328 165.971 17H167.603C167.587 16.328 167.587 15.736 167.587 14.44V12.2C167.587 9.768 168.339 9.016 170.867 9.016C173.075 9.016 173.715 9.56 173.715 11.208V14.488C173.715 15.72 173.715 16.216 173.699 17H175.331C175.315 16.024 175.315 15.32 175.315 14.44V12.2C175.315 9.768 176.099 9.016 178.611 9.016C180.819 9.016 181.459 9.56 181.459 11.208V14.472C181.459 15.72 181.459 16.216 181.443 17H183.075C183.059 16.024 183.059 15.32 183.059 14.472V13.64C183.059 12.2 183.075 11.384 183.075 10.728C183.075 8.392 182.259 7.528 179.091 7.528C177.075 7.528 175.827 8.072 175.155 9.192C174.755 7.992 173.683 7.528 171.347 7.528C169.395 7.528 168.163 8.04 167.491 9.096L167.459 7.72H165.971C165.987 8.344 165.987 8.92 165.987 10.104V14.44ZM191.204 17.192C195.876 17.192 196.756 16.264 196.756 14.04L195.172 13.976C195.172 15.176 194.74 15.768 191.22 15.768C187.812 15.768 187.044 15.144 186.964 12.984H196.756C196.756 12.712 196.772 12.376 196.756 12.12C196.708 8.584 195.652 7.528 191.092 7.528C186.532 7.528 185.316 8.584 185.316 12.12V12.6C185.316 16.136 186.532 17.192 191.204 17.192ZM191.092 8.92C194.372 8.92 194.996 9.56 195.06 11.608H186.964C187.076 9.496 187.876 8.92 191.092 8.92ZM204.714 13.96C209.434 13.96 210.65 12.904 210.65 9.848V9.528C210.65 6.472 209.45 5.416 204.554 5.416C199.498 5.416 198.458 6.376 198.458 9.208L200.042 9.256C200.01 7.624 200.682 6.904 204.554 6.904C208.33 6.904 209.018 7.576 209.018 9.688C209.018 11.8 208.33 12.472 204.714 12.472C204.282 12.472 203.818 12.472 203.258 12.456L203.226 13.944C203.754 13.96 204.234 13.96 204.714 13.96ZM203.274 15.048V17H205.29V15.048H203.274Z" fill="#9EA1AB"/>
<path d="M221.168 11.5356C221.152 10.9916 221.136 10.3036 221.088 9.64765C221.648 10.0156 222.224 10.3836 222.688 10.6556L223.632 11.2316L224.32 10.0476L223.344 9.51965C222.864 9.24765 222.272 8.94365 221.664 8.63965C222.272 8.33565 222.864 8.03165 223.344 7.75965L224.32 7.23165L223.632 6.04765L222.688 6.62365C222.224 6.89565 221.648 7.26365 221.088 7.63165C221.136 6.97565 221.152 6.28765 221.168 5.74365L221.2 4.63965H219.824L219.856 5.74365C219.872 6.28765 219.888 6.97565 219.936 7.63165C219.376 7.26365 218.8 6.89565 218.336 6.62365L217.392 6.04765L216.704 7.23165L217.68 7.75965C218.16 8.03165 218.752 8.33565 219.36 8.63965C218.752 8.94365 218.16 9.24765 217.68 9.51965L216.704 10.0476L217.392 11.2316L218.336 10.6556C218.8 10.3836 219.376 10.0156 219.936 9.64765C219.888 10.3036 219.872 10.9916 219.856 11.5356L219.824 12.6396H221.2L221.168 11.5356Z" fill="#5200FF"/>
</svg>
