<svg width="206" height="15" viewBox="0 0 206 15" fill="none" xmlns="http://www.w3.org/2000/svg">
<path d="M9.056 6.304C9.536 4.8 10.032 3.28 10.432 2.048H10.912C11.296 3.296 11.76 4.832 12.224 6.352L13.936 12H16.736C17.568 9.728 20.16 2.816 21.056 0.639999H19.296L17.264 6.304C16.736 7.792 16.192 9.264 15.792 10.4H15.04C14.704 9.248 14.272 7.76 13.824 6.256L12.112 0.639999H9.312L7.536 6.272C7.072 7.76 6.608 9.248 6.256 10.4H5.52C5.12 9.264 4.608 7.792 4.096 6.304L2.128 0.639999H0.256C1.12 2.816 3.648 9.728 4.432 12H7.232L9.056 6.304ZM22.7685 9.472C22.7685 10.64 22.7685 11.216 22.7525 12H24.3845C24.3685 11.2 24.3685 10.512 24.3685 9.44V7.2C24.3685 4.768 25.1205 4.016 28.2565 4.016C31.5045 4.016 32.1125 4.832 32.1125 6.96V9.472C32.1125 10.608 32.1125 11.184 32.0965 12H33.7285C33.7125 11.088 33.7125 10.336 33.7125 9.504V8.48C33.7125 7.52 33.7285 7.136 33.7285 6.48C33.7285 3.664 32.9125 2.528 28.6885 2.528C26.4645 2.528 25.0885 3.024 24.3205 4.016C24.3525 2.928 24.4005 0.304 24.4005 0.0319996H22.7525C22.7685 0.719999 22.7685 1.568 22.7685 2.72V9.472ZM41.3166 12.192C43.7966 12.192 45.2046 11.696 45.9086 10.912L45.9246 12H47.3646C47.3486 10.736 47.3486 9.92 47.3486 8.96C47.3486 7.616 47.3646 7.008 47.3646 5.744C47.3646 3.552 46.5486 2.528 41.8126 2.528C37.5086 2.528 36.5326 3.44 36.5646 5.376L38.1806 5.424C38.1646 4.32 38.5486 3.952 41.8126 3.952C45.1886 3.952 45.7486 4.448 45.7486 6.048V7.184C44.9966 6.592 43.6206 6.24 41.3166 6.24C37.1086 6.24 36.1966 7.12 36.1966 9.248C36.1966 11.328 37.0606 12.192 41.3166 12.192ZM41.7806 10.8C38.5166 10.8 37.8446 10.4 37.8446 9.248C37.8446 8.064 38.2766 7.568 41.7806 7.568C45.2206 7.568 45.7806 8.048 45.7806 8.768V9.264C45.7806 10.304 45.2206 10.8 41.7806 10.8ZM50.7336 6.24C50.7336 7.024 50.7176 7.936 50.7176 8.64C50.7176 11.392 51.5656 12.08 55.3416 12.08C56.0456 12.08 56.6376 12.048 57.1336 12L57.1176 10.544C56.5096 10.576 56.1416 10.592 55.4216 10.592C52.9736 10.592 52.3336 10.352 52.3336 8.416V4.176H57.1176V2.72H52.3336C52.3336 1.92 52.3336 1.28 52.3496 0.896L50.7176 0.927999C50.7336 1.664 50.7336 2.192 50.7336 2.72C50.2216 2.72 49.7096 2.736 49.0536 2.72V4.176H50.7336V6.24ZM58.9325 0.447999V2.416C59.0285 2.4 59.3485 2.4 59.6525 2.4C59.6045 2.608 59.5405 2.816 59.4765 3.024L59.1245 4.336H60.3725L60.9485 2.4V0.447999H58.9325ZM68.0841 12.192C72.7401 12.192 73.3321 11.456 73.3321 9.536C73.3321 7.632 72.7561 6.928 67.9561 6.528C64.5161 6.24 64.2761 5.952 64.2761 5.152C64.2761 4.304 64.7721 3.968 67.7801 3.968C70.8361 3.968 71.3161 4.336 71.3161 5.312V5.552L72.9641 5.504C72.9641 3.28 72.1801 2.528 67.8441 2.528C63.5721 2.528 62.7401 3.312 62.7401 5.264C62.7401 7.152 63.4441 7.76 67.7001 8.112C71.4121 8.416 71.7001 8.72 71.7001 9.616C71.7001 10.48 71.3641 10.848 68.1481 10.848C64.7401 10.848 64.2441 10.48 64.2441 9.184V8.928L62.6281 8.976C62.6281 11.664 63.4601 12.192 68.0841 12.192ZM87.4389 12.288C88.6389 9.92 91.1509 4.896 92.3029 2.72H90.5749L88.5909 6.592C88.0629 7.616 87.5349 8.656 87.0869 9.568H86.1909C85.6309 8.64 84.9749 7.584 84.3349 6.544L81.9989 2.72H80.1749C81.5669 4.912 84.0949 9.088 85.2629 11.056H86.3189L86.0309 11.568C85.4549 12.592 85.0869 12.8 84.1429 12.8C83.5349 12.8 83.0389 12.784 82.5269 12.752L82.4789 14.192C83.0709 14.224 83.8069 14.256 84.1909 14.256C85.8229 14.256 86.7029 13.744 87.4389 12.288ZM98.797 12.192C103.421 12.192 104.637 11.136 104.637 7.6V7.12C104.637 3.584 103.421 2.528 98.797 2.528C94.173 2.528 92.957 3.584 92.957 7.12V7.6C92.957 11.136 94.173 12.192 98.797 12.192ZM98.797 10.704C95.277 10.704 94.589 10.032 94.589 7.44V7.28C94.589 4.688 95.277 4.016 98.797 4.016C102.317 4.016 103.005 4.688 103.005 7.28V7.44C103.005 10.032 102.317 10.704 98.797 10.704ZM106.893 6.24C106.893 7.2 106.877 7.584 106.877 8.24C106.877 11.056 107.693 12.192 111.901 12.192C114.141 12.192 115.501 11.68 116.253 10.64L116.285 12H117.773C117.757 11.376 117.757 10.8 117.757 9.616V5.28C117.757 4.016 117.757 3.392 117.773 2.72H116.141C116.157 3.392 116.157 3.984 116.157 5.28V7.52C116.157 9.952 115.405 10.704 112.333 10.704C109.101 10.704 108.493 9.888 108.493 7.76V5.264C108.493 3.904 108.493 3.44 108.509 2.72H106.877C106.893 3.472 106.893 4.112 106.893 5.264V6.24ZM120.675 9.44C120.675 10.704 120.675 11.328 120.659 12H122.291C122.275 11.328 122.275 10.736 122.275 9.44V7.296C122.275 4.608 123.027 4.016 125.779 4.016C128.579 4.016 128.899 4.4 128.899 6.208V6.528L130.435 6.496C130.451 6.256 130.451 6.016 130.451 5.824C130.451 3.168 129.731 2.528 126.163 2.528C124.179 2.528 122.899 3.04 122.179 4.08L122.147 2.72H120.659C120.675 3.344 120.675 3.92 120.675 5.104V9.44ZM143.798 12.192C148.47 12.192 149.35 11.264 149.35 9.04L147.766 8.976C147.766 10.176 147.334 10.768 143.814 10.768C140.406 10.768 139.638 10.144 139.558 7.984H149.35C149.35 7.712 149.366 7.376 149.35 7.12C149.302 3.584 148.246 2.528 143.686 2.528C139.126 2.528 137.91 3.584 137.91 7.12V7.6C137.91 11.136 139.126 12.192 143.798 12.192ZM143.686 3.92C146.966 3.92 147.59 4.56 147.654 6.608H139.558C139.67 4.496 140.47 3.92 143.686 3.92ZM151.644 9.44C151.644 10.704 151.644 11.328 151.628 12H153.26C153.244 11.328 153.244 10.736 153.244 9.44V7.2C153.244 4.768 153.996 4.016 156.524 4.016C158.732 4.016 159.372 4.56 159.372 6.208V9.488C159.372 10.72 159.372 11.216 159.356 12H160.988C160.972 11.024 160.972 10.32 160.972 9.44V7.2C160.972 4.768 161.756 4.016 164.268 4.016C166.476 4.016 167.116 4.56 167.116 6.208V9.472C167.116 10.72 167.116 11.216 167.1 12H168.732C168.716 11.024 168.716 10.32 168.716 9.472V8.64C168.716 7.2 168.732 6.384 168.732 5.728C168.732 3.392 167.916 2.528 164.748 2.528C162.732 2.528 161.484 3.072 160.812 4.192C160.412 2.992 159.34 2.528 157.004 2.528C155.052 2.528 153.82 3.04 153.148 4.096L153.116 2.72H151.628C151.644 3.344 151.644 3.92 151.644 5.104V9.44ZM176.317 12.192C178.797 12.192 180.205 11.696 180.909 10.912L180.925 12H182.365C182.349 10.736 182.349 9.92 182.349 8.96C182.349 7.616 182.365 7.008 182.365 5.744C182.365 3.552 181.549 2.528 176.813 2.528C172.509 2.528 171.533 3.44 171.565 5.376L173.181 5.424C173.165 4.32 173.549 3.952 176.813 3.952C180.189 3.952 180.749 4.448 180.749 6.048V7.184C179.997 6.592 178.621 6.24 176.317 6.24C172.109 6.24 171.197 7.12 171.197 9.248C171.197 11.328 172.061 12.192 176.317 12.192ZM176.781 10.8C173.517 10.8 172.845 10.4 172.845 9.248C172.845 8.064 173.277 7.568 176.781 7.568C180.221 7.568 180.781 8.048 180.781 8.768V9.264C180.781 10.304 180.221 10.8 176.781 10.8ZM185.238 0.287999V1.776H186.87V0.287999H185.238ZM185.254 9.488C185.254 10.56 185.254 11.296 185.238 12H186.87C186.854 11.296 186.854 10.56 186.854 9.504V5.424C186.854 4.272 186.854 3.408 186.87 2.72H185.238C185.254 3.408 185.254 4.272 185.254 5.408V9.488ZM189.832 9.488C189.832 10.56 189.832 11.296 189.816 12H191.448C191.432 11.296 191.432 10.56 191.432 9.504V2.736C191.432 1.584 191.432 0.719999 191.448 0.0319996H189.816C189.832 0.719999 189.832 1.584 189.832 2.72V9.488ZM200.042 8.96C204.762 8.96 205.978 7.904 205.978 4.848V4.528C205.978 1.472 204.778 0.415999 199.882 0.415999C194.826 0.415999 193.786 1.376 193.786 4.208L195.37 4.256C195.338 2.624 196.01 1.904 199.882 1.904C203.658 1.904 204.346 2.576 204.346 4.688C204.346 6.8 203.658 7.472 200.042 7.472C199.61 7.472 199.146 7.472 198.586 7.456L198.554 8.944C199.082 8.96 199.562 8.96 200.042 8.96ZM198.602 10.048V12H200.618V10.048H198.602Z" fill="#9EA1AB"/>
</svg>
