<svg width="246" height="52" viewBox="0 0 246 52" fill="none" xmlns="http://www.w3.org/2000/svg">
<rect width="246" height="52" rx="25.5188" fill="#1E2025"/>
<path d="M75.8892 35C84.5104 35 86.4845 33.2795 87.4091 27.9685L84.1605 27.8937C83.5608 30.9856 82.4613 31.9829 76.1141 31.9829C69.8169 31.9829 68.9173 30.7612 69.7669 25.9239L69.7919 25.6745C70.6415 20.9619 71.9909 19.6155 78.2881 19.6155C84.6603 19.6155 85.435 20.5879 84.8852 23.7047L88.1587 23.6299C89.0833 18.4186 87.0842 16.5984 78.4381 16.5984C69.9168 16.5984 67.6679 18.643 66.4684 25.4003L66.3184 26.1982C65.094 32.7559 67.2181 35 75.8892 35Z" fill="#535559"/>
<path d="M90.3318 30.4619C90.0069 32.2822 89.807 33.5039 89.5571 34.6509H92.8557C93.0306 33.5039 93.2555 32.2822 93.5554 30.4869L95.3796 20.164C95.7044 18.3937 95.9293 17.0472 96.1542 16H92.8557C92.6808 17.0722 92.4559 18.3937 92.156 20.1391L90.3318 30.4619Z" fill="#535559"/>
<path d="M105.696 34.9501C113.143 34.9501 115.017 33.3045 115.992 27.769L116.117 27.021C117.091 21.4856 115.167 19.8399 107.745 19.8399C100.299 19.8399 98.4245 21.4856 97.4499 27.021L97.325 27.769C96.3504 33.3045 98.2746 34.9501 105.696 34.9501ZM105.871 32.0577C100.773 32.0577 100.024 31.1102 100.648 27.4947L100.673 27.2953C101.323 23.6549 102.423 22.7323 107.545 22.7323C112.643 22.7323 113.443 23.6549 112.768 27.2953L112.743 27.4947C112.118 31.1102 110.994 32.0577 105.871 32.0577Z" fill="#535559"/>
<path d="M126.083 34.9501C133.429 34.9501 134.304 34.0276 134.854 30.8858C135.379 27.9436 134.329 26.5971 127.382 26.0236C122.259 25.5748 121.985 25.0512 122.159 23.9042C122.309 22.8819 123.109 22.4081 127.407 22.4081C131.88 22.4081 132.455 22.9318 132.205 24.2782L132.13 24.6024L135.404 24.5276C136.003 21.0367 134.729 19.8399 127.607 19.8399C120.81 19.8399 119.611 20.8871 119.061 23.979C118.536 26.9462 119.611 28.168 125.983 28.6667C131.455 29.1404 131.78 29.664 131.58 30.9108C131.405 32.0328 130.831 32.4816 126.258 32.4816C121.21 32.4816 120.635 31.9829 120.935 30.2625L120.985 29.8885L117.786 29.9633C117.062 34.1273 118.611 34.9501 126.083 34.9501Z" fill="#535559"/>
<path d="M146.061 34.9501C153.558 34.9501 154.932 33.5039 155.582 29.8386L152.383 29.7388C152.083 31.4344 151.334 32.2323 146.211 32.2323C141.388 32.2323 140.438 31.3845 140.813 28.3425H155.832C155.907 27.9685 156.007 27.5197 156.081 27.021C156.931 21.6601 155.232 19.8399 147.96 19.8399C140.663 19.8399 138.714 21.4856 137.74 27.021L137.615 27.769C136.665 33.1299 138.639 34.9501 146.061 34.9501ZM147.81 22.3333C152.533 22.3333 153.283 23.206 152.883 26.0236H141.238C141.938 23.1063 143.212 22.3333 147.81 22.3333Z" fill="#535559"/>
<path d="M165.781 34.9501C169.379 34.9501 171.578 34.1024 172.978 32.4567L172.628 34.6509H175.701C175.901 33.4291 176.051 32.5814 176.376 30.6614L178.225 20.1391C178.55 18.3438 178.775 17.0472 179 16H175.651C175.502 17.0472 175.052 19.7152 174.602 22.2585C173.652 20.6627 171.578 19.8399 167.98 19.8399C161.258 19.8399 159.384 21.4357 158.409 27.021L158.284 27.769C157.31 33.3045 159.159 34.9501 165.781 34.9501ZM166.88 32.0079C161.808 32.0079 160.983 31.0853 161.608 27.4947L161.633 27.2953C162.282 23.6798 163.457 22.7822 168.63 22.7822C173.527 22.7822 174.377 23.7795 173.752 27.2953L173.702 27.4947C173.078 30.9856 171.878 32.0079 166.88 32.0079Z" fill="#535559"/>
</svg>
