<svg width="146" height="14" viewBox="0 0 146 14" fill="none" xmlns="http://www.w3.org/2000/svg">
<path d="M24.2572 9.19954C24.2572 10.2752 24.2572 10.8693 24.2412 11.7523H30.3817C35.8365 11.7523 37.2081 10.4839 37.2081 6.14908V5.95642C37.2081 1.62156 35.8365 0.353211 30.3977 0.353211H24.2412C24.2572 1.12385 24.2572 1.62156 24.2572 2.48853V9.19954ZM30.3977 1.86239C34.72 1.86239 35.5334 2.7133 35.5334 5.95642V6.14908C35.5334 9.3922 34.72 10.2431 30.3817 10.2431H25.9159V1.86239H30.3977Z" fill="#535559"/>
<path d="M44.8279 11.945C49.4852 11.945 50.3624 11.0138 50.3624 8.78211L48.7834 8.71789C48.7834 9.92202 48.3528 10.5161 44.8439 10.5161C41.4467 10.5161 40.6811 9.88991 40.6013 7.72248H50.3624C50.3624 7.44954 50.3783 7.11239 50.3624 6.85551C50.3145 3.30734 49.2619 2.24771 44.7163 2.24771C40.1707 2.24771 38.9586 3.30734 38.9586 6.85551V7.33716C38.9586 10.8853 40.1707 11.945 44.8279 11.945ZM44.7163 3.6445C47.9859 3.6445 48.608 4.2867 48.6718 6.34174H40.6013C40.713 4.22248 41.5105 3.6445 44.7163 3.6445Z" fill="#535559"/>
<path d="M57.4334 11.945C62.0746 11.945 62.6648 11.2064 62.6648 9.27982C62.6648 7.36927 62.0906 6.66285 57.3058 6.26147C53.8766 5.97248 53.6374 5.68349 53.6374 4.88073C53.6374 4.02982 54.1318 3.69266 57.1303 3.69266C60.1767 3.69266 60.6551 4.06193 60.6551 5.04129V5.28211L62.2979 5.23395C62.2979 3.00229 61.5164 2.24771 57.1941 2.24771C52.9356 2.24771 52.1062 3.0344 52.1062 4.99312C52.1062 6.88762 52.808 7.49771 57.0506 7.85092C60.7508 8.15596 61.0379 8.46101 61.0379 9.36009C61.0379 10.2271 60.703 10.5963 57.4972 10.5963C54.0999 10.5963 53.6055 10.2271 53.6055 8.92661V8.66973L51.9946 8.71789C51.9946 11.4151 52.824 11.945 57.4334 11.945Z" fill="#535559"/>
<path d="M70.0111 11.945C74.5567 11.945 75.6413 10.9014 75.6413 8.13991L74.0623 8.09174C74.0623 9.76147 73.3924 10.4518 70.0111 10.4518C66.566 10.4518 65.8802 9.77752 65.8802 7.17661V7.01606C65.8802 4.41514 66.566 3.74083 70.0111 3.74083C73.3924 3.74083 74.0304 4.4633 74.0304 6.10092L75.6094 6.05275C75.6094 3.21101 74.5726 2.24771 70.0111 2.24771C65.5293 2.24771 64.2534 3.30734 64.2534 6.85551V7.33716C64.2534 10.8853 65.5453 11.945 70.0111 11.945Z" fill="#535559"/>
<path d="M77.8655 9.18349C77.8655 10.4518 77.8654 11.078 77.8495 11.7523H79.4763C79.4604 11.078 79.4604 10.4839 79.4604 9.18349V7.03211C79.4604 4.33486 80.21 3.74083 82.9533 3.74083C85.7445 3.74083 86.0635 4.12615 86.0635 5.94037V6.26147L87.5946 6.22936C87.6106 5.98853 87.6106 5.74771 87.6106 5.55505C87.6106 2.88991 86.8928 2.24771 83.3361 2.24771C81.3584 2.24771 80.0824 2.76147 79.3647 3.80505L79.3328 2.44037H77.8495C77.8654 3.06651 77.8655 3.6445 77.8655 4.83257V9.18349Z" fill="#535559"/>
<path d="M89.75 0V1.49312H91.3769V0H89.75ZM89.766 9.23165C89.766 10.3073 89.766 11.0459 89.75 11.7523H91.3769C91.3609 11.0459 91.3609 10.3073 91.3609 9.24771V5.15367C91.3609 3.99771 91.3609 3.13073 91.3769 2.44037H89.75C89.766 3.13073 89.766 3.99771 89.766 5.13761V9.23165Z" fill="#535559"/>
<path d="M94.2977 11.7523C94.2977 12.7156 94.2977 13.5183 94.2818 14H95.9246C95.9086 13.3417 95.9086 12.1858 95.9086 10.5C96.7061 11.4794 98.0777 11.945 100.311 11.945C104.681 11.945 105.909 10.8853 105.909 7.33716V6.85551C105.909 3.30734 104.681 2.24771 100.406 2.24771C98.0458 2.24771 96.6104 2.76147 95.8289 3.80505V2.44037H94.2818C94.2977 3.11468 94.2977 3.69266 94.2977 4.43119V11.7523ZM95.8927 7.16055V7.03211C95.8927 4.49541 96.6104 3.74083 100.087 3.74083C103.58 3.74083 104.282 4.41514 104.282 7.01606V7.17661C104.282 9.77752 103.58 10.4518 100.008 10.4518C96.6104 10.4518 95.8927 9.7133 95.8927 7.16055Z" fill="#535559"/>
<path d="M108.702 5.97248C108.702 6.75917 108.686 7.67431 108.686 8.38073C108.686 11.1422 109.531 11.8326 113.295 11.8326C113.997 11.8326 114.587 11.8005 115.081 11.7523L115.065 10.2913C114.459 10.3234 114.092 10.3395 113.375 10.3395C110.934 10.3395 110.297 10.0986 110.297 8.15596V3.90138H115.065V2.44037H110.297C110.297 1.63761 110.297 0.995413 110.312 0.610093L108.686 0.642202C108.702 1.38073 108.702 1.91055 108.702 2.44037C108.191 2.44037 107.681 2.45642 107.027 2.44037V3.90138H108.702V5.97248Z" fill="#535559"/>
<path d="M117.225 0V1.49312H118.852V0H117.225ZM117.241 9.23165C117.241 10.3073 117.241 11.0459 117.225 11.7523H118.852C118.836 11.0459 118.836 10.3073 118.836 9.24771V5.15367C118.836 3.99771 118.836 3.13073 118.852 2.44037H117.225C117.241 3.13073 117.241 3.99771 117.241 5.13761V9.23165Z" fill="#535559"/>
<path d="M126.973 11.945C131.582 11.945 132.794 10.8853 132.794 7.33716V6.85551C132.794 3.30734 131.582 2.24771 126.973 2.24771C122.363 2.24771 121.151 3.30734 121.151 6.85551V7.33716C121.151 10.8853 122.363 11.945 126.973 11.945ZM126.973 10.4518C123.464 10.4518 122.778 9.77752 122.778 7.17661V7.01606C122.778 4.41514 123.464 3.74083 126.973 3.74083C130.482 3.74083 131.167 4.41514 131.167 7.01606V7.17661C131.167 9.77752 130.482 10.4518 126.973 10.4518Z" fill="#535559"/>
<path d="M135.075 9.18349C135.075 10.4518 135.075 11.078 135.059 11.7523H136.686C136.67 11.078 136.67 10.4839 136.67 9.18349V6.93578C136.67 4.49541 137.419 3.74083 140.545 3.74083C143.783 3.74083 144.389 4.55963 144.389 6.69495V9.19954C144.389 10.5642 144.389 11.0298 144.373 11.7523H146C145.984 10.9977 145.984 10.3555 145.984 9.19954V8.22018C145.984 7.25688 146 6.87156 146 6.2133C146 3.38762 145.187 2.24771 140.976 2.24771C138.711 2.24771 137.324 2.76147 136.574 3.80505L136.542 2.44037H135.059C135.075 3.06651 135.075 3.6445 135.075 4.83257V9.18349Z" fill="#535559"/>
<path fill-rule="evenodd" clip-rule="evenodd" d="M0 0.96521H12.4605V2.47037H0V0.96521Z" fill="#535559"/>
<path fill-rule="evenodd" clip-rule="evenodd" d="M0 5.9823H8.47314V7.48746H0V5.9823Z" fill="#535559"/>
<path fill-rule="evenodd" clip-rule="evenodd" d="M0 10.9995H5.48262V12.5047H0V10.9995Z" fill="#535559"/>
</svg>
