<svg width="218" height="218" viewBox="0 0 218 218" fill="none" xmlns="http://www.w3.org/2000/svg">
<path d="M125.904 9.24701L208.692 91.7378C218.144 101.156 218.171 116.454 208.753 125.906L126.264 208.692C116.845 218.144 101.548 218.171 92.0959 208.753L9.30835 126.262C-0.143833 116.844 -0.171371 101.546 9.24674 92.0945L91.7364 9.30808C101.155 -0.143911 116.452 -0.171295 125.904 9.24701Z" fill="url(#paint0_linear_2839_12213)" stroke="url(#paint1_linear_2839_12213)" stroke-width="4.40229"/>
<path d="M101.667 66.0233L104.713 133.391H112.875L115.921 66.0233H101.667ZM102.398 161.045H115.433V146.426H102.398V161.045Z" fill="url(#paint2_linear_2839_12213)"/>
<defs>
<linearGradient id="paint0_linear_2839_12213" x1="109" y1="0" x2="109" y2="218" gradientUnits="userSpaceOnUse">
<stop stop-color="#5200FF"/>
<stop offset="1" stop-color="#5200FF" stop-opacity="0"/>
</linearGradient>
<linearGradient id="paint1_linear_2839_12213" x1="109" y1="0" x2="109" y2="218" gradientUnits="userSpaceOnUse">
<stop stop-color="#5200FF"/>
<stop offset="1" stop-color="#5200FF" stop-opacity="0"/>
</linearGradient>
<linearGradient id="paint2_linear_2839_12213" x1="108.738" y1="33.8066" x2="108.738" y2="197.476" gradientUnits="userSpaceOnUse">
<stop stop-color="white"/>
<stop offset="1" stop-color="white" stop-opacity="0"/>
</linearGradient>
</defs>
</svg>
