<svg width="40" height="40" viewBox="0 0 40 40" fill="none" xmlns="http://www.w3.org/2000/svg">
<path d="M7.75 11.8543C7.75 11.4401 7.41422 11.1043 7 11.1043C6.58579 11.1043 6.25 11.4401 6.25 11.8543H7.75ZM7 28.6778L7.75 28.6787V28.6778H7ZM7.78064 30.5689L8.31161 30.0392L7.78064 30.5689ZM9.66986 31.3541L9.66895 32.1041H9.66986V31.3541ZM30.33 31.3541V32.1041L30.3309 32.1041L30.33 31.3541ZM32.2192 30.5689L31.6882 30.0392H31.6882L32.2192 30.5689ZM32.9998 28.6778H32.2498L32.2498 28.6787L32.9998 28.6778ZM32.9998 14.5306L32.2498 14.5297V14.5306H32.9998ZM32.2192 12.6395L31.6882 13.1692V13.1692L32.2192 12.6395ZM30.33 11.8543L30.3309 11.1043H30.33V11.8543ZM20.8709 11.1043C20.4567 11.1043 20.1209 11.4401 20.1209 11.8543C20.1209 12.2685 20.4567 12.6043 20.8709 12.6043V11.1043ZM6.25011 11.854C6.25011 12.2682 6.5859 12.604 7.00011 12.604C7.41432 12.604 7.75011 12.2682 7.75011 11.854H6.25011ZM7.00011 9.65536H7.75011L7.75011 9.65445L7.00011 9.65536ZM9.66997 6.979V6.229L9.66905 6.229L9.66997 6.979ZM18.2012 6.979L18.2021 6.229H18.2012V6.979ZM20.871 9.65536L20.121 9.65445V9.65536H20.871ZM20.121 11.854C20.121 12.2682 20.4568 12.604 20.871 12.604C21.2852 12.604 21.621 12.2682 21.621 11.854H20.121ZM7 11.1041C6.58579 11.1041 6.25 11.4398 6.25 11.8541C6.25 12.2683 6.58579 12.6041 7 12.6041V11.1041ZM20.8709 12.6041C21.2851 12.6041 21.6209 12.2683 21.6209 11.8541C21.6209 11.4398 21.2851 11.1041 20.8709 11.1041V12.6041ZM6.25 11.8543V28.6778H7.75V11.8543H6.25ZM6.25 28.6769C6.2489 29.5847 6.60849 30.4558 7.24966 31.0986L8.31161 30.0392C7.9514 29.6781 7.74938 29.1887 7.75 28.6787L6.25 28.6769ZM7.24966 31.0986C7.89084 31.7413 8.76108 32.103 9.66895 32.1041L9.67077 30.6041C9.16073 30.6035 8.67183 30.4003 8.31161 30.0392L7.24966 31.0986ZM9.66986 32.1041H30.33V30.6041H9.66986V32.1041ZM30.3309 32.1041C31.2387 32.103 32.109 31.7413 32.7502 31.0986L31.6882 30.0392C31.328 30.4003 30.8391 30.6035 30.3291 30.6041L30.3309 32.1041ZM32.7502 31.0986C33.3913 30.4558 33.7509 29.5847 33.7498 28.6769L32.2498 28.6787C32.2504 29.1887 32.0484 29.6781 31.6882 30.0392L32.7502 31.0986ZM33.7498 28.6778V14.5306H32.2498V28.6778H33.7498ZM33.7498 14.5315C33.7509 13.6237 33.3913 12.7526 32.7502 12.1098L31.6882 13.1692C32.0484 13.5303 32.2504 14.0197 32.2498 14.5297L33.7498 14.5315ZM32.7502 12.1098C32.109 11.4671 31.2387 11.1054 30.3309 11.1043L30.3291 12.6043C30.8391 12.6049 31.328 12.8081 31.6882 13.1692L32.7502 12.1098ZM30.33 11.1043H20.8709V12.6043H30.33V11.1043ZM7.75011 11.854V9.65536H6.25011V11.854H7.75011ZM7.75011 9.65445C7.74949 9.14441 7.95151 8.65501 8.31172 8.29392L7.24977 7.23455C6.60859 7.87729 6.249 8.74841 6.25011 9.65627L7.75011 9.65445ZM8.31172 8.29392C8.67193 7.93283 9.16084 7.72962 9.67088 7.729L9.66905 6.229C8.76119 6.23011 7.89095 6.59181 7.24977 7.23455L8.31172 8.29392ZM9.66997 7.729H18.2012V6.229H9.66997V7.729ZM18.2002 7.729C18.7103 7.72962 19.1992 7.93283 19.5594 8.29392L20.6214 7.23455C19.9802 6.59181 19.1099 6.23011 18.2021 6.229L18.2002 7.729ZM19.5594 8.29392C19.9196 8.65501 20.1216 9.14441 20.121 9.65445L21.621 9.65627C21.6221 8.74841 21.2625 7.87729 20.6214 7.23455L19.5594 8.29392ZM20.121 9.65536V11.854H21.621V9.65536H20.121ZM7 12.6041H20.8709V11.1041H7V12.6041Z" fill="#D9D9D9"/>
<path d="M17 20.8552C17.9434 20.8552 19.893 20.2376 20.1445 17.7673" stroke="#D9D9D9" stroke-width="1.5" stroke-linecap="round"/>
<path d="M23.2891 20.8552C22.3457 20.8552 20.3961 20.2376 20.1445 17.7673" stroke="#D9D9D9" stroke-width="1.5" stroke-linecap="round"/>
<path d="M20.1445 18.4624V26.3533" stroke="#D9D9D9" stroke-width="1.5" stroke-linecap="round"/>
</svg>
