<svg width="225" height="20" viewBox="0 0 225 20" fill="none" xmlns="http://www.w3.org/2000/svg">
<g id="Logo" clip-path="url(#clip0_1017_1081)">
<path id="Vector" d="M24.9317 19.5581C29.6875 12.022 9.12739 6.57257 0 6.25957L1.22951 0.384766H38.3709L37.056 6.25957H21.6615C35.3313 9.97546 33.8456 17.335 33.3675 19.5581H24.9317Z" fill="#5200FF"/>
<path id="Vector_2" d="M39.1578 15.2403C38.8077 17.0461 38.5772 18.4024 38.3125 19.5581H45.8432C46.0482 18.3703 46.3128 17.022 46.6288 15.2403L46.6885 14.8631H60.5717C62.6124 14.9755 65.1738 15.6817 66.7876 17.2788C67.2486 17.7202 67.889 18.4104 67.8549 19.5581H75.4112C75.3685 17.9771 74.8818 16.7812 73.7206 15.465C72.9863 14.7507 72.6875 14.3976 71.0225 13.5469C74.3781 12.7122 76.7261 10.9466 77.3409 7.64801C78.3313 2.46342 75.1807 0.384766 67.7353 0.384766H41.9583C41.8132 1.3318 41.6083 2.32698 41.3777 3.62714L39.1578 15.2403ZM66.9242 5.67369C69.8443 5.67369 70.57 6.26759 70.3139 7.64801C70.0492 9.02843 69.0844 9.67048 66.1728 9.67048H47.696L48.4816 5.67369H66.9327H66.9242Z" fill="#5200FF"/>
<path id="Vector_3" d="M87.4025 2.64801C84.269 7.80852 79.462 16.4121 77.3359 19.5581H85.1911L86.6768 17.0461H107.186L107.766 19.5581H114.921C114.059 16.6287 111.933 8.95619 110.516 3.75555C109.978 1.77321 108.074 0.384766 105.896 0.384766H91.5521C89.8359 0.384766 88.2564 1.25154 87.4025 2.64801ZM89.7676 11.8856C90.7581 10.2082 91.296 8.49071 92.0986 6.85347C92.3547 6.33982 92.8926 6.00274 93.4988 6.00274H103.454C104.189 6.00274 104.821 6.49231 104.957 7.17449C105.29 8.7716 105.657 10.4249 106.033 12.03H89.6737L89.7591 11.8936L89.7676 11.8856Z" fill="#5200FF"/>
<path id="Vector_4" d="M137.149 19.935C148.386 19.935 152.151 18.2095 153.346 11.4278L146.43 11.3235C146.046 13.378 144.006 14.3491 137.79 14.3491C131.574 14.3491 123.13 14.4374 123.796 10.8981V9.04416C124.496 5.48076 131.864 5.59312 137.79 5.59312C144.091 5.59312 147.31 6.48397 146.9 8.6188L153.85 8.51446C155.02 2.19023 149.794 -0.000784099 138.55 -0.000784099C127.305 -0.000784099 118.305 -0.610736 116.734 9.53373V10.8901C117.563 20.9222 125.939 19.927 137.149 19.927V19.935Z" fill="#5200FF"/>
<path id="Vector_5" d="M193.824 7.83789L192.938 12.48H203.662L204.548 7.83789H193.824Z" fill="#5200FF"/>
<path id="Vector_6" d="M181.888 9.66362C188.113 8.87711 191.067 4.16603 192.373 0.5625H184.023C180.095 6.86266 177.115 7.84179 164.983 7.84179L165.828 3.80488C166.093 2.45656 166.263 1.56571 166.468 0.5625H159.458C159.313 1.53361 159.108 2.50472 158.878 3.80488L156.658 15.418C156.308 17.2238 156.077 18.5481 155.812 19.7359H162.814C163.019 18.524 163.283 17.1997 163.599 15.418L164.154 12.5529H174.033C179.814 12.5529 182.435 16.4453 179.421 19.7359H187.387C188.838 17.9943 190.136 12.593 181.88 9.66362H181.888Z" fill="#5200FF"/>
<path id="Vector_7" d="M224.19 0.5625H217.436C217.436 0.5625 215.438 5.61868 209.504 5.20937L208.633 10.1532C208.633 10.1532 213.687 11.2688 217.06 8.19492C217.077 8.17887 217.111 8.16282 217.137 8.1548L215.224 15.7471C214.874 17.5529 214.558 18.5481 214.294 19.7359H221.271C221.476 18.524 221.397 18.8771 221.722 17.0954L222.378 13.8129L223.566 8.09862L224.42 4.03762C224.685 2.68931 224.796 1.56571 225.001 0.570526H224.19V0.5625Z" fill="#5200FF"/>
</g>
<defs>
<clipPath id="clip0_1017_1081">
<rect width="225" height="20" fill="white"/>
</clipPath>
</defs>
</svg>
