<svg width="92" height="22" viewBox="0 0 92 22" fill="none" xmlns="http://www.w3.org/2000/svg">
<path d="M16.5095 18L17.0155 15.194C15.1755 15.217 11.5645 15.217 9.12648 15.217H3.85948L5.72248 4.66003C5.90649 3.44103 6.06749 2.54403 6.25148 1.67003H3.14648C3.00848 2.54403 2.84748 3.44103 2.64048 4.66003L0.938485 14.343C0.639485 15.976 0.478484 16.942 0.271484 18H16.5095Z" fill="white"/>
<path d="M26.7351 18.276C33.5891 18.276 35.3141 16.758 36.2111 11.652L36.3261 10.962C37.2231 5.85603 35.4521 4.33803 28.6211 4.33803C21.7671 4.33803 20.0421 5.85603 19.1451 10.962L19.0301 11.652C18.1331 16.758 19.9041 18.276 26.7351 18.276ZM26.8961 15.608C22.2041 15.608 21.5141 14.734 22.0891 11.399L22.1121 11.215C22.7101 7.85703 23.7221 7.00603 28.4371 7.00603C33.1291 7.00603 33.8651 7.85703 33.2441 11.215L33.2211 11.399C32.6461 14.734 31.6111 15.608 26.8961 15.608Z" fill="white"/>
<path d="M45.66 16.505C48.857 16.505 50.835 15.769 52.077 14.435L51.824 15.907C51.41 18.046 50.444 18.989 45.292 18.989C40.968 18.989 40.37 18.437 40.577 17.241L37.725 17.333C37.15 20.53 38.622 21.496 45.154 21.496C52.284 21.496 54.009 20.162 54.676 16.367C54.998 14.573 55.228 13.239 55.596 11.1L56.194 7.65003C56.401 6.45403 56.562 5.51103 56.746 4.61403H53.94L53.549 6.66103C52.698 5.16603 50.766 4.33803 47.293 4.33803C41.497 4.33803 39.473 5.46503 38.576 10.318L38.553 10.502C37.702 15.309 39.933 16.505 45.66 16.505ZM46.603 13.906C41.957 13.906 41.129 13.055 41.566 10.502L41.612 10.341C42.072 7.81103 43.36 6.93703 47.799 6.93703C52.399 6.93703 53.204 7.81103 52.744 10.318V10.364C52.284 12.917 51.088 13.906 46.603 13.906Z" fill="white"/>
<path d="M69.8779 0.957031L69.4639 3.25703H72.4999L72.8909 0.957031H69.8779ZM67.5779 14.136C67.2789 15.815 67.0949 16.942 66.8649 18H69.9009C70.0619 16.942 70.2689 15.815 70.5449 14.159L71.5569 8.43203C71.8329 6.79903 72.0629 5.58003 72.2469 4.61403H69.2339C69.0959 5.58003 68.8659 6.82203 68.5899 8.43203L67.5779 14.136Z" fill="white"/>
<path d="M74.3365 14.32C74.0375 16.045 73.8765 16.988 73.6695 18H76.7055C76.8435 16.988 77.0045 16.091 77.3265 14.32L77.8555 11.284C78.4535 7.99503 79.5805 7.05203 83.7665 7.05203C88.1135 7.05203 88.6885 8.06403 88.2055 10.962L87.5845 14.366C87.2625 16.229 87.1475 16.919 86.9175 18H89.9535C90.1145 16.873 90.2755 15.907 90.5745 14.366L90.8275 12.94C91.0805 11.399 91.2185 10.778 91.4025 9.76603C92.0695 5.92503 90.8275 4.33803 84.9855 4.33803C81.8115 4.33803 79.8105 5.12003 78.5225 6.66103L78.8445 4.61403H76.0385C75.9005 5.51103 75.7395 6.38503 75.4635 7.97203L74.3365 14.32Z" fill="white"/>
</svg>
