<svg width="40" height="40" viewBox="0 0 40 40" fill="none" xmlns="http://www.w3.org/2000/svg">
<path d="M30.0646 18.1822L30.0673 18.1838C30.6004 18.4874 31 19.1797 31 20.0222C31 20.8418 30.6026 21.5128 30.052 21.8265L30.0493 21.828L14.4025 30.8071L14.4025 30.8071L14.3968 30.8104C14.179 30.9373 13.9268 31 13.6766 31C13.4168 31 13.1213 30.914 12.8472 30.7276L12.8451 30.7262C12.3408 30.3851 12 29.7544 12 28.9841V11.009C12 10.2387 12.3408 9.60805 12.8451 9.26697C13.3396 8.93248 13.9087 8.91326 14.4191 9.20393C14.4194 9.20412 14.4197 9.20431 14.4201 9.2045L30.0646 18.1822Z" stroke="white" stroke-width="2"/>
</svg>
