<svg width="136" height="17" viewBox="0 0 136 17" fill="none" xmlns="http://www.w3.org/2000/svg">
<path d="M7.88 16.1L0.18 2.38H2.12L8.7 14.14L15.28 2.38H17.22L9.52 16.1H7.88ZM19.3023 2.86V0.859999H21.4823V2.86H19.3023ZM21.3823 16H19.6023V6.92H17.9823V5.4H21.3823V16ZM30.5078 6.52C28.8411 6.52 27.6345 6.82667 26.8878 7.44C26.1545 8.05333 25.7878 8.95333 25.7878 10.14V10.96C25.7878 12.1467 26.1545 13.0467 26.8878 13.66C27.6345 14.2733 28.8411 14.58 30.5078 14.58H31.7678C32.2611 14.58 32.7811 14.56 33.3278 14.52C33.8745 14.48 34.4211 14.42 34.9678 14.34C35.5145 14.26 36.0478 14.1667 36.5678 14.06C37.0878 13.94 37.5678 13.8067 38.0078 13.66L38.4878 15.16C37.5278 15.4533 36.4678 15.6867 35.3078 15.86C34.1478 16.02 32.9678 16.1 31.7678 16.1H30.5678C29.5545 16.1 28.6411 15.9933 27.8278 15.78C27.0278 15.5667 26.3411 15.2467 25.7678 14.82C25.2078 14.38 24.7745 13.84 24.4678 13.2C24.1611 12.56 24.0078 11.8133 24.0078 10.96V10.14C24.0078 9.28667 24.1611 8.54 24.4678 7.9C24.7745 7.26 25.2078 6.72667 25.7678 6.3C26.3411 5.87333 27.0278 5.55333 27.8278 5.34C28.6411 5.11333 29.5545 5 30.5678 5H32.1878C33.2011 5 34.0878 5.08667 34.8478 5.26C35.6211 5.43333 36.2678 5.71333 36.7878 6.1C37.3078 6.47333 37.6945 6.96 37.9478 7.56C38.2145 8.14667 38.3478 8.86667 38.3478 9.72V11.42H27.2078L26.6878 9.9H36.5678V9.24C36.5678 8.32 36.1811 7.64 35.4078 7.2C34.6345 6.74667 33.6078 6.52 32.3278 6.52H30.5078ZM46.4164 16H44.5764L39.5164 5H41.3564L45.4764 14.04L49.3364 5H50.8964L54.7564 14.04L58.8764 5H60.7164L55.6564 16H53.8164L50.1164 7.26L46.4164 16ZM78.6834 7.54C78.8301 7.14 79.0434 6.78667 79.3234 6.48C79.6034 6.16 79.9234 5.89333 80.2834 5.68C80.6434 5.45333 81.0301 5.28667 81.4434 5.18C81.8568 5.06 82.2768 5 82.7034 5H83.6634C84.3168 5 84.9101 5.08667 85.4434 5.26C85.9768 5.43333 86.4368 5.69333 86.8234 6.04C87.2101 6.37333 87.5101 6.79333 87.7234 7.3C87.9368 7.80667 88.0434 8.38667 88.0434 9.04V16H86.2634V9.22C86.2634 8.38 86.0368 7.72 85.5834 7.24C85.1301 6.76 84.4568 6.52 83.5634 6.52H82.4234C81.9701 6.52 81.5501 6.60667 81.1634 6.78C80.7768 6.95333 80.4301 7.19333 80.1234 7.5C79.8301 7.79333 79.5834 8.14 79.3834 8.54C79.1968 8.94 79.0701 9.36667 79.0034 9.82V16H77.2234V9.62C77.2234 9.06 77.1501 8.58667 77.0034 8.2C76.8568 7.8 76.6568 7.48 76.4034 7.24C76.1634 6.98667 75.8701 6.80667 75.5234 6.7C75.1901 6.58 74.8301 6.52 74.4434 6.52H73.3034C72.9434 6.52 72.5834 6.6 72.2234 6.76C71.8634 6.90667 71.5301 7.12 71.2234 7.4C70.9168 7.66667 70.6501 7.99333 70.4234 8.38C70.2101 8.75333 70.0701 9.16667 70.0034 9.62V16H68.2234V5.1H70.0034V7.06C70.1368 6.74 70.3234 6.45333 70.5634 6.2C70.8034 5.93333 71.0768 5.71333 71.3834 5.54C71.7034 5.36667 72.0368 5.23333 72.3834 5.14C72.7434 5.04667 73.1101 5 73.4834 5H74.4434C74.9634 5 75.4568 5.05333 75.9234 5.16C76.4034 5.26667 76.8301 5.42667 77.2034 5.64C77.5901 5.84 77.9101 6.1 78.1634 6.42C78.4301 6.74 78.6034 7.11333 78.6834 7.54ZM98.9489 5C99.9622 5 100.882 5.11333 101.709 5.34C102.536 5.56667 103.242 5.9 103.829 6.34C104.429 6.78 104.889 7.32667 105.209 7.98C105.542 8.63333 105.709 9.38667 105.709 10.24V10.86C105.709 11.7133 105.542 12.4667 105.209 13.12C104.889 13.7733 104.429 14.32 103.829 14.76C103.242 15.2 102.536 15.5333 101.709 15.76C100.882 15.9867 99.9622 16.1 98.9489 16.1H97.3889C96.3756 16.1 95.4556 15.9867 94.6289 15.76C93.8022 15.5333 93.0889 15.2 92.4889 14.76C91.9022 14.32 91.4422 13.7733 91.1089 13.12C90.7889 12.4667 90.6289 11.7133 90.6289 10.86V10.24C90.6289 9.38667 90.7889 8.63333 91.1089 7.98C91.4422 7.32667 91.9022 6.78 92.4889 6.34C93.0889 5.9 93.8022 5.56667 94.6289 5.34C95.4556 5.11333 96.3756 5 97.3889 5H98.9489ZM103.929 10.24C103.929 9.05333 103.522 8.14 102.709 7.5C101.909 6.84667 100.676 6.52 99.0089 6.52H97.3289C95.6622 6.52 94.4222 6.84667 93.6089 7.5C92.8089 8.14 92.4089 9.05333 92.4089 10.24V10.86C92.4089 12.0467 92.8089 12.9667 93.6089 13.62C94.4222 14.26 95.6622 14.58 97.3289 14.58H99.0089C100.676 14.58 101.909 14.26 102.709 13.62C103.522 12.9667 103.929 12.0467 103.929 10.86V10.24ZM115.518 6.52C114.385 6.52 113.365 6.78 112.458 7.3C111.552 7.82 110.805 8.48667 110.218 9.3V16H108.438V5.1H110.218V7.28C110.498 6.94667 110.832 6.64 111.218 6.36C111.618 6.08 112.045 5.84 112.498 5.64C112.965 5.44 113.452 5.28667 113.958 5.18C114.478 5.06 114.998 5 115.518 5H116.018C116.712 5 117.378 5.04667 118.018 5.14C118.672 5.23333 119.352 5.39333 120.058 5.62L119.578 7.08C118.992 6.88 118.398 6.74 117.798 6.66C117.198 6.56667 116.605 6.52 116.018 6.52H115.518ZM127.637 6.52C125.97 6.52 124.763 6.82667 124.017 7.44C123.283 8.05333 122.917 8.95333 122.917 10.14V10.96C122.917 12.1467 123.283 13.0467 124.017 13.66C124.763 14.2733 125.97 14.58 127.637 14.58H128.897C129.39 14.58 129.91 14.56 130.457 14.52C131.003 14.48 131.55 14.42 132.097 14.34C132.643 14.26 133.177 14.1667 133.697 14.06C134.217 13.94 134.697 13.8067 135.137 13.66L135.617 15.16C134.657 15.4533 133.597 15.6867 132.437 15.86C131.277 16.02 130.097 16.1 128.897 16.1H127.697C126.683 16.1 125.77 15.9933 124.957 15.78C124.157 15.5667 123.47 15.2467 122.897 14.82C122.337 14.38 121.903 13.84 121.597 13.2C121.29 12.56 121.137 11.8133 121.137 10.96V10.14C121.137 9.28667 121.29 8.54 121.597 7.9C121.903 7.26 122.337 6.72667 122.897 6.3C123.47 5.87333 124.157 5.55333 124.957 5.34C125.77 5.11333 126.683 5 127.697 5H129.317C130.33 5 131.217 5.08667 131.977 5.26C132.75 5.43333 133.397 5.71333 133.917 6.1C134.437 6.47333 134.823 6.96 135.077 7.56C135.343 8.14667 135.477 8.86667 135.477 9.72V11.42H124.337L123.817 9.9H133.697V9.24C133.697 8.32 133.31 7.64 132.537 7.2C131.763 6.74667 130.737 6.52 129.457 6.52H127.637Z" fill="#43FF8E"/>
</svg>
