<svg width="217" height="29" viewBox="0 0 217 29" fill="none" xmlns="http://www.w3.org/2000/svg">
<path d="M43.856 22.224C49.056 22.224 49.92 21.392 49.92 18.992C49.92 16.688 49.088 15.84 43.504 15.44C39.168 15.136 38.72 14.736 38.72 13.52C38.72 12.384 39.28 11.92 42.976 11.92C47.04 11.92 47.728 12.32 47.728 13.568V13.904L49.328 13.856V13.568C49.328 11.264 48.304 10.416 42.992 10.416C37.936 10.416 37.04 11.312 37.04 13.664C37.04 15.984 37.872 16.64 43.392 17.072C47.68 17.408 48.24 17.84 48.24 19.024C48.24 20.272 47.744 20.704 43.856 20.704C39.344 20.704 38.528 20.4 38.528 18.896V18.512L36.928 18.56V18.88C36.928 21.568 38.08 22.224 43.856 22.224ZM52.2693 19.488C52.2693 20.56 52.2693 21.296 52.2533 22H53.8853C53.8693 21.296 53.8693 20.56 53.8693 19.504V12.736C53.8693 11.584 53.8693 10.72 53.8853 10.032H52.2533C52.2693 10.72 52.2693 11.584 52.2693 12.72V19.488ZM62.0794 22.192C66.7514 22.192 67.6314 21.264 67.6314 19.04L66.0474 18.976C66.0474 20.176 65.6154 20.768 62.0954 20.768C58.6874 20.768 57.9194 20.144 57.8394 17.984H67.6314C67.6314 17.712 67.6474 17.376 67.6314 17.12C67.5834 13.584 66.5274 12.528 61.9674 12.528C57.4074 12.528 56.1914 13.584 56.1914 17.12V17.6C56.1914 21.136 57.4074 22.192 62.0794 22.192ZM61.9674 13.92C65.2474 13.92 65.8714 14.56 65.9354 16.608H57.8394C57.9514 14.496 58.7514 13.92 61.9674 13.92ZM75.1888 22.192C79.8608 22.192 80.7408 21.264 80.7408 19.04L79.1568 18.976C79.1568 20.176 78.7248 20.768 75.2048 20.768C71.7968 20.768 71.0288 20.144 70.9488 17.984H80.7408C80.7408 17.712 80.7568 17.376 80.7408 17.12C80.6928 13.584 79.6368 12.528 75.0768 12.528C70.5168 12.528 69.3008 13.584 69.3008 17.12V17.6C69.3008 21.136 70.5168 22.192 75.1888 22.192ZM75.0768 13.92C78.3568 13.92 78.9808 14.56 79.0448 16.608H70.9488C71.0608 14.496 71.8608 13.92 75.0768 13.92ZM83.0341 22C83.0341 22.96 83.0341 23.76 83.0181 24.24H84.6661C84.6501 23.584 84.6501 22.432 84.6501 20.752C85.4501 21.728 86.8261 22.192 89.0661 22.192C93.4501 22.192 94.6821 21.136 94.6821 17.6V17.12C94.6821 13.584 93.4501 12.528 89.1621 12.528C86.7941 12.528 85.3541 13.04 84.5701 14.08V12.72H83.0181C83.0341 13.392 83.0341 13.968 83.0341 14.704V22ZM84.6341 17.424V17.296C84.6341 14.768 85.3541 14.016 88.8421 14.016C92.3461 14.016 93.0501 14.688 93.0501 17.28V17.44C93.0501 20.032 92.3461 20.704 88.7621 20.704C85.3541 20.704 84.6341 19.968 84.6341 17.424ZM102.236 22.192C106.908 22.192 107.788 21.264 107.788 19.04L106.204 18.976C106.204 20.176 105.772 20.768 102.252 20.768C98.8436 20.768 98.0756 20.144 97.9956 17.984H107.788C107.788 17.712 107.804 17.376 107.788 17.12C107.74 13.584 106.684 12.528 102.124 12.528C97.5636 12.528 96.3476 13.584 96.3476 17.12V17.6C96.3476 21.136 97.5636 22.192 102.236 22.192ZM102.124 13.92C105.404 13.92 106.028 14.56 106.092 16.608H97.9956C98.1076 14.496 98.9076 13.92 102.124 13.92ZM110.081 19.44C110.081 20.704 110.081 21.328 110.065 22H111.697C111.681 21.328 111.681 20.736 111.681 19.44V17.296C111.681 14.608 112.433 14.016 115.185 14.016C117.985 14.016 118.305 14.4 118.305 16.208V16.528L119.841 16.496C119.857 16.256 119.857 16.016 119.857 15.824C119.857 13.168 119.137 12.528 115.569 12.528C113.585 12.528 112.305 13.04 111.585 14.08L111.553 12.72H110.065C110.081 13.344 110.081 13.92 110.081 15.104V19.44ZM132.66 22.192C135.14 22.192 136.548 21.696 137.252 20.912L137.268 22H138.708C138.692 20.736 138.692 19.92 138.692 18.96C138.692 17.616 138.708 17.008 138.708 15.744C138.708 13.552 137.892 12.528 133.156 12.528C128.852 12.528 127.876 13.44 127.908 15.376L129.524 15.424C129.508 14.32 129.892 13.952 133.156 13.952C136.532 13.952 137.092 14.448 137.092 16.048V17.184C136.34 16.592 134.964 16.24 132.66 16.24C128.452 16.24 127.54 17.12 127.54 19.248C127.54 21.328 128.404 22.192 132.66 22.192ZM133.124 20.8C129.86 20.8 129.188 20.4 129.188 19.248C129.188 18.064 129.62 17.568 133.124 17.568C136.564 17.568 137.124 18.048 137.124 18.768V19.264C137.124 20.304 136.564 20.8 133.124 20.8ZM146.717 22.192C151.277 22.192 152.365 21.152 152.365 18.4L150.781 18.352C150.781 20.016 150.109 20.704 146.717 20.704C143.261 20.704 142.573 20.032 142.573 17.44V17.28C142.573 14.688 143.261 14.016 146.717 14.016C150.109 14.016 150.749 14.736 150.749 16.368L152.333 16.32C152.333 13.488 151.293 12.528 146.717 12.528C142.221 12.528 140.941 13.584 140.941 17.12V17.6C140.941 21.136 142.237 22.192 146.717 22.192ZM159.749 22.192C164.309 22.192 165.397 21.152 165.397 18.4L163.813 18.352C163.813 20.016 163.141 20.704 159.749 20.704C156.293 20.704 155.605 20.032 155.605 17.44V17.28C155.605 14.688 156.293 14.016 159.749 14.016C163.141 14.016 163.781 14.736 163.781 16.368L165.365 16.32C165.365 13.488 164.325 12.528 159.749 12.528C155.253 12.528 153.973 13.584 153.973 17.12V17.6C153.973 21.136 155.269 22.192 159.749 22.192ZM172.844 22.192C177.468 22.192 178.684 21.136 178.684 17.6V17.12C178.684 13.584 177.468 12.528 172.844 12.528C168.22 12.528 167.004 13.584 167.004 17.12V17.6C167.004 21.136 168.22 22.192 172.844 22.192ZM172.844 20.704C169.324 20.704 168.636 20.032 168.636 17.44V17.28C168.636 14.688 169.324 14.016 172.844 14.016C176.364 14.016 177.052 14.688 177.052 17.28V17.44C177.052 20.032 176.364 20.704 172.844 20.704ZM180.94 16.24C180.94 17.2 180.924 17.584 180.924 18.24C180.924 21.056 181.74 22.192 185.948 22.192C188.188 22.192 189.548 21.68 190.3 20.64L190.332 22H191.82C191.804 21.376 191.804 20.8 191.804 19.616V15.28C191.804 14.016 191.804 13.392 191.82 12.72H190.188C190.204 13.392 190.204 13.984 190.204 15.28V17.52C190.204 19.952 189.452 20.704 186.38 20.704C183.148 20.704 182.54 19.888 182.54 17.76V15.264C182.54 13.904 182.54 13.44 182.556 12.72H180.924C180.94 13.472 180.94 14.112 180.94 15.264V16.24ZM194.722 19.44C194.722 20.704 194.722 21.328 194.706 22H196.338C196.322 21.328 196.322 20.736 196.322 19.44V17.2C196.322 14.768 197.074 14.016 200.21 14.016C203.458 14.016 204.066 14.832 204.066 16.96V19.456C204.066 20.816 204.066 21.28 204.05 22H205.682C205.666 21.248 205.666 20.608 205.666 19.456V18.48C205.666 17.52 205.682 17.136 205.682 16.48C205.682 13.664 204.866 12.528 200.642 12.528C198.37 12.528 196.978 13.04 196.226 14.08L196.194 12.72H194.706C194.722 13.344 194.722 13.92 194.722 15.104V19.44ZM209.062 16.24C209.062 17.024 209.046 17.936 209.046 18.64C209.046 21.392 209.894 22.08 213.67 22.08C214.374 22.08 214.966 22.048 215.462 22L215.446 20.544C214.838 20.576 214.47 20.592 213.75 20.592C211.302 20.592 210.662 20.352 210.662 18.416V14.176H215.446V12.72H210.662C210.662 11.92 210.662 11.28 210.678 10.896L209.046 10.928C209.062 11.664 209.062 12.192 209.062 12.72C208.55 12.72 208.038 12.736 207.382 12.72V14.176H209.062V16.24Z" fill="#9EA1AB"/>
<g clip-path="url(#clip0_206_23538)">
<path fill-rule="evenodd" clip-rule="evenodd" d="M6.34409 19.63C5.45048 18.0925 4.99711 16.3402 5.03544 14.5721C5.07132 12.8556 5.61647 11.1984 6.60039 9.81487C7.56237 8.46792 8.92717 7.47064 10.4992 6.96597L10.7263 6.8976C10.1905 8.00902 9.8985 9.2276 9.86992 10.4714C9.8316 12.2396 10.285 13.9918 11.1786 15.5293C12.3549 17.5904 14.2527 19.1385 16.4901 19.8622C18.0199 20.3534 19.6505 20.3859 21.1824 19.9559C20.5015 21.3693 19.4191 22.5408 18.0709 23.3234C16.1287 24.4289 13.8047 24.6606 11.6556 23.9629C9.41822 23.2391 7.52045 21.691 6.34409 19.63Z" stroke="#9EA1AB" stroke-width="1.3" stroke-linecap="round" stroke-linejoin="round"/>
<path d="M14.5 11.1328L17.3488 11.1517L14.5188 13.9816L17.3675 14.0005" stroke="#9EA1AB" stroke-width="1.3" stroke-linecap="round" stroke-linejoin="round"/>
<path d="M19 6L22.4924 6.02317L19.0262 9.98027L22.5186 10.0034" stroke="#9EA1AB" stroke-width="1.3" stroke-linecap="round" stroke-linejoin="round"/>
</g>
<defs>
<clipPath id="clip0_206_23538">
<rect width="23.5625" height="23.5625" fill="white" transform="translate(1.8125 1.8125)"/>
</clipPath>
</defs>
</svg>
