<svg width="192" height="52" viewBox="0 0 192 52" fill="none" xmlns="http://www.w3.org/2000/svg">
<rect width="192" height="52" rx="26" fill="#E965FF"/>
<path d="M27.408 34.322C35.113 34.322 36.355 33.034 36.999 29.492C37.505 26.318 36.424 24.846 28.811 24.317C22.762 23.926 22.279 23.42 22.532 21.925C22.762 20.522 23.613 19.947 28.604 19.947C34.032 19.947 34.814 20.453 34.515 22.017L34.446 22.477L37.459 22.408L37.505 22.086C38.126 18.682 36.861 17.348 28.88 17.348C21.382 17.348 19.979 18.751 19.381 22.132C18.806 25.421 19.841 26.525 27.546 27.077C33.526 27.537 34.147 28.089 33.894 29.584V29.607C33.618 31.171 32.928 31.7 27.615 31.7C21.566 31.7 20.646 31.309 20.968 29.446L21.06 28.917L18.047 28.986L17.978 29.354C17.265 33.333 18.944 34.322 27.408 34.322ZM39.915 30.136C39.616 31.815 39.432 32.942 39.202 34H42.238C42.399 32.942 42.606 31.815 42.882 30.159L44.561 20.637C44.86 19.004 45.067 17.762 45.274 16.796H42.238C42.077 17.785 41.87 19.004 41.594 20.614L39.915 30.136ZM54.1256 34.276C61.0256 34.276 62.2906 32.942 62.8886 29.561L59.9446 29.469C59.6686 31.033 58.9786 31.769 54.2636 31.769C49.8246 31.769 48.9506 30.987 49.2956 28.181H63.1186C63.1876 27.836 63.2796 27.422 63.3486 26.962C64.1306 22.017 62.5666 20.338 55.8736 20.338C49.1576 20.338 47.3636 21.856 46.4666 26.962L46.3516 27.652C45.4776 32.597 47.2946 34.276 54.1256 34.276ZM55.7356 22.638C60.0826 22.638 60.7726 23.443 60.4046 26.042H49.6866C50.3306 23.351 51.5036 22.638 55.7356 22.638ZM73.15 34.276C80.05 34.276 81.315 32.942 81.913 29.561L78.969 29.469C78.693 31.033 78.003 31.769 73.288 31.769C68.849 31.769 67.975 30.987 68.32 28.181H82.143C82.212 27.836 82.304 27.422 82.373 26.962C83.155 22.017 81.591 20.338 74.898 20.338C68.182 20.338 66.388 21.856 65.491 26.962L65.376 27.652C64.502 32.597 66.319 34.276 73.15 34.276ZM74.76 22.638C79.107 22.638 79.797 23.443 79.429 26.042H68.711C69.355 23.351 70.528 22.638 74.76 22.638ZM84.0784 34C83.8254 35.38 83.6184 36.53 83.4804 37.22H86.5394C86.6774 36.254 86.9994 34.391 87.4364 32.022C88.2874 33.517 90.1964 34.276 93.5084 34.276C99.7184 34.276 101.42 32.804 102.34 27.652L102.455 26.962C103.329 21.856 101.65 20.338 95.5554 20.338C92.2664 20.338 90.2424 21.097 88.9544 22.592L89.2994 20.614H86.4244C86.2634 21.58 86.1024 22.431 85.9184 23.535L84.0784 34ZM88.2184 27.399L88.2644 27.215C88.8164 23.995 89.9204 23.052 94.5434 23.052C99.1894 23.052 99.9714 23.88 99.3964 27.215L99.3504 27.399C98.7524 30.711 97.6944 31.562 92.9334 31.562C88.4254 31.562 87.6434 30.642 88.2184 27.399ZM112.277 34.276C119.177 34.276 120.442 32.942 121.04 29.561L118.096 29.469C117.82 31.033 117.13 31.769 112.415 31.769C107.976 31.769 107.102 30.987 107.447 28.181H121.27C121.339 27.836 121.431 27.422 121.5 26.962C122.282 22.017 120.718 20.338 114.025 20.338C107.309 20.338 105.515 21.856 104.618 26.962L104.503 27.652C103.629 32.597 105.446 34.276 112.277 34.276ZM113.887 22.638C118.234 22.638 118.924 23.443 118.556 26.042H107.838C108.482 23.351 109.655 22.638 113.887 22.638ZM123.849 30.32C123.55 32.045 123.389 32.988 123.182 34H126.218C126.356 32.988 126.517 32.091 126.839 30.32L127.322 27.514C127.966 23.857 129.047 23.052 132.819 23.052C136.522 23.052 136.89 23.581 136.476 25.95L136.384 26.387L139.282 26.341C139.374 25.812 139.443 25.444 139.535 25.03C140.179 21.327 139.282 20.338 134.291 20.338C131.255 20.338 129.3 21.097 128.035 22.661L128.357 20.614H125.551C125.413 21.511 125.252 22.385 124.976 23.972L123.849 30.32Z" fill="#0D0E11"/>
<circle cx="166" cy="26" r="17" fill="#0D0E11"/>
<g clip-path="url(#clip0_206_23957)">
<path fill-rule="evenodd" clip-rule="evenodd" d="M158.344 30.63C157.45 29.0925 156.997 27.3402 157.035 25.5721C157.071 23.8556 157.616 22.1984 158.6 20.8149C159.562 19.4679 160.927 18.4706 162.499 17.966L162.726 17.8976C162.191 19.009 161.899 20.2276 161.87 21.4714C161.832 23.2396 162.285 24.9918 163.179 26.5293C164.355 28.5904 166.253 30.1385 168.49 30.8622C170.02 31.3534 171.65 31.3859 173.182 30.9559C172.502 32.3693 171.419 33.5408 170.071 34.3234C168.129 35.4289 165.805 35.6606 163.656 34.9629C161.418 34.2391 159.52 32.691 158.344 30.63Z" stroke="#E965FF" stroke-width="1.3" stroke-linecap="round" stroke-linejoin="round"/>
<path d="M166.5 22.1328L169.349 22.1517L166.519 24.9816L169.368 25.0005" stroke="#E965FF" stroke-width="1.3" stroke-linecap="round" stroke-linejoin="round"/>
<path d="M171 17L174.492 17.0232L171.026 20.9803L174.519 21.0034" stroke="#E965FF" stroke-width="1.3" stroke-linecap="round" stroke-linejoin="round"/>
</g>
<defs>
<clipPath id="clip0_206_23957">
<rect width="23.5625" height="23.5625" fill="white" transform="translate(153.812 12.8125)"/>
</clipPath>
</defs>
</svg>
