<svg width="117" height="18" viewBox="0 0 117 18" fill="none" xmlns="http://www.w3.org/2000/svg">
<path d="M0.956063 13.501C0.657063 15.226 0.519063 16.1 0.289062 17.204H3.39406C3.57806 16.031 3.69306 15.41 4.03806 13.478L4.40606 11.454H12.8011L14.2271 14.099C14.7791 15.134 15.2621 16.192 15.7221 17.204H19.1261C18.4131 15.847 17.7691 14.582 17.1941 13.386C16.7801 12.558 16.3661 11.753 15.9521 11.017C19.1261 10.442 20.3681 9.085 20.8741 6.164C21.5411 2.599 19.8161 0.874 14.3191 0.874H3.16406C3.00306 1.886 2.88806 2.622 2.65806 3.818L0.956063 13.501ZM14.1351 3.542C17.3551 3.542 18.0681 4.209 17.7231 6.049C17.3781 7.958 16.4121 8.809 13.2151 8.809H4.86606L5.78606 3.542H14.1351Z" fill="#0D0E11"/>
<path d="M29.8764 17.48C36.7764 17.48 38.0414 16.146 38.6394 12.765L35.6954 12.673C35.4194 14.237 34.7294 14.973 30.0144 14.973C25.5754 14.973 24.7014 14.191 25.0464 11.385H38.8694C38.9384 11.04 39.0304 10.626 39.0994 10.166C39.8814 5.221 38.3174 3.542 31.6244 3.542C24.9084 3.542 23.1144 5.06 22.2174 10.166L22.1024 10.856C21.2284 15.801 23.0454 17.48 29.8764 17.48ZM31.4864 5.842C35.8334 5.842 36.5234 6.647 36.1554 9.246H25.4374C26.0814 6.555 27.2544 5.842 31.4864 5.842Z" fill="#0D0E11"/>
<path d="M48.2568 17.48C55.0188 17.48 55.8238 16.629 56.3298 13.731C56.8128 11.017 55.8468 9.775 49.4528 9.246C44.7378 8.832 44.4848 8.349 44.6458 7.291C44.7838 6.348 45.5198 5.911 49.4758 5.911C53.5928 5.911 54.1218 6.394 53.8918 7.636L53.8228 7.935L56.8358 7.866C57.3878 4.646 56.2148 3.542 49.6598 3.542C43.4038 3.542 42.2998 4.508 41.7938 7.36C41.3108 10.097 42.2998 11.224 48.1648 11.684C53.2018 12.121 53.5008 12.604 53.3168 13.754C53.1558 14.789 52.6268 15.203 48.4178 15.203C43.7718 15.203 43.2428 14.743 43.5188 13.156L43.5648 12.811L40.6208 12.88C39.9538 16.721 41.3798 17.48 48.2568 17.48Z" fill="#0D0E11"/>
<path d="M66.645 17.48C73.545 17.48 74.81 16.146 75.408 12.765L72.464 12.673C72.188 14.237 71.498 14.973 66.783 14.973C62.344 14.973 61.47 14.191 61.815 11.385H75.638C75.707 11.04 75.799 10.626 75.868 10.166C76.65 5.221 75.086 3.542 68.393 3.542C61.677 3.542 59.883 5.06 58.986 10.166L58.871 10.856C57.997 15.801 59.814 17.48 66.645 17.48ZM68.255 5.842C72.602 5.842 73.292 6.647 72.924 9.246H62.206C62.85 6.555 64.023 5.842 68.255 5.842Z" fill="#0D0E11"/>
<path d="M78.2174 13.524C77.9184 15.249 77.7574 16.192 77.5504 17.204H80.5864C80.7244 16.192 80.8854 15.295 81.2074 13.524L81.7364 10.488C82.3344 7.199 83.4614 6.256 87.6474 6.256C91.9944 6.256 92.5694 7.268 92.0864 10.166L91.4654 13.57C91.1434 15.433 91.0284 16.123 90.7984 17.204H93.8344C93.9954 16.077 94.1564 15.111 94.4554 13.57L94.7084 12.144C94.9614 10.603 95.0994 9.982 95.2834 8.97C95.9504 5.129 94.7084 3.542 88.8664 3.542C85.6924 3.542 83.6914 4.324 82.4034 5.865L82.7254 3.818H79.9194C79.7814 4.715 79.6204 5.589 79.3444 7.176L78.2174 13.524Z" fill="#0D0E11"/>
<path d="M104.763 17.48C108.075 17.48 110.099 16.698 111.387 15.18L111.065 17.204H113.894C114.078 16.077 114.216 15.295 114.515 13.524L116.217 3.818C116.516 2.162 116.723 0.966 116.93 0H113.848C113.71 0.966 113.296 3.427 112.882 5.773C112.008 4.301 110.099 3.542 106.787 3.542C100.6 3.542 98.8752 5.014 97.9781 10.166L97.8632 10.856C96.9661 15.962 98.6682 17.48 104.763 17.48ZM105.775 14.766C101.106 14.766 100.347 13.915 100.922 10.603L100.945 10.419C101.543 7.084 102.624 6.256 107.385 6.256C111.893 6.256 112.675 7.176 112.1 10.419L112.054 10.603C111.479 13.823 110.375 14.766 105.775 14.766Z" fill="#0D0E11"/>
</svg>
