<svg width="95" height="10" viewBox="0 0 95 10" fill="none" xmlns="http://www.w3.org/2000/svg">
<path d="M6.19345 9.906C10.4185 9.906 11.1205 9.23 11.1205 7.28C11.1205 5.408 10.4445 4.719 5.90745 4.394C2.38445 4.147 2.02045 3.822 2.02045 2.834C2.02045 1.911 2.47545 1.534 5.47845 1.534C8.78045 1.534 9.33945 1.859 9.33945 2.873V3.146L10.6395 3.107V2.873C10.6395 1.001 9.80745 0.312 5.49145 0.312C1.38345 0.312 0.655453 1.04 0.655453 2.951C0.655453 4.836 1.33145 5.369 5.81645 5.72C9.30045 5.993 9.75545 6.344 9.75545 7.306C9.75545 8.32 9.35245 8.671 6.19345 8.671C2.52745 8.671 1.86445 8.424 1.86445 7.202V6.89L0.564453 6.929V7.189C0.564453 9.373 1.50045 9.906 6.19345 9.906Z" fill="white"/>
<path d="M17.2802 9.88C21.0762 9.88 21.7912 9.126 21.7912 7.319L20.5042 7.267C20.5042 8.242 20.1532 8.723 17.2932 8.723C14.5242 8.723 13.9002 8.216 13.8352 6.461H21.7912C21.7912 6.24 21.8042 5.967 21.7912 5.759C21.7522 2.886 20.8942 2.028 17.1892 2.028C13.4842 2.028 12.4962 2.886 12.4962 5.759V6.149C12.4962 9.022 13.4842 9.88 17.2802 9.88ZM17.1892 3.159C19.8542 3.159 20.3612 3.679 20.4132 5.343H13.8352C13.9262 3.627 14.5762 3.159 17.1892 3.159Z" fill="white"/>
<path d="M23.6546 7.644C23.6546 8.671 23.6546 9.178 23.6416 9.724H24.9676C24.9546 9.178 24.9546 8.697 24.9546 7.644V5.824C24.9546 3.848 25.5656 3.237 28.1136 3.237C30.7526 3.237 31.2466 3.9 31.2466 5.629V7.657C31.2466 8.762 31.2466 9.139 31.2336 9.724H32.5596C32.5466 9.113 32.5466 8.593 32.5466 7.657V6.864C32.5466 6.084 32.5596 5.772 32.5596 5.239C32.5596 2.951 31.8966 2.028 28.4646 2.028C26.6186 2.028 25.4876 2.444 24.8766 3.289L24.8506 2.184H23.6416C23.6546 2.691 23.6546 3.159 23.6546 4.121V7.644Z" fill="white"/>
<path d="M38.8679 9.88C40.8309 9.88 42.0009 9.451 42.6249 8.58L42.6509 9.724H43.8599C43.8469 9.087 43.8469 8.645 43.8469 7.644V2.184C43.8469 1.222 43.8469 0.559 43.8599 0H42.5079C42.5209 0.533 42.5339 1.885 42.5339 3.198C41.8839 2.405 40.7659 2.028 38.9459 2.028C35.3839 2.028 34.3829 2.886 34.3829 5.759V6.149C34.3829 9.022 35.3839 9.88 38.8679 9.88ZM39.1279 8.671C36.2809 8.671 35.7089 8.125 35.7089 6.019V5.889C35.7089 3.783 36.2809 3.237 39.1929 3.237C41.9619 3.237 42.5469 3.835 42.5469 5.902V6.006C42.5469 8.06 41.9619 8.671 39.1279 8.671Z" fill="white"/>
<path d="M56.0561 9.906C60.4111 9.906 61.4511 8.983 61.4511 6.357L60.1511 6.318C60.1251 8.112 59.5661 8.645 56.1081 8.645C52.6501 8.645 51.9871 7.943 51.9871 5.187V5.031C51.9871 2.366 52.6501 1.573 56.1081 1.573C59.5661 1.573 60.1511 2.106 60.1511 3.9L61.4511 3.861C61.4511 1.235 60.3981 0.312 56.0561 0.312C51.7401 0.312 50.6221 1.365 50.6221 4.901V5.317C50.6221 8.853 51.7401 9.906 56.0561 9.906Z" fill="white"/>
<path d="M67.6035 9.88C71.3605 9.88 72.3485 9.022 72.3485 6.149V5.759C72.3485 2.886 71.3605 2.028 67.6035 2.028C63.8465 2.028 62.8585 2.886 62.8585 5.759V6.149C62.8585 9.022 63.8465 9.88 67.6035 9.88ZM67.6035 8.671C64.7435 8.671 64.1845 8.125 64.1845 6.019V5.889C64.1845 3.783 64.7435 3.237 67.6035 3.237C70.4635 3.237 71.0225 3.783 71.0225 5.889V6.019C71.0225 8.125 70.4635 8.671 67.6035 8.671Z" fill="white"/>
<path d="M78.1853 9.88C80.1483 9.88 81.3183 9.451 81.9423 8.58L81.9683 9.724H83.1773C83.1643 9.087 83.1643 8.645 83.1643 7.644V2.184C83.1643 1.222 83.1643 0.559 83.1773 0H81.8253C81.8383 0.533 81.8513 1.885 81.8513 3.198C81.2013 2.405 80.0833 2.028 78.2633 2.028C74.7013 2.028 73.7003 2.886 73.7003 5.759V6.149C73.7003 9.022 74.7013 9.88 78.1853 9.88ZM78.4453 8.671C75.5983 8.671 75.0263 8.125 75.0263 6.019V5.889C75.0263 3.783 75.5983 3.237 78.5103 3.237C81.2793 3.237 81.8643 3.835 81.8643 5.902V6.006C81.8643 8.06 81.2793 8.671 78.4453 8.671Z" fill="white"/>
<path d="M89.8085 9.88C93.6045 9.88 94.3195 9.126 94.3195 7.319L93.0325 7.267C93.0325 8.242 92.6815 8.723 89.8215 8.723C87.0525 8.723 86.4285 8.216 86.3635 6.461H94.3195C94.3195 6.24 94.3325 5.967 94.3195 5.759C94.2805 2.886 93.4225 2.028 89.7175 2.028C86.0125 2.028 85.0245 2.886 85.0245 5.759V6.149C85.0245 9.022 86.0125 9.88 89.8085 9.88ZM89.7175 3.159C92.3825 3.159 92.8895 3.679 92.9415 5.343H86.3635C86.4545 3.627 87.1045 3.159 89.7175 3.159Z" fill="white"/>
</svg>
