<svg width="1920" height="1080" viewBox="0 0 1920 1080" fill="none" xmlns="http://www.w3.org/2000/svg">
<g clip-path="url(#clip0_1300_1894)">
<path d="M713.581 414.714C731.176 414.714 735.205 411.195 737.092 400.332L730.462 400.179C729.238 406.503 726.994 408.543 714.04 408.543C701.188 408.543 699.352 406.044 701.086 396.15L701.137 395.64C702.871 386.001 705.625 383.247 718.477 383.247C731.482 383.247 733.063 385.236 731.941 391.611L738.622 391.458C740.509 380.799 736.429 377.076 718.783 377.076C701.392 377.076 696.802 381.258 694.354 395.079L694.048 396.711C691.549 410.124 695.884 414.714 713.581 414.714ZM759.224 414.612C774.422 414.612 778.247 411.246 780.236 399.924L780.491 398.394C782.48 387.072 778.553 383.706 763.406 383.706C748.208 383.706 744.383 387.072 742.394 398.394L742.139 399.924C740.15 411.246 744.077 414.612 759.224 414.612ZM759.581 408.696C749.177 408.696 747.647 406.758 748.922 399.363L748.973 398.955C750.299 391.509 752.543 389.622 762.998 389.622C773.402 389.622 775.034 391.509 773.657 398.955L773.606 399.363C772.331 406.758 770.036 408.696 759.581 408.696ZM785.735 405.84C785.072 409.665 784.715 411.756 784.256 414H790.988C791.294 411.756 791.651 409.767 792.365 405.84L793.538 399.108C794.864 391.815 797.363 389.724 806.645 389.724C816.284 389.724 817.559 391.968 816.488 398.394L815.111 405.942C814.397 410.073 814.142 411.603 813.632 414H820.364C820.721 411.501 821.078 409.359 821.741 405.942L822.302 402.78C822.863 399.363 823.169 397.986 823.577 395.742C825.056 387.225 822.302 383.706 809.348 383.706C802.31 383.706 797.873 385.44 795.017 388.857L795.731 384.318H789.509C789.203 386.307 788.846 388.245 788.234 391.764L785.735 405.84ZM845.464 410.685C852.553 410.685 856.939 409.053 859.693 406.095L859.132 409.359C858.214 414.102 856.072 416.193 844.648 416.193C835.06 416.193 833.734 414.969 834.193 412.317L827.869 412.521C826.594 419.61 829.858 421.752 844.342 421.752C860.152 421.752 863.977 418.794 865.456 410.379C866.17 406.401 866.68 403.443 867.496 398.7L868.822 391.05C869.281 388.398 869.638 386.307 870.046 384.318H863.824L862.957 388.857C861.07 385.542 856.786 383.706 849.085 383.706C836.233 383.706 831.745 386.205 829.756 396.966L829.705 397.374C827.818 408.033 832.765 410.685 845.464 410.685ZM847.555 404.922C837.253 404.922 835.417 403.035 836.386 397.374L836.488 397.017C837.508 391.407 840.364 389.469 850.207 389.469C860.407 389.469 862.192 391.407 861.172 396.966V397.068C860.152 402.729 857.5 404.922 847.555 404.922ZM874.586 405.84C873.923 409.665 873.566 411.756 873.107 414H879.839C880.145 411.756 880.502 409.767 881.216 405.84L882.287 399.618C883.715 391.509 886.112 389.724 894.476 389.724C902.687 389.724 903.503 390.897 902.585 396.15L902.381 397.119L908.807 397.017C909.011 395.844 909.164 395.028 909.368 394.11C910.796 385.899 908.807 383.706 897.74 383.706C891.008 383.706 886.673 385.389 883.868 388.857L884.582 384.318H878.36C878.054 386.307 877.697 388.245 877.085 391.764L874.586 405.84ZM925.798 414.612C933.958 414.612 938.497 413.031 940.996 410.328L940.435 414H946.453C947.116 409.971 947.575 407.37 948.136 404.31C948.952 399.618 949.309 397.884 950.023 393.855C951.247 386.919 948.442 383.706 933.091 383.706C919.066 383.706 915.802 386.409 914.731 393.141L921.106 393.294C921.616 390.132 922.84 389.112 932.632 389.112C942.679 389.112 943.954 390.54 943.138 395.232L942.526 398.7C940.639 396.711 936.559 395.64 928.96 395.64C915.751 395.64 912.538 398.445 911.314 405.228C910.192 411.909 912.487 414.612 925.798 414.612ZM928.96 409.461C919.117 409.461 917.485 408.339 918.046 405.075C918.607 401.76 920.086 400.383 930.643 400.383C940.792 400.383 942.169 401.709 941.761 403.851L941.557 405.126C941.047 408.084 939.16 409.461 928.96 409.461ZM959.99 395.13C959.48 398.088 958.919 401.046 958.511 403.392C956.981 412.113 960.041 414.255 972.434 414.255C974.525 414.255 976.106 414.153 978.044 414L978.962 408.237C976.973 408.39 975.8 408.441 973.607 408.441C966.008 408.441 964.376 407.676 965.396 401.811L967.487 390.081H982.175L983.195 384.318H968.507C968.966 381.819 969.323 379.881 969.578 378.504L962.846 378.606C962.489 380.901 962.234 382.584 961.877 384.318C960.245 384.318 958.409 384.318 956.522 384.318L955.502 390.081H960.908L959.99 395.13ZM987.184 395.538C986.572 398.904 986.317 400.281 985.909 402.576C984.379 411.093 987.133 414.612 1000.04 414.612C1006.87 414.612 1011.31 412.827 1014.16 409.41L1013.45 414H1019.67C1019.98 411.96 1020.33 410.073 1020.95 406.554L1023.45 392.478C1024.11 388.602 1024.47 386.562 1024.92 384.318H1018.19C1017.89 386.562 1017.53 388.551 1016.82 392.478L1015.64 399.21C1014.37 406.452 1011.82 408.594 1002.74 408.594C993.202 408.594 991.876 406.35 992.998 399.873L994.324 392.376C995.038 388.245 995.293 386.715 995.803 384.318H989.071C988.714 386.817 988.357 388.959 987.745 392.376L987.184 395.538ZM1029.63 405.432C1028.97 409.155 1028.56 411.654 1028.05 414H1034.78C1035.14 411.654 1035.6 409.155 1036.21 405.483L1039.93 384.369C1040.6 380.748 1041.06 377.994 1041.52 375.852H1034.78C1034.43 378.045 1033.97 380.748 1033.36 384.318L1029.63 405.432ZM1057.93 414.612C1066.09 414.612 1070.63 413.031 1073.13 410.328L1072.57 414H1078.59C1079.25 409.971 1079.71 407.37 1080.27 404.31C1081.08 399.618 1081.44 397.884 1082.16 393.855C1083.38 386.919 1080.57 383.706 1065.22 383.706C1051.2 383.706 1047.93 386.409 1046.86 393.141L1053.24 393.294C1053.75 390.132 1054.97 389.112 1064.76 389.112C1074.81 389.112 1076.09 390.54 1075.27 395.232L1074.66 398.7C1072.77 396.711 1068.69 395.64 1061.09 395.64C1047.88 395.64 1044.67 398.445 1043.45 405.228C1042.32 411.909 1044.62 414.612 1057.93 414.612ZM1061.09 409.461C1051.25 409.461 1049.62 408.339 1050.18 405.075C1050.74 401.76 1052.22 400.383 1062.78 400.383C1072.92 400.383 1074.3 401.709 1073.89 403.851L1073.69 405.126C1073.18 408.084 1071.29 409.461 1061.09 409.461ZM1092.12 395.13C1091.61 398.088 1091.05 401.046 1090.64 403.392C1089.11 412.113 1092.17 414.255 1104.57 414.255C1106.66 414.255 1108.24 414.153 1110.18 414L1111.09 408.237C1109.1 408.39 1107.93 408.441 1105.74 408.441C1098.14 408.441 1096.51 407.676 1097.53 401.811L1099.62 390.081H1114.31L1115.33 384.318H1100.64C1101.1 381.819 1101.45 379.881 1101.71 378.504L1094.98 378.606C1094.62 380.901 1094.37 382.584 1094.01 384.318C1092.38 384.318 1090.54 384.318 1088.65 384.318L1087.63 390.081H1093.04L1092.12 395.13ZM1122.94 376.209L1122.02 381.309H1128.75L1129.62 376.209H1122.94ZM1117.84 405.432C1117.17 409.155 1116.77 411.654 1116.26 414H1122.99C1123.34 411.654 1123.8 409.155 1124.42 405.483L1126.66 392.784C1127.27 389.163 1127.78 386.46 1128.19 384.318H1121.51C1121.2 386.46 1120.69 389.214 1120.08 392.784L1117.84 405.432ZM1149.19 414.612C1164.39 414.612 1168.22 411.246 1170.21 399.924L1170.46 398.394C1172.45 387.072 1168.52 383.706 1153.38 383.706C1138.18 383.706 1134.35 387.072 1132.36 398.394L1132.11 399.924C1130.12 411.246 1134.05 414.612 1149.19 414.612ZM1149.55 408.696C1139.15 408.696 1137.62 406.758 1138.89 399.363L1138.94 398.955C1140.27 391.509 1142.51 389.622 1152.97 389.622C1163.37 389.622 1165 391.509 1163.63 398.955L1163.58 399.363C1162.3 406.758 1160.01 408.696 1149.55 408.696ZM1175.71 405.84C1175.04 409.665 1174.69 411.756 1174.23 414H1180.96C1181.26 411.756 1181.62 409.767 1182.34 405.84L1183.51 399.108C1184.83 391.815 1187.33 389.724 1196.62 389.724C1206.25 389.724 1207.53 391.968 1206.46 398.394L1205.08 405.942C1204.37 410.073 1204.11 411.603 1203.6 414H1210.33C1210.69 411.501 1211.05 409.359 1211.71 405.942L1212.27 402.78C1212.83 399.363 1213.14 397.986 1213.55 395.742C1215.03 387.225 1212.27 383.706 1199.32 383.706C1192.28 383.706 1187.84 385.44 1184.99 388.857L1185.7 384.318H1179.48C1179.17 386.307 1178.82 388.245 1178.2 391.764L1175.71 405.84ZM1224.06 377.79C1223.96 378.708 1221.21 399.465 1220.49 403.749H1226.25C1227.02 399.465 1231.56 378.708 1231.76 377.79H1224.06ZM1218.96 406.554L1217.64 414H1225.44L1226.82 406.554H1218.96Z" fill="#5200FF"/>
<path d="M975 586.789L1 586.789" stroke="url(#paint0_linear_1300_1894)" stroke-width="4"/>
<path d="M447.492 586.937C430.002 586.937 430.088 536.098 430.088 473.391C430.088 536.098 430.556 586.937 412.684 586.937C430.695 586.937 430.088 637.776 430.088 700.483C430.088 637.776 430.071 586.937 447.492 586.937Z" fill="#5200FF"/>
<path d="M154.716 586.937C131.883 586.937 129.714 511.266 129.714 417.93C129.714 511.266 128.727 586.937 104.712 586.937C129.013 586.937 129.714 662.609 129.714 755.945C129.714 662.609 132.173 586.937 154.716 586.937Z" fill="#E965FF"/>
<path d="M485.542 586.939C467.792 586.939 465.318 568.042 465.318 544.734C465.318 568.042 463.212 586.939 445.094 586.939C463.212 586.939 465.318 605.836 465.318 629.144C465.318 605.836 467.792 586.939 485.542 586.939Z" fill="#43FF8E"/>
<path d="M108.316 586.937C90.5651 586.937 88.0914 543.569 88.0914 490.078C88.0914 543.569 85.9858 586.937 67.8672 586.937C85.9858 586.937 88.0914 630.304 88.0914 683.795C88.0914 630.304 90.5651 586.937 108.316 586.937Z" fill="#43FF8E"/>
<path d="M418.119 586.938C375.059 586.938 369.058 575.566 369.058 561.539C369.058 575.566 363.95 586.938 319.996 586.938C363.95 586.938 369.058 598.31 369.058 612.337C369.058 598.31 375.059 586.938 418.119 586.938Z" fill="#E965FF"/>
<path d="M290.971 586.938C247.91 586.938 241.909 575.566 241.909 561.539C241.909 575.566 236.802 586.938 192.848 586.938C236.802 586.938 241.909 598.31 241.909 612.337C241.909 598.31 247.91 586.938 290.971 586.938Z" fill="#43FF8E"/>
<path d="M73.2936 586.938C41.1293 586.938 36.6468 559.619 36.6468 525.922C36.6468 559.619 32.8315 586.938 0 586.938C32.8315 586.938 36.6468 614.257 36.6468 647.954C36.6468 614.257 41.1293 586.938 73.2936 586.938Z" fill="#E965FF"/>
<path d="M203.118 586.937C179.878 586.937 176.639 552.125 176.639 509.188C176.639 552.125 173.882 586.937 150.16 586.937C173.882 586.937 176.639 621.748 176.639 664.686C176.639 621.748 179.878 586.937 203.118 586.937Z" fill="#5200FF"/>
<path d="M325.468 586.937C307.717 586.937 305.244 543.569 305.244 490.078C305.244 543.569 303.138 586.937 285.02 586.937C303.138 586.937 305.244 630.304 305.244 683.795C305.244 630.304 307.717 586.937 325.468 586.937Z" fill="#5200FF"/>
<path d="M944 586.789H1919" stroke="url(#paint1_linear_1300_1894)" stroke-width="4"/>
<path d="M1471.47 586.938C1488.96 586.938 1488.87 637.777 1488.87 700.484C1488.87 637.777 1488.4 586.938 1506.27 586.938C1488.26 586.938 1488.87 536.099 1488.87 473.392C1488.87 536.099 1488.89 586.938 1471.47 586.938Z" fill="#5200FF"/>
<path d="M1764.24 586.938C1787.07 586.938 1789.24 662.609 1789.24 755.945C1789.24 662.609 1790.23 586.938 1814.25 586.938C1789.94 586.938 1789.24 511.266 1789.24 417.93C1789.24 511.266 1786.78 586.938 1764.24 586.938Z" fill="#E965FF"/>
<path d="M1433.41 586.936C1451.17 586.936 1453.64 605.833 1453.64 629.141C1453.64 605.833 1455.74 586.936 1473.86 586.936C1455.74 586.936 1453.64 568.039 1453.64 544.731C1453.64 568.039 1451.17 586.936 1433.41 586.936Z" fill="#43FF8E"/>
<path d="M1810.64 586.938C1828.39 586.938 1830.87 630.306 1830.87 683.797C1830.87 630.306 1832.97 586.938 1851.09 586.938C1832.97 586.938 1830.87 543.571 1830.87 490.08C1830.87 543.571 1828.39 586.938 1810.64 586.938Z" fill="#43FF8E"/>
<path d="M1500.84 586.937C1543.9 586.937 1549.9 598.309 1549.9 612.336C1549.9 598.309 1555.01 586.937 1598.96 586.937C1555.01 586.937 1549.9 575.565 1549.9 561.538C1549.9 575.565 1543.9 586.937 1500.84 586.937Z" fill="#E965FF"/>
<path d="M1627.99 586.937C1671.05 586.937 1677.05 598.309 1677.05 612.336C1677.05 598.309 1682.16 586.937 1726.11 586.937C1682.16 586.937 1677.05 575.565 1677.05 561.538C1677.05 575.565 1671.05 586.937 1627.99 586.937Z" fill="#43FF8E"/>
<path d="M1845.66 586.937C1877.83 586.937 1882.31 614.256 1882.31 647.953C1882.31 614.256 1886.13 586.937 1918.96 586.937C1886.13 586.937 1882.31 559.618 1882.31 525.921C1882.31 559.618 1877.83 586.937 1845.66 586.937Z" fill="#E965FF"/>
<path d="M1715.84 586.938C1739.08 586.938 1742.32 621.75 1742.32 664.688C1742.32 621.75 1745.07 586.938 1768.8 586.938C1745.07 586.938 1742.32 552.127 1742.32 509.189C1742.32 552.127 1739.08 586.938 1715.84 586.938Z" fill="#5200FF"/>
<path d="M1593.49 586.938C1611.24 586.938 1613.71 630.306 1613.71 683.797C1613.71 630.306 1615.82 586.938 1633.94 586.938C1615.82 586.938 1613.71 543.571 1613.71 490.08C1613.71 543.571 1611.24 586.938 1593.49 586.938Z" fill="#5200FF"/>
<path d="M953.278 592.224C958.766 592.224 960.142 590.928 960.91 586.576L961.006 586.064C961.79 581.856 960.462 580.416 954.942 580.416C949.454 580.416 948.078 581.712 947.31 586.064L947.214 586.576C946.43 590.784 947.758 592.224 953.278 592.224ZM953.342 590.672C948.99 590.672 948.334 589.808 948.926 586.416L948.958 586.224C949.534 582.944 950.526 581.968 954.878 581.968C959.23 581.968 959.902 582.832 959.294 586.224L959.262 586.416C958.67 589.808 957.694 590.672 953.342 590.672ZM962.845 589.424C962.637 590.656 962.541 591.216 962.381 592H964.077C964.205 591.152 964.269 590.832 964.525 589.408L964.829 587.648H970.925L972.061 589.776C972.445 590.496 972.781 591.248 973.117 592H974.989C974.477 591.024 974.029 590.128 973.629 589.296C973.309 588.64 972.989 588.032 972.701 587.488C975.021 587.136 975.885 586.192 976.253 584.144C976.685 581.84 975.645 580.64 971.885 580.64H964.381C964.269 581.392 964.189 581.872 964.029 582.72L962.845 589.424ZM971.853 582.128C974.269 582.128 974.781 582.64 974.525 584.048C974.253 585.52 973.549 586.16 971.133 586.16H965.101L965.805 582.128H971.853Z" fill="#535559"/>
</g>
<defs>
<linearGradient id="paint0_linear_1300_1894" x1="521" y1="586.789" x2="894.795" y2="504.298" gradientUnits="userSpaceOnUse">
<stop offset="0.432814" stop-color="#313338"/>
<stop offset="1" stop-color="#313338" stop-opacity="0"/>
</linearGradient>
<linearGradient id="paint1_linear_1300_1894" x1="1341" y1="586.789" x2="1027.31" y2="656.087" gradientUnits="userSpaceOnUse">
<stop offset="0.432814" stop-color="#313338"/>
<stop offset="1" stop-color="#313338" stop-opacity="0"/>
</linearGradient>
<clipPath id="clip0_1300_1894">
<rect width="1920" height="1080" fill="white"/>
</clipPath>
</defs>
</svg>
