<svg width="1920" height="715" viewBox="0 0 1920 715" fill="none" xmlns="http://www.w3.org/2000/svg">
<g clip-path="url(#clip0_2206_33135)">
<g opacity="0.15">
<path d="M1595.68 235.632C1566.74 237.052 1541.54 203 1539.4 159.579C1541.54 203 1519.81 239.355 1490.87 240.776C1519.81 239.355 1545 273.408 1547.14 316.829C1545 273.408 1566.74 237.052 1595.68 235.632Z" fill="#E965FF"/>
<path d="M1574.97 528.341C1559.04 519.522 1553.28 499.466 1562.1 483.545L1678.17 273.991C1686.98 258.07 1707.04 252.313 1722.96 261.133L1932.54 377.215C1948.46 386.034 1954.22 406.09 1945.4 422.011L1829.34 631.565C1820.52 647.486 1800.47 653.243 1784.54 644.423L1574.97 528.341Z" fill="#141517" stroke="url(#paint0_linear_2206_33135)" stroke-width="3.12643"/>
<path d="M1692.01 582.943C1635.53 547.178 1596.58 537.142 1568.5 509.524L1710.95 467.897L1721.53 478.48C1722.84 479.794 1724.33 480.918 1725.96 481.821L1743.71 491.685L1692.01 582.943Z" fill="url(#paint1_linear_2206_33135)"/>
<path d="M1817.58 324.137C1881.73 359.669 1907.4 370.936 1936.3 394.014L1782.95 446.684L1763.45 412.918L1817.58 324.137Z" fill="url(#paint2_linear_2206_33135)"/>
<path d="M1705.27 473.551C1700.77 471.057 1699.14 465.385 1701.64 460.882L1732.97 404.303C1735.47 399.8 1741.14 398.172 1745.64 400.666L1802.23 432.008C1806.73 434.503 1808.36 440.175 1805.87 444.677L1774.53 501.257C1772.03 505.759 1766.36 507.387 1761.86 504.893L1705.27 473.551Z" fill="url(#paint3_linear_2206_33135)"/>
<path d="M1329.66 390.187L767.822 584.613L752.629 489.161L1319.64 292.945L1329.66 390.187Z" fill="url(#paint4_linear_2206_33135)" stroke="url(#paint5_linear_2206_33135)" stroke-width="2.57571"/>
<path d="M1183.8 334.737L621.957 529.163L606.765 433.711L1173.78 237.495L1183.8 334.737Z" fill="url(#paint6_linear_2206_33135)" stroke="url(#paint7_linear_2206_33135)" stroke-width="2.57571"/>
<path d="M848.97 523.311L848.03 517.281C844.325 518.615 837.023 521.142 832.093 522.848L821.442 526.534L817.824 503.876C817.343 501.282 817.041 499.355 816.802 497.458L810.523 499.631C810.855 501.495 811.157 503.422 811.591 506.033L814.924 526.81C815.462 530.322 815.812 532.389 816.134 534.674L848.97 523.311Z" fill="white"/>
<path d="M848.677 484.813L849.449 489.755L855.588 487.63L854.769 482.704L848.677 484.813ZM853.246 513.08C853.816 516.685 854.232 519.094 854.507 521.395L860.646 519.27C860.232 517.017 859.862 514.593 859.262 511.05L857.301 498.758C856.717 495.261 856.329 492.635 856.026 490.552L849.933 492.66C850.33 494.711 850.733 497.384 851.302 500.834L853.246 513.08Z" fill="white"/>
<path d="M867.041 508.722C867.644 512.421 867.978 514.441 868.267 516.633L874.407 514.508C873.978 512.365 873.676 510.438 873.088 506.63L872.034 500.119C870.942 493.048 872.515 490.368 879.259 488.034C885.258 485.958 887.106 486.933 887.926 492.015L889.415 501.136C889.97 504.851 890.253 506.42 890.592 508.907L896.685 506.799C896.168 503.8 895.863 501.562 895.366 498.921L894.358 492.393C893.22 485.338 894.933 482.61 901.583 480.308C907.583 478.232 909.477 479.191 910.298 484.273L911.723 493.364C912.342 497.109 912.624 498.678 912.917 501.182L919.056 499.057C918.556 496.105 918.204 493.882 917.77 491.272L917.319 488.615C916.615 484.17 916.308 481.776 915.91 479.57C914.818 472.499 911.452 470.746 902.336 473.901C896.429 475.945 893.411 478.813 892.305 482.842C890.4 479.594 886.801 479.277 880.197 481.562C874.43 483.558 871.41 486.27 870.13 490.099L869.367 485.935L863.693 487.899C864.041 489.81 864.327 491.69 864.879 495.093L867.041 508.722Z" fill="white"/>
<path d="M920.758 459.869L921.53 464.811L927.67 462.686L926.851 457.76L920.758 459.869ZM925.327 488.136C925.897 491.741 926.314 494.149 926.589 496.45L932.728 494.326C932.314 492.073 931.944 489.649 931.343 486.106L929.383 473.814C928.799 470.317 928.411 467.691 928.107 465.608L922.015 467.716C922.411 469.767 922.815 472.44 923.383 475.89L925.327 488.136Z" fill="white"/>
<path d="M939.186 472.817C939.654 475.677 940.076 478.552 940.444 480.821C941.8 489.259 945.266 490.247 956.568 486.336C958.475 485.676 959.885 485.084 961.604 484.333L960.623 478.786C958.857 479.554 957.804 479.97 955.804 480.663C948.874 483.061 947.144 482.878 946.224 477.206L944.43 465.846L957.825 461.21L956.937 455.631L943.542 460.267C943.172 457.842 942.886 455.962 942.684 454.625L936.577 456.843C936.976 459.049 937.274 460.665 937.496 462.359C936.007 462.874 934.333 463.454 932.612 464.049L933.5 469.628L938.43 467.922L939.186 472.817Z" fill="white"/>
<path d="M965.888 474.1C966.458 477.705 966.874 480.113 967.149 482.414L973.288 480.29C972.874 478.037 972.504 475.613 971.903 472.07L968.637 451.634C968.099 448.122 967.649 445.465 967.392 443.366L961.252 445.491C961.619 447.604 962.053 450.214 962.621 453.664L965.888 474.1Z" fill="white"/>
<path d="M997.52 472.529C1011.47 467.701 1013.1 464.117 1011.94 456.86L1005.92 458.734C1006.46 462.091 1005.58 464.062 996.046 467.362C987.069 470.468 984.755 469.498 983.489 463.581L1011.44 453.908C1011.34 453.162 1011.24 452.26 1011.05 451.281C1009.18 440.731 1004.84 438.43 991.304 443.113C977.723 447.813 975.157 452.139 976.916 463.095L977.166 464.571C978.858 475.185 983.707 477.31 997.52 472.529ZM992.634 447.862C1001.42 444.82 1003.38 445.966 1004.46 451.48L982.783 458.981C982.203 453.087 984.076 450.824 992.634 447.862Z" fill="white"/>
<path d="M1034.69 459.667C1048.36 454.935 1049.4 452.65 1048.39 446.435C1047.47 440.607 1044.65 438.771 1031.35 442.175C1021.52 444.637 1020.67 443.837 1020.26 441.584C1019.88 439.58 1021.06 438.181 1029.06 435.413C1037.39 432.532 1038.79 433.139 1039.2 435.812L1039.27 436.465L1045.31 434.217C1044.17 427.318 1041.03 425.905 1027.78 430.492C1015.12 434.87 1013.57 437.597 1014.54 443.72C1015.48 449.594 1018.27 451.181 1030.45 448.008C1040.94 445.367 1041.88 446.135 1042.31 448.589C1042.71 450.796 1041.93 452.003 1033.42 454.949C1024.03 458.2 1022.63 457.64 1022.08 454.236L1021.93 453.506L1016.03 455.706C1017.37 463.942 1020.78 464.48 1034.69 459.667Z" fill="white"/>
<path d="M1070.57 447.25C1084.24 442.518 1085.28 440.233 1084.27 434.017C1083.35 428.19 1080.53 426.354 1067.23 429.758C1057.4 432.22 1056.56 431.42 1056.14 429.167C1055.76 427.163 1056.94 425.764 1064.94 422.996C1073.27 420.115 1074.68 420.722 1075.08 423.395L1075.15 424.048L1081.19 421.8C1080.06 414.901 1076.91 413.488 1063.66 418.075C1051.01 422.453 1049.45 425.18 1050.42 431.303C1051.36 437.177 1054.15 438.764 1066.33 435.591C1076.82 432.95 1077.76 433.718 1078.2 436.172C1078.59 438.379 1077.81 439.586 1069.3 442.532C1059.91 445.783 1058.52 445.223 1057.96 441.819L1057.82 441.089L1051.91 443.289C1053.25 451.525 1056.66 452.062 1070.57 447.25Z" fill="white"/>
<path d="M1107.56 414.552C1108.03 417.411 1108.45 420.286 1108.82 422.555C1110.17 430.993 1113.64 431.982 1124.94 428.07C1126.85 427.411 1128.26 426.819 1129.98 426.067L1129 420.521C1127.23 421.288 1126.18 421.705 1124.18 422.397C1117.25 424.795 1115.52 424.612 1114.6 418.94L1112.8 407.58L1126.2 402.944L1125.31 397.365L1111.91 402.001C1111.54 399.576 1111.26 397.696 1111.06 396.359L1104.95 398.577C1105.35 400.783 1105.65 402.399 1105.87 404.093C1104.38 404.608 1102.71 405.188 1100.98 405.783L1101.87 411.362L1106.8 409.656L1107.56 414.552Z" fill="white"/>
<path d="M1134.2 416.27C1134.8 419.969 1135.14 421.989 1135.43 424.181L1141.57 422.056C1141.14 419.913 1140.84 417.986 1140.25 414.178L1139.26 408.164C1138.01 400.316 1139.63 397.932 1147.26 395.292C1154.75 392.701 1155.86 393.513 1156.68 398.595L1156.8 399.543L1162.63 397.422C1162.44 396.288 1162.33 395.495 1162.22 394.593C1160.93 386.652 1158.43 385.28 1148.34 388.772C1142.2 390.897 1138.77 393.8 1137.31 397.849L1136.53 393.483L1130.85 395.447C1131.2 397.358 1131.49 399.238 1132.04 402.641L1134.2 416.27Z" fill="white"/>
<path d="M1183.67 408.11C1191.12 405.535 1194.76 402.66 1196.18 399.406L1196.83 402.933L1202.32 401.033C1201.65 397.149 1201.25 394.631 1200.8 391.663C1200.06 387.125 1199.84 385.431 1199.22 381.53C1198.15 374.817 1194.57 372.771 1180.57 377.616C1167.78 382.042 1165.66 385.538 1166.81 392.017L1172.67 390.144C1172.14 387.099 1172.93 385.782 1181.86 382.692C1191.02 379.521 1192.64 380.422 1193.37 384.959L1193.91 388.316C1191.56 387.097 1187.5 387.408 1180.57 389.806C1168.53 393.974 1166.48 397.547 1167.5 404.121C1168.59 410.57 1171.54 412.311 1183.67 408.11ZM1184.93 402.413C1175.96 405.52 1174.11 405.011 1173.6 401.857C1173.06 398.656 1173.98 396.933 1183.6 393.601C1192.86 390.398 1194.53 391.173 1194.84 393.256L1195.05 394.484C1195.52 397.343 1194.23 399.194 1184.93 402.413Z" fill="white"/>
<path d="M1226.25 393.376C1239.92 388.644 1241.93 384.512 1240.56 375.716L1234.56 377.636C1235.31 382.22 1233.83 384.713 1224.66 387.883C1215.31 391.118 1213.31 389.833 1212.14 382.685L1212.06 382.297C1210.92 375.086 1212.37 372.656 1221.72 369.421C1230.88 366.251 1232.85 367.598 1233.59 372.136L1233.57 372.089L1239.53 369.874C1238.12 360.829 1233.85 359.18 1220.17 363.912C1206.69 368.58 1204.12 372.906 1205.88 383.861L1206.13 385.337C1207.89 396.293 1212.81 398.028 1226.25 393.376Z" fill="white"/>
<path d="M1247.04 376.806C1247.61 380.412 1248.02 382.82 1248.3 385.121L1254.44 382.997C1254.02 380.744 1253.65 378.319 1253.05 374.777L1252.52 371.264L1259.45 368.866C1261.04 369.72 1262.86 370.602 1264.72 371.469L1274.44 376.076L1282.02 373.452L1282.08 373.327C1277.29 371.077 1268.97 367.03 1263.63 364.397C1267.55 358.562 1273.35 350.042 1276.87 345.021L1276.75 344.96L1268.98 347.648L1262.84 356.544C1261.23 358.82 1259.64 361.142 1258.23 363.244L1251.58 365.546L1249.79 354.341C1249.25 350.829 1248.8 348.172 1248.54 346.073L1242.4 348.198C1242.77 350.311 1243.2 352.921 1243.77 356.371L1247.04 376.806Z" fill="white"/>
<path d="M661.596 474.004C662.1 477.267 662.402 479.194 662.789 481.821L682.324 475.061C698.602 469.428 701.206 464.308 699.112 451.176L698.994 450.383C696.86 437.891 691.457 434.916 675.225 440.533L657.179 446.778C657.577 448.984 657.829 450.616 658.247 453.18L661.596 474.004ZM676.937 446.087C688.751 441.999 691.244 443.637 692.717 452.712L692.785 453.209C694.21 462.301 692.518 465.387 680.658 469.491L668.1 473.837L664.333 450.449L676.937 446.087Z" fill="white"/>
<path d="M702.327 429.539L703.099 434.481L709.238 432.357L708.42 427.431L702.327 429.539ZM706.896 457.806C707.466 461.412 707.883 463.82 708.158 466.121L714.297 463.997C713.882 461.744 713.513 459.32 712.912 455.777L710.952 443.484C710.368 439.988 709.98 437.361 709.676 435.279L703.583 437.387C703.98 439.438 704.384 442.111 704.952 445.561L706.896 457.806Z" fill="white"/>
<path d="M737.227 456.687C750.901 451.955 751.933 449.67 750.929 443.454C750.007 437.627 747.185 435.79 733.885 439.195C724.061 441.657 723.211 440.857 722.796 438.604C722.416 436.6 723.598 435.201 731.598 432.433C739.923 429.552 741.331 430.159 741.735 432.832L741.805 433.485L747.849 431.237C746.713 424.337 743.568 422.925 730.313 427.512C717.662 431.89 716.105 434.617 717.077 440.74C718.015 446.614 720.804 448.201 732.986 445.028C743.477 442.387 744.42 443.154 744.852 445.609C745.251 447.816 744.471 449.023 735.959 451.969C726.564 455.22 725.173 454.659 724.621 451.256L724.472 450.526L718.567 452.726C719.906 460.962 723.32 461.499 737.227 456.687Z" fill="white"/>
<path d="M774.178 443.9C787.852 439.168 789.86 435.035 788.484 426.239L782.483 428.159C783.235 432.744 781.753 435.236 772.591 438.406C763.242 441.642 761.236 440.357 760.065 433.208L759.983 432.82C758.843 425.609 760.294 423.18 769.643 419.945C778.805 416.774 780.781 418.122 781.518 422.659L781.502 422.613L787.453 420.397C786.043 411.352 781.776 409.703 768.102 414.435C754.614 419.103 752.048 423.429 753.806 434.385L754.056 435.861C755.815 446.817 760.737 448.551 774.178 443.9Z" fill="white"/>
<path d="M812.606 430.602C826.466 425.805 828.892 421.528 827.134 410.572L826.884 409.096C825.126 398.14 820.482 396.309 806.669 401.089C792.809 405.885 790.383 410.163 792.141 421.119L792.391 422.595C794.149 433.551 798.792 435.382 812.606 430.602ZM811.065 425.092C801.577 428.376 799.57 427.091 798.4 419.943L798.318 419.554C797.178 412.343 798.629 409.914 808.163 406.614C817.651 403.331 819.735 404.537 820.829 411.764L820.911 412.153C822.081 419.301 820.6 421.793 811.065 425.092Z" fill="white"/>
<path d="M853.965 415.664C856.006 407.561 860.416 390.199 862.507 382.391L855.577 384.789L852.065 399.027C851.038 403.133 850.073 407.27 849.273 410.829L845.97 411.971C844.166 409.314 841.999 406.209 839.863 403.198L832.461 392.788L826.043 395.01C830.231 400.645 839.783 413.956 843.547 419.269L853.965 415.664Z" fill="white"/>
<path d="M886.644 404.981C900.597 400.152 902.222 396.568 901.066 389.311L895.048 391.185C895.584 394.542 894.704 396.513 885.169 399.813C876.193 402.919 873.878 401.949 872.613 396.032L900.566 386.359C900.464 385.613 900.36 384.711 900.178 383.732C898.3 373.182 893.962 370.881 880.428 375.564C866.847 380.264 864.281 384.59 866.039 395.546L866.29 397.022C867.982 407.636 872.831 409.761 886.644 404.981ZM881.758 380.313C890.548 377.271 892.507 378.417 893.581 383.931L871.907 391.432C871.327 385.538 873.2 383.275 881.758 380.313Z" fill="white"/>
<path d="M907.278 388.88C907.88 392.579 908.214 394.599 908.504 396.791L914.643 394.666C914.214 392.523 913.912 390.596 913.324 386.788L912.338 380.774C911.082 372.926 912.705 370.542 920.332 367.902C927.821 365.311 928.935 366.123 929.755 371.205L929.875 372.153L935.703 370.032C935.519 368.898 935.401 368.105 935.297 367.203C934.009 359.262 931.503 357.89 921.41 361.382C915.271 363.507 911.849 366.41 910.385 370.459L909.604 366.093L903.93 368.057C904.278 369.968 904.564 371.848 905.116 375.251L907.278 388.88Z" fill="white"/>
<path d="M980.493 372.191C982.795 363.789 987.545 346.206 989.775 338.349L983.031 340.683L979.325 354.207C978.412 357.44 977.562 360.704 976.817 363.67L974.305 364.539C972.429 362.428 970.333 360.132 968.316 357.913L959.869 348.699L953.265 350.984C958.353 356.36 967.179 366.068 971.703 371.17L975.052 370.011L974.603 371.573C973.617 375.196 972.787 376.108 969.996 377.074C968.182 377.702 966.585 378.202 964.692 378.753L965.439 384.225C967.364 383.767 969.721 383.055 971.07 382.589C976.698 380.641 978.864 378.172 980.493 372.191Z" fill="white"/>
<path d="M1013.77 360.988C1027.63 356.191 1030.06 351.914 1028.3 340.958L1028.05 339.482C1026.29 328.526 1021.65 326.695 1007.83 331.475C993.975 336.271 991.548 340.549 993.307 351.505L993.557 352.981C995.315 363.937 999.958 365.768 1013.77 360.988ZM1012.23 355.478C1002.74 358.762 1000.74 357.477 999.566 350.328L999.483 349.94C998.343 342.729 999.795 340.3 1009.33 337C1018.82 333.717 1020.9 334.923 1021.99 342.15L1022.08 342.538C1023.25 349.687 1021.77 352.179 1012.23 355.478Z" fill="white"/>
<path d="M1033.47 334.69C1033.97 337.954 1034.17 339.291 1034.52 341.513C1035.82 349.765 1039.44 352.106 1051.2 348.034C1057.44 345.877 1060.92 342.849 1062.45 338.83L1063.24 343.243L1068.92 341.279C1068.55 339.322 1068.28 337.488 1067.73 334.084L1065.57 320.455C1064.95 316.71 1064.63 314.737 1064.34 312.545L1058.2 314.669C1058.63 316.813 1058.93 318.74 1059.52 322.548L1060.58 329.059C1061.7 336.068 1060.05 338.826 1051.77 341.691C1043.07 344.701 1041.16 343.072 1040.14 336.81L1038.98 329.553C1038.33 325.559 1038.08 324.083 1037.79 321.735L1031.65 323.86C1032.11 326.252 1032.46 328.319 1032.98 331.629L1033.47 334.69Z" fill="white"/>
<path d="M1075.24 330.756C1075.84 334.454 1076.18 336.474 1076.47 338.666L1082.61 336.542C1082.18 334.398 1081.88 332.471 1081.29 328.664L1080.3 322.65C1079.05 314.802 1080.67 312.417 1088.3 309.778C1095.78 307.186 1096.9 307.999 1097.72 313.08L1097.84 314.029L1103.67 311.908C1103.48 310.773 1103.36 309.981 1103.26 309.079C1101.97 301.138 1099.47 299.765 1089.37 303.258C1083.23 305.382 1079.81 308.286 1078.35 312.335L1077.57 307.969L1071.89 309.932C1072.24 311.843 1072.53 313.724 1073.08 317.127L1075.24 330.756Z" fill="white"/>
<path d="M225.286 605.864C244.603 507.929 340.104 444.291 438.615 463.729C537.126 483.167 601.307 578.315 581.991 676.249L579.008 691.369L400.656 656.176L222.303 620.984L225.286 605.864Z" fill="#0D0E11" stroke="url(#paint8_linear_2206_33135)" stroke-width="2.00027"/>
<path d="M248.975 608.332C257.124 567.021 281.344 530.639 316.31 507.19C351.275 483.742 394.12 475.146 435.42 483.296C476.719 491.445 513.091 515.671 536.532 550.645C559.974 585.619 568.566 628.475 560.417 669.786L404.696 639.059L248.975 608.332Z" fill="url(#paint9_linear_2206_33135)"/>
<path d="M518.293 661.48C524.304 631.004 517.966 599.389 500.673 573.589C483.38 547.789 456.548 529.917 426.081 523.905C395.614 517.893 364.007 524.234 338.213 541.532C312.419 558.831 294.552 585.67 288.54 616.145L403.417 638.812L518.293 661.48Z" fill="url(#paint10_linear_2206_33135)"/>
<path d="M460.733 650.786C463.772 635.379 460.568 619.395 451.825 606.352C443.083 593.309 429.518 584.273 414.115 581.234C398.713 578.195 382.733 581.4 369.693 590.146C356.653 598.891 347.62 612.459 344.581 627.866L402.657 639.326L460.733 650.786Z" fill="url(#paint11_linear_2206_33135)"/>
<path d="M576.784 586.804L559.073 593.618L499.296 616.613" stroke="#5200FF" stroke-width="1.33351"/>
<rect width="48.3803" height="15.1208" rx="2.00027" transform="matrix(0.936506 -0.350547 0.350386 0.936645 476.706 616.832)" fill="#5200FF"/>
<path d="M190.728 447.514C134.695 443.812 15.499 462.507 -30.3555 473.959L-17.3189 526.097C181.865 462.204 227.705 512.557 224.535 545.782L289.403 515.871C273.874 457.796 251.443 451.524 190.728 447.514Z" fill="#5200FF"/>
<path fill-rule="evenodd" clip-rule="evenodd" d="M-35.4641 470.894L-31.3733 469.872C-8.2358 464.093 33.197 456.532 75.8184 450.878C118.373 445.233 162.541 441.43 191.009 443.311C221.174 445.303 243.049 447.865 259.224 457.832C275.744 468.012 285.619 485.394 293.477 514.785L294.395 518.216L219.646 552.683L220.342 545.385C221.031 538.163 219.08 529.907 212.853 522.4C206.606 514.871 195.836 507.841 178.497 503.62C143.678 495.144 83.3298 498.244 -16.0287 530.115L-20.3129 531.49L-35.4641 470.894ZM-25.2341 477.056L-14.3162 520.722C83.0068 489.962 143.921 486.525 180.491 495.428C199.114 499.961 211.658 507.756 219.34 517.016C225.175 524.05 228.076 531.782 228.748 539.202L284.394 513.543C276.919 487.091 268.002 473.144 254.803 465.011C240.701 456.321 221.003 453.742 190.453 451.724C162.888 449.903 119.441 453.597 76.9266 459.236C36.9187 464.544 -1.88474 471.521 -25.2341 477.056Z" fill="url(#paint12_linear_2206_33135)"/>
<path d="M267.756 394.167L-16.6959 525.329L-30.647 473.856L256.424 341.487L267.756 394.167Z" fill="#5200FF"/>
<path fill-rule="evenodd" clip-rule="evenodd" d="M-35.6459 471.517L259.439 335.453L272.588 396.58L-19.4581 531.243L-35.6459 471.517ZM-25.6456 476.19L-13.9315 519.41L262.926 391.75L253.411 347.516L-25.6456 476.19Z" fill="url(#paint13_linear_2206_33135)"/>
<path d="M401.144 391.136C386.748 386.713 380.454 365.615 387.086 344.016C380.454 365.615 363.406 379.541 349.01 375.118C363.406 379.541 369.7 400.638 363.067 422.238C369.7 400.638 386.748 386.713 401.144 391.136Z" fill="#43FF8E"/>
<path d="M142.629 230.629C118.476 239.182 88.4937 216.736 75.6663 180.496C88.4937 216.736 79.3112 253.053 55.1578 261.606C79.3112 253.053 109.293 275.499 122.121 311.739C109.293 275.499 118.476 239.182 142.629 230.629Z" fill="#5200FF"/>
<circle cx="96.6736" cy="96.6736" r="96.6736" transform="matrix(0.937695 -0.34749 0.347317 0.937737 1262.95 346.96)" fill="#0D0E11"/>
<path d="M1347.35 493.631C1314.28 478.438 1303.65 453.798 1297.6 439.494L1361.95 415.271L1362.95 417.537C1365.26 422.737 1369.38 426.916 1374.55 429.291L1376.95 430.393L1347.35 493.631Z" fill="url(#paint14_linear_2206_33135)"/>
<path d="M1428.54 316.889C1461.62 332.083 1472.25 356.722 1478.3 371.026L1409.89 397.228L1398.98 381.241L1428.54 316.889Z" fill="url(#paint15_linear_2206_33135)"/>
<circle cx="101.229" cy="101.229" r="99.405" transform="matrix(0.937695 -0.34749 0.347317 0.937737 1257.05 344.746)" stroke="url(#paint16_linear_2206_33135)" stroke-width="3.64771"/>
<circle cx="27.9252" cy="27.9252" r="27.9252" transform="matrix(0.937695 -0.34749 0.347317 0.937737 1351.89 388.311)" fill="url(#paint17_linear_2206_33135)"/>
</g>
<path d="M280.891 214.31C298.167 194.4 252.463 184.853 233 184.138L235.624 170.813H314.787L311.288 184.138H279.798C308.664 191.336 305.821 209.052 301.666 214.31H280.891Z" fill="#5200FF"/>
<path d="M316.586 203.584C315.841 207.69 315.345 210.755 314.786 213.39H329.682C330.116 210.693 330.675 207.629 331.358 203.584L331.482 202.726H371.891L373.753 206.035C375.242 208.732 376.608 211.306 377.601 213.39H393.676C392 210.326 390.262 207.077 388.648 203.89C387.842 202.419 387.035 200.948 386.166 199.477C393.303 197.577 396.469 193.838 397.772 186.361C399.882 174.593 393.179 169.874 377.352 169.874H322.544C322.234 172.019 321.8 174.287 321.303 177.229L316.586 203.584ZM375.615 181.887C381.821 181.887 383.373 183.235 382.814 186.361C382.256 189.487 380.207 190.958 374.001 190.958H333.592L335.268 181.887H375.615Z" fill="#5200FF"/>
<path d="M422.191 169.874C416.108 179.803 403.048 205.055 397.772 213.39H414.468L417.633 207.69H461.231L462.473 213.39H477.679C475.382 205.055 468.865 179.803 466.383 169.874H422.191ZM424.212 195.984C426.695 191.509 427.833 186.913 430.13 182.622H456.018C456.825 187.035 457.818 191.755 458.811 196.29H424.026L424.212 195.984Z" fill="#5200FF"/>
<path d="M524.949 214.248C548.844 214.248 556.851 210.326 559.395 194.942L544.686 194.697C543.879 199.355 539.534 201.561 526.314 201.561C513.715 201.561 495.134 201.762 496.561 193.733V189.529C498.051 181.439 513.715 181.703 526.314 181.703C539.72 181.703 546.548 183.726 545.679 188.568L560.45 188.322C562.933 173.98 551.823 169.016 527.928 169.016C504.095 169.016 484.894 167.636 481.541 190.651V193.733C483.297 216.502 501.115 214.248 524.949 214.248Z" fill="#5200FF"/>
<path d="M566.619 203.584C565.875 207.69 565.378 210.693 564.819 213.39H579.715C580.15 210.632 580.708 207.629 581.391 203.584L582.57 197.087H603.574C606.181 200.335 608.229 202.909 609.781 204.932L616.546 213.39H634.359L634.421 213.268C630.635 208.855 621.325 197.332 615.863 190.468C623.497 184.093 635.538 174.042 640.503 169.996L640.441 169.874H621.821L610.587 179.803C608.787 181.335 606.801 183.113 604.381 185.135H584.681L586.108 177.229C586.667 174.164 587.039 172.142 587.473 169.874H572.578C572.267 172.08 571.833 174.287 571.336 177.229L566.619 203.584Z" fill="#5200FF"/>
<path d="M642.759 185.79L640.525 198.293H663.327L665.562 185.79H642.759Z" fill="#5200FF"/>
<path d="M708.977 214.31H674.65L676.674 202.71H688.887L692.45 182.16L679.387 185.92L681.483 174.32L698.354 169H709.194L703.268 202.71H711L708.977 214.31Z" fill="#5200FF"/>
<path d="M275.771 258.651C275.771 259.824 275.771 260.517 275.751 261.458H283.816C290.82 261.458 292.561 260.019 292.561 255.292V255.008C292.561 250.281 290.82 248.842 283.836 248.842H275.751C275.771 249.641 275.771 250.228 275.771 251.152V258.651ZM283.836 250.938C288.939 250.938 289.84 251.791 289.84 255.061V255.239C289.84 258.509 288.939 259.362 283.816 259.362H278.433V250.938H283.836Z" fill="#535559"/>
<path d="M295.272 248.291V250.068H297.913V248.291H295.272ZM295.292 258.473C295.292 259.77 295.292 260.641 295.272 261.458H297.913C297.893 260.641 297.893 259.77 297.893 258.491V254.066C297.893 252.804 297.893 251.862 297.913 251.116H295.272C295.292 251.862 295.292 252.822 295.292 254.066V258.473Z" fill="#535559"/>
<path d="M307.456 261.672C313.34 261.672 314.18 260.819 314.18 258.58C314.18 256.501 313.42 255.648 307.516 255.257C303.334 254.955 303.054 254.688 303.054 253.888C303.054 253.071 303.594 252.733 307.016 252.733C310.618 252.733 311.139 253.106 311.139 254.066V254.297L313.72 254.244C313.72 251.756 312.8 250.903 307.096 250.903C301.653 250.903 300.552 251.809 300.552 254.013C300.552 256.145 301.453 256.856 306.776 257.229C311.219 257.531 311.559 257.833 311.559 258.722C311.559 259.575 311.199 259.912 307.516 259.912C303.474 259.912 302.954 259.557 302.954 258.331V258.064L300.392 258.118C300.392 261.085 301.473 261.672 307.456 261.672Z" fill="#535559"/>
<path d="M323.297 261.672C329.18 261.672 330.581 260.499 330.581 257.336L328.019 257.282C328.019 258.935 327.259 259.61 323.317 259.61C319.294 259.61 318.534 258.935 318.534 256.358V256.216C318.534 253.622 319.294 252.964 323.317 252.964C327.259 252.964 327.979 253.657 327.979 255.292V255.274L330.541 255.221C330.541 251.969 329.2 250.903 323.297 250.903C317.493 250.903 315.912 252.076 315.912 256.021V256.554C315.912 260.499 317.513 261.672 323.297 261.672Z" fill="#535559"/>
<path d="M339.871 261.672C345.835 261.672 347.356 260.499 347.356 256.554V256.021C347.356 252.076 345.835 250.903 339.871 250.903C333.927 250.903 332.407 252.076 332.407 256.021V256.554C332.407 260.499 333.927 261.672 339.871 261.672ZM339.871 259.61C335.789 259.61 335.028 258.935 335.028 256.358V256.216C335.028 253.622 335.789 252.964 339.871 252.964C343.974 252.964 344.714 253.622 344.714 256.216V256.358C344.714 258.935 343.974 259.61 339.871 259.61Z" fill="#535559"/>
<path d="M357.97 261.458C359.331 258.935 362.273 253.533 363.634 251.116H360.812L358.451 255.559C357.77 256.838 357.11 258.135 356.549 259.255H355.109C354.548 258.135 353.868 256.82 353.207 255.541L350.866 251.116H347.924C349.265 253.533 352.307 259.202 353.488 261.458H357.97Z" fill="#535559"/>
<path d="M371.708 261.672C377.692 261.672 378.872 260.641 378.872 258.029L376.331 257.958C376.331 259.166 375.81 259.735 371.728 259.735C367.846 259.735 366.965 259.131 366.845 256.963H378.872C378.872 256.696 378.892 256.376 378.872 256.021C378.852 252.076 377.431 250.903 371.588 250.903C365.764 250.903 364.203 252.076 364.203 256.021V256.554C364.203 260.499 365.764 261.672 371.708 261.672ZM371.608 252.68C375.37 252.68 376.111 253.302 376.171 255.31H366.845C367.005 253.231 367.926 252.68 371.608 252.68Z" fill="#535559"/>
<path d="M381.457 258.615C381.457 259.948 381.457 260.677 381.437 261.458H384.078C384.058 260.677 384.058 259.984 384.058 258.615V256.447C384.058 253.622 384.859 253 388.141 253C391.363 253 391.763 253.409 391.763 255.239V255.576L394.265 255.541C394.285 255.132 394.285 254.848 394.285 254.528C394.285 251.667 393.344 250.903 389.021 250.903C386.38 250.903 384.779 251.507 383.918 252.698L383.898 251.116H381.437C381.457 251.809 381.457 252.484 381.457 253.711V258.615Z" fill="#535559"/>
<path d="M412.391 261.565C413.871 258.971 416.953 253.533 418.394 251.116H415.593L413.191 255.292C412.631 256.287 412.07 257.3 411.57 258.224H410.469C409.849 257.282 409.129 256.27 408.448 255.257L405.606 251.116H402.665C404.406 253.551 407.368 257.904 408.868 260.179H410.429L410.129 260.659C409.469 261.761 409.009 261.992 407.788 261.992C407.027 261.992 406.327 261.974 405.506 261.938L405.466 263.893C406.287 263.964 407.287 264 407.868 264C410.289 264 411.33 263.413 412.391 261.565Z" fill="#535559"/>
<path d="M426.428 261.672C432.392 261.672 433.912 260.499 433.912 256.554V256.021C433.912 252.076 432.392 250.903 426.428 250.903C420.484 250.903 418.963 252.076 418.963 256.021V256.554C418.963 260.499 420.484 261.672 426.428 261.672ZM426.428 259.61C422.345 259.61 421.585 258.935 421.585 256.358V256.216C421.585 253.622 422.345 252.964 426.428 252.964C430.53 252.964 431.271 253.622 431.271 256.216V256.358C431.271 258.935 430.53 259.61 426.428 259.61Z" fill="#535559"/>
<path d="M436.43 255.026C436.43 256.198 436.41 256.678 436.41 257.478C436.41 260.446 437.391 261.672 442.454 261.672C445.376 261.672 447.077 261.05 447.977 259.841L448.017 261.458H450.459C450.439 260.748 450.439 260.09 450.439 258.864V253.959C450.439 252.609 450.439 251.898 450.459 251.116H447.837C447.857 251.898 447.857 252.591 447.857 253.959V256.305C447.857 258.828 447.017 259.575 443.435 259.575C439.692 259.575 439.012 258.793 439.012 256.536V253.924C439.012 252.484 439.012 251.951 439.032 251.116H436.41C436.43 251.987 436.43 252.733 436.43 253.924V255.026Z" fill="#535559"/>
<path d="M453.728 258.615C453.728 259.948 453.728 260.677 453.708 261.458H456.349C456.329 260.677 456.329 259.984 456.329 258.615V256.447C456.329 253.622 457.13 253 460.412 253C463.634 253 464.034 253.409 464.034 255.239V255.576L466.535 255.541C466.555 255.132 466.555 254.848 466.555 254.528C466.555 251.667 465.615 250.903 461.292 250.903C458.651 250.903 457.05 251.507 456.189 252.698L456.169 251.116H453.708C453.728 251.809 453.728 252.484 453.728 253.711V258.615Z" fill="#535559"/>
<path d="M476.496 258.473C476.496 259.77 476.496 260.641 476.476 261.458H479.118C479.098 260.641 479.098 259.77 479.098 258.491V251.134C479.098 249.872 479.098 248.913 479.118 248.166H476.476C476.496 248.93 476.496 249.872 476.496 251.116V258.473Z" fill="#535559"/>
<path d="M482.437 248.291V250.068H485.079V248.291H482.437ZM482.457 258.473C482.457 259.77 482.457 260.641 482.437 261.458H485.079C485.059 260.641 485.059 259.77 485.059 258.491V254.066C485.059 252.804 485.059 251.862 485.079 251.116H482.437C482.457 251.862 482.457 252.822 482.457 254.066V258.473Z" fill="#535559"/>
<path d="M488.378 258.615C488.378 259.948 488.378 260.677 488.358 261.458H490.999C490.979 260.677 490.979 259.984 490.979 258.615V256.27C490.979 253.728 491.8 253 494.701 253C497.283 253 497.983 253.551 497.983 255.381V258.669C497.983 260.001 497.984 260.57 497.964 261.458H500.585C500.565 260.374 500.565 259.575 500.565 258.615V256.27C500.565 253.728 501.446 253 504.307 253C506.889 253 507.589 253.551 507.589 255.381V258.651C507.589 260.001 507.589 260.57 507.569 261.458H510.211C510.191 260.392 510.191 259.593 510.191 258.651V257.691C510.191 256.092 510.211 255.239 510.211 254.439C510.211 251.898 509.23 250.903 505.308 250.903C502.726 250.903 501.225 251.543 500.425 252.804C499.945 251.454 498.664 250.903 495.782 250.903C493.221 250.903 491.68 251.507 490.839 252.769L490.819 251.116H488.358C488.378 251.809 488.378 252.484 488.378 253.711V258.615Z" fill="#535559"/>
<path d="M513.452 248.291V250.068H516.094V248.291H513.452ZM513.472 258.473C513.472 259.77 513.472 260.641 513.452 261.458H516.094C516.074 260.641 516.074 259.77 516.074 258.491V254.066C516.074 252.804 516.074 251.862 516.094 251.116H513.452C513.472 251.862 513.472 252.822 513.472 254.066V258.473Z" fill="#535559"/>
<path d="M520.133 254.883C520.133 255.914 520.113 256.945 520.113 257.762C520.113 260.801 521.254 261.547 526.177 261.547C526.997 261.547 527.778 261.512 528.518 261.458L528.498 259.45C527.698 259.504 527.277 259.521 526.397 259.521C523.415 259.521 522.735 259.255 522.735 257.211V253.124H528.498V251.116H522.735C522.735 250.228 522.735 249.552 522.755 249.09L520.113 249.126C520.133 249.926 520.133 250.494 520.133 251.116C519.493 251.116 518.772 251.116 518.032 251.116V253.124H520.133V254.883Z" fill="#535559"/>
<path d="M530.924 258.473C530.924 259.77 530.924 260.641 530.904 261.458H533.546C533.526 260.641 533.526 259.77 533.526 258.491V251.134C533.526 249.872 533.526 248.913 533.546 248.166H530.904C530.924 248.93 530.924 249.872 530.924 251.116V258.473Z" fill="#535559"/>
<path d="M543.649 261.672C549.633 261.672 550.813 260.641 550.813 258.029L548.272 257.958C548.272 259.166 547.751 259.735 543.669 259.735C539.787 259.735 538.906 259.131 538.786 256.963H550.813C550.813 256.696 550.833 256.376 550.813 256.021C550.793 252.076 549.372 250.903 543.529 250.903C537.705 250.903 536.144 252.076 536.144 256.021V256.554C536.144 260.499 537.705 261.672 543.649 261.672ZM543.549 252.68C547.311 252.68 548.052 253.302 548.112 255.31H538.786C538.946 253.231 539.867 252.68 543.549 252.68Z" fill="#535559"/>
<path d="M559.642 261.672C565.525 261.672 566.366 260.819 566.366 258.58C566.366 256.501 565.605 255.648 559.702 255.257C555.519 254.955 555.239 254.688 555.239 253.888C555.239 253.071 555.779 252.733 559.201 252.733C562.804 252.733 563.324 253.106 563.324 254.066V254.297L565.906 254.244C565.906 251.756 564.985 250.903 559.281 250.903C553.838 250.903 552.737 251.809 552.737 254.013C552.737 256.145 553.638 256.856 558.961 257.229C563.404 257.531 563.744 257.833 563.744 258.722C563.744 259.575 563.384 259.912 559.702 259.912C555.659 259.912 555.139 259.557 555.139 258.331V258.064L552.577 258.118C552.577 261.085 553.658 261.672 559.642 261.672Z" fill="#535559"/>
<path d="M575.042 261.672C580.925 261.672 581.766 260.819 581.766 258.58C581.766 256.501 581.005 255.648 575.102 255.257C570.919 254.955 570.639 254.688 570.639 253.888C570.639 253.071 571.179 252.733 574.601 252.733C578.204 252.733 578.724 253.106 578.724 254.066V254.297L581.306 254.244C581.306 251.756 580.385 250.903 574.681 250.903C569.238 250.903 568.137 251.809 568.137 254.013C568.137 256.145 569.038 256.856 574.361 257.229C578.804 257.531 579.144 257.833 579.144 258.722C579.144 259.575 578.784 259.912 575.102 259.912C571.059 259.912 570.539 259.557 570.539 258.331V258.064L567.977 258.118C567.977 261.085 569.058 261.672 575.042 261.672Z" fill="#535559"/>
<path d="M592.502 254.883C592.502 255.914 592.482 256.945 592.482 257.762C592.482 260.801 593.622 261.547 598.545 261.547C599.366 261.547 600.146 261.512 600.887 261.458L600.867 259.45C600.066 259.504 599.646 259.521 598.765 259.521C595.784 259.521 595.103 259.255 595.103 257.211V253.124H600.867V251.116H595.103C595.103 250.228 595.103 249.552 595.123 249.09L592.482 249.126C592.502 249.926 592.502 250.494 592.502 251.116C591.861 251.116 591.141 251.116 590.4 251.116V253.124H592.502V254.883Z" fill="#535559"/>
<path d="M603.253 258.615C603.253 259.948 603.253 260.677 603.233 261.458H605.874C605.854 260.677 605.854 259.984 605.854 258.615V256.447C605.854 253.622 606.655 253 609.937 253C613.159 253 613.559 253.409 613.559 255.239V255.576L616.06 255.541C616.08 255.132 616.08 254.848 616.08 254.528C616.08 251.667 615.14 250.903 610.817 250.903C608.176 250.903 606.575 251.507 605.714 252.698L605.694 251.116H603.233C603.253 251.809 603.253 252.484 603.253 253.711V258.615Z" fill="#535559"/>
<path d="M623.908 261.672C627.13 261.672 628.811 261.121 629.612 260.179L629.652 261.458H632.013C631.993 260.055 631.993 259.148 631.993 258.082C631.993 256.447 632.013 255.843 632.013 254.439C632.013 252.022 630.933 250.903 624.909 250.903C619.406 250.903 618.085 251.845 618.125 254.19L620.626 254.244C620.606 253.142 621.027 252.787 624.869 252.787C628.811 252.787 629.412 253.284 629.412 254.919V256.11C628.531 255.417 626.87 255.061 623.908 255.061C618.725 255.061 617.625 256.039 617.625 258.402C617.625 260.73 618.685 261.672 623.908 261.672ZM624.829 259.877C620.967 259.877 620.246 259.486 620.246 258.349C620.246 257.194 620.726 256.714 624.869 256.714C628.851 256.714 629.472 257.176 629.472 257.922V258.366C629.472 259.397 628.851 259.877 624.829 259.877Z" fill="#535559"/>
<path d="M641.968 261.672C647.852 261.672 649.252 260.499 649.252 257.336L646.691 257.282C646.691 258.935 645.93 259.61 641.988 259.61C637.965 259.61 637.205 258.935 637.205 256.358V256.216C637.205 253.622 637.965 252.964 641.988 252.964C645.93 252.964 646.651 253.657 646.651 255.292V255.274L649.212 255.221C649.212 251.969 647.872 250.903 641.968 250.903C636.164 250.903 634.583 252.076 634.583 256.021V256.554C634.583 260.499 636.184 261.672 641.968 261.672Z" fill="#535559"/>
<path d="M651.818 258.473C651.818 259.77 651.818 260.641 651.798 261.458H654.44C654.42 260.641 654.42 259.77 654.42 258.491V257.229H657.402C657.982 257.709 658.622 258.224 659.323 258.74L662.925 261.458H666.307L666.347 261.423C664.546 260.09 661.444 257.656 659.423 256.092C661.384 254.581 664.226 252.449 666.067 251.152L666.027 251.116H662.765L659.603 253.426C658.803 254.013 658.002 254.617 657.282 255.168H654.42V251.134C654.42 249.872 654.42 248.913 654.44 248.166H651.798C651.818 248.93 651.818 249.872 651.818 251.116V258.473Z" fill="#535559"/>
</g>
<defs>
<linearGradient id="paint0_linear_2206_33135" x1="1697.47" y1="256.782" x2="1809.99" y2="648.788" gradientUnits="userSpaceOnUse">
<stop offset="0.104167" stop-color="#E965FF"/>
<stop offset="0.489583" stop-color="#5200FF"/>
<stop offset="0.890625" stop-color="#43FF8E"/>
</linearGradient>
<linearGradient id="paint1_linear_2206_33135" x1="1694.61" y1="578.262" x2="1638.67" y2="476.077" gradientUnits="userSpaceOnUse">
<stop stop-color="#1E2025"/>
<stop offset="1" stop-color="#1E2025" stop-opacity="0"/>
</linearGradient>
<linearGradient id="paint2_linear_2206_33135" x1="1807.73" y1="332.958" x2="1863.67" y2="435.143" gradientUnits="userSpaceOnUse">
<stop stop-color="#2E3138"/>
<stop offset="1" stop-color="#1E2025" stop-opacity="0"/>
</linearGradient>
<linearGradient id="paint3_linear_2206_33135" x1="1738.55" y1="399.861" x2="1768.93" y2="505.702" gradientUnits="userSpaceOnUse">
<stop offset="0.31669" stop-color="#E965FF"/>
<stop offset="1" stop-color="#E965FF" stop-opacity="0"/>
</linearGradient>
<linearGradient id="paint4_linear_2206_33135" x1="1028.18" y1="393.807" x2="1349.93" y2="332.852" gradientUnits="userSpaceOnUse">
<stop offset="0.64073" stop-color="#5200FF"/>
<stop offset="1" stop-color="#43FF8E"/>
</linearGradient>
<linearGradient id="paint5_linear_2206_33135" x1="1312.78" y1="345.886" x2="482.391" y2="637.614" gradientUnits="userSpaceOnUse">
<stop stop-color="#43FF8E"/>
<stop offset="0.526042" stop-color="#5200FF"/>
</linearGradient>
<linearGradient id="paint6_linear_2206_33135" x1="539.93" y1="432.531" x2="1225.01" y2="270.21" gradientUnits="userSpaceOnUse">
<stop stop-color="#E965FF"/>
<stop offset="0.223958" stop-color="#5200FF"/>
</linearGradient>
<linearGradient id="paint7_linear_2206_33135" x1="1252.19" y1="260.928" x2="643.283" y2="474.844" gradientUnits="userSpaceOnUse">
<stop offset="0.520833" stop-color="#5200FF"/>
<stop offset="1" stop-color="#E965FF"/>
</linearGradient>
<linearGradient id="paint8_linear_2206_33135" x1="315.605" y1="475.578" x2="574.012" y2="722.134" gradientUnits="userSpaceOnUse">
<stop stop-color="#43FF8E"/>
<stop offset="0.364583" stop-color="#E965FF"/>
<stop offset="0.692708" stop-color="#5703FF"/>
</linearGradient>
<linearGradient id="paint9_linear_2206_33135" x1="253.989" y1="582.912" x2="565.436" y2="644.343" gradientUnits="userSpaceOnUse">
<stop stop-color="#0D0E11"/>
<stop offset="1" stop-color="#292B32"/>
</linearGradient>
<linearGradient id="paint10_linear_2206_33135" x1="521.992" y1="642.728" x2="292.236" y2="597.41" gradientUnits="userSpaceOnUse">
<stop stop-color="#0D0E11"/>
<stop offset="0.609375" stop-color="#292B32"/>
</linearGradient>
<linearGradient id="paint11_linear_2206_33135" x1="414.115" y1="581.234" x2="391.19" y2="697.416" gradientUnits="userSpaceOnUse">
<stop offset="0.078125" stop-color="#5200FF"/>
<stop offset="0.463542" stop-color="#0D0E11"/>
</linearGradient>
<linearGradient id="paint12_linear_2206_33135" x1="116.042" y1="474.138" x2="257.478" y2="530.82" gradientUnits="userSpaceOnUse">
<stop stop-color="#5200FF"/>
<stop offset="0.885209" stop-color="#E965FF"/>
</linearGradient>
<linearGradient id="paint13_linear_2206_33135" x1="248.159" y1="358.001" x2="-9.55211" y2="493.131" gradientUnits="userSpaceOnUse">
<stop stop-color="#43FF8E"/>
<stop offset="1" stop-color="#5200FF"/>
</linearGradient>
<linearGradient id="paint14_linear_2206_33135" x1="1357.97" y1="470.518" x2="1326.47" y2="422.03" gradientUnits="userSpaceOnUse">
<stop stop-color="#1E2025"/>
<stop offset="1" stop-color="#1E2025" stop-opacity="0"/>
</linearGradient>
<linearGradient id="paint15_linear_2206_33135" x1="1417.92" y1="340.002" x2="1449.43" y2="388.491" gradientUnits="userSpaceOnUse">
<stop stop-color="#2E3138"/>
<stop offset="1" stop-color="#1E2025" stop-opacity="0"/>
</linearGradient>
<linearGradient id="paint16_linear_2206_33135" x1="101.229" y1="0" x2="101.229" y2="202.458" gradientUnits="userSpaceOnUse">
<stop stop-color="#43FF8E"/>
<stop offset="0.489583" stop-color="#5200FF"/>
<stop offset="1" stop-color="#E965FF"/>
</linearGradient>
<linearGradient id="paint17_linear_2206_33135" x1="27.9252" y1="0" x2="27.9252" y2="55.8504" gradientUnits="userSpaceOnUse">
<stop stop-color="#43FF8E"/>
<stop offset="1" stop-color="#43FF8E" stop-opacity="0"/>
</linearGradient>
<clipPath id="clip0_2206_33135">
<rect width="1920" height="715" fill="white"/>
</clipPath>
</defs>
</svg>
