<svg width="24" height="24" viewBox="0 0 24 24" fill="none" xmlns="http://www.w3.org/2000/svg">
<circle cx="12" cy="12" r="12" transform="matrix(-1 0 0 1 24 0)" fill="#5200FF"/>
<path d="M9.428 15.5487C9.47 14.6667 9.834 14.2187 11.318 13.5887L14.356 12.2447C16.162 11.4887 16.694 10.9007 16.694 9.64066C16.694 7.87666 15.434 6.89666 12.41 7.00866C10.898 7.06466 9.96 7.10666 8.504 7.34466L8.238 8.50666C9.792 8.24066 10.94 8.11466 12.732 8.08666C14.678 8.07266 15.462 8.57666 15.462 9.48666C15.462 10.2847 15.182 10.6767 13.726 11.2787L10.772 12.5807C8.616 13.4907 8 14.2887 8 16.6127H16.764L17.156 15.5487H9.428Z" fill="white"/>
</svg>
