<svg width="482" height="20" viewBox="0 0 482 20" fill="none" xmlns="http://www.w3.org/2000/svg">
<path d="M12.4929 9.33782C13.1308 7.29517 13.7686 5.20763 14.3185 3.43434H15.0003C15.5282 5.20763 16.144 7.31762 16.7379 9.33782L18.9153 16.7901H23.5342C24.6559 13.5129 28.087 3.90572 29.2528 0.852974H26.1515L23.6222 8.52974C23.0063 10.505 22.3685 12.4579 21.8626 14.0067H20.8508C20.4109 12.4355 19.8391 10.4826 19.2672 8.50729L17.0018 0.852974H12.4269L10.0955 8.48485C9.50165 10.4602 8.9078 12.4355 8.44591 14.0067H7.50014C7.01626 12.4804 6.40042 10.5499 5.78457 8.61953L3.27719 0.852974H0C1.16571 3.90572 4.50888 13.5129 5.56462 16.7901H10.1835L12.4929 9.33782Z" fill="white"/>
<path d="M31.3316 13.0191C31.3316 14.7475 31.3316 15.6678 31.3096 16.7901H34.1909C34.1689 15.578 34.1689 14.6128 34.1689 12.9742V10.2357C34.1689 7.02581 35.0927 6.1055 39.0957 6.1055C43.2526 6.1055 44.0005 7.09315 44.0005 9.92144V13.2435C44.0005 14.8373 44.0005 15.6229 43.9785 16.7901H46.8597C46.8378 15.5107 46.8378 14.4557 46.8378 13.2884V11.8519C46.8378 10.3479 46.8597 9.74186 46.8597 8.75421C46.8597 5.00561 45.782 3.45679 40.1734 3.45679C36.9842 3.45679 35.1147 4.19753 34.1029 5.67901C34.1469 4.15264 34.2129 0.404041 34.2129 0H31.3096C31.3316 0.965207 31.3316 2.13243 31.3316 3.72615V13.0191Z" fill="white"/>
<path d="M56.7609 17.0595C60.302 17.0595 62.1496 16.3636 63.0294 15.174L63.0733 16.7901H65.6687C65.6467 15.0168 65.6467 13.8721 65.6467 12.5253C65.6467 10.4602 65.6687 9.69697 65.6687 7.92368C65.6687 4.87093 64.481 3.45679 57.8606 3.45679C51.8121 3.45679 50.3605 4.64646 50.4045 7.60943L53.1538 7.67677C53.1318 6.28507 53.5937 5.83614 57.8166 5.83614C62.1496 5.83614 62.8094 6.46465 62.8094 8.52974V10.0337C61.8416 9.15825 60.0161 8.70932 56.7609 8.70932C51.0643 8.70932 49.8546 9.94388 49.8546 12.9293C49.8546 15.8698 51.0203 17.0595 56.7609 17.0595ZM57.7727 14.7924C53.5277 14.7924 52.7359 14.2985 52.7359 12.862C52.7359 11.4029 53.2638 10.7969 57.8166 10.7969C62.1936 10.7969 62.8754 11.3805 62.8754 12.3232V12.8844C62.8754 14.1863 62.1936 14.7924 57.7727 14.7924Z" fill="white"/>
<path d="M70.0769 8.48485C70.0769 9.78676 70.0549 11.0887 70.0549 12.1212C70.0549 15.9596 71.3086 16.9024 76.7192 16.9024C77.621 16.9024 78.4788 16.8575 79.2926 16.7901L79.2706 14.2536C78.3908 14.321 77.9289 14.3434 76.9612 14.3434C73.684 14.3434 72.9362 14.0067 72.9362 11.4254V6.26263H79.2706V3.72615H72.9362C72.9362 2.60381 72.9362 1.75084 72.9582 1.16723L70.0549 1.21212C70.0769 2.22222 70.0769 2.94051 70.0769 3.72615C69.3731 3.72615 68.5813 3.72615 67.7675 3.72615V6.26263H70.0769V8.48485Z" fill="white"/>
<path d="M96.8915 17.0595C100.213 17.0595 102.104 16.2738 103.116 14.7475L103.138 16.7901H105.843C105.821 15.6902 105.821 14.927 105.821 13.1987V3.72615C105.821 2.10999 105.821 0.942761 105.843 0H102.896C102.918 0.920314 102.94 3.25477 102.94 5.54433C101.906 4.15264 100.059 3.45679 96.9575 3.45679C91.041 3.45679 89.4354 4.89338 89.4354 9.92144V10.5948C89.4354 15.6229 91.041 17.0595 96.8915 17.0595ZM97.6833 14.4108C93.1964 14.4108 92.3167 13.6027 92.3167 10.3479V10.1684C92.3167 6.86869 93.1964 6.06061 97.7493 6.06061C102.082 6.06061 102.962 6.95847 102.962 10.1684V10.3479C102.962 13.4905 102.082 14.4108 97.6833 14.4108Z" fill="white"/>
<path d="M116.863 17.0595C123.417 17.0595 125.089 15.578 125.089 10.5948V9.92144C125.089 4.93827 123.417 3.45679 116.863 3.45679C110.331 3.45679 108.659 4.93827 108.659 9.92144V10.5948C108.659 15.578 110.331 17.0595 116.863 17.0595ZM116.863 14.4557C112.376 14.4557 111.54 13.6027 111.54 10.3479V10.1684C111.54 6.89113 112.376 6.06061 116.863 6.06061C121.372 6.06061 122.186 6.89113 122.186 10.1684V10.3479C122.186 13.6027 121.372 14.4557 116.863 14.4557Z" fill="white"/>
<path d="M145.253 16.9248C146.88 13.6476 150.267 6.7789 151.851 3.72615H148.772L146.132 9.00112C145.516 10.2581 144.901 11.5376 144.351 12.7048H143.141C142.459 11.5152 141.667 10.2357 140.92 8.95623L137.796 3.72615H134.563C136.477 6.80135 139.732 12.3008 141.382 15.174H143.097L142.767 15.78C142.041 17.1717 141.535 17.4635 140.194 17.4635C139.358 17.4635 138.588 17.4411 137.686 17.3962L137.642 19.8653C138.544 19.9551 139.644 20 140.282 20C142.943 20 144.087 19.2593 145.253 16.9248Z" fill="white"/>
<path d="M160.68 17.0595C167.235 17.0595 168.906 15.578 168.906 10.5948V9.92144C168.906 4.93827 167.235 3.45679 160.68 3.45679C154.148 3.45679 152.476 4.93827 152.476 9.92144V10.5948C152.476 15.578 154.148 17.0595 160.68 17.0595ZM160.68 14.4557C156.193 14.4557 155.358 13.6027 155.358 10.3479V10.1684C155.358 6.89113 156.193 6.06061 160.68 6.06061C165.189 6.06061 166.003 6.89113 166.003 10.1684V10.3479C166.003 13.6027 165.189 14.4557 160.68 14.4557Z" fill="white"/>
<path d="M171.674 8.66442C171.674 10.1459 171.652 10.752 171.652 11.7621C171.652 15.5107 172.729 17.0595 178.294 17.0595C181.505 17.0595 183.375 16.2738 184.365 14.7475L184.409 16.7901H187.092C187.07 15.8923 187.07 15.0617 187.07 13.5129V7.31762C187.07 5.61167 187.07 4.7138 187.092 3.72615H184.211C184.233 4.7138 184.233 5.58923 184.233 7.31762V10.2806C184.233 13.468 183.309 14.4108 179.372 14.4108C175.259 14.4108 174.511 13.4231 174.511 10.5724V7.27273C174.511 5.45455 174.511 4.78114 174.533 3.72615H171.652C171.674 4.82604 171.674 5.7688 171.674 7.27273V8.66442Z" fill="white"/>
<path d="M198.997 13.1987C198.997 14.8822 198.997 15.8025 198.975 16.7901H201.878C201.856 15.8025 201.856 14.927 201.856 13.1987V10.2357C201.856 7.02581 202.758 6.1055 205.947 6.1055C208.784 6.1055 209.554 6.80135 209.554 9.11336V13.266C209.554 14.9495 209.554 15.6678 209.532 16.7901H212.413C212.391 15.4209 212.391 14.4108 212.391 13.1987V10.2357C212.391 7.02581 213.359 6.1055 216.504 6.1055C219.342 6.1055 220.111 6.80135 220.111 9.11336V13.2435C220.111 14.9495 220.111 15.6678 220.089 16.7901H222.993C222.971 15.4433 222.971 14.4332 222.971 13.2435V12.0314C222.971 10.0112 222.993 8.93378 222.993 7.92368C222.993 4.7138 221.915 3.45679 217.604 3.45679C214.767 3.45679 213.117 4.26487 212.237 5.85858C211.709 4.15264 210.302 3.45679 207.135 3.45679C204.319 3.45679 202.626 4.21998 201.702 5.81369L201.68 3.72615H198.975C198.997 4.60157 198.997 5.45455 198.997 7.00337V13.1987Z" fill="white"/>
<path d="M232.889 17.0595C236.43 17.0595 238.278 16.3636 239.158 15.174L239.202 16.7901H241.797C241.775 15.0168 241.775 13.8721 241.775 12.5253C241.775 10.4602 241.797 9.69697 241.797 7.92368C241.797 4.87093 240.609 3.45679 233.989 3.45679C227.94 3.45679 226.489 4.64646 226.533 7.60943L229.282 7.67677C229.26 6.28507 229.722 5.83614 233.945 5.83614C238.278 5.83614 238.938 6.46465 238.938 8.52974V10.0337C237.97 9.15825 236.144 8.70932 232.889 8.70932C227.193 8.70932 225.983 9.94388 225.983 12.9293C225.983 15.8698 227.149 17.0595 232.889 17.0595ZM233.901 14.7924C229.656 14.7924 228.864 14.2985 228.864 12.862C228.864 11.4029 229.392 10.7969 233.945 10.7969C238.322 10.7969 239.004 11.3805 239.004 12.3232V12.8844C239.004 14.1863 238.322 14.7924 233.901 14.7924Z" fill="white"/>
<path d="M245.413 0.157126V2.40179H248.317V0.157126H245.413ZM245.435 13.0191C245.435 14.6577 245.435 15.7576 245.413 16.7901H248.317C248.295 15.7576 248.295 14.6577 248.295 13.0415V7.4523C248.295 5.85858 248.295 4.66891 248.317 3.72615H245.413C245.435 4.66891 245.435 5.88103 245.435 7.4523V13.0191Z" fill="white"/>
<path d="M251.942 13.1987C251.942 14.8822 251.942 15.8025 251.92 16.7901H254.824C254.802 15.8025 254.802 14.927 254.802 13.1987V10.2357C254.802 7.02581 255.726 6.1055 259.729 6.1055C263.864 6.1055 264.611 7.09315 264.611 9.92144V13.2435C264.611 15.0617 264.611 15.7351 264.589 16.7901H267.493C267.471 15.6902 267.471 14.7475 267.471 13.2435V11.8519C267.471 10.3479 267.493 9.74186 267.493 8.75421C267.493 5.00561 266.415 3.45679 260.806 3.45679C257.529 3.45679 255.66 4.24242 254.648 5.7688L254.626 3.72615H251.92C251.942 4.60157 251.942 5.45455 251.942 7.00337V13.1987Z" fill="white"/>
<path d="M271.081 13.0191C271.081 14.6577 271.081 15.7576 271.059 16.7901H273.963C273.941 15.7576 273.941 14.6577 273.941 13.0415V3.7486C273.941 2.15488 273.941 0.942761 273.963 0H271.059C271.081 0.965207 271.081 2.15488 271.081 3.72615V13.0191Z" fill="white"/>
<path d="M286.606 16.9248C288.234 13.6476 291.621 6.7789 293.205 3.72615H290.125L287.486 9.00112C286.87 10.2581 286.254 11.5376 285.704 12.7048H284.495C283.813 11.5152 283.021 10.2357 282.273 8.95623L279.15 3.72615H275.917C277.83 6.80135 281.086 12.3008 282.735 15.174H284.451L284.121 15.78C283.395 17.1717 282.889 17.4635 281.547 17.4635C280.712 17.4635 279.942 17.4411 279.04 17.3962L278.996 19.8653C279.898 19.9551 280.998 20 281.635 20C284.297 20 285.441 19.2593 286.606 16.9248Z" fill="white"/>
<path d="M313.061 10.7969C313.545 9.42761 314.051 8.03591 314.535 6.75645H315.238C315.656 8.05836 316.118 9.49495 316.536 10.8418L318.494 16.7901H322.958C324.124 13.6027 326.698 6.7789 327.951 3.72615H324.894L322.936 9.36027C322.387 10.9315 321.837 12.5477 321.331 14.0067H320.407C319.967 12.6599 319.483 11.1336 318.999 9.65208L317.02 3.72615H312.863L310.795 9.60718C310.268 11.0887 309.718 12.615 309.256 14.0067H308.288C307.848 12.5926 307.342 10.9989 306.858 9.4725L304.989 3.72615H301.778C302.921 6.73401 305.319 13.6027 306.375 16.7901H310.839L313.061 10.7969Z" fill="white"/>
<path d="M336.01 17.0595C339.551 17.0595 341.399 16.3636 342.279 15.174L342.323 16.7901H344.918C344.896 15.0168 344.896 13.8721 344.896 12.5253C344.896 10.4602 344.918 9.69697 344.918 7.92368C344.918 4.87093 343.73 3.45679 337.11 3.45679C331.061 3.45679 329.61 4.64646 329.654 7.60943L332.403 7.67677C332.381 6.28507 332.843 5.83614 337.066 5.83614C341.399 5.83614 342.059 6.46465 342.059 8.52974V10.0337C341.091 9.15825 339.265 8.70932 336.01 8.70932C330.314 8.70932 329.104 9.94388 329.104 12.9293C329.104 15.8698 330.27 17.0595 336.01 17.0595ZM337.022 14.7924C332.777 14.7924 331.985 14.2985 331.985 12.862C331.985 11.4029 332.513 10.7969 337.066 10.7969C341.443 10.7969 342.125 11.3805 342.125 12.3232V12.8844C342.125 14.1863 341.443 14.7924 337.022 14.7924Z" fill="white"/>
<path d="M348.512 13.1987C348.512 14.8822 348.512 15.8025 348.49 16.7901H351.394C351.372 15.8025 351.372 14.927 351.372 13.1987V10.2357C351.372 7.02581 352.295 6.1055 356.298 6.1055C360.433 6.1055 361.181 7.09315 361.181 9.92144V13.2435C361.181 15.0617 361.181 15.7351 361.159 16.7901H364.062C364.04 15.6902 364.04 14.7475 364.04 13.2435V11.8519C364.04 10.3479 364.062 9.74186 364.062 8.75421C364.062 5.00561 362.985 3.45679 357.376 3.45679C354.099 3.45679 352.229 4.24242 351.218 5.7688L351.196 3.72615H348.49C348.512 4.60157 348.512 5.45455 348.512 7.00337V13.1987Z" fill="white"/>
<path d="M368.421 8.48485C368.421 9.78676 368.399 11.0887 368.399 12.1212C368.399 15.9596 369.653 16.9024 375.063 16.9024C375.965 16.9024 376.823 16.8575 377.637 16.7901L377.615 14.2536C376.735 14.321 376.273 14.3434 375.305 14.3434C372.028 14.3434 371.28 14.0067 371.28 11.4254V6.26263H377.615V3.72615H371.28C371.28 2.60381 371.28 1.75084 371.302 1.16723L368.399 1.21212C368.421 2.22222 368.421 2.94051 368.421 3.72615C367.717 3.72615 366.925 3.72615 366.112 3.72615V6.26263H368.421V8.48485Z" fill="white"/>
<path d="M389.363 8.48485C389.363 9.78676 389.341 11.0887 389.341 12.1212C389.341 15.9596 390.595 16.9024 396.005 16.9024C396.907 16.9024 397.765 16.8575 398.579 16.7901L398.557 14.2536C397.677 14.321 397.215 14.3434 396.247 14.3434C392.97 14.3434 392.222 14.0067 392.222 11.4254V6.26263H398.557V3.72615H392.222C392.222 2.60381 392.222 1.75084 392.244 1.16723L389.341 1.21212C389.363 2.22222 389.363 2.94051 389.363 3.72615C388.659 3.72615 387.867 3.72615 387.054 3.72615V6.26263H389.363V8.48485Z" fill="white"/>
<path d="M408.613 17.0595C415.167 17.0595 416.839 15.578 416.839 10.5948V9.92144C416.839 4.93827 415.167 3.45679 408.613 3.45679C402.081 3.45679 400.409 4.93827 400.409 9.92144V10.5948C400.409 15.578 402.081 17.0595 408.613 17.0595ZM408.613 14.4557C404.126 14.4557 403.29 13.6027 403.29 10.3479V10.1684C403.29 6.89113 404.126 6.06061 408.613 6.06061C413.122 6.06061 413.936 6.89113 413.936 10.1684V10.3479C413.936 13.6027 413.122 14.4557 408.613 14.4557Z" fill="white"/>
<path d="M434.671 17.0595C437.992 17.0595 439.884 16.2738 440.896 14.7475L440.918 16.7901H443.623C443.601 15.6902 443.601 14.927 443.601 13.1987V3.72615C443.601 2.10999 443.601 0.942761 443.623 0H440.676C440.698 0.920314 440.72 3.25477 440.72 5.54433C439.686 4.15264 437.838 3.45679 434.737 3.45679C428.821 3.45679 427.215 4.89338 427.215 9.92144V10.5948C427.215 15.6229 428.821 17.0595 434.671 17.0595ZM435.463 14.4108C430.976 14.4108 430.096 13.6027 430.096 10.3479V10.1684C430.096 6.86869 430.976 6.06061 435.529 6.06061C439.862 6.06061 440.742 6.95847 440.742 10.1684V10.3479C440.742 13.4905 439.862 14.4108 435.463 14.4108Z" fill="white"/>
<path d="M454.643 17.0595C461.197 17.0595 462.869 15.578 462.869 10.5948V9.92144C462.869 4.93827 461.197 3.45679 454.643 3.45679C448.11 3.45679 446.439 4.93827 446.439 9.92144V10.5948C446.439 15.578 448.11 17.0595 454.643 17.0595ZM454.643 14.4557C450.156 14.4557 449.32 13.6027 449.32 10.3479V10.1684C449.32 6.89113 450.156 6.06061 454.643 6.06061C459.152 6.06061 459.965 6.89113 459.965 10.1684V10.3479C459.965 13.6027 459.152 14.4557 454.643 14.4557Z" fill="white"/>
<path d="M473.862 12.211C480.372 12.211 482 10.7744 482 6.59933V6.15039C482 1.97531 480.35 0.53872 473.51 0.53872C466.406 0.53872 464.91 1.88552 464.91 5.90348L467.792 5.97082C467.748 3.97306 468.539 3.12009 473.51 3.12009C478.239 3.12009 479.075 3.92817 479.075 6.37486C479.075 8.844 478.239 9.62963 473.818 9.62963C473.136 9.62963 472.498 9.62963 471.663 9.60718L471.619 12.1886C472.366 12.211 473.114 12.211 473.862 12.211ZM471.663 13.5129V16.7901H475.028V13.5129H471.663Z" fill="white"/>
</svg>
