<svg width="195" height="52" viewBox="0 0 195 52" fill="none" xmlns="http://www.w3.org/2000/svg">
<rect width="195" height="52" rx="26" fill="#5200FF"/>
<path d="M51.6088 33.7006C58.9788 33.7006 60.1668 32.4686 60.7828 29.0806C61.2668 26.0446 60.2328 24.6366 52.9508 24.1306C47.1648 23.7566 46.7028 23.2726 46.9448 21.8426C47.1648 20.5006 47.9788 19.9506 52.7528 19.9506C57.9448 19.9506 58.6928 20.4346 58.4068 21.9306L58.3408 22.3706L61.2228 22.3046L61.2668 21.9966C61.8608 18.7406 60.6508 17.4646 53.0168 17.4646C45.8448 17.4646 44.5028 18.8066 43.9308 22.0406C43.3808 25.1866 44.3708 26.2426 51.7408 26.7706C57.4608 27.2106 58.0548 27.7386 57.8128 29.1686V29.1906C57.5488 30.6866 56.8888 31.1926 51.8068 31.1926C46.0208 31.1926 45.1408 30.8186 45.4488 29.0366L45.5368 28.5306L42.6548 28.5966L42.5888 28.9486C41.9068 32.7546 43.5128 33.7006 51.6088 33.7006ZM65.882 17.0906L65.486 19.2906H68.39L68.764 17.0906H65.882ZM63.682 29.6966C63.396 31.3026 63.22 32.3806 63 33.3926H65.904C66.058 32.3806 66.256 31.3026 66.52 29.7186L67.488 24.2406C67.752 22.6786 67.972 21.5126 68.148 20.5886H65.266C65.134 21.5126 64.914 22.7006 64.65 24.2406L63.682 29.6966ZM76.9227 31.9626C79.9807 31.9626 81.8727 31.2586 83.0607 29.9826L82.8187 31.3906C82.4227 33.4366 81.4987 34.3386 76.5707 34.3386C72.4347 34.3386 71.8627 33.8106 72.0607 32.6666L69.3327 32.7546C68.7827 35.8126 70.1907 36.7366 76.4387 36.7366C83.2587 36.7366 84.9087 35.4606 85.5467 31.8306C85.8547 30.1146 86.0747 28.8386 86.4267 26.7926L86.9987 23.4926C87.1967 22.3486 87.3507 21.4466 87.5267 20.5886H84.8427L84.4687 22.5466C83.6547 21.1166 81.8067 20.3246 78.4847 20.3246C72.9407 20.3246 71.0047 21.4026 70.1467 26.0446L70.1247 26.2206C69.3107 30.8186 71.4447 31.9626 76.9227 31.9626ZM77.8247 29.4766C73.3807 29.4766 72.5887 28.6626 73.0067 26.2206L73.0507 26.0666C73.4907 23.6466 74.7227 22.8106 78.9687 22.8106C83.3687 22.8106 84.1387 23.6466 83.6987 26.0446V26.0886C83.2587 28.5306 82.1147 29.4766 77.8247 29.4766ZM89.5952 29.8726C89.3092 31.5226 89.1552 32.4246 88.9572 33.3926H91.8612C91.9932 32.4246 92.1472 31.5666 92.4552 29.8726L92.9612 26.9686C93.5332 23.8226 94.6112 22.9206 98.6152 22.9206C102.773 22.9206 103.323 23.8886 102.861 26.6606L102.267 29.9166C101.959 31.6986 101.849 32.3586 101.629 33.3926H104.533C104.687 32.3146 104.841 31.3906 105.127 29.9166L105.369 28.5526C105.611 27.0786 105.743 26.4846 105.919 25.5166C106.557 21.8426 105.369 20.3246 99.7812 20.3246C96.7452 20.3246 94.8312 21.0726 93.5992 22.5466L93.9072 20.5886H91.2232C91.0912 21.4466 90.9372 22.2826 90.6732 23.8006L89.5952 29.8726ZM117.955 25.4286C117.691 26.8806 117.581 27.4746 117.405 28.4646C116.745 32.1386 117.933 33.6566 123.499 33.6566C126.447 33.6566 128.361 32.8866 129.593 31.4126L129.285 33.3926H131.969C132.101 32.5126 132.255 31.6986 132.519 30.1806L133.597 24.1086C133.883 22.4366 134.037 21.5566 134.235 20.5886H131.331C131.199 21.5566 131.045 22.4146 130.737 24.1086L130.231 27.0126C129.681 30.1366 128.581 31.0606 124.665 31.0606C120.551 31.0606 119.979 30.0926 120.463 27.2986L121.035 24.0646C121.343 22.2826 121.453 21.6226 121.673 20.5886H118.769C118.615 21.6666 118.461 22.5906 118.197 24.0646L117.955 25.4286ZM135.672 33.3926C135.43 34.7126 135.232 35.8126 135.1 36.4726H138.026C138.158 35.5486 138.466 33.7666 138.885 31.5006C139.699 32.9306 141.525 33.6566 144.693 33.6566C150.633 33.6566 152.261 32.2486 153.141 27.3206L153.251 26.6606C154.087 21.7766 152.481 20.3246 146.651 20.3246C143.505 20.3246 141.569 21.0506 140.336 22.4806L140.667 20.5886H137.917C137.762 21.5126 137.608 22.3266 137.432 23.3826L135.672 33.3926ZM139.633 27.0786L139.676 26.9026C140.205 23.8226 141.261 22.9206 145.682 22.9206C150.127 22.9206 150.875 23.7126 150.325 26.9026L150.281 27.0786C149.709 30.2466 148.697 31.0606 144.142 31.0606C139.831 31.0606 139.083 30.1806 139.633 27.0786Z" fill="white"/>
</svg>
