<svg width="225" height="20" viewBox="0 0 225 20" fill="none" xmlns="http://www.w3.org/2000/svg">
<g clip-path="url(#clip0_1694_969)">
<path d="M24.9317 19.5581C29.6875 12.022 9.12739 6.57257 0 6.25957L1.22951 0.384766H38.3709L37.056 6.25957H21.6615C35.3313 9.97546 33.8456 17.335 33.3675 19.5581H24.9317Z" fill="#5200FF"/>
<path d="M39.1563 15.2403C38.8063 17.0461 38.5757 18.4024 38.311 19.5581H45.8418C46.0467 18.3703 46.3114 17.022 46.6273 15.2403L46.6871 14.8631H60.5703C62.6109 14.9755 65.1724 15.6817 66.7861 17.2788C67.2472 17.7202 67.8875 18.4104 67.8534 19.5581H75.4097C75.367 17.9771 74.8804 16.7812 73.7192 15.465C72.9849 14.7507 72.686 14.3976 71.0211 13.5469C74.3766 12.7122 76.7246 10.9466 77.3394 7.64801C78.3298 2.46342 75.1792 0.384766 67.7339 0.384766H41.9569C41.8117 1.3318 41.6068 2.32698 41.3763 3.62714L39.1563 15.2403ZM66.9227 5.67369C69.8428 5.67369 70.5686 6.26759 70.3124 7.64801C70.0477 9.02843 69.0829 9.67048 66.1714 9.67048H47.6946L48.4801 5.67369H66.9313H66.9227Z" fill="#5200FF"/>
<path d="M87.406 2.64801C84.2724 7.80852 79.4654 16.4121 77.3394 19.5581H85.1945L86.6802 17.0461H107.189L107.77 19.5581H114.925C114.062 16.6287 111.936 8.95619 110.519 3.75555C109.981 1.77321 108.077 0.384766 105.9 0.384766H91.5555C89.8394 0.384766 88.2598 1.25154 87.406 2.64801ZM89.771 11.8856C90.7615 10.2082 91.2994 8.49071 92.102 6.85347C92.3581 6.33982 92.8961 6.00274 93.5023 6.00274H103.458C104.192 6.00274 104.824 6.49231 104.961 7.17449C105.294 8.7716 105.661 10.4249 106.036 12.03H89.6771L89.7625 11.8936L89.771 11.8856Z" fill="#5200FF"/>
<path d="M137.15 19.9357C148.386 19.9357 152.152 18.2102 153.347 11.4285L146.431 11.3242C146.047 13.3788 144.006 14.3499 137.79 14.3499C131.574 14.3499 123.13 14.4382 123.796 10.8988V9.04489C124.496 5.48149 131.865 5.59385 137.79 5.59385C144.091 5.59385 147.31 6.4847 146.901 8.61953L153.851 8.5152C155.02 2.19096 149.795 -5.16768e-05 138.55 -5.16768e-05C127.305 -5.16768e-05 118.306 -0.610004 116.735 9.53446V10.8908C117.563 20.9229 125.939 19.9277 137.15 19.9277V19.9357Z" fill="#5200FF"/>
<path d="M193.825 7.83789L192.939 12.48H203.663L204.549 7.83789H193.825Z" fill="#5200FF"/>
<path d="M181.89 9.66265C188.115 8.87613 191.069 4.16505 192.375 0.561523H184.025C180.097 6.86168 177.117 7.84082 164.985 7.84082L165.83 3.8039C166.095 2.45558 166.265 1.56473 166.47 0.561523H159.46C159.315 1.53263 159.11 2.50374 158.88 3.8039L156.66 15.4171C156.31 17.2228 156.079 18.5471 155.814 19.7349H162.816C163.021 18.523 163.285 17.1988 163.601 15.4171L164.156 12.5519H174.035C179.815 12.5519 182.437 16.4443 179.423 19.7349H187.389C188.84 17.9933 190.138 12.592 181.882 9.66265H181.89Z" fill="#5200FF"/>
<path d="M224.189 0.561523H217.435C217.435 0.561523 215.437 5.6177 209.503 5.20839L208.632 10.1522C208.632 10.1522 213.687 11.2678 217.06 8.19395C217.077 8.1779 217.111 8.16184 217.136 8.15382L215.224 15.7461C214.874 17.5519 214.558 18.5471 214.293 19.7349H221.271C221.476 18.523 221.397 18.8761 221.721 17.0944L222.377 13.8119L223.566 8.09764L224.42 4.03664C224.684 2.68833 224.795 1.56473 225 0.569549H224.189V0.561523Z" fill="#5200FF"/>
</g>
<defs>
<clipPath id="clip0_1694_969">
<rect width="225" height="20" fill="white"/>
</clipPath>
</defs>
</svg>
