<svg width="246" height="53" viewBox="0 0 246 53" fill="none" xmlns="http://www.w3.org/2000/svg">
<rect y="0.5" width="246" height="52" rx="25.5188" fill="#535559"/>
<path d="M88.8958 36.3638C97.6058 36.3638 99.0098 34.9078 99.7378 30.9038C100.31 27.3158 99.0878 25.6518 90.4818 25.0538C83.6438 24.6118 83.0978 24.0398 83.3838 22.3498C83.6438 20.7638 84.6058 20.1138 90.2478 20.1138C96.3838 20.1138 97.2678 20.6858 96.9298 22.4538L96.8518 22.9738L100.258 22.8958L100.31 22.5318C101.012 18.6838 99.5818 17.1758 90.5598 17.1758C82.0838 17.1758 80.4978 18.7618 79.8218 22.5838C79.1718 26.3018 80.3418 27.5498 89.0518 28.1738C95.8118 28.6938 96.5138 29.3178 96.2278 31.0078V31.0338C95.9158 32.8018 95.1358 33.3998 89.1298 33.3998C82.2918 33.3998 81.2518 32.9578 81.6158 30.8518L81.7198 30.2538L78.3138 30.3318L78.2358 30.7478C77.4298 35.2458 79.3278 36.3638 88.8958 36.3638Z" fill="white"/>
<path d="M109.716 36.3118C113.876 36.3118 116.19 35.5058 117.464 34.1278L117.178 35.9998H120.246C120.584 33.9458 120.818 32.6198 121.104 31.0598C121.52 28.6678 121.702 27.7838 122.066 25.7298C122.69 22.1938 121.26 20.5558 113.434 20.5558C106.284 20.5558 104.62 21.9338 104.074 25.3658L107.324 25.4438C107.584 23.8318 108.208 23.3118 113.2 23.3118C118.322 23.3118 118.972 24.0398 118.556 26.4318L118.244 28.1998C117.282 27.1858 115.202 26.6398 111.328 26.6398C104.594 26.6398 102.956 28.0698 102.332 31.5278C101.76 34.9338 102.93 36.3118 109.716 36.3118ZM111.328 33.6858C106.31 33.6858 105.478 33.1138 105.764 31.4498C106.05 29.7598 106.804 29.0578 112.186 29.0578C117.36 29.0578 118.062 29.7338 117.854 30.8258L117.75 31.4758C117.49 32.9838 116.528 33.6858 111.328 33.6858Z" fill="white"/>
<path d="M134.962 35.9998C137.38 32.3078 142.58 24.4038 144.972 20.8678H141.098L136.886 27.3678C135.664 29.2398 134.468 31.1378 133.454 32.7758H131.608C131.166 31.1378 130.62 29.2138 130.074 27.3418L128.176 20.8678H124.588C125.706 24.4038 128.176 32.6978 129.138 35.9998H134.962Z" fill="white"/>
<path d="M153.122 36.3118C160.922 36.3118 162.352 34.8038 163.028 30.9818L159.7 30.8778C159.388 32.6458 158.608 33.4778 153.278 33.4778C148.26 33.4778 147.272 32.5938 147.662 29.4218H163.288C163.366 29.0318 163.47 28.5638 163.548 28.0438C164.432 22.4538 162.664 20.5558 155.098 20.5558C147.506 20.5558 145.478 22.2718 144.464 28.0438L144.334 28.8238C143.346 34.4138 145.4 36.3118 153.122 36.3118ZM154.942 23.1558C159.856 23.1558 160.636 24.0658 160.22 27.0038H148.104C148.832 23.9618 150.158 23.1558 154.942 23.1558Z" fill="white"/>
</svg>
