<svg width="79" height="18" viewBox="0 0 79 18" fill="none" xmlns="http://www.w3.org/2000/svg">
<g id="Frame 957">
<g id="Vocal">
<path d="M6.65966 12.8813C7.77693 11.1998 11.2119 6.08396 12.3411 4.47344H10.9623L8.15727 8.67738C7.44413 9.74317 6.71909 10.8445 6.16046 11.6971H5.15017C4.90057 10.8445 4.57965 9.76686 4.25874 8.68923L2.99884 4.47344H1.69141C2.21438 6.08396 3.79519 11.2116 4.29439 12.8813H6.65966Z" fill="#E965FF"/>
<path d="M15.1658 13.0234C18.6008 13.0234 19.5041 12.2419 19.9677 9.62475L20.0271 9.26949C20.4906 6.65238 19.5873 5.87081 16.1523 5.87081C12.7173 5.87081 11.814 6.65238 11.3505 9.26949L11.291 9.62475C10.8275 12.2419 11.7308 13.0234 15.1658 13.0234ZM15.2133 11.9221C12.5985 11.9221 12.1825 11.4248 12.5153 9.50633L12.539 9.38791C12.8837 7.46949 13.478 6.97212 16.0929 6.97212C18.7078 6.97212 19.1357 7.46949 18.791 9.38791L18.7672 9.50633C18.4344 11.4248 17.8282 11.9221 15.2133 11.9221Z" fill="#E965FF"/>
<path d="M25.0662 13.0234C28.4536 13.0234 29.2262 12.2537 29.5947 10.2169L28.418 10.1813C28.204 11.4129 27.6098 11.9221 25.09 11.9221C22.5226 11.9221 22.1066 11.4248 22.4394 9.50633L22.4632 9.38791C22.8079 7.46949 23.4022 6.97212 25.9695 6.97212C28.4893 6.97212 28.8696 7.50502 28.6557 8.71291L29.8443 8.67738C30.2127 6.58133 29.4045 5.87081 26.0052 5.87081C22.6653 5.87081 21.7382 6.65238 21.2746 9.26949L21.2152 9.62475C20.7517 12.2419 21.7382 13.0234 25.0662 13.0234Z" fill="#E965FF"/>
<path d="M34.2593 13.0234C36.1016 13.0234 37.2188 12.6563 37.8369 12.0761L37.7062 12.8813H38.7759C38.9304 11.9458 39.0374 11.3419 39.1681 10.6313C39.3345 9.6366 39.4296 9.1866 39.596 8.25107C39.8813 6.6287 39.287 5.87081 35.7688 5.87081C32.5715 5.87081 31.8465 6.54581 31.6206 7.9787L32.8211 8.01423C32.9519 7.19712 33.2847 6.92475 35.7094 6.92475C38.2173 6.92475 38.5619 7.29186 38.3599 8.47607L38.2054 9.31686C37.7299 8.8787 36.7553 8.61817 35.0438 8.61817C31.9178 8.61817 31.1214 9.26949 30.8362 10.8445C30.5747 12.384 31.0977 13.0234 34.2593 13.0234ZM34.7823 11.9932C32.3576 11.9932 31.9178 11.6971 32.0604 10.8445C32.2149 9.96817 32.6072 9.60107 35.2102 9.60107C37.7656 9.60107 38.1222 9.95633 38.0271 10.4892L37.9558 10.8563C37.825 11.6261 37.3377 11.9932 34.7823 11.9932Z" fill="#E965FF"/>
<path d="M41.2548 11.0221C41.1122 11.8155 41.0171 12.3603 40.9101 12.8813H42.1225C42.2057 12.3603 42.3008 11.8155 42.4434 11.034L43.3229 6.02475C43.4775 5.17212 43.5844 4.53265 43.6914 4.02344H42.4791C42.3959 4.53265 42.2889 5.17212 42.1344 6.01291L41.2548 11.0221Z" fill="#E965FF"/>
</g>
</g>
</svg>
