<svg width="1882" height="33" viewBox="0 0 1882 33" fill="none" xmlns="http://www.w3.org/2000/svg">
<path d="M5.82 21.4L6.24 19.02C10.195 19.055 16.285 19.055 19.365 19.055C27.94 19.055 30.11 16.535 31.16 10.585C32.175 4.635 29.9 2.15 21.325 2.15H4.49C4.245 3.62 3.965 5.16 3.615 7.33L1.165 21.365C0.71 23.85 0.43 25.355 0.115 27H4.84C5.12 25.32 5.365 23.885 5.82 21.4ZM21.08 6.21C25.91 6.21 26.89 7.365 26.33 10.585C25.77 13.805 24.37 14.925 19.54 14.925H6.94L8.48 6.21H21.08ZM33.5291 21.12C33.0741 23.675 32.7941 25.39 32.4441 27H37.0641C37.3091 25.39 37.6241 23.675 38.0441 21.155L40.5991 6.665C41.0541 4.18 41.3691 2.29 41.6841 0.819999H37.0641C36.8191 2.325 36.5041 4.18 36.0841 6.63L33.5291 21.12ZM52.9489 27.42C58.5489 27.42 61.6639 26.335 63.3789 24.48L62.9939 27H67.1239C67.5789 24.235 67.8939 22.45 68.2789 20.35C68.8389 17.13 69.0839 15.94 69.5739 13.175C70.4139 8.415 68.4889 6.21 57.9539 6.21C48.3289 6.21 46.0889 8.065 45.3539 12.685L49.7289 12.79C50.0789 10.62 50.9189 9.92 57.6389 9.92C64.5339 9.92 65.4089 10.9 64.8489 14.12L64.4289 16.5C63.1339 15.135 60.3339 14.4 55.1189 14.4C46.0539 14.4 43.8489 16.325 43.0089 20.98C42.2389 25.565 43.8139 27.42 52.9489 27.42ZM55.1189 23.885C48.3639 23.885 47.2439 23.115 47.6289 20.875C48.0139 18.6 49.0289 17.655 56.2739 17.655C63.2389 17.655 64.1839 18.565 63.9039 20.035L63.7639 20.91C63.4139 22.94 62.1189 23.885 55.1189 23.885ZM86.3383 27.21C89.8383 22.1 97.1183 11.39 100.443 6.63H95.3683L89.7333 14.855C88.3683 16.815 87.0383 18.81 85.8483 20.63H83.9583C83.1883 18.775 82.3133 16.745 81.4733 14.785L77.9383 6.63H72.9683C75.1383 11.425 78.8133 20 80.6683 24.48H83.1883L82.5233 25.425C81.0183 27.63 80.2483 28.05 78.1483 28.05C76.7833 28.05 75.5933 28.015 74.1933 27.945L73.4233 31.795C74.8233 31.935 76.5733 32.005 77.5883 32.005C81.8233 32.005 83.8533 30.85 86.3383 27.21ZM117.796 1.065L117.166 4.565H121.786L122.381 1.065H117.796ZM114.296 21.12C113.841 23.675 113.561 25.39 113.211 27H117.831C118.076 25.39 118.391 23.675 118.811 21.155L120.351 12.44C120.771 9.955 121.121 8.1 121.401 6.63H116.816C116.606 8.1 116.256 9.99 115.836 12.44L114.296 21.12ZM127.17 14.05C126.82 16.08 126.435 18.11 126.155 19.72C125.105 25.705 127.205 27.175 135.71 27.175C137.145 27.175 138.23 27.105 139.56 27L140.19 23.045C138.825 23.15 138.02 23.185 136.515 23.185C131.3 23.185 130.18 22.66 130.88 18.635L132.315 10.585H142.395L143.095 6.63H133.015C133.33 4.915 133.575 3.585 133.75 2.64L129.13 2.71C128.885 4.285 128.71 5.44 128.465 6.63C127.345 6.63 126.085 6.63 124.79 6.63L124.09 10.585H127.8L127.17 14.05ZM143.978 21.89L143.033 27.035C143.243 27 144.048 27 144.853 27C144.643 27.455 144.398 27.875 144.153 28.33L142.788 31.235H146.288L148.423 26.93L149.333 21.89H143.978ZM181.225 27.49C193.3 27.49 196.065 25.075 197.36 17.62L192.81 17.515C191.97 21.855 190.43 23.255 181.54 23.255C172.72 23.255 171.46 21.54 172.65 14.75L172.685 14.4C173.875 7.785 175.765 5.895 184.585 5.895C193.51 5.895 194.595 7.26 193.825 11.635L198.41 11.53C199.705 4.215 196.905 1.66 184.795 1.66C172.86 1.66 169.71 4.53 168.03 14.015L167.82 15.135C166.105 24.34 169.08 27.49 181.225 27.49ZM212.549 27.42C222.979 27.42 225.604 25.11 226.969 17.34L227.144 16.29C228.509 8.52 225.814 6.21 215.419 6.21C204.989 6.21 202.364 8.52 200.999 16.29L200.824 17.34C199.459 25.11 202.154 27.42 212.549 27.42ZM212.794 23.36C205.654 23.36 204.604 22.03 205.479 16.955L205.514 16.675C206.424 11.565 207.964 10.27 215.139 10.27C222.279 10.27 223.399 11.565 222.454 16.675L222.419 16.955C221.544 22.03 219.969 23.36 212.794 23.36ZM241.978 27.42C252.408 27.42 255.033 25.11 256.398 17.34L256.573 16.29C257.938 8.52 255.243 6.21 244.848 6.21C234.418 6.21 231.793 8.52 230.428 16.29L230.253 17.34C228.888 25.11 231.583 27.42 241.978 27.42ZM242.223 23.36C235.083 23.36 234.033 22.03 234.908 16.955L234.943 16.675C235.853 11.565 237.393 10.27 244.568 10.27C251.708 10.27 252.828 11.565 251.883 16.675L251.848 16.955C250.973 22.03 249.398 23.36 242.223 23.36ZM260.311 21.12C259.856 23.675 259.576 25.39 259.226 27H263.846C264.091 25.39 264.406 23.675 264.826 21.155L267.381 6.665C267.836 4.18 268.151 2.29 268.466 0.819999H263.846C263.601 2.325 263.286 4.18 262.866 6.63L260.311 21.12ZM328.476 21.4L328.896 19.02C332.851 19.055 338.941 19.055 342.021 19.055C350.596 19.055 352.766 16.535 353.816 10.585C354.831 4.635 352.556 2.15 343.981 2.15H327.146C326.901 3.62 326.621 5.16 326.271 7.33L323.821 21.365C323.366 23.85 323.086 25.355 322.771 27H327.496C327.776 25.32 328.021 23.885 328.476 21.4ZM343.736 6.21C348.566 6.21 349.546 7.365 348.986 10.585C348.426 13.805 347.026 14.925 342.196 14.925H329.596L331.136 6.21H343.736ZM356.185 21.12C355.73 23.675 355.45 25.39 355.1 27H359.72C359.965 25.39 360.28 23.675 360.7 21.155L363.255 6.665C363.71 4.18 364.025 2.29 364.34 0.819999H359.72C359.475 2.325 359.16 4.18 358.74 6.63L356.185 21.12ZM375.605 27.42C381.205 27.42 384.32 26.335 386.035 24.48L385.65 27H389.78C390.235 24.235 390.55 22.45 390.935 20.35C391.495 17.13 391.74 15.94 392.23 13.175C393.07 8.415 391.145 6.21 380.61 6.21C370.985 6.21 368.745 8.065 368.01 12.685L372.385 12.79C372.735 10.62 373.575 9.92 380.295 9.92C387.19 9.92 388.065 10.9 387.505 14.12L387.085 16.5C385.79 15.135 382.99 14.4 377.775 14.4C368.71 14.4 366.505 16.325 365.665 20.98C364.895 25.565 366.47 27.42 375.605 27.42ZM377.775 23.885C371.02 23.885 369.9 23.115 370.285 20.875C370.67 18.6 371.685 17.655 378.93 17.655C385.895 17.655 386.84 18.565 386.56 20.035L386.42 20.91C386.07 22.94 384.775 23.885 377.775 23.885ZM408.995 27.21C412.495 22.1 419.775 11.39 423.1 6.63H418.025L412.39 14.855C411.025 16.815 409.695 18.81 408.505 20.63H406.615C405.845 18.775 404.97 16.745 404.13 14.785L400.595 6.63H395.625C397.795 11.425 401.47 20 403.325 24.48H405.845L405.18 25.425C403.675 27.63 402.905 28.05 400.805 28.05C399.44 28.05 398.25 28.015 396.85 27.945L396.08 31.795C397.48 31.935 399.23 32.005 400.245 32.005C404.48 32.005 406.51 30.85 408.995 27.21ZM440.452 1.065L439.822 4.565H444.442L445.037 1.065H440.452ZM436.952 21.12C436.497 23.675 436.217 25.39 435.867 27H440.487C440.732 25.39 441.047 23.675 441.467 21.155L443.007 12.44C443.427 9.955 443.777 8.1 444.057 6.63H439.472C439.262 8.1 438.912 9.99 438.492 12.44L436.952 21.12ZM449.827 14.05C449.477 16.08 449.092 18.11 448.812 19.72C447.762 25.705 449.862 27.175 458.367 27.175C459.802 27.175 460.887 27.105 462.217 27L462.847 23.045C461.482 23.15 460.677 23.185 459.172 23.185C453.957 23.185 452.837 22.66 453.537 18.635L454.972 10.585H465.052L465.752 6.63H455.672C455.987 4.915 456.232 3.585 456.407 2.64L451.787 2.71C451.542 4.285 451.367 5.44 451.122 6.63C450.002 6.63 448.742 6.63 447.447 6.63L446.747 10.585H450.457L449.827 14.05ZM466.634 21.89L465.689 27.035C465.899 27 466.704 27 467.509 27C467.299 27.455 467.054 27.875 466.809 28.33L465.444 31.235H468.944L471.079 26.93L471.989 21.89H466.634ZM503.881 27.49C515.956 27.49 518.721 25.075 520.016 17.62L515.466 17.515C514.626 21.855 513.086 23.255 504.196 23.255C495.376 23.255 494.116 21.54 495.306 14.75L495.341 14.4C496.531 7.785 498.421 5.895 507.241 5.895C516.166 5.895 517.251 7.26 516.481 11.635L521.066 11.53C522.361 4.215 519.561 1.66 507.451 1.66C495.516 1.66 492.366 4.53 490.686 14.015L490.476 15.135C488.761 24.34 491.736 27.49 503.881 27.49ZM535.205 27.42C545.635 27.42 548.26 25.11 549.625 17.34L549.8 16.29C551.165 8.52 548.47 6.21 538.075 6.21C527.645 6.21 525.02 8.52 523.655 16.29L523.48 17.34C522.115 25.11 524.81 27.42 535.205 27.42ZM535.45 23.36C528.31 23.36 527.26 22.03 528.135 16.955L528.17 16.675C529.08 11.565 530.62 10.27 537.795 10.27C544.935 10.27 546.055 11.565 545.11 16.675L545.075 16.955C544.2 22.03 542.625 23.36 535.45 23.36ZM564.634 27.42C575.064 27.42 577.689 25.11 579.054 17.34L579.229 16.29C580.594 8.52 577.899 6.21 567.504 6.21C557.074 6.21 554.449 8.52 553.084 16.29L552.909 17.34C551.544 25.11 554.239 27.42 564.634 27.42ZM564.879 23.36C557.739 23.36 556.689 22.03 557.564 16.955L557.599 16.675C558.509 11.565 560.049 10.27 567.224 10.27C574.364 10.27 575.484 11.565 574.539 16.675L574.504 16.955C573.629 22.03 572.054 23.36 564.879 23.36ZM582.968 21.12C582.513 23.675 582.233 25.39 581.883 27H586.503C586.748 25.39 587.063 23.675 587.483 21.155L590.038 6.665C590.493 4.18 590.808 2.29 591.123 0.819999H586.503C586.258 2.325 585.943 4.18 585.523 6.63L582.968 21.12ZM651.133 21.4L651.552 19.02C655.508 19.055 661.597 19.055 664.678 19.055C673.253 19.055 675.423 16.535 676.473 10.585C677.487 4.635 675.213 2.15 666.638 2.15H649.803C649.558 3.62 649.278 5.16 648.928 7.33L646.478 21.365C646.023 23.85 645.743 25.355 645.428 27H650.153C650.433 25.32 650.678 23.885 651.133 21.4ZM666.393 6.21C671.223 6.21 672.203 7.365 671.643 10.585C671.083 13.805 669.683 14.925 664.853 14.925H652.253L653.793 6.21H666.393ZM678.842 21.12C678.387 23.675 678.107 25.39 677.757 27H682.377C682.622 25.39 682.937 23.675 683.357 21.155L685.912 6.665C686.367 4.18 686.682 2.29 686.997 0.819999H682.377C682.132 2.325 681.817 4.18 681.397 6.63L678.842 21.12ZM698.261 27.42C703.861 27.42 706.976 26.335 708.691 24.48L708.306 27H712.436C712.891 24.235 713.206 22.45 713.591 20.35C714.151 17.13 714.396 15.94 714.886 13.175C715.726 8.415 713.801 6.21 703.266 6.21C693.641 6.21 691.401 8.065 690.666 12.685L695.041 12.79C695.391 10.62 696.231 9.92 702.951 9.92C709.846 9.92 710.721 10.9 710.161 14.12L709.741 16.5C708.446 15.135 705.646 14.4 700.431 14.4C691.366 14.4 689.161 16.325 688.321 20.98C687.551 25.565 689.126 27.42 698.261 27.42ZM700.431 23.885C693.676 23.885 692.556 23.115 692.941 20.875C693.326 18.6 694.341 17.655 701.586 17.655C708.551 17.655 709.496 18.565 709.216 20.035L709.076 20.91C708.726 22.94 707.431 23.885 700.431 23.885ZM731.651 27.21C735.151 22.1 742.431 11.39 745.756 6.63H740.681L735.046 14.855C733.681 16.815 732.351 18.81 731.161 20.63H729.271C728.501 18.775 727.626 16.745 726.786 14.785L723.251 6.63H718.281C720.451 11.425 724.126 20 725.981 24.48H728.501L727.836 25.425C726.331 27.63 725.561 28.05 723.461 28.05C722.096 28.05 720.906 28.015 719.506 27.945L718.736 31.795C720.136 31.935 721.886 32.005 722.901 32.005C727.136 32.005 729.166 30.85 731.651 27.21ZM763.108 1.065L762.478 4.565H767.098L767.693 1.065H763.108ZM759.608 21.12C759.153 23.675 758.873 25.39 758.523 27H763.143C763.388 25.39 763.703 23.675 764.123 21.155L765.663 12.44C766.083 9.955 766.433 8.1 766.713 6.63H762.128C761.918 8.1 761.568 9.99 761.148 12.44L759.608 21.12ZM772.483 14.05C772.133 16.08 771.748 18.11 771.468 19.72C770.418 25.705 772.518 27.175 781.023 27.175C782.458 27.175 783.543 27.105 784.873 27L785.503 23.045C784.138 23.15 783.333 23.185 781.828 23.185C776.613 23.185 775.493 22.66 776.193 18.635L777.628 10.585H787.708L788.408 6.63H778.328C778.643 4.915 778.888 3.585 779.063 2.64L774.443 2.71C774.198 4.285 774.023 5.44 773.778 6.63C772.658 6.63 771.398 6.63 770.103 6.63L769.403 10.585H773.113L772.483 14.05ZM789.291 21.89L788.346 27.035C788.556 27 789.361 27 790.166 27C789.956 27.455 789.711 27.875 789.466 28.33L788.101 31.235H791.601L793.736 26.93L794.646 21.89H789.291ZM826.538 27.49C838.613 27.49 841.378 25.075 842.673 17.62L838.123 17.515C837.283 21.855 835.743 23.255 826.853 23.255C818.033 23.255 816.773 21.54 817.963 14.75L817.998 14.4C819.188 7.785 821.078 5.895 829.898 5.895C838.823 5.895 839.908 7.26 839.138 11.635L843.723 11.53C845.018 4.215 842.218 1.66 830.108 1.66C818.173 1.66 815.023 4.53 813.343 14.015L813.133 15.135C811.418 24.34 814.393 27.49 826.538 27.49ZM857.861 27.42C868.291 27.42 870.916 25.11 872.281 17.34L872.456 16.29C873.821 8.52 871.126 6.21 860.731 6.21C850.301 6.21 847.676 8.52 846.311 16.29L846.136 17.34C844.771 25.11 847.466 27.42 857.861 27.42ZM858.106 23.36C850.966 23.36 849.916 22.03 850.791 16.955L850.826 16.675C851.736 11.565 853.276 10.27 860.451 10.27C867.591 10.27 868.711 11.565 867.766 16.675L867.731 16.955C866.856 22.03 865.281 23.36 858.106 23.36ZM887.29 27.42C897.72 27.42 900.345 25.11 901.71 17.34L901.885 16.29C903.25 8.52 900.555 6.21 890.16 6.21C879.73 6.21 877.105 8.52 875.74 16.29L875.565 17.34C874.2 25.11 876.895 27.42 887.29 27.42ZM887.535 23.36C880.395 23.36 879.345 22.03 880.22 16.955L880.255 16.675C881.165 11.565 882.705 10.27 889.88 10.27C897.02 10.27 898.14 11.565 897.195 16.675L897.16 16.955C896.285 22.03 894.71 23.36 887.535 23.36ZM905.624 21.12C905.169 23.675 904.889 25.39 904.539 27H909.159C909.404 25.39 909.719 23.675 910.139 21.155L912.694 6.665C913.149 4.18 913.464 2.29 913.779 0.819999H909.159C908.914 2.325 908.599 4.18 908.179 6.63L905.624 21.12ZM973.789 21.4L974.209 19.02C978.164 19.055 984.254 19.055 987.334 19.055C995.909 19.055 998.079 16.535 999.129 10.585C1000.14 4.635 997.869 2.15 989.294 2.15H972.459C972.214 3.62 971.934 5.16 971.584 7.33L969.134 21.365C968.679 23.85 968.399 25.355 968.084 27H972.809C973.089 25.32 973.334 23.885 973.789 21.4ZM989.049 6.21C993.879 6.21 994.859 7.365 994.299 10.585C993.739 13.805 992.339 14.925 987.509 14.925H974.909L976.449 6.21H989.049ZM1001.5 21.12C1001.04 23.675 1000.76 25.39 1000.41 27H1005.03C1005.28 25.39 1005.59 23.675 1006.01 21.155L1008.57 6.665C1009.02 4.18 1009.34 2.29 1009.65 0.819999H1005.03C1004.79 2.325 1004.47 4.18 1004.05 6.63L1001.5 21.12ZM1020.92 27.42C1026.52 27.42 1029.63 26.335 1031.35 24.48L1030.96 27H1035.09C1035.55 24.235 1035.86 22.45 1036.25 20.35C1036.81 17.13 1037.05 15.94 1037.54 13.175C1038.38 8.415 1036.46 6.21 1025.92 6.21C1016.3 6.21 1014.06 8.065 1013.32 12.685L1017.7 12.79C1018.05 10.62 1018.89 9.92 1025.61 9.92C1032.5 9.92 1033.38 10.9 1032.82 14.12L1032.4 16.5C1031.1 15.135 1028.3 14.4 1023.09 14.4C1014.02 14.4 1011.82 16.325 1010.98 20.98C1010.21 25.565 1011.78 27.42 1020.92 27.42ZM1023.09 23.885C1016.33 23.885 1015.21 23.115 1015.6 20.875C1015.98 18.6 1017 17.655 1024.24 17.655C1031.21 17.655 1032.15 18.565 1031.87 20.035L1031.73 20.91C1031.38 22.94 1030.09 23.885 1023.09 23.885ZM1054.31 27.21C1057.81 22.1 1065.09 11.39 1068.41 6.63H1063.34L1057.7 14.855C1056.34 16.815 1055.01 18.81 1053.82 20.63H1051.93C1051.16 18.775 1050.28 16.745 1049.44 14.785L1045.91 6.63H1040.94C1043.11 11.425 1046.78 20 1048.64 24.48H1051.16L1050.49 25.425C1048.99 27.63 1048.22 28.05 1046.12 28.05C1044.75 28.05 1043.56 28.015 1042.16 27.945L1041.39 31.795C1042.79 31.935 1044.54 32.005 1045.56 32.005C1049.79 32.005 1051.82 30.85 1054.31 27.21ZM1085.76 1.065L1085.13 4.565H1089.75L1090.35 1.065H1085.76ZM1082.26 21.12C1081.81 23.675 1081.53 25.39 1081.18 27H1085.8C1086.04 25.39 1086.36 23.675 1086.78 21.155L1088.32 12.44C1088.74 9.955 1089.09 8.1 1089.37 6.63H1084.78C1084.57 8.1 1084.22 9.99 1083.8 12.44L1082.26 21.12ZM1095.14 14.05C1094.79 16.08 1094.4 18.11 1094.12 19.72C1093.07 25.705 1095.17 27.175 1103.68 27.175C1105.11 27.175 1106.2 27.105 1107.53 27L1108.16 23.045C1106.79 23.15 1105.99 23.185 1104.48 23.185C1099.27 23.185 1098.15 22.66 1098.85 18.635L1100.28 10.585H1110.36L1111.06 6.63H1100.98C1101.3 4.915 1101.54 3.585 1101.72 2.64L1097.1 2.71C1096.85 4.285 1096.68 5.44 1096.43 6.63C1095.31 6.63 1094.05 6.63 1092.76 6.63L1092.06 10.585H1095.77L1095.14 14.05ZM1111.95 21.89L1111 27.035C1111.21 27 1112.02 27 1112.82 27C1112.61 27.455 1112.37 27.875 1112.12 28.33L1110.76 31.235H1114.26L1116.39 26.93L1117.3 21.89H1111.95ZM1149.19 27.49C1161.27 27.49 1164.03 25.075 1165.33 17.62L1160.78 17.515C1159.94 21.855 1158.4 23.255 1149.51 23.255C1140.69 23.255 1139.43 21.54 1140.62 14.75L1140.65 14.4C1141.84 7.785 1143.73 5.895 1152.55 5.895C1161.48 5.895 1162.56 7.26 1161.79 11.635L1166.38 11.53C1167.67 4.215 1164.87 1.66 1152.76 1.66C1140.83 1.66 1137.68 4.53 1136 14.015L1135.79 15.135C1134.07 24.34 1137.05 27.49 1149.19 27.49ZM1180.52 27.42C1190.95 27.42 1193.57 25.11 1194.94 17.34L1195.11 16.29C1196.48 8.52 1193.78 6.21 1183.39 6.21C1172.96 6.21 1170.33 8.52 1168.97 16.29L1168.79 17.34C1167.43 25.11 1170.12 27.42 1180.52 27.42ZM1180.76 23.36C1173.62 23.36 1172.57 22.03 1173.45 16.955L1173.48 16.675C1174.39 11.565 1175.93 10.27 1183.11 10.27C1190.25 10.27 1191.37 11.565 1190.42 16.675L1190.39 16.955C1189.51 22.03 1187.94 23.36 1180.76 23.36ZM1209.95 27.42C1220.38 27.42 1223 25.11 1224.37 17.34L1224.54 16.29C1225.91 8.52 1223.21 6.21 1212.82 6.21C1202.39 6.21 1199.76 8.52 1198.4 16.29L1198.22 17.34C1196.86 25.11 1199.55 27.42 1209.95 27.42ZM1210.19 23.36C1203.05 23.36 1202 22.03 1202.88 16.955L1202.91 16.675C1203.82 11.565 1205.36 10.27 1212.54 10.27C1219.68 10.27 1220.8 11.565 1219.85 16.675L1219.82 16.955C1218.94 22.03 1217.37 23.36 1210.19 23.36ZM1228.28 21.12C1227.83 23.675 1227.55 25.39 1227.2 27H1231.82C1232.06 25.39 1232.38 23.675 1232.8 21.155L1235.35 6.665C1235.81 4.18 1236.12 2.29 1236.44 0.819999H1231.82C1231.57 2.325 1231.26 4.18 1230.84 6.63L1228.28 21.12ZM1296.45 21.4L1296.86 19.02C1300.82 19.055 1306.91 19.055 1309.99 19.055C1318.57 19.055 1320.74 16.535 1321.79 10.585C1322.8 4.635 1320.53 2.15 1311.95 2.15H1295.12C1294.87 3.62 1294.59 5.16 1294.24 7.33L1291.79 21.365C1291.34 23.85 1291.06 25.355 1290.74 27H1295.47C1295.75 25.32 1295.99 23.885 1296.45 21.4ZM1311.71 6.21C1316.54 6.21 1317.52 7.365 1316.96 10.585C1316.4 13.805 1315 14.925 1310.17 14.925H1297.57L1299.11 6.21H1311.71ZM1324.15 21.12C1323.7 23.675 1323.42 25.39 1323.07 27H1327.69C1327.93 25.39 1328.25 23.675 1328.67 21.155L1331.22 6.665C1331.68 4.18 1331.99 2.29 1332.31 0.819999H1327.69C1327.44 2.325 1327.13 4.18 1326.71 6.63L1324.15 21.12ZM1343.57 27.42C1349.17 27.42 1352.29 26.335 1354 24.48L1353.62 27H1357.75C1358.2 24.235 1358.52 22.45 1358.9 20.35C1359.46 17.13 1359.71 15.94 1360.2 13.175C1361.04 8.415 1359.11 6.21 1348.58 6.21C1338.95 6.21 1336.71 8.065 1335.98 12.685L1340.35 12.79C1340.7 10.62 1341.54 9.92 1348.26 9.92C1355.16 9.92 1356.03 10.9 1355.47 14.12L1355.05 16.5C1353.76 15.135 1350.96 14.4 1345.74 14.4C1336.68 14.4 1334.47 16.325 1333.63 20.98C1332.86 25.565 1334.44 27.42 1343.57 27.42ZM1345.74 23.885C1338.99 23.885 1337.87 23.115 1338.25 20.875C1338.64 18.6 1339.65 17.655 1346.9 17.655C1353.86 17.655 1354.81 18.565 1354.53 20.035L1354.39 20.91C1354.04 22.94 1352.74 23.885 1345.74 23.885ZM1376.96 27.21C1380.46 22.1 1387.74 11.39 1391.07 6.63H1385.99L1380.36 14.855C1378.99 16.815 1377.66 18.81 1376.47 20.63H1374.58C1373.81 18.775 1372.94 16.745 1372.1 14.785L1368.56 6.63H1363.59C1365.76 11.425 1369.44 20 1371.29 24.48H1373.81L1373.15 25.425C1371.64 27.63 1370.87 28.05 1368.77 28.05C1367.41 28.05 1366.22 28.015 1364.82 27.945L1364.05 31.795C1365.45 31.935 1367.2 32.005 1368.21 32.005C1372.45 32.005 1374.48 30.85 1376.96 27.21ZM1408.42 1.065L1407.79 4.565H1412.41L1413.01 1.065H1408.42ZM1404.92 21.12C1404.47 23.675 1404.19 25.39 1403.84 27H1408.46C1408.7 25.39 1409.02 23.675 1409.44 21.155L1410.98 12.44C1411.4 9.955 1411.75 8.1 1412.03 6.63H1407.44C1407.23 8.1 1406.88 9.99 1406.46 12.44L1404.92 21.12ZM1417.8 14.05C1417.45 16.08 1417.06 18.11 1416.78 19.72C1415.73 25.705 1417.83 27.175 1426.34 27.175C1427.77 27.175 1428.86 27.105 1430.19 27L1430.82 23.045C1429.45 23.15 1428.65 23.185 1427.14 23.185C1421.93 23.185 1420.81 22.66 1421.51 18.635L1422.94 10.585H1433.02L1433.72 6.63H1423.64C1423.96 4.915 1424.2 3.585 1424.38 2.64L1419.76 2.71C1419.51 4.285 1419.34 5.44 1419.09 6.63C1417.97 6.63 1416.71 6.63 1415.42 6.63L1414.72 10.585H1418.43L1417.8 14.05ZM1434.6 21.89L1433.66 27.035C1433.87 27 1434.67 27 1435.48 27C1435.27 27.455 1435.02 27.875 1434.78 28.33L1433.41 31.235H1436.91L1439.05 26.93L1439.96 21.89H1434.6ZM1471.85 27.49C1483.93 27.49 1486.69 25.075 1487.99 17.62L1483.44 17.515C1482.6 21.855 1481.06 23.255 1472.17 23.255C1463.35 23.255 1462.09 21.54 1463.28 14.75L1463.31 14.4C1464.5 7.785 1466.39 5.895 1475.21 5.895C1484.14 5.895 1485.22 7.26 1484.45 11.635L1489.04 11.53C1490.33 4.215 1487.53 1.66 1475.42 1.66C1463.49 1.66 1460.34 4.53 1458.66 14.015L1458.45 15.135C1456.73 24.34 1459.71 27.49 1471.85 27.49ZM1503.17 27.42C1513.6 27.42 1516.23 25.11 1517.59 17.34L1517.77 16.29C1519.13 8.52 1516.44 6.21 1506.04 6.21C1495.61 6.21 1492.99 8.52 1491.62 16.29L1491.45 17.34C1490.08 25.11 1492.78 27.42 1503.17 27.42ZM1503.42 23.36C1496.28 23.36 1495.23 22.03 1496.1 16.955L1496.14 16.675C1497.05 11.565 1498.59 10.27 1505.76 10.27C1512.9 10.27 1514.02 11.565 1513.08 16.675L1513.04 16.955C1512.17 22.03 1510.59 23.36 1503.42 23.36ZM1532.6 27.42C1543.03 27.42 1545.66 25.11 1547.02 17.34L1547.2 16.29C1548.56 8.52 1545.87 6.21 1535.47 6.21C1525.04 6.21 1522.42 8.52 1521.05 16.29L1520.88 17.34C1519.51 25.11 1522.21 27.42 1532.6 27.42ZM1532.85 23.36C1525.71 23.36 1524.66 22.03 1525.53 16.955L1525.57 16.675C1526.48 11.565 1528.02 10.27 1535.19 10.27C1542.33 10.27 1543.45 11.565 1542.51 16.675L1542.47 16.955C1541.6 22.03 1540.02 23.36 1532.85 23.36ZM1550.94 21.12C1550.48 23.675 1550.2 25.39 1549.85 27H1554.47C1554.72 25.39 1555.03 23.675 1555.45 21.155L1558.01 6.665C1558.46 4.18 1558.78 2.29 1559.09 0.819999H1554.47C1554.23 2.325 1553.91 4.18 1553.49 6.63L1550.94 21.12ZM1619.1 21.4L1619.52 19.02C1623.48 19.055 1629.57 19.055 1632.65 19.055C1641.22 19.055 1643.39 16.535 1644.44 10.585C1645.46 4.635 1643.18 2.15 1634.61 2.15H1617.77C1617.53 3.62 1617.25 5.16 1616.9 7.33L1614.45 21.365C1613.99 23.85 1613.71 25.355 1613.4 27H1618.12C1618.4 25.32 1618.65 23.885 1619.1 21.4ZM1634.36 6.21C1639.19 6.21 1640.17 7.365 1639.61 10.585C1639.05 13.805 1637.65 14.925 1632.82 14.925H1620.22L1621.76 6.21H1634.36ZM1646.81 21.12C1646.36 23.675 1646.08 25.39 1645.73 27H1650.35C1650.59 25.39 1650.91 23.675 1651.33 21.155L1653.88 6.665C1654.34 4.18 1654.65 2.29 1654.97 0.819999H1650.35C1650.1 2.325 1649.79 4.18 1649.37 6.63L1646.81 21.12ZM1666.23 27.42C1671.83 27.42 1674.95 26.335 1676.66 24.48L1676.28 27H1680.41C1680.86 24.235 1681.18 22.45 1681.56 20.35C1682.12 17.13 1682.37 15.94 1682.86 13.175C1683.7 8.415 1681.77 6.21 1671.24 6.21C1661.61 6.21 1659.37 8.065 1658.64 12.685L1663.01 12.79C1663.36 10.62 1664.2 9.92 1670.92 9.92C1677.82 9.92 1678.69 10.9 1678.13 14.12L1677.71 16.5C1676.42 15.135 1673.62 14.4 1668.4 14.4C1659.34 14.4 1657.13 16.325 1656.29 20.98C1655.52 25.565 1657.1 27.42 1666.23 27.42ZM1668.4 23.885C1661.65 23.885 1660.53 23.115 1660.91 20.875C1661.3 18.6 1662.31 17.655 1669.56 17.655C1676.52 17.655 1677.47 18.565 1677.19 20.035L1677.05 20.91C1676.7 22.94 1675.4 23.885 1668.4 23.885ZM1699.62 27.21C1703.12 22.1 1710.4 11.39 1713.72 6.63H1708.65L1703.01 14.855C1701.65 16.815 1700.32 18.81 1699.13 20.63H1697.24C1696.47 18.775 1695.59 16.745 1694.75 14.785L1691.22 6.63H1686.25C1688.42 11.425 1692.09 20 1693.95 24.48H1696.47L1695.8 25.425C1694.3 27.63 1693.53 28.05 1691.43 28.05C1690.06 28.05 1688.87 28.015 1687.47 27.945L1686.7 31.795C1688.1 31.935 1689.85 32.005 1690.87 32.005C1695.1 32.005 1697.13 30.85 1699.62 27.21ZM1731.08 1.065L1730.45 4.565H1735.07L1735.66 1.065H1731.08ZM1727.58 21.12C1727.12 23.675 1726.84 25.39 1726.49 27H1731.11C1731.36 25.39 1731.67 23.675 1732.09 21.155L1733.63 12.44C1734.05 9.955 1734.4 8.1 1734.68 6.63H1730.1C1729.89 8.1 1729.54 9.99 1729.12 12.44L1727.58 21.12ZM1740.45 14.05C1740.1 16.08 1739.72 18.11 1739.44 19.72C1738.39 25.705 1740.49 27.175 1748.99 27.175C1750.43 27.175 1751.51 27.105 1752.84 27L1753.47 23.045C1752.11 23.15 1751.3 23.185 1749.8 23.185C1744.58 23.185 1743.46 22.66 1744.16 18.635L1745.6 10.585H1755.68L1756.38 6.63H1746.3C1746.61 4.915 1746.86 3.585 1747.03 2.64L1742.41 2.71C1742.17 4.285 1741.99 5.44 1741.75 6.63C1740.63 6.63 1739.37 6.63 1738.07 6.63L1737.37 10.585H1741.08L1740.45 14.05ZM1757.26 21.89L1756.31 27.035C1756.52 27 1757.33 27 1758.13 27C1757.92 27.455 1757.68 27.875 1757.43 28.33L1756.07 31.235H1759.57L1761.7 26.93L1762.61 21.89H1757.26ZM1794.51 27.49C1806.58 27.49 1809.35 25.075 1810.64 17.62L1806.09 17.515C1805.25 21.855 1803.71 23.255 1794.82 23.255C1786 23.255 1784.74 21.54 1785.93 14.75L1785.97 14.4C1787.16 7.785 1789.05 5.895 1797.87 5.895C1806.79 5.895 1807.88 7.26 1807.11 11.635L1811.69 11.53C1812.99 4.215 1810.19 1.66 1798.08 1.66C1786.14 1.66 1782.99 4.53 1781.31 14.015L1781.1 15.135C1779.39 24.34 1782.36 27.49 1794.51 27.49ZM1825.83 27.42C1836.26 27.42 1838.89 25.11 1840.25 17.34L1840.43 16.29C1841.79 8.52 1839.1 6.21 1828.7 6.21C1818.27 6.21 1815.65 8.52 1814.28 16.29L1814.11 17.34C1812.74 25.11 1815.44 27.42 1825.83 27.42ZM1826.08 23.36C1818.94 23.36 1817.89 22.03 1818.76 16.955L1818.8 16.675C1819.71 11.565 1821.25 10.27 1828.42 10.27C1835.56 10.27 1836.68 11.565 1835.74 16.675L1835.7 16.955C1834.83 22.03 1833.25 23.36 1826.08 23.36ZM1855.26 27.42C1865.69 27.42 1868.31 25.11 1869.68 17.34L1869.85 16.29C1871.22 8.52 1868.52 6.21 1858.13 6.21C1847.7 6.21 1845.07 8.52 1843.71 16.29L1843.53 17.34C1842.17 25.11 1844.86 27.42 1855.26 27.42ZM1855.5 23.36C1848.36 23.36 1847.31 22.03 1848.19 16.955L1848.22 16.675C1849.13 11.565 1850.67 10.27 1857.85 10.27C1864.99 10.27 1866.11 11.565 1865.16 16.675L1865.13 16.955C1864.25 22.03 1862.68 23.36 1855.5 23.36ZM1873.59 21.12C1873.14 23.675 1872.86 25.39 1872.51 27H1877.13C1877.37 25.39 1877.69 23.675 1878.11 21.155L1880.66 6.665C1881.12 4.18 1881.43 2.29 1881.75 0.819999H1877.13C1876.88 2.325 1876.57 4.18 1876.15 6.63L1873.59 21.12Z" fill="#1E2025"/>
</svg>
